<?xml version="1.0" standalone="no"?>
<!DOCTYPE svg PUBLIC "-//W3C//DTD SVG 1.1//EN" "http://www.w3.org/Graphics/SVG/1.1/DTD/svg11.dtd" >
<svg>
<metadata>
Created by FontForge 20110222 at Thu Sep 26 17:33:03 2013
 By Orthosie Webhosting
(c) 2005 Adobe Systems Incorporated. All Rights Reserved.
</metadata>
<defs>
<font id="GaramondPremierProLightDisplay" horiz-adv-x="350" >
  <font-face 
    font-family="GaramondPremierProLightDisplay"
    font-weight="300"
    font-stretch="normal"
    units-per-em="1000"
    panose-1="2 2 3 2 6 5 6 2 4 3"
    ascent="725"
    descent="-275"
    x-height="360"
    cap-height="635"
    bbox="-158 -308.4 1379 849"
    underline-thickness="50"
    underline-position="-50"
    unicode-range="U+0020-FB04"
  />
<missing-glyph horiz-adv-x="500" 
d="M0 0v700h500v-700h-500zM250 395l170 255h-340zM280 350l170 -255v510zM80 50h340l-170 255zM50 605v-510l170 255z" />
    <glyph glyph-name="T_h" unicode="Th" horiz-adv-x="926" 
d="M297 631l209 -1q63 0 85 11q10 5 16 18q5 11 10 11t4 -16q-6 -50 -6 -94q-4 -136 -4 -250q0 -3 2 -3q1 -1 2 0q25 25 63 44q36 18 73 18q56 0 88 -46q21 -28 22 -108q1 -42 0.5 -72.5t-0.5 -59t1 -42.5q1 -16 7 -21t29 -9q16 -3 16 -9q0 -7 -16 -7q-12 0 -34.5 2.5
t-33.5 2.5q-15 0 -32.5 -2t-25.5 -2q-17 0 -17 6q0 5 16 8q18 3 24 10t8 28q6 69 6 177q0 45 -16 73q-22 38 -73 38q-60 0 -100 -42q-10 -10 -10 -42q0 -157 5 -207q6 -28 32 -33q24 -4 24 -10t-14 -6q-13 0 -38.5 2t-42.5 2q-14 0 -33 -2t-26 -2q-15 0 -15 6q0 4 16 8
q17 4 23.5 7t10.5 12.5t5 29.5q4 56 4 302q0 89 -0.5 146t-0.5 64q0 31 -12 32q-22 2 -118 3.5t-108 0.5q-6 -1 -6 -14q0 -255 -1 -299q-2 -144 6 -230q3 -27 12 -36t35 -17q17 -4 17 -10q0 -7 -20 -7q-11 0 -38 3t-46 3q-25 0 -55 -3t-35 -3q-18 0 -18 9q0 5 21 9
q34 4 44 18t12 51q5 63 6 282.5t-1 222.5q-2 20 -7 21q-18 3 -88 3q-42 0 -96 -7q-13 -2 -20.5 -12t-19.5 -41q-6 -16 -13 -16q-5 0 -3 15q10 57 10 89q0 13 4 15t8 -4q9 -12 44 -15q25 -3 223 -3z" />
    <glyph glyph-name="Tcaron_h" unicode="&#x164;h" horiz-adv-x="926" 
d="M297 631l209 -1q63 0 85 11q10 5 16 18q5 11 10 11t4 -16q-6 -50 -6 -94q-4 -136 -4 -250q0 -3 2 -3q1 -1 2 0q25 25 63 44q36 18 73 18q56 0 88 -46q21 -28 22 -108q1 -42 0.5 -72.5t-0.5 -59t1 -42.5q1 -16 7 -21t29 -9q16 -3 16 -9q0 -7 -16 -7q-12 0 -34.5 2.5
t-33.5 2.5q-15 0 -32.5 -2t-25.5 -2q-17 0 -17 6q0 5 16 8q18 3 24 10t8 28q6 69 6 177q0 45 -16 73q-22 38 -73 38q-60 0 -100 -42q-10 -10 -10 -42q0 -157 5 -207q6 -28 32 -33q24 -4 24 -10t-14 -6q-13 0 -38.5 2t-42.5 2q-14 0 -33 -2t-26 -2q-15 0 -15 6q0 4 16 8
q17 4 23.5 7t10.5 12.5t5 29.5q4 56 4 302q0 89 -0.5 146t-0.5 64q0 31 -12 32q-22 2 -118 3.5t-108 0.5q-6 -1 -6 -14q0 -255 -1 -299q-2 -144 6 -230q3 -27 12 -36t35 -17q17 -4 17 -10q0 -7 -20 -7q-11 0 -38 3t-46 3q-25 0 -55 -3t-35 -3q-18 0 -18 9q0 5 21 9
q34 4 44 18t12 51q5 63 6 282.5t-1 222.5q-2 20 -7 21q-18 3 -88 3q-42 0 -96 -7q-13 -2 -20.5 -12t-19.5 -41q-6 -16 -13 -16q-5 0 -3 15q10 57 10 89q0 13 4 15t8 -4q9 -12 44 -15q25 -3 223 -3zM291 659q-7 0 -18 15q-20 25 -81 81q-5 6 -3 7t6 0q28 -7 95 -58q3 -2 10 1
q67 48 93 58q6 1 8 0t-4 -7q-49 -40 -88 -83q-12 -14 -18 -14z" />
    <glyph glyph-name="Tcommaaccent_h" unicode="&#x162;h" horiz-adv-x="926" 
d="M297 631l209 -1q63 0 85 11q10 5 16 18q5 11 10 11t4 -16q-6 -50 -6 -94q-4 -136 -4 -250q0 -3 2 -3q1 -1 2 0q25 25 63 44q36 18 73 18q56 0 88 -46q21 -28 22 -108q1 -42 0.5 -72.5t-0.5 -59t1 -42.5q1 -16 7 -21t29 -9q16 -3 16 -9q0 -7 -16 -7q-12 0 -34.5 2.5
t-33.5 2.5q-15 0 -32.5 -2t-25.5 -2q-17 0 -17 6q0 5 16 8q18 3 24 10t8 28q6 69 6 177q0 45 -16 73q-22 38 -73 38q-60 0 -100 -42q-10 -10 -10 -42q0 -157 5 -207q6 -28 32 -33q24 -4 24 -10t-14 -6q-13 0 -38.5 2t-42.5 2q-14 0 -33 -2t-26 -2q-15 0 -15 6q0 4 16 8
q17 4 23.5 7t10.5 12.5t5 29.5q4 56 4 302q0 89 -0.5 146t-0.5 64q0 31 -12 32q-22 2 -118 3.5t-108 0.5q-6 -1 -6 -14q0 -255 -1 -299q-2 -144 6 -230q3 -27 12 -36t35 -17q17 -4 17 -10q0 -7 -20 -7q-11 0 -38 3t-46 3q-25 0 -55 -3t-35 -3q-18 0 -18 9q0 5 21 9
q34 4 44 18t12 51q5 63 6 282.5t-1 222.5q-2 20 -7 21q-18 3 -88 3q-42 0 -96 -7q-13 -2 -20.5 -12t-19.5 -41q-6 -16 -13 -16q-5 0 -3 15q10 57 10 89q0 13 4 15t8 -4q9 -12 44 -15q25 -3 223 -3zM275 -39q18 0 33 -15t15 -40t-16.5 -44t-31.5 -26t-21 -7q-11 0 -11 3t10 7
q42 19 42 51q0 21 -21 29q-25 8 -25 21q0 9 8.5 15t17.5 6z" />
    <glyph glyph-name="f_f_b" unicode="ffb" horiz-adv-x="909" 
d="M72 68v246q0 9 -7 10q-5 1 -27 1q-12 0 -12 7q0 3 10 9q1 0 10 5t15 8q11 7 11 15q0 87 17 139q13 42 39.5 80t61.5 60q46 28 90 28q58 0 90 -36q4 -4 8 0q57 58 123 58q32 0 57 -14q7 -2 11 0l14 7q9 4 14 4q4 0 3 -20q-5 -98 -5 -338q0 -8 4 -9q62 38 114 38
q35 0 67 -16.5t51 -38.5q44 -48 44 -119q0 -81 -49 -133q-29 -31 -70 -50.5t-79 -19.5q-59 0 -111 25q-8 4 -27 -2q-4 -1 -5.5 0.5t-0.5 6.5q0 4 2 33t3 58q7 164 7 327q0 130 -3 172q-1 37 -32 53q-19 10 -43 10q-91 0 -108 -169q-4 -43 -4 -116q0 -17 1 -23q1 -7 15 -7
q4 0 51.5 1t53.5 1q8 0 8 -16q0 -12 -2.5 -15t-12.5 -3q-7 0 -53.5 1t-53.5 1q-6 0 -6 -9q0 -165 3 -249q2 -45 20 -50q4 -2 16 -3.5t18 -2.5q19 -3 19 -9q0 -7 -16 -7q-11 0 -36 1.5t-49 1.5q-10 0 -21.5 -0.5t-23.5 -2t-17 -1.5q-15 0 -15 6q0 5 20 10q17 4 23 16t6 40
v246q0 14 -7 14h-166q-5 0 -5 -9q0 -197 2 -253q1 -31 7.5 -40.5t31.5 -14.5q17 -3 17 -9q0 -7 -15 -7q-7 0 -32 2.5t-36 2.5q-10 0 -21.5 -0.5t-23 -2t-16.5 -1.5q-16 0 -16 6q0 5 16 9q20 4 26.5 16.5t6.5 40.5zM822 172q0 64 -41 113q-18 21 -48 36.5t-62 15.5
q-46 0 -67 -19q-11 -11 -11 -29q-1 -15 -1 -129q0 -68 14 -94t29 -37q28 -19 72 -19q47 0 81 44.5t34 117.5zM247 650q-102 0 -119 -173q-4 -43 -4 -89q0 -17 1 -23q1 -7 19 -7h153q6 0 6 11q0 119 22 185q9 25 17 39q4 6 -1 11q-31 46 -94 46z" />
    <glyph glyph-name="f_f_h" unicode="ffh" horiz-adv-x="914" 
d="M72 68v246q0 9 -7 10q-5 1 -27 1q-12 0 -12 7q0 3 10 9q1 0 10 5t15 8q11 7 11 15q0 87 17 139q13 42 39.5 80t61.5 60q46 28 90 28q58 0 90 -36q4 -4 7 0q57 58 124 58q32 0 57 -14q7 -2 11 0q5 3 13 7q9 4 13 4q5 0 4 -20q-3 -96 -3 -367q0 -6 6 0q25 25 61 43t73 18
t63 -18q45 -32 47 -124q2 -180 3 -186q1 -10 2.5 -14.5t9 -9t22.5 -6.5q16 -4 16 -9q0 -7 -16 -7q-12 0 -34.5 2.5t-33.5 2.5q-15 0 -32.5 -2t-25.5 -2q-17 0 -17 6q0 5 16 8q18 3 24.5 10t8.5 28q5 57 5 160q0 60 -16 90q-24 38 -73 38q-27 0 -54 -11.5t-41 -26.5
q-15 -15 -15 -46q0 -161 5 -211q5 -24 32 -29q24 -4 24 -10t-14 -6q-13 0 -38.5 2t-42.5 2q-14 0 -33 -2t-26 -2q-15 0 -15 6q0 4 16 8q23 5 30.5 15t8.5 39q4 56 4 297q0 172 -2 254q-3 31 -34 47q-19 10 -43 10q-91 0 -108 -169q-4 -43 -4 -116q0 -17 1 -23q1 -7 15 -7
q4 0 51.5 1t53.5 1q8 0 8 -16q0 -12 -2.5 -15t-12.5 -3q-7 0 -53.5 1t-53.5 1q-6 0 -6 -9q0 -165 3 -249q1 -30 9.5 -40.5t33.5 -15.5q19 -5 19 -9q0 -7 -16 -7q-11 0 -30.5 1.5t-43.5 1.5q-10 0 -21.5 -0.5t-23.5 -2t-17 -1.5q-15 0 -15 6q0 5 20 10q17 4 23 16t6 40v246
q0 14 -7 14h-166q-5 0 -5 -9q0 -197 2 -253q1 -31 7.5 -40.5t31.5 -14.5q17 -3 17 -9q0 -7 -15 -7q-7 0 -32 2.5t-36 2.5q-10 0 -21.5 -0.5t-23 -2t-16.5 -1.5q-16 0 -16 6q0 5 16 9q20 4 26.5 16.5t6.5 40.5zM247 650q-102 0 -119 -173q-4 -43 -4 -89q0 -17 1 -23
q1 -7 19 -7h153q6 0 6 11q0 114 20 180q8 27 19 44q4 6 -1 11q-31 46 -94 46z" />
    <glyph glyph-name="f_f_j" unicode="ffj" horiz-adv-x="645" 
d="M72 68v248q0 9 -7 10q-5 1 -27 1q-12 0 -12 7q0 2 10 8q14 7 25 12q11 7 11 15q0 87 17 139q12 41 39.5 79.5t62.5 60.5q46 28 96 28q57 0 93 -41q4 -3 7 0q57 63 132 63q58 0 80 -29q10 -10 10 -20t-10 -20t-17 -10q-9 0 -20 15q-35 36 -79 36q-42 0 -70 -28
q-45 -46 -52 -170q0 -8 -0.5 -17t-1.5 -20t-1 -17v-47q0 -13 6 -13q126 0 148 1q48 3 63 15l6 4q4 0 4 -13q0 -46 -1 -145t-1 -137q0 -63 -5 -138q-5 -84 -47 -147.5t-88 -88.5q-4 -3 -10 -4.5t-10.5 -1t-4.5 3.5q0 4 11 10q45 23 70 80t28 117q6 115 5 163q-1 39 -0.5 81.5
t-0.5 89.5t-4 66q-1 9 -4.5 12t-21.5 4q-17 1 -138 1q-5 0 -5 -12q0 -166 3 -250q1 -33 8.5 -41.5t34.5 -14.5q19 -3 19 -9q0 -7 -16 -7q-11 0 -30.5 1.5t-43.5 1.5q-10 0 -21.5 -0.5t-23.5 -2t-17 -1.5q-15 0 -15 6q0 5 20 10q17 4 23 16t6 40v249q0 14 -7 14h-168
q-5 0 -5 -9q0 -200 2 -256q1 -31 7.5 -40.5t31.5 -14.5q17 -3 17 -9q0 -7 -15 -7q-7 0 -32 2.5t-36 2.5q-10 0 -21.5 -0.5t-23 -2t-16.5 -1.5q-16 0 -16 6q0 5 16 9q20 4 26.5 16.5t6.5 40.5zM248 650q-103 0 -120 -173q-4 -43 -4 -89q0 -17 1 -23q1 -7 19 -7h155q6 0 6 11
q0 142 47 219q4 6 -1 11q-35 51 -103 51z" />
    <glyph glyph-name="f_f_k" unicode="ffk" horiz-adv-x="886" 
d="M72 68v246q0 9 -7 10q-5 1 -27 1q-12 0 -12 7q0 3 10 9q1 0 10 5t15 8q11 7 11 15q0 87 17 139q13 42 39.5 80t61.5 60q46 28 90 28q58 0 90 -36q4 -4 7 0q57 58 124 58q32 0 57 -14q7 -2 11 0l14 7q9 4 13 4q5 0 4 -20q-5 -160 -5 -248q0 -2 -1.5 -66t-1.5 -145
q0 -17 5 -17q3 0 21 12q84 68 109 99q11 11 11 18q0 11 -26 15q-17 2 -17 8q0 7 15 7q10 0 30.5 -0.5t25.5 -0.5q7 0 38 2.5t43 2.5q14 0 14 -6t-14 -8q-28 -5 -45.5 -12.5t-49.5 -31.5q-50 -37 -102 -86q-3 -2 1 -6q18 -20 152 -154q41 -40 74 -47q15 -4 15 -9q0 -7 -16 -7
q-10 0 -46 2.5t-56 2.5q-8 0 -22.5 -0.5t-21.5 -0.5q-19 0 -19 6t25 11q25 6 10 27q-66 71 -131 132q-17 13 -19 13q-4 0 -4 -11q-2 -38 -2 -106q0 -35 6.5 -44t33.5 -15q15 -4 15 -8q0 -7 -20 -7q-14 0 -35.5 1.5t-34.5 1.5q-16 0 -34.5 -1.5t-23.5 -1.5q-16 0 -16 7
q0 5 13 7q23 6 31.5 15.5t9.5 34.5q4 70 6 239q3 279 3 315q-3 31 -34 47q-19 10 -43 10q-91 0 -108 -169q-4 -43 -4 -116q0 -17 1 -23q1 -7 15 -7q4 0 51.5 1t53.5 1q8 0 8 -16q0 -12 -2.5 -15t-12.5 -3q-7 0 -53.5 1t-53.5 1q-6 0 -6 -9q0 -165 3 -249q1 -30 9.5 -40.5
t33.5 -15.5q19 -5 19 -9q0 -7 -16 -7q-11 0 -30.5 1.5t-43.5 1.5q-10 0 -21.5 -0.5t-23.5 -2t-17 -1.5q-15 0 -15 6q0 5 20 10q17 4 23 16t6 40v246q0 14 -7 14h-166q-5 0 -5 -9q0 -197 2 -253q1 -31 7.5 -40.5t31.5 -14.5q17 -3 17 -9q0 -7 -15 -7q-7 0 -32 2.5t-36 2.5
q-10 0 -21.5 -0.5t-23 -2t-16.5 -1.5q-16 0 -16 6q0 5 16 9q20 4 26.5 16.5t6.5 40.5zM247 650q-102 0 -119 -173q-4 -43 -4 -89q0 -17 1 -23q1 -7 19 -7h153q6 0 6 11q0 114 20 180q8 27 19 44q4 6 -1 11q-31 46 -94 46z" />
    <glyph glyph-name="f_f_t" unicode="fft" horiz-adv-x="723" 
d="M72 68v246q0 9 -7 10q-5 1 -27 1q-12 0 -12 7q0 3 10 9q1 0 10 5t15 8q11 7 11 15q0 82 17 139q30 96 102 141q44 27 94 27q53 0 86 -37q3 -3 7 1q22 22 44 35q40 23 82 23q24 0 47.5 -9.5t23.5 -25.5q0 -10 -21 -23q-9 -6 -19 3q-30 25 -73 25q-46 0 -71 -39t-32 -127
q-4 -43 -4 -96q0 -34 1 -40q2 -9 9 -9h143q9 0 17 6q7 6 37 46q3 4 6.5 5.5t5.5 0.5t2 -3q0 -4 -0.5 -22t-0.5 -25q0 -8 5 -8q8 0 62.5 1.5t66.5 1.5q6 0 6 -12q0 -24 -10 -24q-20 0 -68.5 1.5t-60.5 1.5q-4 0 -4 -9q0 -108 3 -207q1 -43 10 -56q18 -30 67 -30q33 0 59 16
q9 8 9 0q0 -5 -7 -13t-16 -13q-41 -24 -77 -24q-65 0 -89 46q-12 19 -12 63v212q0 13 -8 16q-7 0 -75 -0.5t-74 -0.5t-6 -9q0 -165 3 -249q2 -45 20 -50q4 -2 16 -3.5t18 -2.5q19 -3 19 -9q0 -7 -16 -7q-11 0 -36 1.5t-49 1.5q-10 0 -21.5 -0.5t-23.5 -2t-17 -1.5
q-15 0 -15 6q0 5 20 10q17 4 23 16t6 40v246q0 14 -7 14h-166q-5 0 -5 -9q0 -197 2 -253q1 -31 7.5 -40.5t31.5 -14.5q17 -3 17 -9q0 -7 -15 -7q-7 0 -32 2.5t-36 2.5q-10 0 -21.5 -0.5t-23 -2t-16.5 -1.5q-16 0 -16 6q0 5 16 9q20 4 26.5 16.5t6.5 40.5zM248 650
q-52 0 -81.5 -41t-38.5 -132q-4 -43 -4 -89q0 -17 1 -23q1 -7 19 -7h153q6 0 6 11q0 112 20 178q8 26 19 46q1 1 0.5 5.5t-1.5 5.5q-30 46 -93 46z" />
    <glyph glyph-name="f_h" unicode="fh" horiz-adv-x="679" 
d="M72 68v242q0 11 -4 12q-16 0 -29 1q-14 2 -14 9q0 2 12 9q21 12 24 14q11 7 11 15q0 110 16 164q28 90 95 134q43 30 88 30q31 0 56 -14q4 -1 10 2q3 2 7.5 3t6.5 2q9 4 14 4q4 0 3 -20q-4 -68 -4 -367q0 -6 6 0q25 25 61 43t73 18q36 0 66 -21q41 -29 44 -110v-41.5v-41
v-33.5q0 -51 3 -81q1 -10 2.5 -14.5t9 -9t22.5 -6.5q16 -4 16 -9q0 -7 -16 -7q-12 0 -34.5 2.5t-33.5 2.5q-15 0 -32.5 -2t-25.5 -2q-17 0 -17 6q0 5 16 8q18 3 24.5 10t8.5 28q5 57 5 160q0 63 -15 91q-23 37 -74 37q-27 0 -54 -11.5t-41 -26.5q-15 -15 -15 -46
q0 -141 7 -211q3 -14 9 -20t21 -9q24 -4 24 -10t-14 -6q-13 0 -38.5 2t-42.5 2q-14 0 -33 -2t-26 -2q-15 0 -15 6q0 4 16 8q22 5 29.5 15t8.5 40q5 70 5 296q0 127 -3 250q-1 37 -32 53q-23 9 -43 9q-91 0 -108 -170q-4 -43 -4 -116q0 -17 1 -23q1 -7 15 -7q4 0 51.5 1
t53.5 1q8 0 8 -16q0 -12 -2.5 -15t-12.5 -3q-7 0 -54 1t-54 1q-5 0 -5 -9q0 -207 3 -249q4 -45 20 -50q4 -2 16 -3.5t18 -2.5q19 -3 19 -9q0 -7 -16 -7q-11 0 -36 1.5t-49 1.5q-10 0 -21.5 -0.5t-23.5 -2t-17 -1.5q-15 0 -15 6q0 5 20 10q17 4 23 16t6 40z" />
    <glyph glyph-name="f_j" unicode="fj" horiz-adv-x="410" 
d="M284 698q38 0 64.5 -13.5t26.5 -35.5q0 -10 -10 -20t-17 -10q-10 0 -20 14q-36 37 -80 37q-41 0 -68 -27q-24 -24 -37 -73.5t-16 -97.5q0 -7 -0.5 -15.5t-1.5 -19t-1 -16.5v-16.5v-18.5v-15q0 -13 6 -13q126 0 148 1q48 3 63 15l6 4q4 0 4 -13q0 -46 -1 -145t-1 -137
q0 -63 -5 -138q-5 -84 -47 -147.5t-88 -88.5q-4 -3 -10 -4.5t-10.5 -1t-4.5 3.5q0 4 11 10q45 23 70 80t28 117q4 78 4 310q-1 73 -4 90q-1 9 -4.5 12t-21.5 4q-17 1 -138 1q-5 0 -5 -20q1 -231 6 -267q2 -26 39 -31q20 -5 20 -10t-15 -5q-1 0 -31 1t-47 1q-14 0 -34 -2
t-21 -2q-17 0 -17 6q0 4 15 9q17 4 22.5 9.5t8.5 24.5q2 16 2 269q0 9 -6 12q-5 0 -15 0.5t-14 1.5q-10 2 -10 5q0 6 8 9q1 1 8 3t13 4.5t10 4.5q6 4 6 13q0 92 17 150q23 88 87 140q51 41 108 41z" />
    <glyph glyph-name="f_k" unicode="fk" horiz-adv-x="653" 
d="M271 698q31 0 56 -14q4 -1 10 2q3 2 8 3t7 2q9 4 14 4q4 0 3 -20q0 -7 -2.5 -72t-5 -171.5t-2.5 -215.5q0 -17 5 -17q3 0 21 12q84 68 109 99q11 11 11 18q0 11 -26 15q-17 2 -17 8q0 7 15 7q10 0 30.5 -0.5t25.5 -0.5q7 0 38 2.5t43 2.5q14 0 14 -6t-14 -8
q-28 -5 -45.5 -12.5t-49.5 -31.5q-50 -37 -102 -86q-3 -2 1 -6q18 -20 152 -154q41 -40 74 -47q15 -4 15 -9q0 -7 -16 -7q-11 0 -47 2.5t-55 2.5q-8 0 -22.5 -0.5t-21.5 -0.5q-19 0 -19 6t25 11q25 6 10 27q-66 71 -131 132q-17 13 -19 13q-4 0 -4 -11q-2 -38 -2 -106
q0 -35 6.5 -44t33.5 -15q15 -4 15 -8q0 -7 -20 -7q-14 0 -35.5 1.5t-34.5 1.5q-16 0 -34.5 -1.5t-23.5 -1.5q-16 0 -16 7q0 5 13 7q23 6 31.5 15.5t9.5 34.5q4 70 6 239q3 279 3 311q-1 37 -32 53q-23 9 -43 9q-91 0 -108 -170q-4 -43 -4 -116q0 -17 1 -23q1 -7 15 -7
q4 0 51.5 1t53.5 1q8 0 8 -16q0 -12 -2.5 -15t-12.5 -3q-7 0 -54 1t-54 1q-5 0 -5 -9q0 -207 3 -249q4 -45 20 -50q4 -2 16 -3.5t18 -2.5q19 -3 19 -9q0 -7 -16 -7q-11 0 -36 1.5t-49 1.5q-10 0 -21.5 -0.5t-23.5 -2t-17 -1.5q-15 0 -15 6q0 5 20 10q17 4 23 16t6 40v242
q0 11 -4 12q-16 0 -29 1q-14 2 -14 9q0 2 12 9q21 12 24 14q11 7 11 15q0 110 16 164q28 90 95 134q43 30 88 30z" />
    <glyph glyph-name="f_t" unicode="ft" horiz-adv-x="498" 
d="M72 68v242q0 11 -14 13q-4 0 -10.5 0.5t-9.5 0.5q-13 0 -13 8q0 2 13 9q34 17 34 29q0 115 16 164q23 75 77.5 119.5t112.5 44.5q27 0 46.5 -12t19.5 -22q0 -12 -22 -24q-6 -4 -17 3t-30.5 16t-42.5 9q-11 0 -16 -1q-74 -13 -88 -164q-4 -43 -4 -116q0 -2 -0.5 -8t0 -8.5
t2 -6.5t5 -5.5t9.5 -1.5q2 0 67.5 1t80.5 1q11 0 47 42q16 18 16 11q0 -4 -0.5 -22t-0.5 -25q0 -8 5 -8q8 0 62.5 1.5t66.5 1.5q6 0 6 -12q0 -27 -10 -27q-20 0 -68.5 1.5t-60.5 1.5q-4 0 -4 -9q0 -6 0.5 -49.5t1.5 -92.5t1 -62q0 -47 18 -66.5t59 -19.5q12 0 23.5 2.5t16 4
t13.5 6.5t8 4q7 5 7 -1q0 -16 -35 -33t-65 -17q-101 0 -101 109v200q0 19 -4 24q-2 3 -160 3q-5 0 -5 -9q0 -207 3 -249q4 -45 20 -50q4 -2 18 -3.5t24.5 -4.5t10.5 -7q0 -7 -16 -7q-11 0 -36 1.5t-49 1.5q-10 0 -21.5 -0.5t-23.5 -2t-17 -1.5q-15 0 -15 6q0 5 20 10
q17 4 23 16t6 40z" />
    <glyph glyph-name="gamma_gamma" unicode="&#x3b3;&#x3b3;" horiz-adv-x="721" 
d="M437 374q15 0 26.5 -3t26.5 -14t27 -38t21 -68q21 -96 18 -200q0 -19 7 -1q8 19 41.5 94t45.5 106q20 53 34 128q5 5 10 3q18 -14 23 -39q4 -12 -5 -38q-31 -80 -108 -219q-34 -63 -44 -119q-2 -8 -4 -30q-15 -144 -25 -196q-2 -14 -10 -14q-21 0 -39 33q-4 9 -2 26
q6 39 47 170q13 39 13 61q3 49 -2 100.5t-17 98t-36 76t-56 29.5q-89 0 -173 -243q-27 -85 -33 -111q-2 -8 -4 -30q-19 -189 -28 -218q-2 -14 -10 -14q-10 0 -22 11t-17 22q-4 9 -2 26q8 56 51 192q3 5 8 27.5t5 33.5q4 80 -7 147.5t-39.5 112t-71.5 44.5q-46 0 -77 -59
q-3 -6 -6 -3t-3 8q0 25 16 51q33 57 85 57q15 0 27.5 -4t28 -15.5t28 -39t21.5 -68.5q16 -80 16 -185q0 -19 9 -1q14 43 30.5 84.5t44.5 99.5t62.5 93.5t68.5 35.5z" />
    <glyph glyph-name="lambda_lambda" unicode="&#x3bb;&#x3bb;" horiz-adv-x="692" 
d="M79 674q36 0 61.5 -33t46.5 -119q5 -20 26 -120t41.5 -191.5t28.5 -114.5q11 -33 20 -46t21 -13q15 0 39 52q86 172 104 220q19 40 31 52q5 7 2 18q-23 112 -50 170q-23 47 -48 73t-64 26q-50 0 -90 -32q-2 -2 -4.5 -1.5t-2.5 4.5q0 6 7 19q16 28 45.5 44t60.5 16
q46 0 76.5 -38t56.5 -123q7 -25 47 -211.5t51 -215.5q12 -32 27 -47t40 -15q19 0 41 11q2 1 3 0t1 -4q-2 -20 -13 -37q-22 -35 -52 -35q-14 0 -24.5 8t-19 28.5t-11.5 29.5t-10 37q-49 210 -50 220q-1 4 -4 4t-3 -2q-8 -22 -65.5 -149t-65.5 -141q-20 -35 -43 -35
q-21 0 -37 17.5t-22.5 36t-13.5 47.5q-48 194 -51 222q-1 4 -4 4t-3 -2q-9 -26 -61 -158t-60 -145q-3 -7 -9.5 -13.5t-9.5 -6.5q-18 0 -35 14q-9 6 -4 9q8 13 68 143t70 154q21 49 30 56q5 7 2 18q-26 117 -38 148q-19 49 -41 73t-53 24q-26 0 -62 -15q-8 -4 -8 2q0 9 7 19
q30 44 78 44z" />
    <glyph glyph-name="longs_b" unicode="&#x17f;b" horiz-adv-x="655" 
d="M266 698q27 0 50 -11q5 -1 9 3q7 9 10 11q4 4 6 4q4 0 4 -19q-4 -79 -4 -349q0 -8 4 -9q62 38 114 38q35 0 67 -16.5t51 -38.5q44 -48 44 -119q0 -81 -49 -133q-29 -31 -70 -50.5t-79 -19.5q-59 0 -111 25q-8 4 -27 -2q-4 -1 -5.5 0.5t-0.5 6.5q0 4 2 33t3 58
q7 164 7 327q0 164 -2 192q-1 20 -9 26q-15 14 -49 14q-43 0 -67.5 -38.5t-33.5 -127.5q-5 -53 -5 -185q0 -207 3 -249q2 -28 4.5 -36.5t10.5 -12.5q1 -1 24 -7q19 -3 19 -9q0 -7 -16 -7q-11 0 -28.5 1.5t-41.5 1.5q-10 0 -21.5 -0.5t-23.5 -2t-17 -1.5q-15 0 -15 6
q0 5 20 10q17 4 23 16t6 40v242q0 11 -4 12q-16 0 -29 1q-14 2 -14 9q0 2 12 9q21 12 24 14q11 7 11 15q0 110 16 164q29 92 96 136q43 28 82 28zM568 172q0 64 -41 113q-18 21 -48 36.5t-62 15.5q-46 0 -67 -19q-11 -11 -11 -29q-1 -15 -1 -129q0 -68 14 -94t29 -37
q28 -19 72 -19q47 0 81 44.5t34 117.5z" />
    <glyph glyph-name="longs_h" unicode="&#x17f;h" horiz-adv-x="659" 
d="M72 68v242q0 11 -4 12q-16 0 -29 1q-14 2 -14 9q0 2 12 9q21 12 24 14q11 7 11 15q0 110 16 164q29 94 96 138q40 26 82 26q27 0 50 -11q5 -1 9 3q7 9 10 11q4 4 6 4q4 0 4 -22q-1 -32 -1 -375q0 -6 6 0q25 25 61 43t73 18q36 0 66 -21q41 -29 44 -110v-41.5v-41v-33.5
q0 -51 3 -81q1 -10 2.5 -14.5t9 -9t22.5 -6.5q16 -4 16 -9q0 -7 -16 -7q-12 0 -34.5 2.5t-33.5 2.5q-15 0 -32.5 -2t-25.5 -2q-17 0 -17 6q0 5 16 8q18 3 24.5 10t8.5 28q5 57 5 160q0 63 -15 91q-23 37 -74 37q-27 0 -54 -11.5t-41 -26.5q-15 -15 -15 -46q0 -141 7 -211
q3 -14 9 -20t21 -9q24 -4 24 -10t-14 -6q-13 0 -38.5 2t-42.5 2q-14 0 -33 -2t-26 -2q-15 0 -15 6q0 4 16 8q22 5 29.5 15t8.5 40q5 70 5 296q0 145 -3 268q-2 19 -11 26q-17 16 -50 16q-43 0 -67 -39t-33 -129q-5 -53 -5 -185q0 -207 3 -249q3 -37 7.5 -43.5t31.5 -12.5
q19 -3 19 -9q0 -7 -16 -7q-11 0 -28.5 1.5t-41.5 1.5q-10 0 -21.5 -0.5t-23.5 -2t-17 -1.5q-15 0 -15 6q0 5 20 10q17 4 23 16t6 40z" />
    <glyph glyph-name="longs_i" unicode="&#x17f;i" horiz-adv-x="400" 
d="M72 68v242q0 11 -4 12q-16 0 -29 1q-14 2 -14 9q0 2 12 9q21 12 24 14q11 7 11 15q0 110 16 164q28 89 95 133q44 31 95 31q48 0 75 -27q10 -10 10 -19q0 -8 -8 -18.5t-19 -12.5q-6 -1 -21 14q-31 34 -83 34q-43 0 -68 -38.5t-34 -127.5q-5 -53 -5 -185q0 -207 3 -249
q3 -37 7.5 -43.5t31.5 -12.5q19 -3 19 -9q0 -7 -16 -7q-11 0 -28.5 1.5t-41.5 1.5q-10 0 -21.5 -0.5t-23.5 -2t-17 -1.5q-15 0 -15 6q0 5 20 10q17 4 23 16t6 40zM246 335h-1q0 4 15 8q39 11 56 22q10 7 16 7q5 0 5 -14q0 -3 -0.5 -27.5t-1 -61.5t-0.5 -69q0 -144 2 -161
q1 -10 5.5 -16t9 -8t13.5 -4q15 -3 15 -8q0 -7 -16 -7q-1 0 -29 2t-40 2q-16 0 -33 -1t-20 -1q-12 0 -12 6q0 5 19 9q17 4 24.5 14.5t7.5 40.5q0 18 1.5 114.5t1.5 98.5q0 19 -6 27.5t-26 18.5q-6 4 -6 8z" />
    <glyph glyph-name="longs_k" unicode="&#x17f;k" horiz-adv-x="629" 
d="M266 698q27 0 50 -11q5 -1 9 3q7 9 10 11q4 4 6 4q4 0 4 -22q-5 -80 -5 -186q0 -2 -2.5 -101t-2.5 -180q0 -17 5 -17q3 0 21 12q84 68 109 99q11 11 11 18q0 11 -26 15q-17 2 -17 8q0 7 15 7q10 0 30.5 -0.5t25.5 -0.5q7 0 38 2.5t43 2.5q14 0 14 -6t-14 -8
q-28 -5 -45.5 -12.5t-49.5 -31.5q-50 -37 -102 -86q-3 -2 1 -6q18 -20 152 -154q41 -40 74 -47q15 -4 15 -9q0 -7 -16 -7q-11 0 -47 2.5t-55 2.5q-8 0 -22.5 -0.5t-21.5 -0.5q-19 0 -19 6t25 11q25 6 10 27q-66 71 -131 132q-17 13 -19 13q-4 0 -4 -11q-2 -38 -2 -106
q0 -35 6.5 -44t33.5 -15q15 -4 15 -8q0 -7 -20 -7q-14 0 -35.5 1.5t-34.5 1.5q-16 0 -34.5 -1.5t-23.5 -1.5q-16 0 -16 7q0 5 13 7q23 6 31.5 15.5t9.5 34.5q4 70 6 239q0 33 2.5 156t2.5 173q-2 19 -11 26q-17 16 -48 16q-43 0 -67 -39t-33 -129q-5 -53 -5 -185
q0 -207 3 -249q3 -37 7.5 -43.5t31.5 -12.5q19 -3 19 -9q0 -7 -16 -7q-11 0 -28.5 1.5t-41.5 1.5q-10 0 -21.5 -0.5t-23.5 -2t-17 -1.5q-15 0 -15 6q0 5 20 10q17 4 23 16t6 40v242q0 11 -4 12q-16 0 -29 1q-14 2 -14 9q0 2 12 9q21 12 24 14q11 7 11 15q0 104 18 165
q29 94 94 137q40 26 82 26z" />
    <glyph glyph-name="longs_l" unicode="&#x17f;l" horiz-adv-x="405" 
d="M72 68v242q0 11 -4 12q-16 0 -29 1q-14 2 -14 9q0 2 12 9q21 12 24 14q11 7 11 15q0 110 16 164q29 94 96 138q40 26 82 26q27 0 50 -11q5 -1 9 3q7 9 10 11q4 4 6 4q4 0 4 -22q0 -1 -0.5 -22t-1.5 -54.5t-1.5 -73t-1 -86.5t-0.5 -86v-118q0 -132 3 -186q1 -26 7.5 -34
t27.5 -11q14 -2 14 -7q0 -7 -21 -7q-4 0 -28 1t-34 1q-15 0 -37.5 -1t-25.5 -1q-17 0 -17 6q0 4 19 9q20 4 27 13.5t10 41.5q3 31 5 331q0 182 -1 230q-2 21 -9 26q-17 16 -50 16q-43 0 -67 -39t-33 -129q-5 -53 -5 -185q0 -207 3 -249q3 -37 7.5 -43.5t31.5 -12.5
q19 -3 19 -9q0 -7 -16 -7q-11 0 -28.5 1.5t-41.5 1.5q-10 0 -21.5 -0.5t-23.5 -2t-17 -1.5q-15 0 -15 6q0 5 20 10q17 4 23 16t6 40z" />
    <glyph glyph-name="longs_longs" unicode="&#x17f;s" horiz-adv-x="413" 
d="M72 68v246q0 9 -7 10q-5 1 -27 1q-12 0 -12 7q0 3 10 9q1 0 10 5t15 8q11 7 11 15q0 82 17 139q30 96 103 141q44 27 88 27q52 0 86 -34q3 -3 7 1q54 55 121 55q31 0 51 -12.5t20 -22.5t-21 -23q-9 -6 -19 3q-30 25 -73 25q-47 0 -72 -39.5t-31 -126.5q-5 -77 -3 -184
q0 -165 3 -249q1 -34 7 -42.5t30 -13.5q19 -3 19 -9q0 -7 -16 -7q-11 0 -27.5 1.5t-40.5 1.5q-10 0 -21.5 -0.5t-23.5 -2t-17 -1.5q-15 0 -15 6q0 5 20 10q17 4 23 16t6 40v246q0 9 -7 10q-5 1 -27 1q-12 0 -12 7q0 3 10 9q1 0 10 5t15 8q11 7 11 15q0 155 42 229
q1 1 0.5 5.5t-1.5 5.5q-27 41 -85 41q-104 0 -121 -173q-3 -32 -3 -158q0 -197 2 -253q1 -31 7.5 -40.5t31.5 -14.5q17 -3 17 -9q0 -7 -15 -7q-7 0 -32 2.5t-36 2.5q-10 0 -21.5 -0.5t-23 -2t-16.5 -1.5q-16 0 -16 6q0 5 16 9q20 4 26.5 16.5t6.5 40.5z" />
    <glyph glyph-name="longs_longs_i" unicode="&#x17f;si" horiz-adv-x="622" 
d="M72 68v246q0 9 -7 10q-5 1 -27 1q-12 0 -12 7q0 3 10 9q1 0 10 5t15 8q11 7 11 15q0 82 17 139q30 96 103 141q44 27 88 27q52 0 86 -34q3 -3 7 1q54 55 121 55q31 0 51 -12.5t20 -22.5t-21 -23q-9 -6 -19 3q-30 25 -73 25q-47 0 -72 -39.5t-31 -126.5q-6 -89 -4 -184
q0 -165 3 -249q1 -34 7 -42.5t30 -13.5q19 -3 19 -9q0 -7 -16 -7q-11 0 -27 1.5t-40 1.5q-10 0 -21.5 -0.5t-23.5 -2t-17 -1.5q-15 0 -15 6q0 5 20 10q17 4 23 16t6 40v246q0 9 -7 10q-5 1 -27 1q-12 0 -12 7q0 3 10 9q1 0 10 5t15 8q11 7 11 15q0 155 42 229q1 1 0.5 5.5
t-1.5 5.5q-27 41 -85 41q-104 0 -121 -173q-4 -43 -4 -158q0 -197 2 -253q1 -31 7.5 -40.5t31.5 -14.5q17 -3 17 -9q0 -7 -15 -7q-7 0 -31.5 2.5t-35.5 2.5q-10 0 -21.5 -0.5t-23 -2t-16.5 -1.5q-16 0 -16 6q0 5 16 9q20 4 26.5 16.5t6.5 40.5zM468 335h-1q0 4 15 8
q39 11 56 22q10 7 16 7q5 0 5 -14q0 -3 -0.5 -27.5t-1 -61.5t-0.5 -69q0 -144 2 -161q1 -10 5.5 -16t9 -8t13.5 -4q15 -3 15 -8q0 -7 -16 -7q-1 0 -29 2t-40 2q-16 0 -33 -1t-20 -1q-12 0 -12 6q0 5 19 9q17 4 24.5 14.5t7.5 40.5q0 18 1.5 114.5t1.5 98.5q0 19 -6 27.5
t-26 18.5q-6 4 -6 8z" />
    <glyph glyph-name="longs_longs_l" unicode="&#x17f;sl" horiz-adv-x="628" 
d="M72 68v246q0 9 -7 10q-5 1 -27 1q-12 0 -12 7q0 3 10 9q1 0 10 5t15 8q11 7 11 15q0 82 17 139q30 96 103 141q44 27 88 27q51 0 84 -33q2 -3 6 1q53 54 117 54q27 0 50 -11q5 -1 9 3q7 9 10 11q4 4 6 4q4 0 4 -22q0 -1 -0.5 -22t-1 -54.5t-1.5 -73t-1.5 -86.5t-0.5 -86
v-118q0 -132 3 -186q1 -26 7.5 -34t27.5 -11q14 -2 14 -7q0 -7 -21 -7q-4 0 -28 1t-34 1q-15 0 -37.5 -1t-25.5 -1q-17 0 -17 6q0 4 19 9q19 4 25.5 13.5t9.5 41.5q5 57 7 331q0 182 -1 230q-2 21 -9 26q-17 16 -51 16q-43 0 -66.5 -39t-32.5 -129q-5 -53 -5 -185
q0 -165 3 -249q1 -34 7 -42.5t30 -13.5q19 -3 19 -9q0 -7 -16 -7q-11 0 -27.5 1.5t-40.5 1.5q-10 0 -21.5 -0.5t-23.5 -2t-17 -1.5q-15 0 -15 6q0 5 20 10q17 4 23 16t6 40v246q0 9 -7 10q-5 1 -27 1q-12 0 -12 7q0 3 10 9q1 0 10 5t15 8q11 7 11 15q0 155 42 229
q1 1 0.5 5.5t-1.5 5.5q-27 41 -85 41q-104 0 -121 -173q-3 -32 -3 -158q0 -197 2 -253q1 -31 7.5 -40.5t31.5 -14.5q17 -3 17 -9q0 -7 -15 -7q-7 0 -32 2.5t-36 2.5q-10 0 -21.5 -0.5t-23 -2t-16.5 -1.5q-16 0 -16 6q0 5 16 9q20 4 26.5 16.5t6.5 40.5z" />
    <glyph glyph-name="longs_t" unicode="&#x17f;t" horiz-adv-x="492" 
d="M72 68v242q0 11 -4 12q-16 0 -29 1q-14 2 -14 9q0 2 12 9q21 12 24 14q11 7 11 15q0 110 16 164q27 86 93 126q33 20 63 20q57 0 83 -40q19 -31 19 -77q0 -20 -0.5 -86.5t-0.5 -111.5q0 -8 5 -8q8 0 62 1t66 1q6 0 6 -12q0 -23 -10 -23h-129q-4 0 -4 -9q0 -169 1 -202
q1 -43 12 -58q18 -30 67 -30q33 0 59 16q9 8 9 0q0 -5 -7 -13t-16 -13q-41 -24 -77 -24q-65 0 -89 46q-12 19 -12 63l2 210q0 11 -4 12q-14 0 -27 1q-10 1 -10 6q0 4 8 9q21 12 27 16q9 6 9 15q6 72 6 170q0 58 -16 82q-23 34 -62 34q-41 0 -62.5 -32t-30.5 -120
q-3 -32 -3 -185q0 -207 3 -249q4 -45 20 -50q4 -2 16 -3.5t18 -2.5q19 -3 19 -9q0 -7 -16 -7q-11 0 -36 1.5t-49 1.5q-10 0 -21.5 -0.5t-23.5 -2t-17 -1.5q-15 0 -15 6q0 5 20 10q17 4 23 16t6 40z" />
    <glyph glyph-name="f_f" unicode="ff" horiz-adv-x="470" 
d="M248 650q-52 0 -81.5 -41t-38.5 -132q-4 -43 -4 -89q0 -17 1 -23q1 -7 19 -7h153q6 0 6 11q0 155 39 224q1 1 0.5 5.5t-1.5 5.5q-30 46 -93 46zM296 328h-166q-5 0 -5 -9q0 -197 2 -253q1 -31 7.5 -40.5t31.5 -14.5q17 -3 17 -9q0 -7 -15 -7q-7 0 -32 2.5t-36 2.5
q-10 0 -21.5 -0.5t-23 -2t-16.5 -1.5q-16 0 -16 6q0 5 16 9q20 4 26.5 16.5t6.5 40.5v246q0 9 -7 10q-5 1 -27 1q-12 0 -12 7q0 3 10 9q1 0 10 5t15 8q11 7 11 15q0 82 17 139q29 96 102 141q44 27 94 27q53 0 86 -37q3 -3 7 1q57 58 126 58q31 0 51 -12.5t20 -22.5t-21 -23
q-9 -6 -19 3q-30 25 -73 25q-46 0 -71 -39t-32 -127q-4 -43 -4 -96q0 -34 1 -40q2 -9 9 -9q4 0 53 1t54 1q12 0 12 -16q0 -12 -2.5 -15t-12.5 -3q-7 0 -54 1t-53 1t-6 -9q0 -165 3 -249q2 -45 20 -50q4 -2 16 -3.5t18 -2.5q19 -3 19 -9q0 -7 -16 -7q-11 0 -36 1.5t-49 1.5
q-10 0 -21.5 -0.5t-23.5 -2t-17 -1.5q-15 0 -15 6q0 5 20 10q17 4 23 16t6 40v246q0 14 -7 14z" />
    <glyph glyph-name="f_i" unicode="fi" horiz-adv-x="424" 
d="M292 698q58 0 83 -32q10 -10 10 -20t-10 -20t-17 -10q-9 0 -20 15q-37 39 -82 39q-46 0 -76 -30q-46 -47 -53 -168q-4 -66 -3 -101q4 -12 8 -13q140 0 155 1q49 3 64 15q5 5 7 4q3 -2 3 -13q0 -5 -0.5 -29t-1 -62.5t-0.5 -76.5q0 -79 2 -145q1 -24 6 -31.5t23 -10.5
q14 -3 14 -8t-11 -5q-6 0 -28 1.5t-39 1.5q-13 0 -31 -1t-21 -1q-19 0 -19 6q0 5 21 10q18 4 23 14t7 54q1 29 1.5 113t-0.5 111q-1 16 -5.5 19t-25.5 5q-17 1 -147 1q-5 0 -5 -20q0 -5 0.5 -57.5t0.5 -88.5q0 -84 5 -121q2 -26 39 -31q20 -5 20 -10t-15 -5q-1 0 -31 1
t-47 1q-14 0 -34 -2t-21 -2q-17 0 -17 6q0 4 15 9q17 4 22.5 9.5t8.5 24.5q2 16 2 269q0 9 -6 12q-4 0 -13 0.5t-13 1.5q-14 3 -14 6q0 2 10 7q3 2 14.5 6.5t15.5 6.5q6 4 6 13q0 92 17 150q22 84 85 135q57 46 118 46z" />
    <glyph glyph-name="f_l" unicode="fl" horiz-adv-x="426" 
d="M72 68v242q0 11 -4 12q-16 0 -29 1q-14 2 -14 9q0 2 12 9q21 12 24 14q11 7 11 15q0 110 16 164q28 90 95 134q41 28 83 30q27 0 55 -11q13 -5 15 -5q7 0 13 10q9 9 10 9q5 0 5 -17q0 -1 -0.5 -22t-1 -55t-1.5 -73.5t-1.5 -86.5t-0.5 -86v-118q0 -168 1 -186
q1 -26 8.5 -34t28.5 -11q14 -2 14 -7q0 -7 -21 -7q-4 0 -28 1t-34 1q-15 0 -37 -1t-25 -1q-17 0 -17 6q0 4 19 9q20 4 26.5 13.5t9.5 41.5q3 31 5 331q0 40 1 109.5t0 95.5q0 31 -14 48q-19 21 -60 21q-91 0 -108 -170q-4 -43 -4 -116q0 -17 1 -23q1 -7 15 -7q4 0 51.5 1
t53.5 1q8 0 8 -16q0 -12 -2.5 -15t-12.5 -3q-7 0 -54 1t-54 1q-5 0 -5 -9q0 -207 3 -249q3 -28 5.5 -37.5t12.5 -13.5q2 -1 19 -5q19 -3 19 -9q0 -7 -16 -7q-11 0 -27.5 1.5t-40.5 1.5q-10 0 -21.5 -0.5t-23.5 -2t-17 -1.5q-15 0 -15 6q0 5 20 10q17 4 23 16t6 40z" />
    <glyph glyph-name="f_f_i" unicode="ffi" horiz-adv-x="655" 
d="M72 68v248q0 9 -7 10q-5 1 -27 1q-12 0 -12 7q0 2 10 8q14 7 25 12q11 7 11 15q0 87 17 139q12 41 39.5 79.5t62.5 60.5q46 28 96 28q57 0 93 -41q4 -3 7 0q61 63 136 63q58 0 83 -32q10 -10 10 -20t-10 -20t-17 -10q-9 0 -20 15q-37 39 -82 39t-74 -34t-39 -74.5
t-13 -89.5q-4 -66 -3 -101q4 -12 8 -13q130 0 152 1q49 3 64 15q6 4 7 4q3 0 3 -13q0 -5 -0.5 -29t-1 -62.5t-0.5 -76.5q0 -79 2 -145q1 -24 6 -31.5t23 -10.5q14 -3 14 -8t-11 -5q-6 0 -28 1.5t-39 1.5q-13 0 -31 -1t-21 -1q-19 0 -19 6q0 5 21 10q18 4 23 14t7 54
q1 29 1.5 113t-0.5 111q-1 16 -5.5 19t-25.5 5q-17 1 -144 1q-5 0 -5 -20q0 -158 3 -242q1 -33 8.5 -41.5t34.5 -14.5q19 -3 19 -9q0 -7 -16 -7q-11 0 -30.5 1.5t-43.5 1.5q-10 0 -21.5 -0.5t-23.5 -2t-17 -1.5q-15 0 -15 6q0 5 20 10q17 4 23 16t6 40v249q0 14 -7 14h-168
q-5 0 -5 -9q0 -200 2 -256q1 -31 7.5 -40.5t31.5 -14.5q17 -3 17 -9q0 -7 -15 -7q-7 0 -32 2.5t-36 2.5q-10 0 -21.5 -0.5t-23 -2t-16.5 -1.5q-16 0 -16 6q0 5 16 9q20 4 26.5 16.5t6.5 40.5zM248 650q-103 0 -120 -173q-4 -43 -4 -89q0 -17 1 -23q1 -7 19 -7h155q6 0 6 11
q0 139 46 220q4 6 -1 11q-34 50 -102 50z" />
    <glyph glyph-name="f_f_l" unicode="ffl" horiz-adv-x="656" 
d="M72 68v247q0 9 -7 10q-5 1 -27 1q-12 0 -12 7q0 3 10 9q14 7 25 12q11 7 11 15q0 82 17 139q30 96 102 141q44 27 94 27q52 0 87 -36q2 -2 6 1q56 57 123 57q23 0 50 -11q13 -5 15 -5q7 0 13 10q9 9 10 9q5 0 5 -17q0 -1 -0.5 -22t-1 -55t-1.5 -73.5t-1.5 -86.5t-0.5 -86
v-118q0 -168 1 -186q1 -26 8.5 -34t28.5 -11q14 -2 14 -7q0 -7 -21 -7q-4 0 -28 1t-34 1q-15 0 -37 -1t-25 -1q-17 0 -17 6q0 4 19 9q20 4 27 13.5t10 41.5q2 27 4 252q0 8 -4 8q-21 0 -96 0.5t-77 0.5q-6 0 -6 -9q0 -167 3 -251q1 -23 5.5 -34t7 -14t19 -5t22.5 -3
q19 -3 19 -9q0 -7 -16 -7q-11 0 -36 1.5t-49 1.5q-10 0 -21.5 -0.5t-23.5 -2t-17 -1.5q-15 0 -15 6q0 5 20 10q17 4 23 16t6 40v247q0 14 -7 14h-166q-5 0 -5 -9q0 -198 2 -254q1 -31 7.5 -40.5t31.5 -14.5q17 -3 17 -9q0 -7 -15 -7q-7 0 -32 2.5t-36 2.5q-10 0 -21.5 -0.5
t-23 -2t-16.5 -1.5q-16 0 -16 6q0 5 16 9q20 4 26.5 16.5t6.5 40.5zM466 673q-93 0 -107 -171q-4 -43 -4 -96q0 -33 1 -39q2 -9 9 -9h169q5 0 5 7q0 37 1 124.5t0 114.5q0 30 -15 48q-19 21 -59 21zM248 650q-52 0 -81.5 -41t-38.5 -132q-4 -43 -4 -89q0 -17 1 -23
q1 -7 19 -7h151q2 0 5 4.5t3 6.5q0 119 22 185q9 25 17 39q1 1 0.5 5.5t-1.5 5.5q-30 46 -93 46z" />
    <glyph glyph-name=".notdef" horiz-adv-x="500" 
d="M0 0v700h500v-700h-500zM250 395l170 255h-340zM280 350l170 -255v510zM80 50h340l-170 255zM50 605v-510l170 255z" />
    <glyph glyph-name=".null" horiz-adv-x="0" 
 />
    <glyph glyph-name="nonmarkingreturn" horiz-adv-x="333" 
 />
    <glyph glyph-name="space" unicode=" " horiz-adv-x="150" 
 />
    <glyph glyph-name="exclam" unicode="!" horiz-adv-x="224" 
d="M139 159q-8 0 -11 28q-18 217 -24 327q-1 21 9 44t25 23q17 0 26.5 -18t9.5 -45q0 -21 -12 -168t-12 -160q-2 -31 -11 -31zM140 -9q-13 0 -26.5 9t-13.5 28q0 17 13 29t28 12q12 0 20 -9.5t10 -18t2 -14.5q0 -16 -11 -26t-22 -10z" />
    <glyph glyph-name="quotedbl" unicode="&#x22;" horiz-adv-x="209" 
d="M71 678q9 0 9 -31q0 -14 -6 -60.5t-10 -59.5q-5 -19 -8 -22q-2 -3 -4.5 -3.5t-3.5 0t-1 2.5q-4 78 -13 132q0 8 3 12q6 9 17 19.5t17 10.5zM166 683q9 0 9 -31q0 -14 -6 -60.5t-10 -59.5q-5 -19 -8 -22q-2 -3 -4.5 -3.5t-3.5 0t-1 2.5q-4 78 -13 132q0 8 3 12
q6 9 17 19.5t17 10.5z" />
    <glyph glyph-name="numbersign" unicode="#" horiz-adv-x="410" 
d="M365 403q-4 -22 -14 -22l-59 -3q-1 0 -7 -9l-24 -96q-1 -2 0.5 -4t2.5 -1l60 2q4 0 7 -1.5t2 -5.5q-2 -30 -16 -30l-62 -3q-7 0 -7 -6l-37 -143q-4 -13 -14 -13q-8 0 -5 13l35 140q1 6 -6 6l-76 -4q-1 0 -4 -2.5t-3 -4.5l-41 -149q-3 -9 -8 -9q-4 0 -8 4.5t-3 6.5l38 147
q2 6 -4 6l-63 -2q-5 0 -5 8q3 29 16 29l58 4q4 0 7 5l23 97q1 4 -0.5 6.5t-5.5 1.5l-59 -2q0 -1 -2 0t-3 4.5t0 11.5q1 5 5.5 11.5t8.5 7.5l62 4q4 0 6.5 1.5t1.5 3.5l34 128q2 11 16 11q5 0 5 -9l-33 -129q-2 -4 3 -4l81 5q4 0 8 7l36 128q2 11 10 11q4 0 6.5 -4t1.5 -10
l-32 -124q0 -3 1 -5t3 -2h1l56 2q3 0 5 -5.5t1 -9.5zM264 371q1 2 -1 4t-4 1l-82 -4q-7 0 -7 -6l-25 -98q0 -2 1.5 -4.5t4.5 -1.5l79 4q7 0 8 6z" />
    <glyph glyph-name="dollar" unicode="$" horiz-adv-x="410" 
d="M215 276l-22 -227q0 -4 2 -4q45 3 79.5 34.5t34.5 83.5q0 37 -20.5 63t-69.5 53q-4 1 -4 -3zM207 360l20 208q0 2 -3 2q-46 -3 -75.5 -31t-29.5 -76q0 -63 82 -105q6 -4 6 2zM230 588l7 66q0 3 11 3q5 0 5 -4l-6 -65q0 -5 3 -5q18 -1 36.5 -5t30.5 -7.5t13 -3.5
q9 -2 12 -23q5 -27 5 -38q0 -22 -5 -22q-3 0 -7 10q-9 30 -34.5 50.5t-52.5 24.5q-2 1 -3.5 -1.5t-1.5 -3.5l-21 -211q0 -6 4 -8q67 -36 104 -73.5t37 -93.5q0 -67 -60 -110q-40 -30 -114 -37q-3 0 -3 -4l-9 -77q0 -4 -13 -4q-4 0 -4 5l8 74q0 6 -3 6q-38 1 -105 22
q-10 1 -15 27q-1 4 -5.5 26t-4.5 28q0 13 6 13q3 0 14 -21q17 -34 47.5 -57t65.5 -24q3 0 3 4l23 235q0 3 -2 5q-60 35 -93.5 70.5t-33.5 86.5q0 58 47 99q37 32 110 38q3 0 4 5z" />
    <glyph glyph-name="percent" unicode="%" horiz-adv-x="547" 
d="M434 47q52 1 52 126q0 19 -3 40t-9 45.5t-19.5 40t-32.5 15.5q-30 0 -41.5 -39.5t-11.5 -85.5q0 -19 3 -41t10 -46.5t20.5 -40t31.5 -14.5zM425 33q-48 0 -75.5 44t-27.5 97q0 60 25 102q32 52 86 52q48 0 74 -45t26 -96q0 -68 -24 -105q-30 -49 -84 -49zM483 588
q5 -1 4 -6.5t-5 -12.5q-208 -323 -342 -524q-4 -6 -11 -9t-9 -1q-3 5 9 25q65 96 330 505q15 23 24 23zM168 291q52 1 52 126q0 19 -3 40t-9 45.5t-19.5 40t-32.5 15.5q-30 0 -41.5 -39.5t-11.5 -85.5q0 -19 3 -41t10 -46.5t20.5 -40t31.5 -14.5zM159 277q-48 0 -75.5 44
t-27.5 97q0 60 25 102q32 52 86 52q48 0 74 -45t26 -96q0 -68 -24 -105q-30 -49 -84 -49z" />
    <glyph glyph-name="ampersand" unicode="&#x26;" horiz-adv-x="730" 
d="M252 576q52 0 84.5 -31.5t32.5 -67.5q0 -34 -38 -66q-7 -5 -30.5 -20.5t-31.5 -20.5q-4 -2 1 -7q44 -31 100 -87t80 -84q4 -4 6 1q40 54 117 179q19 30 -32 37q-20 3 -20 10q0 9 24 8q34 -2 50 -1t47 5t48 5q25 1 25 -5q0 -7 -20 -12q-31 -7 -49.5 -18.5t-47.5 -47.5
q-55 -71 -130 -175q-2 -5 2 -11q53 -81 87.5 -109.5t75.5 -28.5q25 0 54 9q16 4 16 -2q0 -8 -31 -24q-11 -7 -43 -15t-57 -8q-55 0 -77 34q-7 11 -21.5 33t-25.5 38.5t-18 25.5q-3 6 -6 1q-1 -1 -8.5 -12t-15 -20t-17 -21t-19 -21.5t-16.5 -14.5q-68 -48 -125 -48
q-78 0 -135 57q-19 20 -35.5 54t-16.5 69q0 64 50 111q26 26 101 76q2 1 2.5 4t-0.5 4q-60 62 -59 105q0 49 46 85q33 27 76 27zM252 34q53 0 88 23.5t68 71.5q9 12 5 16q-32 44 -102 108.5t-98 83.5q-6 6 -13 2q-40 -24 -71 -65.5t-32 -94.5q-1 -64 49.5 -104.5
t105.5 -40.5zM246 560q-27 0 -46 -25.5t-19 -55.5q0 -44 63 -98q7 -5 11 -2q19 16 29 26t21.5 30t11.5 40q0 28 -17 56.5t-54 28.5z" />
    <glyph glyph-name="quotesingle" unicode="'" horiz-adv-x="116" 
d="M73 680q9 0 9 -31q0 -14 -6 -60.5t-10 -59.5q-4 -16 -10 -22q-2 -3 -4.5 -3.5t-3.5 0t-1 2.5q-4 78 -13 132q0 8 3 12q6 9 18 19.5t18 10.5z" />
    <glyph glyph-name="parenleft" unicode="(" horiz-adv-x="291" 
d="M91 259q0 -142 35 -239t110 -189q8 -11 4 -15q-5 -5 -13 -5q-13 0 -26 15q-141 175 -141 413q0 133 48 246.5t109 177.5q14 14 22 14q5 0 7 -3q1 -5 -7 -14q-66 -70 -107 -180t-41 -221z" />
    <glyph glyph-name="parenright" unicode=")" horiz-adv-x="291" 
d="M200 229q0 142 -34.5 237t-110.5 191q-8 11 -4 15q5 5 13 5q13 0 26 -15q141 -175 141 -413q0 -133 -48 -246.5t-109 -177.5q-14 -14 -22 -14q-5 0 -7 3q-1 5 7 14q66 70 107 180t41 221z" />
    <glyph glyph-name="asterisk" unicode="*" horiz-adv-x="290" 
d="M125 615q3 0 6 -11q5 -16 18 -73q1 -8 5 -1q19 29 41 56q8 9 11 9q2 -1 1.5 -4.5t-2.5 -7.5q-3 -6 -12 -21.5t-17.5 -29t-9.5 -14.5q-2 -4 2 -4q5 1 41 6.5t39 5.5q12 0 12 -4t-10 -7q-36 -12 -80 -18q-2 0 -2.5 -1t1.5 -2q28 -18 55 -40q14 -10 14 -16q-1 -2 -5 -1
t-11 4q-11 6 -26 15t-26 16t-13 8q-2 0 -2 -3t3 -18t5 -26q4 -29 4 -36q0 -11 -6 -11q-4 0 -6 9q-6 15 -18 81q0 3 -1.5 3.5t-2.5 -1.5q-37 -55 -49 -65q-6 -6 -9 -6q-9 0 10 31q30 40 34 48q5 4 -3 3q-2 0 -35 -4.5t-38 -4.5q-13 0 -13 5q0 6 13 9q30 7 71 14q4 1 2 3
q-58 41 -67 53q-4 5 2 6q2 0 5 -1q4 -1 31.5 -18t41.5 -27q1 -1 1.5 -0.5t0.5 2.5q-7 45 -10 78q-2 11 4 11z" />
    <glyph glyph-name="plus" unicode="+" horiz-adv-x="410" 
d="M191 353q0 4 8.5 7t12.5 3h4.5t3.5 -3t2 -9v-141q0 -7 5 -7h141q5 0 5 -7q0 -20 -8 -20l-138 -1q-5 0 -5 -11l-1 -146q0 -9 -21 -9q-10 0 -10 6v153q0 7 -4 7l-143 1q-6 0 -6 6q0 7 3.5 13.5t7.5 6.5l137 1q5 0 5 8z" />
    <glyph glyph-name="comma" unicode="," horiz-adv-x="135" 
d="M59 69q21 0 37.5 -19t16.5 -51q0 -39 -29.5 -64t-51.5 -25q-9 0 -9 4q0 2 9 6q49 20 49 66q0 20 -22 26q-26 7 -30 18q-2 5 -2 11q0 12 9.5 20t22.5 8z" />
    <glyph glyph-name="hyphen" unicode="-" horiz-adv-x="228" 
d="M45 212q98 16 148 19q4 0 4 -6q0 -19 -6 -29q-3 -5 -8 -5q-7 -1 -71.5 -7.5t-71.5 -6.5q-8 0 -8 6q0 17 4 23q3 4 9 6z" />
    <glyph glyph-name="period" unicode="." horiz-adv-x="135" 
d="M66 -12q-14 0 -25 12t-11 27q0 16 12 27.5t28 11.5t25.5 -12t9.5 -26q0 -19 -12 -29.5t-27 -10.5z" />
    <glyph glyph-name="slash" unicode="/" horiz-adv-x="370" 
d="M36 -58q54 137 155 407t114 304q2 3 9.5 7.5t11.5 4.5q9 0 0 -21q-30 -79 -98 -260.5t-113 -300t-56 -141.5q-8 -16 -21 -16q-7 0 -2 16z" />
    <glyph glyph-name="zero" unicode="0" horiz-adv-x="410" 
d="M211 602q43 0 76 -29.5t51 -76t27 -95.5t9 -96q0 -119 -28.5 -191t-69.5 -102q-33 -25 -69 -25q-44 0 -78 29t-53.5 75t-29 96t-9.5 98q0 229 113 301q26 16 61 16zM200 587q-28 0 -49 -27q-52 -72 -52 -237q0 -60 6 -114t18.5 -101.5t36 -76t54.5 -28.5q40 0 62 47
q35 76 35 229q0 124 -29.5 216t-81.5 92z" />
    <glyph glyph-name="one" unicode="1" horiz-adv-x="410" 
d="M117 559q0 5 12 7q67 13 89 26q20 10 23 10t3 -7q0 -5 -2 -135q-1 -60 -0.5 -122t1 -149.5t0.5 -101.5q0 -48 8 -59.5t47 -18.5q14 -3 14 -9q0 -5 -17 -5q-16 0 -42.5 2.5t-49.5 2.5q-20 0 -44 -2.5t-35 -2.5q-18 0 -18 7q0 6 17 8q39 7 47.5 17.5t10.5 59.5q5 70 5 263
q0 135 -3 174q-2 23 -9 23q-3 0 -19 2t-25 4q-13 2 -13 6z" />
    <glyph glyph-name="two" unicode="2" horiz-adv-x="410" 
d="M189 602q65 0 101.5 -43t36.5 -102q0 -76 -71 -178q-21 -30 -51.5 -70t-69 -88.5t-43.5 -55.5q-3 -7 3 -9q19 -6 161 -6h35.5h32.5l14 1q12 2 17 3.5t15 9.5t18 23q7 12 12 12q2 0 2.5 -2.5t-0.5 -7t-3 -9.5q-25 -53 -28 -71q-4 -13 -13 -13q-2 0 -97 2t-118 2
q-16 0 -58.5 -1t-45.5 -1q-19 0 -19 5q0 6 12 16q57 57 148 187q89 127 89 223q0 58 -30 90.5t-76 32.5q-58 0 -111 -60q-9 -11 -14 -11q-7 0 3 18q23 44 60 71q15 13 40.5 22.5t47.5 9.5z" />
    <glyph glyph-name="three" unicode="3" horiz-adv-x="410" 
d="M185 559q-53 0 -102 -64q-8 -9 -11 -9q-6 0 0 15q21 42 64 71.5t85 29.5q53 0 80 -32t27 -75q0 -69 -95 -146q-9 -7 0 -7h10q60 0 98 -40q41 -43 41 -103q0 -64 -38.5 -124t-107.5 -101q-61 -34 -115 -34q-35 0 -56 11.5t-21 28.5q0 4 9.5 14t12.5 10q7 0 14 -6
q22 -26 78 -26q50 0 84 21q31 21 57 65t26 94q0 74 -40 116q-36 36 -84 36q-28 0 -51 -11q-14 -6 -14 1q0 6 10 12q2 1 12 6.5t16 9.5q100 53 100 142q0 41 -22.5 68t-66.5 27z" />
    <glyph glyph-name="four" unicode="4" horiz-adv-x="410" 
d="M316 397v-174q0 -6 4 -6q34 0 82 2q4 0 4 -5t-4.5 -15.5t-9.5 -10.5l-73 1q-3 0 -3 -7q0 -77 1 -101q0 -4 0.5 -13t0.5 -11.5t0.5 -9t1.5 -8.5t2 -6.5t3 -6t4.5 -4.5t6 -4t7.5 -2.5t10 -2.5q17 -3 17 -9q0 -7 -19 -7q-9 0 -31.5 1.5t-36.5 1.5q-16 0 -40 -1.5t-38 -1.5
q-17 0 -17 5q0 7 18 10q34 4 40.5 15.5t9.5 62.5q2 24 2 88q0 10 -5 10q-167 0 -227 -3q-11 0 -11 6t14 26l291 425q8 12 15 13l8 1q5 1 7 -1t1 -6t-6 -10l-286 -411q-2 -7 4 -8q16 -3 190 -3q5 0 5 5v170q0 13 7 18q19 15 43 15q8 0 8 -28z" />
    <glyph glyph-name="five" unicode="5" horiz-adv-x="410" 
d="M306 606q3 1 5 -2.5t0 -5.5q-2 -4 -8 -13t-10.5 -17.5t-7.5 -16.5t-12 -12q-8 -3 -40.5 -7t-71 -8t-47.5 -5q-7 0 -12 -10q-6 -10 -15 -41t-9 -37q0 -10 11 -14q97 -27 166 -69q102 -63 102 -167q0 -96 -82 -167q-42 -35 -99 -54.5t-94 -19.5h-16q-9 3 -9 7t19 8
q90 14 158 69t68 139q0 101 -105 148q-29 14 -142 49q-4 1 -4 16q0 17 22.5 93t34.5 95q9 13 14 13q114 15 137 19q36 5 47 10z" />
    <glyph glyph-name="six" unicode="6" horiz-adv-x="410" 
d="M410 649q11 0 11 -4t-11 -9q-136 -59 -225 -193t-89 -255q0 -96 34 -137q35 -46 93 -46q42 0 73 37t31 103q0 56 -25 91.5t-78 35.5q-23 0 -46 -11.5t-31 -19.5q-11 -10 -13 -3q0 9 9 17q18 18 67 44q32 15 57 15q52 0 82.5 -38.5t30.5 -94.5q0 -92 -73 -157
q-45 -37 -106 -37q-76 0 -122 52.5t-46 139.5q0 102 60 206t165 187q35 27 83.5 52t68.5 25z" />
    <glyph glyph-name="seven" unicode="7" horiz-adv-x="410" 
d="M193 590h70.5t36 0.5t10.5 0.5q16 0 33.5 0.5t29 1t13.5 0.5q11 0 11 -4q0 -2 -3 -8q-11 -14 -76 -149q-55 -117 -223 -482q-6 -10 -11 -10q-10 0 -10 12q0 10 17 42q196 410 248 527q4 10 -2 10q-20 3 -106 3q-111 0 -144 -2q-24 -1 -33 -6t-21 -23q-9 -11 -12 -11
q-9 0 -1 19q19 35 23 64q3 14 5 18q3 4 12 2q19 -5 133 -5z" />
    <glyph glyph-name="eight" unicode="8" horiz-adv-x="410" 
d="M213 611q59 0 102 -39t43 -101q0 -57 -58 -109q-25 -23 -58 -47q-3 -4 -1 -7q58 -45 85.5 -87t27.5 -90q0 -73 -67 -119q-36 -26 -83 -26q-58 0 -104 40t-46 101q0 63 68 120q6 5 50 37v4l-1 1q-116 89 -116 178q0 74 62 116q46 28 96 28zM195 597q-30 0 -59 -33t-29 -83
q0 -42 39 -87.5t76 -70.5q5 -4 10 1q24 16 48.5 56.5t24.5 81.5q0 52 -30.5 93.5t-79.5 41.5zM210 1q25 0 46 13q48 26 48 95q0 24 -9.5 47t-29 46t-34 37.5t-39.5 36.5q-4 4 -10 -1q-30 -24 -51 -61t-21 -77q0 -67 33.5 -101.5t66.5 -34.5z" />
    <glyph glyph-name="nine" unicode="9" horiz-adv-x="410" 
d="M225 602q51 0 88 -32.5t52 -75t15 -85.5q0 -129 -71.5 -247t-171.5 -185q-64 -42 -90 -42q-8 0 -8 3q0 4 9 8q67 38 143 125q46 52 87 144.5t41 177.5q0 75 -32 130t-94 55q-35 0 -57 -19q-48 -42 -48 -117q0 -67 33 -99.5t85 -32.5q38 0 77 30q8 6 8 -1q0 -9 -24 -29
q-19 -15 -51.5 -28.5t-52.5 -13.5q-57 0 -92.5 42.5t-35.5 99.5q0 47 25.5 93t78.5 76q41 23 86 23z" />
    <glyph glyph-name="colon" unicode=":" horiz-adv-x="214" 
d="M105 -11q-14 0 -24.5 12t-10.5 27q0 16 11.5 27.5t27.5 11.5q17 0 26 -12t9 -26q0 -19 -12 -29.5t-27 -10.5zM105 255q-14 0 -24.5 12t-10.5 27q0 16 11.5 27.5t27.5 11.5t25.5 -12.5t9.5 -25.5q0 -19 -12 -29.5t-27 -10.5z" />
    <glyph glyph-name="semicolon" unicode=";" horiz-adv-x="214" 
d="M105 255q-14 0 -24.5 12t-10.5 27q0 16 11.5 27.5t27.5 11.5t25.5 -12.5t9.5 -25.5q0 -19 -12 -29.5t-27 -10.5zM97 69q21 0 37.5 -19t16.5 -51q0 -39 -29.5 -64t-51.5 -25q-9 0 -9 4q0 2 9 6q49 20 49 66q0 20 -22 26q-26 7 -30 18q-2 5 -2 11q0 12 9.5 20t22.5 8z" />
    <glyph glyph-name="less" unicode="&#x3c;" horiz-adv-x="410" 
d="M339 66q2 -2 1 -8q-2 -9 -11 -16q-2 -4 -12 1l-220 120q-29 17 -29 21q0 6 9 11q9 6 241 140q9 5 13 1q7 -7 9 -15q0 -5 -4 -8l-216 -122q-7 -5 -1 -8z" />
    <glyph glyph-name="equal" unicode="=" horiz-adv-x="410" 
d="M368 140q5 0 5 -8q0 -19 -8 -19h-320q-9 0 -9 6q0 7 3 14t6 7h323zM369 265q4 0 4 -8q0 -19 -7 -19h-322q-6 0 -6 6q0 20 10 20q215 2 321 1z" />
    <glyph glyph-name="greater" unicode="&#x3e;" horiz-adv-x="410" 
d="M70 312q-2 2 -1 8q2 9 12 17q2 4 11 -1l221 -121q29 -16 29 -21q0 -6 -9 -11q-130 -74 -242 -139q-8 -5 -12 -1q-9 9 -10 14q0 5 5 8l215 122q7 5 1 8z" />
    <glyph glyph-name="question" unicode="?" horiz-adv-x="351" 
d="M174 526q-17 0 -33 -7t-26 4q-15 17 -15 38q0 20 39 20q29 0 61.5 -26.5t54.5 -60.5q46 -67 46 -133q0 -59 -49 -83t-53 -27q-5 -3 -9 -6t-7 -6t-5.5 -7.5t-4 -7t-2.5 -8t-1.5 -7.5t-1 -7.5t-0.5 -7.5v-7.5v-6.5q0 -15 -6 -15q-2 0 -8 10q-12 33 -12 75q0 24 13 38
q8 7 20.5 14.5t30.5 17t25 13.5q39 23 39 67q0 45 -27 85.5t-69 40.5zM176 71q18 0 27 -14.5t9 -26.5q0 -17 -13 -28t-25 -11q-15 0 -27 11t-12 30q0 14 11 26.5t30 12.5z" />
    <glyph glyph-name="at" unicode="@" horiz-adv-x="753" 
d="M455 12q-30 0 -46 6t-17.5 9.5t-1.5 7.5q0 14 5 25l36 84q2 4 -1.5 4t-8.5 -4q-57 -60 -108 -96t-79 -36q-25 0 -25 38q0 16 23.5 60t62.5 93q36 44 88.5 84t76.5 40q8 0 20 -5.5t17 -11.5q2 -4 7 6l14 27q4 5 7 5q12 0 20 -6q4 -1 2 -8q-99 -238 -108 -262
q-7 -19 3.5 -31t34.5 -12q80 0 139.5 59t59.5 156q0 111 -75.5 180t-187.5 69q-96 0 -171.5 -52.5t-114.5 -135.5t-39 -178q0 -55 16.5 -105t48.5 -93t87.5 -68.5t126.5 -25.5q106 0 189 60q16 10 16 5q0 -8 -12 -18q-81 -72 -213 -72q-125 0 -211 83t-85 233q1 157 114 272
t260 115q130 0 204 -75t74 -185q0 -98 -66.5 -169.5t-181.5 -71.5zM438 296q-28 0 -61 -30q-44 -41 -77.5 -101.5t-33.5 -99.5q0 -18 18 -18q17 0 75 56q29 26 61 70t50 78q10 18 7 23q-12 22 -39 22z" />
    <glyph glyph-name="A" unicode="A" horiz-adv-x="646" 
d="M333 646q4 0 7 -8q4 -26 28 -86q83 -223 186 -462q19 -45 30 -58.5t31 -18.5q17 -3 17 -9q0 -7 -18 -7q-3 0 -26 1.5t-55 1.5q-14 0 -47 -2t-43 -2q-16 0 -16 7t19 9q21 3 32 11t12.5 15t1.5 19q0 10 -73 201q-6 12 -12 12q-22 -2 -106.5 -2.5t-89.5 -0.5t-14 -20
q-31 -69 -55 -150q-16 -54 0 -70q9 -9 41 -16q15 -3 15 -9q0 -7 -19 -7q-7 0 -42.5 2.5t-56.5 2.5q-13 0 -33 -2.5t-30 -2.5q-17 0 -17 7q0 5 20 9q34 7 48 22t43 79q28 60 179 434q6 16 6 29q0 8 3 11q25 29 28 50q3 10 6 10zM397 301v1v4.5v4.5q-32 91 -86 220q-3 8 -8 -3
q-44 -106 -82 -221q-3 0 0 -7q1 -2 3 -2q16 -1 80 -1q81 0 93 4z" />
    <glyph glyph-name="B" unicode="B" horiz-adv-x="524" 
d="M39 625q0 6 17 6q65 0 96 4q56 8 88 8q83 0 138 -41t55 -122q0 -25 -12.5 -49.5t-26.5 -37.5q-34 -26 -58 -36q-6 -3 1 -8q48 -20 89 -52q53 -45 53 -122q0 -110 -110 -160q-47 -21 -113 -21q-50 0 -69 1q-39 2 -84 2h-53q-22 0 -22 7q0 6 16 8q31 4 43.5 16.5t14.5 40.5
q3 28 3 283q0 154 -3 213q-2 27 -11 37t-38 15q-14 2 -14 8zM410 165q0 68 -36 110q-33 41 -62.5 52.5t-90.5 11.5q-30 0 -50 -2q-7 -1 -9 -13q-2 -17 -0.5 -89t3.5 -97q7 -72 14 -86q21 -42 96 -42q33 0 64 17q71 41 71 138zM369 478q0 70 -41.5 109t-111.5 39
q-32 0 -42 -4q-3 -1 -6.5 -7t-3.5 -9q-2 -17 -2 -230q0 -16 8 -16q32 -6 74 -3q45 3 85 36.5t40 84.5z" />
    <glyph glyph-name="C" unicode="C" horiz-adv-x="642" 
d="M385 649q55 0 111.5 -17.5t87.5 -35.5q9 -6 9 -16q-1 -15 -0.5 -27.5t1.5 -28.5t1 -19q0 -16 -6 -16q-5 0 -9 13q-12 51 -47 80q-55 52 -156 52q-106 0 -186 -84q-30 -33 -52 -96t-22 -133q0 -68 27.5 -134.5t67.5 -109.5q35 -37 83.5 -55.5t93.5 -18.5q77 0 121 27
q56 33 78 100q5 18 10 18q6 0 6 -15q0 -8 -3 -25t-7 -35.5t-4 -21.5q-2 -6 -8 -11q-99 -58 -197 -58q-149 0 -256 109q-32 33 -57.5 96t-25.5 123q0 155 113 257q40 36 101 59t125 23z" />
    <glyph glyph-name="D" unicode="D" horiz-adv-x="682" 
d="M43 627q0 5 15 5q87 0 128 4q63 7 80 7q127 0 218 -54q152 -95 152 -270q0 -70 -22.5 -127.5t-61.5 -95.5t-83 -62t-94 -37q-28 -8 -87 -8q-18 0 -74 4q-75 5 -87 5q-15 0 -40 -1t-28 -1q-19 0 -19 8q0 6 17 7q26 4 35.5 14.5t10.5 39.5q3 36 3 194q0 229 -5 307
q-2 27 -9.5 37t-36.5 16q-12 1 -12 8zM252 626q-50 0 -75 -10q-11 -4 -11 -27q-2 -70 -2 -249q0 -117 6 -217q3 -45 9.5 -64t24.5 -33q28 -22 88 -22q73 0 120 25q153 79 153 273q0 150 -91 237q-92 87 -222 87z" />
    <glyph glyph-name="E" unicode="E" horiz-adv-x="506" 
d="M45 629q0 5 14 5q10 0 35 -1.5t42 -1.5q23 0 117 1t113 1q22 0 40 1t20 1q6 0 9 -17q4 -52 7 -64q2 -15 -4 -15q-4 0 -10 14q-22 53 -52 58q-18 3 -101.5 4t-98.5 -1q-7 -1 -9.5 -7t-2.5 -30v-233q0 -18 6 -18h136q56 0 67 7q11 5 26 35q5 11 10 11t5 -11q0 -3 -1 -11
l-2.5 -20t-2.5 -19q-3 -26 2 -54q2 -7 0.5 -12t-3.5 -7t-3 -2q-3 0 -12 22q-8 24 -24 30q-25 7 -195 7q-7 0 -8 -3t-1 -20q0 -29 1.5 -114.5t1.5 -91.5q0 -11 7 -25t20 -21q21 -11 103 -11q70 0 91.5 3.5t35.5 15.5q6 5 35 46q13 18 18 18q7 0 1 -18l-22 -74q-6 -11 -13 -11
q-56 0 -160 2t-142 2q-19 0 -56 -2.5t-40 -2.5q-18 0 -18 7q0 5 18 8q29 5 42 18.5t14 45.5q5 203 5 467q0 43 -9.5 58t-37.5 21q-14 3 -14 9z" />
    <glyph glyph-name="F" unicode="F" horiz-adv-x="475" 
d="M172 631q55 0 139 1.5t96 1.5q32 0 33 -10q1 -7 3.5 -34t3.5 -34q4 -18 -4 -18q-4 0 -13 20q-21 48 -73 52q-33 3 -175 3q-5 0 -10.5 -7.5t-5.5 -11.5q0 -3 -0.5 -43.5t-0.5 -96.5t1 -119q0 -13 9 -13q126 0 174 3q28 2 44 36q6 14 10 14q6 0 5 -14q-5 -60 -5 -61
q0 -10 2 -24t2 -20q0 -16 -6 -16t-14 22q-10 27 -28 32q-25 5 -184 5q-2 0 -6 -5t-4 -8q-1 -10 0 -99t2 -121q2 -30 10 -39.5t43 -17.5q14 -3 14 -9t-21 -6q-1 0 -34 3t-57 3q-20 0 -44 -2l-24 -2q-15 0 -15 6t18 10q29 7 36 15.5t9 38.5q3 33 3 274q0 162 -3 224
q-1 21 -3 29t-10.5 15t-27.5 11q-16 4 -16 10t15 6l43 -2q43 -2 69 -2z" />
    <glyph glyph-name="G" unicode="G" horiz-adv-x="692" 
d="M412 649q22 0 42 -3t44 -9.5t25 -6.5q43 -13 68 -25q10 -5 10 -24q0 -8 8 -56q4 -19 -4 -19q-5 0 -12 16q-47 112 -192 112q-56 0 -108.5 -22.5t-87.5 -59.5q-86 -93 -86 -243q0 -80 36.5 -146.5t84.5 -105.5q75 -59 163 -59q79 0 125 46q12 13 15 55q6 60 1 112
q-2 26 -14 37t-45 15q-17 2 -17 8q0 7 24 6q6 0 31.5 -1.5t45.5 -1.5q21 0 39 1t19 1q16 0 16 -6q0 -5 -19 -10q-11 -2 -15.5 -14t-4.5 -49q0 -25 2.5 -75t2.5 -53q0 -21 -7 -24q-2 -1 -18 -9.5t-29 -14.5q-84 -39 -148 -39q-148 0 -254 94q-107 90 -107 239q0 159 134 262
q29 21 53.5 34.5t72 25.5t106.5 12z" />
    <glyph glyph-name="H" unicode="H" horiz-adv-x="740" 
d="M105 320q0 163 -3 220q-3 53 -10 63q-8 11 -34 18q-16 3 -16 9t17 6q6 0 32 -2.5t43 -2.5q14 0 42 2t33 2q15 0 15 -6t-13 -8q-25 -6 -33.5 -18t-10.5 -39q-3 -36 -3 -212q0 -19 8 -20q14 -1 277 -1q26 0 46 0.5t31 0.5t18 0.5t10 1t4 0.5q8 1 9 18q3 51 -4 183
q-2 52 -9 67.5t-38 19.5q-14 2 -14 8q0 5 13 5q10 0 40 -2t46 -2q17 0 41 2t31 2q16 0 16 -5t-14 -9q-31 -6 -38.5 -20.5t-7.5 -53.5q-2 -97 2 -249q1 -30 2 -94t3 -120q2 -39 10.5 -52t39.5 -20q15 -4 15 -9q0 -6 -15 -6q-6 0 -42 1.5t-48 1.5q-10 0 -35 -1t-34 -1
q-19 0 -19 7q0 5 16 8q27 6 35.5 15.5t9.5 40.5q4 181 1 207q-2 24 -7 24q-64 4 -273 4q-28 0 -73 0.5t-47 0.5q-7 0 -7 -25q0 -185 10 -235q5 -25 39 -34q17 -4 17 -10t-17 -6q-8 0 -37 2.5t-45 2.5q-14 0 -40.5 -2t-32.5 -2q-16 0 -16 6q0 7 17 10q25 5 33 14.5t10 33.5
q4 62 4 260z" />
    <glyph glyph-name="I" unicode="I" horiz-adv-x="270" 
d="M41 630q0 5 15 5q14 0 38 -2t40 -2q15 0 41.5 2t36.5 2q14 0 14 -4q0 -8 -15 -9q-28 -5 -35.5 -17t-9.5 -45q-2 -35 -2 -234q0 -192 5 -262q2 -28 8.5 -36.5t29.5 -14.5q17 -4 17 -10t-19 -6q-3 0 -25.5 1.5t-36.5 1.5q-25 0 -55 -2.5t-36 -2.5q-15 0 -15 7q0 5 23 10
q27 6 34.5 22t8.5 62q1 29 1 394q0 50 -5 87q-2 24 -10.5 31.5t-36.5 13.5q-11 3 -11 8z" />
    <glyph glyph-name="J" unicode="J" horiz-adv-x="257" 
d="M106 67q0 335 -3 447q-2 67 -10 82.5t-44 23.5q-18 4 -18 9q0 6 20 6q3 0 31 -2t56 -2q19 0 42.5 2t29.5 2q14 0 14 -6q0 -7 -17 -9q-30 -5 -36 -25.5t-6 -115.5q0 -24 -0.5 -145.5t-0.5 -171.5q0 -137 -19 -197q-24 -81 -75.5 -124t-99.5 -43q-17 0 -29.5 8t-12.5 16
q0 7 27 34q9 9 18 9q10 0 24 -9q17 -10 37 -10q21 0 41 22q31 37 31 199z" />
    <glyph glyph-name="K" unicode="K" horiz-adv-x="602" 
d="M138 631q16 0 40 1.5t32 1.5q15 0 15 -6t-17 -8q-30 -7 -37.5 -26t-7.5 -86v-152q0 -16 3 -16q1 0 3 1q28 23 48 43q17 16 91.5 91t92.5 95q18 22 18 28q0 10 -32 17q-15 4 -15 9q0 7 16 7h18h24h24q15 1 36.5 2t35.5 2t21 1q12 0 12 -5q0 -6 -16 -9q-58 -12 -118 -63
q-52 -45 -197 -190q-7 -7 -7 -10q0 -1 10 -13q8 -8 73.5 -78t123.5 -131.5t78 -80.5q25 -22 39.5 -30t37.5 -13q19 -5 19 -11q0 -8 -18 -8q-9 0 -49.5 3t-60.5 3t-38 -1.5t-22 -1.5q-19 0 -19 7t16 11q26 5 26 15q0 9 -19 30q-38 43 -97 106.5t-99 105.5t-48 50l-7 4
q-4 0 -4 -19v-105q0 -113 4 -153q4 -29 44 -36q20 -4 20 -11t-19 -7q-12 0 -38.5 2.5t-40.5 2.5q-20 0 -45.5 -2t-30.5 -2q-16 0 -16 6q0 7 17 10q23 5 32 14t11 25q5 55 5 305q2 162 -4 221q-2 17 -8.5 26t-12.5 11.5t-24 7.5q-13 4 -13 8q0 6 15 6q9 0 37 -2.5t42 -2.5z
" />
    <glyph glyph-name="L" unicode="L" horiz-adv-x="493" 
d="M37 630q0 5 16 5t44.5 -2t39.5 -2q14 0 40 2t33 2q16 0 16 -5q0 -6 -12 -9q-32 -7 -39 -19.5t-10 -67.5q-1 -17 -1 -194q0 -182 2 -220q5 -70 14 -81q20 -25 124 -25q69 0 94 5q31 5 62 62q8 14 15 14q3 -1 2 -8.5t-4 -16.5q-20 -60 -25 -67q-7 -10 -17 -10
q-104 0 -137 2q-128 5 -156 5q-18 0 -50.5 -2.5t-36.5 -2.5q-20 0 -20 7q0 6 17 8q31 6 40.5 17t12.5 36q4 41 4 246q0 191 -3 239q-2 45 -9.5 56t-41.5 17q-14 3 -14 9z" />
    <glyph glyph-name="M" unicode="M" horiz-adv-x="827" 
d="M17 630q0 7 19 5q68 -4 99 -4q7 0 13 -14q95 -205 262 -520q4 -6 10 5q188 357 227 436q16 33 30 81q6 12 9 12q11 0 51 3t47 3q14 0 14 -6t-14 -8q-43 -11 -54 -25.5t-13 -60.5q-3 -47 -3 -210q0 -160 5 -238q3 -42 13 -55.5t41 -22.5q15 -5 15 -11t-18 -6q-5 0 -42 3
t-49 3q-25 0 -48 -1t-27 -1q-22 0 -22 8q0 7 21 9q32 8 41 27t11 83q3 55 3 375q0 16 -5 4q-16 -32 -77 -150t-104.5 -204.5t-66.5 -137.5q-8 -16 -14 -16q-5 0 -24 40q-28 58 -116 238.5t-106 217.5q-8 12 -9 -5q-16 -260 -16 -363q0 -53 6 -75q7 -27 51 -38q17 -3 17 -10
q0 -8 -20 -6q-50 5 -83 5q-22 0 -47 -3t-27 -3q-17 0 -17 7q0 6 18 9q33 5 54 34q12 16 21 107q5 47 12.5 176.5t7.5 171.5q0 43 -5 61t-19 34q-5 6 -10.5 10.5t-12 7t-10.5 4t-12 3t-11 2.5q-16 3 -16 9z" />
    <glyph glyph-name="N" unicode="N" horiz-adv-x="738" 
d="M21 629q0 7 22 7q9 0 46.5 -2.5t57.5 -2.5q6 0 23 -22q93 -120 435 -501q1 -1 2 -1t2.5 2t1.5 7q0 18 -1 102t-2.5 188t-1.5 136q0 41 -12 55.5t-39 21.5q-19 5 -19 9q0 6 20 6q8 0 31.5 -1.5t35.5 -1.5q17 0 38.5 1.5t24.5 1.5q16 0 16 -5q0 -4 -17 -10q-18 -6 -28 -17
t-11.5 -17.5t-4.5 -25.5q-6 -45 -6 -348q0 -33 -0.5 -78t-0.5 -73t1 -52q2 -31 -6 -31q-3 0 -34 38q-27 33 -109 128t-188 218t-160 186q-8 10 -8 -2q0 -20 -1.5 -207t-1.5 -209q0 -62 11 -85q9 -21 49 -32q18 -5 18 -11t-19 -6q-7 0 -32.5 2.5t-43.5 2.5q-19 0 -43.5 -2.5
t-25.5 -2.5q-17 0 -17 6q0 5 19 10q30 8 39.5 22t13.5 57q2 26 6.5 207t4.5 231q0 59 -18 73t-49 19q-19 3 -19 9z" />
    <glyph glyph-name="O" unicode="O" horiz-adv-x="734" 
d="M368 649q128 0 224 -101.5t96 -239.5q0 -110 -58 -187.5t-129 -108.5q-67 -30 -129 -30q-133 0 -229.5 102t-96.5 240q0 163 129 261q38 29 91 46.5t102 17.5zM348 634q-41 0 -85.5 -22.5t-71.5 -52.5q-75 -87 -75 -236q0 -52 20 -109.5t53 -101.5q83 -111 201 -111
q59 0 108 36t85 106.5t36 163.5q0 65 -25 131t-69 116q-71 80 -177 80z" />
    <glyph glyph-name="P" unicode="P" horiz-adv-x="500" 
d="M42 628q0 7 16 7q17 0 71 2q10 0 49 3.5t48 3.5q121 0 179 -64q52 -53 52 -131q0 -107 -84 -163q-42 -30 -104 -30q-20 0 -32 4t-12 9t11 4q9 -1 22 -1q16 0 35.5 7t43.5 23.5t40 53t16 87.5q0 83 -50 133q-51 54 -119 54q-32 0 -51 -7q-9 -5 -9 -19v-67t0.5 -141.5
t0.5 -126.5q0 -148 4 -204q2 -28 12 -39t34 -15q20 -3 20 -9q0 -7 -16 -7q-13 0 -41.5 2.5t-54.5 2.5q-14 0 -35.5 -2t-25.5 -2q-18 0 -18 6q0 5 17 9q24 5 33 13.5t10 32.5q2 46 2 295q0 165 -7 235q-2 29 -41 33q-16 3 -16 8z" />
    <glyph glyph-name="Q" unicode="Q" horiz-adv-x="734" 
d="M368 649q122 0 211 -80q49 -43 79 -112.5t30 -141.5q0 -59 -15.5 -107.5t-32 -71.5t-42.5 -51q-49 -54 -127 -86q-1 0 -3 -2.5t0 -4.5q12 -15 80.5 -55t138.5 -70q118 -50 217 -50q64 0 120 28q5 2 9 1t4 -4t-5.5 -8t-8.5 -7q-32 -17 -81 -30t-86 -13q-82 0 -138 17
t-150 62q-24 12 -52.5 27.5t-72.5 41t-71 40.5q-35 19 -53 23q-105 26 -170 84q-103 92 -103 244q0 116 73 208q101 118 249 118zM357 634q-79 0 -137 -51q-52 -45 -79 -114.5t-25 -153.5q1 -54 15.5 -99t28.5 -67t37 -51q40 -48 98.5 -73t99.5 -25q61 0 111 36
q42 29 77 97.5t35 166.5q0 127 -68 220q-18 24 -31 38.5t-37 35t-55.5 30.5t-69.5 10z" />
    <glyph glyph-name="R" unicode="R" horiz-adv-x="550" 
d="M236 636q84 0 132 -35q62 -45 62 -120q0 -69 -57 -114q-20 -18 -61 -33q-5 -2 2 -19q15 -28 53 -89t60 -90q42 -57 73 -88q41 -41 79 -41q13 0 13 -6q0 -4 -12 -8q-11 -4 -38 -4q-74 0 -138 79q-30 38 -87.5 127t-61.5 93q-18 20 -31 23q-17 5 -50 4q-8 0 -10 -8
q-1 -7 -2 -77.5t0 -100.5q2 -72 8 -91q7 -21 47 -28q15 -3 15 -8q0 -7 -20 -7q-9 0 -32 2.5t-42 2.5q-21 0 -49.5 -2.5t-35.5 -2.5q-17 0 -17 7q0 4 20 9q24 5 33.5 16t11.5 41q5 95 5 277q0 129 -6 225q-1 17 -3.5 25t-12.5 15t-30 10q-17 4 -17 9q0 6 18 6q4 0 28.5 -2
t45.5 -2q19 0 55 2.5t52 2.5zM202 621q-21 0 -33 -7q-5 -3 -6 -17q-1 -20 -1 -248q0 -18 7 -18q6 -1 27 -1q25 0 61 6t50 15q60 43 60 115q0 76 -42 115q-43 40 -123 40z" />
    <glyph glyph-name="S" unicode="S" horiz-adv-x="430" 
d="M257 649q41 0 105 -17q7 -3 7 -11q0 -25 4 -65q3 -20 -5 -20q-6 0 -9 15q-10 42 -36 59q-32 24 -82 24q-40 0 -79 -35.5t-39 -93.5q0 -69 75 -120q38 -25 104 -74q90 -65 90 -153q0 -78 -62 -127t-142 -49q-81 0 -132 28q-15 8 -19 30q0 2 -4 27.5t-5 40.5q-2 17 5 17
q6 0 11 -19q13 -54 53.5 -80.5t92.5 -26.5q59 0 97.5 41.5t38.5 94.5q0 35 -18 64.5t-39.5 47t-67.5 48.5q-62 42 -97.5 85t-35.5 100q0 80 63 129q50 40 126 40z" />
    <glyph glyph-name="T" unicode="T" horiz-adv-x="562" 
d="M281 631l188 1q42 0 63 11q6 5 8 1q1 -4 0 -12q-3 -12 -3 -72q0 -23 -8 -23q-5 0 -7 15q-4 32 -17 45q-11 10 -99 10q-80 0 -97 -2q-6 -1 -6 -14l-1 -303q-2 -137 6 -224q3 -27 12 -36t35 -17q17 -4 17 -10q0 -7 -20 -7q-10 0 -37 3t-47 3q-26 0 -56 -3t-34 -3
q-18 0 -18 9q0 5 21 9q34 4 44 18t12 51q5 63 6 286t-1 226q-1 11 -7 13q-18 3 -75 3q-55 0 -93 -5q-26 -4 -44 -54q-6 -16 -13 -16q-6 0 -3 15q2 9 6 27.5t6 32t2 24.5q0 13 4 15t8 -4q6 -8 33 -10q51 -3 215 -3z" />
    <glyph glyph-name="U" unicode="U" horiz-adv-x="666" 
d="M123 631q14 0 41 1t36 1q15 0 15 -5q0 -6 -15 -10q-19 -3 -30 -10t-15 -21t-5 -24.5t-1 -32.5v-9q-4 -199 0 -280q3 -110 56 -163q55 -57 145 -57q95 0 145.5 57.5t55.5 196.5q3 56 3 122q0 97 -3.5 140.5t-10 56.5t-22.5 18q-12 4 -24 6q-14 2 -14 9q0 6 15 6
q7 0 28.5 -1t38.5 -1q10 0 34.5 1.5t36.5 1.5q17 0 17 -5q0 -7 -21 -11q-27 -5 -34 -20t-9 -53q-2 -31 -4.5 -135.5t-5.5 -142.5q-5 -50 -9.5 -78.5t-20.5 -70t-43 -70.5q-61 -64 -174 -64q-95 0 -154 46q-44 35 -63.5 85.5t-22.5 136.5q-1 31 -2 150t-3 151q-3 40 -9.5 50
t-38.5 19q-10 3 -10 9q0 4 18 4q7 0 34 -2t45 -2z" />
    <glyph glyph-name="V" unicode="V" horiz-adv-x="611" 
d="M-8 629q0 6 19 6q9 0 40 -2t37 -2q18 0 50 2t39 2q19 0 19 -6q0 -8 -21 -11q-35 -5 -35 -29q0 -13 11 -46q14 -43 83.5 -223t86.5 -218q2 -4 5 -2q12 26 78.5 197t79.5 208q20 55 20 79q0 16 -11.5 23t-38.5 14q-17 3 -17 9t19 6q10 0 42 -2.5t42 -2.5q12 0 35 2t29 2
q17 0 17 -4q0 -7 -19 -12q-27 -8 -42.5 -25.5t-40.5 -74.5q-8 -19 -29 -70.5t-63 -154t-80 -195.5q-35 -87 -40 -109q-2 -12 -7 -12t-11 21q-23 69 -105.5 282t-115.5 291q-18 42 -57 47q-19 3 -19 10z" />
    <glyph glyph-name="W" unicode="W" horiz-adv-x="932" 
d="M-12 628q0 7 20 7q11 0 42 -2t46 -2q11 0 30 1t29 1q20 0 20 -7t-17 -10q-36 -6 -23 -35q49 -122 216 -488q5 -11 9 0q49 100 88 192q2 2 2 11q-6 13 -48 111.5t-55 126.5q-22 49 -33 63t-33 20q-22 5 -22 12q0 6 18 6q14 0 35.5 -2t40.5 -2q21 0 43 2t33 2q17 0 17 -6
t-18 -10q-24 -5 -29.5 -17.5t6.5 -44.5l81 -194q3 -5 7 2q23 47 68 149q19 46 23.5 64.5t-2 26.5t-29.5 13q-20 4 -20 11q0 5 18 5q13 0 32.5 -1.5t32.5 -1.5q22 0 44 2t32 2q16 0 16 -5q0 -6 -19 -10q-28 -6 -47 -26t-44 -65q-29 -56 -97 -192q-2 -4 1 -11q31 -72 104 -235
q5 -9 9 -1q51 111 119 273t80 209q8 36 -29 47q-22 5 -22 10q0 6 17 6q12 0 32.5 -2t37.5 -2q14 0 39 2t34 2q17 0 17 -5q0 -6 -24 -11q-32 -8 -53 -38.5t-68 -133.5q-27 -59 -67 -151t-79 -183.5t-47 -109.5q-9 -23 -14 -23q-8 0 -15 23q-16 47 -107 254q-4 6 -7 1
q-69 -137 -112 -253q-11 -25 -16 -25q-4 0 -14 25q-27 66 -58 138q-78 184 -162 365q-32 70 -46.5 88.5t-42.5 22.5q-20 2 -20 9z" />
    <glyph glyph-name="X" unicode="X" horiz-adv-x="618" 
d="M4 629q0 7 20 7q17 0 49 -2.5t47 -2.5q26 0 54 1.5t31 1.5q15 0 15 -5q0 -8 -16 -10q-52 -9 -30 -43q11 -21 70.5 -116t68.5 -103q4 -4 8 2q2 3 51.5 79.5t61.5 95.5q26 46 26 60q0 20 -34 24q-19 2 -19 8q0 8 21 8q7 0 29 -1.5t31 -1.5q22 0 45 2.5t37 2.5q17 0 17 -6
t-14 -9q-34 -8 -49.5 -20t-46.5 -49q-31 -38 -148 -213q-1 -1 -1.5 -4t0.5 -4q112 -179 182 -274q16 -22 31 -30.5t42 -15.5q21 -6 21 -12q0 -5 -14 -5q-3 0 -18.5 1.5t-43 3t-57.5 1.5q-26 0 -48 -1.5t-24 -1.5q-20 0 -20 8q0 6 18 9q32 5 37.5 14t-7.5 35q-5 9 -64 104.5
t-66 107.5q-7 11 -12 3q-88 -126 -128 -203q-11 -22 -11 -31q0 -20 41 -31q14 -4 14 -9q0 -7 -17 -7q-1 0 -13.5 0.5t-31.5 1.5t-36 1q-18 0 -43 -2.5t-34 -2.5q-18 0 -18 7t17 9q41 5 79 43q7 8 37 50.5t73.5 105t61.5 88.5q4 4 -2 12q-4 7 -70 107.5t-92 138.5
q-26 37 -41.5 48t-47.5 16q-19 2 -19 9z" />
    <glyph glyph-name="Y" unicode="Y" horiz-adv-x="586" 
d="M1 630q0 6 19 6q5 0 40 -2.5t53 -2.5q17 0 42.5 1.5t28.5 1.5q16 0 16 -6q0 -7 -17 -10q-29 -6 -29 -18q0 -11 17 -39q106 -183 135 -222q8 -8 12 -1q120 196 125 205q24 38 24 52q0 17 -36 25q-18 2 -18 10q0 5 16 5q14 0 36 -2t36 -2q13 0 36 2t30 2q18 0 18 -6
q0 -7 -22 -10q-38 -7 -67 -45q-24 -30 -52 -72.5t-66 -105t-38 -63.5q-14 -24 -16 -42q-3 -24 -3 -135q0 -46 2 -80q2 -36 10 -49t33 -17q21 -4 21 -10t-17 -6t-47.5 3t-41.5 3q-15 0 -36 -2t-34 -2q-21 0 -21 8q0 6 22 9q28 3 36 12.5t10 41.5q4 42 4 130q0 77 -3 94
q-3 15 -6 21q-97 169 -148 243q-41 58 -82 65q-22 4 -22 10z" />
    <glyph glyph-name="Z" unicode="Z" horiz-adv-x="611" 
d="M67 645q25 -9 40 -10q76 -4 367 -4q69 0 87 3q5 1 6 -4t-3 -10q-63 -73 -90 -117q-16 -26 -164.5 -235.5t-162.5 -233.5q-6 -9 4 -9q284 0 339 7q34 4 52 22q15 15 36 50q7 14 14 14q6 0 2 -16q-16 -40 -22 -92q-1 -10 -40 -10q-6 0 -174 -0.5t-194 -0.5q-36 0 -105 -3
q-8 0 -10.5 3.5t2.5 9.5q63 82 211.5 291t203.5 292q2 3 2.5 6t0 5t-1.5 2q-13 1 -174 0t-182 -2q-19 -1 -34 -13q-26 -24 -46 -54q-6 -9 -13 -9q-4 0 -4 6t4 12q8 15 16 35.5t14 38t7 20.5q3 10 12 6z" />
    <glyph glyph-name="bracketleft" unicode="[" horiz-adv-x="279" 
d="M229 659q0 -6 -21 -8q-2 0 -36 -3t-43 -4q-7 -1 -10 -19q-4 -79 -4 -309q0 -285 7 -420q2 -35 17 -38q34 -6 75 -6q21 0 21 -8q0 -9 -22 -9q-2 0 -27.5 0.5t-40.5 0.5t-31 -0.5t-17 -0.5q-10 0 -10 29v571v213q0 14 4 15q3 3 14 3q31 0 66.5 0.5t37.5 0.5q20 0 20 -8z
" />
    <glyph glyph-name="backslash" unicode="\" horiz-adv-x="372" 
d="M59 644q52 -137 147.5 -384t115.5 -298q12 -27 -1 -27q-12 0 -22 25q-252 651 -267 691q0 14 6 14q16 0 21 -21z" />
    <glyph glyph-name="bracketright" unicode="]" horiz-adv-x="281" 
d="M44 662q0 6 24 6h26q26 -1 41 -1t33.5 0.5t19.5 0.5q5 0 5 -30v-569q0 -63 0.5 -113t0.5 -75v-26q0 -12 -3 -15t-17 -3q-30 0 -63 -0.5t-35 -0.5q-24 0 -24 9q0 4 24 7q28 0 73 6q10 1 12 20q4 79 4 309q0 289 -7 427q-2 31 -14 33q-50 5 -80 5q-20 0 -20 10z" />
    <glyph glyph-name="asciicircum" unicode="^" horiz-adv-x="410" 
d="M207 581q4 0 18 -25l102 -194q5 -8 2 -12q-4 -4 -13 -6.5t-10 0.5l-97 188q-3 5 -6 1l-102 -193q-1 -3 -8.5 -1t-12.5 7q-3 3 1 13l105 195q15 27 21 27z" />
    <glyph glyph-name="underscore" unicode="_" horiz-adv-x="485" 
d="M0 -121h485v-49h-485v49z" />
    <glyph glyph-name="grave" unicode="`" 
d="M150 558q6 0 11 -9q8 -24 48 -128q2 -5 1.5 -9.5t-2.5 -4.5q-3 0 -13 12q-2 2 -13 22t-27.5 48.5l-27.5 47.5q-7 12 -3 16q5 5 26 5z" />
    <glyph glyph-name="a" unicode="a" horiz-adv-x="334" 
d="M180 369q25 0 46 -14.5t30 -40.5q9 -29 9 -88q0 -17 -2 -81.5t-2 -76.5q0 -40 39 -40q14 0 30 9q3 2 5 1.5t2.5 -2.5t-1.5 -7q-8 -18 -27.5 -29t-42.5 -11q-18 0 -33.5 13t-22.5 32q-1 1 -2.5 1.5t-2.5 -0.5q-52 -45 -99 -45q-32 0 -55.5 24t-23.5 60q0 21 12.5 35
t23.5 20q17 10 135 49q14 5 14 15q2 24 2 46q0 68 -25 86q-22 16 -43 16q-20 0 -42 -14q-15 -13 -18 -27q-1 -4 -1 -15q0 -4 -4 -8q-7 -4 -22.5 -11t-18.5 -7q-8 0 -8 9q0 6 15 25q30 36 76 59q34 17 57 17zM144 25q31 0 50 17q10 10 13 26q5 28 5 93q0 1 -1.5 3.5t-2.5 1.5
q-10 -1 -48.5 -15.5t-55.5 -22.5q-23 -13 -23 -49q0 -23 18.5 -38.5t44.5 -15.5z" />
    <glyph glyph-name="b" unicode="b" horiz-adv-x="432" 
d="M398 192q0 -81 -49 -133q-29 -31 -70 -50.5t-79 -19.5q-59 0 -111 25q-9 4 -29 -2q-2 -1 -4 1.5t-1 5.5q4 21 6 82q7 164 7 336q0 136 -3 178q-1 16 -5.5 22t-21.5 17q-12 8 -12 11q0 6 21 9q30 4 58 17q9 4 15 4q4 0 3 -20q-5 -98 -5 -342q1 -4 5 -4q50 37 113 37
q35 0 67 -16.5t51 -38.5q44 -48 44 -119zM345 172q0 64 -41 113q-46 52 -110 52q-46 0 -69 -20q-8 -8 -9 -32q-1 -15 -1 -125q0 -78 14 -104q5 -11 24 -24q32 -22 77 -22q17 0 39.5 10t37.5 27q38 46 38 125z" />
    <glyph glyph-name="c" unicode="c" horiz-adv-x="367" 
d="M213 353q-44 0 -84 -40t-40 -118q0 -89 53 -133q40 -35 96 -35q34 0 57 8t49 32q1 1 3.5 1t2.5 -2q0 -7 -7 -15q-53 -62 -137 -62q-71 0 -121 48q-51 49 -51 134q0 83 58 139q59 59 148 59q54 0 89 -24q15 -8 15 -20q0 -10 -9 -19t-14 -9q-6 0 -16 10q-22 22 -54 38
q-15 8 -38 8z" />
    <glyph glyph-name="d" unicode="d" horiz-adv-x="437" 
d="M245 368q37 0 70 -11q1 -1 2.5 1t1.5 4q0 5 -0.5 115.5t-0.5 141.5q0 10 -4 17q-7 10 -29 16q-12 4 -12 8t9 6q47 8 77 23q10 6 13 6q5 0 4 -18q-1 -22 -4 -213.5t-3 -251.5q0 -125 2 -179q0 -9 7 -9q6 0 50 12q10 3 10 -4q0 -14 -26 -18q-62 -13 -93 -26q-3 -1 -5.5 1.5
t-2.5 5.5q2 36 2 41q0 2 -1.5 3t-2.5 0q-64 -49 -114 -49q-62 0 -110 43q-19 17 -35 52.5t-16 78.5q0 102 82 163q56 41 129 41zM210 348q-29 0 -56 -17q-60 -45 -60 -148q0 -75 38 -119t90 -44q48 0 80 31q10 12 12 43q2 27 2.5 89.5t-3.5 96.5q-2 11 -9 22q-33 46 -94 46z
" />
    <glyph glyph-name="e" unicode="e" horiz-adv-x="365" 
d="M214 369q44 0 82.5 -28t38.5 -72q0 -3 -3 -6t-6 -3q-2 0 -75.5 1.5t-85.5 1.5h-61q-4 0 -10 -9q-9 -18 -9 -60q0 -70 47 -122q38 -43 105 -43q61 0 96 33q12 11 12 2q0 -6 -11 -17q-58 -58 -136 -58q-68 0 -116 51t-48 134q0 86 54 143q52 52 126 52zM205 355
q-39 0 -80 -39q-20 -22 -20 -36q0 -4 3 -4l145 1q22 0 22 18q0 26 -14 40q-22 20 -56 20z" />
    <glyph glyph-name="f" unicode="f" horiz-adv-x="239" 
d="M72 68v242q0 11 -4 12q-16 0 -29 1q-14 2 -14 9q0 2 12 9q21 12 24 14q11 7 11 15q0 111 16 165q28 89 95 133q43 30 94 30q27 0 45.5 -9.5t18.5 -20.5q0 -16 -23 -29q-9 -6 -18 3q-1 1 -10 7t-15 9t-18 6.5t-25 3.5q-41 0 -68 -33.5t-35 -118.5q-5 -53 -5 -129
q0 -19 1 -25q0 -5 8 -5q4 0 55.5 1t57.5 1q7 0 7 -16q0 -12 -2.5 -15t-12.5 -3q-7 0 -54 1t-54 1q-5 0 -5 -9q0 -207 3 -249q4 -45 20 -50q4 -2 16 -3.5t18 -2.5q19 -3 19 -9q0 -7 -16 -7q-11 0 -36 1.5t-49 1.5q-10 0 -21.5 -0.5t-23.5 -2t-17 -1.5q-15 0 -15 6q0 5 20 10
q17 4 23 16t6 40z" />
    <glyph glyph-name="g" unicode="g" horiz-adv-x="396" 
d="M75 -162q0 -48 39 -79q23 -17 42 -24t56 -7q59 0 93 25q23 16 40 47t17 65q0 35 -23.5 58t-67.5 23q-84 0 -111 -2q-29 -2 -37 -10q-18 -15 -33 -41.5t-15 -54.5zM181 375q52 0 99 -26q10 -5 36 -5q10 0 39.5 1t35.5 1q10 0 10 -21q0 -8 -3.5 -12.5t-7.5 -4.5q-7 0 -33 1
t-31 1q-2 0 -4 -2t-2 -4t1 -16.5t1 -26.5q0 -45 -17.5 -80.5t-45.5 -55.5q-37 -25 -75 -25q-8 0 -40 4q-8 2 -13 -3q-13 -9 -40 -38q-12 -12 -12 -24q0 -43 97 -43q16 0 60 1.5t56 1.5q43 0 75 -25q34 -28 34 -84q0 -50 -34 -95t-85 -72q-54 -28 -110 -28q-61 0 -104 29.5
t-43 84.5q0 22 17 44q2 3 14 18.5t27.5 35t23.5 30.5q1 1 1.5 4.5t-1.5 4.5q-27 6 -54.5 29t-27.5 49q0 6 7 9q47 29 82 73q1 1 0 3t-2 3q-30 19 -53.5 52t-23.5 75q0 57 42 96q43 40 104 40zM176 362q-30 0 -56 -23q-31 -30 -31 -92q0 -30 10.5 -61t23.5 -44q30 -28 66 -28
t60.5 32.5t24.5 70.5q0 71 -32 110q-30 35 -66 35z" />
    <glyph glyph-name="h" unicode="h" horiz-adv-x="433" 
d="M227 336q-60 0 -100 -42q-10 -10 -10 -42q0 -157 5 -207q6 -28 32 -33q24 -4 24 -10t-14 -6q-13 0 -38.5 2t-42.5 2q-14 0 -33 -2t-26 -2q-15 0 -15 6q0 4 16 8q17 4 23.5 7t10.5 12.5t5 29.5q4 56 4 302q0 63 0.5 122.5t0.5 76.5v49q0 15 -4.5 24t-8 12t-17.5 11
q-7 4 -7 8q0 3 16 8q47 14 61 21q6 3 9 3q6 0 4 -21q-4 -128 -4 -365q0 -3 2 -3q1 -1 2 0q25 25 63 44q36 18 73 18q56 0 88 -46q21 -28 22 -108v-98t1 -76q1 -16 7 -21t29 -9q16 -4 16 -9q0 -7 -16 -7q-12 0 -34.5 2.5t-33.5 2.5q-15 0 -32 -2t-25 -2q-17 0 -17 6q0 5 16 8
q18 3 23.5 10t8.5 28q5 38 5 177q0 43 -16 73q-24 38 -73 38z" />
    <glyph glyph-name="i" unicode="i" horiz-adv-x="190" 
d="M36 333q0 5 10 8q33 10 61 24q13 7 16 7q5 0 4 -14q-2 -19 -2 -158q0 -144 2 -161q1 -10 5.5 -16t9 -8t13.5 -4q15 -3 15 -8q0 -7 -16 -7q-1 0 -29 2t-40 2q-16 0 -33 -1t-20 -1q-12 0 -12 6q0 5 19 9q17 4 24 14.5t8 40.5q3 90 3 226q0 9 -5.5 15.5t-25.5 16.5
q-7 3 -7 7zM108 539q14 0 22 -10.5t8 -22.5q0 -16 -11 -24.5t-21 -8.5q-12 0 -20.5 9.5t-8.5 22.5q0 15 10 24.5t21 9.5z" />
    <glyph glyph-name="j" unicode="j" horiz-adv-x="189" 
d="M33 331q0 5 18 11q48 20 57 25q8 5 14 5q5 0 5 -12q0 -46 -1 -142.5t-1 -134.5q0 -63 -5 -138q-5 -84 -47 -147.5t-88 -88.5q-4 -3 -10 -4.5t-10.5 -1t-4.5 3.5q0 4 11 10q45 23 70 80t28 117q5 100 4 163q-2 86 -2 154q-1 69 -7 79q-6 8 -21 13q-10 5 -10 8zM100 474
q-12 0 -20 10t-8 22q0 16 10.5 25.5t23.5 9.5q10 0 18.5 -9t8.5 -22q0 -15 -8 -25.5t-25 -10.5z" />
    <glyph glyph-name="k" unicode="k" horiz-adv-x="415" 
d="M239 358q10 0 30.5 -0.5t25.5 -0.5q7 0 38 2.5t43 2.5q14 0 14 -6t-14 -8q-28 -5 -45.5 -12.5t-49.5 -31.5q-50 -37 -102 -86q-3 -2 1 -6q18 -20 152 -154q41 -40 74 -47q15 -4 15 -9q0 -7 -16 -7q-11 0 -47 2.5t-55 2.5q-8 0 -22.5 -0.5t-21.5 -0.5q-19 0 -19 6t25 11
q25 6 10 27q-66 71 -131 132q-17 13 -19 13q-4 0 -4 -11q-2 -38 -2 -106q0 -35 6.5 -44t33.5 -15q15 -4 15 -8q0 -7 -20 -7q-14 0 -35.5 1.5t-34.5 1.5q-16 0 -34.5 -1.5t-23.5 -1.5q-16 0 -16 7q0 5 13 7q23 6 31.5 15.5t9.5 34.5q4 70 6 239q0 30 2 134t2 154q0 33 -4 45
q-2 9 -22 19q-9 4 -9 7t14 8q33 11 61 23q10 5 14 5q3 0 3 -9q-5 -80 -5 -189q0 -2 -2.5 -101t-2.5 -180q0 -17 5 -17q3 0 21 12q84 68 109 99q11 11 11 18q0 11 -26 15q-17 2 -17 8q0 7 15 7z" />
    <glyph glyph-name="l" unicode="l" horiz-adv-x="187" 
d="M120 361v-118q0 -134 3 -194q1 -19 7.5 -26.5t27.5 -10.5q14 -2 14 -7q0 -7 -21 -7q-4 0 -28 1t-34 1q-15 0 -37.5 -1t-25.5 -1q-17 0 -17 6q0 4 19 9q19 4 25.5 15t9.5 44q5 57 7 327v213q0 17 -4.5 24t-23.5 19q-9 5 -9 8q0 5 14 8q33 8 64 21q9 3 11 3q3 0 3 -12
q0 -1 -0.5 -22t-1.5 -54.5t-1.5 -73t-1 -86.5t-0.5 -86z" />
    <glyph glyph-name="m" unicode="m" horiz-adv-x="684" 
d="M37 332q0 3 11 7q35 8 58 27q7 6 14 6q5 0 5 -10v-51q0 -2 0.5 -3.5t2 -3t3.5 0.5q26 24 61 42t63 18q70 0 102 -63q1 -1 3.5 -2t3.5 0q71 69 139 69q40 0 65.5 -20.5t36.5 -52.5q10 -29 12 -95q1 -19 2.5 -75.5t1.5 -67.5q1 -24 6 -32.5t23 -11.5q19 -4 19 -9
q0 -7 -17 -7q-4 0 -28.5 1t-37.5 1t-31.5 -1.5t-24.5 -1.5q-20 0 -20 6t18 10q23 4 29.5 13t7.5 32q2 118 -8 198q-12 79 -88 79q-53 0 -95 -42q-8 -8 -8 -38q0 -3 3 -94t4 -107q2 -22 7.5 -29.5t24.5 -11.5q16 -5 16 -9q0 -6 -17 -6q-4 0 -31 1t-39 1t-31.5 -1t-23.5 -1
q-15 0 -15 6t19 10q17 3 24 9t7 23l1 159q0 73 -26 102q-24 24 -65 24q-43 0 -83 -33q-12 -11 -14 -27q-4 -40 -4 -64q0 -107 6 -158q4 -31 34 -36q15 -3 15 -8q0 -7 -15 -7q-9 0 -35 1t-39 1q-15 0 -35 -1t-22 -1q-18 0 -18 7q0 6 20 9q8 2 14 4.5t9.5 4t5.5 5.5l2.5 5
t1.5 5l1 5q4 23 4 154q0 77 -1 87q-1 25 -24 38q-10 6 -10 10z" />
    <glyph glyph-name="n" unicode="n" horiz-adv-x="434" 
d="M263 369q47 0 77 -35q28 -31 30 -133q0 -25 0.5 -53.5t0.5 -51.5q1 -53 5.5 -65.5t24.5 -17.5q17 -6 17 -10q0 -7 -19 -7q-3 0 -25 2t-35 2t-29 -2t-24 -2q-16 0 -16 6q0 7 22 11q16 4 21 12t5 32v131q0 61 -7 87t-26 41q-26 21 -61 21q-44 0 -89 -38q-12 -12 -12 -34
q0 -62 1 -125q1 -59 6 -97q3 -24 33 -31q17 -4 17 -10t-20 -6q-2 0 -32.5 2t-43.5 2q-6 0 -23 -1t-24 -1q-18 0 -18 7q0 5 22 10q18 4 23 9.5t6 20.5q2 78 2 248q0 22 -27 35q-8 5 -8 9q0 2 14 8q40 12 67 30q2 2 5 -1t2 -7q-3 -37 -2 -54q0 -6 5 -3q49 36 75 47
q25 12 60 12z" />
    <glyph glyph-name="o" unicode="o" horiz-adv-x="446" 
d="M223 369q79 0 134 -54.5t55 -134.5q0 -51 -23.5 -90.5t-53.5 -63.5q-50 -38 -110 -38q-75 0 -133 53.5t-58 129.5q0 99 73 157q51 41 116 41zM205 352q-45 0 -79.5 -42t-34.5 -119q0 -78 47 -134q42 -52 101 -52q39 0 71 27q16 13 30.5 49t14.5 84q0 71 -41 129t-109 58z
" />
    <glyph glyph-name="p" unicode="p" horiz-adv-x="432" 
d="M252 369q60 0 105 -49q41 -46 41 -115q0 -137 -129 -199q-34 -16 -74 -16q-43 0 -65 9q-3 1 -5.5 -2.5t-3.5 -7.5q-7 -29 -1 -170q2 -57 9 -70q8 -15 50 -22q14 -3 14 -8q0 -7 -18 -7q-5 0 -33.5 2t-47.5 2t-45.5 -3.5t-29.5 -3.5q-18 0 -18 6t21 10q26 7 34 17.5
t10 30.5q2 36 2 127q0 284 -3 359q-1 26 -2 33.5t-6 14t-18 13.5q-9 5 -9 8q0 6 12 9q49 22 64 33q9 6 13 6t4 -8q0 -2 -1 -20t-1 -24q0 -2 1.5 -3.5t3.5 0.5q65 48 126 48zM231 13q31 0 54 20q61 50 61 149q0 32 -13 66.5t-33 53.5q-36 34 -84 34q-51 0 -83 -23
q-11 -7 -13 -25q-2 -17 -2 -100.5t2 -97.5q1 -9 6 -23q12 -26 42 -40t63 -14z" />
    <glyph glyph-name="q" unicode="q" horiz-adv-x="436" 
d="M202 -12q-62 0 -111 46q-57 55 -57 137q0 101 84 162q49 36 112 36q15 0 29 -2t28.5 -6.5t23 -7.5t23 -9.5t18.5 -7.5q9 -4 20 14q7 11 11 11q6 0 4 -14q-4 -29 -7 -77q-7 -175 -7 -288v-219q0 -23 34 -34q17 -5 17 -10q0 -7 -16 -7q-7 0 -26 2t-39 2t-45.5 -3.5
t-36.5 -3.5q-15 0 -15 6q0 7 21 10q26 7 34.5 16t11.5 38q8 93 8 240q0 4 -1 6t-3 1q-65 -38 -115 -38zM238 16q53 0 77 26q6 6 7 28q1 42 1 152q0 51 -21 84q-37 48 -93 48q-46 0 -78 -42q-38 -50 -38 -124q0 -86 51 -132q42 -40 94 -40z" />
    <glyph glyph-name="r" unicode="r" horiz-adv-x="277" 
d="M193 322q-23 0 -48 -23q-18 -20 -20 -40q-1 -9 -1 -54q0 -111 4 -151q3 -23 15 -31.5t42 -10.5q19 -3 19 -9q0 -7 -25 -7q-4 0 -37.5 2t-56.5 2q-15 0 -32 -3t-20 -3q-15 0 -15 5q0 6 14 10q32 8 37 41q3 26 3 140v115q0 4 -2 6.5t-10.5 8.5t-13.5 10q-8 6 -8 10t17 9
q29 8 50 20q9 5 14 5q4 0 4 -15q0 -3 -0.5 -30t-0.5 -34q0 -5 5 0q61 71 110 71q20 0 36 -14q4 -4 4 -12q0 -13 -18 -27q-9 -8 -15 -8q-4 0 -18 7q-18 10 -33 10z" />
    <glyph glyph-name="s" unicode="s" horiz-adv-x="275" 
d="M156 354q-27 0 -44.5 -17t-17.5 -48q0 -46 59 -80q52 -33 72 -57t20 -61q0 -52 -54 -83q-31 -20 -73 -20q-31 0 -76 18q-13 5 -13 15q0 12 -3 48q-2 15 3 15t12 -19q12 -33 42 -51q20 -12 43 -12q24 0 46 21t22 51q0 28 -16 46t-48 39q-83 53 -83 106q0 46 32 74
q36 30 84 30q34 0 64 -11q5 -2 5 -8q0 -5 2.5 -21.5t3.5 -22.5q0 -16 -5 -16q-3 0 -8 12q-11 28 -24 38q-19 14 -45 14z" />
    <glyph glyph-name="t" unicode="t" horiz-adv-x="269" 
d="M166 -9q-65 0 -89 46q-12 20 -12 55v208q0 20 -4 21q-7 3 -28 7q-12 2 -12 8v1.5t2.5 2.5t7.5 4q39 14 77 65q3 4 6.5 5.5t5.5 0.5t2 -3q-3 -31 -2 -47q0 -8 5 -8q8 0 63 1.5t67 1.5q6 0 6 -12q0 -25 -10 -25q-20 0 -64 0.5t-56 0.5q-14 0 -14 -9q0 -155 3 -204
q3 -45 11 -57q20 -29 67 -29q33 0 59 16q9 7 9 0q0 -9 -23 -26q-34 -24 -77 -24z" />
    <glyph glyph-name="u" unicode="u" horiz-adv-x="425" 
d="M173 -9q-62 0 -90 36q-18 22 -18 57q0 206 -2 223q-1 18 -22 32q-12 9 -12 13q0 5 17 5q31 0 70 13q2 1 4 -3t1 -8q-7 -104 -4 -239q1 -48 16 -68q21 -26 58 -26q57 0 97 37q19 17 20 50q2 25 2 99q0 7 -0.5 38.5t-0.5 46.5q0 24 -9.5 32t-37.5 14q-15 3 -15 8q0 6 14 6
h38q27 0 45 2t19 2q4 0 3 -11q-7 -71 -7 -266q0 -38 2 -48q1 -8 3.5 -10t9.5 -1q33 10 44 10t11 -10q0 -5 -18 -8q-12 -1 -43.5 -9t-50.5 -17q-8 -4 -11 0q-3 5 -3 20q0 5 1 21t1 19t-1 6t-3 1q-44 -40 -72 -52q-36 -15 -56 -15z" />
    <glyph glyph-name="v" unicode="v" horiz-adv-x="355" 
d="M71 357q14 0 31 1.5t23 1.5q16 0 16 -6t-15 -9q-20 -5 -23.5 -12.5t3.5 -33.5q7 -23 41.5 -113.5t43.5 -108.5q2 -6 4 -2q10 19 44 98.5t45 109.5q12 36 12 42q0 15 -34 23q-11 3 -11 8q0 4 11 4q6 0 21 -1.5t26 -1.5q9 0 28 1t23 1q14 0 14 -5q0 -4 -15 -9
q-25 -7 -41 -43q-12 -27 -45.5 -99t-37.5 -81q-45 -98 -51 -119q-6 -17 -10 -17q-6 0 -11 16q-1 2 -9.5 27.5t-16.5 48.5q-74 200 -91 233q-15 28 -46 35q-14 3 -14 7q0 7 16 7q13 0 32 -1.5t37 -1.5z" />
    <glyph glyph-name="w" unicode="w" horiz-adv-x="554" 
d="M68 357q9 0 26 1t27 1q16 0 16 -7q0 -5 -18 -8q-17 -3 -21 -10.5t1 -18.5q42 -127 85 -229q1 -2 3 -2t3 2q61 128 77 172q3 15 2 17q-10 26 -15 37q-12 27 -39 34q-13 3 -13 8q0 6 15 6q9 0 32 -1.5t34 -1.5q14 0 28 1t20 1q15 0 15 -5q0 -6 -15 -10q-19 -4 -22.5 -9.5
t3.5 -29.5q9 -28 41 -113.5t42 -107.5q4 -8 4 0q26 47 81 188q16 41 16 49q0 16 -30 23q-15 6 -15 10q0 6 13 6q8 0 24 -1.5t24 -1.5q4 0 22 1.5t27 1.5q14 0 14 -6q0 -5 -18 -10q-21 -5 -42 -47q-26 -51 -79 -173q-41 -97 -49 -119q-7 -17 -12 -17t-10 16q-1 3 -9 27.5
t-17 49.5q-7 19 -26.5 74t-30.5 84q-2 8 -5 0q0 -1 -30.5 -68t-38.5 -87q-26 -62 -32 -79t-13 -17q-4 0 -9 16q-1 4 -9.5 32t-18.5 57q-14 40 -45 120.5t-37 90.5q-12 33 -45 41q-13 4 -13 8q0 7 18 7q4 0 28 -1.5t36 -1.5z" />
    <glyph glyph-name="x" unicode="x" horiz-adv-x="374" 
d="M120 357q5 0 15 0.5t13 0.5q15 0 15 -6t-16 -9q-13 -3 -15 -8.5t3 -15.5q44 -74 63 -104q2 -2 5 1q32 41 53 79q15 28 15 34q0 10 -24 16q-14 4 -14 9t14 5q1 0 17 -1t28 -1t31.5 1.5t24.5 1.5q16 0 16 -6q0 -5 -18 -9q-28 -6 -56 -39q-13 -15 -78 -103q-3 -4 -1 -8
q67 -113 91 -146q10 -14 20.5 -22.5t15 -10t15.5 -3.5q17 -4 17 -10q0 -7 -14 -7q-6 0 -32 2t-40 2q-15 0 -31.5 -1t-19.5 -1q-18 0 -18 5q0 6 21 13q19 8 8 28q-8 16 -31 56t-30 48q-5 6 -8 3q-27 -30 -62 -95q-19 -35 10 -42q18 -6 18 -9q0 -7 -17 -7q-5 0 -21 1t-24 1
q-9 0 -27 -2t-25 -2q-22 -2 -22 6q0 6 19 10q31 6 50 33q17 18 91 122q4 4 2 9q-3 5 -22 37t-37.5 61t-26.5 40q-24 30 -55 34q-17 2 -17 7q0 7 20 7q16 0 42 -2.5t49 -2.5z" />
    <glyph glyph-name="y" unicode="y" horiz-adv-x="352" 
d="M66 357q8 0 25.5 1t20.5 1q17 2 17 -6q0 -6 -13 -8q-18 -5 -20 -12.5t6 -29.5q10 -26 44.5 -109t48.5 -113q1 -1 2.5 -1t2.5 2q4 12 41 107t41 105q6 15 6 32q0 14 -21 19q-18 4 -18 9q0 6 12 6q6 0 22.5 -1.5t24.5 -1.5t22 1.5t23 1.5q12 0 12 -4q0 -5 -14 -9
q-15 -5 -24 -15t-21 -36q-9 -18 -87 -216q-6 -16 -18.5 -49t-22.5 -60q-13 -33 -42.5 -113.5t-33.5 -89.5q-10 -25 -19 -36q-12 -17 -32 -17q-12 0 -22 8t-10 22q0 9 8.5 17.5t16.5 8.5q4 0 9 -1t9 -1q19 0 27 19q4 9 15 38.5t28.5 77t31.5 84.5q7 20 -1 34q-1 2 -22 55
t-50.5 124.5t-48.5 114.5q-11 22 -37 28q-18 4 -18 9q0 7 15 7q3 0 28.5 -1.5t35.5 -1.5z" />
    <glyph glyph-name="z" unicode="z" horiz-adv-x="342" 
d="M219 357q48 0 68 1q11 0 13 -2q2 -3 -4 -11q-9 -10 -26 -35t-39.5 -63t-42 -70.5t-46.5 -78t-39 -66.5q-1 -2 -0.5 -5t3.5 -3q28 -4 106 -4q55 0 73 11q19 13 33 36q10 15 14 15q6 0 0 -27q-13 -32 -22 -50q-4 -7 -16 -7h-71q-19 0 -63.5 1.5t-58.5 1.5q-33 0 -72 -3
q-9 -1 -9.5 4.5t7.5 14.5q3 3 14 19.5t27.5 41t27.5 40.5q89 136 127 211q5 8 0 8h-136q-29 0 -46 -30q-9 -17 -13 -17q-8 0 -1 22l8 25q8 25 10 36q1 7 4 8.5t5 -1t4 -7.5q4 -10 28 -13q29 -3 133 -3z" />
    <glyph glyph-name="braceleft" unicode="{" horiz-adv-x="302" 
d="M232 -168q-61 5 -98.5 53t-37.5 107q0 12 10.5 73t10.5 81q0 51 -16 74.5t-57 36.5q-22 8 -22 15q0 3 13 7q43 11 65 36t22 53q0 18 -11 84.5t-11 76.5q0 59 51 109q54 42 94 42q13 0 13 -5q0 -4 -13 -8q-2 -1 -13.5 -5t-21.5 -8q-74 -28 -74 -118q0 -20 11 -73.5
t11 -78.5q0 -31 -27.5 -60.5t-67.5 -50.5q-6 -1 1 -5q95 -50 95 -130q0 -32 -23 -124q-17 -60 9.5 -107t94.5 -62q11 -3 11 -8q0 -6 -19 -5z" />
    <glyph glyph-name="bar" unicode="|" horiz-adv-x="217" 
d="M90 728h37v-971h-37v971z" />
    <glyph glyph-name="braceright" unicode="}" horiz-adv-x="298" 
d="M70 680q61 0 98.5 -49.5t37.5 -109.5q0 -12 -10 -74t-10 -84q0 -33 16.5 -53t56.5 -32q20 -6 20 -14q0 -4 -12 -7q-43 -10 -64.5 -35.5t-21.5 -53.5q0 -32 10.5 -104.5t10.5 -79.5q0 -66 -51 -107q-48 -39 -93 -45q-4 -1 -9 1.5t-5 5.5q0 5 9 7q52 8 83 42.5t31 87.5
q0 21 -11.5 74.5t-11.5 77.5q0 88 91 134q5 3 1 6q-91 48 -91 116q0 19 10.5 65t11.5 50q7 68 -13 109t-91 57q-11 3 -11 9t18 6z" />
    <glyph glyph-name="asciitilde" unicode="~" horiz-adv-x="410" 
d="M131 239q30 0 80.5 -34t68.5 -34q23 0 39 14t30 49q2 6 7 6q8 0 13 -5t2 -12q-31 -81 -95 -81q-26 0 -74.5 34t-70.5 34q-47 0 -69 -54q-5 -9 -10 -9q-4 0 -10 4t-5 7q11 37 36 59t58 22z" />
    <glyph glyph-name="uni00A0" unicode="&#xa0;" horiz-adv-x="150" 
 />
    <glyph glyph-name="exclamdown" unicode="&#xa1;" horiz-adv-x="214" 
d="M85 204q8 0 11 -28q18 -217 24 -327q1 -21 -9 -44t-25 -23q-17 0 -26.5 18t-9.5 45q0 21 12 168t12 160q2 31 11 31zM86 372q13 0 25.5 -9t12.5 -28q0 -17 -12 -29t-27 -12q-17 0 -25.5 12.5t-8.5 26.5q0 16 12 27.5t23 11.5z" />
    <glyph glyph-name="cent" unicode="&#xa2;" horiz-adv-x="410" 
d="M209 189l36 287q1 4 -3 4q-48 -4 -87.5 -43t-39.5 -108q0 -50 23 -87.5t67 -55.5q3 -1 4 3zM270 557l-6 -60q0 -3 2 -3q45 -3 76 -23q14 -7 14 -19q0 -9 -8.5 -16.5t-15.5 -7.5q-5 0 -12 8q-26 32 -55 42q-3 0 -3 -3l-38 -292q0 -3 2 -4q12 -3 29 -3q48 0 87 26
q15 11 19 9q2 -2 -6 -15q-15 -19 -52.5 -39t-81.5 -20q-3 0 -3 -4l-8 -69q-1 -5 -6 -4q-5 0 -8 1t-2 4l8 70q0 4 -2 4q-56 11 -97.5 54.5t-41.5 109.5q0 79 57 136q48 46 126 54q3 0 3 5l7 59q0 6 5 6q11 0 11 -6z" />
    <glyph glyph-name="sterling" unicode="&#xa3;" horiz-adv-x="420" 
d="M311 599q35 0 57.5 -21t21.5 -47q-1 -21 -10 -31.5t-20 -10.5q-8 0 -6 6q3 12 3 27q1 24 -14 44t-44 20q-49 0 -77 -61t-45 -211q-1 -3 0 -5.5t3 -2.5l107 6q4 0 8 -1.5t3 -4.5q0 -3 -5.5 -6.5t-8.5 -3.5l-106 -8q-5 0 -7 -11q-11 -74 -25 -115.5t-48 -76.5q-6 -6 0 -6
q37 -1 96 -30q87 -42 115 -42q62 0 64 68q2 17 -6 50q-3 12 4 12q33 0 32 -38q-2 -55 -50 -93.5t-94 -38.5q-19 0 -41 8t-32 13.5t-40.5 26t-35.5 24.5q-20 12 -31 12q-8 0 -14 -5q-52 -58 -60 -58t-7 12q0 12 21 33.5t42 32.5q10 6 13 10q27 28 39 200q0 7 -3 7l-62 -2
q-15 0 -14 5q0 4 17 12l62 4q5 0 5 8q9 77 18 114q21 86 69 132q46 43 106 43z" />
    <glyph glyph-name="currency" unicode="&#xa4;" horiz-adv-x="410" 
d="M94 388l-43 57q-5 6 -3 10q2 5 16 5q5 0 8 -3l42 -47q5 -3 7 -1q39 30 83 30t86 -30q1 -1 6 1l44 49q6 4 9 4q8 0 11 -2q6 -3 -1 -14l-44 -57q-3 -4 -1 -6q34 -43 34 -96q0 -61 -35 -99q-1 -1 0 -4l51 -60q1 -1 1 -3q2 -6 -4 -14l-1 -4q-2 -4 -4.5 -2.5t-8.5 7.5l-53 54
q-4 3 -7 0q-41 -30 -83 -30q-41 0 -85 30q-1 1 -3 0.5t-3 -1.5l-48 -50q-10 -10 -15 -3q-3 3 -3 14q0 4 2 6l43 53q3 4 1 6q-33 44 -33 98t34 95q2 2 0 7zM204 406q-48 0 -81 -33.5t-33 -86.5q0 -52 34.5 -86t79.5 -34t79.5 34t34.5 86q0 50 -34.5 85t-79.5 35z" />
    <glyph glyph-name="yen" unicode="&#xa5;" horiz-adv-x="410" 
d="M-1 586q0 6 15 6q6 0 25.5 -1t26.5 -1q18 0 39 1.5t28 1.5q15 0 15 -6q0 -5 -17 -8q-13 -7 -14.5 -11t4.5 -22q23 -54 95 -207q2 -5 5 0q22 40 74 155q21 48 21 63q0 16 -29 21q-14 2 -14 8t18 6q1 0 19.5 -1.5t28.5 -0.5q12 0 27.5 2t25.5 2q14 0 14 -5q0 -4 -11 -6
q-22 -4 -37.5 -21t-34.5 -53q-32 -58 -92 -186q-3 -5 2 -5l78 -1q10 0 10 -4q0 -10 -14 -10h-78q-4 0 -4 -7v-48q0 -7 5 -7h79q3 0 5.5 -2.5t2.5 -4.5q0 -8 -15 -8l-72 -1q-4 0 -4 -8l1 -137q0 -42 6.5 -52.5t35.5 -15.5q8 -2 12 -3.5t3 -4.5q0 -7 -17 -7q-11 0 -36 1.5
t-34 1.5q-12 0 -32.5 -1.5t-32.5 -1.5q-15 0 -15 7q0 3 14 8q26 5 33 15.5t8 48.5q2 70 2 143q0 6 -4 6l-77 1q-11 0 -11 4t5.5 7.5t9.5 3.5h73q3 0 3 7v48q0 7 -4 7h-71q-12 0 -12 5q0 3 5 6.5t8 3.5h65q4 0 3.5 1.5l-1.5 4.5q-11 22 -45.5 95t-51.5 106q-18 34 -26.5 42.5
t-28.5 11.5q-15 3 -15 7z" />
    <glyph glyph-name="brokenbar" unicode="&#xa6;" horiz-adv-x="217" 
d="M90 -170v340h37v-340h-37zM90 655h37v-340h-37v340z" />
    <glyph glyph-name="section" unicode="&#xa7;" horiz-adv-x="313" 
d="M30 360q0 53 48 120q2 4 2 5q6 42 38 69q34 29 72 29q26 0 41 -13q6 -6 6 -9q0 -10 -17 -21q-5 -2 -10 0q-1 1 -8.5 6t-11.5 7.5t-12.5 5t-16.5 2.5q-27 0 -41 -18.5t-14 -42.5q0 -18 12.5 -39t22.5 -32.5t45 -48.5q92 -98 92 -156q0 -22 -5.5 -43t-11.5 -33.5t-15 -28.5
t-11 -21q-29 -60 -78 -88q-26 -16 -55 -16q-17 0 -33 10.5t-16 20.5t18 20q7 5 12 0q7 -7 23.5 -15.5t26.5 -8.5q28 0 47 19.5t19 47.5q0 18 -16.5 40t-60.5 68l-8 8q-84 88 -84 156zM56 388q0 -30 15 -61t28.5 -46.5t43.5 -46.5q79 -85 86 -116l1 -3l2 3q18 30 18 62
q0 44 -18 76t-68 88q-45 51 -61 73t-22 46q-1 2 -1.5 2.5t-1.5 -0.5q-22 -44 -22 -77z" />
    <glyph glyph-name="dieresis" unicode="&#xa8;" 
d="M108 536q12 0 20.5 -8.5t8.5 -19.5q0 -15 -10 -23.5t-23 -8.5q-9 0 -17 6.5t-8 20.5q0 12 8 22.5t21 10.5zM241 536q12 0 20.5 -9t8.5 -21q0 -11 -10 -20.5t-22 -9.5t-20 8.5t-8 21.5t9 21.5t22 8.5z" />
    <glyph glyph-name="copyright" unicode="&#xa9;" horiz-adv-x="666" 
d="M334 611q128 0 210 -86t82 -211q0 -122 -83.5 -210t-208.5 -88q-127 0 -210.5 87.5t-83.5 210.5q0 121 84.5 209t209.5 88zM334 594q-114 0 -192.5 -81t-78.5 -198q0 -119 78 -200t193 -81t193 81t78 200q0 117 -78.5 198t-192.5 81zM365 485q25 0 55 -5q6 -1 18.5 -3
t18.5 -3q2 0 4.5 -3.5t2.5 -5.5q0 -5 3.5 -26t3.5 -34q0 -10 -4 -10q-3 0 -7 12q0 1 -2.5 7t-3 7.5t-2.5 6.5t-3.5 7t-4 6t-5 6t-6.5 4.5t-8 4.5q-28 15 -75 15q-61 0 -94 -43.5t-33 -105.5q0 -67 39 -114.5t97 -47.5q74 0 98 45q11 20 16 27q2 3 5 -2v-4q-4 -21 -15 -48
q-7 -16 -38 -25q-30 -10 -69 -10q-68 0 -121 39q-30 23 -46.5 58t-16.5 69q0 76 55 125q59 51 138 51z" />
    <glyph glyph-name="ordfeminine" unicode="&#xaa;" horiz-adv-x="184" 
d="M95 502q26 0 38.5 -18t12.5 -42q0 -58 -1 -77q-2 -34 19 -34q8 0 17 6q5 3 5 -1q0 -3 -3 -9q-12 -20 -38 -20q-27 0 -34 24l-3 1q-4 -3 -11 -7.5t-11 -7t-10 -5.5t-11.5 -4t-11.5 -1q-12 0 -24.5 12.5t-12.5 28.5q0 26 27 36q9 3 33.5 10t34.5 11q3 0 3 6q0 2 0.5 15.5
t0.5 23.5q0 16 -10 26.5t-28 10.5q-11 0 -19 -8q-6 -6 -6 -19q0 -4 -5 -8q-1 -1 -6.5 -4t-10.5 -5.5t-8 -3.5q-7 -3 -7 4q0 12 19 28q35 31 61 31zM51 358q0 -14 7.5 -21.5t17.5 -7.5q17 0 28 8q5 4 7 15q2 26 2 40l-2 3q-20 -4 -45 -14q-15 -6 -15 -23z" />
    <glyph glyph-name="guillemotleft" unicode="&#xab;" horiz-adv-x="520" 
d="M83 157q-5 3 1 6q60 29 113.5 64.5t73.5 54.5q10 8 10 -1q0 -7 -48 -49.5t-87 -68.5q-2 -1 -2 -2.5t2 -2.5q38 -22 86.5 -66.5t48.5 -53.5q0 -7 -8 -3q-68 63 -190 122zM240 157q-6 3 1 6q58 28 111.5 66t77.5 61q10 8 10 -1q0 -8 -50 -54.5t-87 -71.5q-1 -1 -1 -2.5
t1 -2.5q38 -22 87.5 -70t49.5 -57q0 -7 -8 -3q-82 76 -192 129z" />
    <glyph glyph-name="logicalnot" unicode="&#xac;" horiz-adv-x="410" 
d="M41 248q0 7 3 13t6 6l310 1q8 0 8 -14v-186q0 -12 -20 -12q-10 0 -10 6l-2 158q0 19 -10 19l-271 1q-14 0 -14 8z" />
    <glyph glyph-name="uni00AD" unicode="&#xad;" horiz-adv-x="228" 
d="M45 212q98 16 148 19q4 0 4 -6q0 -19 -6 -29q-3 -5 -8 -5q-7 -1 -71.5 -7.5t-71.5 -6.5q-8 0 -8 6q0 17 4 23q3 4 9 6z" />
    <glyph glyph-name="registered" unicode="&#xae;" horiz-adv-x="121" 
d="M48 507v25q0 11 -6 12q-3 0 -3 1t4 1q3 0 10 0.5t11 0.5q19 0 19 -13q0 -8 -9 -13q-1 -1 0 -2q10 -17 19 -21l2 -2q0 -2 -6 -2q-8 0 -14 7q-1 1 -9 13q-3 4 -6 4q-2 0 -2 -2v-7q0 -8 8 -10q1 -2 0 -3h-13h-13q-1 0 -2 1t2 2q8 3 8 8zM58 541v-17q0 -3 4 -3q11 0 11 10
q0 12 -10 12q-5 0 -5 -2zM63 573q23 0 38 -15.5t15 -37.5q0 -20 -15 -37t-39 -17q-22 0 -37 15.5t-15 38.5q0 21 15.5 37t37.5 16zM63 566q-19 1 -31.5 -12.5t-12.5 -33.5t12.5 -33t31.5 -13q20 0 32 13t12 33q0 19 -13 32.5t-31 13.5z" />
    <glyph glyph-name="macron" unicode="&#xaf;" 
d="M105 500q57 3 145 3q5 0 5 -7q0 -9 -5 -19q-3 -4 -5 -4q-40 -4 -146 -4q-5 0 -5 9q0 10 5 18q4 4 6 4z" />
    <glyph glyph-name="degree" unicode="&#xb0;" horiz-adv-x="410" 
d="M207 561q30 0 50 -20t20 -54q0 -30 -22 -52t-51 -22t-50 21.5t-21 52.5q0 30 22.5 52t51.5 22zM202 543q-18 0 -32 -16.5t-14 -39.5q0 -24 15 -39.5t37 -15.5q18 0 32 15t14 40q0 24 -14.5 40t-37.5 16z" />
    <glyph glyph-name="plusminus" unicode="&#xb1;" horiz-adv-x="410" 
d="M190 411q0 4 8.5 7t12.5 3h4.5t3.5 -3t2 -9v-140q0 -8 5 -8h141q5 0 5 -7q0 -20 -7 -20l-139 -1q-5 0 -5 -11l-1 -145q0 -10 -20 -10q-11 0 -11 6v153q0 7 -4 7l-142 1q-6 0 -6 7q0 6 3 12.5t7 6.5l137 1q5 0 5 9zM368 28q4 0 4 -8q0 -19 -7 -19h-322q-6 0 -6 7
q0 19 10 19q215 2 321 1z" />
    <glyph glyph-name="two.superior" unicode="&#xb2;" horiz-adv-x="209" 
d="M102 707q27 0 44.5 -19t17.5 -47q0 -34 -32 -71q-16 -21 -74 -81v-3q10 0 33.5 0.5t44 1t21.5 0.5q7 0 27 27q4 4 7 4q1 0 1.5 -2t-0.5 -5l-2 -6q-15 -32 -15 -46l-2 -4q-1 0 -42.5 1t-53.5 1h-43q-13 0 -13 4q0 6 6 11l44 44q58 60 58 113q0 21 -13.5 34.5t-32.5 13.5
q-29 0 -52 -27q-8 -10 -8 -3t6 15q31 44 73 44z" />
    <glyph glyph-name="three.superior" unicode="&#xb3;" horiz-adv-x="209" 
d="M99 707q23 0 37 -14t14 -30q0 -31 -39 -55q-1 -1 -1 -2.5t1 -1.5q33 -5 48 -21.5t15 -39.5q0 -48 -67 -86q-27 -12 -52 -12q-12 0 -23.5 7t-11.5 17q0 3 4.5 9t9.5 6q6 0 10 -3q18 -19 41 -19q21 0 37.5 18t16.5 48q0 24 -15 37.5t-35 13.5q-7 0 -31 -7q-4 -4 -6 1
q0 3 5 6q1 1 15 11q46 27 46 57q0 36 -36 36q-20 0 -40 -18q-6 -6 -8 -6q-3 0 0 9q25 39 65 39z" />
    <glyph glyph-name="acute" unicode="&#xb4;" 
d="M225 559q8 0 8 -5q0 -4 -3 -9q-70 -107 -85 -129q-6 -10 -12 -10q-5 0 0 11q1 2 30.5 64.5t30.5 64.5q12 12 31 13z" />
    <glyph glyph-name="mu" unicode="&#xb5;" horiz-adv-x="419" 
d="M92 374q11 0 32 -15q8 -14 8 -17q0 -20 -2 -39q-8 -65 -26 -198q-3 -18 5 -30q18 -28 45 -28q32 0 64 35t49 81q8 23 9 40q4 62 16 152q0 6 4 12.5t7 6.5q16 0 28.5 -7t16.5 -12q3 -6 3 -9q0 -24 -20 -94t-34 -103q-6 -16 -6 -35q0 -34 15 -51.5t38 -17.5q34 0 56 30
q2 1 4 0t2 -3q0 -15 -14 -45q-21 -40 -60 -40q-54 0 -54 110q0 12 -7 0q-60 -103 -102 -103q-16 0 -36.5 23t-32.5 47q-2 3 -3 1.5t-1 -3.5q-7 -48 -10 -123.5t0 -97.5q5 -31 18 -50.5t42 -36.5l1 -5q-3 -8 -21 -17t-27 -9q-7 0 -12 4q-13 12 -16.5 32.5t-3.5 79.5
q0 39 2.5 135t2.5 102v50q-2 39 -2 236q0 7 5 10q10 2 17 2z" />
    <glyph glyph-name="paragraph" unicode="&#xb6;" horiz-adv-x="437" 
d="M356 584h17q28 0 28 -10q0 -7 -17 -10q-16 -2 -76 -2q-11 0 -11 -22q0 -117 1 -238.5t2 -197t1 -79.5q0 -130 -37 -172q-21 -24 -56 -24q-32 0 -55.5 20t-23.5 58q0 29 17.5 51t44.5 22q15 0 26.5 -11.5t11.5 -24.5q0 -20 -9.5 -30.5t-21.5 -10.5q-14 0 -26 5q-6 5 -13 5
t-7 -11q0 -28 17.5 -41.5t42.5 -13.5q65 0 67 152v54v40v25.5v12.5q0 6 -7 6q-85 0 -149 45q-35 24 -61.5 70.5t-26.5 110.5q0 95 67 156q52 45 135 58q42 7 119 7z" />
    <glyph glyph-name="periodcentered" unicode="&#xb7;" horiz-adv-x="155" 
d="M80 229q16 0 25.5 -11.5t9.5 -25.5q0 -19 -12 -29t-27 -10q-14 0 -25 11.5t-11 26.5q0 16 12 27t28 11z" />
    <glyph glyph-name="cedilla" unicode="&#xb8;" 
d="M214 -116q0 -30 -27 -54t-55 -24q-18 0 -29.5 9t-11.5 20q0 6 7.5 12.5t15.5 6.5q7 0 16 -18q6 -13 22 -13q13 0 22.5 10.5t9.5 30.5q0 36 -48 53q-11 4 -11 8q0 3 4 7q4 5 34.5 36.5t43.5 45.5h13q-45 -48 -49 -54q-6 -7 -3 -10q2 -1 10.5 -7t13 -10t10.5 -11t9 -16.5
t3 -21.5z" />
    <glyph glyph-name="one.superior" unicode="&#xb9;" horiz-adv-x="209" 
d="M55 679q0 4 10 5q42 10 60 23q2 1 3.5 -0.5t1.5 -4.5v-2q-1 -3 -1.5 -8t-1 -11t-1 -16.5t-0.5 -21.5v-123q0 -33 5.5 -42t25.5 -14q10 -2 10 -5q0 -4 -11 -4q-1 0 -22 1.5t-30 1.5q-14 0 -30 -1.5t-17 -1.5q-11 0 -11 3q0 4 12 7q21 6 26 11t6 21q3 31 3 105v22.5v21.5
v13q0 7 -5 10q-3 1 -22 4q-11 2 -11 6z" />
    <glyph glyph-name="ordmasculine" unicode="&#xba;" horiz-adv-x="227" 
d="M116 307q-41 0 -69.5 28.5t-28.5 67.5q0 43 27.5 71t68.5 28q39 0 67 -28.5t28 -69.5t-27 -69t-66 -28zM122 317q27 0 39 26t12 58q0 35 -18.5 63t-44.5 28q-27 0 -41 -23.5t-14 -56.5q0 -34 19.5 -64.5t47.5 -30.5z" />
    <glyph glyph-name="guillemotright" unicode="&#xbb;" horiz-adv-x="520" 
d="M437 163q5 -3 -1 -6q-60 -29 -113.5 -64.5t-73.5 -54.5q-10 -8 -10 1q0 7 48 49.5t87 68.5q2 1 2 2.5t-2 2.5q-38 22 -86.5 66.5t-48.5 53.5q0 7 8 3q68 -63 190 -122zM280 163q6 -3 -1 -6q-58 -28 -111.5 -66t-77.5 -61q-10 -8 -10 1q0 8 50 54.5t87 71.5q1 1 1 2.5
t-1 2.5q-38 22 -87.5 70t-49.5 57q0 7 8 3q82 -76 192 -129z" />
    <glyph glyph-name="onequarter" unicode="&#xbc;" horiz-adv-x="405" 
d="M55 535q0 4 10 5q42 10 60 23q2 1 3.5 -0.5t1.5 -4.5v-2q-1 -3 -1.5 -8t-1 -11t-1 -16.5t-0.5 -21.5v-123q0 -33 5.5 -42t25.5 -14q10 -2 10 -5q0 -4 -11 -4q-1 0 -22 1.5t-30 1.5q-14 0 -30 -1.5t-17 -1.5q-11 0 -11 3q0 4 12 7q21 6 26 11t6 21q3 31 3 105v22.5v21.5
v13q0 7 -5 10q-3 1 -22 4q-11 2 -11 6zM371 569q4 0 3.5 -5.5t-4.5 -11.5q-53 -88 -151 -254t-136 -229q-3 -5 -9 -8t-8 -1q-3 5 8 22q43 71 138 233t139 234q12 20 20 20zM356 187l35 1q5 0 5 -8q-6 -13 -11 -15h-32q-2 0 -2 -6v-70q0 -9 -4 -10q-10 -5 -26 -5q-5 0 -5 12
l1 28q1 29 1 46q0 5 -4 5t-30.5 -0.5t-51.5 -0.5t-24 0q-3 0 -3 4q0 2 8 13q5 5 54 66t52 65q4 6 14.5 15t15.5 9q4 0 4 -8l-1 -28q0 -29 -1 -63t-1 -47q0 -3 6 -3zM241 187l74 -1q3 0 3 4q0 34 4 102q0 2 -3 2q-45 -52 -82 -104q0 -2 4 -3z" />
    <glyph glyph-name="onehalf" unicode="&#xbd;" horiz-adv-x="431" 
d="M55 535q0 4 10 5q42 10 60 23q2 1 3.5 -0.5t1.5 -4.5v-2q-1 -3 -1.5 -8t-1 -11t-1 -16.5t-0.5 -21.5v-123q0 -33 5.5 -42t25.5 -14q10 -2 10 -5q0 -4 -11 -4q-1 0 -22 1.5t-30 1.5q-14 0 -30 -1.5t-17 -1.5q-11 0 -11 3q0 4 12 7q21 6 26 11t6 21q3 31 3 105v22.5v21.5
v13q0 7 -5 10q-3 1 -22 4q-11 2 -11 6zM364 569q4 0 3.5 -5.5t-4.5 -11.5q-53 -88 -151 -254t-136 -229q-3 -5 -9 -8t-8 -1q-3 5 8 22q43 71 138 233t139 234q12 20 20 20zM324 336q27 0 44.5 -19t17.5 -47q0 -34 -32 -71q-16 -21 -74 -81v-3q10 0 33.5 0.5t44 1t21.5 0.5
q7 0 27 27q4 4 7 4q1 0 1.5 -2t-0.5 -5l-2 -6q-15 -33 -15 -46l-2 -4q-1 0 -42.5 1t-53.5 1h-43q-13 0 -13 4q0 7 6 11q6 5 13 12.5t16.5 17l14.5 14.5q58 60 58 113q0 21 -13.5 34.5t-32.5 13.5q-29 0 -52 -27q-8 -10 -8 -3t6 15q31 44 73 44z" />
    <glyph glyph-name="threequarters" unicode="&#xbe;" horiz-adv-x="389" 
d="M99 563q23 0 37 -14t14 -30q0 -31 -39 -55q-1 -1 -1 -2.5t1 -1.5q33 -5 48 -21.5t15 -39.5q0 -48 -67 -86q-27 -12 -52 -12q-12 0 -23.5 7t-11.5 17q0 3 4.5 9t9.5 6q6 0 10 -3q18 -19 41 -19q21 0 37.5 18t16.5 48q0 24 -15 37.5t-35 13.5q-7 0 -31 -7q-4 -4 -6 1
q0 3 5 6q1 1 15 11q46 27 46 57q0 36 -36 36q-20 0 -40 -18q-6 -6 -8 -6q-3 0 0 9q25 39 65 39zM359 569q4 0 3.5 -5.5t-4.5 -11.5q-53 -88 -151 -254t-136 -229q-3 -5 -9 -8t-8 -1q-3 5 8 22q43 71 138 233t139 234q12 20 20 20zM340 187l35 1q5 0 5 -8q-6 -13 -11 -15h-32
q-2 0 -2 -6v-70q0 -9 -4 -10q-10 -5 -26 -5q-5 0 -5 12l1 28q1 29 1 46q0 5 -4 5t-30.5 -0.5t-51.5 -0.5t-24 0q-3 0 -3 4q0 2 8 13q5 5 54 66t52 65q4 6 14.5 15t15.5 9q4 0 4 -8l-1 -28q0 -29 -1 -63t-1 -47q0 -3 6 -3zM225 187l74 -1q3 0 3 4q0 34 4 102q0 2 -3 2
q-45 -52 -82 -104q0 -2 4 -3z" />
    <glyph glyph-name="questiondown" unicode="&#xbf;" horiz-adv-x="341" 
d="M177 -164q17 0 33 7t26 -4q15 -17 15 -38q0 -20 -39 -20q-29 0 -61.5 26.5t-54.5 60.5q-46 67 -46 133q0 59 49 83q48 24 53 27t9 6t7 6t5.5 7.5t4 7t2.5 8t1.5 7.5t1 7.5t0.5 7.5v7.5v6.5q0 15 6 15q2 0 8 -10q12 -33 12 -75q0 -24 -13 -38q-8 -7 -20.5 -14.5t-30.5 -17
t-25 -13.5q-39 -23 -39 -67q0 -47 23 -79q31 -47 73 -47zM177 371q15 0 27 -11t12 -30q0 -14 -11 -26.5t-30 -12.5q-18 0 -27 14.5t-9 26.5q0 17 13 28t25 11z" />
    <glyph glyph-name="Agrave" unicode="&#xc0;" horiz-adv-x="646" 
d="M333 646q4 0 7 -8q4 -26 28 -86q83 -223 186 -462q19 -45 30 -58.5t31 -18.5q17 -3 17 -9q0 -7 -18 -7q-3 0 -26 1.5t-55 1.5q-14 0 -47 -2t-43 -2q-16 0 -16 7t19 9q21 3 32 11t12.5 15t1.5 19q0 10 -73 201q-6 12 -12 12q-22 -2 -106.5 -2.5t-89.5 -0.5t-14 -20
q-31 -69 -55 -150q-16 -54 0 -70q9 -9 41 -16q15 -3 15 -9q0 -7 -19 -7q-7 0 -42.5 2.5t-56.5 2.5q-13 0 -33 -2.5t-30 -2.5q-17 0 -17 7q0 5 20 9q34 7 48 22t43 79q28 60 179 434q6 16 6 29q0 8 3 11q25 29 28 50q3 10 6 10zM397 301v1v4.5v4.5q-32 91 -86 220q-3 8 -8 -3
q-44 -106 -82 -221q-3 0 0 -7q1 -2 3 -2q16 -1 80 -1q81 0 93 4zM240 772q12 5 22 -5q30 -30 81 -92q11 -13 3 -14q-6 0 -15 7q-88 66 -95 72q-14 11 -14 17q0 9 18 15z" />
    <glyph glyph-name="Aacute" unicode="&#xc1;" horiz-adv-x="646" 
d="M333 646q4 0 7 -8q4 -26 28 -86q83 -223 186 -462q19 -45 30 -58.5t31 -18.5q17 -3 17 -9q0 -7 -18 -7q-3 0 -26 1.5t-55 1.5q-14 0 -47 -2t-43 -2q-16 0 -16 7t19 9q21 3 32 11t12.5 15t1.5 19q0 10 -73 201q-6 12 -12 12q-22 -2 -106.5 -2.5t-89.5 -0.5t-14 -20
q-31 -69 -55 -150q-16 -54 0 -70q9 -9 41 -16q15 -3 15 -9q0 -7 -19 -7q-7 0 -42.5 2.5t-56.5 2.5q-13 0 -33 -2.5t-30 -2.5q-17 0 -17 7q0 5 20 9q34 7 48 22t43 79q28 60 179 434q6 16 6 29q0 8 3 11q25 29 28 50q3 10 6 10zM397 301v1v4.5v4.5q-32 91 -86 220q-3 8 -8 -3
q-44 -106 -82 -221q-3 0 0 -7q1 -2 3 -2q16 -1 80 -1q81 0 93 4zM404 754q12 9 22 5q18 -6 18 -15q0 -4 -19 -17q-55 -37 -103 -62q-18 -9 -18 -2q0 3 6 9q67 62 94 82z" />
    <glyph glyph-name="Acircumflex" unicode="&#xc2;" horiz-adv-x="646" 
d="M333 646q4 0 7 -8q4 -26 28 -86q83 -223 186 -462q19 -45 30 -58.5t31 -18.5q17 -3 17 -9q0 -7 -18 -7q-3 0 -26 1.5t-55 1.5q-14 0 -47 -2t-43 -2q-16 0 -16 7t19 9q21 3 32 11t12.5 15t1.5 19q0 10 -73 201q-6 12 -12 12q-22 -2 -106.5 -2.5t-89.5 -0.5t-14 -20
q-31 -69 -55 -150q-16 -54 0 -70q9 -9 41 -16q15 -3 15 -9q0 -7 -19 -7q-7 0 -42.5 2.5t-56.5 2.5q-13 0 -33 -2.5t-30 -2.5q-17 0 -17 7q0 5 20 9q34 7 48 22t43 79q28 60 179 434q6 16 6 29q0 8 3 11q25 29 28 50q3 10 6 10zM397 301v1v4.5v4.5q-32 91 -86 220q-3 8 -8 -3
q-44 -106 -82 -221q-3 0 0 -7q1 -2 3 -2q16 -1 80 -1q81 0 93 4zM333 746q8 0 20 -16q17 -21 79 -80q4 -5 2.5 -6.5t-5.5 -0.5q-25 7 -95 59q-3 2 -10 -1q-70 -50 -93 -59q-6 -1 -8 0t4 7q41 34 86 83q12 14 20 14z" />
    <glyph glyph-name="Atilde" unicode="&#xc3;" horiz-adv-x="646" 
d="M333 646q4 0 7 -8q4 -26 28 -86q83 -223 186 -462q19 -45 30 -58.5t31 -18.5q17 -3 17 -9q0 -7 -18 -7q-3 0 -26 1.5t-55 1.5q-14 0 -47 -2t-43 -2q-16 0 -16 7t19 9q21 3 32 11t12.5 15t1.5 19q0 10 -73 201q-6 12 -12 12q-22 -2 -106.5 -2.5t-89.5 -0.5t-14 -20
q-31 -69 -55 -150q-16 -54 0 -70q9 -9 41 -16q15 -3 15 -9q0 -7 -19 -7q-7 0 -42.5 2.5t-56.5 2.5q-13 0 -33 -2.5t-30 -2.5q-17 0 -17 7q0 5 20 9q34 7 48 22t43 79q28 60 179 434q6 16 6 29q0 8 3 11q25 29 28 50q3 10 6 10zM397 301v1v4.5v4.5q-32 91 -86 220q-3 8 -8 -3
q-44 -106 -82 -221q-3 0 0 -7q1 -2 3 -2q16 -1 80 -1q81 0 93 4zM287 716q1 0 31 -2l60 -5q23 0 32.5 3t17.5 14q7 10 12 10q1 0 1.5 -1.5t-0.5 -5t-3 -6.5q-14 -26 -39 -43q-8 -6 -19 -6q-12 0 -49 4t-45 4q-14 0 -21 -4t-21 -21q-7 -6 -10 -6q-1 0 -1.5 1t0.5 4.5t3 9.5
q8 15 32 41q9 9 19 9z" />
    <glyph glyph-name="Adieresis" unicode="&#xc4;" horiz-adv-x="646" 
d="M333 646q4 0 7 -8q4 -26 28 -86q83 -223 186 -462q19 -45 30 -58.5t31 -18.5q17 -3 17 -9q0 -7 -18 -7q-3 0 -26 1.5t-55 1.5q-14 0 -47 -2t-43 -2q-16 0 -16 7t19 9q21 3 32 11t12.5 15t1.5 19q0 10 -73 201q-6 12 -12 12q-22 -2 -106.5 -2.5t-89.5 -0.5t-14 -20
q-31 -69 -55 -150q-16 -54 0 -70q9 -9 41 -16q15 -3 15 -9q0 -7 -19 -7q-7 0 -42.5 2.5t-56.5 2.5q-13 0 -33 -2.5t-30 -2.5q-17 0 -17 7q0 5 20 9q34 7 48 22t43 79q28 60 179 434q6 16 6 29q0 8 3 11q25 29 28 50q3 10 6 10zM397 301v1v4.5v4.5q-32 91 -86 220q-3 8 -8 -3
q-44 -106 -82 -221q-3 0 0 -7q1 -2 3 -2q16 -1 80 -1q81 0 93 4zM255 720q11 0 19.5 -8.5t8.5 -19.5q0 -15 -9.5 -23.5t-22.5 -8.5q-8 0 -16 7t-8 20t7.5 23t20.5 10zM404 720q11 0 19.5 -9t8.5 -21q0 -11 -10 -20.5t-21 -9.5t-19 8.5t-8 21.5q0 14 8.5 22t21.5 8z" />
    <glyph glyph-name="Aring" unicode="&#xc5;" horiz-adv-x="646" 
d="M333 646q4 0 7 -8q4 -26 28 -86q83 -223 186 -462q19 -45 30 -58.5t31 -18.5q17 -3 17 -9q0 -7 -18 -7q-3 0 -26 1.5t-55 1.5q-14 0 -47 -2t-43 -2q-16 0 -16 7t19 9q21 3 32 11t12.5 15t1.5 19q0 10 -73 201q-6 12 -12 12q-22 -2 -106.5 -2.5t-89.5 -0.5t-14 -20
q-31 -69 -55 -150q-16 -54 0 -70q9 -9 41 -16q15 -3 15 -9q0 -7 -19 -7q-7 0 -42.5 2.5t-56.5 2.5q-13 0 -33 -2.5t-30 -2.5q-17 0 -17 7q0 5 20 9q34 7 48 22t43 79q28 60 179 434q6 16 6 29q0 8 3 11q25 29 28 50q3 10 6 10zM397 301v1v4.5v4.5q-32 91 -86 220q-3 8 -8 -3
q-44 -106 -82 -221q-3 0 0 -7q1 -2 3 -2q16 -1 80 -1q81 0 93 4zM330 766q25 0 40.5 -16.5t15.5 -39.5t-15.5 -40t-40.5 -17t-40 17t-15 40t15 39.5t40 16.5zM330 748q-15 0 -26 -11t-11 -27q0 -18 11 -27.5t26 -9.5q16 0 26.5 9.5t10.5 29.5q0 15 -11 25.5t-26 10.5z" />
    <glyph glyph-name="AE" unicode="&#xc6;" horiz-adv-x="820" 
d="M485 318h119q59 0 67 7q7 2 15 16.5t9 20.5q7 13 11 13t4 -13q0 -30 -3 -52q-1 -15 3 -67q1 -16 -6 -16q-5 0 -10 18q-11 37 -27 41q-27 8 -186 8q-5 0 -5 -14q0 -23 1.5 -107.5t1.5 -91.5q4 -51 25 -58q22 -7 100 -7q70 0 93.5 3.5t37.5 14.5q20 15 41 47q10 15 14 15
q6 0 2 -14q-2 -4 -14 -35t-14 -36q-6 -16 -15 -16q-52 0 -158.5 2.5t-158.5 2.5q-20 0 -48.5 -2.5t-32.5 -2.5q-22 0 -22 6q0 8 22 10q32 5 46.5 18t16.5 45q6 102 3 206q0 14 -5 14h-151q-9 0 -18 -16q-12 -20 -45 -85t-45 -92q-18 -42 -18 -56q0 -13 10 -18.5t43 -15.5
q13 -4 13 -8q0 -9 -17 -9q-8 0 -41.5 3t-45.5 3q-11 0 -81 -5q-15 -2 -15 7q0 8 21 11q31 5 50.5 20t41.5 56q235 435 269 498q5 8 6.5 13t-2.5 9t-16 6q-7 1 -22 3t-22 3q-15 2 -15 9q0 5 20 5q14 0 48 -2t51 -2q40 0 116 1t116 1q21 0 39 0.5t19 0.5q9 0 11 -14
q1 -7 5.5 -37.5t4.5 -33.5q5 -13 -3 -13q-6 0 -13 15q-17 30 -29.5 43t-31.5 15q-33 5 -174 5q-10 0 -13 -3.5t-3 -15.5q0 -5 1.5 -111t1.5 -148q0 -18 7 -18zM412 318q5 0 5 15q2 50 2 266q0 6 -6 1q-2 -2 -4 -5q-57 -105 -140 -268q-4 -10 2 -10q13 -1 70 -0.5t71 1.5z
" />
    <glyph glyph-name="Ccedilla" unicode="&#xc7;" horiz-adv-x="642" 
d="M426 -125q0 -32 -28.5 -57t-57.5 -25q-19 0 -31 10t-12 21q0 6 8 13t16 7q7 0 17 -19q6 -14 23 -14q13 0 23.5 11t10.5 32q0 37 -51 56q-11 4 -11 8q0 3 4 7q8 10 53 57h-5q-149 0 -256 109q-32 33 -57.5 96t-25.5 123q0 155 113 257q40 36 101 59t125 23
q55 0 111.5 -17.5t87.5 -35.5q9 -6 9 -16q-1 -15 -0.5 -27.5t1.5 -28.5t1 -19q0 -16 -6 -16q-5 0 -9 13q-12 51 -47 80q-55 52 -156 52q-106 0 -186 -84q-30 -33 -52 -96t-22 -133q0 -68 27.5 -134.5t67.5 -109.5q35 -37 83.5 -55.5t93.5 -18.5q77 0 121 27q56 33 78 100
q5 18 10 18q6 0 6 -15q0 -8 -3 -25t-7 -35.5t-4 -21.5q-2 -6 -8 -11q-92 -53 -178 -57q-18 -20 -23 -28q-6 -8 -3 -11q2 -1 9.5 -6t11 -7.5t9.5 -9t9.5 -12.5t6 -15t2.5 -19z" />
    <glyph glyph-name="Egrave" unicode="&#xc8;" horiz-adv-x="506" 
d="M45 629q0 5 14 5q10 0 35 -1.5t42 -1.5q23 0 117 1t113 1q22 0 40 1t20 1q6 0 9 -17q4 -52 7 -64q2 -15 -4 -15q-4 0 -10 14q-22 53 -52 58q-18 3 -101.5 4t-98.5 -1q-7 -1 -9.5 -7t-2.5 -30v-233q0 -18 6 -18h136q56 0 67 7q11 5 26 35q5 11 10 11t5 -11q0 -3 -1 -11
l-2.5 -20t-2.5 -19q-3 -26 2 -54q2 -7 0.5 -12t-3.5 -7t-3 -2q-3 0 -12 22q-8 24 -24 30q-25 7 -195 7q-7 0 -8 -3t-1 -20q0 -29 1.5 -114.5t1.5 -91.5q0 -11 7 -25t20 -21q21 -11 103 -11q70 0 91.5 3.5t35.5 15.5q6 5 35 46q13 18 18 18q7 0 1 -18l-22 -74q-6 -11 -13 -11
q-56 0 -160 2t-142 2q-19 0 -56 -2.5t-40 -2.5q-18 0 -18 7q0 5 18 8q29 5 42 18.5t14 45.5q5 203 5 467q0 43 -9.5 58t-37.5 21q-14 3 -14 9zM182 777q12 5 22 -5q30 -30 81 -92q11 -13 3 -14q-6 0 -15 7q-88 66 -95 72q-14 11 -14 17q0 9 18 15z" />
    <glyph glyph-name="Eacute" unicode="&#xc9;" horiz-adv-x="506" 
d="M45 629q0 5 14 5q10 0 35 -1.5t42 -1.5q23 0 117 1t113 1q22 0 40 1t20 1q6 0 9 -17q4 -52 7 -64q2 -15 -4 -15q-4 0 -10 14q-22 53 -52 58q-18 3 -101.5 4t-98.5 -1q-7 -1 -9.5 -7t-2.5 -30v-233q0 -18 6 -18h136q56 0 67 7q11 5 26 35q5 11 10 11t5 -11q0 -3 -1 -11
l-2.5 -20t-2.5 -19q-3 -26 2 -54q2 -7 0.5 -12t-3.5 -7t-3 -2q-3 0 -12 22q-8 24 -24 30q-25 7 -195 7q-7 0 -8 -3t-1 -20q0 -29 1.5 -114.5t1.5 -91.5q0 -11 7 -25t20 -21q21 -11 103 -11q70 0 91.5 3.5t35.5 15.5q6 5 35 46q13 18 18 18q7 0 1 -18l-22 -74q-6 -11 -13 -11
q-56 0 -160 2t-142 2q-19 0 -56 -2.5t-40 -2.5q-18 0 -18 7q0 5 18 8q29 5 42 18.5t14 45.5q5 203 5 467q0 43 -9.5 58t-37.5 21q-14 3 -14 9zM324 759q12 9 22 5q18 -6 18 -15q0 -4 -19 -17q-55 -37 -103 -62q-18 -9 -18 -2q0 3 6 9q67 62 94 82z" />
    <glyph glyph-name="Ecircumflex" unicode="&#xca;" horiz-adv-x="506" 
d="M45 629q0 5 14 5q10 0 35 -1.5t42 -1.5q23 0 117 1t113 1q22 0 40 1t20 1q6 0 9 -17q4 -52 7 -64q2 -15 -4 -15q-4 0 -10 14q-22 53 -52 58q-18 3 -101.5 4t-98.5 -1q-7 -1 -9.5 -7t-2.5 -30v-233q0 -18 6 -18h136q56 0 67 7q11 5 26 35q5 11 10 11t5 -11q0 -3 -1 -11
l-2.5 -20t-2.5 -19q-3 -26 2 -54q2 -7 0.5 -12t-3.5 -7t-3 -2q-3 0 -12 22q-8 24 -24 30q-25 7 -195 7q-7 0 -8 -3t-1 -20q0 -29 1.5 -114.5t1.5 -91.5q0 -11 7 -25t20 -21q21 -11 103 -11q70 0 91.5 3.5t35.5 15.5q6 5 35 46q13 18 18 18q7 0 1 -18l-22 -74q-6 -11 -13 -11
q-56 0 -160 2t-142 2q-19 0 -56 -2.5t-40 -2.5q-18 0 -18 7q0 5 18 8q29 5 42 18.5t14 45.5q5 203 5 467q0 43 -9.5 58t-37.5 21q-14 3 -14 9zM260 770q8 0 20 -16q17 -21 79 -80q4 -5 2.5 -6.5t-5.5 -0.5q-25 7 -95 59q-3 2 -10 -1q-70 -50 -93 -59q-6 -1 -8 0t4 7
q41 34 86 83q12 14 20 14z" />
    <glyph glyph-name="Edieresis" unicode="&#xcb;" horiz-adv-x="506" 
d="M45 629q0 5 14 5q10 0 35 -1.5t42 -1.5q23 0 117 1t113 1q22 0 40 1t20 1q6 0 9 -17q4 -52 7 -64q2 -15 -4 -15q-4 0 -10 14q-22 53 -52 58q-18 3 -101.5 4t-98.5 -1q-7 -1 -9.5 -7t-2.5 -30v-233q0 -18 6 -18h136q56 0 67 7q11 5 26 35q5 11 10 11t5 -11q0 -3 -1 -11
l-2.5 -20t-2.5 -19q-3 -26 2 -54q2 -7 0.5 -12t-3.5 -7t-3 -2q-3 0 -12 22q-8 24 -24 30q-25 7 -195 7q-7 0 -8 -3t-1 -20q0 -29 1.5 -114.5t1.5 -91.5q0 -11 7 -25t20 -21q21 -11 103 -11q70 0 91.5 3.5t35.5 15.5q6 5 35 46q13 18 18 18q7 0 1 -18l-22 -74q-6 -11 -13 -11
q-56 0 -160 2t-142 2q-19 0 -56 -2.5t-40 -2.5q-18 0 -18 7q0 5 18 8q29 5 42 18.5t14 45.5q5 203 5 467q0 43 -9.5 58t-37.5 21q-14 3 -14 9zM189 737q11 0 19.5 -8.5t8.5 -19.5q0 -15 -9.5 -23.5t-22.5 -8.5q-8 0 -16 7t-8 20t7.5 23t20.5 10zM338 737q11 0 19.5 -9
t8.5 -21q0 -11 -10 -20.5t-21 -9.5t-19 8.5t-8 21.5q0 14 8.5 22t21.5 8z" />
    <glyph glyph-name="Igrave" unicode="&#xcc;" horiz-adv-x="270" 
d="M41 630q0 5 15 5q14 0 38 -2t40 -2q15 0 41.5 2t36.5 2q14 0 14 -4q0 -8 -15 -9q-28 -5 -35.5 -17t-9.5 -45q-2 -35 -2 -234q0 -192 5 -262q2 -28 8.5 -36.5t29.5 -14.5q17 -4 17 -10t-19 -6q-3 0 -25.5 1.5t-36.5 1.5q-25 0 -55 -2.5t-36 -2.5q-15 0 -15 7q0 5 23 10
q27 6 34.5 22t8.5 62q1 29 1 394q0 50 -5 87q-2 24 -10.5 31.5t-36.5 13.5q-11 3 -11 8zM53 778q12 5 22 -5q30 -30 81 -92q11 -13 3 -14q-6 0 -15 7q-88 66 -95 72q-14 11 -14 17q0 9 18 15z" />
    <glyph glyph-name="Iacute" unicode="&#xcd;" horiz-adv-x="270" 
d="M41 630q0 5 15 5q14 0 38 -2t40 -2q15 0 41.5 2t36.5 2q14 0 14 -4q0 -8 -15 -9q-28 -5 -35.5 -17t-9.5 -45q-2 -35 -2 -234q0 -192 5 -262q2 -28 8.5 -36.5t29.5 -14.5q17 -4 17 -10t-19 -6q-3 0 -25.5 1.5t-36.5 1.5q-25 0 -55 -2.5t-36 -2.5q-15 0 -15 7q0 5 23 10
q27 6 34.5 22t8.5 62q1 29 1 394q0 50 -5 87q-2 24 -10.5 31.5t-36.5 13.5q-11 3 -11 8zM218 765q12 9 22 5q18 -6 18 -15q0 -4 -19 -17q-55 -37 -103 -62q-18 -9 -18 -2q0 3 6 9q67 62 94 82z" />
    <glyph glyph-name="Icircumflex" unicode="&#xce;" horiz-adv-x="270" 
d="M41 630q0 5 15 5q14 0 38 -2t40 -2q15 0 41.5 2t36.5 2q14 0 14 -4q0 -8 -15 -9q-28 -5 -35.5 -17t-9.5 -45q-2 -35 -2 -234q0 -192 5 -262q2 -28 8.5 -36.5t29.5 -14.5q17 -4 17 -10t-19 -6q-3 0 -25.5 1.5t-36.5 1.5q-25 0 -55 -2.5t-36 -2.5q-15 0 -15 7q0 5 23 10
q27 6 34.5 22t8.5 62q1 29 1 394q0 50 -5 87q-2 24 -10.5 31.5t-36.5 13.5q-11 3 -11 8zM139 767q8 0 20 -16q17 -21 79 -80q4 -5 2.5 -6.5t-5.5 -0.5q-25 7 -95 59q-3 2 -10 -1q-70 -50 -93 -59q-6 -1 -8 0t4 7q41 34 86 83q12 14 20 14z" />
    <glyph glyph-name="Idieresis" unicode="&#xcf;" horiz-adv-x="270" 
d="M41 630q0 5 15 5q14 0 38 -2t40 -2q15 0 41.5 2t36.5 2q14 0 14 -4q0 -8 -15 -9q-28 -5 -35.5 -17t-9.5 -45q-2 -35 -2 -234q0 -192 5 -262q2 -28 8.5 -36.5t29.5 -14.5q17 -4 17 -10t-19 -6q-3 0 -25.5 1.5t-36.5 1.5q-25 0 -55 -2.5t-36 -2.5q-15 0 -15 7q0 5 23 10
q27 6 34.5 22t8.5 62q1 29 1 394q0 50 -5 87q-2 24 -10.5 31.5t-36.5 13.5q-11 3 -11 8zM63 738q11 0 19.5 -8.5t8.5 -19.5q0 -15 -9.5 -23.5t-22.5 -8.5q-8 0 -16 7t-8 20t7.5 23t20.5 10zM212 738q11 0 19.5 -9t8.5 -21q0 -11 -10 -20.5t-21 -9.5t-19 8.5t-8 21.5
q0 14 8.5 22t21.5 8z" />
    <glyph glyph-name="Eth" unicode="&#xd0;" horiz-adv-x="682" 
d="M43 627q0 5 15 5q87 0 128 4q63 7 80 7q127 0 218 -54q152 -95 152 -270q0 -70 -22.5 -127.5t-61.5 -95.5t-83 -62t-94 -37q-28 -8 -87 -8q-18 0 -74 4q-75 5 -87 5q-15 0 -40 -1t-28 -1q-19 0 -19 8q0 6 17 7q26 4 35.5 14.5t10.5 39.5q3 36 3 198q0 36 -1 48q0 6 -3 6
l-62 1q-12 0 -12 13q0 6 15 6l59 1q4 0 4 11q1 10 -1 102.5t-4 114.5q-2 27 -9.5 37t-36.5 16q-12 1 -12 8zM346 332q0 -13 -22 -13l-155 -2q-5 0 -5 -7q1 -117 6 -187q3 -45 9.5 -64t24.5 -33q28 -22 88 -22q73 0 120 25q153 79 153 273q0 150 -91 237q-92 87 -222 87
q-50 0 -75 -10q-11 -4 -11 -27q-2 -70 -2 -241q0 -10 5 -10h133q44 0 44 -6z" />
    <glyph glyph-name="Ntilde" unicode="&#xd1;" horiz-adv-x="738" 
d="M21 629q0 7 22 7q9 0 46.5 -2.5t57.5 -2.5q6 0 23 -22q93 -120 435 -501q1 -1 2 -1t2.5 2t1.5 7q0 18 -1 102t-2.5 188t-1.5 136q0 41 -12 55.5t-39 21.5q-19 5 -19 9q0 6 20 6q8 0 31.5 -1.5t35.5 -1.5q17 0 38.5 1.5t24.5 1.5q16 0 16 -5q0 -4 -17 -10q-18 -6 -28 -17
t-11.5 -17.5t-4.5 -25.5q-6 -45 -6 -348q0 -33 -0.5 -78t-0.5 -73t1 -52q2 -31 -6 -31q-3 0 -34 38q-27 33 -109 128t-188 218t-160 186q-8 10 -8 -2q0 -20 -1.5 -207t-1.5 -209q0 -62 11 -85q9 -21 49 -32q18 -5 18 -11t-19 -6q-7 0 -32.5 2.5t-43.5 2.5q-19 0 -43.5 -2.5
t-25.5 -2.5q-17 0 -17 6q0 5 19 10q30 8 39.5 22t13.5 57q2 26 6.5 207t4.5 231q0 59 -18 73t-49 19q-19 3 -19 9zM331 731q1 0 31 -2q3 0 16 -1.5t25 -2.5t19 -1q23 0 32.5 3t17.5 14q7 10 12 10q1 0 1.5 -1.5t-0.5 -5t-3 -6.5q-14 -26 -39 -43q-8 -6 -19 -6q-12 0 -49 4
t-45 4q-14 0 -21 -4t-21 -21q-7 -6 -10 -6q-1 0 -1.5 1t0.5 4.5t3 9.5q8 15 32 41q9 9 19 9z" />
    <glyph glyph-name="Ograve" unicode="&#xd2;" horiz-adv-x="734" 
d="M368 649q128 0 224 -101.5t96 -239.5q0 -110 -58 -187.5t-129 -108.5q-67 -30 -129 -30q-133 0 -229.5 102t-96.5 240q0 163 129 261q38 29 91 46.5t102 17.5zM348 634q-41 0 -85.5 -22.5t-71.5 -52.5q-75 -87 -75 -236q0 -52 20 -109.5t53 -101.5q83 -111 201 -111
q59 0 108 36t85 106.5t36 163.5q0 65 -25 131t-69 116q-71 80 -177 80zM288 792q12 5 22 -5q30 -30 81 -92q11 -13 3 -14q-6 0 -15 7q-88 66 -95 72q-14 11 -14 17q0 9 18 15z" />
    <glyph glyph-name="Oacute" unicode="&#xd3;" horiz-adv-x="734" 
d="M368 649q128 0 224 -101.5t96 -239.5q0 -110 -58 -187.5t-129 -108.5q-67 -30 -129 -30q-133 0 -229.5 102t-96.5 240q0 163 129 261q38 29 91 46.5t102 17.5zM348 634q-41 0 -85.5 -22.5t-71.5 -52.5q-75 -87 -75 -236q0 -52 20 -109.5t53 -101.5q83 -111 201 -111
q59 0 108 36t85 106.5t36 163.5q0 65 -25 131t-69 116q-71 80 -177 80zM438 773q12 9 22 5q18 -6 18 -15q0 -4 -19 -17q-55 -37 -103 -62q-18 -9 -18 -2q0 3 6 9q67 62 94 82z" />
    <glyph glyph-name="Ocircumflex" unicode="&#xd4;" horiz-adv-x="734" 
d="M368 649q128 0 224 -101.5t96 -239.5q0 -110 -58 -187.5t-129 -108.5q-67 -30 -129 -30q-133 0 -229.5 102t-96.5 240q0 163 129 261q38 29 91 46.5t102 17.5zM348 634q-41 0 -85.5 -22.5t-71.5 -52.5q-75 -87 -75 -236q0 -52 20 -109.5t53 -101.5q83 -111 201 -111
q59 0 108 36t85 106.5t36 163.5q0 65 -25 131t-69 116q-71 80 -177 80zM369 774q8 0 20 -16q17 -21 79 -80q4 -5 2.5 -6.5t-5.5 -0.5q-25 7 -95 59q-3 2 -10 -1q-70 -50 -93 -59q-6 -1 -8 0t4 7q41 34 86 83q12 14 20 14z" />
    <glyph glyph-name="Otilde" unicode="&#xd5;" horiz-adv-x="734" 
d="M368 649q128 0 224 -101.5t96 -239.5q0 -110 -58 -187.5t-129 -108.5q-67 -30 -129 -30q-133 0 -229.5 102t-96.5 240q0 163 129 261q38 29 91 46.5t102 17.5zM348 634q-41 0 -85.5 -22.5t-71.5 -52.5q-75 -87 -75 -236q0 -52 20 -109.5t53 -101.5q83 -111 201 -111
q59 0 108 36t85 106.5t36 163.5q0 65 -25 131t-69 116q-71 80 -177 80zM311 745q1 0 31 -2l60 -5q23 0 32.5 3t17.5 14q7 10 12 10q1 0 1.5 -1.5t-0.5 -5t-3 -6.5q-14 -26 -39 -43q-8 -6 -19 -6q-12 0 -49 4t-45 4q-14 0 -21 -4t-21 -21q-7 -6 -10 -6q-1 0 -1.5 1t0.5 4.5
t3 9.5q8 15 32 41q9 9 19 9z" />
    <glyph glyph-name="Odieresis" unicode="&#xd6;" horiz-adv-x="734" 
d="M368 649q128 0 224 -101.5t96 -239.5q0 -110 -58 -187.5t-129 -108.5q-67 -30 -129 -30q-133 0 -229.5 102t-96.5 240q0 163 129 261q38 29 91 46.5t102 17.5zM348 634q-41 0 -85.5 -22.5t-71.5 -52.5q-75 -87 -75 -236q0 -52 20 -109.5t53 -101.5q83 -111 201 -111
q59 0 108 36t85 106.5t36 163.5q0 65 -25 131t-69 116q-71 80 -177 80zM292 749q11 0 19.5 -8.5t8.5 -19.5q0 -15 -9.5 -23.5t-22.5 -8.5q-8 0 -16 7t-8 20t7.5 23t20.5 10zM441 749q11 0 19.5 -9t8.5 -21q0 -11 -10 -20.5t-21 -9.5t-19 8.5t-8 21.5q0 14 8.5 22t21.5 8z
" />
    <glyph glyph-name="multiply" unicode="&#xd7;" horiz-adv-x="410" 
d="M61 312q-6 6 8 22q3 4 13 -6l120 -118q1 -1 3 -1.5t3 0.5l119 123q7 7 11 3q13 -14 7 -20l-120 -124q-3 -3 1 -6l123 -125q3 -2 2 -8.5t-6 -12.5q-5 -5 -10 -1l-131 130q-5 3 -8 -2l-116 -117q-7 -7 -13 -3q-12 8 -7 16l121 121q4 4 1 7z" />
    <glyph glyph-name="Oslash" unicode="&#xd8;" horiz-adv-x="734" 
d="M368 649q101 0 186 -67q3 -2 5 2l32 40q15 18 20 18q2 0 3 -3.5t0 -9t-5 -10.5q-12 -20 -36 -49q-2 -2 0 -4q53 -49 84 -116t31 -142q0 -110 -58 -187.5t-129 -108.5q-67 -30 -129 -30q-99 0 -182 61q-1 1 -3 0.5t-2 -1.5q-6 -9 -23.5 -30t-19.5 -24q-8 -11 -14 -8
q-3 1 -2.5 8.5t4.5 12.5q27 36 38 51q3 5 1 7q-57 49 -90 118.5t-33 146.5q0 162 130 261q38 29 90.5 46.5t101.5 17.5zM390 1q61 0 110 36t85 106.5t36 163.5q0 120 -72 222q-1 1 -2.5 1t-2.5 -1q-307 -418 -326 -444q-3 -7 -1 -9q18 -18 43 -36q57 -39 130 -39zM348 634
q-40 0 -85.5 -22.5t-72.5 -53.5q-75 -87 -75 -236q0 -118 83 -225q2 -3 8 3q66 88 182 246t145 198q1 1 0.5 3t-1.5 3q-74 84 -184 84z" />
    <glyph glyph-name="Ugrave" unicode="&#xd9;" horiz-adv-x="666" 
d="M123 631q14 0 41 1t36 1q15 0 15 -5q0 -6 -15 -10q-19 -3 -30 -10t-15 -21t-5 -24.5t-1 -32.5v-9q-4 -199 0 -280q3 -110 56 -163q55 -57 145 -57q95 0 145.5 57.5t55.5 196.5q3 56 3 122q0 97 -3.5 140.5t-10 56.5t-22.5 18q-12 4 -24 6q-14 2 -14 9q0 6 15 6
q7 0 28.5 -1t38.5 -1q10 0 34.5 1.5t36.5 1.5q17 0 17 -5q0 -7 -21 -11q-27 -5 -34 -20t-9 -53q-2 -31 -4.5 -135.5t-5.5 -142.5q-5 -50 -9.5 -78.5t-20.5 -70t-43 -70.5q-61 -64 -174 -64q-95 0 -154 46q-44 35 -63.5 85.5t-22.5 136.5q-1 31 -2 150t-3 151q-3 40 -9.5 50
t-38.5 19q-10 3 -10 9q0 4 18 4q7 0 34 -2t45 -2zM272 769q12 5 22 -5q30 -30 81 -92q11 -13 3 -14q-6 0 -15 7q-88 66 -95 72q-14 11 -14 17q0 9 18 15z" />
    <glyph glyph-name="Uacute" unicode="&#xda;" horiz-adv-x="666" 
d="M123 631q14 0 41 1t36 1q15 0 15 -5q0 -6 -15 -10q-19 -3 -30 -10t-15 -21t-5 -24.5t-1 -32.5v-9q-4 -199 0 -280q3 -110 56 -163q55 -57 145 -57q95 0 145.5 57.5t55.5 196.5q3 56 3 122q0 97 -3.5 140.5t-10 56.5t-22.5 18q-12 4 -24 6q-14 2 -14 9q0 6 15 6
q7 0 28.5 -1t38.5 -1q10 0 34.5 1.5t36.5 1.5q17 0 17 -5q0 -7 -21 -11q-27 -5 -34 -20t-9 -53q-2 -31 -4.5 -135.5t-5.5 -142.5q-5 -50 -9.5 -78.5t-20.5 -70t-43 -70.5q-61 -64 -174 -64q-95 0 -154 46q-44 35 -63.5 85.5t-22.5 136.5q-1 31 -2 150t-3 151q-3 40 -9.5 50
t-38.5 19q-10 3 -10 9q0 4 18 4q7 0 34 -2t45 -2zM408 761q12 9 22 5q18 -6 18 -15q0 -4 -19 -17q-55 -37 -103 -62q-18 -9 -18 -2q0 3 6 9q67 62 94 82z" />
    <glyph glyph-name="Ucircumflex" unicode="&#xdb;" horiz-adv-x="666" 
d="M123 631q14 0 41 1t36 1q15 0 15 -5q0 -6 -15 -10q-19 -3 -30 -10t-15 -21t-5 -24.5t-1 -32.5v-9q-4 -199 0 -280q3 -110 56 -163q55 -57 145 -57q95 0 145.5 57.5t55.5 196.5q3 56 3 122q0 97 -3.5 140.5t-10 56.5t-22.5 18q-12 4 -24 6q-14 2 -14 9q0 6 15 6
q7 0 28.5 -1t38.5 -1q10 0 34.5 1.5t36.5 1.5q17 0 17 -5q0 -7 -21 -11q-27 -5 -34 -20t-9 -53q-2 -31 -4.5 -135.5t-5.5 -142.5q-5 -50 -9.5 -78.5t-20.5 -70t-43 -70.5q-61 -64 -174 -64q-95 0 -154 46q-44 35 -63.5 85.5t-22.5 136.5q-1 31 -2 150t-3 151q-3 40 -9.5 50
t-38.5 19q-10 3 -10 9q0 4 18 4q7 0 34 -2t45 -2zM353 773q8 0 20 -16q17 -21 79 -80q4 -5 2.5 -6.5t-5.5 -0.5q-25 7 -95 59q-3 2 -10 -1q-70 -50 -93 -59q-6 -1 -8 0t4 7q41 34 86 83q12 14 20 14z" />
    <glyph glyph-name="Udieresis" unicode="&#xdc;" horiz-adv-x="666" 
d="M123 631q14 0 41 1t36 1q15 0 15 -5q0 -6 -15 -10q-19 -3 -30 -10t-15 -21t-5 -24.5t-1 -32.5v-9q-4 -199 0 -280q3 -110 56 -163q55 -57 145 -57q95 0 145.5 57.5t55.5 196.5q3 56 3 122q0 97 -3.5 140.5t-10 56.5t-22.5 18q-12 4 -24 6q-14 2 -14 9q0 6 15 6
q7 0 28.5 -1t38.5 -1q10 0 34.5 1.5t36.5 1.5q17 0 17 -5q0 -7 -21 -11q-27 -5 -34 -20t-9 -53q-2 -31 -4.5 -135.5t-5.5 -142.5q-5 -50 -9.5 -78.5t-20.5 -70t-43 -70.5q-61 -64 -174 -64q-95 0 -154 46q-44 35 -63.5 85.5t-22.5 136.5q-1 31 -2 150t-3 151q-3 40 -9.5 50
t-38.5 19q-10 3 -10 9q0 4 18 4q7 0 34 -2t45 -2zM279 734q11 0 19.5 -8.5t8.5 -19.5q0 -15 -9.5 -23.5t-22.5 -8.5q-8 0 -16 7t-8 20t7.5 23t20.5 10zM428 734q11 0 19.5 -9t8.5 -21q0 -11 -10 -20.5t-21 -9.5t-19 8.5t-8 21.5q0 14 8.5 22t21.5 8z" />
    <glyph glyph-name="Yacute" unicode="&#xdd;" horiz-adv-x="586" 
d="M1 630q0 6 19 6q5 0 40 -2.5t53 -2.5q17 0 42.5 1.5t28.5 1.5q16 0 16 -6q0 -7 -17 -10q-29 -6 -29 -18q0 -11 17 -39q106 -183 135 -222q8 -8 12 -1q120 196 125 205q24 38 24 52q0 17 -36 25q-18 2 -18 10q0 5 16 5q14 0 36 -2t36 -2q13 0 36 2t30 2q18 0 18 -6
q0 -7 -22 -10q-38 -7 -67 -45q-24 -30 -52 -72.5t-66 -105t-38 -63.5q-14 -24 -16 -42q-3 -24 -3 -135q0 -46 2 -80q2 -36 10 -49t33 -17q21 -4 21 -10t-17 -6t-47.5 3t-41.5 3q-15 0 -36 -2t-34 -2q-21 0 -21 8q0 6 22 9q28 3 36 12.5t10 41.5q4 42 4 130q0 77 -3 94
q-3 15 -6 21q-97 169 -148 243q-41 58 -82 65q-22 4 -22 10zM378 760q12 9 22 5q18 -6 18 -15q0 -4 -19 -17q-55 -37 -103 -62q-18 -9 -18 -2q0 3 6 9q67 62 94 82z" />
    <glyph glyph-name="Thorn" unicode="&#xde;" horiz-adv-x="476" 
d="M46 630q0 3 14 3q56 -2 73 -2q32 0 68 4q16 0 16 -4q0 -6 -14 -9q-22 -5 -29 -10.5t-8 -18.5q-2 -62 -2 -97q0 -8 5 -7q25 5 71 5q104 0 155 -44q54 -44 54 -125q0 -58 -27 -97t-62 -59q-53 -28 -106 -28q-49 0 -83 13q-2 1 -4 -1t-2 -6q0 -21 5 -96q2 -19 9 -27t28 -12
q25 -3 25 -9q0 -7 -19 -7q-8 0 -38.5 2t-45.5 2t-41 -2t-30 -2q-15 0 -15 6q0 7 19 9q25 4 33 13.5t10 34.5q1 8 1 202v147q0 126 -3 179q-1 17 -9.5 23t-33.5 10q-14 2 -14 10zM214 478q-31 0 -43 -7q-7 -5 -7 -17q0 -26 -0.5 -95t-0.5 -117t1 -63q2 -11 9 -13q14 -5 54 -5
q67 0 110 41q44 42 44 115q0 83 -46.5 122t-120.5 39z" />
    <glyph glyph-name="germandbls" unicode="&#xdf;" horiz-adv-x="435" 
d="M291 698q58 0 88.5 -39.5t30.5 -84.5q0 -27 -9 -49.5t-17 -32t-25 -26.5q-5 -6 -14.5 -15t-23.5 -22t-23 -21q-36 -35 -36 -66q0 -29 25 -47q43 -31 73 -61q45 -43 45 -93q0 -42 -28.5 -79t-64.5 -55q-39 -19 -67 -19q-15 0 -32.5 8.5t-17.5 21.5q0 12 12 22q6 5 12 0
q30 -20 69 -20q32 0 55.5 25t23.5 56q0 37 -19 63t-64 61q-37 29 -52.5 50t-15.5 50q0 28 23 48q12 9 51 46q80 77 80 136q0 50 -29.5 86t-76.5 36q-105 0 -132 -164q-9 -55 -9 -249q0 -134 4 -218q1 -27 25 -33q20 -4 20 -10t-17 -6q-6 0 -26.5 1.5t-33.5 1.5
q-19 0 -37.5 -2t-23.5 -2q-18 0 -18 5t15 8q14 3 22 6.5t11.5 11.5t4 10t1.5 15q2 18 2 162q0 53 -2 93q0 16 -5 16q-1 0 -32 3q-8 1 -7 8t35 21q10 5 10 14q0 167 79 258q61 71 141 71z" />
    <glyph glyph-name="agrave" unicode="&#xe0;" horiz-adv-x="334" 
d="M127 558q7 0 11 -9q8 -24 48 -128q2 -5 1.5 -9.5t-2.5 -4.5q-3 0 -13 12q-2 2 -13 22t-27.5 48.5l-27.5 47.5q-7 12 -3 16q5 5 26 5zM180 369q25 0 46 -14.5t30 -40.5q9 -29 9 -88q0 -17 -2 -81.5t-2 -76.5q0 -40 39 -40q14 0 30 9q3 2 5 1.5t2.5 -2.5t-1.5 -7
q-8 -18 -27.5 -29t-42.5 -11q-18 0 -33.5 13t-22.5 32q-1 1 -2.5 1.5t-2.5 -0.5q-52 -45 -99 -45q-32 0 -55.5 24t-23.5 60q0 21 12.5 35t23.5 20q17 10 135 49q14 5 14 15q2 24 2 46q0 68 -25 86q-22 16 -43 16q-20 0 -42 -14q-15 -13 -18 -27q-1 -4 -1 -15q0 -4 -4 -8
q-7 -4 -22.5 -11t-18.5 -7q-8 0 -8 9q0 6 15 25q30 36 76 59q34 17 57 17zM144 25q31 0 50 17q10 10 13 26q5 28 5 93q0 1 -1.5 3.5t-2.5 1.5q-10 -1 -48.5 -15.5t-55.5 -22.5q-23 -13 -23 -49q0 -23 18.5 -38.5t44.5 -15.5z" />
    <glyph glyph-name="aacute" unicode="&#xe1;" horiz-adv-x="334" 
d="M237 559q8 0 8 -5q0 -4 -3 -9q-70 -107 -85 -129q-6 -10 -12 -10q-5 0 0 11q1 2 30.5 64.5t30.5 64.5q12 12 31 13zM180 369q25 0 46 -14.5t30 -40.5q9 -29 9 -88q0 -17 -2 -81.5t-2 -76.5q0 -40 39 -40q14 0 30 9q3 2 5 1.5t2.5 -2.5t-1.5 -7q-8 -18 -27.5 -29
t-42.5 -11q-18 0 -33.5 13t-22.5 32q-1 1 -2.5 1.5t-2.5 -0.5q-52 -45 -99 -45q-32 0 -55.5 24t-23.5 60q0 21 12.5 35t23.5 20q17 10 135 49q14 5 14 15q2 24 2 46q0 68 -25 86q-22 16 -43 16q-20 0 -42 -14q-15 -13 -18 -27q-1 -4 -1 -15q0 -4 -4 -8q-7 -4 -22.5 -11
t-18.5 -7q-8 0 -8 9q0 6 15 25q30 36 76 59q34 17 57 17zM144 25q31 0 50 17q10 10 13 26q5 28 5 93q0 1 -1.5 3.5t-2.5 1.5q-10 -1 -48.5 -15.5t-55.5 -22.5q-23 -13 -23 -49q0 -23 18.5 -38.5t44.5 -15.5z" />
    <glyph glyph-name="acircumflex" unicode="&#xe2;" horiz-adv-x="334" 
d="M165 558q3 0 7 -9q3 -5 28.5 -64.5t26.5 -64.5q6 -14 -1 -14q-5 0 -15 17q-23 35 -47 81q-4 5 -8 -1q-23 -38 -55 -84q-5 -8 -10 -8q-2 0 -1 4.5t3 9.5l52 104q11 20 13 23q4 6 7 6zM180 369q25 0 46 -14.5t30 -40.5q9 -29 9 -88q0 -17 -2 -81.5t-2 -76.5q0 -40 39 -40
q14 0 30 9q3 2 5 1.5t2.5 -2.5t-1.5 -7q-8 -18 -27.5 -29t-42.5 -11q-18 0 -33.5 13t-22.5 32q-1 1 -2.5 1.5t-2.5 -0.5q-52 -45 -99 -45q-32 0 -55.5 24t-23.5 60q0 21 12.5 35t23.5 20q17 10 135 49q14 5 14 15q2 24 2 46q0 68 -25 86q-22 16 -43 16q-20 0 -42 -14
q-15 -13 -18 -27q-1 -4 -1 -15q0 -4 -4 -8q-7 -4 -22.5 -11t-18.5 -7q-8 0 -8 9q0 6 15 25q30 36 76 59q34 17 57 17zM144 25q31 0 50 17q10 10 13 26q5 28 5 93q0 1 -1.5 3.5t-2.5 1.5q-10 -1 -48.5 -15.5t-55.5 -22.5q-23 -13 -23 -49q0 -23 18.5 -38.5t44.5 -15.5z" />
    <glyph glyph-name="atilde" unicode="&#xe3;" horiz-adv-x="334" 
d="M119 507q1 0 31 -2q1 0 21 -2.5t30 -2.5q29 0 50 28q7 10 12 10q1 0 1.5 -1.5t-0.5 -5t-3 -6.5q-6 -8 -38 -48q-9 -12 -20 -12t-42 4t-39 4q-13 0 -19 -4.5t-22 -24.5q-8 -6 -10 -6q-1 0 -1.5 1t0.5 4.5t3 9.5q15 28 31 45q9 9 15 9zM180 369q25 0 46 -14.5t30 -40.5
q9 -29 9 -88q0 -17 -2 -81.5t-2 -76.5q0 -40 39 -40q14 0 30 9q3 2 5 1.5t2.5 -2.5t-1.5 -7q-8 -18 -27.5 -29t-42.5 -11q-18 0 -33.5 13t-22.5 32q-1 1 -2.5 1.5t-2.5 -0.5q-52 -45 -99 -45q-32 0 -55.5 24t-23.5 60q0 21 12.5 35t23.5 20q17 10 135 49q14 5 14 15
q2 24 2 46q0 68 -25 86q-22 16 -43 16q-20 0 -42 -14q-15 -13 -18 -27q-1 -4 -1 -15q0 -4 -4 -8q-7 -4 -22.5 -11t-18.5 -7q-8 0 -8 9q0 6 15 25q30 36 76 59q34 17 57 17zM144 25q31 0 50 17q10 10 13 26q5 28 5 93q0 1 -1.5 3.5t-2.5 1.5q-10 -1 -48.5 -15.5t-55.5 -22.5
q-23 -13 -23 -49q0 -23 18.5 -38.5t44.5 -15.5z" />
    <glyph glyph-name="adieresis" unicode="&#xe4;" horiz-adv-x="334" 
d="M100 536q12 0 20.5 -8.5t8.5 -19.5q0 -15 -10 -23.5t-23 -8.5q-9 0 -17 6.5t-8 20.5q0 12 8 22.5t21 10.5zM233 536q12 0 20.5 -9t8.5 -21q0 -11 -10 -20.5t-22 -9.5t-20 8.5t-8 21.5t9 21.5t22 8.5zM180 369q25 0 46 -14.5t30 -40.5q9 -29 9 -88q0 -17 -2 -81.5
t-2 -76.5q0 -40 39 -40q14 0 30 9q3 2 5 1.5t2.5 -2.5t-1.5 -7q-8 -18 -27.5 -29t-42.5 -11q-18 0 -33.5 13t-22.5 32q-1 1 -2.5 1.5t-2.5 -0.5q-52 -45 -99 -45q-32 0 -55.5 24t-23.5 60q0 21 12.5 35t23.5 20q17 10 135 49q14 5 14 15q2 24 2 46q0 68 -25 86
q-22 16 -43 16q-20 0 -42 -14q-15 -13 -18 -27q-1 -4 -1 -15q0 -4 -4 -8q-7 -4 -22.5 -11t-18.5 -7q-8 0 -8 9q0 6 15 25q30 36 76 59q34 17 57 17zM144 25q31 0 50 17q10 10 13 26q5 28 5 93q0 1 -1.5 3.5t-2.5 1.5q-10 -1 -48.5 -15.5t-55.5 -22.5q-23 -13 -23 -49
q0 -23 18.5 -38.5t44.5 -15.5z" />
    <glyph glyph-name="aring" unicode="&#xe5;" horiz-adv-x="334" 
d="M161 546q25 0 40.5 -16.5t15.5 -39.5t-15.5 -40t-40.5 -17t-40 17t-15 40t15 39.5t40 16.5zM161 528q-15 0 -26 -11t-11 -27q0 -18 11 -27.5t26 -9.5q16 0 26.5 9.5t10.5 29.5q0 15 -11 25.5t-26 10.5zM180 369q25 0 46 -14.5t30 -40.5q9 -29 9 -88q0 -17 -2 -81.5
t-2 -76.5q0 -40 39 -40q14 0 30 9q3 2 5 1.5t2.5 -2.5t-1.5 -7q-8 -18 -27.5 -29t-42.5 -11q-18 0 -33.5 13t-22.5 32q-1 1 -2.5 1.5t-2.5 -0.5q-52 -45 -99 -45q-32 0 -55.5 24t-23.5 60q0 21 12.5 35t23.5 20q17 10 135 49q14 5 14 15q2 24 2 46q0 68 -25 86
q-22 16 -43 16q-20 0 -42 -14q-15 -13 -18 -27q-1 -4 -1 -15q0 -4 -4 -8q-7 -4 -22.5 -11t-18.5 -7q-8 0 -8 9q0 6 15 25q30 36 76 59q34 17 57 17zM144 25q31 0 50 17q10 10 13 26q5 28 5 93q0 1 -1.5 3.5t-2.5 1.5q-10 -1 -48.5 -15.5t-55.5 -22.5q-23 -13 -23 -49
q0 -23 18.5 -38.5t44.5 -15.5z" />
    <glyph glyph-name="ae" unicode="&#xe6;" horiz-adv-x="469" 
d="M180 369q51 0 78 -61q1 -1 2.5 -1.5t2.5 0.5q21 24 51 41t57 17q41 0 66 -26q20 -22 20 -47q0 -14 -18 -20q-114 -49 -168 -66q-5 -1 -8 -13q-1 -10 -1 -65q2 -53 21 -75q29 -33 82 -33q40 0 77 31q9 7 13 7q7 0 -5 -15q-17 -20 -49 -37.5t-64 -17.5q-79 0 -116 60
q-3 2 -7 -2q-71 -56 -113 -56q-30 0 -52 22.5t-22 55.5q0 47 47 67q3 1 50 20.5t83 34.5q8 3 8 10v67q0 40 -24 59q-17 13 -46 13q-21 0 -37 -11q-25 -18 -25 -50q0 -3 -8 -7q-9 -5 -31 -10q-11 -2 -11 6q0 12 17 29q26 31 67 53q37 20 63 20zM131 27q33 0 60 19
q14 9 18 17.5t4 25.5v80q0 4 -1 5.5t-3 0.5q-63 -20 -98 -40q-19 -11 -24.5 -23t-5.5 -31q0 -25 16.5 -39.5t33.5 -14.5zM349 345q-25 0 -50 -21q-35 -28 -35 -99q0 -5 3 -6q1 0 2 1q51 16 111 44q24 9 24 33q0 48 -55 48z" />
    <glyph glyph-name="ccedilla" unicode="&#xe7;" horiz-adv-x="367" 
d="M240 369q54 0 89 -24q15 -8 15 -20q0 -10 -9 -19t-14 -9q-6 0 -16 10q-22 22 -54 38q-15 8 -38 8q-44 0 -84 -40t-40 -118q0 -89 53 -133q40 -35 96 -35q63 0 109 42q1 1 2 -1q1 -1 1 -2q0 -5 -7 -15q-26 -31 -73 -49q-34 -37 -37 -42q-6 -7 -3 -10q2 -1 10.5 -7t13 -10
t10.5 -11t9 -16.5t3 -21.5q0 -30 -27 -54t-55 -24q-18 0 -29.5 9t-11.5 20q0 6 7.5 12.5t15.5 6.5q7 0 16 -18q6 -13 22 -13q13 0 22.5 10.5t9.5 30.5q0 36 -48 53q-11 4 -11 8q0 3 4 7q5 6 61 64q-26 -7 -46 -7q-68 0 -120 49t-52 133q0 83 58 139q59 59 148 59z" />
    <glyph glyph-name="egrave" unicode="&#xe8;" horiz-adv-x="365" 
d="M160 558q6 0 11 -9q8 -24 48 -128q2 -5 1.5 -9.5t-2.5 -4.5q-3 0 -13 12q-2 2 -13 22t-27.5 48.5l-27.5 47.5q-7 12 -3 16q5 5 26 5zM214 369q44 0 82.5 -28t38.5 -72q0 -3 -3 -6t-6 -3q-2 0 -75.5 1.5t-85.5 1.5h-61q-4 0 -10 -9q-9 -18 -9 -60q0 -70 47 -122
q38 -43 105 -43q61 0 96 33q12 11 12 2q0 -6 -11 -17q-58 -58 -136 -58q-68 0 -116 51t-48 134q0 86 54 143q52 52 126 52zM205 355q-39 0 -80 -39q-20 -22 -20 -36q0 -4 3 -4l145 1q22 0 22 18q0 26 -14 40q-22 20 -56 20z" />
    <glyph glyph-name="eacute" unicode="&#xe9;" horiz-adv-x="365" 
d="M280 559q8 0 8 -5q0 -4 -3 -9q-70 -107 -85 -129q-6 -10 -12 -10q-5 0 0 11q1 2 30.5 64.5t30.5 64.5q11 12 31 13zM214 369q44 0 82.5 -28t38.5 -72q0 -3 -3 -6t-6 -3q-2 0 -75.5 1.5t-85.5 1.5h-61q-4 0 -10 -9q-9 -18 -9 -60q0 -70 47 -122q38 -43 105 -43q61 0 96 33
q12 11 12 2q0 -6 -11 -17q-58 -58 -136 -58q-68 0 -116 51t-48 134q0 86 54 143q52 52 126 52zM205 355q-39 0 -80 -39q-20 -22 -20 -36q0 -4 3 -4l145 1q22 0 22 18q0 26 -14 40q-22 20 -56 20z" />
    <glyph glyph-name="ecircumflex" unicode="&#xea;" horiz-adv-x="365" 
d="M208 558q2 0 7 -9q3 -5 28.5 -64.5t26.5 -64.5q6 -14 -1 -14q-5 0 -15 17q-23 35 -47 81q-4 5 -8 -1q-23 -38 -55 -84q-5 -8 -10 -8q-2 0 -1 4.5t3 9.5l52 104q11 20 13 23q4 6 7 6zM214 369q44 0 82.5 -28t38.5 -72q0 -3 -3 -6t-6 -3q-2 0 -75.5 1.5t-85.5 1.5h-61
q-4 0 -10 -9q-9 -18 -9 -60q0 -70 47 -122q38 -43 105 -43q61 0 96 33q12 11 12 2q0 -6 -11 -17q-58 -58 -136 -58q-68 0 -116 51t-48 134q0 86 54 143q52 52 126 52zM205 355q-39 0 -80 -39q-20 -22 -20 -36q0 -4 3 -4l145 1q22 0 22 18q0 26 -14 40q-22 20 -56 20z" />
    <glyph glyph-name="edieresis" unicode="&#xeb;" horiz-adv-x="365" 
d="M136 536q12 0 20.5 -8.5t8.5 -19.5q0 -15 -10 -23.5t-23 -8.5q-9 0 -17 6.5t-8 20.5q0 12 8 22.5t21 10.5zM269 536q12 0 20.5 -9t8.5 -21q0 -11 -10 -20.5t-22 -9.5t-20 8.5t-8 21.5t9 21.5t22 8.5zM214 369q44 0 82.5 -28t38.5 -72q0 -3 -3 -6t-6 -3q-2 0 -75.5 1.5
t-85.5 1.5h-61q-4 0 -10 -9q-9 -18 -9 -60q0 -70 47 -122q38 -43 105 -43q61 0 96 33q12 11 12 2q0 -6 -11 -17q-58 -58 -136 -58q-68 0 -116 51t-48 134q0 86 54 143q52 52 126 52zM205 355q-39 0 -80 -39q-20 -22 -20 -36q0 -4 3 -4l145 1q22 0 22 18q0 26 -14 40
q-22 20 -56 20z" />
    <glyph glyph-name="igrave" unicode="&#xec;" horiz-adv-x="190" 
d="M50 558q6 0 11 -9q8 -24 48 -128q2 -5 1.5 -9.5t-2.5 -4.5q-3 0 -13 12q-2 2 -13 22t-27.5 48.5l-27.5 47.5q-7 12 -3 16q5 5 26 5zM36 333q0 5 10 8q33 10 61 24q13 7 16 7q5 0 4 -14q-2 -19 -2 -158q0 -144 2 -161q1 -10 5.5 -16t9 -8t13.5 -4q15 -3 15 -8q0 -7 -16 -7
q-1 0 -29 2t-40 2q-16 0 -33 -1t-20 -1q-12 0 -12 6q0 5 19 9q17 4 24 14.5t8 40.5q3 90 3 226q0 9 -5.5 15.5t-25.5 16.5q-7 3 -7 7z" />
    <glyph glyph-name="iacute" unicode="&#xed;" horiz-adv-x="190" 
d="M181 559q8 0 8 -5q0 -4 -3 -9q-70 -107 -85 -129q-6 -10 -12 -10q-5 0 0 11q1 2 30.5 64.5t30.5 64.5q12 12 31 13zM36 333q0 5 10 8q33 10 61 24q13 7 16 7q5 0 4 -14q-2 -19 -2 -158q0 -144 2 -161q1 -10 5.5 -16t9 -8t13.5 -4q15 -3 15 -8q0 -7 -16 -7q-1 0 -29 2
t-40 2q-16 0 -33 -1t-20 -1q-12 0 -12 6q0 5 19 9q17 4 24 14.5t8 40.5q3 90 3 226q0 9 -5.5 15.5t-25.5 16.5q-7 3 -7 7z" />
    <glyph glyph-name="icircumflex" unicode="&#xee;" horiz-adv-x="190" 
d="M100 558q2 0 7 -9q3 -5 28.5 -64.5t26.5 -64.5q6 -14 -1 -14q-5 0 -15 17q-23 35 -47 81q-4 5 -8 -1q-23 -38 -55 -84q-5 -8 -10 -8q-2 0 -1 4.5t3 9.5l52 104q11 20 13 23q4 6 7 6zM36 333q0 5 10 8q33 10 61 24q13 7 16 7q5 0 4 -14q-2 -19 -2 -158q0 -144 2 -161
q1 -10 5.5 -16t9 -8t13.5 -4q15 -3 15 -8q0 -7 -16 -7q-1 0 -29 2t-40 2q-16 0 -33 -1t-20 -1q-12 0 -12 6q0 5 19 9q17 4 24 14.5t8 40.5q3 90 3 226q0 9 -5.5 15.5t-25.5 16.5q-7 3 -7 7z" />
    <glyph glyph-name="idieresis" unicode="&#xef;" horiz-adv-x="190" 
d="M28 536q12 0 20.5 -8.5t8.5 -19.5q0 -15 -10 -23.5t-23 -8.5q-9 0 -17 6.5t-8 20.5q0 12 8 22.5t21 10.5zM161 536q12 0 20.5 -9t8.5 -21q0 -11 -10 -20.5t-22 -9.5t-20 8.5t-8 21.5t9 21.5t22 8.5zM36 333q0 5 10 8q33 10 61 24q13 7 16 7q5 0 4 -14q-2 -19 -2 -158
q0 -144 2 -161q1 -10 5.5 -16t9 -8t13.5 -4q15 -3 15 -8q0 -7 -16 -7q-1 0 -29 2t-40 2q-16 0 -33 -1t-20 -1q-12 0 -12 6q0 5 19 9q17 4 24 14.5t8 40.5q3 90 3 226q0 9 -5.5 15.5t-25.5 16.5q-7 3 -7 7z" />
    <glyph glyph-name="eth" unicode="&#xf0;" horiz-adv-x="434" 
d="M215 353q-53 0 -89 -50q-33 -50 -33 -129q0 -81 46 -131q36 -40 83 -40q48 0 80 50q40 62 40 146q0 79 -21 103q-48 51 -106 51zM79 692q0 4 15 4q36 -2 90.5 -32t96.5 -74h5q12 7 31 18t32.5 19t20.5 11q2 1 6 -1t4 -7q0 -3 -14 -12q-22 -14 -68 -41q-4 -2 0 -6
q100 -132 100 -318q0 -172 -89 -234q-45 -31 -94 -31q-78 0 -129.5 55t-51.5 132q0 64 35 113q26 36 70 58.5t96 22.5q51 0 97 -32q2 -1 3.5 -0.5t1.5 2.5q-4 52 -25 112t-49 102q-1 1 -3.5 1.5t-3.5 -0.5q-81 -45 -91 -50q-3 -2 -6.5 2t-3.5 6t3 5q12 7 41.5 24t48.5 29
q3 2 0 5q-30 38 -73 67.5t-86 41.5q-10 4 -10 8z" />
    <glyph glyph-name="ntilde" unicode="&#xf1;" horiz-adv-x="434" 
d="M176 507q1 0 31 -2q1 0 21 -2.5t30 -2.5q29 0 50 28q7 10 12 10q1 0 1.5 -1.5t-0.5 -5t-3 -6.5q-6 -8 -38 -48q-9 -12 -20 -12t-41.5 4t-39.5 4q-13 0 -19 -4.5t-22 -24.5q-8 -6 -10 -6q-1 0 -1.5 1t0.5 4.5t3 9.5q15 28 31 45q9 9 15 9zM263 369q47 0 77 -35
q28 -31 30 -133q0 -25 0.5 -53.5t0.5 -51.5q1 -53 5.5 -65.5t24.5 -17.5q17 -6 17 -10q0 -7 -19 -7q-3 0 -25 2t-35 2t-29 -2t-24 -2q-16 0 -16 6q0 7 22 11q16 4 21 12t5 32v131q0 61 -7 87t-26 41q-26 21 -61 21q-44 0 -89 -38q-12 -12 -12 -34q0 -62 1 -125q1 -59 6 -97
q3 -24 33 -31q17 -4 17 -10t-20 -6q-2 0 -32.5 2t-43.5 2q-6 0 -23 -1t-24 -1q-18 0 -18 7q0 5 22 10q18 4 23 9.5t6 20.5q2 78 2 248q0 22 -27 35q-8 5 -8 9q0 2 14 8q40 12 67 30q2 2 5 -1t2 -7q-3 -37 -2 -54q0 -6 5 -3q49 36 75 47q25 12 60 12z" />
    <glyph glyph-name="ograve" unicode="&#xf2;" horiz-adv-x="446" 
d="M178 558q6 0 11 -9q8 -24 48 -128q2 -5 1.5 -9.5t-2.5 -4.5q-3 0 -13 12q-2 2 -13 22t-27.5 48.5l-27.5 47.5q-7 12 -3 16q5 5 26 5zM223 369q79 0 134 -54.5t55 -134.5q0 -51 -23.5 -90.5t-53.5 -63.5q-50 -38 -110 -38q-75 0 -133 53.5t-58 129.5q0 99 73 157
q51 41 116 41zM205 352q-45 0 -79.5 -42t-34.5 -119q0 -78 47 -134q42 -52 101 -52q39 0 71 27q16 13 30.5 49t14.5 84q0 71 -41 129t-109 58z" />
    <glyph glyph-name="oacute" unicode="&#xf3;" horiz-adv-x="446" 
d="M287 559q8 0 8 -5q0 -4 -3 -9q-70 -107 -85 -129q-6 -10 -12 -10q-5 0 0 11q1 2 30.5 64.5t30.5 64.5q12 12 31 13zM223 369q79 0 134 -54.5t55 -134.5q0 -51 -23.5 -90.5t-53.5 -63.5q-50 -38 -110 -38q-75 0 -133 53.5t-58 129.5q0 99 73 157q51 41 116 41zM205 352
q-45 0 -79.5 -42t-34.5 -119q0 -78 47 -134q42 -52 101 -52q39 0 71 27q16 13 30.5 49t14.5 84q0 71 -41 129t-109 58z" />
    <glyph glyph-name="ocircumflex" unicode="&#xf4;" horiz-adv-x="446" 
d="M228 558q2 0 7 -9q3 -5 28.5 -64.5t26.5 -64.5q6 -14 -1 -14q-5 0 -15 17q-23 35 -47 81q-4 5 -8 -1q-23 -38 -55 -84q-5 -8 -10 -8q-2 0 -1 4.5t3 9.5l52 104q11 20 13 23q4 6 7 6zM223 369q79 0 134 -54.5t55 -134.5q0 -51 -23.5 -90.5t-53.5 -63.5q-50 -38 -110 -38
q-75 0 -133 53.5t-58 129.5q0 99 73 157q51 41 116 41zM205 352q-45 0 -79.5 -42t-34.5 -119q0 -78 47 -134q42 -52 101 -52q39 0 71 27q16 13 30.5 49t14.5 84q0 71 -41 129t-109 58z" />
    <glyph glyph-name="otilde" unicode="&#xf5;" horiz-adv-x="446" 
d="M175 498q1 0 31 -2q1 0 21 -2.5t30 -2.5q29 0 50 28q7 10 12 10q1 0 1.5 -1.5t-0.5 -5t-3 -6.5q-6 -8 -38 -48q-9 -12 -20 -12t-42 4t-39 4q-13 0 -19 -4.5t-22 -24.5q-7 -6 -10 -6q-1 0 -1.5 1t0.5 4.5t3 9.5q15 28 31 45q9 9 15 9zM223 369q79 0 134 -54.5t55 -134.5
q0 -51 -23.5 -90.5t-53.5 -63.5q-50 -38 -110 -38q-75 0 -133 53.5t-58 129.5q0 99 73 157q51 41 116 41zM205 352q-45 0 -79.5 -42t-34.5 -119q0 -78 47 -134q42 -52 101 -52q39 0 71 27q16 13 30.5 49t14.5 84q0 71 -41 129t-109 58z" />
    <glyph glyph-name="odieresis" unicode="&#xf6;" horiz-adv-x="446" 
d="M156 536q12 0 20.5 -8.5t8.5 -19.5q0 -15 -10 -23.5t-23 -8.5q-9 0 -17 6.5t-8 20.5q0 12 8 22.5t21 10.5zM289 536q12 0 20.5 -9t8.5 -21q0 -11 -10 -20.5t-22 -9.5t-20 8.5t-8 21.5t9 21.5t22 8.5zM223 369q79 0 134 -54.5t55 -134.5q0 -51 -23.5 -90.5t-53.5 -63.5
q-50 -38 -110 -38q-75 0 -133 53.5t-58 129.5q0 99 73 157q51 41 116 41zM205 352q-45 0 -79.5 -42t-34.5 -119q0 -78 47 -134q42 -52 101 -52q39 0 71 27q16 13 30.5 49t14.5 84q0 71 -41 129t-109 58z" />
    <glyph glyph-name="divide" unicode="&#xf7;" horiz-adv-x="410" 
d="M204 103q11 0 18 -8t7 -18q0 -28 -25 -28q-26 0 -26 28q0 10 7 18t19 8zM204 272q-10 0 -18 7t-8 19q0 11 8 19t18 8q12 0 19 -7.5t7 -19.5q0 -26 -26 -26zM369 203q4 0 4 -8q0 -19 -8 -19h-322q-6 0 -6 6q0 20 11 20q214 2 321 1z" />
    <glyph glyph-name="oslash" unicode="&#xf8;" horiz-adv-x="446" 
d="M223 369q55 0 102 -29q3 -1 5 1l22 29q8 9 11 9q2 0 4 -4.5t1 -6.5q-10 -14 -26 -36q-1 -3 1 -5q69 -59 69 -147q0 -51 -23.5 -90.5t-53.5 -63.5q-50 -38 -110 -38q-62 0 -107 32q-2 2 -5 -1q-5 -5 -12 -14.5t-10 -12.5q-10 -11 -15 -11q-4 0 -4 5.5t3 9.5l27 35
q1 2 -1 4q-67 55 -67 136q0 96 72 154q55 44 117 44zM142 50q42 -45 97 -45q39 0 71 27q16 13 30.5 49t14.5 84q0 73 -37 126q-2 4 -5 0q-32 -41 -89.5 -120t-83.5 -113q-2 -4 2 -8zM205 352q-45 0 -79.5 -42t-34.5 -119q0 -67 33 -117q4 -6 7 -2q28 36 85.5 115t85.5 116
q4 3 0 7q-40 42 -97 42z" />
    <glyph glyph-name="ugrave" unicode="&#xf9;" horiz-adv-x="425" 
d="M157 559q7 0 11 -9q8 -24 48 -128q2 -4 1.5 -9t-2.5 -5q-3 0 -13 12q-2 2 -13 22t-27.5 48.5l-27.5 47.5q-7 12 -3 16q5 5 26 5zM173 -9q-62 0 -90 36q-18 22 -18 57q0 206 -2 223q-1 18 -22 32q-12 9 -12 13q0 5 17 5q31 0 70 13q2 1 4 -3t1 -8q-7 -104 -4 -239
q1 -48 16 -68q21 -26 58 -26q57 0 97 37q19 17 20 50q2 25 2 99q0 7 -0.5 38.5t-0.5 46.5q0 24 -9.5 32t-37.5 14q-15 3 -15 8q0 6 14 6h38q27 0 45 2t19 2q4 0 3 -11q-7 -71 -7 -266q0 -38 2 -48q1 -8 3.5 -10t9.5 -1q33 10 44 10t11 -10q0 -5 -18 -8q-12 -1 -43.5 -9
t-50.5 -17q-8 -4 -11 0q-3 5 -3 20q0 5 1 21t1 19t-1 6t-3 1q-44 -40 -72 -52q-36 -15 -56 -15z" />
    <glyph glyph-name="uacute" unicode="&#xfa;" horiz-adv-x="425" 
d="M284 559q8 0 8 -5q0 -4 -3 -9q-70 -107 -85 -129q-6 -10 -12 -10q-5 0 0 11q1 2 30.5 64.5t30.5 64.5q11 12 31 13zM173 -9q-62 0 -90 36q-18 22 -18 57q0 206 -2 223q-1 18 -22 32q-12 9 -12 13q0 5 17 5q31 0 70 13q2 1 4 -3t1 -8q-7 -104 -4 -239q1 -48 16 -68
q21 -26 58 -26q57 0 97 37q19 17 20 50q2 25 2 99q0 7 -0.5 38.5t-0.5 46.5q0 24 -9.5 32t-37.5 14q-15 3 -15 8q0 6 14 6h38q27 0 45 2t19 2q4 0 3 -11q-7 -71 -7 -266q0 -38 2 -48q1 -8 3.5 -10t9.5 -1q33 10 44 10t11 -10q0 -5 -18 -8q-12 -1 -43.5 -9t-50.5 -17
q-8 -4 -11 0q-3 5 -3 20q0 5 1 21t1 19t-1 6t-3 1q-44 -40 -72 -52q-36 -15 -56 -15z" />
    <glyph glyph-name="ucircumflex" unicode="&#xfb;" horiz-adv-x="425" 
d="M217 558q3 0 7 -9q3 -5 28.5 -64.5t26.5 -64.5q6 -14 -1 -14q-5 0 -15 17q-23 35 -47 81q-4 5 -8 -1q-23 -38 -55 -84q-5 -8 -10 -8q-2 0 -1 4.5t3 9.5l52 104q11 20 13 23q4 6 7 6zM173 -9q-62 0 -90 36q-18 22 -18 57q0 206 -2 223q-1 18 -22 32q-12 9 -12 13q0 5 17 5
q31 0 70 13q2 1 4 -3t1 -8q-7 -104 -4 -239q1 -48 16 -68q21 -26 58 -26q57 0 97 37q19 17 20 50q2 25 2 99q0 7 -0.5 38.5t-0.5 46.5q0 24 -9.5 32t-37.5 14q-15 3 -15 8q0 6 14 6h38q27 0 45 2t19 2q4 0 3 -11q-7 -71 -7 -266q0 -38 2 -48q1 -8 3.5 -10t9.5 -1
q33 10 44 10t11 -10q0 -5 -18 -8q-12 -1 -43.5 -9t-50.5 -17q-8 -4 -11 0q-3 5 -3 20q0 5 1 21t1 19t-1 6t-3 1q-44 -40 -72 -52q-36 -15 -56 -15z" />
    <glyph glyph-name="udieresis" unicode="&#xfc;" horiz-adv-x="425" 
d="M145 536q12 0 20.5 -8.5t8.5 -19.5q0 -15 -10 -23.5t-23 -8.5q-9 0 -17 6.5t-8 20.5q0 12 8 22.5t21 10.5zM278 536q12 0 20.5 -9t8.5 -21q0 -11 -10 -20.5t-22 -9.5t-20 8.5t-8 21.5t9 21.5t22 8.5zM173 -9q-62 0 -90 36q-18 22 -18 57q0 206 -2 223q-1 18 -22 32
q-12 9 -12 13q0 5 17 5q31 0 70 13q2 1 4 -3t1 -8q-7 -104 -4 -239q1 -48 16 -68q21 -26 58 -26q57 0 97 37q19 17 20 50q2 25 2 99q0 7 -0.5 38.5t-0.5 46.5q0 24 -9.5 32t-37.5 14q-15 3 -15 8q0 6 14 6h38q27 0 45 2t19 2q4 0 3 -11q-7 -71 -7 -266q0 -38 2 -48
q1 -8 3.5 -10t9.5 -1q33 10 44 10t11 -10q0 -5 -18 -8q-12 -1 -43.5 -9t-50.5 -17q-8 -4 -11 0q-3 5 -3 20q0 5 1 21t1 19t-1 6t-3 1q-44 -40 -72 -52q-36 -15 -56 -15z" />
    <glyph glyph-name="yacute" unicode="&#xfd;" horiz-adv-x="352" 
d="M276 556q8 0 8 -5t-3 -9q-70 -107 -85 -129q-6 -10 -12 -10q-5 0 0 11q1 2 30.5 64.5t30.5 64.5q11 11 31 13zM66 357q8 0 25.5 1t20.5 1q17 2 17 -6q0 -6 -13 -8q-18 -5 -20 -12.5t6 -29.5q10 -26 44.5 -109t48.5 -113q1 -1 2.5 -1t2.5 2q4 12 41 107t41 105q6 15 6 32
q0 14 -21 19q-18 4 -18 9q0 6 12 6q6 0 22.5 -1.5t24.5 -1.5t22 1.5t23 1.5q12 0 12 -4q0 -5 -14 -9q-15 -5 -24 -15t-21 -36q-9 -18 -87 -216q-6 -16 -18.5 -49t-22.5 -60q-13 -33 -42.5 -113.5t-33.5 -89.5q-10 -25 -19 -36q-12 -17 -32 -17q-12 0 -22 8t-10 22
q0 9 8.5 17.5t16.5 8.5q4 0 9 -1t9 -1q19 0 27 19q4 9 15 38.5t28.5 77t31.5 84.5q7 20 -1 34q-1 2 -22 55t-50.5 124.5t-48.5 114.5q-11 22 -37 28q-18 4 -18 9q0 7 15 7q3 0 28.5 -1.5t35.5 -1.5z" />
    <glyph glyph-name="thorn" unicode="&#xfe;" horiz-adv-x="432" 
d="M231 13q30 0 54 21q61 50 61 148q0 32 -12.5 65t-32.5 52q-38 36 -85 36q-55 0 -83 -20q-11 -7 -13 -25q-2 -17 -2 -101.5t2 -98.5q1 -9 6 -23q12 -26 42 -40t63 -14zM23 665q0 6 21 9q30 4 58 17q9 4 15 4q4 0 3 -20q0 -5 -2 -175q-1 -142 1 -173q0 -2 1.5 -3.5t3.5 0.5
q61 45 126 45q29 0 58.5 -14t47.5 -34q42 -48 42 -117q0 -136 -129 -198q-34 -16 -74 -16q-42 0 -67 10q-3 1 -4.5 -3t-2.5 -10q-7 -29 -1 -168q2 -57 9 -70q8 -15 50 -22q14 -3 14 -8q0 -7 -18 -7q-5 0 -33.5 2t-47.5 2t-45.5 -3.5t-29.5 -3.5q-18 0 -18 6t21 10
q26 7 34 17.5t10 30.5q2 36 2 127q0 41 -1.5 196.5t-1.5 162.5q0 314 -3 356q-1 16 -5.5 22t-21.5 17q-12 8 -12 11z" />
    <glyph glyph-name="ydieresis" unicode="&#xff;" horiz-adv-x="352" 
d="M119 536q12 0 20.5 -8.5t8.5 -19.5q0 -15 -10 -23.5t-23 -8.5q-9 0 -17 6.5t-8 20.5q0 12 8 22.5t21 10.5zM252 536q12 0 20.5 -9t8.5 -21q0 -11 -10 -20.5t-22 -9.5t-20 8.5t-8 21.5t9 21.5t22 8.5zM66 357q8 0 25.5 1t20.5 1q17 2 17 -6q0 -6 -13 -8q-18 -5 -20 -12.5
t6 -29.5q10 -26 44.5 -109t48.5 -113q1 -1 2.5 -1t2.5 2q4 12 41 107t41 105q6 15 6 32q0 14 -21 19q-18 4 -18 9q0 6 12 6q6 0 22.5 -1.5t24.5 -1.5t22 1.5t23 1.5q12 0 12 -4q0 -5 -14 -9q-15 -5 -24 -15t-21 -36q-9 -18 -87 -216q-6 -16 -18.5 -49t-22.5 -60
q-13 -33 -42.5 -113.5t-33.5 -89.5q-10 -25 -19 -36q-12 -17 -32 -17q-12 0 -22 8t-10 22q0 9 8.5 17.5t16.5 8.5q4 0 9 -1t9 -1q19 0 27 19q4 9 15 38.5t28.5 77t31.5 84.5q7 20 -1 34q-1 2 -22 55t-50.5 124.5t-48.5 114.5q-11 22 -37 28q-18 4 -18 9q0 7 15 7
q3 0 28.5 -1.5t35.5 -1.5z" />
    <glyph glyph-name="Amacron" unicode="&#x100;" horiz-adv-x="646" 
d="M333 646q4 0 7 -8q4 -26 28 -86q83 -223 186 -462q19 -45 30 -58.5t31 -18.5q17 -3 17 -9q0 -7 -18 -7q-3 0 -26 1.5t-55 1.5q-14 0 -47 -2t-43 -2q-16 0 -16 7t19 9q21 3 32 11t12.5 15t1.5 19q0 10 -73 201q-6 12 -12 12q-22 -2 -106.5 -2.5t-89.5 -0.5t-14 -20
q-31 -69 -55 -150q-16 -54 0 -70q9 -9 41 -16q15 -3 15 -9q0 -7 -19 -7q-7 0 -42.5 2.5t-56.5 2.5q-13 0 -33 -2.5t-30 -2.5q-17 0 -17 7q0 5 20 9q34 7 48 22t43 79q28 60 179 434q6 16 6 29q0 8 3 11q25 29 28 50q3 10 6 10zM397 301v1v4.5v4.5q-32 91 -86 220q-3 8 -8 -3
q-44 -106 -82 -221q-3 0 0 -7q1 -2 3 -2q16 -1 80 -1q81 0 93 4zM252 709q57 3 165 3q5 0 5 -7q0 -9 -5 -19q-3 -4 -5 -4q-40 -4 -166 -4q-5 0 -5 9q0 10 5 18q4 4 6 4z" />
    <glyph glyph-name="amacron" unicode="&#x101;" horiz-adv-x="334" 
d="M88 500q57 3 145 3q5 0 5 -7q0 -9 -5 -19q-3 -4 -5 -4q-40 -4 -146 -4q-5 0 -5 9q0 10 5 18q4 4 6 4zM180 369q25 0 46 -14.5t30 -40.5q9 -29 9 -88q0 -17 -2 -81.5t-2 -76.5q0 -40 39 -40q14 0 30 9q3 2 5 1.5t2.5 -2.5t-1.5 -7q-8 -18 -27.5 -29t-42.5 -11
q-18 0 -33.5 13t-22.5 32q-1 1 -2.5 1.5t-2.5 -0.5q-52 -45 -99 -45q-32 0 -55.5 24t-23.5 60q0 21 12.5 35t23.5 20q17 10 135 49q14 5 14 15q2 24 2 46q0 68 -25 86q-22 16 -43 16q-20 0 -42 -14q-15 -13 -18 -27q-1 -4 -1 -15q0 -4 -4 -8q-7 -4 -22.5 -11t-18.5 -7
q-8 0 -8 9q0 6 15 25q30 36 76 59q34 17 57 17zM144 25q31 0 50 17q10 10 13 26q5 28 5 93q0 1 -1.5 3.5t-2.5 1.5q-10 -1 -48.5 -15.5t-55.5 -22.5q-23 -13 -23 -49q0 -23 18.5 -38.5t44.5 -15.5z" />
    <glyph glyph-name="Abreve" unicode="&#x102;" horiz-adv-x="646" 
d="M333 646q4 0 7 -8q4 -26 28 -86q83 -223 186 -462q19 -45 30 -58.5t31 -18.5q17 -3 17 -9q0 -7 -18 -7q-3 0 -26 1.5t-55 1.5q-14 0 -47 -2t-43 -2q-16 0 -16 7t19 9q21 3 32 11t12.5 15t1.5 19q0 10 -73 201q-6 12 -12 12q-22 -2 -106.5 -2.5t-89.5 -0.5t-14 -20
q-31 -69 -55 -150q-16 -54 0 -70q9 -9 41 -16q15 -3 15 -9q0 -7 -19 -7q-7 0 -42.5 2.5t-56.5 2.5q-13 0 -33 -2.5t-30 -2.5q-17 0 -17 7q0 5 20 9q34 7 48 22t43 79q28 60 179 434q6 16 6 29q0 8 3 11q25 29 28 50q3 10 6 10zM397 301v1v4.5v4.5q-32 91 -86 220q-3 8 -8 -3
q-44 -106 -82 -221q-3 0 0 -7q1 -2 3 -2q16 -1 80 -1q81 0 93 4zM331 670q-79 0 -89 72q-1 4 0 9.5t4 5.5t7 -10q16 -41 78 -41q60 0 81 38q5 10 8 10q4 0 4 -8q-2 -25 -26.5 -50.5t-66.5 -25.5z" />
    <glyph glyph-name="abreve" unicode="&#x103;" horiz-adv-x="334" 
d="M153 438q-31 0 -49 22.5t-19 62.5q0 15 5 15q6 0 9 -15q9 -50 54 -50q54 0 65 52q3 10 7 10t4 -13q-1 -29 -19.5 -56.5t-56.5 -27.5zM180 369q25 0 46 -14.5t30 -40.5q9 -29 9 -88q0 -17 -2 -81.5t-2 -76.5q0 -40 39 -40q14 0 30 9q3 2 5 1.5t2.5 -2.5t-1.5 -7
q-8 -18 -27.5 -29t-42.5 -11q-18 0 -33.5 13t-22.5 32q-1 1 -2.5 1.5t-2.5 -0.5q-52 -45 -99 -45q-32 0 -55.5 24t-23.5 60q0 21 12.5 35t23.5 20q17 10 135 49q14 5 14 15q2 24 2 46q0 68 -25 86q-22 16 -43 16q-20 0 -42 -14q-15 -13 -18 -27q-1 -4 -1 -15q0 -4 -4 -8
q-7 -4 -22.5 -11t-18.5 -7q-8 0 -8 9q0 6 15 25q30 36 76 59q34 17 57 17zM144 25q31 0 50 17q10 10 13 26q5 28 5 93q0 1 -1.5 3.5t-2.5 1.5q-10 -1 -48.5 -15.5t-55.5 -22.5q-23 -13 -23 -49q0 -23 18.5 -38.5t44.5 -15.5z" />
    <glyph glyph-name="Aogonek" unicode="&#x104;" horiz-adv-x="646" 
d="M333 646q4 0 7 -8q4 -26 28 -86q83 -223 186 -462q19 -45 31 -57.5t41 -19.5q17 -3 17 -9q0 -7 -18 -7q-2 0 -36 2q-35 -26 -58 -59.5t-23 -61.5q0 -19 13 -28.5t29 -9.5q22 0 43 13q8 5 8 -1q0 -5 -8 -16q-31 -38 -72 -38q-22 0 -39 15t-17 45q0 33 32 73t79 69h-43
q-14 0 -47 -2t-43 -2q-16 0 -16 7t19 9q21 3 32 11t12.5 15t1.5 19q0 10 -73 201q-6 12 -12 12q-22 -2 -106.5 -2.5t-89.5 -0.5t-14 -20q-29 -58 -56 -149q-16 -56 -2 -70q11 -11 44 -17q15 -3 15 -9q0 -7 -19 -7q-7 0 -42.5 2.5t-56.5 2.5q-13 0 -33 -2.5t-30 -2.5
q-17 0 -17 7q0 5 20 9q34 7 48 22t43 79q28 60 179 434q6 16 6 29q0 8 3 11q25 29 28 50q3 10 6 10zM395 302l1 2q0 1 0.5 3t0.5 4q-41 114 -83 216q-3 8 -8 -3q-40 -87 -83 -217q-3 0 0 -6q1 -3 3 -3q8 -1 78 -1q76 0 91 5z" />
    <glyph glyph-name="aogonek" unicode="&#x105;" horiz-adv-x="334" 
d="M180 369q54 0 76 -59q9 -24 9 -66q0 -17 -2 -86t-2 -81q0 -49 39 -49q14 0 30 9q3 2 5 1.5t2.5 -2.5t-1.5 -7q-10 -19 -28 -29q-77 -69 -77 -122q0 -19 12.5 -29t28.5 -10q23 0 43 14q9 7 9 0q0 -5 -9 -17q-12 -14 -32 -25.5t-37 -11.5q-22 0 -39 14.5t-17 44.5
q0 52 95 134q-9 -3 -19 -3q-18 0 -33 12.5t-22 31.5q-1 1 -2.5 1.5t-2.5 -0.5q-64 -44 -100 -44q-32 0 -55.5 23.5t-23.5 59.5q0 41 44 57q63 27 127 48q14 5 14 15q2 24 2 46q0 70 -26 88q-19 12 -42 12q-22 0 -43 -14q-19 -17 -19 -43q0 -4 -4 -8q-15 -10 -33 -13
q-14 -2 -14 6t14 26q30 36 76 59q33 17 57 17zM144 25q31 0 51 17q9 7 12 26q4 23 4 93q0 1 -1.5 3.5t-2.5 1.5q-41 -11 -97 -40q-28 -14 -28 -46q0 -23 18 -39t44 -16z" />
    <glyph glyph-name="Cacute" unicode="&#x106;" horiz-adv-x="642" 
d="M385 649q55 0 111.5 -17.5t87.5 -35.5q9 -6 9 -16q-1 -15 -0.5 -27.5t1.5 -28.5t1 -19q0 -16 -6 -16q-5 0 -9 13q-12 51 -47 80q-55 52 -156 52q-106 0 -186 -84q-30 -33 -52 -96t-22 -133q0 -68 27.5 -134.5t67.5 -109.5q35 -37 83.5 -55.5t93.5 -18.5q77 0 121 27
q56 33 78 100q5 18 10 18q6 0 6 -15q0 -8 -3 -25t-7 -35.5t-4 -21.5q-2 -6 -8 -11q-99 -58 -197 -58q-149 0 -256 109q-32 33 -57.5 96t-25.5 123q0 155 113 257q40 36 101 59t125 23zM439 771q12 9 22 5q18 -6 18 -15q0 -4 -19 -17q-55 -37 -103 -62q-18 -9 -18 -2q0 3 6 9
q67 62 94 82z" />
    <glyph glyph-name="cacute" unicode="&#x107;" horiz-adv-x="367" 
d="M291 559q8 0 8 -5q0 -4 -3 -9q-70 -107 -85 -129q-6 -10 -12 -10q-5 0 0 11q1 2 30.5 64.5t30.5 64.5q12 12 31 13zM213 353q-44 0 -84 -40t-40 -118q0 -89 53 -133q40 -35 96 -35q34 0 57 8t49 32q1 1 3.5 1t2.5 -2q0 -7 -7 -15q-53 -62 -137 -62q-71 0 -121 48
q-51 49 -51 134q0 83 58 139q59 59 148 59q54 0 89 -24q15 -8 15 -20q0 -10 -9 -19t-14 -9q-6 0 -16 10q-22 22 -54 38q-15 8 -38 8z" />
    <glyph glyph-name="Ccircumflex" unicode="&#x108;" horiz-adv-x="642" 
d="M385 649q55 0 111.5 -17.5t87.5 -35.5q9 -6 9 -16q-1 -15 -0.5 -27.5t1.5 -28.5t1 -19q0 -16 -6 -16q-5 0 -9 13q-12 51 -47 80q-55 52 -156 52q-106 0 -186 -84q-30 -33 -52 -96t-22 -133q0 -68 27.5 -134.5t67.5 -109.5q35 -37 83.5 -55.5t93.5 -18.5q77 0 121 27
q56 33 78 100q5 18 10 18q6 0 6 -15q0 -8 -3 -25t-7 -35.5t-4 -21.5q-2 -6 -8 -11q-99 -58 -197 -58q-149 0 -256 109q-32 33 -57.5 96t-25.5 123q0 155 113 257q40 36 101 59t125 23zM372 782q8 0 20 -16q17 -21 79 -80q4 -5 2.5 -6.5t-5.5 -0.5q-25 7 -95 59q-3 2 -10 -1
q-70 -50 -93 -59q-6 -1 -8 0t4 7q41 34 86 83q12 14 20 14z" />
    <glyph glyph-name="ccircumflex" unicode="&#x109;" horiz-adv-x="367" 
d="M226 558q2 0 7 -9q3 -5 28.5 -64.5t26.5 -64.5q6 -14 -1 -14q-5 0 -15 17q-23 35 -47 81q-4 5 -8 -1q-23 -38 -55 -84q-5 -8 -10 -8q-2 0 -1 4.5t3 9.5l52 104q11 20 13 23q4 6 7 6zM213 353q-44 0 -84 -40t-40 -118q0 -89 53 -133q40 -35 96 -35q34 0 57 8t49 32
q1 1 3.5 1t2.5 -2q0 -7 -7 -15q-53 -62 -137 -62q-71 0 -121 48q-51 49 -51 134q0 83 58 139q59 59 148 59q54 0 89 -24q15 -8 15 -20q0 -10 -9 -19t-14 -9q-6 0 -16 10q-22 22 -54 38q-15 8 -38 8z" />
    <glyph glyph-name="Cdotaccent" unicode="&#x10a;" horiz-adv-x="642" 
d="M385 649q55 0 111.5 -17.5t87.5 -35.5q9 -6 9 -16q-1 -15 -0.5 -27.5t1.5 -28.5t1 -19q0 -16 -6 -16q-5 0 -9 13q-12 51 -47 80q-55 52 -156 52q-106 0 -186 -84q-30 -33 -52 -96t-22 -133q0 -68 27.5 -134.5t67.5 -109.5q35 -37 83.5 -55.5t93.5 -18.5q77 0 121 27
q56 33 78 100q5 18 10 18q6 0 6 -15q0 -8 -3 -25t-7 -35.5t-4 -21.5q-2 -6 -8 -11q-99 -58 -197 -58q-149 0 -256 109q-32 33 -57.5 96t-25.5 123q0 155 113 257q40 36 101 59t125 23zM372 753q30 0 30 -33q0 -16 -10 -24.5t-22 -8.5t-20.5 8.5t-8.5 23.5q0 17 9.5 25.5
t21.5 8.5z" />
    <glyph glyph-name="cdotaccent" unicode="&#x10b;" horiz-adv-x="367" 
d="M221 539q30 0 30 -33q0 -16 -10 -24.5t-22 -8.5t-20.5 8.5t-8.5 23.5q0 17 9.5 25.5t21.5 8.5zM213 353q-44 0 -84 -40t-40 -118q0 -89 53 -133q40 -35 96 -35q34 0 57 8t49 32q1 1 3.5 1t2.5 -2q0 -7 -7 -15q-53 -62 -137 -62q-71 0 -121 48q-51 49 -51 134q0 83 58 139
q59 59 148 59q54 0 89 -24q15 -8 15 -20q0 -10 -9 -19t-14 -9q-6 0 -16 10q-22 22 -54 38q-15 8 -38 8z" />
    <glyph glyph-name="Ccaron" unicode="&#x10c;" horiz-adv-x="642" 
d="M385 649q55 0 111.5 -17.5t87.5 -35.5q9 -6 9 -16q-1 -15 -0.5 -27.5t1.5 -28.5t1 -19q0 -16 -6 -16q-5 0 -9 13q-12 51 -47 80q-55 52 -156 52q-106 0 -186 -84q-30 -33 -52 -96t-22 -133q0 -68 27.5 -134.5t67.5 -109.5q35 -37 83.5 -55.5t93.5 -18.5q77 0 121 27
q56 33 78 100q5 18 10 18q6 0 6 -15q0 -8 -3 -25t-7 -35.5t-4 -21.5q-2 -6 -8 -11q-99 -58 -197 -58q-149 0 -256 109q-32 33 -57.5 96t-25.5 123q0 155 113 257q40 36 101 59t125 23zM374 676q-7 0 -18 15q-20 25 -81 81q-5 6 -3 7t6 0q28 -7 95 -58q3 -2 10 1q67 48 93 58
q6 1 8 0t-4 -7q-49 -40 -88 -83q-12 -14 -18 -14z" />
    <glyph glyph-name="ccaron" unicode="&#x10d;" horiz-adv-x="367" 
d="M215 406q-2 0 -7 10q-3 6 -28.5 64.5t-26.5 63.5q-6 14 1 14q4 0 15 -18q36 -56 48 -80q1 -2 3.5 -1.5t3.5 2.5q2 3 10.5 16.5t20 31.5t24.5 36q3 8 10 8q1 0 1.5 -2t-0.5 -5t-3 -6q-7 -20 -52 -104q-2 -4 -5.5 -10t-5.5 -10l-3 -6q-3 -4 -6 -4zM213 353q-44 0 -84 -40
t-40 -118q0 -89 53 -133q40 -35 96 -35q34 0 57 8t49 32q1 1 3.5 1t2.5 -2q0 -7 -7 -15q-53 -62 -137 -62q-71 0 -121 48q-51 49 -51 134q0 83 58 139q59 59 148 59q54 0 89 -24q15 -8 15 -20q0 -10 -9 -19t-14 -9q-6 0 -16 10q-22 22 -54 38q-15 8 -38 8z" />
    <glyph glyph-name="Dcaron" unicode="&#x10e;" horiz-adv-x="682" 
d="M43 627q0 5 15 5q87 0 128 4q63 7 80 7q127 0 218 -54q152 -95 152 -270q0 -70 -22.5 -127.5t-61.5 -95.5t-83 -62t-94 -37q-28 -8 -87 -8q-18 0 -74 4q-75 5 -87 5q-15 0 -40 -1t-28 -1q-19 0 -19 8q0 6 17 7q26 4 35.5 14.5t10.5 39.5q3 36 3 194q0 229 -5 307
q-2 27 -9.5 37t-36.5 16q-12 1 -12 8zM252 626q-50 0 -75 -10q-11 -4 -11 -27q-2 -70 -2 -249q0 -117 6 -217q3 -45 9.5 -64t24.5 -33q28 -22 88 -22q73 0 120 25q153 79 153 273q0 150 -91 237q-92 87 -222 87zM309 675q-7 0 -18 15q-20 25 -81 81q-5 6 -3 7t6 0
q28 -7 95 -58q3 -2 10 1q67 48 93 58q6 1 8 0t-4 -7q-49 -40 -88 -83q-12 -14 -18 -14z" />
    <glyph glyph-name="dcaron" unicode="&#x10f;" horiz-adv-x="437" 
d="M245 368q37 0 70 -11q1 -1 2.5 1t1.5 4q0 5 -0.5 115.5t-0.5 141.5q0 10 -4 17q-7 10 -29 16q-12 4 -12 8t9 6q47 8 77 23q10 6 13 6q5 0 4 -18q-1 -22 -4 -213.5t-3 -251.5q0 -125 2 -179q0 -9 7 -9q6 0 50 12q10 3 10 -4q0 -14 -26 -18q-62 -13 -93 -26q-3 -1 -5.5 1.5
t-2.5 5.5q2 36 2 41q0 2 -1.5 3t-2.5 0q-64 -49 -114 -49q-62 0 -110 43q-19 17 -35 52.5t-16 78.5q0 102 82 163q56 41 129 41zM210 348q-29 0 -56 -17q-60 -45 -60 -148q0 -75 38 -119t90 -44q48 0 80 31q10 12 12 43q2 27 2.5 89.5t-3.5 96.5q-2 11 -9 22q-33 46 -94 46z
M458 699q8 0 4 -27q-8 -69 -25 -115q-8 -18 -9 -18q-2 -3 -4 -3.5t-3 0.5t-1 3q1 26 1.5 68.5t-0.5 55.5q0 7 3 10q6 7 17.5 16.5t16.5 9.5z" />
    <glyph glyph-name="Dcroat" unicode="&#x110;" horiz-adv-x="682" 
d="M43 627q0 5 15 5q87 0 128 4q63 7 80 7q127 0 218 -54q152 -95 152 -270q0 -70 -22.5 -127.5t-61.5 -95.5t-83 -62t-94 -37q-28 -8 -87 -8q-18 0 -74 4q-75 5 -87 5q-15 0 -40 -1t-28 -1q-19 0 -19 8q0 6 17 7q26 4 35.5 14.5t10.5 39.5q3 36 3 198q0 36 -1 48q0 6 -3 6
l-62 1q-12 0 -12 13q0 6 15 6l59 1q4 0 4 11q1 10 -1 102.5t-4 114.5q-2 27 -9.5 37t-36.5 16q-12 1 -12 8zM346 332q0 -13 -22 -13l-155 -2q-5 0 -5 -7q1 -117 6 -187q3 -45 9.5 -64t24.5 -33q28 -22 88 -22q73 0 120 25q153 79 153 273q0 150 -91 237q-92 87 -222 87
q-50 0 -75 -10q-11 -4 -11 -27q-2 -70 -2 -241q0 -10 5 -10h133q44 0 44 -6z" />
    <glyph glyph-name="dcroat" unicode="&#x111;" horiz-adv-x="433" 
d="M371 516q-2 -116 -2 -304v-150q0 -40 10 -40q5 0 49 12q10 3 10 -3q0 -13 -26 -17q-56 -12 -90 -26q-6 -2 -8 1t-2 12l1 35q-1 3 -3 4q-72 -50 -115 -50q-62 0 -109 42q-19 17 -35.5 51.5t-16.5 77.5q0 105 82 166q56 41 129 41q35 0 68 -11q1 0 2.5 1.5t2.5 5t1 5.5
q0 4 0.5 27.5t0.5 57v62.5q0 8 -4 8l-78 2q-11 0 -11 5q0 3 4 7t10 4l75 1q4 0 4 6q0 16 -0.5 40t-0.5 30q0 10 -4 17q-7 10 -30 16q-12 4 -12 8t9 6q47 8 77 23q10 6 13 6q5 0 4 -18q-1 -14 -3 -127q0 -7 3 -7h49q17 0 17 -10q0 -8 -26 -8l-41 -1q-4 0 -4 -8zM209 347
q-28 0 -55 -17q-60 -45 -60 -147q0 -75 38 -119t90 -44q48 0 80 31q10 12 12 43q5 142 -2 186q-2 14 -11 27q-37 40 -92 40z" />
    <glyph glyph-name="Emacron" unicode="&#x112;" horiz-adv-x="506" 
d="M45 629q0 5 14 5q10 0 35 -1.5t42 -1.5q23 0 117 1t113 1q22 0 40 1t20 1q6 0 9 -17q4 -52 7 -64q2 -15 -4 -15q-4 0 -10 14q-22 53 -52 58q-18 3 -101.5 4t-98.5 -1q-7 -1 -9.5 -7t-2.5 -30v-233q0 -18 6 -18h136q56 0 67 7q11 5 26 35q5 11 10 11t5 -11q0 -3 -1 -11
l-2.5 -20t-2.5 -19q-3 -26 2 -54q2 -7 0.5 -12t-3.5 -7t-3 -2q-3 0 -12 22q-8 24 -24 30q-25 7 -195 7q-7 0 -8 -3t-1 -20q0 -29 1.5 -114.5t1.5 -91.5q0 -11 7 -25t20 -21q21 -11 103 -11q70 0 91.5 3.5t35.5 15.5q6 5 35 46q13 18 18 18q7 0 1 -18l-22 -74q-6 -11 -13 -11
q-56 0 -160 2t-142 2q-19 0 -56 -2.5t-40 -2.5q-18 0 -18 7q0 5 18 8q29 5 42 18.5t14 45.5q5 203 5 467q0 43 -9.5 58t-37.5 21q-14 3 -14 9zM185 727q57 3 165 3q5 0 5 -7q0 -9 -5 -19q-3 -4 -5 -4q-40 -4 -166 -4q-5 0 -5 9q0 10 5 18q4 4 6 4z" />
    <glyph glyph-name="emacron" unicode="&#x113;" horiz-adv-x="365" 
d="M133 500q57 3 145 3q5 0 5 -7q0 -9 -5 -19q-3 -4 -5 -4q-40 -4 -146 -4q-5 0 -5 9q0 10 5 18q4 4 6 4zM214 369q44 0 82.5 -28t38.5 -72q0 -3 -3 -6t-6 -3q-2 0 -75.5 1.5t-85.5 1.5h-61q-4 0 -10 -9q-9 -18 -9 -60q0 -70 47 -122q38 -43 105 -43q61 0 96 33q12 11 12 2
q0 -6 -11 -17q-58 -58 -136 -58q-68 0 -116 51t-48 134q0 86 54 143q52 52 126 52zM205 355q-39 0 -80 -39q-20 -22 -20 -36q0 -4 3 -4l145 1q22 0 22 18q0 26 -14 40q-22 20 -56 20z" />
    <glyph glyph-name="Ebreve" unicode="&#x114;" horiz-adv-x="506" 
d="M45 629q0 5 14 5q10 0 35 -1.5t42 -1.5q23 0 117 1t113 1q22 0 40 1t20 1q6 0 9 -17q4 -52 7 -64q2 -15 -4 -15q-4 0 -10 14q-22 53 -52 58q-18 3 -101.5 4t-98.5 -1q-7 -1 -9.5 -7t-2.5 -30v-233q0 -18 6 -18h136q56 0 67 7q11 5 26 35q5 11 10 11t5 -11q0 -3 -1 -11
l-2.5 -20t-2.5 -19q-3 -26 2 -54q2 -7 0.5 -12t-3.5 -7t-3 -2q-3 0 -12 22q-8 24 -24 30q-25 7 -195 7q-7 0 -8 -3t-1 -20q0 -29 1.5 -114.5t1.5 -91.5q0 -11 7 -25t20 -21q21 -11 103 -11q70 0 91.5 3.5t35.5 15.5q6 5 35 46q13 18 18 18q7 0 1 -18l-22 -74q-6 -11 -13 -11
q-56 0 -160 2t-142 2q-19 0 -56 -2.5t-40 -2.5q-18 0 -18 7q0 5 18 8q29 5 42 18.5t14 45.5q5 203 5 467q0 43 -9.5 58t-37.5 21q-14 3 -14 9zM265 672q-79 0 -89 72q-1 4 0 9.5t4 5.5t7 -10q16 -41 78 -41q60 0 81 38q5 10 8 10q4 0 4 -8q-2 -25 -26.5 -50.5t-66.5 -25.5z
" />
    <glyph glyph-name="ebreve" unicode="&#x115;" horiz-adv-x="365" 
d="M202 438q-31 0 -49 22.5t-19 62.5q0 15 5 15q7 0 9 -15q9 -50 54 -50q54 0 65 52q3 10 7 10t4 -13q-1 -29 -19.5 -56.5t-56.5 -27.5zM214 369q44 0 82.5 -28t38.5 -72q0 -3 -3 -6t-6 -3q-2 0 -75.5 1.5t-85.5 1.5h-61q-4 0 -10 -9q-9 -18 -9 -60q0 -70 47 -122
q38 -43 105 -43q61 0 96 33q12 11 12 2q0 -6 -11 -17q-58 -58 -136 -58q-68 0 -116 51t-48 134q0 86 54 143q52 52 126 52zM205 355q-39 0 -80 -39q-20 -22 -20 -36q0 -4 3 -4l145 1q22 0 22 18q0 26 -14 40q-22 20 -56 20z" />
    <glyph glyph-name="Edotaccent" unicode="&#x116;" horiz-adv-x="506" 
d="M45 629q0 5 14 5q10 0 35 -1.5t42 -1.5q23 0 117 1t113 1q22 0 40 1t20 1q6 0 9 -17q4 -52 7 -64q2 -15 -4 -15q-4 0 -10 14q-22 53 -52 58q-18 3 -101.5 4t-98.5 -1q-7 -1 -9.5 -7t-2.5 -30v-233q0 -18 6 -18h136q56 0 67 7q11 5 26 35q5 11 10 11t5 -11q0 -3 -1 -11
l-2.5 -20t-2.5 -19q-3 -26 2 -54q2 -7 0.5 -12t-3.5 -7t-3 -2q-3 0 -12 22q-8 24 -24 30q-25 7 -195 7q-7 0 -8 -3t-1 -20q0 -29 1.5 -114.5t1.5 -91.5q0 -11 7 -25t20 -21q21 -11 103 -11q70 0 91.5 3.5t35.5 15.5q6 5 35 46q13 18 18 18q7 0 1 -18l-22 -74q-6 -11 -13 -11
q-56 0 -160 2t-142 2q-19 0 -56 -2.5t-40 -2.5q-18 0 -18 7q0 5 18 8q29 5 42 18.5t14 45.5q5 203 5 467q0 43 -9.5 58t-37.5 21q-14 3 -14 9zM265 740q30 0 30 -33q0 -16 -10 -24.5t-22 -8.5t-20.5 8.5t-8.5 23.5q0 17 9.5 25.5t21.5 8.5z" />
    <glyph glyph-name="edotaccent" unicode="&#x117;" horiz-adv-x="365" 
d="M203 539q30 0 30 -33q0 -16 -10 -24.5t-22 -8.5t-20.5 8.5t-8.5 23.5q0 17 9.5 25.5t21.5 8.5zM214 369q44 0 82.5 -28t38.5 -72q0 -3 -3 -6t-6 -3q-2 0 -75.5 1.5t-85.5 1.5h-61q-4 0 -10 -9q-9 -18 -9 -60q0 -70 47 -122q38 -43 105 -43q61 0 96 33q12 11 12 2
q0 -6 -11 -17q-58 -58 -136 -58q-68 0 -116 51t-48 134q0 86 54 143q52 52 126 52zM205 355q-39 0 -80 -39q-20 -22 -20 -36q0 -4 3 -4l145 1q22 0 22 18q0 26 -14 40q-22 20 -56 20z" />
    <glyph glyph-name="Eogonek" unicode="&#x118;" horiz-adv-x="506" 
d="M45 629q0 5 14 5q10 0 35 -1.5t42 -1.5q23 0 117 1t113 1q22 0 40 1t20 1q6 0 9 -17q4 -52 7 -64q2 -15 -4 -15q-4 0 -10 14q-22 53 -52 58q-18 3 -101.5 4t-98.5 -1q-7 -1 -9.5 -7t-2.5 -30v-233q0 -18 6 -18h136q56 0 67 7q11 5 26 35q5 11 10 11t5 -11q0 -3 -1 -11
l-2.5 -20t-2.5 -19q-3 -26 2 -54q2 -7 0.5 -12t-3.5 -7t-3 -2q-3 0 -12 22q-8 24 -24 30q-25 7 -198 7q-6 0 -6 -23q0 -141 3 -198q2 -41 27 -54q23 -12 103 -12q68 0 92.5 4.5t38.5 17.5q7 6 31 40q14 19 17 19q7 0 1 -18q-3 -9 -7.5 -26t-7.5 -28.5t-6 -16.5
q-6 -11 -13 -11h-18q-34 -26 -55.5 -58.5t-21.5 -59.5q0 -19 13 -28.5t29 -9.5q22 0 43 13q8 5 8 -1q0 -5 -8 -16q-31 -38 -72 -38q-22 0 -39 15t-17 45q0 32 30 70t75 68q-40 0 -134.5 2t-134.5 2q-19 0 -56 -2.5t-40 -2.5q-18 0 -18 7q0 5 18 8q29 5 42 18.5t14 45.5
q5 203 5 467q0 43 -9.5 58t-37.5 21q-14 3 -14 9z" />
    <glyph glyph-name="eogonek" unicode="&#x119;" horiz-adv-x="361" 
d="M210 369q45 0 83 -24.5t38 -68.5q0 -4 -6 -10t-11 -6q-2 0 -71.5 1.5t-81.5 1.5h-61q-4 0 -10 -9q-9 -18 -9 -60q0 -70 47 -122q38 -43 105 -43q61 0 96 33q12 11 12 2q0 -6 -11 -17q-3 -3 -51 -42q-86 -70 -86 -127q0 -19 12.5 -29t28.5 -10q23 0 43 14q9 7 9 0
q0 -5 -9 -17q-12 -14 -32 -25.5t-37 -11.5q-22 0 -39 14.5t-17 44.5q0 56 101 139q-25 -8 -59 -8q-69 0 -116.5 51.5t-47.5 133.5q0 86 54 143q52 52 126 52zM201 355q-39 0 -80 -39q-19 -21 -19 -34q0 -6 10 -6l137 1q22 0 22 18q0 26 -14 40q-22 20 -56 20z" />
    <glyph glyph-name="Ecaron" unicode="&#x11a;" horiz-adv-x="506" 
d="M45 629q0 5 14 5q10 0 35 -1.5t42 -1.5q23 0 117 1t113 1q22 0 40 1t20 1q6 0 9 -17q4 -52 7 -64q2 -15 -4 -15q-4 0 -10 14q-22 53 -52 58q-18 3 -101.5 4t-98.5 -1q-7 -1 -9.5 -7t-2.5 -30v-233q0 -18 6 -18h136q56 0 67 7q11 5 26 35q5 11 10 11t5 -11q0 -3 -1 -11
l-2.5 -20t-2.5 -19q-3 -26 2 -54q2 -7 0.5 -12t-3.5 -7t-3 -2q-3 0 -12 22q-8 24 -24 30q-25 7 -195 7q-7 0 -8 -3t-1 -20q0 -29 1.5 -114.5t1.5 -91.5q0 -11 7 -25t20 -21q21 -11 103 -11q70 0 91.5 3.5t35.5 15.5q6 5 35 46q13 18 18 18q7 0 1 -18l-22 -74q-6 -11 -13 -11
q-56 0 -160 2t-142 2q-19 0 -56 -2.5t-40 -2.5q-18 0 -18 7q0 5 18 8q29 5 42 18.5t14 45.5q5 203 5 467q0 43 -9.5 58t-37.5 21q-14 3 -14 9zM258 667q-7 0 -18 15q-20 25 -81 81q-5 6 -3 7t6 0q28 -7 95 -58q3 -2 10 1q67 48 93 58q6 1 8 0t-4 -7q-49 -40 -88 -83
q-12 -14 -18 -14z" />
    <glyph glyph-name="ecaron" unicode="&#x11b;" horiz-adv-x="365" 
d="M197 406q-2 0 -7 10q-3 6 -28.5 64.5t-26.5 63.5q-6 14 1 14q4 0 15 -18q36 -56 48 -80q1 -2 3.5 -1.5t3.5 2.5q2 3 10.5 16.5t20 31.5t24.5 36q3 8 10 8q1 0 1.5 -2t-0.5 -5t-3 -6q-7 -20 -52 -104q-2 -4 -5.5 -10t-5.5 -10l-3 -6q-3 -4 -6 -4zM214 369q44 0 82.5 -28
t38.5 -72q0 -3 -3 -6t-6 -3q-2 0 -75.5 1.5t-85.5 1.5h-61q-4 0 -10 -9q-9 -18 -9 -60q0 -70 47 -122q38 -43 105 -43q61 0 96 33q12 11 12 2q0 -6 -11 -17q-58 -58 -136 -58q-68 0 -116 51t-48 134q0 86 54 143q52 52 126 52zM205 355q-39 0 -80 -39q-20 -22 -20 -36
q0 -4 3 -4l145 1q22 0 22 18q0 26 -14 40q-22 20 -56 20z" />
    <glyph glyph-name="Gcircumflex" unicode="&#x11c;" horiz-adv-x="692" 
d="M412 649q22 0 42 -3t44 -9.5t25 -6.5q43 -13 68 -25q10 -5 10 -24q0 -8 8 -56q4 -19 -4 -19q-5 0 -12 16q-47 112 -192 112q-56 0 -108.5 -22.5t-87.5 -59.5q-86 -93 -86 -243q0 -80 36.5 -146.5t84.5 -105.5q75 -59 163 -59q79 0 125 46q12 13 15 55q6 60 1 112
q-2 26 -14 37t-45 15q-17 2 -17 8q0 7 24 6q6 0 31.5 -1.5t45.5 -1.5q21 0 39 1t19 1q16 0 16 -6q0 -5 -19 -10q-11 -2 -15.5 -14t-4.5 -49q0 -25 2.5 -75t2.5 -53q0 -21 -7 -24q-2 -1 -18 -9.5t-29 -14.5q-84 -39 -148 -39q-148 0 -254 94q-107 90 -107 239q0 159 134 262
q29 21 53.5 34.5t72 25.5t106.5 12zM379 782q8 0 20 -16q17 -21 79 -80q4 -5 2.5 -6.5t-5.5 -0.5q-25 7 -95 59q-3 2 -10 -1q-70 -50 -93 -59q-6 -1 -8 0t4 7q41 34 86 83q12 14 20 14z" />
    <glyph glyph-name="gcircumflex" unicode="&#x11d;" horiz-adv-x="396" 
d="M185 558q3 0 7 -9q3 -5 28.5 -64.5t26.5 -64.5q6 -14 -1 -14q-5 0 -15 17q-23 35 -47 81q-4 5 -8 -1q-23 -38 -55 -84q-5 -8 -10 -8q-2 0 -1 4.5t3 9.5l52 104q11 20 13 23q4 6 7 6zM75 -162q0 -48 39 -79q23 -17 42 -24t56 -7q59 0 93 25q23 16 40 47t17 65
q0 35 -23.5 58t-67.5 23q-84 0 -111 -2q-29 -2 -37 -10q-18 -15 -33 -41.5t-15 -54.5zM181 375q52 0 99 -26q10 -5 36 -5q10 0 39.5 1t35.5 1q10 0 10 -21q0 -8 -3.5 -12.5t-7.5 -4.5q-7 0 -33 1t-31 1q-2 0 -4 -2t-2 -4t1 -16.5t1 -26.5q0 -45 -17.5 -80.5t-45.5 -55.5
q-37 -25 -75 -25q-8 0 -40 4q-8 2 -13 -3q-13 -9 -40 -38q-12 -12 -12 -24q0 -43 97 -43q16 0 60 1.5t56 1.5q43 0 75 -25q34 -28 34 -84q0 -50 -34 -95t-85 -72q-54 -28 -110 -28q-61 0 -104 29.5t-43 84.5q0 22 17 44q2 3 14 18.5t27.5 35t23.5 30.5q1 1 1.5 4.5t-1.5 4.5
q-27 6 -54.5 29t-27.5 49q0 6 7 9q47 29 82 73q1 1 0 3t-2 3q-30 19 -53.5 52t-23.5 75q0 57 42 96q43 40 104 40zM176 362q-30 0 -56 -23q-31 -30 -31 -92q0 -30 10.5 -61t23.5 -44q30 -28 66 -28t60.5 32.5t24.5 70.5q0 71 -32 110q-30 35 -66 35z" />
    <glyph glyph-name="Gbreve" unicode="&#x11e;" horiz-adv-x="692" 
d="M412 649q22 0 42 -3t44 -9.5t25 -6.5q43 -13 68 -25q10 -5 10 -24q0 -8 8 -56q4 -19 -4 -19q-5 0 -12 16q-47 112 -192 112q-56 0 -108.5 -22.5t-87.5 -59.5q-86 -93 -86 -243q0 -80 36.5 -146.5t84.5 -105.5q75 -59 163 -59q79 0 125 46q12 13 15 55q6 60 1 112
q-2 26 -14 37t-45 15q-17 2 -17 8q0 7 24 6q6 0 31.5 -1.5t45.5 -1.5q21 0 39 1t19 1q16 0 16 -6q0 -5 -19 -10q-11 -2 -15.5 -14t-4.5 -49q0 -25 2.5 -75t2.5 -53q0 -21 -7 -24q-2 -1 -18 -9.5t-29 -14.5q-84 -39 -148 -39q-148 0 -254 94q-107 90 -107 239q0 159 134 262
q29 21 53.5 34.5t72 25.5t106.5 12zM374 690q-79 0 -89 72q-1 4 0 9.5t4 5.5t7 -10q16 -41 78 -41q60 0 81 38q5 10 8 10q4 0 4 -8q-2 -25 -26.5 -50.5t-66.5 -25.5z" />
    <glyph glyph-name="gbreve" unicode="&#x11f;" horiz-adv-x="396" 
d="M181 438q-31 0 -49 22.5t-19 62.5q0 15 5 15q6 0 9 -15q9 -50 54 -50q54 0 65 52q3 10 7 10t4 -13q-1 -29 -19.5 -56.5t-56.5 -27.5zM75 -162q0 -48 39 -79q23 -17 42 -24t56 -7q59 0 93 25q23 16 40 47t17 65q0 35 -23.5 58t-67.5 23q-84 0 -111 -2q-29 -2 -37 -10
q-18 -15 -33 -41.5t-15 -54.5zM181 375q52 0 99 -26q10 -5 36 -5q10 0 39.5 1t35.5 1q10 0 10 -21q0 -8 -3.5 -12.5t-7.5 -4.5q-7 0 -33 1t-31 1q-2 0 -4 -2t-2 -4t1 -16.5t1 -26.5q0 -45 -17.5 -80.5t-45.5 -55.5q-37 -25 -75 -25q-8 0 -40 4q-8 2 -13 -3q-13 -9 -40 -38
q-12 -12 -12 -24q0 -43 97 -43q16 0 60 1.5t56 1.5q43 0 75 -25q34 -28 34 -84q0 -50 -34 -95t-85 -72q-54 -28 -110 -28q-61 0 -104 29.5t-43 84.5q0 22 17 44q2 3 14 18.5t27.5 35t23.5 30.5q1 1 1.5 4.5t-1.5 4.5q-27 6 -54.5 29t-27.5 49q0 6 7 9q47 29 82 73q1 1 0 3
t-2 3q-30 19 -53.5 52t-23.5 75q0 57 42 96q43 40 104 40zM176 362q-30 0 -56 -23q-31 -30 -31 -92q0 -30 10.5 -61t23.5 -44q30 -28 66 -28t60.5 32.5t24.5 70.5q0 71 -32 110q-30 35 -66 35z" />
    <glyph glyph-name="Gdotaccent" unicode="&#x120;" horiz-adv-x="692" 
d="M412 649q22 0 42 -3t44 -9.5t25 -6.5q43 -13 68 -25q10 -5 10 -24q0 -8 8 -56q4 -19 -4 -19q-5 0 -12 16q-47 112 -192 112q-56 0 -108.5 -22.5t-87.5 -59.5q-86 -93 -86 -243q0 -80 36.5 -146.5t84.5 -105.5q75 -59 163 -59q79 0 125 46q12 13 15 55q6 60 1 112
q-2 26 -14 37t-45 15q-17 2 -17 8q0 7 24 6q6 0 31.5 -1.5t45.5 -1.5q21 0 39 1t19 1q16 0 16 -6q0 -5 -19 -10q-11 -2 -15.5 -14t-4.5 -49q0 -25 2.5 -75t2.5 -53q0 -21 -7 -24q-2 -1 -18 -9.5t-29 -14.5q-84 -39 -148 -39q-148 0 -254 94q-107 90 -107 239q0 159 134 262
q29 21 53.5 34.5t72 25.5t106.5 12zM385 752q30 0 30 -33q0 -16 -10 -24.5t-22 -8.5t-20.5 8.5t-8.5 23.5q0 17 9.5 25.5t21.5 8.5z" />
    <glyph glyph-name="gdotaccent" unicode="&#x121;" horiz-adv-x="396" 
d="M187 539q30 0 30 -33q0 -16 -10 -24.5t-22 -8.5t-20.5 8.5t-8.5 23.5q0 17 9.5 25.5t21.5 8.5zM75 -162q0 -48 39 -79q23 -17 42 -24t56 -7q59 0 93 25q23 16 40 47t17 65q0 35 -23.5 58t-67.5 23q-84 0 -111 -2q-29 -2 -37 -10q-18 -15 -33 -41.5t-15 -54.5zM181 375
q52 0 99 -26q10 -5 36 -5q10 0 39.5 1t35.5 1q10 0 10 -21q0 -8 -3.5 -12.5t-7.5 -4.5q-7 0 -33 1t-31 1q-2 0 -4 -2t-2 -4t1 -16.5t1 -26.5q0 -45 -17.5 -80.5t-45.5 -55.5q-37 -25 -75 -25q-8 0 -40 4q-8 2 -13 -3q-13 -9 -40 -38q-12 -12 -12 -24q0 -43 97 -43
q16 0 60 1.5t56 1.5q43 0 75 -25q34 -28 34 -84q0 -50 -34 -95t-85 -72q-54 -28 -110 -28q-61 0 -104 29.5t-43 84.5q0 22 17 44q2 3 14 18.5t27.5 35t23.5 30.5q1 1 1.5 4.5t-1.5 4.5q-27 6 -54.5 29t-27.5 49q0 6 7 9q47 29 82 73q1 1 0 3t-2 3q-30 19 -53.5 52t-23.5 75
q0 57 42 96q43 40 104 40zM176 362q-30 0 -56 -23q-31 -30 -31 -92q0 -30 10.5 -61t23.5 -44q30 -28 66 -28t60.5 32.5t24.5 70.5q0 71 -32 110q-30 35 -66 35z" />
    <glyph glyph-name="Gcommaaccent" unicode="&#x122;" horiz-adv-x="692" 
d="M412 649q22 0 42 -3t44 -9.5t25 -6.5q43 -13 68 -25q10 -5 10 -24q0 -8 8 -56q4 -19 -4 -19q-5 0 -12 16q-47 112 -192 112q-56 0 -108.5 -22.5t-87.5 -59.5q-86 -93 -86 -243q0 -80 36.5 -146.5t84.5 -105.5q75 -59 163 -59q79 0 125 46q12 13 15 55q6 60 1 112
q-2 26 -14 37t-45 15q-17 2 -17 8q0 7 24 6q6 0 31.5 -1.5t45.5 -1.5q21 0 39 1t19 1q16 0 16 -6q0 -5 -19 -10q-11 -2 -15.5 -14t-4.5 -49q0 -25 2.5 -75t2.5 -53q0 -21 -7 -24q-2 -1 -18 -9.5t-29 -14.5q-84 -39 -148 -39q-148 0 -254 94q-107 90 -107 239q0 159 134 262
q29 21 53.5 34.5t72 25.5t106.5 12zM373 -51q18 0 33 -15t15 -40t-16.5 -44t-31.5 -26t-21 -7q-11 0 -11 3t10 7q42 19 42 51q0 21 -21 29q-25 8 -25 21q0 9 8.5 15t17.5 6z" />
    <glyph glyph-name="gcommaaccent" unicode="&#x123;" horiz-adv-x="396" 
d="M194 427q-18 0 -33 15t-15 40t16.5 44t31.5 26t21 7q11 0 11 -3t-10 -7q-42 -19 -42 -51q0 -21 21 -29q25 -8 25 -21q0 -9 -8.5 -15t-17.5 -6zM75 -162q0 -48 39 -79q23 -17 42 -24t56 -7q59 0 93 25q23 16 40 47t17 65q0 35 -23.5 58t-67.5 23q-84 0 -111 -2
q-29 -2 -37 -10q-18 -15 -33 -41.5t-15 -54.5zM181 375q52 0 99 -26q10 -5 36 -5q10 0 39.5 1t35.5 1q10 0 10 -21q0 -8 -3.5 -12.5t-7.5 -4.5q-7 0 -33 1t-31 1q-2 0 -4 -2t-2 -4t1 -16.5t1 -26.5q0 -45 -17.5 -80.5t-45.5 -55.5q-37 -25 -75 -25q-8 0 -40 4q-8 2 -13 -3
q-13 -9 -40 -38q-12 -12 -12 -24q0 -43 97 -43q16 0 60 1.5t56 1.5q43 0 75 -25q34 -28 34 -84q0 -50 -34 -95t-85 -72q-54 -28 -110 -28q-61 0 -104 29.5t-43 84.5q0 22 17 44q2 3 14 18.5t27.5 35t23.5 30.5q1 1 1.5 4.5t-1.5 4.5q-27 6 -54.5 29t-27.5 49q0 6 7 9
q47 29 82 73q1 1 0 3t-2 3q-30 19 -53.5 52t-23.5 75q0 57 42 96q43 40 104 40zM176 362q-30 0 -56 -23q-31 -30 -31 -92q0 -30 10.5 -61t23.5 -44q30 -28 66 -28t60.5 32.5t24.5 70.5q0 71 -32 110q-30 35 -66 35z" />
    <glyph glyph-name="Hcircumflex" unicode="&#x124;" horiz-adv-x="740" 
d="M105 320q0 163 -3 220q-3 53 -10 63q-8 11 -34 18q-16 3 -16 9t17 6q6 0 32 -2.5t43 -2.5q14 0 42 2t33 2q15 0 15 -6t-13 -8q-25 -6 -33.5 -18t-10.5 -39q-3 -36 -3 -212q0 -19 8 -20q14 -1 277 -1q26 0 46 0.5t31 0.5t18 0.5t10 1t4 0.5q8 1 9 18q3 51 -4 183
q-2 52 -9 67.5t-38 19.5q-14 2 -14 8q0 5 13 5q10 0 40 -2t46 -2q17 0 41 2t31 2q16 0 16 -5t-14 -9q-31 -6 -38.5 -20.5t-7.5 -53.5q-2 -97 2 -249q1 -30 2 -94t3 -120q2 -39 10.5 -52t39.5 -20q15 -4 15 -9q0 -6 -15 -6q-6 0 -42 1.5t-48 1.5q-10 0 -35 -1t-34 -1
q-19 0 -19 7q0 5 16 8q27 6 35.5 15.5t9.5 40.5q4 181 1 207q-2 24 -7 24q-64 4 -273 4q-28 0 -73 0.5t-47 0.5q-7 0 -7 -25q0 -185 10 -235q5 -25 39 -34q17 -4 17 -10t-17 -6q-8 0 -37 2.5t-45 2.5q-14 0 -40.5 -2t-32.5 -2q-16 0 -16 6q0 7 17 10q25 5 33 14.5t10 33.5
q4 62 4 260zM374 770q8 0 20 -16q17 -21 79 -80q4 -5 2.5 -6.5t-5.5 -0.5q-25 7 -95 59q-3 2 -10 -1q-70 -50 -93 -59q-6 -1 -8 0t4 7q41 34 86 83q12 14 20 14z" />
    <glyph glyph-name="hcircumflex" unicode="&#x125;" horiz-adv-x="433" 
d="M92 769q8 0 20 -12q11 -11 44.5 -32.5t34.5 -22.5q3 -2 3 -5t-2 -4.5t-4 -0.5q-43 8 -95 37q-4 2 -10 -1q-45 -23 -93 -37q-5 -1 -8 2.5t4 7.5q69 43 86 57q13 11 20 11zM227 336q-60 0 -100 -42q-10 -10 -10 -42q0 -157 5 -207q6 -28 32 -33q24 -4 24 -10t-14 -6
q-13 0 -38.5 2t-42.5 2q-14 0 -33 -2t-26 -2q-15 0 -15 6q0 4 16 8q17 4 23.5 7t10.5 12.5t5 29.5q4 56 4 302q0 63 0.5 122.5t0.5 76.5v49q0 15 -4.5 24t-8 12t-17.5 11q-7 4 -7 8q0 3 16 8q47 14 61 21q6 3 9 3q6 0 4 -21q-4 -128 -4 -365q0 -3 2 -3q1 -1 2 0q25 25 63 44
q36 18 73 18q56 0 88 -46q21 -28 22 -108v-98t1 -76q1 -16 7 -21t29 -9q16 -4 16 -9q0 -7 -16 -7q-12 0 -34.5 2.5t-33.5 2.5q-15 0 -32 -2t-25 -2q-17 0 -17 6q0 5 16 8q18 3 23.5 10t8.5 28q5 38 5 177q0 43 -16 73q-24 38 -73 38z" />
    <glyph glyph-name="Hbar" unicode="&#x126;" horiz-adv-x="740" 
d="M42 630q0 6 17 6q6 0 32 -2.5t43 -2.5q14 0 41.5 2t32.5 2q15 0 15 -6t-13 -8q-25 -6 -33.5 -18t-10.5 -39q-3 -36 -3 -115q0 -9 4 -9h397q4 0 4 8q-2 70 -2 86q-2 51 -10 67.5t-39 20.5q-14 2 -14 8q0 5 13 5q10 0 39.5 -2t45.5 -2q17 0 41 2t31 2q16 0 16 -5t-14 -9
q-31 -6 -38.5 -20.5t-7.5 -53.5v-98q0 -9 5 -9l34 -1q15 0 15 -6q0 -14 -20 -14h-30q-4 0 -4 -10q0 -55 2 -111q1 -30 2 -94t3 -120q1 -39 10 -50q12 -16 40 -22q15 -4 15 -9q0 -6 -15 -6q-6 0 -42 1.5t-48 1.5q-10 0 -34.5 -1t-33.5 -1q-19 0 -19 7q0 5 16 8
q27 6 35.5 15.5t9.5 40.5q3 164 1 186t-7 24q-12 3 -53 3q-3 0 -39 0.5t-115.5 1t-187.5 0.5q-7 0 -7 -25q0 -164 10 -214q5 -25 40 -34q17 -4 17 -10t-17 -6q-8 0 -37 2.5t-45 2.5q-14 0 -40.5 -2t-32.5 -2q-16 0 -16 6q0 7 17 10q25 5 33 14.5t10 33.5q4 62 4 260v85
q0 14 -4 14q-27 0 -38 1q-17 1 -17 6t5.5 9t11.5 4l38 1q3 0 3 8q0 58 -2 92q-3 53 -10 63q-8 11 -34 18q-16 3 -16 9zM167 419q-4 0 -4 -13v-74q0 -19 8 -20q14 -1 279 -1q26 0 46 0.5t31 0.5t18 0.5t10 1t4 0.5q8 1 9 18q1 11 1 78q0 9 -4 9h-398z" />
    <glyph glyph-name="hbar" unicode="&#x127;" horiz-adv-x="433" 
d="M67 524h-50q-11 0 -11 5q0 4 4.5 8.5t9.5 4.5q33 0 47 1q0 15 -0.5 37t-0.5 29q0 16 -4 24.5t-8 11.5t-17 11q-7 4 -7 8q0 3 16 8q47 14 61 21q6 3 9 3q6 0 4 -21q0 -6 -0.5 -23.5t-1 -50.5t-0.5 -57q21 1 92 -1q15 0 15 -6q0 -11 -24 -11l-83 -1v-217q0 -6 6 0
q25 25 61 43t73 18q36 0 66 -21q41 -29 44 -110q1 -23 0 -100.5t3 -96.5q1 -10 2.5 -14.5t9 -9t22.5 -6.5q16 -4 16 -9q0 -7 -16 -7q-12 0 -34.5 2.5t-33.5 2.5q-15 0 -32.5 -2t-25.5 -2q-17 0 -17 6q0 5 16 8q18 3 24.5 10t8.5 28q5 58 5 160q0 63 -15 91q-23 37 -74 37
q-27 0 -54 -11.5t-41 -26.5q-15 -15 -15 -46q0 -161 5 -211q5 -24 32 -29q24 -4 24 -10t-14 -6q-13 0 -38.5 2t-42.5 2q-14 0 -33 -2t-26 -2q-15 0 -15 6q0 4 16 8q23 5 30.5 15t8.5 39q4 56 4 297q0 125 -1 163z" />
    <glyph glyph-name="Itilde" unicode="&#x128;" horiz-adv-x="270" 
d="M41 630q0 5 15 5q14 0 38 -2t40 -2q15 0 41.5 2t36.5 2q14 0 14 -4q0 -8 -15 -9q-28 -5 -35.5 -17t-9.5 -45q-2 -35 -2 -234q0 -192 5 -262q2 -28 8.5 -36.5t29.5 -14.5q17 -4 17 -10t-19 -6q-3 0 -25.5 1.5t-36.5 1.5q-25 0 -55 -2.5t-36 -2.5q-15 0 -15 7q0 5 23 10
q27 6 34.5 22t8.5 62q1 29 1 394q0 50 -5 87q-2 24 -10.5 31.5t-36.5 13.5q-11 3 -11 8zM89 732q1 0 31 -2l60 -5q23 0 32.5 3t17.5 14q7 10 12 10q1 0 1.5 -1.5t-0.5 -5t-3 -6.5q-14 -26 -39 -43q-8 -6 -19 -6t-48 4t-46 4q-14 0 -21 -4t-21 -21q-8 -6 -10 -6q-1 0 -1.5 1
t0.5 4.5t3 9.5q8 15 32 41q9 9 19 9z" />
    <glyph glyph-name="itilde" unicode="&#x129;" horiz-adv-x="190" 
d="M52 507q1 0 31 -2q1 0 21 -2.5t30 -2.5q29 0 50 28q7 10 12 10q1 0 1.5 -1.5t-0.5 -5t-3 -6.5q-6 -8 -38 -48q-9 -12 -20 -12t-41.5 4t-39.5 4q-13 0 -19 -4.5t-22 -24.5q-7 -6 -10 -6q-1 0 -1.5 1t0.5 4.5t3 9.5q15 28 31 45q9 9 15 9zM36 333q0 5 10 8q33 10 61 24
q13 7 16 7q5 0 4 -14q-2 -19 -2 -158q0 -144 2 -161q1 -10 5.5 -16t9 -8t13.5 -4q15 -3 15 -8q0 -7 -16 -7q-1 0 -29 2t-40 2q-16 0 -33 -1t-20 -1q-12 0 -12 6q0 5 19 9q17 4 24 14.5t8 40.5q3 90 3 226q0 9 -5.5 15.5t-25.5 16.5q-7 3 -7 7z" />
    <glyph glyph-name="Imacron" unicode="&#x12a;" horiz-adv-x="270" 
d="M41 630q0 5 15 5q14 0 38 -2t40 -2q15 0 41.5 2t36.5 2q14 0 14 -4q0 -8 -15 -9q-28 -5 -35.5 -17t-9.5 -45q-2 -35 -2 -234q0 -192 5 -262q2 -28 8.5 -36.5t29.5 -14.5q17 -4 17 -10t-19 -6q-3 0 -25.5 1.5t-36.5 1.5q-25 0 -55 -2.5t-36 -2.5q-15 0 -15 7q0 5 23 10
q27 6 34.5 22t8.5 62q1 29 1 394q0 50 -5 87q-2 24 -10.5 31.5t-36.5 13.5q-11 3 -11 8zM56 721q57 3 165 3q5 0 5 -7q0 -9 -5 -19q-3 -4 -5 -4q-40 -4 -166 -4q-5 0 -5 9q0 10 5 18q4 4 6 4z" />
    <glyph glyph-name="imacron" unicode="&#x12b;" horiz-adv-x="190" 
d="M33 500q57 3 145 3q5 0 5 -7q0 -9 -5 -19q-3 -4 -5 -4q-40 -4 -146 -4q-5 0 -5 9q0 10 5 18q4 4 6 4zM36 333q0 5 10 8q33 10 61 24q13 7 16 7q5 0 4 -14q-2 -19 -2 -158q0 -144 2 -161q1 -10 5.5 -16t9 -8t13.5 -4q15 -3 15 -8q0 -7 -16 -7q-1 0 -29 2t-40 2
q-16 0 -33 -1t-20 -1q-12 0 -12 6q0 5 19 9q17 4 24 14.5t8 40.5q3 90 3 226q0 9 -5.5 15.5t-25.5 16.5q-7 3 -7 7z" />
    <glyph glyph-name="Ibreve" unicode="&#x12c;" horiz-adv-x="270" 
d="M41 630q0 5 15 5q14 0 38 -2t40 -2q15 0 41.5 2t36.5 2q14 0 14 -4q0 -8 -15 -9q-28 -5 -35.5 -17t-9.5 -45q-2 -35 -2 -234q0 -192 5 -262q2 -28 8.5 -36.5t29.5 -14.5q17 -4 17 -10t-19 -6q-3 0 -25.5 1.5t-36.5 1.5q-25 0 -55 -2.5t-36 -2.5q-15 0 -15 7q0 5 23 10
q27 6 34.5 22t8.5 62q1 29 1 394q0 50 -5 87q-2 24 -10.5 31.5t-36.5 13.5q-11 3 -11 8zM133 675q-79 0 -89 72q-1 4 0 9.5t4 5.5t7 -10q16 -41 78 -41q60 0 81 38q5 10 8 10q4 0 4 -8q-2 -25 -26.5 -50.5t-66.5 -25.5z" />
    <glyph glyph-name="ibreve" unicode="&#x12d;" horiz-adv-x="190" 
d="M97 438q-31 0 -49 22.5t-19 62.5q0 15 5 15q6 0 9 -15q9 -50 54 -50q54 0 65 52q3 10 7 10t4 -13q-1 -29 -19.5 -56.5t-56.5 -27.5zM36 333q0 5 10 8q33 10 61 24q13 7 16 7q5 0 4 -14q-2 -19 -2 -158q0 -144 2 -161q1 -10 5.5 -16t9 -8t13.5 -4q15 -3 15 -8q0 -7 -16 -7
q-1 0 -29 2t-40 2q-16 0 -33 -1t-20 -1q-12 0 -12 6q0 5 19 9q17 4 24 14.5t8 40.5q3 90 3 226q0 9 -5.5 15.5t-25.5 16.5q-7 3 -7 7z" />
    <glyph glyph-name="Iogonek" unicode="&#x12e;" horiz-adv-x="270" 
d="M41 630q0 5 15 5q14 0 38 -2t40 -2q15 0 41.5 2t36.5 2q14 0 14 -4q0 -8 -15 -9q-28 -5 -35 -16.5t-10 -45.5q-2 -21 -2 -234q0 -192 5 -262q2 -29 8.5 -37t33.5 -15q17 -4 17 -10t-19 -6q-11 0 -56 3q-49 -67 -49 -121q0 -19 13 -28.5t29 -9.5q22 0 43 13q8 5 8 -1
q0 -5 -8 -16q-31 -38 -72 -38q-22 0 -39 15t-17 45t20 62.5t59 79.5h-10q-25 0 -48.5 -2.5t-29.5 -2.5q-15 0 -15 7q0 5 23 10q27 6 34.5 22t8.5 62q1 29 1 394q0 50 -5 87q-2 24 -10.5 31.5t-36.5 13.5q-11 3 -11 8z" />
    <glyph glyph-name="iogonek" unicode="&#x12f;" horiz-adv-x="190" 
d="M34 335h-1q0 4 15 8q39 11 56 22q11 7 16 7t5 -14q0 -3 -0.5 -27.5t-1 -61.5t-0.5 -69q0 -144 2 -161q1 -10 5.5 -16t9 -8t13.5 -4q15 -3 15 -8q0 -7 -16 -7q-2 0 -8.5 0.5t-16.5 1.5t-18 1q-43 -61 -43 -115q0 -21 11.5 -33t29.5 -12q23 0 43 14q9 7 9 0q0 -5 -9 -17
q-12 -14 -32 -25.5t-37 -11.5q-22 0 -39 15.5t-17 45.5q0 58 71 140h-13q-16 0 -33 -1t-20 -1q-12 0 -12 6q0 5 19 9q17 4 24.5 14.5t7.5 40.5q0 18 1.5 114.5t1.5 98.5q0 19 -6 27.5t-26 18.5q-6 4 -6 8zM106 559q30 0 30 -33q0 -16 -10 -24.5t-22 -8.5t-20.5 8.5
t-8.5 23.5q0 17 9.5 25.5t21.5 8.5z" />
    <glyph glyph-name="Idotaccent" unicode="&#x130;" horiz-adv-x="270" 
d="M41 630q0 5 15 5q14 0 38 -2t40 -2q15 0 41.5 2t36.5 2q14 0 14 -4q0 -8 -15 -9q-28 -5 -35.5 -17t-9.5 -45q-2 -35 -2 -234q0 -192 5 -262q2 -28 8.5 -36.5t29.5 -14.5q17 -4 17 -10t-19 -6q-3 0 -25.5 1.5t-36.5 1.5q-25 0 -55 -2.5t-36 -2.5q-15 0 -15 7q0 5 23 10
q27 6 34.5 22t8.5 62q1 29 1 394q0 50 -5 87q-2 24 -10.5 31.5t-36.5 13.5q-11 3 -11 8zM135 742q30 0 30 -33q0 -16 -10 -24.5t-22 -8.5t-20.5 8.5t-8.5 23.5q0 17 9.5 25.5t21.5 8.5z" />
    <glyph glyph-name="dotlessi" unicode="&#x131;" horiz-adv-x="190" 
d="M36 333q0 5 10 8q33 10 61 24q13 7 16 7q5 0 4 -14q-2 -19 -2 -158q0 -144 2 -161q1 -10 5.5 -16t9 -8t13.5 -4q15 -3 15 -8q0 -7 -16 -7q-1 0 -29 2t-40 2q-16 0 -33 -1t-20 -1q-12 0 -12 6q0 5 19 9q17 4 24 14.5t8 40.5q3 90 3 226q0 9 -5.5 15.5t-25.5 16.5
q-7 3 -7 7z" />
    <glyph glyph-name="IJ" unicode="&#x132;" horiz-adv-x="527" 
d="M41 630q0 5 15 5q14 0 38 -2t40 -2q15 0 41.5 2t36.5 2q14 0 14 -4q0 -8 -15 -9q-28 -5 -35.5 -17t-9.5 -45q-2 -35 -2 -234q0 -192 5 -262q2 -28 8.5 -36.5t29.5 -14.5q17 -4 17 -10t-19 -6q-3 0 -25.5 1.5t-36.5 1.5q-25 0 -55 -2.5t-36 -2.5q-15 0 -15 7q0 5 23 10
q27 6 34.5 22t8.5 62q1 29 1 394q0 50 -5 87q-2 24 -10.5 31.5t-36.5 13.5q-11 3 -11 8zM376 67q0 335 -3 447q-2 67 -10 82.5t-44 23.5q-18 4 -18 9q0 6 20 6q3 0 31 -2t56 -2q19 0 42.5 2t29.5 2q14 0 14 -6q0 -7 -17 -9q-30 -5 -36 -25.5t-6 -115.5q0 -24 -0.5 -145.5
t-0.5 -171.5q0 -137 -19 -197q-24 -81 -75.5 -124t-99.5 -43q-17 0 -29.5 8t-12.5 16q0 7 27 34q9 9 18 9q10 0 24 -9q17 -10 37 -10q21 0 41 22q31 37 31 199z" />
    <glyph glyph-name="ij" unicode="&#x133;" horiz-adv-x="379" 
d="M36 333q0 5 10 8q33 10 61 24q13 7 16 7q5 0 4 -14q-2 -19 -2 -158q0 -144 2 -161q1 -10 5.5 -16t9 -8t13.5 -4q15 -3 15 -8q0 -7 -16 -7q-1 0 -29 2t-40 2q-16 0 -33 -1t-20 -1q-12 0 -12 6q0 5 19 9q17 4 24 14.5t8 40.5q3 90 3 226q0 9 -5.5 15.5t-25.5 16.5
q-7 3 -7 7zM108 539q14 0 22 -10.5t8 -22.5q0 -16 -11 -24.5t-21 -8.5q-12 0 -20.5 9.5t-8.5 22.5q0 15 10 24.5t21 9.5zM223 331q0 5 18 11q48 20 57 25q8 5 14 5q5 0 5 -12q0 -46 -1 -142.5t-1 -134.5q0 -63 -5 -138q-5 -84 -47 -147.5t-88 -88.5q-4 -3 -10 -4.5t-10.5 -1
t-4.5 3.5q0 4 11 10q45 23 70 80t28 117q5 100 4 163q-2 86 -2 154q-1 69 -7 79q-6 8 -21 13q-10 5 -10 8zM290 474q-12 0 -20 10t-8 22q0 16 10.5 25.5t23.5 9.5q10 0 18.5 -9t8.5 -22q0 -15 -8 -25.5t-25 -10.5z" />
    <glyph glyph-name="Jcircumflex" unicode="&#x134;" horiz-adv-x="257" 
d="M106 67q0 335 -3 447q-2 67 -10 82.5t-44 23.5q-18 4 -18 9q0 6 20 6q3 0 31 -2t56 -2q19 0 42.5 2t29.5 2q14 0 14 -6q0 -7 -17 -9q-30 -5 -36 -25.5t-6 -115.5q0 -24 -0.5 -145.5t-0.5 -171.5q0 -137 -19 -197q-24 -81 -75.5 -124t-99.5 -43q-17 0 -29.5 8t-12.5 16
q0 7 27 34q9 9 18 9q10 0 24 -9q17 -10 37 -10q21 0 41 22q31 37 31 199zM133 771q8 0 20 -16q17 -21 79 -80q4 -5 2.5 -6.5t-5.5 -0.5q-25 7 -95 59q-3 2 -10 -1q-70 -50 -93 -59q-6 -1 -8 0t4 7q41 34 86 83q12 14 20 14z" />
    <glyph glyph-name="jcircumflex" unicode="&#x135;" horiz-adv-x="189" 
d="M33 331q0 5 18 11q48 20 57 25q8 5 14 5q5 0 5 -12q0 -46 -1 -142.5t-1 -134.5q0 -63 -5 -138q-5 -84 -47 -147.5t-88 -88.5q-4 -3 -10 -4.5t-10.5 -1t-4.5 3.5q0 4 11 10q45 23 70 80t28 117q5 100 4 163q-2 86 -2 154q-1 69 -7 79q-6 8 -21 13q-10 5 -10 8zM100 558
q2 0 7 -9q3 -5 28.5 -64.5t26.5 -64.5q6 -14 -1 -14q-5 0 -15 17q-23 35 -47 81q-4 5 -8 -1q-23 -38 -55 -84q-5 -8 -10 -8q-2 0 -1 4.5t3 9.5l52 104q11 20 13 23q4 6 7 6z" />
    <glyph glyph-name="Kcommaaccent" unicode="&#x136;" horiz-adv-x="602" 
d="M138 631q16 0 40 1.5t32 1.5q15 0 15 -6t-17 -8q-30 -7 -37.5 -26t-7.5 -86v-152q0 -16 3 -16q1 0 3 1q28 23 48 43q17 16 91.5 91t92.5 95q18 22 18 28q0 10 -32 17q-15 4 -15 9q0 7 16 7h18h24h24q15 1 36.5 2t35.5 2t21 1q12 0 12 -5q0 -6 -16 -9q-58 -12 -118 -63
q-52 -45 -197 -190q-7 -7 -7 -10q0 -1 10 -13q8 -8 73.5 -78t123.5 -131.5t78 -80.5q25 -22 39.5 -30t37.5 -13q19 -5 19 -11q0 -8 -18 -8q-9 0 -49.5 3t-60.5 3t-38 -1.5t-22 -1.5q-19 0 -19 7t16 11q26 5 26 15q0 9 -19 30q-38 43 -97 106.5t-99 105.5t-48 50l-7 4
q-4 0 -4 -19v-105q0 -113 4 -153q4 -29 44 -36q20 -4 20 -11t-19 -7q-12 0 -38.5 2.5t-40.5 2.5q-20 0 -45.5 -2t-30.5 -2q-16 0 -16 6q0 7 17 10q23 5 32 14t11 25q5 55 5 305q2 162 -4 221q-2 17 -8.5 26t-12.5 11.5t-24 7.5q-13 4 -13 8q0 6 15 6q9 0 37 -2.5t42 -2.5z
M295 -34q18 0 33 -15t15 -40t-16.5 -44t-31.5 -26t-21 -7q-11 0 -11 3t10 7q42 19 42 51q0 21 -21 29q-25 8 -25 21q0 9 8.5 15t17.5 6z" />
    <glyph glyph-name="kcommaaccent" unicode="&#x137;" horiz-adv-x="415" 
d="M239 358q10 0 30.5 -0.5t25.5 -0.5q7 0 38 2.5t43 2.5q14 0 14 -6t-14 -8q-28 -5 -45.5 -12.5t-49.5 -31.5q-50 -37 -102 -86q-3 -2 1 -6q18 -20 152 -154q41 -40 74 -47q15 -4 15 -9q0 -7 -16 -7q-11 0 -47 2.5t-55 2.5q-8 0 -22.5 -0.5t-21.5 -0.5q-19 0 -19 6t25 11
q25 6 10 27q-66 71 -131 132q-17 13 -19 13q-4 0 -4 -11q-2 -38 -2 -106q0 -35 6.5 -44t33.5 -15q15 -4 15 -8q0 -7 -20 -7q-14 0 -35.5 1.5t-34.5 1.5q-16 0 -34.5 -1.5t-23.5 -1.5q-16 0 -16 7q0 5 13 7q23 6 31.5 15.5t9.5 34.5q4 70 6 239q0 30 2 134t2 154q0 33 -4 45
q-2 9 -22 19q-9 4 -9 7t14 8q33 11 61 23q10 5 14 5q3 0 3 -9q-5 -80 -5 -189q0 -2 -2.5 -101t-2.5 -180q0 -17 5 -17q3 0 21 12q84 68 109 99q11 11 11 18q0 11 -26 15q-17 2 -17 8q0 7 15 7zM199 -36q18 0 33 -15t15 -40t-16.5 -44t-31.5 -26t-21 -7q-11 0 -11 3t10 7
q42 19 42 51q0 21 -21 29q-25 8 -25 21q0 9 8.5 15t17.5 6z" />
    <glyph glyph-name="kgreenlandic" unicode="&#x138;" horiz-adv-x="411" 
d="M27 356q0 5 24 5q42 0 71 11q1 0 2 -1t1.5 -4t0.5 -6q-4 -60 -4 -162q0 -7 4 -7q16 0 35 18q71 65 97 100q10 14 10 18q0 11 -29 16q-16 3 -16 7q0 6 13 6h60q7 0 35.5 2.5t39.5 2.5q16 0 16 -5q0 -4 -16 -8q-21 -4 -29 -6.5t-22.5 -11.5t-36.5 -27q-24 -20 -99 -92
q-5 -4 0 -9q23 -25 143 -145q24 -24 38.5 -33.5t41.5 -14.5q15 -3 15 -9t-16 -6q-3 0 -11.5 0.5t-23.5 1.5l-30 2q-14 1 -80 1q-20 0 -20 6q0 5 26 11q20 6 1 29q-54 57 -124 125q-12 8 -17 8q-4 0 -5 -12q-1 -9 -1 -96q0 -35 6.5 -45t35.5 -17q11 -2 11 -7t-19 -5
q-11 0 -36 1.5t-39 1.5q-17 0 -33 -1.5t-19 -1.5q-14 0 -14 4q0 5 10 8q23 5 33 16t11 36q4 82 4 141q0 47 -2 115q-2 9 -3 12t-7 7.5t-20 9.5q-13 5 -13 10z" />
    <glyph glyph-name="Lacute" unicode="&#x139;" horiz-adv-x="493" 
d="M37 630q0 5 16 5t44.5 -2t39.5 -2q14 0 40 2t33 2q16 0 16 -5q0 -6 -12 -9q-32 -7 -39 -19.5t-10 -67.5q-1 -17 -1 -194q0 -182 2 -220q5 -70 14 -81q20 -25 124 -25q69 0 94 5q31 5 62 62q8 14 15 14q3 -1 2 -8.5t-4 -16.5q-20 -60 -25 -67q-7 -10 -17 -10
q-104 0 -137 2q-128 5 -156 5q-18 0 -50.5 -2.5t-36.5 -2.5q-20 0 -20 7q0 6 17 8q31 6 40.5 17t12.5 36q4 41 4 246q0 191 -3 239q-2 45 -9.5 56t-41.5 17q-14 3 -14 9zM221 759q12 9 22 5q18 -6 18 -15q0 -4 -19 -17q-55 -37 -103 -62q-18 -9 -18 -2q0 3 6 9q67 62 94 82z
" />
    <glyph glyph-name="lacute" unicode="&#x13a;" horiz-adv-x="187" 
d="M120 361v-118q0 -134 3 -194q1 -19 7.5 -26.5t27.5 -10.5q14 -2 14 -7q0 -7 -21 -7q-4 0 -28 1t-34 1q-15 0 -37.5 -1t-25.5 -1q-17 0 -17 6q0 4 19 9q19 4 25.5 15t9.5 44q5 57 7 327v213q0 17 -4.5 24t-23.5 19q-9 5 -9 8q0 5 14 8q33 8 64 21q9 3 11 3q3 0 3 -12
q0 -1 -0.5 -22t-1.5 -54.5t-1.5 -73t-1 -86.5t-0.5 -86zM177 802q12 9 22 5q18 -6 18 -15q0 -4 -19 -17q-55 -37 -103 -62q-18 -9 -18 -2q0 3 6 9q67 62 94 82z" />
    <glyph glyph-name="Lcommaaccent" unicode="&#x13b;" horiz-adv-x="493" 
d="M37 630q0 5 16 5t44.5 -2t39.5 -2q14 0 40 2t33 2q16 0 16 -5q0 -6 -12 -9q-32 -7 -39 -19.5t-10 -67.5q-1 -17 -1 -194q0 -182 2 -220q5 -70 14 -81q20 -25 124 -25q69 0 94 5q31 5 62 62q8 14 15 14q3 -1 2 -8.5t-4 -16.5q-20 -60 -25 -67q-7 -10 -17 -10
q-104 0 -137 2q-128 5 -156 5q-18 0 -50.5 -2.5t-36.5 -2.5q-20 0 -20 7q0 6 17 8q31 6 40.5 17t12.5 36q4 41 4 246q0 191 -3 239q-2 45 -9.5 56t-41.5 17q-14 3 -14 9zM248 -38q18 0 33 -15t15 -40t-16.5 -44t-31.5 -26t-21 -7q-11 0 -11 3t10 7q42 19 42 51q0 21 -21 29
q-25 8 -25 21q0 9 8.5 15t17.5 6z" />
    <glyph glyph-name="lcommaaccent" unicode="&#x13c;" horiz-adv-x="187" 
d="M120 361v-118q0 -134 3 -194q1 -19 7.5 -26.5t27.5 -10.5q14 -2 14 -7q0 -7 -21 -7q-4 0 -28 1t-34 1q-15 0 -37.5 -1t-25.5 -1q-17 0 -17 6q0 4 19 9q19 4 25.5 15t9.5 44q5 57 7 327v213q0 17 -4.5 24t-23.5 19q-9 5 -9 8q0 5 14 8q33 8 64 21q9 3 11 3q3 0 3 -12
q0 -1 -0.5 -22t-1.5 -54.5t-1.5 -73t-1 -86.5t-0.5 -86zM81 -29q18 0 33 -15t15 -40t-16.5 -44t-31.5 -26t-21 -7q-11 0 -11 3t10 7q42 19 42 51q0 21 -21 29q-25 8 -25 21q0 9 8.5 15t17.5 6z" />
    <glyph glyph-name="Lcaron" unicode="&#x13d;" horiz-adv-x="493" 
d="M37 630q0 5 16 5t44.5 -2t39.5 -2q14 0 40 2t33 2q16 0 16 -5q0 -6 -12 -9q-32 -7 -39 -19.5t-10 -67.5q-1 -17 -1 -194q0 -182 2 -220q5 -70 14 -81q20 -25 124 -25q69 0 94 5q31 5 62 62q8 14 15 14q3 -1 2 -8.5t-4 -16.5q-20 -60 -25 -67q-7 -10 -17 -10
q-104 0 -137 2q-128 5 -156 5q-18 0 -50.5 -2.5t-36.5 -2.5q-20 0 -20 7q0 6 17 8q31 6 40.5 17t12.5 36q4 41 4 246q0 191 -3 239q-2 45 -9.5 56t-41.5 17q-14 3 -14 9zM327 644q8 0 4 -27q-8 -69 -25 -115q-8 -18 -9 -18q-2 -3 -4 -3.5t-3 0.5t-1 3q1 26 1.5 68.5
t-0.5 55.5q0 7 3 10q6 7 17.5 16.5t16.5 9.5z" />
    <glyph glyph-name="lcaron" unicode="&#x13e;" horiz-adv-x="187" 
d="M120 361v-118q0 -134 3 -194q1 -19 7.5 -26.5t27.5 -10.5q14 -2 14 -7q0 -7 -21 -7q-4 0 -28 1t-34 1q-15 0 -37.5 -1t-25.5 -1q-17 0 -17 6q0 4 19 9q19 4 25.5 15t9.5 44q5 57 7 327v213q0 17 -4.5 24t-23.5 19q-9 5 -9 8q0 5 14 8q33 8 64 21q9 3 11 3q3 0 3 -12
q0 -1 -0.5 -22t-1.5 -54.5t-1.5 -73t-1 -86.5t-0.5 -86zM201 691q8 0 4 -27q-8 -69 -25 -115q-8 -18 -9 -18q-2 -3 -4 -3.5t-3 0.5t-1 3q1 26 1.5 68.5t-0.5 55.5q0 7 3 10q6 7 17.5 16.5t16.5 9.5z" />
    <glyph glyph-name="Ldot" unicode="&#x13f;" horiz-adv-x="493" 
d="M37 630q0 5 16 5t44.5 -2t39.5 -2q14 0 40 2t33 2q16 0 16 -5q0 -6 -12 -9q-32 -7 -39 -19.5t-10 -67.5q-1 -17 -1 -194q0 -182 2 -220q5 -70 14 -81q20 -25 124 -25q69 0 94 5q31 5 62 62q8 14 15 14q3 -1 2 -8.5t-4 -16.5q-20 -60 -25 -67q-7 -10 -17 -10
q-104 0 -137 2q-128 5 -156 5q-18 0 -50.5 -2.5t-36.5 -2.5q-20 0 -20 7q0 6 17 8q31 6 40.5 17t12.5 36q4 41 4 246q0 191 -3 239q-2 45 -9.5 56t-41.5 17q-14 3 -14 9zM350 345q30 0 30 -33q0 -16 -10 -24.5t-22 -8.5t-20.5 8.5t-8.5 23.5q0 17 9.5 25.5t21.5 8.5z" />
    <glyph glyph-name="ldot" unicode="&#x140;" horiz-adv-x="187" 
d="M189 353q30 0 30 -33q0 -16 -10 -24.5t-22 -8.5t-20.5 8.5t-8.5 23.5q0 17 9.5 25.5t21.5 8.5zM120 361v-118q0 -134 3 -194q1 -19 7.5 -26.5t27.5 -10.5q14 -2 14 -7q0 -7 -21 -7q-4 0 -28 1t-34 1q-15 0 -37.5 -1t-25.5 -1q-17 0 -17 6q0 4 19 9q19 4 25.5 15t9.5 44
q5 57 7 327v213q0 17 -4.5 24t-23.5 19q-9 5 -9 8q0 5 14 8q33 8 64 21q9 3 11 3q3 0 3 -12q0 -1 -0.5 -22t-1.5 -54.5t-1.5 -73t-1 -86.5t-0.5 -86z" />
    <glyph glyph-name="Lslash" unicode="&#x141;" horiz-adv-x="503" 
d="M47 630q0 5 16 5t44.5 -2t39.5 -2q14 0 40 2t33 2q16 0 16 -5q0 -6 -12 -9q-32 -7 -39 -19.5t-10 -67.5q-1 -17 -1 -189q0 -4 4 -4q11 4 57.5 19.5t71.5 25.5q17 7 17 -4q0 -5 -18 -12q-19 -7 -64 -23.5t-64 -23.5q-4 -1 -4 -9q0 -160 2 -194q5 -70 14 -81
q20 -25 124 -25q69 0 94 5q31 5 62 62q8 14 15 14q3 -1 2 -8.5t-4 -16.5q-20 -60 -25 -67q-8 -10 -17 -10q-104 0 -137 2q-128 5 -156 5q-18 0 -50.5 -2.5t-36.5 -2.5q-20 0 -20 7q0 6 17 8q31 6 40.5 17t12.5 36q4 37 4 236q0 4 -4 2q-11 -3 -60 -18q-7 -2 -12.5 -0.5
t-5.5 4.5q0 6 13 11l65 22q4 1 4 10q0 172 -3 218q-2 45 -9.5 56t-41.5 17q-14 3 -14 9z" />
    <glyph glyph-name="lslash" unicode="&#x142;" horiz-adv-x="190" 
d="M41 663q0 5 14 8q33 8 64 21q9 3 11 3q3 0 3 -12q0 -1 -0.5 -22t-1.5 -54.5t-1.5 -73t-1 -86.5t-0.5 -86q0 -5 2 -5q24 9 60 21q1 1 4 -2t3 -4q0 -4 -11 -10q-3 -2 -54 -23q-4 -1 -4 -5v-90q0 -132 3 -186q1 -26 7.5 -34t27.5 -11q14 -2 14 -7q0 -7 -21 -7q-4 0 -28 1
t-34 1q-15 0 -37.5 -1t-25.5 -1q-17 0 -17 6q0 4 19 9q19 4 25.5 13.5t9.5 41.5q4 36 6 247q0 6 -5 3q-26 -10 -44 -16q-5 -1 -8 2.5t-3 5.5t3 4q3 1 23 9.5t30 12.5q5 2 5 10v53v213q0 17 -4.5 25t-23.5 18q-9 5 -9 8z" />
    <glyph glyph-name="Nacute" unicode="&#x143;" horiz-adv-x="738" 
d="M21 629q0 7 22 7q9 0 46.5 -2.5t57.5 -2.5q6 0 23 -22q93 -120 435 -501q1 -1 2 -1t2.5 2t1.5 7q0 18 -1 102t-2.5 188t-1.5 136q0 41 -12 55.5t-39 21.5q-19 5 -19 9q0 6 20 6q8 0 31.5 -1.5t35.5 -1.5q17 0 38.5 1.5t24.5 1.5q16 0 16 -5q0 -4 -17 -10q-18 -6 -28 -17
t-11.5 -17.5t-4.5 -25.5q-6 -45 -6 -348q0 -33 -0.5 -78t-0.5 -73t1 -52q2 -31 -6 -31q-3 0 -34 38q-27 33 -109 128t-188 218t-160 186q-8 10 -8 -2q0 -20 -1.5 -207t-1.5 -209q0 -62 11 -85q9 -21 49 -32q18 -5 18 -11t-19 -6q-7 0 -32.5 2.5t-43.5 2.5q-19 0 -43.5 -2.5
t-25.5 -2.5q-17 0 -17 6q0 5 19 10q30 8 39.5 22t13.5 57q2 26 6.5 207t4.5 231q0 59 -18 73t-49 19q-19 3 -19 9zM443 759q12 9 22 5q18 -6 18 -15q0 -4 -19 -17q-55 -37 -103 -62q-18 -9 -18 -2q0 3 6 9q67 62 94 82z" />
    <glyph glyph-name="nacute" unicode="&#x144;" horiz-adv-x="434" 
d="M294 559q8 0 8 -5q0 -4 -3 -9q-70 -107 -85 -129q-6 -10 -12 -10q-5 0 0 11q1 2 30.5 64.5t30.5 64.5q11 12 31 13zM263 369q47 0 77 -35q28 -31 30 -133q0 -25 0.5 -53.5t0.5 -51.5q1 -53 5.5 -65.5t24.5 -17.5q17 -6 17 -10q0 -7 -19 -7q-3 0 -25 2t-35 2t-29 -2
t-24 -2q-16 0 -16 6q0 7 22 11q16 4 21 12t5 32v131q0 61 -7 87t-26 41q-26 21 -61 21q-44 0 -89 -38q-12 -12 -12 -34q0 -62 1 -125q1 -59 6 -97q3 -24 33 -31q17 -4 17 -10t-20 -6q-2 0 -32.5 2t-43.5 2q-6 0 -23 -1t-24 -1q-18 0 -18 7q0 5 22 10q18 4 23 9.5t6 20.5
q2 78 2 248q0 22 -27 35q-8 5 -8 9q0 2 14 8q40 12 67 30q2 2 5 -1t2 -7q-3 -37 -2 -54q0 -6 5 -3q49 36 75 47q25 12 60 12z" />
    <glyph glyph-name="Ncommaaccent" unicode="&#x145;" horiz-adv-x="738" 
d="M21 629q0 7 22 7q9 0 46.5 -2.5t57.5 -2.5q6 0 23 -22q93 -120 435 -501q1 -1 2 -1t2.5 2t1.5 7q0 18 -1 102t-2.5 188t-1.5 136q0 41 -12 55.5t-39 21.5q-19 5 -19 9q0 6 20 6q8 0 31.5 -1.5t35.5 -1.5q17 0 38.5 1.5t24.5 1.5q16 0 16 -5q0 -4 -17 -10q-18 -6 -28 -17
t-11.5 -17.5t-4.5 -25.5q-6 -45 -6 -348q0 -33 -0.5 -78t-0.5 -73t1 -52q2 -31 -6 -31q-3 0 -34 38q-27 33 -109 128t-188 218t-160 186q-8 10 -8 -2q0 -20 -1.5 -207t-1.5 -209q0 -62 11 -85q9 -21 49 -32q18 -5 18 -11t-19 -6q-7 0 -32.5 2.5t-43.5 2.5q-19 0 -43.5 -2.5
t-25.5 -2.5q-17 0 -17 6q0 5 19 10q30 8 39.5 22t13.5 57q2 26 6.5 207t4.5 231q0 59 -18 73t-49 19q-19 3 -19 9zM355 -41q18 0 33 -15t15 -40t-16.5 -44t-31.5 -26t-21 -7q-11 0 -11 3t10 7q42 19 42 51q0 21 -21 29q-25 8 -25 21q0 9 8.5 15t17.5 6z" />
    <glyph glyph-name="ncommaaccent" unicode="&#x146;" horiz-adv-x="434" 
d="M263 369q47 0 77 -35q28 -31 30 -133q0 -25 0.5 -53.5t0.5 -51.5q1 -53 5.5 -65.5t24.5 -17.5q17 -6 17 -10q0 -7 -19 -7q-3 0 -25 2t-35 2t-29 -2t-24 -2q-16 0 -16 6q0 7 22 11q16 4 21 12t5 32v131q0 61 -7 87t-26 41q-26 21 -61 21q-44 0 -89 -38q-12 -12 -12 -34
q0 -62 1 -125q1 -59 6 -97q3 -24 33 -31q17 -4 17 -10t-20 -6q-2 0 -32.5 2t-43.5 2q-6 0 -23 -1t-24 -1q-18 0 -18 7q0 5 22 10q18 4 23 9.5t6 20.5q2 78 2 248q0 22 -27 35q-8 5 -8 9q0 2 14 8q40 12 67 30q2 2 5 -1t2 -7q-3 -37 -2 -54q0 -6 5 -3q49 36 75 47
q25 12 60 12zM218 -36q18 0 33 -15t15 -40t-16.5 -44t-31.5 -26t-21 -7q-11 0 -11 3t10 7q42 19 42 51q0 21 -21 29q-25 8 -25 21q0 9 8.5 15t17.5 6z" />
    <glyph glyph-name="Ncaron" unicode="&#x147;" horiz-adv-x="738" 
d="M21 629q0 7 22 7q9 0 46.5 -2.5t57.5 -2.5q6 0 23 -22q93 -120 435 -501q1 -1 2 -1t2.5 2t1.5 7q0 18 -1 102t-2.5 188t-1.5 136q0 41 -12 55.5t-39 21.5q-19 5 -19 9q0 6 20 6q8 0 31.5 -1.5t35.5 -1.5q17 0 38.5 1.5t24.5 1.5q16 0 16 -5q0 -4 -17 -10q-18 -6 -28 -17
t-11.5 -17.5t-4.5 -25.5q-6 -45 -6 -348q0 -33 -0.5 -78t-0.5 -73t1 -52q2 -31 -6 -31q-3 0 -34 38q-27 33 -109 128t-188 218t-160 186q-8 10 -8 -2q0 -20 -1.5 -207t-1.5 -209q0 -62 11 -85q9 -21 49 -32q18 -5 18 -11t-19 -6q-7 0 -32.5 2.5t-43.5 2.5q-19 0 -43.5 -2.5
t-25.5 -2.5q-17 0 -17 6q0 5 19 10q30 8 39.5 22t13.5 57q2 26 6.5 207t4.5 231q0 59 -18 73t-49 19q-19 3 -19 9zM374 656q-7 0 -18 15q-20 25 -81 81q-5 6 -3 7t6 0q28 -7 95 -58q3 -2 10 1q67 48 93 58q6 1 8 0t-4 -7q-49 -40 -88 -83q-12 -14 -18 -14z" />
    <glyph glyph-name="ncaron" unicode="&#x148;" horiz-adv-x="434" 
d="M218 406q-2 0 -7 10q-3 6 -28.5 64.5t-26.5 63.5q-6 14 1 14q4 0 15 -18q36 -56 48 -80q1 -2 3.5 -1.5t3.5 2.5q2 3 10.5 16.5t20 31.5t24.5 36q3 8 10 8q1 0 1.5 -2t-0.5 -5t-3 -6q-7 -20 -52 -104q-2 -4 -5.5 -10t-5.5 -10l-3 -6q-3 -4 -6 -4zM263 369q47 0 77 -35
q28 -31 30 -133q0 -25 0.5 -53.5t0.5 -51.5q1 -53 5.5 -65.5t24.5 -17.5q17 -6 17 -10q0 -7 -19 -7q-3 0 -25 2t-35 2t-29 -2t-24 -2q-16 0 -16 6q0 7 22 11q16 4 21 12t5 32v131q0 61 -7 87t-26 41q-26 21 -61 21q-44 0 -89 -38q-12 -12 -12 -34q0 -62 1 -125q1 -59 6 -97
q3 -24 33 -31q17 -4 17 -10t-20 -6q-2 0 -32.5 2t-43.5 2q-6 0 -23 -1t-24 -1q-18 0 -18 7q0 5 22 10q18 4 23 9.5t6 20.5q2 78 2 248q0 22 -27 35q-8 5 -8 9q0 2 14 8q40 12 67 30q2 2 5 -1t2 -7q-3 -37 -2 -54q0 -6 5 -3q49 36 75 47q25 12 60 12z" />
    <glyph glyph-name="napostrophe" unicode="&#x149;" horiz-adv-x="434" 
d="M263 369q47 0 77 -35q28 -31 30 -133q0 -25 0.5 -53.5t0.5 -51.5q1 -53 5.5 -65.5t24.5 -17.5q17 -6 17 -10q0 -7 -19 -7q-3 0 -25 2t-35 2t-29 -2t-24 -2q-16 0 -16 6q0 7 22 11q16 4 21 12t5 32v131q0 61 -7 87t-26 41q-26 21 -61 21q-44 0 -89 -38q-12 -12 -12 -34
q0 -62 1 -125q1 -59 6 -97q3 -24 33 -31q17 -4 17 -10t-20 -6q-2 0 -32.5 2t-43.5 2q-6 0 -23 -1t-24 -1q-18 0 -18 7q0 5 22 10q18 4 23 9.5t6 20.5q2 78 2 248q0 22 -27 35q-8 5 -8 9q0 2 14 8q40 12 67 30q2 2 5 -1t2 -7q-3 -37 -2 -54q0 -6 5 -3q49 36 75 47
q25 12 60 12zM81 555q17 0 31.5 -14.5t14.5 -38.5t-15.5 -42t-30 -24.5t-20.5 -6.5q-10 0 -10 3t10 7q39 18 39 48q0 20 -20 28q-1 0 -5.5 1.5t-5.5 2t-4.5 2.5t-4.5 3.5t-2 4.5t-1 6q0 8 8 14t16 6z" />
    <glyph glyph-name="Eng" unicode="&#x14a;" horiz-adv-x="738" 
d="M21 628q0 7 22 7q9 0 46.5 -2t57.5 -2q6 0 23 -22q82 -106 435 -499q1 -1 2 -1t2.5 2t1.5 7q0 18 -1 101.5t-2.5 187t-1.5 135.5q0 42 -11 56.5t-40 20.5q-19 3 -19 9t20 6q8 0 31.5 -1.5t35.5 -1.5q17 0 38.5 1.5t24.5 1.5q16 0 16 -5q0 -6 -17 -10q-7 -2 -12 -4
t-9 -5.5t-7 -5.5t-5.5 -7t-3.5 -6t-2.5 -7.5t-2 -7.5t-1.5 -9l-1 -8q-6 -45 -6 -463q0 -109 -9 -162t-27 -88q-15 -26 -35.5 -40.5t-32.5 -14.5q-19 0 -30.5 9t-13.5 20q-1 3 0 7.5t3 4.5q50 5 77 26q23 17 31 39.5t8 65.5q0 34 -21 65q-41 49 -213 248t-234 271
q-8 10 -8 -2q0 -20 -1.5 -207t-1.5 -209q0 -62 11 -85q9 -21 49 -32q18 -5 18 -11t-19 -6q-7 0 -32.5 2.5t-43.5 2.5q-19 0 -43.5 -2.5t-25.5 -2.5q-17 0 -17 6q0 7 19 10q27 5 38 21t15 58q2 26 6.5 207t4.5 231q0 61 -20 77q-9 8 -47 14q-19 3 -19 9z" />
    <glyph glyph-name="eng" unicode="&#x14b;" horiz-adv-x="425" 
d="M365 210l-1 -196q-4 -107 -18 -175t-55 -110q-9 -9 -27 -18.5t-31 -9.5q-21 0 -31 10q-8 8 -8 27q0 3 2 5.5t4 1.5q20 -12 58 -12q36 0 46.5 54t10.5 200q0 22 -0.5 92.5t-1.5 108.5q-2 62 -8.5 87t-24.5 41q-24 21 -56 21q-44 0 -86 -34q-15 -14 -15 -38q0 -62 1 -125
q1 -77 4 -98q1 -11 7.5 -17.5t11.5 -8t16 -4.5q17 -4 17 -10t-20 -6q-2 0 -32.5 2t-43.5 2q-6 0 -23 -1t-24 -1q-18 0 -18 7q0 5 22 10q17 4 22.5 11t6.5 26q2 78 2 235q0 16 -5 24.5t-22 16.5q-8 5 -8 9q0 2 14 8q20 6 64 30q4 3 7 0t3 -8q-1 -7 -1.5 -26t-0.5 -27
q0 -9 12 1q39 29 71 42q25 12 52 12q48 0 77 -34q28 -31 30 -125z" />
    <glyph glyph-name="Omacron" unicode="&#x14c;" horiz-adv-x="734" 
d="M368 649q128 0 224 -101.5t96 -239.5q0 -110 -58 -187.5t-129 -108.5q-67 -30 -129 -30q-133 0 -229.5 102t-96.5 240q0 163 129 261q38 29 91 46.5t102 17.5zM348 634q-41 0 -85.5 -22.5t-71.5 -52.5q-75 -87 -75 -236q0 -52 20 -109.5t53 -101.5q83 -111 201 -111
q59 0 108 36t85 106.5t36 163.5q0 65 -25 131t-69 116q-71 80 -177 80zM288 729q57 3 165 3q5 0 5 -7q0 -9 -5 -19q-3 -4 -5 -4q-40 -4 -166 -4q-5 0 -5 9q0 10 5 18q4 4 6 4z" />
    <glyph glyph-name="omacron" unicode="&#x14d;" horiz-adv-x="446" 
d="M153 500q57 3 145 3q5 0 5 -7q0 -9 -5 -19q-3 -4 -5 -4q-40 -4 -146 -4q-5 0 -5 9q0 10 5 18q4 4 6 4zM223 369q79 0 134 -54.5t55 -134.5q0 -51 -23.5 -90.5t-53.5 -63.5q-50 -38 -110 -38q-75 0 -133 53.5t-58 129.5q0 99 73 157q51 41 116 41zM205 352
q-45 0 -79.5 -42t-34.5 -119q0 -78 47 -134q42 -52 101 -52q39 0 71 27q16 13 30.5 49t14.5 84q0 71 -41 129t-109 58z" />
    <glyph glyph-name="Obreve" unicode="&#x14e;" horiz-adv-x="734" 
d="M368 649q128 0 224 -101.5t96 -239.5q0 -110 -58 -187.5t-129 -108.5q-67 -30 -129 -30q-133 0 -229.5 102t-96.5 240q0 163 129 261q38 29 91 46.5t102 17.5zM348 634q-41 0 -85.5 -22.5t-71.5 -52.5q-75 -87 -75 -236q0 -52 20 -109.5t53 -101.5q83 -111 201 -111
q59 0 108 36t85 106.5t36 163.5q0 65 -25 131t-69 116q-71 80 -177 80zM365 685q-79 0 -89 72q-1 4 0 9.5t4 5.5t7 -10q16 -41 78 -41q60 0 81 38q5 10 8 10q4 0 4 -8q-2 -25 -26.5 -50.5t-66.5 -25.5z" />
    <glyph glyph-name="obreve" unicode="&#x14f;" horiz-adv-x="446" 
d="M214 433q-31 0 -49 22.5t-19 62.5q0 15 5 15q7 0 9 -15q9 -50 54 -50q54 0 65 52q3 10 7 10t4 -13q-1 -29 -19.5 -56.5t-56.5 -27.5zM223 369q79 0 134 -54.5t55 -134.5q0 -51 -23.5 -90.5t-53.5 -63.5q-50 -38 -110 -38q-75 0 -133 53.5t-58 129.5q0 99 73 157
q51 41 116 41zM205 352q-45 0 -79.5 -42t-34.5 -119q0 -78 47 -134q42 -52 101 -52q39 0 71 27q16 13 30.5 49t14.5 84q0 71 -41 129t-109 58z" />
    <glyph glyph-name="Ohungarumlaut" unicode="&#x150;" horiz-adv-x="734" 
d="M368 649q128 0 224 -101.5t96 -239.5q0 -110 -58 -187.5t-129 -108.5q-67 -30 -129 -30q-133 0 -229.5 102t-96.5 240q0 163 129 261q38 29 91 46.5t102 17.5zM348 634q-41 0 -85.5 -22.5t-71.5 -52.5q-75 -87 -75 -236q0 -52 20 -109.5t53 -101.5q83 -111 201 -111
q59 0 108 36t85 106.5t36 163.5q0 65 -25 131t-69 116q-71 80 -177 80zM351 777q6 0 16 -3t10 -8t-8 -15q-56 -73 -57 -74q-9 -9 -13 -9q-5 0 0 13q24 56 36 80q10 16 16 16zM452 787q27 0 27 -7t-7 -15q-2 -3 -27 -37t-33 -44q-9 -12 -17 -12q-2 2 -1.5 4.5t2.5 8.5
q36 76 41 86q8 16 15 16z" />
    <glyph glyph-name="ohungarumlaut" unicode="&#x151;" horiz-adv-x="446" 
d="M229 541q8 0 8 -4q0 -8 -4 -14q-9 -20 -31.5 -60.5t-27.5 -50.5q-7 -12 -11 -12t-1 13q37 110 40 115q12 12 27 13zM322 550q7 0 7 -4q0 -8 -3 -13q-20 -43 -62 -117q-6 -10 -10 -10t-2 11q37 111 41 117q16 16 29 16zM223 369q79 0 134 -54.5t55 -134.5
q0 -51 -23.5 -90.5t-53.5 -63.5q-50 -38 -110 -38q-75 0 -133 53.5t-58 129.5q0 99 73 157q51 41 116 41zM205 352q-45 0 -79.5 -42t-34.5 -119q0 -78 47 -134q42 -52 101 -52q39 0 71 27q16 13 30.5 49t14.5 84q0 71 -41 129t-109 58z" />
    <glyph glyph-name="OE" unicode="&#x152;" horiz-adv-x="1033" 
d="M352 632q-42 0 -86.5 -21t-72.5 -52q-78 -86 -78 -246q0 -69 35 -140.5t99 -121t137 -49.5q74 0 125 34q53 35 89 105.5t36 165.5q0 148 -95 249q-74 76 -189 76zM373 648q77 0 145.5 -37.5t110.5 -102.5q5 -7 5 3t-1 35t-2 45.5t-1 21.5q0 19 8 19q4 0 25.5 -0.5
t26.5 -0.5q19 0 98 1t99 1q42 0 62 2q4 0 7 -17q6 -56 8 -72q1 -4 -1 -8.5t-4 -4.5q-3 0 -10 15q-25 60 -52 63q-15 3 -188 3q-7 0 -11 -7t-5 -13l-1 -7v-101q-1 -102 -1 -147q0 -14 6 -14h131q61 0 69 7q4 1 9 8.5t10 17t6 10.5q7 10 9 10q4 0 4 -10q0 -3 -2.5 -23.5
t-2.5 -27.5q0 -42 2 -56q3 -17 -6 -17q-4 0 -12 18q-12 30 -22 33q-26 6 -196 6q-7 0 -7 -22q0 -122 4 -198q0 -28 5 -40.5t20 -17.5q22 -8 100 -8q69 0 93 4t40 17q13 10 38 44q11 16 14 16q6 0 1 -15q-1 -1 -7 -19.5t-12 -35t-9 -21.5q-6 -9 -11 -9q-57 0 -143 2t-119 2
q-46 0 -67 -3q-5 -1 -7.5 1.5t-1.5 12.5q3 46 3 98q0 12 -7 2q-42 -59 -107.5 -93t-138.5 -34q-138 0 -234.5 101t-96.5 239q0 166 135 264q79 60 192 60z" />
    <glyph glyph-name="oe" unicode="&#x153;" horiz-adv-x="633" 
d="M228 369q39 0 80 -20.5t59 -45.5q3 -3 8 1q20 26 56.5 45.5t75.5 19.5q45 0 78.5 -25.5t33.5 -68.5q0 -11 -13 -14q-26 0 -76.5 -0.5t-76.5 -0.5h-47q-5 0 -8 -8q-6 -16 -6 -43q0 -75 29 -127q14 -23 40 -38t51 -15q34 0 82 23q11 6 11 -1q0 -6 -10 -15q-47 -44 -116 -44
q-56 0 -111 61q-4 4 -9 -1q-34 -34 -62.5 -49t-70.5 -15q-80 0 -136 54.5t-56 132.5q0 95 80 156q48 38 114 38zM505 355q-33 0 -58 -15q-20 -11 -31 -28t-11 -27q0 -8 13 -8q7 0 69 -1t65 -1q16 0 16 12q0 40 -21 56q-15 12 -42 12zM215 352q-44 0 -73.5 -27.5t-39.5 -59
t-10 -63.5q0 -80 37 -133q45 -66 113 -66q44 0 73 35q32 35 32 119q0 50 -11.5 91.5t-42.5 72.5t-78 31z" />
    <glyph glyph-name="Racute" unicode="&#x154;" horiz-adv-x="550" 
d="M236 636q84 0 132 -35q62 -45 62 -120q0 -69 -57 -114q-20 -18 -61 -33q-5 -2 2 -19q15 -28 53 -89t60 -90q42 -57 73 -88q41 -41 79 -41q13 0 13 -6q0 -4 -12 -8q-11 -4 -38 -4q-74 0 -138 79q-30 38 -87.5 127t-61.5 93q-18 20 -31 23q-17 5 -50 4q-8 0 -10 -8
q-1 -7 -2 -77.5t0 -100.5q2 -72 8 -91q7 -21 47 -28q15 -3 15 -8q0 -7 -20 -7q-9 0 -32 2.5t-42 2.5q-21 0 -49.5 -2.5t-35.5 -2.5q-17 0 -17 7q0 4 20 9q24 5 33.5 16t11.5 41q5 95 5 277q0 129 -6 225q-1 17 -3.5 25t-12.5 15t-30 10q-17 4 -17 9q0 6 18 6q4 0 28.5 -2
t45.5 -2q19 0 55 2.5t52 2.5zM202 621q-21 0 -33 -7q-5 -3 -6 -17q-1 -20 -1 -248q0 -18 7 -18q6 -1 27 -1q25 0 61 6t50 15q60 43 60 115q0 76 -42 115q-43 40 -123 40zM310 766q12 9 22 5q18 -6 18 -15q0 -4 -19 -17q-55 -37 -103 -62q-18 -9 -18 -2q0 3 6 9q67 62 94 82z
" />
    <glyph glyph-name="racute" unicode="&#x155;" horiz-adv-x="277" 
d="M224 560q8 0 8 -5t-3 -9q-70 -107 -85 -129q-6 -10 -12 -10q-5 0 0 11q1 2 30.5 64.5t30.5 64.5q11 11 31 13zM193 322q-23 0 -48 -23q-18 -20 -20 -40q-1 -9 -1 -54q0 -111 4 -151q3 -23 15 -31.5t42 -10.5q19 -3 19 -9q0 -7 -25 -7q-4 0 -37.5 2t-56.5 2q-15 0 -32 -3
t-20 -3q-15 0 -15 5q0 6 14 10q32 8 37 41q3 26 3 140v115q0 4 -2 6.5t-10.5 8.5t-13.5 10q-8 6 -8 10t17 9q29 8 50 20q9 5 14 5q4 0 4 -15q0 -3 -0.5 -30t-0.5 -34q0 -5 5 0q61 71 110 71q20 0 36 -14q4 -4 4 -12q0 -13 -18 -27q-9 -8 -15 -8q-4 0 -18 7q-18 10 -33 10z
" />
    <glyph glyph-name="Rcommaaccent" unicode="&#x156;" horiz-adv-x="550" 
d="M236 636q84 0 132 -35q62 -45 62 -120q0 -69 -57 -114q-20 -18 -61 -33q-5 -2 2 -19q15 -28 53 -89t60 -90q42 -57 73 -88q41 -41 79 -41q13 0 13 -6q0 -4 -12 -8q-11 -4 -38 -4q-74 0 -138 79q-30 38 -87.5 127t-61.5 93q-18 20 -31 23q-17 5 -50 4q-8 0 -10 -8
q-1 -7 -2 -77.5t0 -100.5q2 -72 8 -91q7 -21 47 -28q15 -3 15 -8q0 -7 -20 -7q-9 0 -32 2.5t-42 2.5q-21 0 -49.5 -2.5t-35.5 -2.5q-17 0 -17 7q0 4 20 9q24 5 33.5 16t11.5 41q5 95 5 277q0 129 -6 225q-1 17 -3.5 25t-12.5 15t-30 10q-17 4 -17 9q0 6 18 6q4 0 28.5 -2
t45.5 -2q19 0 55 2.5t52 2.5zM202 621q-21 0 -33 -7q-5 -3 -6 -17q-1 -20 -1 -248q0 -18 7 -18q6 -1 27 -1q25 0 61 6t50 15q60 43 60 115q0 76 -42 115q-43 40 -123 40zM289 -32q18 0 33 -15t15 -40t-16.5 -44t-31.5 -26t-21 -7q-11 0 -11 3t10 7q42 19 42 51q0 21 -21 29
q-25 8 -25 21q0 9 8.5 15t17.5 6z" />
    <glyph glyph-name="rcommaaccent" unicode="&#x157;" horiz-adv-x="277" 
d="M193 322q-23 0 -48 -23q-18 -20 -20 -40q-1 -9 -1 -54q0 -111 4 -151q3 -23 15 -31.5t42 -10.5q19 -3 19 -9q0 -7 -25 -7q-4 0 -37.5 2t-56.5 2q-15 0 -32 -3t-20 -3q-15 0 -15 5q0 6 14 10q32 8 37 41q3 26 3 140v115q0 4 -2 6.5t-10.5 8.5t-13.5 10q-8 6 -8 10t17 9
q29 8 50 20q9 5 14 5q4 0 4 -15q0 -3 -0.5 -30t-0.5 -34q0 -5 5 0q61 71 110 71q20 0 36 -14q4 -4 4 -12q0 -13 -18 -27q-9 -8 -15 -8q-4 0 -18 7q-18 10 -33 10zM90 -39q18 0 33 -15t15 -40t-16.5 -44t-31.5 -26t-21 -7q-11 0 -11 3t10 7q42 19 42 51q0 21 -21 29
q-25 8 -25 21q0 9 8.5 15t17.5 6z" />
    <glyph glyph-name="Rcaron" unicode="&#x158;" horiz-adv-x="550" 
d="M236 636q84 0 132 -35q62 -45 62 -120q0 -69 -57 -114q-20 -18 -61 -33q-5 -2 2 -19q15 -28 53 -89t60 -90q42 -57 73 -88q41 -41 79 -41q13 0 13 -6q0 -4 -12 -8q-11 -4 -38 -4q-74 0 -138 79q-30 38 -87.5 127t-61.5 93q-18 20 -31 23q-17 5 -50 4q-8 0 -10 -8
q-1 -7 -2 -77.5t0 -100.5q2 -72 8 -91q7 -21 47 -28q15 -3 15 -8q0 -7 -20 -7q-9 0 -32 2.5t-42 2.5q-21 0 -49.5 -2.5t-35.5 -2.5q-17 0 -17 7q0 4 20 9q24 5 33.5 16t11.5 41q5 95 5 277q0 129 -6 225q-1 17 -3.5 25t-12.5 15t-30 10q-17 4 -17 9q0 6 18 6q4 0 28.5 -2
t45.5 -2q19 0 55 2.5t52 2.5zM202 621q-21 0 -33 -7q-5 -3 -6 -17q-1 -20 -1 -248q0 -18 7 -18q6 -1 27 -1q25 0 61 6t50 15q60 43 60 115q0 76 -42 115q-43 40 -123 40zM230 666q-7 0 -18 15q-20 25 -81 81q-5 6 -3 7t6 0q28 -7 95 -58q3 -2 10 1q67 48 93 58q6 1 8 0
t-4 -7q-49 -40 -88 -83q-12 -14 -18 -14z" />
    <glyph glyph-name="rcaron" unicode="&#x159;" horiz-adv-x="277" 
d="M133 406q-2 0 -7 10q-3 6 -28.5 64.5t-26.5 63.5q-6 14 1 14q4 0 15 -18q36 -56 48 -80q1 -2 3.5 -1.5t3.5 2.5q2 3 10.5 16.5t20 31.5t24.5 36q3 8 10 8q1 0 1.5 -2t-0.5 -5t-3 -6q-7 -20 -52 -104q-2 -4 -5.5 -10t-5.5 -10l-3 -6q-3 -4 -6 -4zM193 322q-23 0 -48 -23
q-18 -20 -20 -40q-1 -9 -1 -54q0 -111 4 -151q3 -23 15 -31.5t42 -10.5q19 -3 19 -9q0 -7 -25 -7q-4 0 -37.5 2t-56.5 2q-15 0 -32 -3t-20 -3q-15 0 -15 5q0 6 14 10q32 8 37 41q3 26 3 140v115q0 4 -2 6.5t-10.5 8.5t-13.5 10q-8 6 -8 10t17 9q29 8 50 20q9 5 14 5
q4 0 4 -15q0 -3 -0.5 -30t-0.5 -34q0 -5 5 0q61 71 110 71q20 0 36 -14q4 -4 4 -12q0 -13 -18 -27q-9 -8 -15 -8q-4 0 -18 7q-18 10 -33 10z" />
    <glyph glyph-name="Sacute" unicode="&#x15a;" horiz-adv-x="430" 
d="M257 649q41 0 105 -17q7 -3 7 -11q0 -25 4 -65q3 -20 -5 -20q-6 0 -9 15q-10 42 -36 59q-32 24 -82 24q-40 0 -79 -35.5t-39 -93.5q0 -69 75 -120q38 -25 104 -74q90 -65 90 -153q0 -78 -62 -127t-142 -49q-81 0 -132 28q-15 8 -19 30q0 2 -4 27.5t-5 40.5q-2 17 5 17
q6 0 11 -19q13 -54 53.5 -80.5t92.5 -26.5q59 0 97.5 41.5t38.5 94.5q0 35 -18 64.5t-39.5 47t-67.5 48.5q-62 42 -97.5 85t-35.5 100q0 80 63 129q50 40 126 40zM308 773q12 9 22 5q18 -6 18 -15q0 -4 -19 -17q-55 -37 -103 -62q-18 -9 -18 -2q0 3 6 9q67 62 94 82z" />
    <glyph glyph-name="sacute" unicode="&#x15b;" horiz-adv-x="275" 
d="M220 559q8 0 8 -5q0 -4 -3 -9q-70 -107 -85 -129q-6 -10 -12 -10q-5 0 0 11q1 2 30.5 64.5t30.5 64.5q11 12 31 13zM156 354q-27 0 -44.5 -17t-17.5 -48q0 -46 59 -80q52 -33 72 -57t20 -61q0 -52 -54 -83q-31 -20 -73 -20q-31 0 -76 18q-13 5 -13 15q0 12 -3 48
q-2 15 3 15t12 -19q12 -33 42 -51q20 -12 43 -12q24 0 46 21t22 51q0 28 -16 46t-48 39q-83 53 -83 106q0 46 32 74q36 30 84 30q34 0 64 -11q5 -2 5 -8q0 -5 2.5 -21.5t3.5 -22.5q0 -16 -5 -16q-3 0 -8 12q-11 28 -24 38q-19 14 -45 14z" />
    <glyph glyph-name="Scircumflex" unicode="&#x15c;" horiz-adv-x="430" 
d="M257 649q41 0 105 -17q7 -3 7 -11q0 -25 4 -65q3 -20 -5 -20q-6 0 -9 15q-10 42 -36 59q-32 24 -82 24q-40 0 -79 -35.5t-39 -93.5q0 -69 75 -120q38 -25 104 -74q90 -65 90 -153q0 -78 -62 -127t-142 -49q-81 0 -132 28q-15 8 -19 30q0 2 -4 27.5t-5 40.5q-2 17 5 17
q6 0 11 -19q13 -54 53.5 -80.5t92.5 -26.5q59 0 97.5 41.5t38.5 94.5q0 35 -18 64.5t-39.5 47t-67.5 48.5q-62 42 -97.5 85t-35.5 100q0 80 63 129q50 40 126 40zM243 781q8 0 20 -16q17 -21 79 -80q4 -5 2.5 -6.5t-5.5 -0.5q-25 7 -95 59q-3 2 -10 -1q-70 -50 -93 -59
q-6 -1 -8 0t4 7q41 34 86 83q12 14 20 14z" />
    <glyph glyph-name="scircumflex" unicode="&#x15d;" horiz-adv-x="275" 
d="M151 557q3 0 7 -9q3 -5 28.5 -64.5t26.5 -64.5q6 -14 -1 -14q-5 0 -15 17q-23 35 -47 81q-4 5 -8 -1q-23 -38 -55 -84q-5 -8 -10 -8q-2 0 -1 4.5t3 9.5l52 104q11 20 13 23q4 6 7 6zM156 354q-27 0 -44.5 -17t-17.5 -48q0 -46 59 -80q52 -33 72 -57t20 -61q0 -52 -54 -83
q-31 -20 -73 -20q-31 0 -76 18q-13 5 -13 15q0 12 -3 48q-2 15 3 15t12 -19q12 -33 42 -51q20 -12 43 -12q24 0 46 21t22 51q0 28 -16 46t-48 39q-83 53 -83 106q0 46 32 74q36 30 84 30q34 0 64 -11q5 -2 5 -8q0 -5 2.5 -21.5t3.5 -22.5q0 -16 -5 -16q-3 0 -8 12
q-11 28 -24 38q-19 14 -45 14z" />
    <glyph glyph-name="Scedilla" unicode="&#x15e;" horiz-adv-x="421" 
d="M253 -125q0 -32 -28.5 -57t-57.5 -25q-19 0 -31 10t-12 21q0 6 8 13t16 7t17 -19q6 -14 23 -14q13 0 23.5 11t10.5 32q0 37 -51 56q-11 4 -11 8q0 3 4 7q4 5 13.5 14.5t24 23.5t22.5 22q-18 -3 -36 -3q-81 0 -132 28q-15 8 -19 30q0 2 -4 27.5t-5 40.5q-2 17 5 17
q6 0 11 -19q13 -54 53.5 -80.5t92.5 -26.5q59 0 97.5 41.5t38.5 94.5q0 35 -18 64.5t-39.5 47t-67.5 48.5q-62 42 -97.5 85t-35.5 100q0 80 63 129q50 40 126 40q41 0 105 -17q7 -3 7 -11q0 -25 4 -65q3 -20 -5 -20q-6 0 -9 15q-10 42 -36 59q-32 24 -82 24q-40 0 -79 -35.5
t-39 -93.5q0 -69 75 -120q38 -25 104 -74q90 -65 90 -153q0 -64 -43 -109.5t-107 -59.5q-32 -35 -34 -38q-4 -5 -1 -8q1 -1 9 -6t11 -7.5t9 -8.5t9 -12t5.5 -15t2.5 -19z" />
    <glyph glyph-name="scedilla" unicode="&#x15f;" horiz-adv-x="275" 
d="M163 369q34 0 64 -11q5 -2 5 -8q0 -5 2.5 -21.5t3.5 -22.5q0 -16 -5 -16q-3 0 -8 12q-21 54 -72 54q-27 0 -43 -18t-16 -49q0 -46 59 -80q52 -33 72 -57t20 -61q0 -52 -54 -83q-4 -3 -12 -7q-39 -39 -41 -42q-5 -7 -3 -9q2 -1 10.5 -7t13 -10t10.5 -11t9 -16.5t3 -21.5
q0 -30 -27 -54t-55 -24q-18 0 -29.5 9t-11.5 20q0 6 7.5 12.5t15.5 6.5q7 0 16 -18q7 -13 22 -13q13 0 22.5 10.5t9.5 30.5q0 36 -48 53q-11 4 -11 8q0 3 4 7q4 5 14.5 15t25 24t23.5 23q-21 -6 -41 -6q-31 0 -76 18q-13 5 -13 15q0 12 -3 48q-2 15 3 15t12 -19
q11 -31 36.5 -47t48.5 -16q24 0 46 21t22 51q0 28 -16 46t-48 39q-83 53 -83 106q0 46 32 74q36 30 84 30z" />
    <glyph glyph-name="Scaron" unicode="&#x160;" horiz-adv-x="430" 
d="M257 649q41 0 105 -17q7 -3 7 -11q0 -25 4 -65q3 -20 -5 -20q-6 0 -9 15q-10 42 -36 59q-32 24 -82 24q-40 0 -79 -35.5t-39 -93.5q0 -69 75 -120q38 -25 104 -74q90 -65 90 -153q0 -78 -62 -127t-142 -49q-81 0 -132 28q-15 8 -19 30q0 2 -4 27.5t-5 40.5q-2 17 5 17
q6 0 11 -19q13 -54 53.5 -80.5t92.5 -26.5q59 0 97.5 41.5t38.5 94.5q0 35 -18 64.5t-39.5 47t-67.5 48.5q-62 42 -97.5 85t-35.5 100q0 80 63 129q50 40 126 40zM235 679q-7 0 -18 15q-20 25 -81 81q-5 6 -3 7t6 0q28 -7 95 -58q3 -2 10 1q67 48 93 58q6 1 8 0t-4 -7
q-49 -40 -88 -83q-12 -14 -18 -14z" />
    <glyph glyph-name="scaron" unicode="&#x161;" horiz-adv-x="275" 
d="M150 406q-2 0 -7 10q-3 6 -28.5 64.5t-26.5 63.5q-6 14 1 14q4 0 15 -18q36 -56 48 -80q1 -2 3.5 -1.5t3.5 2.5q2 3 10.5 16.5t20 31.5t24.5 36q3 8 10 8q1 0 1.5 -2t-0.5 -5t-3 -6q-7 -20 -52 -104q-2 -4 -5.5 -10t-5.5 -10l-3 -6q-3 -4 -6 -4zM156 354q-27 0 -44.5 -17
t-17.5 -48q0 -46 59 -80q52 -33 72 -57t20 -61q0 -52 -54 -83q-31 -20 -73 -20q-31 0 -76 18q-13 5 -13 15q0 12 -3 48q-2 15 3 15t12 -19q12 -33 42 -51q20 -12 43 -12q24 0 46 21t22 51q0 28 -16 46t-48 39q-83 53 -83 106q0 46 32 74q36 30 84 30q34 0 64 -11q5 -2 5 -8
q0 -5 2.5 -21.5t3.5 -22.5q0 -16 -5 -16q-3 0 -8 12q-11 28 -24 38q-19 14 -45 14z" />
    <glyph glyph-name="Tcommaaccent" unicode="&#x162;" horiz-adv-x="562" 
d="M281 631l188 1q42 0 63 11q6 5 8 1q1 -4 0 -12q-3 -12 -3 -72q0 -23 -8 -23q-5 0 -7 15q-4 32 -17 45q-11 10 -99 10q-80 0 -97 -2q-6 -1 -6 -14l-1 -303q-2 -137 6 -224q3 -27 12 -36t35 -17q17 -4 17 -10q0 -7 -20 -7q-10 0 -37 3t-47 3q-26 0 -56 -3t-34 -3
q-18 0 -18 9q0 5 21 9q34 4 44 18t12 51q5 63 6 286t-1 226q-1 11 -7 13q-18 3 -75 3q-55 0 -93 -5q-26 -4 -44 -54q-6 -16 -13 -16q-6 0 -3 15q2 9 6 27.5t6 32t2 24.5q0 13 4 15t8 -4q6 -8 33 -10q51 -3 215 -3zM263 -33q18 0 33 -15t15 -40t-16.5 -44t-31.5 -26t-21 -7
q-11 0 -11 3t10 7q42 19 42 51q0 21 -21 29q-25 8 -25 21q0 9 8.5 15t17.5 6z" />
    <glyph glyph-name="tcommaaccent" unicode="&#x163;" horiz-adv-x="269" 
d="M166 -9q-65 0 -89 46q-12 20 -12 55v208q0 20 -4 21q-7 3 -28 7q-12 2 -12 8v1.5t2.5 2.5t7.5 4q39 14 77 65q3 4 6.5 5.5t5.5 0.5t2 -3q-3 -31 -2 -47q0 -8 5 -8q8 0 63 1.5t67 1.5q6 0 6 -12q0 -25 -10 -25q-20 0 -64 0.5t-56 0.5q-14 0 -14 -9q0 -155 3 -204
q3 -45 11 -57q20 -29 67 -29q33 0 59 16q9 7 9 0q0 -9 -23 -26q-34 -24 -77 -24zM144 -44q18 0 33 -15t15 -40t-16.5 -44t-31.5 -26t-21 -7q-11 0 -11 3t10 7q42 19 42 51q0 21 -21 29q-25 8 -25 21q0 9 8.5 15t17.5 6z" />
    <glyph glyph-name="Tcaron" unicode="&#x164;" horiz-adv-x="562" 
d="M281 631l188 1q42 0 63 11q6 5 8 1q1 -4 0 -12q-3 -12 -3 -72q0 -23 -8 -23q-5 0 -7 15q-4 32 -17 45q-11 10 -99 10q-80 0 -97 -2q-6 -1 -6 -14l-1 -303q-2 -137 6 -224q3 -27 12 -36t35 -17q17 -4 17 -10q0 -7 -20 -7q-10 0 -37 3t-47 3q-26 0 -56 -3t-34 -3
q-18 0 -18 9q0 5 21 9q34 4 44 18t12 51q5 63 6 286t-1 226q-1 11 -7 13q-18 3 -75 3q-55 0 -93 -5q-26 -4 -44 -54q-6 -16 -13 -16q-6 0 -3 15q2 9 6 27.5t6 32t2 24.5q0 13 4 15t8 -4q6 -8 33 -10q51 -3 215 -3zM272 664q-7 0 -18 15q-20 25 -81 81q-5 6 -3 7t6 0
q28 -7 95 -58q3 -2 10 1q67 48 93 58q6 1 8 0t-4 -7q-49 -40 -88 -83q-12 -14 -18 -14z" />
    <glyph glyph-name="tcaron" unicode="&#x165;" horiz-adv-x="269" 
d="M166 -9q-65 0 -89 46q-12 20 -12 55v208q0 20 -4 21q-7 3 -28 7q-12 2 -12 8v1.5t2.5 2.5t7.5 4q39 14 77 65q3 4 6.5 5.5t5.5 0.5t2 -3q-3 -31 -2 -47q0 -8 5 -8q8 0 63 1.5t67 1.5q6 0 6 -12q0 -25 -10 -25q-20 0 -64 0.5t-56 0.5q-14 0 -14 -9q0 -155 3 -204
q3 -45 11 -57q20 -29 67 -29q33 0 59 16q9 7 9 0q0 -9 -23 -26q-34 -24 -77 -24zM216 604q8 0 4 -27q-8 -69 -25 -115q-8 -18 -9 -18q-2 -3 -4 -3.5t-3 0.5t-1 3q1 26 1.5 68.5t-0.5 55.5q0 7 3 10q6 7 17.5 16.5t16.5 9.5z" />
    <glyph glyph-name="Tbar" unicode="&#x166;" horiz-adv-x="562" 
d="M149 333q0 4 15 4l75 1q4 0 4 9q2 215 -1 237q-2 20 -7 21q-18 3 -75 3q-58 0 -96 -5q-13 -2 -20.5 -12t-19.5 -41q-6 -16 -13 -16q-5 0 -3 15q10 57 10 84q0 13 4 15t8 -4q6 -8 33 -10q51 -3 218 -3q46 0 106 0.5t82 0.5q42 0 63 11q6 5 8 1q1 -4 0 -12q-3 -12 -3 -72
q0 -23 -8 -23q-5 0 -7 15q0 1 -2 12t-4 18.5t-6 11.5q-13 12 -104 12q-80 0 -97 -2q-6 -1 -6 -14q0 -4 -0.5 -94.5t-0.5 -148.5q0 -9 4 -9h60q44 0 44 -6q0 -12 -22 -12l-82 -2q-4 0 -4 -10q-1 -42 1.5 -131t4.5 -113q3 -27 12 -36t35 -17q17 -4 17 -10q0 -7 -20 -7
q-10 0 -37 3t-47 3q-26 0 -56 -3t-34 -3q-18 0 -18 9q0 5 21 9q34 4 44 18t12 51q4 58 6 215q0 22 -3 22l-79 1q-12 0 -12 14z" />
    </font>
</defs>
</svg>
