<?xml version="1.0" encoding="utf-8"?>
<!-- Generator: Adobe Illustrator 19.1.0, SVG Export Plug-In . SVG Version: 6.00 Build 0)  -->
<!DOCTYPE svg PUBLIC "-//W3C//DTD SVG 1.1//EN" "http://www.w3.org/Graphics/SVG/1.1/DTD/svg11.dtd">
<svg version="1.1" id="Layer_1" xmlns="http://www.w3.org/2000/svg" xmlns:xlink="http://www.w3.org/1999/xlink" x="0px" y="0px"
	 viewBox="180 -50 1360 1100" style="enable-background:new 180 -50 1360 1100;" xml:space="preserve">
<style type="text/css">
	.st0{display:none;}
	.st1{display:inline;}
	.st2{fill:#BEBFBF;}
	.st3{fill:#E5E5E5;}
	.st4{fill:none;stroke:#9FA1A4;stroke-width:4;stroke-miterlimit:10;}
	.st5{fill:none;stroke:#9FA1A4;stroke-width:4;stroke-miterlimit:10;stroke-dasharray:11.1297,10.0167;}
	.st6{fill:none;stroke:#9FA1A4;stroke-width:4;stroke-miterlimit:10;stroke-dasharray:10.1259,9.1133;}
	.st7{fill:none;stroke:#9FA1A4;stroke-width:4;stroke-miterlimit:10;stroke-dasharray:10.7202,9.6482;}
	.st8{fill:none;stroke:#9FA1A4;stroke-width:4;stroke-miterlimit:10;stroke-dasharray:9.921,8.9289;}
	.st9{fill:none;stroke:#9FA1A4;stroke-width:4;stroke-miterlimit:10;stroke-dasharray:9.3848,8.4463;}
	.st10{fill:none;stroke:#9FA1A4;stroke-width:4;stroke-miterlimit:10;stroke-dasharray:6.5755,5.918;}
	.st11{fill:none;stroke:#9FA1A4;stroke-width:4;stroke-miterlimit:10;stroke-dasharray:7.7475,6.9728;}
	.st12{fill:none;stroke:#9FA1A4;stroke-width:4;stroke-miterlimit:10;stroke-dasharray:6.8027,6.1225;}
	.st13{fill:none;stroke:#9FA1A4;stroke-width:4;stroke-miterlimit:10;stroke-dasharray:6.5649,5.9084;}
	.st14{fill:none;stroke:#9FA1A4;stroke-width:4;stroke-miterlimit:10;stroke-dasharray:7.2737,6.5463;}
	.st15{fill:none;stroke:#9FA1A4;stroke-width:4;stroke-miterlimit:10;stroke-dasharray:7.8481,7.0633;}
	.st16{fill:none;stroke:#9FA1A4;stroke-width:4;stroke-miterlimit:10;stroke-dasharray:11.1591,10.0432;}
	.st17{fill:none;stroke:#9FA1A4;stroke-width:4;stroke-miterlimit:10;stroke-dasharray:9.9318,8.9387;}
	.st18{fill:none;stroke:#9FA1A4;stroke-width:4;stroke-miterlimit:10;stroke-dasharray:9.4496,8.5046;}
	.st19{fill:none;stroke:#9FA1A4;stroke-width:4;stroke-miterlimit:10;stroke-dasharray:10.5998,9.5398;}
	.st20{fill:none;stroke:#9FA1A4;stroke-width:4;stroke-miterlimit:10;stroke-dasharray:8.6685,7.8017;}
	.st21{fill:none;stroke:#9FA1A4;stroke-width:4;stroke-miterlimit:10;stroke-dasharray:9.4705,8.5234;}
	.st22{fill:none;stroke:#9FA1A4;stroke-width:4;stroke-miterlimit:10;stroke-dasharray:10.2215,9.1994;}
	.st23{fill:none;stroke:#9FA1A4;stroke-width:4;stroke-miterlimit:10;stroke-dasharray:9.5106,8.5595;}
	.st24{fill:none;stroke:#9FA1A4;stroke-width:4;stroke-miterlimit:10;stroke-dasharray:9.6203,8.6582;}
	.st25{fill:none;stroke:#9FA1A4;stroke-width:4;stroke-miterlimit:10;stroke-dasharray:6.4492,5.8043;}
	.st26{fill:none;stroke:#9FA1A4;stroke-width:4;stroke-miterlimit:10;stroke-dasharray:9.843,8.8587;}
	.st27{fill:none;stroke:#9FA1A4;stroke-width:4;stroke-miterlimit:10;stroke-dasharray:9.9933,8.994;}
	.st28{fill:none;stroke:#9FA1A4;stroke-width:4;stroke-miterlimit:10;stroke-dasharray:6.6296,5.9667;}
	.st29{fill:none;stroke:#9FA1A4;stroke-width:4;stroke-miterlimit:10;stroke-dasharray:9.4291,8.4862;}
	.st30{fill:none;stroke:#9FA1A4;stroke-width:4;stroke-miterlimit:10;stroke-dasharray:5.4532,4.9079;}
	.st31{fill:none;stroke:#9FA1A4;stroke-width:4;stroke-miterlimit:10;stroke-dasharray:6.6693,6.0024;}
	.st32{fill:none;stroke:#9FA1A4;stroke-width:4;stroke-miterlimit:10;stroke-dasharray:5.9284,5.3356;}
	.st33{fill:none;stroke:#9FA1A4;stroke-width:4;stroke-miterlimit:10;stroke-dasharray:5.6391,5.0752;}
	.st34{fill:none;stroke:#9FA1A4;stroke-width:4;stroke-miterlimit:10;stroke-dasharray:8.0298,7.2268;}
	.st35{fill:none;stroke:#9FA1A4;stroke-width:4;stroke-miterlimit:10;stroke-dasharray:5.1786,4.6607;}
	.st36{fill:none;stroke:#9FA1A4;stroke-width:4;stroke-miterlimit:10;stroke-dasharray:9.5187,8.5668;}
	.st37{fill:none;stroke:#9FA1A4;stroke-width:4;stroke-miterlimit:10;stroke-dasharray:11.8024,10.6222;}
	.st38{fill:none;stroke:#9FA1A4;stroke-width:4;stroke-miterlimit:10;stroke-dasharray:10.544,9.4896;}
	.st39{fill:none;stroke:#9FA1A4;stroke-width:4;stroke-miterlimit:10;stroke-dasharray:10.8307,9.7477;}
	.st40{display:inline;fill:#D1D2D1;}
	.st41{fill:#FFFFFF;}
	.st42{fill:#484748;}
	.st43{display:inline;fill:#484748;}
	.st44{fill:#E2B924;}
	.st45{display:inline;fill:#E5E5E5;}
	.st46{opacity:0.3;}
	.st47{fill:#445056;}
	.st48{fill:#202020;}
</style>
<g class="st0">
	<g class="st1">
		<g>
			<path class="st2" d="M1524,359.9c0-91-73.8-164.7-164.7-164.7c-8.1,0-16,0.6-23.7,1.7c-23.8-74.8-93.9-129-176.6-129
				c-43,0-82.6,14.7-114.1,39.3c-49.3-45.3-115.1-72.9-187.3-72.9c-48.3,0-93.6,12.3-133.1,34c-41.3-21.7-88.4-34-138.3-34
				c-164.4,0-297.7,133.3-297.7,297.7c0,12.2,0.8,24.3,2.2,36.1c-50.4,27-84.7,80.3-84.7,141.6c0,80.8,59.5,147.7,137.1,159.2
				c17.5,132,130.4,233.9,267.2,233.9c54.2,0,104.6-16,146.8-43.5c45.2,32.1,100.5,51,160.2,51c82.7,0,156.9-36.2,207.6-93.6
				c23.8,6.8,48.9,10.4,74.8,10.4c150.9,0,273.3-122.4,273.3-273.3c0-23.2-2.9-45.8-8.4-67.4C1501,456.1,1524,410.7,1524,359.9z"/>
		</g>
		<g>
			<g>
				<circle class="st2" cx="372.9" cy="722.4" r="87.8"/>
			</g>
			<g>
				<circle class="st2" cx="311.1" cy="818.8" r="58.1"/>
			</g>
			<g>
				<circle class="st2" cx="249.3" cy="947.4" r="28.4"/>
			</g>
		</g>
	</g>
	<g class="st1">
		<g>
			<path class="st3" d="M1519,354.9c0-91-73.8-164.7-164.7-164.7c-8.1,0-16,0.6-23.7,1.7c-23.8-74.8-93.9-129-176.6-129
				c-43,0-82.6,14.7-114.1,39.3c-49.3-45.3-115.1-72.9-187.3-72.9c-48.3,0-93.6,12.3-133.1,34c-41.3-21.7-88.4-34-138.3-34
				c-164.4,0-297.7,133.3-297.7,297.7c0,12.2,0.8,24.3,2.2,36.1c-50.4,27-84.7,80.3-84.7,141.6c0,80.8,59.5,147.7,137.1,159.2
				c17.5,132,130.4,233.9,267.2,233.9c54.2,0,104.6-16,146.8-43.5c45.2,32.1,100.5,51,160.2,51c82.7,0,156.9-36.2,207.6-93.6
				c23.8,6.8,48.9,10.4,74.8,10.4c150.9,0,273.3-122.4,273.3-273.3c0-23.2-2.9-45.8-8.4-67.4C1496,451.1,1519,405.7,1519,354.9z"/>
		</g>
		<g>
			<g>
				<circle class="st3" cx="367.9" cy="717.4" r="87.8"/>
			</g>
			<g>
				<circle class="st3" cx="306.1" cy="813.8" r="58.1"/>
			</g>
			<g>
				<circle class="st3" cx="244.3" cy="942.4" r="28.4"/>
			</g>
		</g>
	</g>
	<g class="st1">
		<g>
			<g>
				<path class="st4" d="M1121.8,490.5c-1.6,0.6-3.1,1.2-4.6,2l-2.8-4.2"/>
				<line class="st5" x1="1108.9" y1="480" x2="1088.3" y2="448.9"/>
				<path class="st4" d="M1085.6,444.7l-2.8-4.2c1.3-1.1,2.6-2.1,3.9-3.2"/>
				<path class="st6" d="M1093.7,431.5c71.5-59.8,128.3-119.8,128.3-119.8s31.7-43.1,16.7-61.7c-11.7-14.5-51.2-3.2-89.8-0.9
					c-43,2.5-191.4,128.8-191.4,128.8L935,391l-73.7-15.5"/>
				<path class="st4" d="M856.8,374.5l-4.9-1c0.1-1,0.1-2.1,0.1-3.1c0-0.6,0-1.2,0-1.9"/>
				<path class="st7" d="M850.2,359c-4.7-13.7-17.7-23.5-32.9-23.5c-11.8,0-22.3,5.9-28.6,14.9"/>
				<path class="st4" d="M786.2,354.6c-0.8,1.5-1.4,3-1.9,4.6l-4.9-1"/>
				<line class="st8" x1="770.7" y1="356.4" x2="535.2" y2="306.8"/>
				<polyline class="st4" points="530.9,305.8 526,304.8 523.4,309.1 				"/>
				<polyline class="st4" points="518.1,317.9 515.5,322.2 520.1,324.2 				"/>
				<line class="st9" x1="527.9" y1="327.5" x2="622.4" y2="367.9"/>
				<path class="st4" d="M626.3,369.5l4.6,2c0.1,1.7,0.5,3.4,1.1,4.8"/>
				<path class="st10" d="M635.7,380.9c2.1,1.7,4.8,2.7,7.7,2.7c0.4,0,0.8,0,1.2-0.1"/>
				<path class="st4" d="M647.5,382.9c1.6-0.6,3-1.4,4.3-2.5l4.6,2"/>
				<path class="st4" d="M668.1,387.4l4.6,2c0,0.4-0.1,0.8-0.1,1.2c0,1.3,0.2,2.5,0.6,3.7"/>
				<path class="st11" d="M677,400c2.2,1.9,5.1,3,8.2,3c0.8,0,1.6-0.1,2.3-0.2"/>
				<path class="st4" d="M690.7,401.8c1.5-0.8,2.8-1.8,3.9-3.1l4.6,2"/>
				<line class="st12" x1="704.9" y1="403.1" x2="714" y2="407"/>
				<path class="st4" d="M716.8,408.2l4.6,2c0.1,1.7,0.5,3.4,1.1,4.8"/>
				<path class="st13" d="M726.1,419.5c2.1,1.7,4.8,2.7,7.7,2.7c0.4,0,0.8,0,1.2-0.1"/>
				<path class="st4" d="M737.9,421.5c1.6-0.6,3-1.4,4.3-2.5l4.6,2"/>
				<line class="st14" x1="752.8" y1="423.6" x2="762.5" y2="427.7"/>
				<path class="st4" d="M765.6,429l4.6,2c0,0.4-0.1,0.9-0.1,1.4c0,1.2,0.2,2.4,0.5,3.6"/>
				<path class="st15" d="M774.4,441.8c2.2,1.9,5.1,3.1,8.2,3.1c0.8,0,1.6-0.1,2.4-0.2"/>
				<path class="st4" d="M788.3,443.5c1.5-0.8,2.8-1.8,3.9-3.1l4.6,2"/>
				<line class="st16" x1="806" y1="446.3" x2="840.4" y2="461"/>
				<polyline class="st4" points="845,462.9 849.6,464.9 845.8,468.1 				"/>
				<line class="st17" x1="838.9" y1="473.8" x2="696.8" y2="591.1"/>
				<polyline class="st4" points="693.4,594 689.5,597.1 686,593.6 				"/>
				<line class="st18" x1="680" y1="587.6" x2="619.5" y2="527.1"/>
				<polyline class="st4" points="616.5,524.1 613,520.6 609.9,524.5 				"/>
				<line class="st19" x1="604.1" y1="532.1" x2="594.6" y2="544.2"/>
				<polyline class="st4" points="591.7,547.9 588.6,551.9 590.4,556.6 				"/>
				<line class="st20" x1="593.3" y1="563.8" x2="609.8" y2="606.2"/>
				<polyline class="st4" points="611.2,609.9 613,614.5 608,613.9 				"/>
				<line class="st21" x1="599.6" y1="612.7" x2="496.9" y2="598.4"/>
				<polyline class="st4" points="492.6,597.8 487.7,597.1 485.1,601.4 				"/>
				<polyline class="st4" points="479.8,610.3 477.3,614.5 481.9,616.5 				"/>
				<line class="st22" x1="490.4" y1="620" x2="593.7" y2="663"/>
				<path class="st4" d="M597.9,664.8l4.6,1.9c0,0-0.9,1.7-2.1,4.6"/>
				<path class="st23" d="M597.4,679.3c-3.7,11.1-6.8,26.4,1.6,32.7c10.1,7.6,35-5.1,47.8-12.5"/>
				<path class="st4" d="M650.5,697.3c2.6-1.6,4.2-2.7,4.2-2.7l4.1,2.8"/>
				<line class="st24" x1="666" y1="702.4" x2="737.6" y2="751.9"/>
				<polyline class="st4" points="741.1,754.4 745.2,757.2 747.7,752.9 				"/>
				<line class="st25" x1="750.6" y1="747.8" x2="755.2" y2="739.7"/>
				<polyline class="st4" points="756.7,737.2 759.1,732.9 757.3,728.2 				"/>
				<line class="st26" x1="754" y1="720" x2="734.8" y2="672"/>
				<polyline class="st4" points="733.2,667.9 731.3,663.3 735.8,661 				"/>
				<line class="st27" x1="743.8" y1="656.9" x2="976.9" y2="538.8"/>
				<polyline class="st4" points="980.9,536.8 985.4,534.5 989.4,537.5 				"/>
				<line class="st28" x1="994.2" y1="541" x2="1001.9" y2="546.7"/>
				<path class="st4" d="M1004.3,548.5l4,3c-0.8,1.4-1.4,3-1.6,4.7"/>
				<path class="st29" d="M1008.6,564.3c2.2,3.5,6.1,5.9,10.6,5.9c0.3,0,0.7,0,1,0"/>
				<path class="st4" d="M1024.4,569c1.5-0.7,2.9-1.7,4-2.9l4,3"/>
				<line class="st30" x1="1036.4" y1="572" x2="1042.7" y2="576.7"/>
				<path class="st4" d="M1044.7,578.2l4,3c-0.2,0.8-0.3,1.7-0.3,2.6c0,0.8,0.1,1.6,0.2,2.4"/>
				<path class="st31" d="M1051.2,591.5c2,2.5,4.9,4.2,8.2,4.6"/>
				<path class="st4" d="M1062.4,596.2c1.7-0.2,3.3-0.7,4.7-1.5l4,3"/>
				<line class="st32" x1="1075.5" y1="600.8" x2="1082.4" y2="605.8"/>
				<path class="st4" d="M1084.5,607.4l4,3c0,0.4-0.1,0.8-0.1,1.2c0,1.3,0.2,2.6,0.6,3.8"/>
				<path class="st33" d="M1091.5,619.7c1.8,2,4.2,3.5,6.9,4.1"/>
				<path class="st4" d="M1101,624.1L1101,624.1c1.8,0,3.4-0.3,4.9-1l4,3"/>
				<line class="st34" x1="1115.7" y1="630.3" x2="1125.1" y2="637.2"/>
				<path class="st4" d="M1128,639.4l4,3c0,0.2,0,0.3,0,0.5c0,1.5,0.3,3,0.8,4.4"/>
				<path class="st35" d="M1135.2,651.2c1.7,1.8,3.9,3.2,6.3,3.8"/>
				<path class="st4" d="M1143.8,655.4c0.2,0,0.5,0,0.7,0c1.5,0,2.9-0.3,4.2-0.7l4,3"/>
				<line class="st36" x1="1159.7" y1="662.7" x2="1214.5" y2="703"/>
				<polyline class="st4" points="1218,705.5 1222,708.5 1223.2,703.7 				"/>
				<line class="st37" x1="1225.8" y1="693.3" x2="1229.9" y2="676.7"/>
				<polyline class="st4" points="1231.2,671.6 1232.4,666.7 1229.7,662.6 				"/>
				<line class="st38" x1="1224.4" y1="654.7" x2="1160.7" y2="558.4"/>
				<path class="st4" d="M1158.1,554.4l-2.8-4.2c1.3-1.1,2.5-2.2,3.6-3.4"/>
				<path class="st39" d="M1164.5,538.8c2.3-4.6,3.6-9.9,3.6-15.4c0-19.2-15.6-34.8-34.8-34.8c-2.3,0-4.6,0.2-6.8,0.7"/>
			</g>
		</g>
	</g>
</g>
<g class="st0">
	<path class="st40" d="M1098.8,1006.9c0-2.9-49.8-7.7-60.1-12.2c-10.3-4.5-20.8-125.3-20.8-151.7H864.1h-6.6H703.8
		c0,26.4-10.5,147.2-20.8,151.7s-60.1,9.3-60.1,12.2c60.9,1.8,188.3,1.8,239.4,1.8C913.4,1008.7,1039,1009.5,1098.8,1006.9z"/>
	<g class="st1">
		<path class="st3" d="M1445,873H263c-27.5,0-50-22.5-50-50V173c0-27.5,22.5-50,50-50h1182c27.5,0,50,22.5,50,50v650
			C1495,850.5,1472.5,873,1445,873z"/>
	</g>
	<g class="st1">
		<path class="st41" d="M238,757.4V103.6c0-13.8,11.2-25,25-25h1182c13.8,0,25,11.2,25,25v653.8H238z"/>
		<path class="st42" d="M1444.9,103.6C1444.9,103.6,1445,103.6,1444.9,103.6l0.1,628.8H263V103.7l0.1-0.1H1444.9 M1445,53.6H263
			c-27.5,0-50,22.5-50,50v678.8h1282V103.6C1495,76.1,1472.5,53.6,1445,53.6L1445,53.6z"/>
	</g>
	<path class="st43" d="M626.3,1009.5c0,0,0,3.4,0,5.3c0,3.9,173.7,2.9,234.8,2.9s234.8,1,234.8-2.9c0-1.9,0-5.3,0-5.3l0,0
		c0,0,0-0.2,0-1.3c-59.8,2.6-182.2,1.9-233.4,1.9c-51.2,0-175.4,0-236.3-1.9C626.3,1009.3,626.3,1009.5,626.3,1009.5L626.3,1009.5z"
		/>
	<g class="st1">
		<g>
			<g>
				<path class="st44" d="M1062.3,433.8c0-13-10.5-23.5-23.5-23.5c-3.9,0-7.6,1-10.9,2.7l-23.2-35.1c51.8-42.3,94.1-87,94.1-87
					s21.5-29.1,11.3-41.7c-7.9-9.8-34.6-2.1-60.7-0.6c-29.1,1.7-129.4,87-129.4,87l-15.2,8.9l-56.2-11.8c0.1-0.7,0.1-1.4,0.1-2.1
					c0-13-10.5-23.5-23.5-23.5c-10.4,0-19.2,6.7-22.3,16L628.2,286l-7.1,11.8l78,33.3c0.1,4.5,3.9,8.2,8.5,8.2
					c2.2,0,4.1-0.8,5.6-2.2l14.2,6c0,0.3,0,0.6,0,0.8c0,4.7,3.8,8.5,8.5,8.5c2.6,0,4.9-1.1,6.4-3l18.1,7.7c0.2,4.5,3.9,8.2,8.5,8.2
					c2.2,0,4.1-0.8,5.6-2.2l18.9,8.1c0,0.3-0.1,0.6-0.1,0.9c0,4.7,3.8,8.5,8.5,8.5c2.6,0,4.9-1.2,6.5-3l38.8,16.6l-108.2,89.4
					L687,431.9l-16.5,21.2l16.5,42.3l-84.7-11.8l-7.1,11.8l84.7,35.3c0,0-11.8,23.5-2.4,30.6c9.4,7.1,37.6-11.8,37.6-11.8l61.2,42.3
					l9.4-16.5L767,528.4l171.7-87l15.6,11.4c-0.7,1.2-1.1,2.7-1.1,4.2c0,4.7,3.8,8.5,8.5,8.5c2.4,0,4.6-1,6.2-2.7l13.8,10.1
					c-0.1,0.6-0.2,1.1-0.2,1.8c0,4.7,3.8,8.5,8.5,8.5c1.5,0,2.9-0.4,4.1-1.1l14.5,10.7c0,0.3,0,0.5,0,0.8c0,4.7,3.8,8.5,8.5,8.5
					c1.2,0,2.3-0.2,3.3-0.7l17.7,13c0,0.1,0,0.2,0,0.3c0,4.7,3.8,8.5,8.5,8.5c1,0,2-0.2,2.9-0.5l49.5,36.4l7.1-28.2l-52.1-78.8
					C1058.9,447.6,1062.3,441.1,1062.3,433.8z"/>
			</g>
		</g>
	</g>
	<path class="st45" d="M623.2,1008.1c0,0,0,0.2,0,2.1c0,3.9,176.9,2.9,238,2.9s238,1,238-2.9c0-1.9,0-2.1,0-2.1l0,0c0,0,0-0.2,0-1.3
		c-59.8,2.6-185.4,1.8-236.6,1.8c-51.2,0-178.5,0-239.4-1.8C623.2,1007.9,623.2,1008.1,623.2,1008.1L623.2,1008.1z"/>
</g>
<g id="Layer_5" class="st46">
	<g>
		<path class="st47" d="M856.2,369.8L548.4,87.7v256.4v307.7v256.4l307.7-282.1L716.2,498L856.2,369.8z M591.2,184.9l201.7,184.9
			l-108.3,99.2l-93.5-85.5V184.9z M653,498l-61.8,56.7V441.3L653,498z M792.9,626.2L591.2,811.1V612.5l93.5-85.8L792.9,626.2z"/>
		<path class="st47" d="M861.8,369.8L1001.8,498L861.8,626.2l307.7,282.1V651.9V344.1V87.7L861.8,369.8z M1126.8,811.1L925.1,626.2
			l108.3-99.2l93.5,85.8V811.1z M1065,498l61.8-56.7v113.4L1065,498z M1033.4,468.9l-108.3-99.2l201.7-184.9v198.6L1033.4,468.9z"/>
	</g>
</g>
<g>
	<g>
		<g>
			<path class="st48" d="M544.5,226.7c0.1,0.1,0.2-3.1,0.2,1.9c0.1,15.7-0.2,28.4-0.1,44.1c0.1,0.4,0.1,0.8,0.2,1.1
				c-0.1,12.2-0.2,24.8-0.2,37.8c0,23.8,0.1,47.6,0.1,71.2c0.1-0.6,0.1-0.9,0.1,1.4c0,9.8,0,23.4,0,37.5c0,2.1,0,4.2,0,6.2
				c0,1.6,0.1,2,0.1,2.3c0,6.4,0,12,0,17.3c0.3,69.2,0.7,139.5,1.1,215.6c0.2,16.1,0.3,32.2,0.4,47.7c0.1,23,0,52.3-0.1,74.7
				c0.6-3.4,0.9,51.2,1.4,40.3c0,14.9,0,37.4,0.1,38.5c0.5,3.5,1.1,15,1.3,54.7c0.1,15.5-0.1,39.4,0,44.9c0.2,8.6,0.3-20.1,0.5-11.5
				c0.2-115.4,0-226.6,0-342.8c-0.3-39.6-0.4-306.4-0.3-374.9c0-2.1,0-4.2,0-6.2c0-37.4,0-82.8-0.2-114.4c-0.1-14.5-0.3-29.3-0.5-44
				c-0.1,6.8-0.2,13.2-0.3,18.6c0-15,0-29.9-0.1-35.7c-0.2-31.8-0.5-13.8-0.9-1.6c-0.2,8.8-0.4-3.1-0.6,10.7c0-9.9,0-14.9,0-24.9
				c-0.2-1.1,0.1,30.7-0.2,23.8c0.1-9.6,0-20.3,0-30.3c-0.2,3.4-0.1,34.5-0.3,33c-0.1-5.4,0.3-28,0-29.9c-0.1-0.4-0.1,9.6-0.1,14.6
				c-0.1-30.7-0.3-47.6-0.6-19.6c0-9.7,0.1-23.5,0.1-33.7c0,0,0,0.1,0,0.1c0,5.1-0.1,14-0.1,18.7c0-5.8,0-11.7,0-17.5
				c0,0.9-0.1,2-0.1,3.1c0,4.4-0.1,8.7-0.1,13.3c0-3.9,0-7.7,0-11.6c-0.1,2.9-0.2,6.2-0.3,9.9c-0.2,13.8-0.4,27-0.4,34.5
				C544.6,105.8,544.6,166.4,544.5,226.7z"/>
		</g>
	</g>
</g>
<g>
	<g>
		<g>
			<path class="st48" d="M1172.2,744.7c-0.1-0.1-0.2,3.1-0.2-1.9c-0.1-15.5,0.2-27.9,0.1-43.4c-0.1-0.4-0.1-0.7-0.2-1.1
				c0.1-12,0.2-24.5,0.2-37.2c0-23.5-0.1-46.8-0.1-70c-0.1,0.6-0.1,0.9-0.1-1.4c0-9.7,0-23.1,0-36.9c0-2.1,0-4.1,0-6.1
				c0-1.6-0.1-2-0.1-2.2c0-6.3,0-11.8,0-17c-0.3-68.1-0.7-137.2-1.1-212.2c-0.2-15.8-0.3-31.7-0.4-47c-0.1-22.6,0-51.5,0.1-73.6
				c-0.6,3.4-0.9-50.4-1.4-39.7c0-14.7,0-36.8-0.1-37.9c-0.5-3.4-1.1-14.7-1.3-53.8c-0.1-15.3,0.1-38.8,0-44.1
				c-0.2-8.5-0.3,19.8-0.5,11.3c-0.2,113.6,0,223,0,337.3c0.3,38.9,0.4,301.5,0.3,369c0,2,0,4.1,0,6.1c0,36.8,0,81.5,0.2,112.6
				c0.1,14.3,0.3,28.8,0.5,43.3c0.1-6.7,0.2-12.9,0.3-18.3c0,14.7,0,29.4,0.1,35.1c0.2,31.3,0.5,13.6,0.9,1.5
				c0.2-8.7,0.4,3.1,0.6-10.5c0,9.8,0,14.7,0,24.5c0.2,1.1-0.1-30.2,0.2-23.4c-0.1,9.4,0,20,0,29.8c0.2-3.4,0.1-33.9,0.3-32.4
				c0.1,5.3-0.3,27.5,0,29.4c0.1,0.4,0.1-9.4,0.1-14.3c0.1,30.2,0.3,46.8,0.6,19.3c0,9.6-0.1,23.1-0.1,33.2c0,0,0-0.1,0-0.1
				c0-5,0.1-13.8,0.1-18.4c0,5.7,0,11.5,0,17.2c0-0.9,0.1-1.9,0.1-3c0-4.3,0.1-8.6,0.1-13.1c0,3.8,0,7.6,0,11.4
				c0.1-2.9,0.2-6.1,0.3-9.7c0.2-13.6,0.4-26.6,0.4-34C1172.1,863.7,1172.2,804,1172.2,744.7z"/>
		</g>
	</g>
</g>
<g>
	<g>
		<g>
			<path class="st48" d="M1058.8,551.3c-0.2,0,2.5,2.5-1.7-1.3c-13.2-11.9-23.5-21.8-36.7-33.7c-0.3-0.2-0.7-0.5-1.1-0.7
				c-10.1-9.3-20.7-19-31.4-28.9c-19.9-18.1-39.8-36.2-59.5-54.1c0.5,0.5,0.7,0.8-1.3-1c-8.2-7.4-19.6-17.8-31.3-28.6
				c-1.7-1.6-3.5-3.2-5.2-4.7c-1.4-1.2-1.7-1.5-2-1.6c-5.3-4.9-10-9.2-14.4-13.2c-58-52.4-117-105.6-180.9-163.3
				c-13.6-12.1-27.1-24.3-40.1-36.1c-19.3-17.5-43.7-39.9-62.4-56.9c2.5,3-43.4-38.3-34.6-29.6c-12.5-11.4-31.2-28.5-32.3-29.2
				c-3.2-2.3-13.2-10.6-46.6-40.6c-13-11.8-32.8-30.1-37.5-34.2c-7.3-6.4,16.6,15.6,9.3,9.1c96.3,88,189.3,172.4,286.5,260.9
				c33.2,29.9,256.3,232.9,313.4,285.2c1.7,1.6,3.5,3.2,5.2,4.7c31.2,28.5,69.2,63,95.8,86.9c12.2,10.9,24.7,22.1,37,33.1
				c-5.6-5.3-10.9-10.2-15.4-14.4c12.5,11.4,25,22.8,29.8,27.1c26.8,24.1,11.9,10.1,1.9,0.5c-7.2-6.8,2.9,2-8.5-8.6
				c8.3,7.6,12.5,11.4,20.8,19c1.1,0.7-25.7-23.3-19.7-18.2c8,7.3,17,15.4,25.3,23c-2.7-2.8-28.8-26.3-27.3-25.3
				c4.5,4.1,23.2,21.5,25,22.8c0.4,0.2-8-7.3-12.1-11.1c25.7,23.3,40,36,16.8,14.4c8.1,7.4,19.5,17.9,28.1,25.7c0,0,0,0-0.1-0.1
				c-4.3-3.9-11.6-10.7-15.6-14.3c4.9,4.4,9.7,8.9,14.6,13.3c-0.7-0.7-1.6-1.5-2.5-2.4c-3.6-3.3-7.3-6.7-11.1-10.2
				c3.2,2.9,6.5,5.9,9.7,8.9c-2.4-2.3-5.1-4.9-8.1-7.7c-11.4-10.6-22.3-20.9-28.5-26.6C1159.7,643.3,1109.2,597.1,1058.8,551.3z"/>
		</g>
	</g>
</g>
<g>
	<g>
		<g>
			<path class="st48" d="M1058.8,804.7c-0.2,0,2.5,2.5-1.7-1.3c-13.2-11.9-23.5-21.8-36.7-33.7c-0.3-0.2-0.7-0.5-1.1-0.7
				c-10.1-9.3-20.7-19-31.4-28.9c-19.9-18.1-39.8-36.2-59.5-54.1c0.5,0.5,0.7,0.8-1.3-1c-8.2-7.4-19.6-17.8-31.3-28.6
				c-1.7-1.6-3.5-3.2-5.2-4.7c-1.4-1.2-1.7-1.5-2-1.6c-5.3-4.9-10-9.2-14.4-13.2c-58-52.4-117-105.6-180.9-163.3
				c-13.6-12.1-27.1-24.3-40.1-36.1c-19.3-17.5-43.7-39.9-62.4-56.9c2.5,3-43.4-38.3-34.6-29.6c-12.5-11.4-31.2-28.5-32.3-29.2
				c-3.2-2.3-13.2-10.6-46.6-40.6c-13-11.8-32.8-30.1-37.5-34.2c-7.3-6.4,16.6,15.6,9.3,9.1c96.3,88,189.3,172.4,286.5,260.9
				c33.2,29.9,256.3,232.9,313.4,285.2c1.7,1.6,3.5,3.2,5.2,4.7c31.2,28.5,69.2,63,95.8,86.9c12.2,10.9,24.7,22.1,37,33.1
				c-5.6-5.3-10.9-10.2-15.4-14.4c12.5,11.4,25,22.8,29.8,27.1c26.8,24.1,11.9,10.1,1.9,0.5c-7.2-6.8,2.9,2-8.5-8.6
				c8.3,7.6,12.5,11.4,20.8,19c1.1,0.7-25.7-23.3-19.7-18.2c8,7.3,17,15.4,25.3,23c-2.7-2.8-28.8-26.3-27.3-25.3
				c4.5,4.1,23.2,21.5,25,22.8c0.4,0.2-8-7.3-12.1-11.1c25.7,23.3,40,36,16.8,14.4c8.1,7.4,19.5,17.9,28.1,25.7c0,0,0,0-0.1-0.1
				c-4.3-3.9-11.6-10.7-15.6-14.3c4.9,4.4,9.7,8.9,14.6,13.3c-0.7-0.7-1.6-1.5-2.5-2.4c-3.6-3.3-7.3-6.7-11.1-10.2
				c3.2,2.9,6.5,5.9,9.7,8.9c-2.4-2.3-5.1-4.9-8.1-7.7c-11.4-10.6-22.3-20.9-28.5-26.6C1159.7,896.8,1109.2,850.6,1058.8,804.7z"/>
		</g>
	</g>
</g>
<g>
	<g>
		<g>
			<path class="st48" d="M1108.4,534.3c-0.1,0,0.9,1.1-0.8-0.4c-5.2-4.6-9.1-8.6-14.3-13.3c-0.2-0.1-0.3-0.1-0.5-0.2
				c-3.9-3.7-8-7.5-12.2-11.4c-7.8-7.1-15.6-14.1-23.4-21.1c0.2,0.2,0.2,0.4-0.6-0.3c-3.2-2.9-7.7-7-12.3-11.2
				c-0.7-0.6-1.4-1.2-2.1-1.8c-0.5-0.5-0.7-0.5-0.8-0.6c-2.1-1.9-3.9-3.6-5.6-5.2c-22.9-20.4-46.1-41.1-71.3-63.5
				c-5.4-4.7-10.7-9.4-15.9-14c-7.6-6.8-17.1-15.6-24.4-22.3c0.7,1.5-17.3-14.6-14.2-11c-4.9-4.5-12.2-11.2-12.7-11.4
				c-1.5-0.7-5.6-3.7-18.8-15.3c-5.1-4.6-12.8-11.8-14.7-13.4c-2.9-2.5,6.4,6.3,3.4,3.8c37.7,34.5,74.2,67.5,112.2,102.2
				c13.1,11.6,100.5,91.1,122.9,111.6c0.7,0.6,1.4,1.2,2,1.9c12.2,11.2,27.1,24.7,37.6,33.9c4.8,4.2,9.8,8.5,14.7,12.8
				c-2.2-2.1-4.2-4.1-5.9-5.8c4.9,4.5,9.8,8.9,11.7,10.6c10.6,9.3,4.9,3.7,1.1-0.2c-2.8-2.8,1.3,0.6-3.1-3.6c3.2,3,4.9,4.5,8.1,7.4
				c0.5,0.2-10.1-9.1-7.7-7.2c3.1,2.9,6.7,6,9.9,9c-1-1.2-11.2-10.3-10.6-10.1c1.8,1.6,9,8.6,9.8,8.9c0.2,0.1-3.1-2.9-4.7-4.4
				c10.1,9.1,15.8,13.9,6.8,5.4c3.2,2.9,7.6,7.1,11,10.1c0,0,0,0,0,0c-1.7-1.5-4.5-4.2-6.1-5.6c1.9,1.7,3.8,3.5,5.7,5.2
				c-0.3-0.3-0.6-0.6-0.9-1c-1.4-1.3-2.8-2.6-4.3-4c1.3,1.2,2.5,2.3,3.8,3.5c-0.9-0.9-1.9-2-3.1-3.1c-4.4-4.2-8.6-8.4-11-10.6
				C1147.9,570.4,1128.1,552.3,1108.4,534.3z"/>
		</g>
	</g>
</g>
<g>
	<g>
		<g>
			<path class="st48" d="M780.9,611.8c-0.1,0,0.9,1.1-0.8-0.4c-5.2-4.6-9.1-8.6-14.3-13.3c-0.2-0.1-0.3-0.1-0.5-0.2
				c-3.9-3.7-8-7.5-12.2-11.4c-7.8-7.1-15.6-14.1-23.4-21.1c0.2,0.2,0.2,0.4-0.6-0.3c-3.2-2.9-7.7-7-12.3-11.2
				c-0.7-0.6-1.4-1.2-2.1-1.8c-0.5-0.5-0.7-0.5-0.8-0.6c-2.1-1.9-3.9-3.6-5.6-5.2c-22.9-20.4-46.1-41.1-71.3-63.5
				c-5.4-4.7-10.7-9.4-15.9-14c-7.6-6.8-17.1-15.6-24.4-22.3c0.7,1.5-17.3-14.6-14.2-11c-4.9-4.5-12.2-11.2-12.7-11.4
				c-1.5-0.7-5.6-3.7-18.8-15.3c-5.1-4.6-12.8-11.8-14.7-13.4c-2.9-2.5,6.4,6.3,3.4,3.8c37.7,34.5,74.2,67.5,112.2,102.2
				C665.2,513,752.7,592.5,775,613c0.7,0.6,1.4,1.2,2,1.9c12.2,11.2,27.1,24.7,37.6,33.9c4.8,4.2,9.8,8.5,14.7,12.8
				c-2.2-2.1-4.2-4.1-5.9-5.8c4.9,4.5,9.8,8.9,11.7,10.6c10.6,9.3,4.9,3.7,1.1-0.2c-2.8-2.8,1.3,0.6-3.1-3.6c3.2,3,4.9,4.5,8.1,7.4
				c0.5,0.2-10.1-9.1-7.7-7.2c3.1,2.9,6.7,6,9.9,9c-1-1.2-11.2-10.3-10.6-10.1c1.8,1.6,9,8.6,9.8,8.9c0.2,0.1-3.1-2.9-4.7-4.4
				c10.1,9.1,15.8,13.9,6.8,5.4c3.2,2.9,7.6,7.1,11,10.1c0,0,0,0,0,0c-1.7-1.5-4.5-4.2-6.1-5.6c1.9,1.7,3.8,3.5,5.7,5.2
				c-0.3-0.3-0.6-0.6-0.9-1c-1.4-1.3-2.8-2.6-4.3-4c1.3,1.2,2.5,2.3,3.8,3.5c-0.9-0.9-1.9-2-3.1-3.1c-4.4-4.2-8.6-8.4-11-10.6
				C820.4,647.9,800.6,629.8,780.9,611.8z"/>
		</g>
	</g>
</g>
<g>
	<g>
		<g>
			<path class="st48" d="M759.9,337.3c-0.1,0,0.9,1.1-0.8-0.4c-5.2-4.6-9.1-8.6-14.3-13.3c-0.2-0.1-0.3-0.1-0.5-0.2
				c-3.9-3.7-8-7.5-12.2-11.4c-7.8-7.1-15.6-14.1-23.4-21.1c0.2,0.2,0.2,0.4-0.6-0.3c-3.2-2.9-7.7-7-12.3-11.2
				c-0.7-0.6-1.4-1.2-2.1-1.8c-0.5-0.5-0.7-0.5-0.8-0.6c-2.1-1.9-3.9-3.6-5.6-5.2c-22.9-20.4-46.1-41.1-71.3-63.5
				c-5.4-4.7-10.7-9.4-15.9-14c-7.6-6.8-17.1-15.6-24.4-22.3c0.7,1.5-17.3-14.6-14.2-11c-4.9-4.5-12.2-11.2-12.7-11.4
				c-1.5-0.7-5.6-3.7-18.8-15.3c-5.1-4.6-12.8-11.8-14.7-13.4c-2.9-2.5,6.4,6.3,3.4,3.8c37.7,34.5,74.2,67.5,112.2,102.2
				C644.2,238.5,731.7,318,754,338.5c0.7,0.6,1.4,1.2,2,1.9c12.2,11.2,27.1,24.7,37.6,33.9c4.8,4.2,9.8,8.5,14.7,12.8
				c-2.2-2.1-4.2-4.1-5.9-5.8c4.9,4.5,9.8,8.9,11.7,10.6c10.6,9.3,4.9,3.7,1.1-0.2c-2.8-2.8,1.3,0.6-3.1-3.6c3.2,3,4.9,4.5,8.1,7.4
				c0.5,0.2-10.1-9.1-7.7-7.2c3.1,2.9,6.7,6,9.9,9c-1-1.2-11.2-10.3-10.6-10.1c1.8,1.6,9,8.6,9.8,8.9c0.2,0.1-3.1-2.9-4.7-4.4
				c10.1,9.1,15.8,13.9,6.8,5.4c3.2,2.9,7.6,7.1,11,10.1c0,0,0,0,0,0c-1.7-1.5-4.5-4.2-6.1-5.6c1.9,1.7,3.8,3.5,5.7,5.2
				c-0.3-0.3-0.6-0.6-0.9-1c-1.4-1.3-2.8-2.6-4.3-4c1.3,1.2,2.5,2.3,3.8,3.5c-0.9-0.9-1.9-2-3.1-3.1c-4.4-4.2-8.6-8.4-11-10.6
				C799.4,373.4,779.6,355.3,759.9,337.3z"/>
		</g>
	</g>
</g>
<g>
	<g>
		<g>
			<path class="st48" d="M1118.4,800.8c-0.1,0,0.9,1.1-0.8-0.4c-5.2-4.6-9.1-8.6-14.3-13.3c-0.2-0.1-0.3-0.1-0.5-0.2
				c-3.9-3.7-8-7.5-12.2-11.4c-7.8-7.1-15.6-14.1-23.4-21.1c0.2,0.2,0.2,0.4-0.6-0.3c-3.2-2.9-7.7-7-12.3-11.2
				c-0.7-0.6-1.4-1.2-2.1-1.8c-0.5-0.5-0.7-0.5-0.8-0.6c-2.1-1.9-3.9-3.6-5.6-5.2c-22.9-20.4-46.1-41.1-71.3-63.5
				c-5.4-4.7-10.7-9.4-15.9-14c-7.6-6.8-17.1-15.6-24.4-22.3c0.7,1.5-17.3-14.6-14.2-11c-4.9-4.5-12.2-11.2-12.7-11.4
				c-1.5-0.7-5.6-3.7-18.8-15.3c-5.1-4.6-12.8-11.8-14.7-13.4c-2.9-2.5,6.4,6.3,3.4,3.8c37.7,34.5,74.2,67.5,112.2,102.2
				c13.1,11.6,100.5,91.1,122.9,111.6c0.7,0.6,1.4,1.2,2,1.9c12.2,11.2,27.1,24.7,37.6,33.9c4.8,4.2,9.8,8.5,14.7,12.8
				c-2.2-2.1-4.2-4.1-5.9-5.8c4.9,4.5,9.8,8.9,11.7,10.6c10.6,9.3,4.9,3.7,1.1-0.2c-2.8-2.8,1.3,0.6-3.1-3.6c3.2,3,4.9,4.5,8.1,7.4
				c0.5,0.2-10.1-9.1-7.7-7.2c3.1,2.9,6.7,6,9.9,9c-1-1.2-11.2-10.3-10.6-10.1c1.8,1.6,9,8.6,9.8,8.9c0.2,0.1-3.1-2.9-4.7-4.4
				c10.1,9.1,15.8,13.9,6.8,5.4c3.2,2.9,7.6,7.1,11,10.1c0,0,0,0,0,0c-1.7-1.5-4.5-4.2-6.1-5.6c1.9,1.7,3.8,3.5,5.7,5.2
				c-0.3-0.3-0.6-0.6-0.9-1c-1.4-1.3-2.8-2.6-4.3-4c1.3,1.2,2.5,2.3,3.8,3.5c-0.9-0.9-1.9-2-3.1-3.1c-4.4-4.2-8.6-8.4-11-10.6
				C1157.9,836.9,1138.1,818.8,1118.4,800.8z"/>
		</g>
	</g>
</g>
<g>
	<g>
		<g>
			<path class="st48" d="M952.9,350.1c0-0.1-1.2,0.8,0.5-0.7c5.1-4.8,9.4-8.3,14.5-13c0.1-0.1,0.2-0.3,0.3-0.5
				c4-3.6,8.2-7.3,12.5-11.1c7.8-7.1,15.5-14.2,23.2-21.3c-0.2,0.1-0.4,0.2,0.4-0.5c3.2-3,7.7-7,12.3-11.2c0.7-0.6,1.4-1.3,2-1.9
				c0.5-0.5,0.6-0.7,0.7-0.8c2.1-1.9,4-3.6,5.7-5.1c22.4-20.9,45.2-42.1,69.8-65.1c5.2-4.9,10.3-9.8,15.4-14.5
				c7.5-6.9,17.2-15.6,24.5-22.2c-1.5,0.6,16.2-15.9,12.2-13.1c4.9-4.4,12.3-11.1,12.5-11.6c0.8-1.4,4.2-5.2,17-17.3
				c5-4.7,13-11.6,14.7-13.3c2.7-2.7-6.8,5.7-4.1,3.1c-37.9,34.3-74.1,67.6-112.2,102.2c-12.8,12-100,91.6-122.5,112
				c-0.7,0.6-1.4,1.2-2,1.9c-12.3,11.1-27.1,24.7-37.3,34.3c-4.7,4.4-9.4,8.9-14.1,13.4c2.3-2,4.4-3.8,6.3-5.3
				c-4.9,4.5-9.8,8.9-11.6,10.7c-10.3,9.7-4.2,4.5,0.1,1.1c3-2.5-0.7,1.2,3.9-2.7c-3.3,3-4.9,4.4-8.2,7.4c-0.3,0.5,10-9.2,7.9-7
				c-3.2,2.8-6.6,6.1-9.9,9c1.3-0.9,11.3-10.2,11-9.6c-1.7,1.6-9.4,8.1-9.8,8.9c-0.1,0.2,3.2-2.8,4.8-4.3c-10,9.2-15.3,14.4-6,6.3
				c-3.2,2.9-7.8,6.9-11.1,10c0,0,0,0,0,0c1.7-1.5,4.6-4.1,6.2-5.5c-1.9,1.7-3.8,3.5-5.7,5.2c0.3-0.2,0.7-0.5,1.1-0.8
				c1.4-1.3,2.9-2.6,4.4-3.9c-1.3,1.1-2.5,2.3-3.8,3.5c1-0.8,2.2-1.7,3.4-2.8c4.6-4,9.1-7.7,11.6-10
				C913.2,386.1,933.1,368.1,952.9,350.1z"/>
		</g>
	</g>
</g>
<g>
	<g>
		<g>
			<path class="st48" d="M675.3,543.6c0-0.1-2.5,2,1.3-1.5c11.7-10.8,21.4-19.2,33.1-30c0.2-0.3,0.5-0.6,0.7-0.9
				c9.2-8.3,18.7-16.8,28.5-25.6c17.8-16.3,35.6-32.5,53.3-48.7c-0.5,0.4-0.8,0.5,1-1.1c7.3-6.7,17.6-16,28.1-25.6
				c1.6-1.4,3.1-2.9,4.6-4.3c1.2-1.1,1.4-1.4,1.6-1.6c4.8-4.3,9-8.2,13-11.8c51.6-47.5,104-95.7,160.8-148
				c12-11.1,23.9-22.2,35.5-32.9c17.2-15.7,39.2-35.7,56-51c-3,1.9,37.8-35.6,29.2-28.6c11.2-10.2,28-25.5,28.8-26.4
				c2.3-2.7,10.5-11,40-38.3c11.6-10.7,29.6-26.8,33.6-30.6c6.4-6-15.3,13.5-9,7.5c-86.6,78.7-169.7,154.7-256.8,234
				c-29.5,27.2-229.3,209.4-280.8,256.1c-1.6,1.4-3.1,2.8-4.7,4.3c-28,25.5-62,56.5-85.6,78.3c-10.8,10-21.7,20.2-32.6,30.3
				c5.2-4.6,10-8.8,14.2-12.5c-11.2,10.2-22.4,20.4-26.7,24.4c-23.7,21.9-10,9.8-0.5,1.7c6.7-5.9-2,2.4,8.4-6.8
				c-7.5,6.8-11.2,10.2-18.7,17c-0.7,0.9,22.9-21,17.9-16.1c-7.2,6.5-15.2,13.9-22.7,20.7c2.7-2.2,25.9-23.5,24.9-22.3
				c-4,3.7-21.2,18.9-22.4,20.4c-0.2,0.3,7.2-6.5,11-9.9c-22.9,21-35.4,32.7-14.2,13.8c-7.3,6.6-17.7,15.9-25.3,23c0,0,0,0,0.1,0
				c3.9-3.5,10.5-9.5,14.1-12.7c-4.4,4-8.7,8-13.1,11.9c0.7-0.6,1.5-1.3,2.4-2c3.3-2.9,6.6-5.9,10-9c-2.9,2.6-5.8,5.3-8.7,7.9
				c2.2-1.9,4.8-4.1,7.6-6.6c10.5-9.3,20.5-18.1,26.1-23.2C584.7,626,630.2,584.8,675.3,543.6z"/>
		</g>
	</g>
</g>
<g>
	<g>
		<g>
			<path class="st48" d="M660.8,810.6c0-0.1-2.5,2,1.3-1.5c11.7-10.8,21.4-19.2,33.1-30c0.2-0.3,0.5-0.6,0.7-0.9
				c9.2-8.3,18.7-16.8,28.5-25.6c17.8-16.3,35.6-32.5,53.3-48.7c-0.5,0.4-0.8,0.5,1-1.1c7.3-6.7,17.6-16,28.1-25.6
				c1.6-1.4,3.1-2.9,4.6-4.3c1.2-1.1,1.4-1.4,1.6-1.6c4.8-4.3,9-8.2,13-11.8c51.6-47.5,104-95.7,160.8-148
				c12-11.1,23.9-22.2,35.5-32.9c17.2-15.7,39.2-35.7,56-51c-3,1.9,37.8-35.6,29.2-28.6c11.2-10.2,28-25.5,28.8-26.4
				c2.3-2.7,10.5-11,40-38.3c11.6-10.7,29.6-26.8,33.6-30.6c6.4-6-15.3,13.5-9,7.5c-86.6,78.7-169.7,154.7-256.8,234
				C914.9,572.6,715,754.9,663.6,801.6c-1.6,1.4-3.1,2.8-4.7,4.3c-28,25.5-62,56.5-85.6,78.3c-10.8,10-21.7,20.2-32.6,30.3
				c5.2-4.6,10-8.8,14.2-12.5c-11.2,10.2-22.4,20.4-26.7,24.4c-23.7,21.9-10,9.8-0.5,1.7c6.7-5.9-2,2.4,8.4-6.8
				c-7.5,6.8-11.2,10.2-18.7,17c-0.7,0.9,22.9-21,17.9-16.1c-7.2,6.5-15.2,13.9-22.7,20.7c2.7-2.2,25.9-23.5,24.9-22.3
				c-4,3.7-21.2,18.9-22.4,20.4c-0.2,0.3,7.2-6.5,11-9.9c-22.9,21-35.4,32.7-14.2,13.8c-7.3,6.6-17.7,15.9-25.3,23c0,0,0,0,0.1,0
				c3.9-3.5,10.5-9.5,14.1-12.7c-4.4,4-8.7,8-13.1,11.9c0.7-0.6,1.5-1.3,2.4-2c3.3-2.9,6.6-5.9,10-9c-2.9,2.6-5.8,5.3-8.7,7.9
				c2.2-1.9,4.8-4.1,7.6-6.6c10.5-9.3,20.5-18.1,26.1-23.2C570.2,893,615.7,851.7,660.8,810.6z"/>
		</g>
	</g>
</g>
<g>
	<g>
		<g>
			<path class="st48" d="M590.4,813.6c0-0.1-1.2,0.8,0.5-0.7c5.1-4.8,9.4-8.3,14.5-13c0.1-0.1,0.2-0.3,0.3-0.5
				c4-3.6,8.2-7.3,12.5-11.1c7.8-7.1,15.5-14.2,23.2-21.3c-0.2,0.1-0.4,0.2,0.4-0.5c3.2-3,7.7-7,12.3-11.2c0.7-0.6,1.4-1.3,2-1.9
				c0.5-0.5,0.6-0.7,0.7-0.8c2.1-1.9,4-3.6,5.7-5.1c22.4-20.9,45.2-42.1,69.8-65.1c5.2-4.9,10.3-9.8,15.4-14.5
				c7.5-6.9,17.2-15.6,24.5-22.2c-1.5,0.6,16.2-15.9,12.2-13.1c4.9-4.4,12.3-11.1,12.5-11.6c0.8-1.4,4.2-5.2,17-17.3
				c5-4.7,13-11.6,14.7-13.3c2.7-2.7-6.8,5.7-4.1,3.1c-37.9,34.3-74.1,67.6-112.2,102.2c-12.8,12-100,91.6-122.5,112
				c-0.7,0.6-1.4,1.2-2,1.9c-12.3,11.1-27.1,24.7-37.3,34.3c-4.7,4.4-9.4,8.9-14.1,13.4c2.3-2,4.4-3.8,6.3-5.3
				c-4.9,4.5-9.8,8.9-11.6,10.7c-10.3,9.7-4.2,4.5,0.1,1.1c3-2.5-0.7,1.2,3.9-2.7c-3.3,3-4.9,4.4-8.2,7.4c-0.3,0.5,10-9.2,7.9-7
				c-3.2,2.8-6.6,6.1-9.9,9c1.3-0.9,11.3-10.2,11-9.6c-1.7,1.6-9.4,8.1-9.8,8.9c-0.1,0.2,3.2-2.8,4.8-4.3c-10,9.2-15.3,14.4-6,6.3
				c-3.2,2.9-7.8,6.9-11.1,10c0,0,0,0,0,0c1.7-1.5,4.6-4.1,6.2-5.5c-1.9,1.7-3.8,3.5-5.7,5.2c0.3-0.2,0.7-0.5,1.1-0.8
				c1.4-1.3,2.9-2.6,4.4-3.9c-1.3,1.1-2.5,2.3-3.8,3.5c1-0.8,2.2-1.7,3.4-2.8c4.6-4,9.1-7.7,11.6-10
				C550.8,849.5,570.6,831.5,590.4,813.6z"/>
		</g>
	</g>
</g>
<g>
	<g>
		<g>
			<path class="st48" d="M597.9,552.6c0-0.1-1.2,0.8,0.5-0.7c5.1-4.8,9.4-8.3,14.5-13c0.1-0.1,0.2-0.3,0.3-0.5
				c4-3.6,8.2-7.3,12.5-11.1c7.8-7.1,15.5-14.2,23.2-21.3c-0.2,0.1-0.4,0.2,0.4-0.5c3.2-3,7.7-7,12.3-11.2c0.7-0.6,1.4-1.3,2-1.9
				c0.5-0.5,0.6-0.7,0.7-0.8c2.1-1.9,4-3.6,5.7-5.1c22.4-20.9,45.2-42.1,69.8-65.1c5.2-4.9,10.3-9.8,15.4-14.5
				c7.5-6.9,17.2-15.6,24.5-22.2c-1.5,0.6,16.2-15.9,12.2-13.1c4.9-4.4,12.3-11.1,12.5-11.6c0.8-1.4,4.2-5.2,17-17.3
				c5-4.7,13-11.6,14.7-13.3c2.7-2.7-6.8,5.7-4.1,3.1c-37.9,34.3-74.1,67.6-112.2,102.2c-12.8,12-100,91.6-122.5,112
				c-0.7,0.6-1.4,1.2-2,1.9c-12.3,11.1-27.1,24.7-37.3,34.3c-4.7,4.4-9.4,8.9-14.1,13.4c2.3-2,4.4-3.8,6.3-5.3
				c-4.9,4.5-9.8,8.9-11.6,10.7c-10.3,9.7-4.2,4.5,0.1,1.1c3-2.5-0.7,1.2,3.9-2.7c-3.3,3-4.9,4.4-8.2,7.4c-0.3,0.5,10-9.2,7.9-7
				c-3.2,2.8-6.6,6.1-9.9,9c1.3-0.9,11.3-10.2,11-9.6c-1.7,1.6-9.4,8.1-9.8,8.9c-0.1,0.2,3.2-2.8,4.8-4.3c-10,9.2-15.3,14.4-6,6.3
				c-3.2,2.9-7.8,6.9-11.1,10c0,0,0,0,0,0c1.7-1.5,4.6-4.1,6.2-5.5c-1.9,1.7-3.8,3.5-5.7,5.2c0.3-0.2,0.7-0.5,1.1-0.8
				c1.4-1.3,2.9-2.6,4.4-3.9c-1.3,1.1-2.5,2.3-3.8,3.5c1-0.8,2.2-1.7,3.4-2.8c4.6-4,9.1-7.7,11.6-10
				C558.3,588.6,578.1,570.6,597.9,552.6z"/>
		</g>
	</g>
</g>
<g>
	<g>
		<g>
			<path class="st48" d="M956.4,600.6c0-0.1-1.2,0.8,0.5-0.7c5.1-4.8,9.4-8.3,14.5-13c0.1-0.1,0.2-0.3,0.3-0.5
				c4-3.6,8.2-7.3,12.5-11.1c7.8-7.1,15.5-14.2,23.2-21.3c-0.2,0.1-0.4,0.2,0.4-0.5c3.2-3,7.7-7,12.3-11.2c0.7-0.6,1.4-1.3,2-1.9
				c0.5-0.5,0.6-0.7,0.7-0.8c2.1-1.9,4-3.6,5.7-5.1c22.4-20.9,45.2-42.1,69.8-65.1c5.2-4.9,10.3-9.8,15.4-14.5
				c7.5-6.9,17.2-15.6,24.5-22.2c-1.5,0.6,16.2-15.9,12.2-13.1c4.9-4.4,12.3-11.1,12.5-11.6c0.8-1.4,4.2-5.2,17-17.3
				c5-4.7,13-11.6,14.7-13.3c2.7-2.7-6.8,5.7-4.1,3.1c-37.9,34.3-74.1,67.6-112.2,102.2c-12.8,12-100,91.6-122.5,112
				c-0.7,0.6-1.4,1.2-2,1.9c-12.3,11.1-27.1,24.7-37.3,34.3c-4.7,4.4-9.4,8.9-14.1,13.4c2.3-2,4.4-3.8,6.3-5.3
				c-4.9,4.5-9.8,8.9-11.6,10.7c-10.3,9.7-4.2,4.5,0.1,1.1c3-2.5-0.7,1.2,3.9-2.7c-3.3,3-4.9,4.4-8.2,7.4c-0.3,0.5,10-9.2,7.9-7
				c-3.2,2.8-6.6,6.1-9.9,9c1.3-0.9,11.3-10.2,11-9.6c-1.7,1.6-9.4,8.1-9.8,8.9c-0.1,0.2,3.2-2.8,4.8-4.3c-10,9.2-15.3,14.4-6,6.3
				c-3.2,2.9-7.8,6.9-11.1,10c0,0,0,0,0,0c1.7-1.5,4.6-4.1,6.2-5.5c-1.9,1.7-3.8,3.5-5.7,5.2c0.3-0.2,0.7-0.5,1.1-0.8
				c1.4-1.3,2.9-2.6,4.4-3.9c-1.3,1.1-2.5,2.3-3.8,3.5c1-0.8,2.2-1.7,3.4-2.8c4.6-4,9.1-7.7,11.6-10
				C916.7,636.6,936.6,618.6,956.4,600.6z"/>
		</g>
	</g>
</g>
<g>
	<g>
		<g>
			<path class="st48" d="M1123.5,272.2c0.1,0.1,0.2-3.1,0.2,1.9c0.1,15.7-0.2,28.4-0.1,44.1c0.1,0.4,0.1,0.8,0.2,1.1
				c-0.1,12.2-0.2,24.8-0.2,37.8c0,23.8,0.1,47.6,0.1,71.2c0.1-0.6,0.1-0.9,0.1,1.4c0,9.8,0,23.4,0,37.5c0,2.1,0,4.2,0,6.2
				c0,1.6,0.1,2,0.1,2.3c0,6.4,0,12,0,17.3c0.3,69.2,0.7,139.5,1.1,215.6c0.2,16.1,0.3,32.2,0.4,47.7c0.1,23,0,52.3-0.1,74.7
				c0.6-3.4,0.9,51.2,1.4,40.3c0,14.9,0,37.4,0.1,38.5c0.5,3.5,1.1,15,1.3,54.7c0.1,15.5-0.1,39.4,0,44.9c0.2,8.6,0.3-20.1,0.5-11.5
				c0.2-115.4,0-226.6,0-342.8c-0.3-39.6-0.4-306.4-0.3-374.9c0-2.1,0-4.2,0-6.2c0-37.4,0-82.8-0.2-114.4c-0.1-14.5-0.3-29.3-0.5-44
				c-0.1,6.8-0.2,13.2-0.3,18.6c0-15,0-29.9-0.1-35.7c-0.2-31.8-0.5-13.8-0.9-1.6c-0.2,8.8-0.4-3.1-0.6,10.7c0-9.9,0-14.9,0-24.9
				c-0.2-1.1,0.1,30.7-0.2,23.8c0.1-9.6,0-20.3,0-30.3c-0.2,3.4-0.1,34.5-0.3,33c-0.1-5.4,0.3-28,0-29.9c-0.1-0.4-0.1,9.6-0.1,14.6
				c-0.1-30.7-0.3-47.6-0.6-19.6c0-9.7,0.1-23.5,0.1-33.7c0,0,0,0.1,0,0.1c0,5.1-0.1,14-0.1,18.7c0-5.8,0-11.7,0-17.5
				c0,0.9-0.1,2-0.1,3.1c0,4.4-0.1,8.7-0.1,13.3c0-3.9,0-7.7,0-11.6c-0.1,2.9-0.2,6.2-0.3,9.9c-0.2,13.8-0.4,27-0.4,34.5
				C1123.6,151.3,1123.5,211.9,1123.5,272.2z"/>
		</g>
	</g>
</g>
<g>
	<g>
		<g>
			<path class="st48" d="M588.6,263.2c0.1,0.1,0.2-3.1,0.2,1.9c0.1,15.7-0.2,28.4-0.1,44.1c0.1,0.4,0.1,0.8,0.2,1.1
				c-0.1,12.2-0.2,24.8-0.2,37.8c0,23.8,0.1,47.6,0.1,71.2c0.1-0.6,0.1-0.9,0.1,1.4c0,9.8,0,23.4,0,37.5c0,2.1,0,4.2,0,6.2
				c0,1.6,0.1,2,0.1,2.3c0,6.4,0,12,0,17.3c0.3,69.2,0.7,139.5,1.1,215.6c0.2,16.1,0.3,32.2,0.4,47.7c0.1,23,0,52.3-0.1,74.7
				c0.6-3.4,0.9,51.2,1.4,40.3c0,14.9,0,37.4,0.1,38.5c0.5,3.5,1.1,15,1.3,54.7c0.1,15.5-0.1,39.4,0,44.9c0.2,8.6,0.3-20.1,0.5-11.5
				c0.2-115.4,0-226.6,0-342.8c-0.3-39.6-0.4-306.4-0.3-374.9c0-2.1,0-4.2,0-6.2c0-37.4,0-82.8-0.2-114.4c-0.1-14.5-0.3-29.3-0.5-44
				c-0.1,6.8-0.2,13.2-0.3,18.6c0-15,0-29.9-0.1-35.7c-0.2-31.8-0.5-13.8-0.9-1.6c-0.2,8.8-0.4-3.1-0.6,10.7c0-9.9,0-14.9,0-24.9
				c-0.2-1.1,0.1,30.7-0.2,23.8c0.1-9.6,0-20.3,0-30.3c-0.2,3.4-0.1,34.5-0.3,33c-0.1-5.4,0.3-28,0-29.9c-0.1-0.4-0.1,9.6-0.1,14.6
				c-0.1-30.7-0.3-47.6-0.6-19.6c0-9.7,0.1-23.5,0.1-33.7c0,0,0,0.1,0,0.1c0,5.1-0.1,14-0.1,18.7c0-5.8,0-11.7,0-17.5
				c0,0.9-0.1,2-0.1,3.1c0,4.4-0.1,8.7-0.1,13.3c0-3.9,0-7.7,0-11.6c-0.1,2.9-0.2,6.2-0.3,9.9c-0.2,13.8-0.4,27-0.4,34.5
				C588.7,142.3,588.6,202.9,588.6,263.2z"/>
		</g>
	</g>
</g>
</svg>
