<?xml version="1.0" encoding="utf-8"?>
<!-- Generator: Adobe Illustrator 18.0.0, SVG Export Plug-In . SVG Version: 6.00 Build 0)  -->
<!DOCTYPE svg PUBLIC "-//W3C//DTD SVG 1.1//EN" "http://www.w3.org/Graphics/SVG/1.1/DTD/svg11.dtd">
<svg version="1.1" id="Layer_1" xmlns="http://www.w3.org/2000/svg" xmlns:xlink="http://www.w3.org/1999/xlink" x="0px" y="0px"
	 viewBox="-237 226 635 145" enable-background="new -237 226 635 145" xml:space="preserve">
<g>
	<path fill="#E4BA27" d="M24.7,369c-0.2,1.3-0.8,2.4-1.3,3.4h351.4c0-0.4,0.1-1,0-1.3c-0.5-1.8-2.3-2.6-3.4-4.1c0.5-2-0.5-3.5,0-5.3
		c0-0.1,0-0.1,0-0.2c0.7-1-0.4-1.8-0.2-2.8c0.3-0.4,1.4,0,1.6-0.5c0-0.3,0-0.6,0-0.9c-0.5-0.4-1.3-0.4-1.6-1.1
		c0.8-0.2,1.3,0.4,2.3-0.2c0.8-2.4-1.8-2.9-3.4-3.6c-0.4,0.6-1.3,0.7-2,1.1c-0.2,0.7-0.5,1.2-0.7,1.8c0.4-0.1,0.4,0.3,0.9,0.2
		c-0.5,0.6-1.1,1.1-0.9,2.3c0.2,0,0.3,0,0.4,0.2c1,0,0.9-1.2,2-1.2c-0.1,0.5-0.8,0.5-0.7,1.2c1.9,1.2,1.5,5.2,1.4,8
		c-0.6,1.2-2,0.1-2-0.9c0-0.8-0.2-1.5-0.9-1.6c-0.8,0.2-0.5,1.5-1.6,1.4c-0.2-1,0-2.6-0.4-3.9c0.6-0.5,1.4-0.7,2.3-0.9
		c-0.5-2-1.3-3.7-3.5-3.9c-0.6-1.4-2.1-1.8-3.2-2.7c-1.7,0.8-2.7,2.8-5.1,1.8c-0.4-0.5,0.4-0.7,0-1.2c-1.7-0.1-3.1-1.7-4.4-0.2
		c-1.5-0.8,0-3.5-0.7-5c0.2-0.5,0.6,0.2,1.1,0c0.5-0.7,0.6-1.8,1.8-1.8c0-0.4,0-0.9-0.2-1.1c-1,0-1.3,0.6-2,0.9
		c0.4-1.1-0.3-1.8-0.9-2.5c-0.7,0-0.8,0.6-1.1,1.1c-0.6,0-0.4-0.9-1.2-0.7c-0.3,0.3-0.1,0.6,0,1.1c-0.6-0.1-0.8,0.1-1.2,0.2
		c0,2.8,3.9,3.4,2.3,6.7c-3,0-3.5,2.4-3,5.1c0.6,0,0.7-0.5,1.2-0.5c-0.1,0.8,0.6,1.3,1.4,1.2c-0.1,1.8,0.3,4.1-0.5,5.1
		c-0.8-0.2-1.3-0.8-2.3-0.4c-0.3-1.8-2.6-3-3.9-1.2c-0.4-0.5-0.1-1.7-0.2-2.5c1.1-0.4,1.6-1.4,2.5-2.1c0.1-0.9-0.5-1.1-0.9-1.4
		c-0.1-0.6,0.6-0.4,0.5-1.1c-1.5-2.4-3.9-2.5-5.7-0.2c0.4,0.7,0.4,0.8-0.2,1.2c1,0.7-0.3,1.9,0.5,2.8c2.1-0.6,2.3,1.4,2.5,3.2
		c-1-0.8-2.7-0.1-3,0.9c-1-0.9-1.8,0-2.8,0c-0.7-5.3-0.8-11.1-1.2-16.7c1-0.9,1.6-2,2-3.6c-0.3-0.4-0.9-0.4-1.4-0.2
		c-0.2-0.1,0.1-0.8-0.4-1.1c-0.9,0.7-1.1,0.3-2.1,0c-0.4,0.4-0.4,1.1-0.5,1.8c-0.6-0.1-1.2,0-1.6,0.2c0,0.2,0,0.4,0,0.5
		c0.5,0.6,1.4,0.9,1.4,2c0.6,0.1,0.7-0.4,1.2-0.4c0.2,1.4,0.4,3.7,0.5,5.7c-0.8-0.1-1.6-0.2-1.8-0.9c-2.2-0.2-2.6,1.3-3.7,2.1
		c0.3,0.8,0.1,1.3,0,2.1c1.3,0.3,1.5,1.8,3,2c0,1.6,0.9,3.1,0.4,4.6c-0.6,0-0.8-0.2-1.2-0.4c0.2-0.6,0.9-1.4,0.4-2.1
		c-1.2,0.2-1.8,1.1-2.7,1.6c-0.6-0.2-0.6-1.3-0.4-2c-0.5-0.1-1.1-0.1-2-0.2c-0.6-1.3-0.5-3.2-0.7-4.8c0.5,0,1,0.8,1.2,0.4
		c0.6-0.4,1.6-2.3,0.5-2.8c-0.1-0.6,0.8-0.1,0.9-0.5c-0.4-1.4-2.1-1.3-2.7-2.5c-1.4,0.2-2,1.2-3.2,1.6c0.5,1.2-0.4,1.1-0.5,2.1
		c0,0.6,0.4,0.8,1.1,0.7c0.2,0.7-0.4,0.5-0.4,1.1c0.9,0.2,1.3,0.9,2.1,1.2c-0.2,1.3,0.5,2.5,0,3.5c-1.5,0.4-1.1-1-1.4-1.8
		c-1.3,0.2-2.2-0.2-2.8-0.7c-1.3,0.7-2.8,1.1-3.7,2.1c-0.9-1.8-0.3-4.7-0.2-6.2c0-0.6,1.2-0.1,1.4-0.5c-0.4-0.9-0.5-2.1-1.2-2.7
		c-2.4-0.6-3.6,0.9-3.6,3.7c2.4-0.2,2.1,2.4,2.3,4.4c-1-0.1-1.6,0.7-2.8,0.4c-0.2,0.8,0,1.3-0.9,1.6c-0.9-1-0.7-3-0.9-5.5
		c-0.1-0.8-0.3-2.2-0.2-2.5c0.4-1.5,3.2-1.3,1.8-3c0-0.4,0.7-0.2,0.7-0.5c-0.3-1.1-2.7-3.2-4.1-3c-1.5,0.2-1.3,3.3-3.4,2.3
		c-0.2,0.8-0.9,1.2-1.4,1.6c0.3,0.8,0.1,1.3-0.5,1.6c0.1,0.9,1,1,0.9,2.1c0.9-0.1,0.8,0.7,1.8,0.5c0.3,2.6,0.5,6.7-0.5,8.5
		c0.3,0.2,0.7,0.6,1.1,0.2c-0.4,0.5,0.1,0.9-0.2,1.4c-1.2-0.2-2.2,0.2-2.7-0.5c-0.8,0.3-1.9,0.3-2.3,1.1c-0.4-3.7-0.4-7.9-1.2-11.2
		c0.3-0.5,0.9-0.6,1.6-0.7c0.2-1,0.2-2.1,0.7-2.8c-0.4-0.6-0.8-1.2-0.9-2.1c-1.4-0.8-2.9-0.5-4.1-1.4c-0.9,0.6-0.7,0.3-1.8,0
		c-0.1,0.4-0.3,0.8-0.2,1.4c-2.4,0.1-2.6-1-3.2-2.8c-1,0.3-1.4-0.4-2.8-0.5c-0.5,1-1.6,1.5-2.8,1.8c-0.4,0,0-0.8-0.4-0.9
		c-0.7,0.2-0.7,0.7-1.6,0.4c-0.1,0.8-0.7,1.2-1.2,1.6c0.5,1-0.3,1.3-0.4,2.3c0.2,0.1,0.5,0.2,0.9,0.2c0.1,0.6-0.1,0.8-0.2,1.2
		c-1.6-0.1-1.5-2-3.7-1.6c-0.2,1-1.3,1.1-1.8,1.8c0.4,0.9,0.3,1.3-0.5,1.8c-0.8-0.6-0.9-1.9-0.2-2.7c-0.7-1.6-1.9-2.1-3.6-2.3
		c-0.3,0.2-0.4,0.7-0.7,0.9c-1.3-0.8-2.2-2-3.7-1.8c-0.8,0.1-1.4,1.3-2.7,0.7c-0.3-0.2-0.3-0.7-0.7-0.7c-0.7-0.1-0.9,0.3-1.6,0.2
		c-0.2,1.2-1.2,1.4-2.1,1.8c0.1,0.7,0.8,0.7,0.4,1.4c-1.3-0.4-2.4-1.6-3.9-1.2c-0.5,1-1.2,1.7-2,2.3c-0.1,0.6,0.3,0.7,0.4,1.1
		c-0.3,0-0.6,0-0.9,0c0-2.8,0.1-5.8,0-8.2c0-0.4,0-0.7,0-1.1c0-3,0-5.9,0-8.9c-0.9,0-1.8,0-2.7,0c-0.4-0.6-0.1-2-0.2-2.8
		c-0.9,0-1.9,0-2.8,0c0,6,0,12,0,17.9c-0.1,0.4-1,0.1-1.4,0.2c0,1.8,0,3.6,0,5.3c-1.4,0.4-3.5,0.1-5.1,0.2c-0.9,0.5-1.3,1.5-2.1,2.1
		c-0.5,0.3-2.2,0.3-2.7,0c0-4.3,0-8.6,0-13c-1,0-2,0-3,0c0-0.7,0-1.4,0-2.1c-1.1-0.4-2.7-0.1-4.1-0.2c0,0.2,0,0.4,0,0.5
		c0.2,0.8-0.2,1.9-0.9,1.2c-0.4,0-0.7,0-1.1,0c0,0.1,0,0.1,0,0.2c-0.1,0-0.2,0-0.4,0c-0.1,0.4,0.2,1.2-0.2,1.2c-1.1,0-2.2,0-3.4,0
		c-0.1,3.3,0.2,7-0.2,9.9c-2.6-0.3-6.7,0.9-7.6-1.1c-0.4-7.8-0.1-16.3-0.2-24.3c-0.6-0.1-1.6,0.2-2-0.2c-0.2,0-0.4,0-0.5,0
		c0-0.4,0-0.8,0-1.2c-2.5,0.2-5.8-0.4-7.6,0.4c-0.2,1-1.7,0.7-2.8,0.7c-0.4,0.5-0.8,1-1.2,1.4c-0.1,4.6,0.2,9.6-0.2,13.8
		c-0.6,0.3-2.4,0.3-3,0c-0.4-0.1-0.1-1-0.2-1.4c-1.4-0.3-3.3-0.1-5-0.2c0,0.6,0,1.2,0,1.8c-0.6,0.8-2.6,0.2-3.7,0.4
		c-0.7-0.5-1-1.4-1.8-1.8c-0.5-0.1-1.5,0.2-1.8-0.2c0-2-0.5-3.5-1.8-4.3c0-5.6,0-11.1,0-16.7c-4,0-8,0-12.1,0c0,9.3,0,18.6,0,27.9
		c-0.1,0.4-1,0.1-1.4,0.2c0,0.4,0,0.8,0,1.2c-0.5,0-0.9,0-1.4,0c0-0.5,0-0.9,0-1.4c-0.1,0-0.1,0-0.2,0c0.2-0.6-0.6-0.3-0.9-0.4
		c-0.3,0-0.4-0.2-0.7-0.2c0-2,0-4,0-6c0-0.4,0-0.7,0-1.1c-1-0.3-1.7,0-2.8,0c-0.6-0.1-0.3-1.2-0.4-1.8c-0.2-1.6,0.3-3.3,0-5
		c-0.1-0.4-0.4-0.2-0.5-0.5c-1-2.7,0.7-6.3,0-8.2c-0.1-0.4,0.1-0.4-0.7-0.4c-0.4-2.7-0.1-6.2-0.2-9.2c-0.5,0-0.9,0-1.4,0
		c-0.4-4.7-0.1-10.2-0.2-15.3c-0.3-0.2-0.7-0.1-0.9-0.5c-0.5-1.1,0-4,0-6c0-2.3,0-4.4,0-6c-1.4-4.5-10.2-4.5-11.7-0.2
		c0,5.9,0,13.6,0,20.2c0,3.9,0.8,7.7-2,8.7c-1.4,2.5,0.2,12.6-0.9,15.3c-0.2,0-0.4,0-0.5,0c-0.4-2.6-0.1-6-0.2-8.9
		c-3-0.5-7.2-0.6-8.5,1.6c0,3.1,0,6.3,0,9.4c0,4.7,0,9.4,0,14c-0.1,0.8-1.5,0.2-2.1,0.4c-0.5,0-0.9,0-1.4,0c-0.1-3.3,0.2-7-0.2-9.9
		c-0.5,0-1.1,0-1.6,0c-2.7,0-5.3,0-8,0c0,7.2,0,8.5,0,15.7c-0.3,0-0.6,0-0.9,0c-0.4-4.7-0.1-4.2-0.2-9.2c-0.3,0-0.6,0-0.9,0
		c0-3.6,0-7.2,0-10.8c-0.6-0.2-1.2-0.4-2.1-0.4c0-0.8,0-1.7,0-2.5c-0.4,0-0.8,0-1.2,0c-0.1-0.9-0.6-1.3-0.5-2.3
		c-0.4-0.1-1-0.2-1.6-0.2c-0.1,1.5-0.9,2.3-2.1,2.7c0,0.7,0,1.3-0.2,1.8c-0.1,0.4-1,0.1-1.4,0.2c-0.1,2.9,0.2,6.3-0.2,8.9
		c-1.5,0-3.1,0-4.6,0c-0.1,0-0.1,0-0.2,0c-0.4,0.2-0.2,0.9-0.7,1.1c0,0.1-0.1,0.2-0.2,0.2c-0.1,3.8,0.2,8.2-0.2,11.7
		c-0.9,0-1.8,0-2.7,0c-0.4-0.4-0.1-1.4-1.2-1.1c0-1.8-0.5-2.9-0.4-4.8c-0.4,0.7-0.5,1.7-0.5,2.8c0,0.1,0,0.2,0,0.3c0,0,0,0,0,0
		c-0.1,1.4-1.9,1.1-1.4,3c-0.9,0.4-2.3,0.3-3.4,0.5c-0.5-1.7,0.2-3.7,0-5.7c-3,0.1-6.4-0.2-9.1,0.2c0,0.4,0,0.7,0,1.1
		c-0.1,1.3,0.3,3.3-0.4,4.1c-0.8,0.1-2-0.2-2.5,0.2c-1.1,0.1-1.5,0.9-2.7,0.9c-1.2,0.4-3.3,0.1-4.8,0.2c-1.1,0-2.1,0-3.2,0
		c-0.5,0-0.9,0-1.4,0c0.1-3.7-0.2-7.8,0.2-11.2c1,0.1,1.4-0.2,2.3-0.2c0.1,0,0.1,0,0.2,0c0.9,0,0,1.5,0.4,1.6c0,0.1-0.2,0.2-0.2,0.4
		c0.2,0.3,0.1,0.9,0,1.1c0.2,0.6,0.4-0.2,0.5-0.2c0.4,0.1,0,1.4-0.2,0.5c-0.3,0.3,0,0.5-0.2,1.1c0.3,0,0.1-0.5,0.4-0.5
		c-0.4,1.2-0.5,5.2-0.4,6.9c0.7-0.3,1.8-0.3,1.6-1.4c-0.3,0-0.1,0.5-0.4,0.5c-0.4-0.3,0.2-0.6-0.2-1.1c0.3-0.1,0.3,0.1,0.4,0.4
		c0.4-1.3,0.1-4.6,0.2-6.7c-0.1,0.1-0.3,0.2-0.5,0.2c0.2-0.4,0.5-0.7,0.9-0.9c0-0.2-0.2-0.1-0.4-0.2c-0.4,0-0.1-0.6-0.2-0.9
		c0-0.3,0-0.6,0-0.9c0.3-0.1,0.9,0.2,0.9-0.2c1.9-0.5,4,0.3,5.5-0.7c0.2,0.9,2.4,0.4,2.5-0.4c0.1,0,0.2,0,0.4,0
		c0,0.2,0.2,0.6,0.4,0.9c0,0,0,0,0,0c0,0,0,0,0,0c0.2,0.3,0.5,0.4,0.9,0c0.2,0,0.5,0,0.7,0c0-0.9,0-1.9,0-2.8
		c-0.1,0.8-1.4,0.4-1.6,1.1c-0.3-0.2-0.1-0.8-0.5-0.9c-2.6,1.5-6,2.1-9.6,2.7c0-0.2,0-0.5,0-0.7c0.2,0,0.1,0.2,0.2,0.4
		c0.3-0.1,0-1.3-0.4-0.7c0.3-0.6,0.1-1.4-0.2-2c0-0.3,0-0.6,0-0.9c0.3,0,0.4,0.2,0.7,0.2c-0.2-0.7-1.7-0.4-2.3,0
		c0.2,0.4,0.7,0.4,1.2,0.4c0.1,0.9,0.5,1.6,0.4,2.7c-0.1,0.4-1.3,0.2-0.7,0.9c-0.1,0-0.1,0-0.2,0c-0.2-0.1-0.1-0.4-0.2-0.7
		c-0.5,0.2-0.6,0.4-0.4,0.9c-0.3-0.2-0.6-0.3-0.5-0.7c-0.4,0-0.4,0.5-0.2,0.7c-0.7,0-0.7,0.2-1.2,0c-0.7-0.4,0.2-2.9,0.2-3.2
		c0-0.2-0.4-2.6-0.4-3.9c0-1,0.5-2.6-0.5-3c-0.2,0-0.1,0.2-0.2,0.4c-0.2,0-0.3,0-0.4-0.2c0.2-0.7,0.7-0.3,1.1-0.5
		c-0.1-0.8-0.7,0-1.1-0.4c0.1-0.2,0.2-0.3,0.4-0.4c0.2,0,0.1,0.2,0,0.2c0,0.5,0.3-0.2,0.7,0c0-0.7,0-1.3,0-2
		c-0.3,0.2-0.4,0.6-0.4,1.1c-0.2-0.2-1.3-0.9-1.2-0.2c-0.5-0.1-0.5-0.7-0.7-1.1c0.6-0.4,1-0.9,1.8-1.1c0.3,0,0.1,0.6,0.4,0.7
		c0.3-0.3,0.3-1.8,0-2.1c-0.7,0-0.1,0.1-0.2,0.5c-0.6,0.3-0.1-0.6-0.5-0.5c-0.1,0-0.1,0-0.2,0c0.1-0.2,0.3-0.3,0.5-0.4
		c0-0.3-0.2-0.3-0.2-0.5c0.1,0,0.1,0,0.2,0c0.3,0,0.1,0.6,0.4,0.7c0.3-0.5,0.2-2.4,0.2-2.7c0-0.4-0.5-0.2-0.4-0.7
		c0.1-0.5,0.4,0.2,0.9,0c0.2-0.8,0.2-1.8,1.6-1.4c-0.1-0.2-0.5-0.3-0.2-0.4c0.2-0.1,1.1,0,0.5,0.2c0.3,0.6,0.4-0.5,1.1-0.2
		c-0.1,0.2-0.4,0.3-0.7,0.4c0.1,0.4,0.9,0.1,1.2,0.2c0.1-0.3-0.2-0.3-0.2-0.5c0.2,0.1,0.3,0.2,0.4,0c0.1,0,0.1,0,0.2,0
		c0.2,0.2,0.2,0.4-0.2,0.4c1,0.4,2.8,0.1,4.1,0.2c-0.1-0.2-0.4-0.2-0.4-0.5c0.6-0.2,0.4,0.5,0.7,0.5c0.7,0.1-0.2-0.5,0.5-0.5
		c0.2,0.4-0.1,0.7,0.9,0.5c-0.1-0.1-0.2-0.3-0.2-0.5c1,0.2,0.5,0.8,1.2,0c0.1,0,0.2,0.2,0.4,0.2c-0.7,0.6,0.6,0.3,1.1,0.5
		c0.2-0.5,0.5-0.8,1.1-0.5c-0.2,0.3-0.4,0.4-0.9,0.4c1,0.4,2.8,0.1,4.1,0.2c-0.4-0.4,0.1-0.5,0.5-0.5c0.2,0.1,0,0.3-0.2,0.4
		c0,0.4,0.6,0.1,0.9,0.2c0-0.2-0.4-0.1-0.4-0.4c1.4-0.1,2.4-0.2,4.4,0.2c-1.1,0.3-1.7,0-3,0c2.2,0.8,5.8,0.2,7.5,0.5
		c-0.1-0.2-0.3-0.3-0.5-0.4c0-0.4,0.8-0.1,1.1-0.2c-0.1,0.2-0.4,0.2-0.4,0.5c0.5,0,1.2,0.1,1.4-0.2c-0.2-0.5-0.6,0.3-0.9-0.2
		c0.8-0.5,2.5,0,3,0.4c-0.1-0.3-0.5-0.1-0.2-0.5c0.8,1.1,1.9-0.1,2.8,0.5c0.7-0.3-0.7,0-0.5-0.4c0.6-0.5,0.8,0.3,1.4,0.5
		c0,0.1,0,0.2,0,0.4c0.6-0.5,1.1,0.2,1.8,0.2c-0.5-0.3,0.3-0.6,0.4-0.2c0.2,0,0.1-0.4,0.4-0.4c0.6-0.2,0-1,1.1-0.9
		c0.1,0.4-0.8-0.1-0.5,0.5c0.4-0.1,0.5-0.1,1.2-0.2c-0.1,0.2-0.4,0.2-0.4,0.5c2.2,0,4.5,0,6.7,0c-0.2-0.2-0.1-0.3,0-0.5
		c0.2,0.1,0.3,0.3,0.4,0.5c0.1-0.4,1.4,0.2,1.2-0.5c0.6-0.1,0.2,0.7,0.9,0.5c0.2-0.2,0.1-0.3,0-0.5c0.4-0.1,0.3,0.3,0.5,0.4
		c0.7-0.2,1.1,0.4,1.8,0c-0.1-0.6-0.6-0.7-1.1-0.9c-0.7,0.2-1.6-0.3-2.1,0c-0.1,0-0.1,0.5-0.2,0.5c-0.1,0-0.6-0.3,0-0.4
		c-0.8,0-1.5-0.3-2.1,0.2c1-0.7-1.1-0.2-0.4,0.4c-0.4,0.3-0.5-0.6-0.2-0.5c-0.4,0.1-2.6-0.6-3.6,0.2c0-0.1-0.4-0.8-0.5,0
		c-1.5-0.7-3.1-0.4-5.1-0.7c0.1,0.4,0.9,0,0.7,0.7c-1.8-0.4-3-0.7-4.6-0.2c-1.2-0.5-1.1-0.2-2.5,0c1-0.4-0.8-0.6-0.2,0
		c-1.9-0.6-2.6-0.2-5-0.5c0,0.1,0.2,0.2,0.2,0.4c-1.6-0.4-4.2-0.5-6-0.2c-0.9-0.7-1.8-0.3-3-0.7c0.1,0.2,0.2,0.4,0.2,0.7
		c-1.1-0.8-2.5,0-3.5-0.5c-0.6,0.8-1.1-0.5-1.6,0.4c-0.1-0.4-1.2-0.6-1.2-0.4c-0.7,0.3-1.3-0.4-1.6,0.4c-0.3-0.1-0.4-0.3-0.5-0.5
		c-0.4,0.1-0.5,0.4-0.7,0.5c-1.1-0.5-2-0.6-3.2-0.2c0.3-0.4,0-0.2,0-0.7c-0.2,0-0.1,0.4-0.4,0.4c-0.3,0.5-0.9-0.3-1.1,0.2
		c-0.6,0.2-0.6-0.2-0.5-0.7c0-0.4,0-0.8,0-1.2c0-0.4,0.6-0.1,0.9-0.2c-0.1-0.4,0.3-0.4,0.2-0.9c-0.4-0.1-0.2,0.5-0.5,0.5
		c-0.5,0-0.6-0.5-0.4-0.7c0-0.3,0.6,0.2,1.1,0c0,0.5,1.1-0.1,1.1,0.4c0.2-0.1,0.3-0.5,0.4-0.2c0.4,0-0.1-0.5-0.4-0.4
		c-0.7-0.6-1.7,0.2-2-0.7c-0.7,0.5-1.6,0.7-2.5,1.1c-0.8,0.4,1.1-0.1,1.6-0.2c0.4,0.1-0.3,0.5-0.2,0.9c0,0.7-0.3,1-0.5,1.4
		c-0.3,0.1,0,0.8-0.4,0.9c0-0.3-0.2-0.3-0.2-0.5c-0.2,0-0.1,0.3-0.2,0.5c-0.6,0.2-1.1-0.4-1.2,0c-0.5,0-1,0-0.9-0.5
		c-0.8,0.7-1.8,0.7-2.5,0c-1.8,0.8-3.3-0.8-5.1-0.4c-0.5,0-1.2,0.1-1.4-0.2c0-0.1,0-0.2,0-0.4c-1.3,0.1-2.4-0.2-2.3,0.5
		c-0.4,0-0.8,0-1.2,0c-0.4-0.1-0.1-0.9-0.2-1.2c-1,0.7-1.1,2.4-0.7,4.1c0.3,0,0.6,0,0.9,0c0.2,0.3,1.6,0.3,1.8,0
		c-0.1-0.6,0.3-0.7,0.2-1.2c0.5,0,1.1,0,1.6,0c0.9,0.9,2.8,0,4.1,0.2c2.7,0,5.2,0.1,7.3,0c0.3,0.5,0.6,1.8-0.2,2c0,0.1,0,0.1,0,0.2
		c0,0,0,0,0,0c0,2.3,0,5.9,0,8.4c0,0.5,0,0.9,0,1.4c0,0.8,0,1.7,0,2.5c0,0.5,0,0.9,0,1.4c-0.3,1.4-0.2,4.2-0.2,5.3
		c-0.3-0.1-0.1-0.7-0.7-0.5c0,0.3,0.2,0.3,0.2,0.5c-0.6,0.2-0.1-0.6-0.7-0.4c0.2,0.2,0.1,0.3,0,0.5c-0.2-0.1-0.6-0.7,0-0.5
		c-0.2-0.4-1.6,0.1-1.1,0.5c-0.5,0.1-0.3-0.5-0.9-0.4c0,0.2,0.2,0.1,0.4,0.2c0,0.4-0.5,0.2-0.4,0.7c0.6-0.4,1.9-0.3,3.2-0.4
		c0,1.3,0,2.6,0,3.9c0,0.9,0,1.8,0,2.7c0,1.1,0,2.1,0,3.2c-0.2,0.6-0.7,0.9-1.6,0.7c0-0.1-0.2-0.2-0.2-0.4c-0.8,0.1-0.5,1.3-0.5,2.1
		c-2-0.6-2.9-2.9-4.1-4.4c-1.4-1.8-2.9-3.6-4.6-5c-0.7-0.5-1.3-1.1-1.8-1.8c-2.1-1.4-5.4-4.4-9.8-4.6c-0.8,0-1.7,0-2.5,0
		c-0.5-0.5-0.5-0.2-1.1,0c-1.1-0.2-2.3-0.2-3.4,0c-8.8,2.4-13.1,9.2-17.8,15.8c-0.3,0-0.6,0-0.9,0c-0.1,0.7-0.3,1.2-0.4,2
		c-0.2,1.1,0.5,2.7,0.5,4.1c0,0.6,0.3,1,0.4,1.6C25,366.9,25,368.6,24.7,369z M98.5,325.1c0.3,0.3,1.2,0,1.4,0.4
		C99.8,325.6,98.5,325.7,98.5,325.1z M79,353.2c0.2-0.7-0.3-1.1,0.4-1.2C79.3,352.4,79.5,353.2,79,353.2z M78.8,349.6
		c0.4,0.4-0.3-0.8,0.4-0.9c0,0.7,0.4,1.4-0.2,1.8C79.2,350.1,78.4,349.8,78.8,349.6z M78.5,354.1c-0.1,0-0.2,0-0.2,0.2
		c0.1,0,0.2,0,0.4,0c-0.5,0.6,0,1.5-0.4,2.1C78,356,78,353.6,78.5,354.1z M348.2,357.1c0.1-0.3,0.1-0.8,0.5-0.7
		C349,356.7,348.8,357.2,348.2,357.1z M362.7,361.2c0.2,0,0.2-0.2,0.5-0.2c0.1,0.5,0.1,1.1,0.5,1.2c0.6,0.1,0.4-0.6,1.1-0.5
		c0.3,0.6,0.2,1.5,0.2,2.3c-0.5,0.4-1.1,0.6-2,0.5C362.8,363.5,362.8,362.3,362.7,361.2z M357.9,359.9c1.2,1,2.2-0.6,2.8-1.2
		c0.6,1.3,1.7,3.8,0.9,5.3c-0.8-0.4,0-0.9,0-1.6c-1.6,0.1-2.2-0.3-3.4,0.5C358.1,362.1,358,360.3,357.9,359.9z M354.6,363.3
		c0.3-0.6-0.2-1,0.4-1.4c0.8,0.3,1.3,0.1,2.1,0c0.2,0.2,0.2,0.8,0.2,1.2C356.3,363.4,355.5,363.8,354.6,363.3z M350.3,363.1
		c1.2-0.5,0.7-2.8,0.9-4.4c0.6-0.2,0.8-0.6,1.4-0.7c0.5,1.5,1.3,3.3,1.1,5C352.8,363.2,350.8,364.1,350.3,363.1z M332,356.2
		c0.8-0.1,1.2-0.4,2-0.5c-0.1,2.5,0.8,5,0.4,7.3c0-1.1-1.1-1-1.8-0.5C332.5,360.2,332.5,357.9,332,356.2z M309.1,358.5
		c0.2,0,0.4,0,0.5,0c0,0.4,0,0.9-0.4,0.9C309.1,359.2,309,358.9,309.1,358.5z M306.8,351.9c0.2-0.4,0.4,0.5,1.1,0.2
		c0.3-0.5,0.8-1,0.4-1.8c0.2,0,0.4,0,0.5,0c0.3,2,1,4.5,0.5,6.7c-1.1-0.2-1.7,1.4-2.3,2.1C306.9,357.2,306.8,354.6,306.8,351.9z
		 M301.8,363.5c1.1-0.7,2.5-0.8,3.6,0C305.1,364.5,302.3,364.3,301.8,363.5z M296.7,353.5c0.8-0.7,0.7-2.4,1.8-2.8
		c0.1,0,0.2,0,0.4,0c0.7,4.1,1,8.7,1.2,13.3c-0.5,0.4-1.7,0.1-2.5,0.2C296.2,361.7,297,357,296.7,353.5z M291,349.3
		c1-0.2,1.2-1,0.9-2.1c0.4-0.5,1.2,0.1,1.6-0.7c0.3,0.4,0.6,0.8,0.7,1.4c-1.3,0.9-1.6,2.5-1.2,4.6c0.4,0.5,1.3,0.5,2,0.7
		c0.4,2.7,0.3,5.9,0.5,8.5c0.1,0.9,0.8,2.1-0.4,2.5c-0.2-0.7-0.6-1.2-1.2-1.4c-0.7,0.1-1,0.6-1.6,0.9
		C291.3,359.4,291.9,353.5,291,349.3z M286.7,349.3c0.7-0.1,0.4,0.8,1.2,0.5c0.4-0.5-0.4-1.3,0.4-1.6c0.1,0.4,0.1,1,0.5,1.1
		c0.4-0.1,1-0.4,1.2-0.2c0.2,3.9,1.1,8.8,0.4,12.4c0.1-0.6-0.2-0.7-0.5-0.9c-1,1-0.5,3.5-2.3,3.7C287,359.9,286.4,353.6,286.7,349.3
		z M278.6,363.8c-0.3-0.8-1.6-0.7-2.3-1.1c-0.3-3.7-0.5-7.5-0.9-11.2c1.1,0,2,0.5,3.4,0.4c-0.1,0.6-0.8,1.6,0,2.1
		c0.8,0.2,1-0.6,1.4-0.2c0,1,0.4,2.1,0.5,3.4c0.2,2.7-0.6,5.8,0.7,7.5c1.1-0.3,0.4-1.3,0.4-2c0-2.5-0.2-6-0.4-8.5
		c1.3-0.2,1.4-1.4,2.5-1.4c0-1.1-0.4-1.8-0.9-2.5c0.6-1.3,1.6,0,2.5-0.2c-0.1,5.2,0.9,10.4,0.7,15.1c-0.9,0.2-0.1-1.4-1.2-1.1
		c-0.4,0,0,0.8-0.4,0.9c-2,0.1-4.9,0.3-7.3,0C277.2,363.7,278.2,364.5,278.6,363.8z M270.6,351.9c0.7-0.5,0.9-1.5,2-1.6
		c-0.7,1.6,0.7,2.3,1.8,2.1c0.8,3.1,0.5,7.4,1.1,10.8c-0.1,0.6-0.9-0.1-1.1,0.7c0.4,0.5,1.1-0.4,1.1,0.5c0,0.2,0,0.5,0,0.7
		c-1.1,0.3-2.6-0.1-3.7-0.4C271.2,360.8,270.5,356,270.6,351.9z M267.7,350.7c0.3,1.3,1,0.3,1.6,0.9c0.3,4.5,0.8,8.6,1.1,13.1
		c-0.9,0.1-1.5-0.1-2.3-0.2c0-1.9,0-3.8,0-5.7c-0.4,0-0.7,0-1.1,0C267.3,356.1,265.2,351.9,267.7,350.7z M266.7,349.1
		c-0.1,0.4,0.3,0.4,0.2,0.9C266.3,350.2,266,349,266.7,349.1z M259.2,352.1c-0.7,0.1-0.7-0.9,0-0.7
		C259.2,351.6,259.2,351.9,259.2,352.1z M260.6,353.2c0.5-0.4,1.8,0.8,2.1-0.4c-0.3-0.4-0.5-0.8-0.7-1.2c0.5,0,1.2,0.2,1.2-0.4
		c0.2-0.9-0.5-0.9-0.4-1.8c1.6-0.2,0.4,1.3,0.9,2c0.6,0.3,1,0.1,1.6,0c0,1.3,0.3,2.3,0.2,3.7c-1.5,0-3,0-4.4,0c0,0.4,0,0.8,0,1.2
		C260.9,355.4,260.8,354.2,260.6,353.2z M258.5,353.7c0.4,0.5,0.7,0,1.2,0.4c-0.2,1.4,0.5,1.9,0.4,3.2c-0.5,0-1.1,0-1.6,0
		C258.5,356.1,258.5,354.9,258.5,353.7z M74.6,350c0,0.2,0,0.4,0,0.5c-0.4,0.1-0.5-0.1-0.7-0.2c0-0.1,0-0.1,0-0.2
		C74,350,74.3,350,74.6,350z M74.6,338.1c-1,0,0-1.2-0.2-1.6c0-0.1,0-0.1,0-0.2C75,336.2,74.3,337.4,74.6,338.1z M74.7,340.4
		c-0.5,0.3,0.2,1.8-0.5,1.8C74.3,341.3,74,340.1,74.7,340.4z M74.7,349.8c-0.2,0-0.4,0-0.5,0c0.3-0.5-0.2-0.7,0.4-0.9
		C74.4,349.4,74.8,349.4,74.7,349.8z M73.7,358.5c0.2-0.6,1.2-0.8,0.7-1.6c0.1,0,0.1,0,0.2,0c0.2,0.1,0.2,0.9,0.2,1.6
		c0,0.2,0,0.4,0,0.5C74,359.2,73.9,358.8,73.7,358.5z M73.3,342c0,0.3-0.6,0.1-0.5,0.5c-0.5-0.5,0.2-1.2-0.2-1.6
		c0.3-0.3-0.3-0.7,0.2-1.1c0.3,0,0.5,0,0.5,0.2c-0.3,0.1,0,0.8-0.4,0.9c0.1,0.3,0.2,0,0.4,0C73.3,341.6,73.1,341.4,73.3,342z
		 M72.6,337c0-0.4,0-0.7,0-1.1c0.2,0,0.5,0,0.7,0c0,0.1,0,0.2,0,0.4C73,336.4,73.3,337.2,72.6,337z M73.3,345c0,0.2,0,0.4,0,0.5
		c-1,0.5-1-0.8-0.2-1.1c0.2,0.4-0.5,0.7,0,0.7C73.2,345.1,73.2,345,73.3,345z M73.3,329.2c-0.4-0.1-0.3,0.3-0.5,0.4
		c0-0.4-0.3-0.5,0-0.9C73.2,328.6,73.4,328.8,73.3,329.2z M72.6,331c0.1-0.6,0.3-1.3,0.7-1.6c0,0.3,0,0.5,0.2,0.5c0,0.1,0,0.1,0,0.2
		c-0.2,0-0.3,0-0.4,0.2c0.2,0,0.2,0.1,0.2,0.2c-0.2,0-0.3,0-0.4,0.2c0.2,0,0.3,0,0.4,0.2C73.2,330.9,72.9,331,72.6,331z M73.1,335.1
		c0-0.5-0.8-0.2-0.5-0.9c0.3-0.1,0.5,0.3,0.5,0c-0.2-0.1-0.4-0.2-0.4-0.5C73.7,333.6,73.2,334.9,73.1,335.1z M73.3,337.9
		c-0.2,0.2-0.2,0.7-0.5,0.7c-0.2-1.1-0.2-1.2,0.5-1.8C73.5,337.9,72.7,337.1,73.3,337.9z M73,353.9c-0.2,0-0.1,0.4-0.4,0.4
		c-0.3-0.1,0-1,0.4-1.1c0.5,0.6,0,0.7,0.4,1.8c0,0.2-0.5,0.2-0.5,0c-0.5,0.2,0.5,0.5,0.4,0.9c-0.1,0-0.1,0-0.2,0
		C71.9,355.6,72.8,354.5,73,353.9z M72.4,348.4c0.5-0.1,0.3,0.5,0.9,0.4c-0.1,0.7-0.5,0.5,0,0.7c-0.4,0.4,0.3,0.9-0.2,1.2
		c-0.7,0.2,0.5,0.7-0.7,0.4c0-0.2,0-0.4,0-0.5C72.9,349.8,72.5,349.4,72.4,348.4z M45.4,343.6c-0.2,0-0.2,0.2-0.5,0.2
		c-4.4,0.9-6.6,4.9-9.4,6.7c-1.9-2,1.1-3.5,2.5-4.4c1.7-1.2,3.9-2.3,5.9-2.5C44,343.3,45.3,343.3,45.4,343.6z M55,351.2
		c0.6,0.6-1.5,0.4-1.6,0c-3.1-1-5.8,0.1-8.7-0.5c-1.3,0.1-2.6,0.2-4.1,0.2c-1.3,0.4-2.4-0.1-3.9,0c2.4-2.8,5.6-7.3,9.9-7.1
		C50.1,343.9,53.5,348.8,55,351.2z M59.7,351c-0.4,0.3-1.2,0.1-1.6,0.4c-0.4,0.3-2.2,0.4-2.3-0.2c-1.5-2.8-3.3-5.2-6-6.7
		c-0.4-0.3-1.1-0.4-1.2-0.9c0.4,0.1,1.2-0.2,1.2,0.2c3.3,0.8,6.7,2.2,8,4.4C58.7,348.1,60.6,349.7,59.7,351z M58.9,357.3
		c-0.5-1.4-1.3-2.5-1.8-3.9c4.5-1.3,7.5,1.1,9.2,4.1C64,357.1,61.5,357,58.9,357.3z M32.8,356.7c0.3-1.3,1.3-2,2.3-2.7
		c0.4-0.1,0.9-0.2,1.2-0.4c0.9-0.7,1.2,0.6,1.4,1.1c0.7,0.8,2.3,0.6,3.7,0.7c2.5,0.1,5.6-0.2,7.8,0.2c0.1,0,0.2,0,0.4,0
		c0.2-0.3,1.6-0.3,1.8,0c0.3,0,0.6,0,0.9,0c0.3-0.4,1.4-0.1,2-0.2c1.1,0.2,0.9-0.9,1.6-1.1c0.9,0.7,1.7,1.6,2.1,2.8
		c-1,0.5-2.3,0-3.4,0c-0.1,1-0.8,1.3-0.7,2.5c-1,0.3-1.5,0.2-2.7,0.2c-0.2-0.8-0.2-1.8-0.5-2.5c-0.2,0.1-0.3,0.3-0.7,0.2
		c-0.2,0.4-1.2,0.1-1.8,0.2c-0.3,0-0.6,0-0.9,0c0.1,0.8-0.3,1.1-0.2,2c-1.9,0-3.4-0.4-5.3-0.4c-0.4-0.6,0.1-2.1-0.4-2.7
		C38.6,356.7,35.7,356.7,32.8,356.7z M31.8,358.5c0.1,0,0.2-0.1,0.2-0.4c0.1-0.5,0.3-0.9,0.7-1.1c-0.1,0.5,0.2,1.4-0.2,1.6
		C32.2,358.7,31.8,358.7,31.8,358.5z M26.6,358.9c0.5-1.4,1.6-2.1,2.1-3.4c1.2-1.3,2.2-2.6,4.1-3.2c0.6,0,0.8,0.4,1.4,0.4
		c-1.1,2-2.2,4.2-3.5,6c-0.1,0-0.2,0-0.4,0c-0.7,0.4-2.2,0.1-3.2,0.2C27,358.9,26.8,358.9,26.6,358.9z"/>
	<g>
		<path fill="#E4BA27" d="M-222.6,249.3c0,6.3,0.1,12.3-0.9,18.3c-0.4,2.4-1.2,4.1-1.9,5.7c-0.1,1.9-0.2,3.8-0.3,5.7
			c-0.3,0.3-0.6,0.6-0.9,0.9v9c-0.9,2.2-0.5,6.6-0.5,9.7v22.4h-2.4c-0.1-0.9-0.1-1.8-0.2-2.8c-0.6-0.6-2.9-0.4-4.1-0.3
			c0,6.7,0,20,0,20l-4.2-0.1c0.3,11.5,1,23.1,0.7,34.6H25.9c0-4.9,0.1-9.3-0.9-13.1c-0.9-3.5-3.2-6-3.3-10.9
			c-1.9-0.3-3.8-0.6-5.7-0.9c0.1-6.3,1.2-23.1-2.1-25.5c-1.5-0.9-5.1,0.3-7.4,0.3c-0.4,2.9-0.8,5.8-1.2,8.6
			c-0.1,2.3-0.1,4.6-0.2,6.9H3.1c-0.1-0.5-0.1-0.9-0.2-1.4c-1.9-0.1-3.6-0.1-4.3,1C-3,339.6-3,344.5-3,348h-4c0-3.1-0.7-5.2-1.4-7.6
			c-1.2-0.1-3.7-0.3-4.3,0.3c-0.3,2.1-0.7,4.3-1,6.4h-1c-0.5-0.9-3.3-0.6-4.7-0.5c-0.1,1-0.1,2.1-0.2,3.1h-1.2
			c-0.1-0.2-0.2-0.3-0.3-0.5c0-0.8,0-1.2-0.3-1.6c-0.7-0.1-1.4-0.1-2.1-0.2c-0.1-0.7-0.1-1.5-0.2-2.2h-1.2c-0.1,1.7-1.1,1.2-1.6,2.2
			c-0.4,1,0.3,2.1-0.3,2.8c-0.9,0.9-3,0.9-4.8,0.9c-0.2-7.2-0.3-14.5-0.5-21.8c-2.6-1.5-0.9-8.4-2.1-11.4c-0.3,3.5-0.6,7-0.9,10.5
			c-0.5,0.1-0.9,0.2-1.4,0.3c-0.1,6.4-0.1,12.8-0.2,19.2h-1.7v-7.6h-3.1c-0.3,1.1-1.4,2.7-2.4,3.1c-0.1,2.9-0.2,5.9-0.3,8.8h-1.6
			c0-2-0.5-2.7-1-4.3c-2,0-3.1,0.8-4.8,0.3c0-4.5-0.8-9-1.2-12.6c-0.1,0.1-0.2,0.1-0.3,0.2c-0.4,1.8-0.7,3.7-1,5.9
			c-0.1,2.4-0.1,4.7-0.2,7.1C-55,350-55.8,350-56,352h-0.7c0-1.6-0.3-1.8-1.9-1.7c-0.1-0.9-0.1-1.8-0.2-2.8h-1.7
			c-0.1-0.7-0.1-1.5-0.2-2.2h-1c0-1-0.1-1.5-0.3-2.1h-1c-0.1,0.1-0.2,0.2-0.3,0.3c-0.1,2.8-0.1,5.6-0.2,8.5c-1,0.1-2,0.1-2.9,0.2
			c-0.1,0.8-0.1,1.6-0.2,2.4c-0.6,0.1-1.1,0.1-1.7,0.2c-0.1,1.2-0.1,2.3-0.2,3.5h-0.2c-0.7-0.2-1.4-0.3-2.1-0.5
			c-0.1-1.5-0.1-3-0.2-4.5c-1.6-0.1-4.6-0.7-5.4,0c-0.2,1.6-0.3,3.1-0.5,4.7c-0.9,0.1-1.7,0.2-2.6,0.3c-0.6-1.9-1.6-2.6-1.7-5.4
			c-1.4,0.2-2.9,0.3-4.3,0.5c-0.2,1.4-0.5,2.9-0.7,4.3c-0.6,0.2-1.3,0.3-1.9,0.5v-3.1h-0.9c-0.1,0.7-0.2,1.5-0.3,2.2h-1.9
			c0-2.5,0.6-14.7-0.3-15.7c-0.7-0.1-1.4-0.2-2.1-0.3c0.1-1.4,0.3-3.6-0.5-4.1c-0.7-0.1-1.5-0.1-2.2-0.2v1.7h-1.9v2.6h-0.9v1
			c-0.6-0.5-1.3-0.9-1.8-1.4c-1.1-0.8-2-1.8-3-2.8c-1.9-1.9-3.7-3.9-5.5-5.9c-0.1-0.1,0-0.3-0.1-0.4c-0.2-0.1-0.3-0.3-0.5-0.4
			c0.1-0.4-0.3-0.4-0.2-0.9c0-0.1-0.3-0.1-0.3-0.3c0.1-0.2,0.2-0.4,0.1-0.6c0,0-0.1,0-0.1-0.1c-0.6-0.1-0.5,0.6-0.3,0.8
			c-0.3,0.2-0.2,0.3-0.3,0.6c-0.3,0.3-0.9,0.4-1.5,0.5c-0.1-0.1-0.1-0.2-0.1-0.4c0-0.2-0.2-0.1-0.2-0.3c-0.1-0.2,0.2-0.4,0-0.6
			c-0.2,0-0.1-0.1-0.3-0.1c-0.4,0.1-0.3,0.5-0.1,0.8c-0.2,0-0.2,0.3-0.2,0.5c-0.2,0.1-0.3,0.3-0.6,0.4c-0.6,0.1-1.3,0.3-1.8,0.3
			c-0.1-0.2-0.2-0.5-0.3-0.7c0.1-0.2,0.2-0.6-0.1-0.6c-0.4,0-0.3,0.5-0.2,0.7c-0.2,0.1-0.3,0.3-0.2,0.6c-0.4,0.2-0.8,0.5-1.4,0.4
			c0.1-0.4-0.1-0.5-0.2-0.7c0.2-0.2,0.2-0.6-0.2-0.6c-0.3,0.1-0.2,0.5-0.1,0.7c-0.1,0.1-0.2,0.3-0.2,0.6c-0.3-0.1-0.2,0.2-0.4,0.2
			c-3.2,1.3-6.5,2.4-10,3.4c-1.7,0.5-3.5,1-5.3,1.5c-1.7,0.5-3.7,0.8-5.4,1.3c-1.1,0.1-1.6,0.5-2.8,0.5c-0.4,0.1-0.9,0.3-1.4,0.3
			c-0.1,0.1-0.3,0.1-0.5,0.2h-0.4c-0.7,0.2-1.5,0.4-2.3,0.5c-1,0.3-2.1,0.4-3.1,0.6c-0.4,0.1-0.8,0.2-1.2,0.2
			c-0.4,0.1-1,0.2-1.5,0.2v-17.6h-2.1c-0.5-1.5-0.9-3-1.4-4.5c-0.7-0.1-1.5-0.1-2.2-0.2c-0.4-0.6-0.6-0.6-0.7-1.6h-2.1v2.6h-2.2v2.6
			h-1.9v12.9h-4.1v-6.2h-3.5v3.1h-1.6v4h-4.3v4.5h-2.9v2.2h-0.5v-20.4h-1.4c-2.8-2.8-2.7-7.6-2.6-12.9h-1v8.5h-0.9
			c-0.1,1.6-0.1,3.1-0.2,4.7c-0.7,1.5-1.4,3-2.1,4.5c-0.1,2.1-0.1,4.3-0.2,6.4c-0.1,0.1-0.1,0.2-0.2,0.3h-2.4
			c-0.3,1.1-0.4,2.9-0.3,4.5h-2.8V324h-3.3c-0.1-2.6-0.1-5.3-0.2-7.9h-9.3v12.8h-1.9v-2.6h-6c-0.1-8.5-0.1-16.9-0.2-25.4
			c0-4,0.5-9.2-0.3-12.6c-0.1-3.2-0.1-6.4-0.2-9.7c-0.1-2.9-1.2-6.3-1.2-6.3l-1.6-4.8c0,0-1.4-22.2-1.3-32.1
			C-222.6,238.3-222.5,246.5-222.6,249.3z M-137.4,347.4v-0.1h0.3C-137,347.5-137.3,347.4-137.4,347.4z M-111.6,347
			c0.1,0.2-0.2,0.1-0.3,0.1c-0.1,0.2-0.2,0.5-0.3,0.7c-0.1,0.2-0.1,0.6-0.4,0.7c0.2-0.6,0.4-0.9,0.6-1.6
			C-111.9,347-111.7,346.9-111.6,347z M-104.3,346.8c0.1,0.2-0.3,0.1-0.2-0.1C-104.4,346.7-104.3,346.7-104.3,346.8z M-103.2,346.7
			h0.2c0.1,0.2-0.1,0.1-0.2,0.1V346.7z M-105.9,346.8h0.2C-105.6,347-105.9,347-105.9,346.8z M-106.7,348c0,0.1-0.1-0.1-0.1-0.1
			c-0.1-0.3-0.2-0.7-0.4-1c-0.2,0.3-0.3,0.7-0.4,1.1c-0.2,0-0.1-0.3,0.1-0.3c-0.1-0.1,0-0.3,0.1-0.4c0.1-0.3,0-0.6,0.4-0.6
			C-107,347.2-106.9,347.6-106.7,348z M-106.1,347.8c-0.1,0-0.1,0.1-0.1,0.2c-0.1-0.3,0.2-0.6,0.3-0.9c0-0.1,0.1,0.1,0,0.1
			C-105.9,347.4-106.1,347.5-106.1,347.8z M-105.8,347.1c0.1,0.1,0.1,0.2,0.1,0.4C-105.9,347.4-105.7,347.4-105.8,347.1z
			 M-105.7,347.9c-0.1,0.2-0.1-0.1-0.1-0.2C-105.7,347.5-105.7,347.8-105.7,347.9z M-106.6,347.9
			C-106.5,347.8-106.5,347.9-106.6,347.9C-106.5,348-106.6,347.9-106.6,347.9z M-106.6,347.6c0-0.1,0.1,0,0.1,0.1
			C-106.5,347.8-106.6,347.7-106.6,347.6z M-106.5,347.1v0.3c-0.1,0.1,0-0.3-0.1-0.4C-106.5,347-106.5,347.1-106.5,347.1z
			 M-107.3,347.9C-107.3,347.7-107.3,348.1-107.3,347.9L-107.3,347.9z M-107.3,347.3c0.1-0.1,0,0.2,0,0.3
			C-107.4,347.8-107.3,347.4-107.3,347.3z M-107.3,347.1C-107.3,347-107.3,347.1-107.3,347.1C-107.3,347.2-107.3,347.2-107.3,347.1z
			 M-107.6,348.8c0,0.2-0.1-0.1-0.1-0.2C-107.6,348.4-107.6,348.7-107.6,348.8z M-107.1,348.7C-107,348.5-107,348.9-107.1,348.7
			L-107.1,348.7z M-116.7,348.2c-0.2,0.2-0.2,0.7-0.5,0.8c0.1-0.3,0.2-0.5,0.3-0.8c0.2-0.1,0.2-0.5,0.4-0.6c-0.1-0.1,0-0.1,0-0.3
			h0.4c0.1,0.7,0.5,1,0.6,1.6c-0.4-0.3-0.4-1-0.8-1.4c-0.1,0-0.1,0-0.1,0.1c0.2,0.2,0.1,1,0.1,1.4c-0.1-0.4,0-0.9-0.1-1.4
			C-116.5,347.6-116.5,348-116.7,348.2z M-109.3,348.6c-0.2,0-0.1-0.3-0.1-0.5v-0.6c0-0.1,0.2,0,0.2-0.1
			C-109.2,347.7-109.4,348.3-109.3,348.6z M-109.6,348.5C-109.5,348.2-109.7,348.7-109.6,348.5L-109.6,348.5z M-110.9,348.4
			c-0.1,0.1,0-0.5-0.1-0.7c0-0.1,0.1,0,0.1,0.1V348.4z M-109,348.3C-108.9,348.1-108.9,348.5-109,348.3L-109,348.3z M-108.8,347.1
			c0.3,0.3,0.4,0.8,0.5,1.2C-108.5,348-108.7,347.5-108.8,347.1z M-108.1,348V347c0-0.1,0.1,0,0.1,0.1v1.1
			C-108.1,348.4-108.1,348-108.1,348z M-108.8,346.9c0.1,0.2-0.1,0.1-0.1,0.2v1.1c-0.1-0.2,0-0.7-0.1-1c0-0.2-0.2-0.1-0.1-0.3
			C-108.9,346.8-108.9,346.8-108.8,346.9z M-111,346.9v1.6c-0.1-0.1-0.1-0.2-0.1,0.1c-0.1-0.5,0-1-0.1-1.6L-111,346.9L-111,346.9z
			 M-111.9,348.5c-0.1-0.3,0-0.9-0.1-1.3h0.3c0,0.2,0.2,0.3,0.2,0.6c-0.2-0.1-0.1-0.4-0.3-0.5C-111.9,347.6-111.8,348.2-111.9,348.5
			z M-111.5,347.8c0.1,0.1,0.2,0.3,0.2,0.5C-111.3,348.2-111.4,348-111.5,347.8z M-112.9,348.3v-1c0-0.1,0.1,0,0.1,0.1v1.1
			C-112.9,348.7-112.9,348.4-112.9,348.3z M-112.8,347.1C-112.9,347.1-112.9,347.2-112.8,347.1c-0.1,0-0.1,0-0.1-0.1
			C-112.8,347-112.8,347.1-112.8,347.1z M-113.8,347.1c0,0.1,0.1,0.2,0,0.3c0.2,0,0.1,0.2,0.2,0.3c0.1,0.4,0.3,0.6,0.4,1
			c-0.2-0.1-0.2-0.4-0.3-0.6c-0.1-0.2-0.2-0.4-0.3-0.6v-0.1c0,0-0.1-0.1-0.1-0.1c-0.1,0.1-0.1,0.3,0,0.5c0,0.2,0,0.4-0.1,0.5
			c0,0.1,0,0.5-0.1,0.3v-1.3c-0.2,0-0.1,0.3-0.2,0.4c0,0.1-0.1,0.3-0.2,0.4c-0.1,0.3-0.1,0.6-0.4,0.7c0.1-0.6,0.5-1,0.6-1.7
			C-114.2,347.1-113.8,347.1-113.8,347.1z M-115.1,347.5c0,0.4,0.1,1,0,1.2c-0.1-0.4,0-1.1-0.1-1.6
			C-114.9,347.2-115.1,347.4-115.1,347.5z M-132.4,347.2C-132.3,347-132.3,347.4-132.4,347.2L-132.4,347.2z M-117.5,347.3
			c0.2,0,0,0.3,0.1,0.5c-0.1,0.5,0.1,0.9,0,1.2C-117.6,348.5-117.5,347.8-117.5,347.3z M-112,349.2V349
			C-111.9,348.9-111.9,349.3-112,349.2z M-111.8,349.1C-111.7,348.9-111.7,349.3-111.8,349.1L-111.8,349.1z M-115.7,349.5
			c0,0.1-0.1,0-0.2,0.1c0-0.1,0.1-0.1,0.1-0.3C-115.7,349.3-115.8,349.5-115.7,349.5z M-115.2,349.4h0.1v0.1h-0.1V349.4z
			 M-120.4,350.1c-0.1,0-0.1-0.1-0.1-0.2C-120.4,349.9-120.4,350-120.4,350.1z M-119.6,350c0,0-0.1,0-0.1,0.1
			C-119.7,350-119.7,350-119.6,350z M-121.1,350.2c-0.2,0-0.2-0.1-0.2-0.3C-121.2,349.8-121.2,350-121.1,350.2z M-128,350.8
			c0,0.1-0.2,0-0.3,0.1c0-0.1-0.1-0.3,0.1-0.3C-128,350.5-128.2,350.8-128,350.8z M-127.1,350.6c0.2-0.1,0.2,0.2,0,0.2V350.6z
			 M-111.6,351.6h-0.3c-0.1-0.1-0.2-0.4-0.3-0.4c-0.1-0.1,0-0.1-0.1-0.3c0.4-0.1,0.8,0,1.1,0c0,0.3-0.1,0.4-0.3,0.6
			c-0.1,0,0-0.1,0-0.1C-111.5,351.3-111.5,351.6-111.6,351.6z M-113.8,352.2c0.1,2.1,0,4.4-0.3,6.2c-0.2-0.1-0.3-0.2-0.4-0.2
			c0-0.1,0-0.3,0-0.4h-0.7c-0.1-1.2-0.2-2.4-0.3-3.6c0.1-0.2-0.2-0.1-0.1-0.3c0.1-0.6,0-1,0-1.7c0.2-0.4,0.4-0.7,0.8-0.8
			C-114.3,351.5-114.1,351.8-113.8,352.2z M-111.8,352c0.3,0.1,0.5,0.3,0.6,0.6c-0.4,0-0.7-0.1-1.1-0.1
			C-112.3,352.2-111.9,352.2-111.8,352z M-111.1,352.9c0,0.3-0.3,0.3-0.5,0.5c-0.3-0.1-0.5-0.3-0.6-0.6
			C-111.9,352.8-111.7,352.9-111.1,352.9z M-111.5,353.9c0-0.1,0.2,0,0.1,0.2c0.2-0.2,0,0.2,0.2,0.1c0.1,0,0.1,0.2,0.1,0.3
			c-0.2,0.2-0.4-0.1-0.7,0.1c0.1-0.2-0.2,0-0.4-0.2c0-0.3,0.3-0.3,0.4-0.5C-111.7,353.8-111.6,353.9-111.5,353.9
			C-111.5,354-111.5,354-111.5,353.9z M-111.1,354.5C-111,354.3-111.3,354.6-111.1,354.5L-111.1,354.5z M-112.1,353.8
			c-0.2,0-0.1-0.3-0.1-0.5C-112,353.3-112.1,353.8-112.1,353.8z M-111.3,353.8C-111.4,353.8-111.3,353.8-111.3,353.8
			c-0.2-0.2,0-0.5,0.2-0.5c0,0.2,0,0.2,0,0.4c-0.1,0-0.1,0-0.1,0.1c-0.1,0,0-0.1,0-0.1C-111.2,353.7-111.3,353.8-111.3,353.8z
			 M-111.1,354.7c0,0.3-0.3,0.3-0.5,0.5c-0.3-0.1-0.4-0.3-0.6-0.5C-112,354.5-111.5,354.7-111.1,354.7z M-111.4,355.7
			c0.1,0.1,0.2,0.1,0.2,0.2c0,0.2-0.1,0-0.2,0.1c0.1,0.1,0.3,0.1,0.2,0.4c-0.3,0.1-0.6-0.1-1-0.1c-0.1-0.1,0-0.2-0.1-0.3
			c0.1-0.1,0.3-0.2,0.4-0.3c0.1,0.1,0.3,0.2,0.3,0.3C-111.3,355.9-111.4,355.8-111.4,355.7z M-111.2,355.2c0.2,0,0,0.3,0.1,0.4
			C-111.5,355.7-111.4,355.3-111.2,355.2z M-112.2,355.6v-0.3C-112,355.2-112,355.6-112.2,355.6z M-111.3,356.9
			c0.1,0.3-0.1,0.7-0.1,1.3c-0.2-0.1,0,0.2-0.2,0.1c-0.2,0-0.1-0.3-0.2-0.1c-0.1,0,0-0.2-0.2-0.3c0.1-0.4-0.2-0.8-0.2-1.2
			C-111.8,356.5-111.5,357-111.3,356.9z M-117.3,356.2c0.2,0.1,0,0.5,0,0.7c0,0.2,0,0.9-0.3,0.8c0.1-0.4-0.1-1.1-0.1-1.6
			C-117.5,356.1-117.4,356.4-117.3,356.2z M-117.7,355.7c-0.1-0.1-0.1-0.2-0.1-0.3c0.2-0.2,0.4,0,0.4-0.3c0.1,0,0.1,0.1,0.3,0.1v0.3
			h-0.2c0-0.1-0.1-0.1-0.1-0.2c-0.2,0.1,0.2,0.2,0.1,0.5C-117.4,355.7-117.6,355.5-117.7,355.7z M-117.1,354.2
			c0.1,0.3-0.2,0.4-0.3,0.5c-0.2-0.2-0.4-0.2-0.4-0.5C-117.7,354.1-117.3,354.3-117.1,354.2z M-117.6,354.8c-0.2,0-0.2-0.1-0.2-0.2
			C-117.7,354.5-117.6,354.7-117.6,354.8z M-117.4,353.3c0.2,0,0.2,0.1,0.3,0.1c0.1,0,0,0.2,0.1,0.3c-0.3,0,0,0.1-0.1,0.3
			c-0.4,0-0.4,0-0.8-0.1c0-0.4,0.2-0.6,0.5-0.5C-117.4,353.4-117.4,353.4-117.4,353.3z M-117.6,353.1c-0.2,0-0.1-0.1-0.2-0.1
			c0.1-0.3,0-0.2,0-0.5c0.2-0.1,0.5,0,0.8,0c0,0.3-0.2,0.4-0.3,0.5c-0.2,0-0.2-0.1-0.3-0.2C-117.8,352.9-117.4,353-117.6,353.1z
			 M-117.8,352.3c-0.1-0.3,0.2-0.6,0.5-0.5v-0.2c0.2,0,0.3,0.2,0.4,0.3c0,0.1-0.1,0-0.2,0.1c0.1,0.1,0.1,0.2,0.2,0.3
			C-117.2,352.4-117.6,352.2-117.8,352.3z M-112.2,351.6c0.2,0.1,0.2,0.4-0.1,0.4C-112.2,351.9-112.3,351.7-112.2,351.6z
			 M-117.4,351.4c-0.2-0.2-0.5-0.2-0.3-0.6c0.3,0,0.5,0,0.6,0.1C-117.1,351.1-117.2,351.2-117.4,351.4z M-131,351.1
			c-0.1,0-0.2,0-0.2-0.2C-131,350.9-131,351-131,351.1z M-129.9,350.9c0,0.1-0.1,0-0.2,0.1C-130.1,350.9-130,350.9-129.9,350.9z
			 M-132.1,351.1c0,0.1-0.2,0-0.3,0.1c-0.1-0.1,0-0.2-0.1-0.3c0.1,0,0.1-0.1,0.2-0.1C-132.2,351-132.3,351.2-132.1,351.1z
			 M-135.5,351.5h-0.1v-0.2h0.1V351.5z M-134.4,351.4C-134.2,351.2-134.5,351.5-134.4,351.4L-134.4,351.4z M-136.9,351.6h0.2
			c-0.1,0.2-0.2,0-0.4,0v-0.3h0.2L-136.9,351.6L-136.9,351.6z M-133.3,351.1c0.2,0,0.2,0.1,0.1,0.2
			C-133.3,351.3-133.4,351.2-133.3,351.1z M-142.3,348.8c0.1,0,0.1,0,0.1,0.1c-0.3,0.3-0.5,0.7-0.8,1.1c-0.1,0.3-0.2,0.4-0.4,0.6
			c-0.1,0.2-0.2,0.4-0.4,0.5c0-0.5,0.4-0.8,0.6-1.1c0.2-0.4,0.5-0.7,0.7-1C-142.4,348.8-142.3,348.8-142.3,348.8z M-139.3,350.8
			c0-0.1,0.1,0,0.1-0.1C-139.2,350.8-139.2,350.8-139.3,350.8z M-138.4,350.7c0,0.1-0.1,0-0.1,0.1
			C-138.5,350.7-138.4,350.7-138.4,350.7z M-142,350.9v-2.1h0.2c0.1,0.2-0.1,0.7,0.1,1C-141.9,350-141.6,350.8-142,350.9z
			 M-144.6,349c0.2,0,0.1,0.2,0.1,0.4c0,0.5,0.1,1.2-0.1,1.7c-0.3,0.1-0.2-0.2-0.2-0.4c0-0.4,0-1.1,0-1.6V349H-144.6z M-146.9,349.1
			c0.3,0.3,0.5,0.7,0.8,1c0.1,0.4,0.6,0.7,0.6,1c-0.3,0.2-0.3-0.2-0.5-0.3c-0.1-0.2-0.2-0.4-0.4-0.5c-0.2-0.4-0.5-0.7-0.7-1
			c0,0-0.1-0.1-0.1-0.2C-147,349.1-147,349.1-146.9,349.1z M-129.1,350.7c0.2-0.1,0.2,0.2,0,0.2V350.7z M-139.2,349.8
			c0,0.3,0.1,0.8-0.2,0.9v-2h0.2V349.8z M-137.9,348.9c0,0.1-0.1,0-0.1,0C-138,348.8-137.9,348.8-137.9,348.9z M-125.3,350.4
			c0.1,0,0.1,0.1,0.1,0.2C-125.4,350.5-125.3,350.4-125.3,350.4z M-136.8,350.5c-0.2,0-0.1-0.3-0.1-0.4c0-0.3,0-0.8,0-1.3v-0.2h0.2
			C-136.7,349.2-136.6,350-136.8,350.5z M-124.6,350.2h0.2c0,0.1,0.1,0.3-0.1,0.3C-124.7,350.5-124.6,350.3-124.6,350.2z
			 M-130.3,350.3C-130.2,350.1-130.2,350.5-130.3,350.3L-130.3,350.3z M-123.6,350.2c0.1,0,0.1,0.1,0.1,0.2
			C-123.6,350.4-123.6,350.3-123.6,350.2z M-122.8,350.3C-122.7,350.1-122.7,350.5-122.8,350.3L-122.8,350.3z M-122,350.1
			c0.1,0,0.1,0.1,0.1,0.2C-122,350.2-122,350.1-122,350.1z M-119,349.8c0-0.1,0.1,0,0.1,0C-118.9,349.9-119,349.9-119,349.8z
			 M-124.8,349.7c0-0.1,0.1,0,0.1,0.1C-124.8,349.9-124.8,349.8-124.8,349.7z M-126.1,349.6C-126,349.4-126,349.8-126.1,349.6
			L-126.1,349.6z M-118.5,349.6c0.2-0.1,0,0.3,0.2,0.2c0,0.1-0.1,0-0.2,0.1V349.6z M-121.7,349.5
			C-121.6,349.3-121.6,349.7-121.7,349.5L-121.7,349.5z M-117.7,349.6c0.2-0.1,0.2,0.2,0,0.2V349.6z M-116.3,349.6
			C-116.3,349.4-116.3,349.8-116.3,349.6L-116.3,349.6z M-114,349.3C-113.9,349.1-113.9,349.5-114,349.3L-114,349.3z M-113.5,349.1
			c0.2,0,0.2,0.2,0.1,0.3C-113.6,349.4-113.6,349.3-113.5,349.1z M-119.8,349.1C-119.8,349.1-119.8,349.1-119.8,349.1
			c0.2-0.6,0.5-1.1,0.7-1.7c0.3,0,0.3-0.1,0.5,0c0.1,0.6,0.6,1.1,0.7,1.7c-0.3-0.1-0.3-0.5-0.4-0.7c-0.1-0.2-0.2-0.5-0.4-0.7
			c-0.1,0.4,0,1-0.1,1.4c0,0.1-0.1,0.1-0.1,0v-0.2c-0.1-0.3,0-1-0.1-1.2c-0.2,0-0.1,0.3-0.2,0.4c-0.1,0.1-0.1,0.3-0.2,0.4
			c-0.1,0.3-0.3,0.5-0.3,0.8C-119.7,349.2-119.7,348.9-119.8,349.1z M-112.9,349.2C-112.8,349-112.8,349.4-112.9,349.2L-112.9,349.2
			z M-136.9,347.4C-136.8,347.2-136.8,347.6-136.9,347.4L-136.9,347.4z M-120.3,347.4h0.2c0,0.5,0,1.3,0,1.8c-0.2,0-0.1-0.2-0.1-0.4
			c0-0.4,0-0.9,0-1.3C-120.3,347.6-120.2,347.5-120.3,347.4z M-121.4,347.5c0.2,0.7,0.7,1.1,0.8,1.8c-0.3-0.1-0.3-0.5-0.5-0.8
			c-0.1-0.1-0.2-0.2-0.2-0.4c-0.2-0.1-0.1-0.3-0.3-0.4c0,0.3,0,1.1,0,1.6c-0.3-0.1,0-0.4-0.1-0.7v-0.9c-0.3,0.2-0.4,0.6-0.5,0.9
			c-0.2,0.3-0.3,0.6-0.4,0.9c-0.1,0,0-0.2-0.1-0.3c0.2-0.5,0.4-1,0.7-1.3c-0.1-0.1,0.1-0.2,0.1-0.4L-121.4,347.5L-121.4,347.5z
			 M-121.8,348.6C-121.8,348.4-121.8,348.8-121.8,348.6L-121.8,348.6z M-122.8,349.3C-122.7,349.1-122.7,349.5-122.8,349.3
			L-122.8,349.3z M-123.1,347.6c-0.1,0.3,0,0.6-0.1,0.8c0,0.1,0.1,0.1,0.2,0.2c-0.2,0-0.3,0.6-0.1,0.6c0,0.1-0.2,0.2-0.1,0.4
			c-0.2-0.5-0.1-1.4-0.1-2L-123.1,347.6L-123.1,347.6z M-123.3,349C-123.3,348.8-123.3,349.2-123.3,349L-123.3,349z M-123.3,348.7
			C-123.3,348.6-123.3,348.7-123.3,348.7C-123.3,348.8-123.3,348.8-123.3,348.7z M-124.5,347.6c0.3,0.7,0.6,1.2,1,1.8
			c-0.3,0.1-0.4-0.3-0.5-0.5c-0.1-0.2-0.3-0.5-0.4-0.7c0-0.2-0.1-0.4-0.3-0.4c-0.2,0.1,0.1,0.2,0.1,0.3c-0.1,0.2,0,0.5-0.1,0.8
			c0,0.2,0.1,0.6-0.1,0.7v-1.7c-0.2,0.1-0.2,0.3-0.3,0.5c-0.2,0.2-0.3,0.5-0.4,0.7c-0.1,0.2-0.2,0.5-0.4,0.6
			c-0.1-0.3,0.2-0.5,0.1-0.6c0-0.1,0.1,0,0.1,0c0.3-0.5,0.5-1,0.8-1.5L-124.5,347.6L-124.5,347.6z M-125,348.9c0-0.1,0.1,0,0.1,0.1
			C-124.9,349.1-125,348.9-125,348.9z M-125,348.5C-124.9,348.3-124.9,348.7-125,348.5L-125,348.5z M-126.4,347.7
			c-0.1,0.5,0,1.1,0,1.6c0,0.1,0.1,0.4-0.2,0.4v-2H-126.4z M-126.7,349.3C-126.7,349.2-126.6,349.3-126.7,349.3
			C-126.7,349.4-126.7,349.3-126.7,349.3z M-126.7,349c0-0.1,0.1,0,0.1,0.1C-126.7,349.2-126.7,349.1-126.7,349z M-128.1,347.8
			c0.4,0.7,0.8,1.3,1.1,2c-0.4-0.1-0.4-0.6-0.7-0.8c-0.1-0.3-0.4-0.6-0.5-0.9c-0.2,0-0.1,0.3-0.1,0.4c0,0.4,0,0.8,0,1.2
			c0,0.1,0.1,0.3-0.1,0.3c0-0.8-0.1-1.2,0-1.9c-0.3,0.2-0.4,0.7-0.6,1c-0.1,0.2-0.2,0.3-0.3,0.5c-0.1,0.1-0.1,0.4-0.4,0.4
			c0-0.4,0.3-0.6,0.4-0.9c0.1-0.3,0.4-0.6,0.4-0.8c0-0.1,0.1-0.1,0.3-0.1c0-0.1-0.1,0-0.2-0.1C-128.7,347.8-128.5,347.7-128.1,347.8
			z M-128.5,349.2C-128.5,349.1-128.5,349.2-128.5,349.2C-128.5,349.3-128.5,349.2-128.5,349.2z M-128.5,349.1c-0.2,0,0.1-0.1,0-0.2
			C-128.4,348.9-128.5,349-128.5,349.1z M-128.5,348.7C-128.4,348.5-128.7,348.8-128.5,348.7L-128.5,348.7z M-130.2,347.9
			c0.1,0.6,0.1,1.5,0,2.2c-0.2-0.2-0.1-0.6-0.1-1c0-0.4,0-0.7,0-1v-0.2C-130.3,347.9-130.2,347.9-130.2,347.9z M-131.9,348
			c0.3,0.8,0.9,1.3,1.2,2.1c-0.4,0.1-0.3-0.3-0.4-0.4c-0.1-0.1-0.2-0.4-0.3-0.5c-0.2-0.4-0.3-0.7-0.6-1c-0.1,0.6,0,1.3-0.1,2
			c-0.3-0.1-0.2-0.6-0.2-0.9v-1c-0.2,0.1-0.2,0.3-0.3,0.5c-0.1,0.1-0.2,0.3-0.3,0.5c-0.2,0.3-0.5,0.6-0.6,1c-0.1,0-0.1,0-0.2,0.1
			c0,0-0.1-0.3-0.1-0.1c-0.1-0.2,0.2-0.4,0.2-0.6c0.1-0.2,0.3-0.4,0.3-0.6c0.3-0.4,0.4-0.8,0.7-1.1L-131.9,348L-131.9,348z
			 M-132.6,350c0-0.1,0,0,0.1,0C-132.5,350-132.6,350-132.6,350z M-133.8,349.8C-133.6,349.7-133.9,350-133.8,349.8L-133.8,349.8z
			 M-133.4,348.4c0.2,0.1-0.2,0.2-0.2,0.1C-133.7,348.4-133.4,348.6-133.4,348.4z M-134,348.6C-133.8,348.4-133.8,348.7-134,348.6
			L-134,348.6z M-134.1,348.6C-134.2,348.8-134.3,348.5-134.1,348.6L-134.1,348.6z M-134.5,348.1c0.3,0,0,0.3,0.1,0.5
			c0,0.6,0.1,1.3-0.1,1.8c-0.2,0-0.1-0.2-0.1-0.4v-1.3c0-0.1,0-0.3,0.1-0.3c-0.1-0.1-0.1-0.1-0.1-0.3
			C-134.6,348.1-134.5,348.1-134.5,348.1z M-134.7,349.5C-134.6,349.3-134.6,349.7-134.7,349.5L-134.7,349.5z M-134.7,349
			C-134.7,348.9-134.6,349-134.7,349C-134.7,349.1-134.7,349-134.7,349z M-136.5,348.1c0.2,0.4,0.5,0.7,0.7,1.1
			c0.2,0.4,0.5,0.7,0.7,1.1c-0.3,0.1-0.4-0.2-0.4-0.4c-0.2-0.1-0.2-0.4-0.4-0.5c-0.2-0.4-0.5-0.7-0.6-1.1c-0.3,0.2-0.3-0.1-0.6,0.1
			c0,0.3-0.4,0.7-0.6,1.1c-0.1,0.2-0.3,0.4-0.3,0.6c-0.2,0.1-0.2,0.4-0.4,0.4c-0.3,0,0.1-0.1,0-0.2c0.1-0.1,0-0.3,0.2-0.3
			c0.1-0.2,0.2-0.4,0.3-0.5c0.2-0.3,0.4-0.7,0.6-1c0,0,0.1-0.1,0.1,0c0-0.1,0.1-0.3,0.2-0.5C-136.9,348.2-136.6,348.3-136.5,348.1z
			 M-139.1,348.3c0,0.1,0,0.3-0.1,0.4c-0.2,0-0.1-0.3-0.2-0.4C-139.3,348.3-139.2,348.3-139.1,348.3z M-141.5,348.4
			c0.5,0.8,1.1,1.5,1.5,2.3c-0.6,0-0.6-0.6-0.9-0.9c-0.2-0.4-0.5-0.7-0.7-1v-0.1c-0.4-0.1-0.5,0-0.9,0
			C-142.4,348.4-141.9,348.4-141.5,348.4z M-144.5,348.5c0,0.2,0,0.3-0.1,0.4c-0.2,0-0.1-0.3-0.1-0.4H-144.5z M-147.2,348.6
			c0,0.2,0.1,0.3,0.2,0.4c-0.2,0.2-0.5-0.2-0.7,0.1c-0.1,0-0.1-0.1-0.2-0.2c-0.1,0.1-0.2,0.2-0.4,0.2
			C-148.2,348.5-147.6,348.7-147.2,348.6z M-151,348.8c0.2-0.1,0.1,0.1,0.1,0.2c0.2,0-0.1-0.2,0.2-0.2v0.3c-0.1,0-0.2,0-0.2,0.1
			C-150.9,349-150.9,348.8-151,348.8z M-147.6,349.1c0.1,0.6,0.1,1.6,0,2.2c-0.2,0-0.2-0.3-0.2-0.4c0-0.4,0.1-1.1,0.1-1.6
			C-147.7,349.1-147.6,349.2-147.6,349.1z M-148.1,349.1c0,0.1-0.2,0.2-0.2,0.4c-0.3,0.1-0.4,0.4-0.4,0.6c-0.3,0.1-0.3,0.5-0.6,0.6
			c-0.1,0.3-0.2,0.5-0.5,0.7c0-0.2,0,0-0.2-0.1c0.1-0.3,0.3-0.6,0.5-0.8c0.2-0.3,0.4-0.5,0.6-0.8c0.2-0.1,0.2-0.4,0.4-0.5
			c0-0.1,0.1-0.1,0.1-0.2L-148.1,349.1L-148.1,349.1z M-150.9,349.2h0.1c0.3,0-0.1,0.4,0.1,0.5c-0.1,0.4,0,1.2-0.1,1.8
			c-0.2,0-0.1-0.4-0.1-0.5c0-0.4,0-1.1,0-1.6V349.2z M-152.7,350.7c-0.2-0.3-0.5-0.6-0.7-0.9c0,0,0,0,0,0v-0.5c0.6,0.6,1,1.4,1.6,2
			v0.2c-0.1-0.1-0.2-0.2-0.1,0.1C-152.3,351.4-152.4,351-152.7,350.7z M-138,351.5c0.1,0,0,0.1,0.1,0.2h-0.2
			C-138.2,351.6-138.1,351.6-138,351.5z M-140.6,351.9h-0.2v-0.2C-140.7,351.8-140.6,351.8-140.6,351.9z M-139.3,351.8
			c0,0.1-0.1,0-0.2,0.1C-139.4,351.8-139.3,351.8-139.3,351.8z M-142.4,351.7h0.2c0,0,0.2,0.4-0.1,0.4
			C-142.5,352.1-142.4,351.8-142.4,351.7z M-143.6,352c0.2,0,0.1,0.2,0.1,0.2C-143.7,352.1-143.6,352.1-143.6,352z M-148.3,352.1
			c0.1,0-0.1,0.4,0.2,0.4c0,0.1-0.3,0-0.4,0.1C-148.6,352.4-148.6,352.1-148.3,352.1z M-146.4,352.3v0.1c-0.1,0-0.1,0-0.1,0.1
			c-0.2,0-0.1-0.1-0.1-0.2L-146.4,352.3C-146.5,352.3-146.5,352.3-146.4,352.3z M-144.9,352.2c0,0.1-0.1,0-0.2,0.1
			C-145.1,352.2-145,352.2-144.9,352.2z M-149.9,352.5c0-0.1,0.1,0,0.2-0.1c0,0.2,0,0.2-0.2,0.2
			C-149.9,352.6-149.8,352.6-149.9,352.5z M-153.4,352.8c0.1,0,0.1,0.1,0.2,0.1c0,0.1-0.1,0.1-0.2,0.1V352.8z M-151.4,352.8
			c0,0.1-0.1,0-0.2,0.1C-151.6,352.7-151.5,352.8-151.4,352.8z M-144.6,361.7c-0.9-0.7-1.4-2.2-1.7-3.5h-4.8v3.5h-2.2v-7.3
			c11.4-1.2,22.8-2.2,34-3.5c0.1,4.9-0.3,8.7-0.4,11.4c-4.3-0.5-8.4-5.3-9.3-8.3C-133.2,353.4-135.1,365.9-144.6,361.7z
			 M-99.1,351.1h-2.7c0.4,3.8,0.5,7.6,0.5,11.4c-0.7-0.8-1.2-2-1.5-2.9c-0.3-0.3-0.7-0.6-1-0.9c-0.3,0.9-0.7,1.8-1,2.8
			c-0.8,0.1-1.6,0.1-2.4,0.2c-0.1-2.1-0.1-4.1-0.2-6.2h-1.4c-0.1,2.1-0.1,4.2-0.2,6.3c-0.1-1.1-0.1-1.2-0.4-3.5
			c-0.3-2-0.4-4.9-0.2-6.9c0-0.3,0-0.6,0.1-0.9c0.3-0.3,0.6-0.6,1.1-0.6c0.3-0.2,0.7-0.4,1.1-0.7c2.8-0.2,5.5-0.4,8.3-0.6
			L-99.1,351.1L-99.1,351.1z M-106.7,348.7c0,0.1-0.2,0-0.1-0.1C-106.7,348.6-106.7,348.7-106.7,348.7z M-105.2,348.6
			c-0.1,0-0.1-0.1-0.1-0.2C-105.2,348.4-105.1,348.5-105.2,348.6z M-103.8,348.4C-104,348.2-103.6,348.5-103.8,348.4L-103.8,348.4z
			 M-102.5,348.3C-102.5,348.1-102.5,348.5-102.5,348.3L-102.5,348.3z M-101.3,348.2C-101.3,348-101.3,348.4-101.3,348.2
			L-101.3,348.2z M-100.2,348.1C-100.2,348.1-100.2,348.1-100.2,348.1C-100.2,348.3-100.2,348.2-100.2,348.1z M-99.2,348.1
			C-99.2,347.9-99.2,348.3-99.2,348.1L-99.2,348.1z M-105.6,347c-0.2-0.1,0.1,0,0.1,0.2c0.1,0.2,0.2,0.5,0.3,0.8
			C-105.4,347.7-105.6,347.4-105.6,347z M-105,347.1v0.6C-105.2,347.8-105.1,347.2-105,347.1C-105.1,347-105,347-105,347.1z
			 M-104.5,346.9c0.1,0.3-0.2,0.6-0.2,1C-104.9,347.6-104.6,347.3-104.5,346.9z M-104.2,347c0.1,0.3,0.2,0.5,0.3,0.8
			C-104.1,347.6-104.1,347.3-104.2,347C-104.3,347-104.2,346.9-104.2,347z M-103.7,347.2v0.3c-0.1,0.1,0-0.3-0.1-0.4
			C-103.7,346.9-103.7,347.1-103.7,347.2z M-103.5,347.8c0.1-0.3,0.2-0.6,0.3-0.9c0.1,0.1-0.1,0.3-0.1,0.5
			C-103.4,347.5-103.3,347.8-103.5,347.8z M-101.3,347.6c-0.1,0.1,0-0.3-0.1-0.4c0-0.1,0.1,0,0.1,0.1V347.6z M-101,347.4
			C-101,347.5-101.1,347.4-101,347.4C-101,347.3-101,347.4-101,347.4z M-101,347.3c-0.2-0.1,0.1-0.2,0-0.3
			C-100.8,346.8-101,347.2-101,347.3z M-100.6,347.2C-100.6,347-100.6,347.4-100.6,347.2L-100.6,347.2z M-100.3,347
			c0.1-0.2,0.1,0.1,0.1,0.2C-100.3,347.4-100.3,347.1-100.3,347z M-100.7,346.9C-100.5,347.2-100.8,346.7-100.7,346.9L-100.7,346.9z
			 M-101.6,347.4C-101.6,347.5-101.6,347.5-101.6,347.4c0,0-0.1,0-0.1-0.1c0-0.1,0-0.1-0.1-0.1c0-0.2-0.1-0.2-0.1-0.4
			C-101.7,347-101.7,347.3-101.6,347.4z M-101.9,347.6c0,0.1-0.1,0-0.1-0.1C-101.9,347.4-101.8,347.5-101.9,347.6z M-101.9,347.3
			C-101.9,347.2-101.9,347.3-101.9,347.3C-101.9,347.4-101.9,347.3-101.9,347.3z M-101.9,347c0,0.1-0.1,0-0.1-0.1
			C-101.9,346.8-101.8,347-101.9,347z M-102.5,347.3c-0.1,0.2-0.1-0.2-0.1-0.3C-102.4,346.8-102.5,347.2-102.5,347.3z M-102.9,347.2
			c0,0.1-0.1-0.2-0.1-0.3C-102.9,347-102.9,347.1-102.9,347.2z M-102.7,347.7c0-0.1-0.1-0.1-0.1-0.3
			C-102.9,347.2-102.7,347.5-102.7,347.7C-102.6,347.7-102.8,347.9-102.7,347.7z M-102.1,347.2c0.1-0.1,0,0.5-0.2,0.5
			C-102.3,347.5-102.2,347.4-102.1,347.2z M-101.6,347.6C-101.5,347.5-101.5,347.6-101.6,347.6
			C-101.5,347.7-101.6,347.7-101.6,347.6z M-101.1,347.6C-101.1,347.5-101.1,347.6-101.1,347.6
			C-101.1,347.7-101.1,347.6-101.1,347.6z M-100.6,347.3c0.1,0,0,0.1,0.1,0.1C-100.4,347.8-100.5,347.5-100.6,347.3z M-100.2,347.5
			C-100.3,347.6-100.3,347.5-100.2,347.5C-100.3,347.4-100.2,347.5-100.2,347.5z M-100,347.4c0-0.2,0.1-0.3,0.1-0.5
			c0-0.1,0.1,0.1,0,0.1C-99.9,347.2-100,347.3-100,347.4C-100,347.7-100.2,347.4-100,347.4z M-99.3,347.5
			C-99.2,347.3-99.2,347.7-99.3,347.5L-99.3,347.5z M-99.5,347.5C-99.4,347.3-99.4,347.7-99.5,347.5L-99.5,347.5z M-99.7,347.4
			c0,0.2-0.1-0.1-0.1-0.2C-99.7,347.1-99.7,347.3-99.7,347.4z M-99.3,347.3C-99.2,347-99.2,347.5-99.3,347.3L-99.3,347.3z
			 M-99.5,347.3c0,0.1-0.1-0.2-0.1-0.3C-99.5,347.1-99.5,347.2-99.5,347.3z M-99.7,346.9C-99.6,346.7-99.6,347.1-99.7,346.9
			L-99.7,346.9z M-102.1,346.9c0-0.1,0.2-0.4,0.3-0.1c-0.1,0-0.1,0-0.1-0.1C-102,346.8-102.1,347.3-102.1,346.9z M-99.7,346.7
			c0,0.1-0.1,0.1-0.2,0.1c0,0,0.1-0.1,0.1-0.1H-99.7z M-100.7,346.7c0,0.1-0.1,0.1-0.2,0.1c0,0,0.1-0.1,0.1-0.1H-100.7z
			 M-99.1,345.4v0.5c-1.5-0.5-2.8-1-4.1-1.8c-0.1,0.2,0.3,0.2,0.4,0.3c0.1,0.1,0.4,0.2,0.5,0.3c1.1,0.4,2.1,0.9,3.2,1.3v0.2
			c-0.2,0-0.5-0.1-0.5,0.1c-0.2,0-0.1-0.2-0.3-0.2c-0.7,0-1.3,0-1.8,0.1c-0.2,0.2-0.2-0.1-0.4,0.1c-0.2-0.1-0.3,0-0.6-0.1
			c-2.2,0-4.6,0.1-6.9,0.1c0-0.5-0.1-0.9-0.1-1.5c0.1-0.1,0.5,0,0.4-0.3c0-0.2-0.1,0-0.1-0.1c0.1-0.1-0.3-0.2-0.4-0.3
			c-0.1-1.3-0.1-2.7-0.1-4.1c1.1,0.7,2.1,1.5,3.2,2.2c1.1,0.7,2.2,1.4,3.4,2c0.1-0.1-0.1-0.1-0.2-0.2c-0.3-0.2-0.7-0.5-1.2-0.7
			c-0.4-0.4-0.9-0.5-1.3-0.9c-0.1,0-0.1,0.1-0.2,0c0-0.1-0.1-0.1-0.1,0c-0.2-0.3-0.5-0.5-0.8-0.5c-0.1-0.1-0.1-0.2-0.2-0.2
			c-0.1-0.1-0.2,0-0.1-0.2c-0.1,0-0.2,0-0.3-0.1c-0.7-0.7-1.7-1.1-2.4-1.9c0-0.6-0.1-1-0.1-1.6c2.8,2.3,5.5,4.7,8.9,6.4
			c0.5,0.3,1.2,0.5,1.7,0.8C-99.2,345.4-99.2,345.4-99.1,345.4z M-100,346.3C-99.9,346.1-99.9,346.5-100,346.3L-100,346.3z
			 M-117.9,345.9C-117.9,345.8-117.8,345.9-117.9,345.9C-117.9,346-117.9,346-117.9,345.9z M-117.9,345.3c0-0.2,0.1,0.1,0.1,0.2
			C-117.9,345.6-117.9,345.3-117.9,345.3z M-115.8,344.2c0.1-2.3-0.2-5.2-0.1-7.6c0-0.4,0.1-0.8,0.3-1.1c0,0,0.1-0.1,0.1-0.2
			c0.7,0.5,1.3,1.1,1.9,1.7c0.1,0.4-0.1,0.8-0.1,1.1c0,0.2,0.1,0.5,0.1,0.7c0,0.7,0,1.3,0,2c0,1.1-0.1,2.2-0.1,3.3
			c-0.5,0.2-1.1,0-1.6-0.1C-115.5,344-115.7,344.3-115.8,344.2z M-117.9,344.2c-0.1-0.1,0-0.4-0.1-0.5
			C-117.8,343.7-117.9,344.1-117.9,344.2z M-117.9,343.1C-117.7,342.9-118,343.2-117.9,343.1L-117.9,343.1z M-117.9,342.3
			C-117.7,342.2-118.1,342.5-117.9,342.3L-117.9,342.3z M-118,340.9c0.3,0,0.6-0.1,1-0.1c-0.1,0.2-0.3,0.4-0.4,0.6
			C-117.7,341.3-117.9,341.2-118,340.9z M-117.9,341.3C-118.1,341.2-117.7,341.5-117.9,341.3L-117.9,341.3z M-117,341.2
			c-0.1,0,0,0.2-0.2,0.2C-117.1,341.2-117.1,341.2-117,341.2z M-117.2,341.9c0-0.2,0.1-0.2,0.2-0.4c0.1,0.1,0,0.3,0.1,0.5
			c0,0.1-0.1,0-0.1-0.1C-117,341.8-117.1,341.9-117.2,341.9z M-117.3,341.6c0,0,0.1-0.1,0.1-0.2h0.2
			C-117.2,341.5-117.2,341.6-117.3,341.6z M-117.8,341.7c0.1,0.2-0.1,0.2-0.1,0.4c-0.1-0.1,0-0.4-0.1-0.6
			C-117.9,341.5-117.8,341.6-117.8,341.7z M-117.5,339.4c-0.3,0-0.3-0.3-0.5-0.5c0.1-0.1,0.6-0.1,1-0.2
			C-117.1,339-117.3,339.1-117.5,339.4z M-117.1,339.1h0.1v0.1c0,0-0.1,0-0.1,0.1h-0.1L-117.1,339.1
			C-117.1,339.1-117.1,339.1-117.1,339.1z M-117.3,339.5c-0.1-0.1,0-0.2,0.2-0.2C-117.1,339.4-117.3,339.4-117.3,339.5z M-117,339.3
			c0.1,0.1,0,0.4,0,0.7c-0.1-0.1-0.2-0.2-0.2-0.3C-117.2,339.5-117,339.5-117,339.3z M-118,340c-0.1-0.1,0-0.4-0.1-0.6
			C-117.8,339.5-117.7,339.8-118,340z M-117.6,339.9c-0.2,0.1-0.2,0.4-0.4,0.4c0-0.1,0.1-0.2,0.2-0.2
			C-117.8,340-117.8,339.9-117.6,339.9z M-117.5,340c0.3,0.1,0.4,0.3,0.6,0.6c-0.4,0-0.6,0.1-1,0.1
			C-117.8,340.4-117.6,340.2-117.5,340z M-117.5,337.9c0.2,0.2,0.4,0.3,0.4,0.6c-0.3,0-0.7,0.1-0.9,0.1
			C-117.8,338.3-117.6,338.1-117.5,337.9z M-118,338.3c-0.1-0.1,0-0.3,0.2-0.3C-117.8,338.2-118,338.2-118,338.3z M-117.3,337.4
			c0.1-0.2,0.2-0.3,0.3-0.5c0.1,0.1,0,0.2-0.2,0.2C-117.2,337.3-117.2,337.4-117.3,337.4z M-117,337.2c0.1,0,0.1,0,0.1,0.1
			c0,0.2,0,0.2,0,0.4c0,0.1,0,0.1,0.1,0.1c-0.1,0.1-0.3-0.1-0.3-0.3C-117.2,337.4-117,337.4-117,337.2z M-117.5,337.3
			c-0.2-0.1-0.5-0.2-0.5-0.5c0.3,0,0.6-0.1,0.9-0.1C-117.1,336.9-117.4,337-117.5,337.3z M-117.8,337.5c0.1,0.3-0.2,0.2-0.2,0.4
			c-0.1-0.1,0-0.4-0.1-0.6C-117.9,337.3-117.9,337.4-117.8,337.5z M-117.7,337.8c0.2,0.2-0.1,0.3-0.2,0.3
			C-118,338-117.7,337.9-117.7,337.8z M-117.5,335.8c0.2,0.1,0.3,0.3,0.4,0.5c-0.3,0-0.6,0.1-0.9,0.1
			C-117.8,336.2-117.6,336-117.5,335.8z M-118,336.3C-117.8,336.1-118.2,336.4-118,336.3L-118,336.3z M-128.8,336.6
			c-0.5,0-0.9,0.3-1.3,0.2c-0.2,0.2-0.6,0.3-1.1,0.3c-0.6,0.2-1.3,0.5-2,0.4c-0.2,0.2-0.6,0.2-0.8,0.3c-0.4,0-0.6,0.2-0.9,0.1
			c5.2-1.4,10.5-2.7,15.2-4.6c-0.1,0.3,0.2,0.2,0.2,0.4c-0.3,0.1-0.5,0.2-0.9,0.3c-1.1,0.5-2.4,0.7-3.5,1.2
			c-0.6,0.1-1.2,0.4-1.8,0.5c-0.6,0.2-1.2,0.4-1.8,0.5C-127.9,336.4-128.4,336.4-128.8,336.6z M-126.9,336.3
			C-127.2,336.4-126.6,336.2-126.9,336.3L-126.9,336.3z M-115.6,333.5C-115.5,333.3-115.5,333.7-115.6,333.5L-115.6,333.5z
			 M-112.3,333.5c0,0-0.1,0-0.1,0.1C-112.4,333.5-112.3,333.5-112.3,333.5z M-111.6,334.1c0,0.1-0.2,0.2-0.2,0.4
			c-0.2-0.2-0.5-0.3-0.6-0.6c0.3-0.1,0.7-0.1,1.1-0.2C-111.4,333.9-111.6,334.1-111.6,334.1z M-111.2,333.8
			C-111,334-111.4,334-111.2,333.8L-111.2,333.8z M-111.3,334c0.1,0.1,0,0.2-0.2,0.2C-111.5,334.1-111.4,334.1-111.3,334z
			 M-112.3,335.7c0-0.2,0.4-0.5,0.5-0.7c0.2,0.2,0.5,0.3,0.6,0.6c-0.3,0-0.7,0.2-0.9,0C-112.2,335.7-112.2,335.7-112.3,335.7z
			 M-111.7,336.4c-0.1-0.1-0.2-0.2-0.3-0.3c0.2-0.2,0.4,0,0.7-0.2C-111.4,336.1-111.4,336.3-111.7,336.4z M-111.1,336
			c0.1,0,0,0.1,0,0.2C-111.2,336.2-111.1,336.1-111.1,336z M-111.8,337.2c0.3,0.1,0.4,0.4,0.6,0.5c-0.3,0.1-0.7,0.2-1.1,0.1
			C-112.2,337.6-111.9,337.5-111.8,337.2z M-112.3,337.7c-0.1,0,0-0.2,0.1-0.2C-112.2,337.6-112.3,337.6-112.3,337.7z M-112,336.2
			c0,0.2,0.4,0.2,0.2,0.5c-0.2-0.1-0.4-0.3-0.6-0.6h0.2c0.1,0.1,0,0.1,0,0.2C-112.1,336.3-112.1,336.2-112,336.2z M-112.1,336.9
			c0,0.3-0.3,0.3-0.3,0.5c-0.2-0.2,0.1-0.7-0.1-0.9C-112.4,336.5-112.2,336.8-112.1,336.9z M-112,337.2c0,0.1-0.1,0.1-0.1,0.2
			C-112.2,337.3-112.1,337.1-112,337.2z M-111.5,336.8c0.2,0.1,0.4,0.2,0.4,0.6C-111.2,337.2-111.5,337.2-111.5,336.8z
			 M-111.1,336.4c0.1,0.1,0,0.3,0.1,0.5C-111.3,336.8-111.3,336.6-111.1,336.4z M-111.4,336.5c-0.2-0.1,0.1-0.1,0.1-0.2
			C-111.1,336.3-111.4,336.4-111.4,336.5z M-113.6,336.6c0,0.2-0.3-0.2-0.4-0.3c-0.2-0.1-0.3-0.3-0.4-0.4c-0.4-0.2-0.6-0.6-1-0.7
			c0.1-0.3,0.5-0.4,0.6-0.7C-113.9,334.8-113.6,335.6-113.6,336.6z M-117,335.1c0.1,0.2,0,0.6,0.1,0.8c-0.2-0.1-0.2-0.3-0.3-0.4
			C-117.2,335.3-117,335.3-117,335.1z M-117.4,335.3c0-0.1,0-0.2,0.2-0.2c0,0,0,0-0.1-0.1C-117.1,335-117.2,335.4-117.4,335.3z
			 M-117.2,335.1c0-0.1,0.1-0.1,0.1-0.2C-116.9,334.9-117,335.1-117.2,335.1z M-117,334.7C-116.9,334.5-116.9,334.9-117,334.7
			L-117,334.7z M-112.2,335.2c0,0.2-0.2,0.1-0.2,0.3C-112.5,335.4-112.3,335.2-112.2,335.2z M-112.4,335.5c0,0.1-0.1,0-0.1,0.1
			C-112.5,335.5-112.5,335.5-112.4,335.5z M-112.2,335.2c0-0.1,0.1-0.1,0.1-0.2C-112,335-112.1,335.2-112.2,335.2z M-111.5,334.8
			c0-0.3,0.3-0.4,0.3-0.6c0.2,0-0.1,0.2,0.1,0.3c0,0.3-0.1,0.5,0,0.7C-111.3,335.1-111.4,334.9-111.5,334.8z M-111.6,334.5
			c-0.1,0,0.1-0.1,0.1-0.2C-111.4,334.4-111.6,334.5-111.6,334.5z M-117.3,334.1C-117.2,333.9-117.2,334.3-117.3,334.1L-117.3,334.1
			z M-114.8,333.9c0-0.1,0.1,0,0.1-0.1C-114.7,333.9-114.7,333.9-114.8,333.9z M-125.8,336c0.1,0,0.1-0.1,0.2-0.1
			c0.1-0.1,0.3-0.1,0.4-0.1c0.2-0.1,0.6-0.2,0.9-0.3c0.5-0.2,1.2-0.3,1.7-0.6c0.9-0.2,1.7-0.5,2.6-0.8c0.3,0,0.6-0.3,0.8-0.2
			c0.2,0.2-0.1,0.2-0.2,0.3c-0.2,0-0.2,0.1-0.4,0.1c-0.8,0.3-1.7,0.6-2.6,0.8c-1.1,0.3-2.3,0.7-3.5,1
			C-126.2,336-125.8,336.1-125.8,336z M-112.6,334.3c0.2,0.1,0.3,0.2,0.4,0.4c-0.1,0.2-0.3,0.3-0.3,0.6
			C-112.6,335-112.5,334.4-112.6,334.3z M-115.6,334.6c-0.1,0-0.1-0.1-0.2-0.1c0-0.1,0.1-0.1,0.2-0.1
			C-115.5,334.5-115.5,334.5-115.6,334.6z M-117.6,335.2c-0.1-0.2-0.3-0.2-0.3-0.5c0.3-0.1,0.6-0.1,0.9-0.2
			C-117.3,334.8-117.3,335.1-117.6,335.2z M-117.8,335.5c0,0.2-0.2,0.3-0.2,0.4c-0.1-0.1,0-0.5-0.1-0.7
			C-118,335.3-117.9,335.4-117.8,335.5z M-117.6,335.7c0,0.1-0.2,0.1-0.1,0.2c0,0-0.1-0.1-0.1-0.1c0.1,0.1,0,0.2-0.2,0.3
			C-117.9,336-117.9,335.8-117.6,335.7z M-111.4,338.5c-0.2,0-0.2-0.2-0.3-0.2c0.1-0.1,0.4-0.1,0.6-0.1
			C-111.2,338.3-111.4,338.3-111.4,338.5z M-111.1,338.4C-111.1,338.2-111.1,338.6-111.1,338.4L-111.1,338.4z M-111.6,338.6
			c0,0.2-0.2,0.1-0.2,0.3c-0.3-0.1-0.4-0.4-0.6-0.6C-111.9,338.2-111.8,338.5-111.6,338.6z M-111.2,338.5
			C-111.1,338.4-111.4,338.7-111.2,338.5L-111.2,338.5z M-111.8,339.5c0.2,0.2,0.5,0.3,0.6,0.6c-0.4,0.1-0.8,0-1.2,0.1
			C-112.2,339.9-112,339.7-111.8,339.5z M-112.3,339.9c-0.2,0,0.1-0.1,0.1-0.2C-112.1,339.6-112.3,339.9-112.3,339.9z M-112.4,339.6
			c-0.1-0.2-0.2-0.6-0.1-0.9c0.1,0.1,0.2,0.2,0.3,0.3C-112,339.4-112.3,339.4-112.4,339.6z M-112,339.4c0.1,0-0.1,0.1-0.1,0.2
			C-112.2,339.5-112,339.4-112,339.4z M-111.3,338.9c0.2,0,0.1,0.1,0.2,0.1v0.6C-111.3,339.5-111.6,339.2-111.3,338.9z M-111.5,339
			c-0.1,0,0-0.2,0.1-0.2C-111.4,338.9-111.5,338.9-111.5,339z M-111.8,341.1c-0.3-0.1-0.4-0.4-0.6-0.6c0.3-0.2,0.8-0.1,1.2-0.2
			C-111.3,340.7-111.5,340.9-111.8,341.1z M-111.1,340.8c0,0.1-0.1,0.2-0.2,0.2C-111.3,340.8-111.3,340.8-111.1,340.8z
			 M-111.8,341.7c0.1,0,0.1,0,0.2,0.1c0.1,0.3,0.4,0.3,0.4,0.6c-0.4,0-0.6,0.1-1.2,0.1C-112.2,342.1-111.9,341.9-111.8,341.7z
			 M-112.3,342C-112.1,341.9-112.4,342.2-112.3,342L-112.3,342z M-112,341.4c0,0.3-0.2,0.3-0.3,0.5c-0.2-0.2,0-0.5-0.1-0.8
			C-112.2,341.1-112.1,341.2-112,341.4z M-111.5,341.1c0.1,0,0,0.1,0,0.2C-111.6,341.2-111.5,341.1-111.5,341.1z M-112,341.8
			C-111.9,341.6-112.2,341.9-112,341.8L-112,341.8z M-111.5,341.5c0.1-0.2,0.2-0.5,0.4-0.5v0.9
			C-111.3,341.8-111.3,341.6-111.5,341.5z M-112.4,343.8v-0.5c0.2,0.1,0.4,0.2,0.3,0.5c-0.1,0-0.3,0-0.2,0.2
			C-112.4,344.1-112.1,343.7-112.4,343.8z M-111.4,343.7c0-0.2,0.2-0.2,0.3-0.4c0.1,0.1,0,0.4,0.1,0.6
			C-111.3,344-111.3,343.8-111.4,343.7z M-111.5,343.4C-111.6,343.6-111.3,343.1-111.5,343.4L-111.5,343.4z M-111.7,343.4
			c-0.2-0.2-0.6-0.3-0.6-0.7c0.4,0,0.8,0,1.2-0.1C-111.2,343-111.5,343.1-111.7,343.4z M-99.1,345.3L-99.1,345.3
			C-99.1,345.3-99.1,345.3-99.1,345.3C-99.3,345.2-99.2,345.3-99.1,345.3z M-99.1,345.2c-0.1,0-0.1-0.1-0.2-0.1
			c-0.1-0.1-0.1,0.2-0.2,0.1c-0.1-0.2-0.1,0-0.1,0c-0.2,0-0.1-0.3-0.3-0.3c0,0.2-0.1,0.1-0.1-0.1c-0.1,0.1,0,0.1-0.2,0.1
			c-0.1,0,0-0.2-0.2-0.2c-0.1-0.1,0,0.1-0.2,0c-0.2-0.2-0.3-0.2-0.5-0.3c-0.2-0.1-0.4-0.3-0.7-0.4c-0.4-0.3-0.9-0.5-1.2-0.8
			c-0.9-0.5-1.7-1.1-2.5-1.7c-0.8-0.5-1.5-1.2-2.3-1.8c-0.3-0.4-0.7-0.6-1.1-0.9c-0.3-0.4-0.8-0.5-1-1c-0.1-0.9-0.1-2.1-0.2-3
			c0.3,0.1,0.5,0.4,0.8,0.7c1.8,1.8,3.7,3.4,5.5,5c1.5,1.3,3,2.5,4.7,3.5L-99.1,345.2L-99.1,345.2z M-109.7,332.3
			c0.4,0.1,0.4,0.6,0.8,0.7c0.7,0.9,1.5,1.6,2.2,2.4c1,1.1,2,2.1,3.1,3.1c1.4,1.4,2.9,2.7,4.5,3.9v1.4c-2.3-1.4-4.2-3.1-6.2-4.8
			c-0.1-0.3-0.5-0.4-0.6-0.6c-0.2-0.2-0.4-0.4-0.7-0.6c-0.1-0.3-0.5-0.3-0.6-0.6c-0.2-0.2-0.5-0.4-0.7-0.6c-0.2-0.2-0.3-0.4-0.5-0.6
			c-0.2-0.2-0.4-0.3-0.6-0.6c-0.4-0.3-0.7-0.7-1.1-1.1C-110,333.7-110.1,332.7-109.7,332.3z M-111.5,332.8
			C-111.4,332.6-111.4,333-111.5,332.8L-111.5,332.8z M-134.9,337.7c2.6-0.8,5.6-1.4,8.1-2.3c1.3-0.4,2.6-0.9,3.9-1.3
			c0.6-0.2,1.2-0.5,1.9-0.7c0.3-0.2,0.6-0.2,1-0.4c0.3-0.1,0.6-0.3,0.9-0.3c-0.2,0.4-0.7,0.5-1.1,0.6c-0.3,0.2-0.7,0.3-1.1,0.4
			c-0.4,0.2-0.7,0.4-1.2,0.4c-1.3,0.5-2.7,0.9-4.1,1.4c-1.4,0.4-2.8,0.8-4.2,1.2c-0.9,0.2-1.9,0.6-2.8,0.7c-0.1,0.1-0.2,0.1-0.4,0.2
			c-0.1,0-0.1,0.1-0.2,0.1c0-0.1-0.2,0-0.1,0c-0.2,0-0.5,0.1-0.8,0.2C-135.2,337.7-135,337.7-134.9,337.7z M-135.4,337.8
			c0-0.1,0.1,0,0.2-0.1C-135.3,337.8-135.3,337.8-135.4,337.8z M-135.5,337.8c0,0.1-0.1,0-0.2,0.1
			C-135.6,337.8-135.5,337.8-135.5,337.8z M-136.3,338.1c0.1,0,0.1,0,0.2-0.1c0.1,0,0.2,0,0.2-0.1c0.2,0,0.2-0.1,0.4-0.1
			c0,0.1-0.1,0-0.1,0.1C-135.8,338-136.1,338-136.3,338.1C-136.4,338.1-136.4,338.1-136.3,338.1z M-134.9,338
			c-0.4,0.2-0.9,0.3-1.5,0.4C-135.9,338.2-135.4,338.1-134.9,338z M-153.4,341.8c0.1,0,0.2,0,0.4,0c1.4-0.3,3.1-0.5,4.4-0.7
			c7.3-1.3,14.6-2.7,21.5-4.4c2.4-0.6,4.7-1.3,7-2c0.3-0.1,0.7-0.3,0.9-0.3c0.1,3.2-0.1,6.6-0.1,9.9c0,0.3-0.5,0-0.6,0.2
			c-0.2,0.5,0.3,0.5,0.6,0.7c0,0.5,0.1,0.9,0.1,1.5c-3.4,0.2-7,0.2-10.3,0.4c-0.1,0-0.3,0-0.4,0.1c-0.1,0-0.5-0.1-0.4,0.2
			c-0.1-0.2-0.1-0.1-0.3-0.2c-0.3-0.1-0.8,0-1.2,0.1c-0.8,0-1.5,0-2.3,0.1c-1.4,0.1-2.7,0.1-3.7,0.2c0,0.1,0.1,0.1,0.2,0.1
			c0.3,0-0.1,0.1-0.2,0.1c-0.2,0-0.3,0-0.4-0.2c0,0.1-0.2,0.1-0.4,0.1c0-0.1,0.2,0,0.2-0.1c-4.8,0.1-10,0.3-15,0.4L-153.4,341.8
			L-153.4,341.8z M-116.3,347.5L-116.3,347.5C-116.3,347.5-116.3,347.5-116.3,347.5C-116.3,347.5-116.3,347.5-116.3,347.5z"/>
	</g>
</g>
<g>
	<path fill="#E4BA27" d="M-204.9,327.8l29.2-67h1.7l29.1,67h-2.1l-10.5-24h-35l-10.5,24H-204.9z M-174.8,263.6l-16.8,38.4h33.4
		L-174.8,263.6z"/>
	<path fill="#E4BA27" d="M-133.1,327.8v-66.9h1.9v66.9H-133.1z"/>
	<path fill="#E4BA27" d="M-49.4,327.8V265l-29.7,49.6h-1.5l-29.7-49.6v62.8h-1.9v-67h1.5l30.8,51.5l30.8-51.5h1.5v67H-49.4z"/>
	<path fill="#E4BA27" d="M47.2,260.8v67h-1.9v-33.3H-1.2v33.3h-1.9v-67h1.9v31.8h46.5v-31.8H47.2z"/>
	<path fill="#E4BA27" d="M66.2,327.8v-66.9h1.9v66.9H66.2z"/>
	<path fill="#E4BA27" d="M138.4,316.4c-7,7.9-15,11.9-24.1,11.9c-4.7,0-8.9-1-12.8-3c-3.9-2-7.2-4.6-10-7.8c-2.8-3.2-5-6.8-6.5-10.9
		c-1.5-4.1-2.3-8.2-2.3-12.3c0-4.3,0.8-8.6,2.3-12.6c1.5-4.1,3.6-7.7,6.3-10.9c2.7-3.2,5.9-5.7,9.6-7.6c3.7-1.9,7.8-2.8,12.3-2.8
		c3.5,0,6.5,0.4,9.2,1.1c2.7,0.7,5.1,1.7,7.2,3c2.1,1.3,3.9,2.8,5.3,4.6c1.5,1.8,2.8,3.8,3.8,5.9l-1.8,0.6
		c-2.6-4.7-5.9-8.1-9.9-10.2c-4-2.1-8.6-3.1-13.9-3.1c-4.4,0-8.4,0.9-11.9,2.8c-3.5,1.9-6.5,4.3-9,7.3c-2.5,3-4.4,6.4-5.7,10.3
		c-1.3,3.8-2,7.7-2,11.7c0,4.2,0.8,8.3,2.3,12.1c1.5,3.9,3.7,7.3,6.4,10.2c2.7,3,5.8,5.3,9.4,7.1c3.6,1.8,7.5,2.6,11.6,2.6
		c4.4,0,8.6-1,12.5-3c4-2,7.8-5.2,11.6-9.6v-15.9h-15.8v-1.9h17.6v31.9h-1.9L138.4,316.4L138.4,316.4z"/>
	<path fill="#E4BA27" d="M206.3,260.8v67h-1.9v-33.3h-46.5v33.3H156v-67h1.9v31.8h46.5v-31.8H206.3z"/>
</g>
</svg>
