<?xml version="1.0" encoding="utf-8"?>
<!-- Generator: Adobe Illustrator 16.0.4, SVG Export Plug-In . SVG Version: 6.00 Build 0)  -->
<!DOCTYPE svg PUBLIC "-//W3C//DTD SVG 1.1 Tiny//EN" "http://www.w3.org/Graphics/SVG/1.1/DTD/svg11-tiny.dtd">
<svg version="1.1" baseProfile="tiny" id="Layer_1" xmlns="http://www.w3.org/2000/svg" xmlns:xlink="http://www.w3.org/1999/xlink"
	 x="0px" y="0px" width="140px" height="617.617px" viewBox="0 0 140 617.617" xml:space="preserve">
<g>
	<path fill="#E4BA27" d="M3.333,260.228c-1.345-0.238-2.384-0.781-3.406-1.342v351.449c0.432,0.008,0.965,0.093,1.276,0.007
		c1.793-0.496,2.598-2.286,4.083-3.374c2.043,0.479,3.523-0.462,5.326,0c0.059,0,0.119,0,0.178,0
		c0.968,0.666,1.76-0.365,2.841-0.177c0.376,0.333,0.003,1.417,0.532,1.597c0.295,0,0.592,0,0.888,0
		c0.352-0.535,0.446-1.33,1.065-1.597c0.24,0.819-0.373,1.324,0.178,2.307c2.417,0.774,2.861-1.838,3.551-3.373
		c-0.617-0.388-0.738-1.273-1.065-1.952c-0.679-0.151-1.186-0.473-1.776-0.71c0.074,0.427-0.323,0.386-0.176,0.887
		c-0.585-0.482-1.058-1.073-2.309-0.887c0.029,0.207-0.038,0.315-0.177,0.355c0.04,1.024,1.206,0.924,1.242,1.952
		c-0.51-0.14-0.496-0.805-1.242-0.709c-1.234,1.928-5.243,1.54-7.99,1.421c-1.229-0.591-0.091-1.968,0.888-1.954
		c0.786-0.042,1.466-0.191,1.597-0.888c-0.235-0.771-1.518-0.493-1.42-1.599c1.015-0.225,2.608-0.005,3.906-0.354
		c0.47,0.594,0.691,1.438,0.888,2.307c1.981-0.505,3.673-1.298,3.906-3.55c1.361-0.593,1.818-2.087,2.664-3.196
		c-0.773-1.678-2.769-2.713-1.776-5.149c0.461-0.369,0.661,0.396,1.244,0c0.079-1.725,1.711-3.089,0.178-4.439
		c0.812-1.55,3.536,0,4.971-0.71c0.539,0.219-0.193,0.611,0,1.065c0.709,0.475,1.791,0.576,1.775,1.775
		c0.438,0.025,0.856,0.027,1.066-0.177c0.035-0.982-0.6-1.295-0.888-1.954c1.114,0.418,1.842-0.329,2.485-0.887
		c0.018-0.728-0.614-0.807-1.064-1.066c0.004-0.646,0.924-0.377,0.709-1.242c-0.332-0.348-0.65-0.055-1.065,0
		c0.103-0.577-0.122-0.826-0.177-1.244c-2.836,0.012-3.431,3.936-6.746,2.309c-0.025-2.974-2.435-3.517-5.149-3.019
		c-0.045,0.637,0.533,0.65,0.532,1.243c-0.791-0.076-1.32,0.565-1.242,1.42c-1.8-0.095-4.114,0.326-5.148-0.533
		c0.188-0.848,0.831-1.257,0.354-2.308c1.808-0.275,2.954-2.601,1.243-3.906c0.478-0.409,1.712-0.063,2.485-0.177
		c0.423,1.116,1.449,1.629,2.131,2.486c0.888,0.12,1.064-0.474,1.419-0.888c0.629-0.096,0.437,0.629,1.066,0.533
		c2.42-1.466,2.501-3.908,0.178-5.681c-0.68,0.351-0.779,0.365-1.244-0.179c-0.721,1.034-1.882-0.341-2.84,0.533
		c0.634,2.088-1.433,2.286-3.196,2.485c0.758-1.048,0.136-2.691-0.887-3.018c0.925-1.037-0.037-1.818,0-2.841
		c5.261-0.714,11.114-0.838,16.688-1.241c0.884,0.95,2.033,1.635,3.552,1.952c0.399-0.321,0.417-0.896,0.177-1.42
		c0.126-0.168,0.833,0.114,1.066-0.354c-0.718-0.874-0.254-1.052,0-2.13c-0.379-0.392-1.122-0.418-1.776-0.533
		c0.055-0.647-0.028-1.156-0.178-1.599c-0.177,0-0.354,0-0.532,0c-0.605,0.519-0.894,1.355-1.953,1.421
		c-0.117,0.649,0.383,0.681,0.354,1.242c-1.43,0.241-3.697,0.352-5.681,0.533c0.13-0.757,0.151-1.625,0.887-1.775
		c0.236-2.19-1.304-2.603-2.131-3.729c-0.785,0.255-1.293,0.1-2.13,0c-0.336,1.319-1.823,1.491-1.953,3.017
		c-1.575-0.012-3.072,0.922-4.615,0.356c-0.019-0.551,0.217-0.848,0.354-1.243c0.609,0.175,1.392,0.875,2.131,0.355
		c-0.218-1.202-1.055-1.787-1.599-2.663c0.197-0.649,1.347-0.622,1.954-0.355c0.064-0.465,0.092-1.101,0.177-1.953
		c1.26-0.575,3.2-0.469,4.793-0.71c0.021,0.45-0.75,1.008-0.355,1.244c0.435,0.64,2.292,1.645,2.841,0.533
		c0.559-0.087,0.132,0.813,0.532,0.887c1.355-0.36,1.329-2.103,2.486-2.664c-0.183-1.415-1.166-2.029-1.598-3.195
		c-1.226,0.475-1.093-0.433-2.13-0.533c-0.568,0.023-0.782,0.403-0.711,1.065c-0.663,0.19-0.506-0.441-1.065-0.356
		c-0.191,0.934-0.944,1.306-1.243,2.132c-1.283-0.177-2.497,0.524-3.55,0c-0.387-1.454,1.016-1.116,1.775-1.421
		c-0.156-1.339,0.18-2.187,0.71-2.841c-0.682-1.27-1.071-2.835-2.13-3.727c1.816-0.855,4.676-0.338,6.214-0.179
		c0.636,0.015,0.141,1.161,0.532,1.421c0.894-0.409,2.058-0.547,2.663-1.242c0.553-2.385-0.938-3.599-3.728-3.551
		c0.161,2.409-2.395,2.103-4.439,2.307c0.073-0.967-0.666-1.635-0.355-2.84c-0.752-0.161-1.325,0.022-1.597-0.889
		c0.983-0.884,3.043-0.718,5.503-0.887c0.781-0.054,2.171-0.263,2.486-0.178c1.478,0.403,1.322,3.25,3.019,1.776
		c0.365,0.048,0.166,0.661,0.532,0.71c1.125-0.26,3.227-2.681,3.019-4.084c-0.227-1.526-3.298-1.337-2.309-3.373
		c-0.764-0.243-1.157-0.855-1.597-1.42c-0.839,0.309-1.325,0.131-1.598-0.533c-0.861,0.145-1.046,0.965-2.13,0.888
		c0.121,0.892-0.714,0.825-0.533,1.776c-2.59,0.252-6.674,0.54-8.522-0.533c-0.214,0.276-0.566,0.692-0.177,1.064
		c-0.51-0.418-0.943,0.114-1.421-0.177c0.246-1.198-0.209-2.179,0.533-2.663c-0.303-0.822-0.307-1.942-1.065-2.308
		c3.738-0.404,7.859-0.427,11.186-1.243c0.501,0.268,0.618,0.92,0.71,1.597c0.963,0.222,2.119,0.249,2.84,0.71
		c0.646-0.36,1.21-0.802,2.131-0.888c0.812-1.417,0.471-2.911,1.42-4.083c-0.614-0.89-0.294-0.748,0-1.774
		c-0.425-0.108-0.81-0.256-1.42-0.179c-0.064-2.411,1.024-2.58,2.841-3.195c-0.273-0.97,0.404-1.435,0.532-2.841
		c-1.028-0.51-1.468-1.608-1.775-2.841c0.046-0.369,0.781-0.048,0.888-0.355c-0.195-0.714-0.721-0.703-0.354-1.598
		c-0.848-0.099-1.202-0.691-1.598-1.242c-1.024,0.45-1.335-0.292-2.309-0.354c-0.149,0.205-0.235,0.476-0.177,0.886
		c-0.576,0.104-0.827-0.121-1.243-0.177c0.13-1.646,2.022-1.527,1.598-3.728c-0.997-0.188-1.082-1.287-1.776-1.775
		c-0.915,0.427-1.332,0.274-1.776-0.533c0.609-0.824,1.915-0.897,2.663-0.177c1.561-0.654,2.138-1.887,2.309-3.552
		c-0.208-0.325-0.681-0.384-0.888-0.71c0.835-1.327,1.973-2.172,1.775-3.728c-0.104-0.824-1.255-1.411-0.709-2.664
		c0.16-0.313,0.653-0.293,0.709-0.71c0.095-0.687-0.317-0.868-0.177-1.598c-1.15-0.153-1.376-1.229-1.775-2.131
		c-0.675,0.071-0.674,0.817-1.42,0.355c0.383-1.317,1.634-2.362,1.242-3.906c-0.95-0.47-1.662-1.179-2.308-1.953
		c-0.56-0.085-0.694,0.253-1.066,0.355c0-0.296,0-0.593,0-0.888c2.819-0.039,5.841,0.059,8.167,0c0.355,0,0.71,0,1.066,0
		c2.959,0,5.917,0,8.877,0c0-0.888,0-1.775,0-2.664c0.595-0.409,1.95-0.062,2.84-0.177c0-0.947,0-1.895,0-2.84
		c-5.977,0-11.955,0-17.932,0c-0.4-0.132-0.069-0.997-0.177-1.421c-1.775,0-3.552,0-5.326,0c-0.413-1.362-0.06-3.49-0.178-5.149
		c-0.519-0.901-1.54-1.298-2.131-2.129c-0.294-0.481-0.294-2.183,0-2.663c4.32,0,8.64,0,12.96,0c0-1.007,0-2.013,0-3.019
		c0.71,0,1.421,0,2.131,0c0.352-1.069,0.104-2.737,0.177-4.083c-0.177,0-0.355,0-0.533,0c-0.815,0.214-1.928-0.19-1.243-0.888
		c0-0.354,0-0.71,0-1.065c-0.06,0-0.119,0-0.178,0c0-0.119,0-0.237,0-0.354c-0.368-0.106-1.166,0.218-1.243-0.178
		c0-1.125,0-2.249,0-3.374c-3.258-0.115-6.979,0.233-9.942-0.177c0.348-2.553-0.895-6.694,1.065-7.635
		c7.753-0.414,16.275-0.059,24.323-0.178c0.112-0.597-0.229-1.649,0.178-1.953c0-0.178,0-0.355,0-0.533c0.415,0,0.829,0,1.243,0
		c-0.205-2.459,0.429-5.756-0.355-7.634c-0.967-0.216-0.677-1.69-0.71-2.841c-0.485-0.402-1.024-0.751-1.42-1.243
		c-4.557-0.119-9.587,0.236-13.848-0.178c-0.296-0.597-0.296-2.421,0-3.018c0.132-0.4,0.996-0.069,1.42-0.178
		c0.288-1.427,0.147-3.285,0.178-4.97c-0.592,0-1.184,0-1.775,0c-0.759-0.603-0.169-2.555-0.356-3.729
		c0.494-0.69,1.367-1.001,1.776-1.776c0.111-0.54-0.227-1.529,0.178-1.775c2.019,0.008,3.506-0.517,4.261-1.774
		c5.563,0,11.125,0,16.688,0c0-4.025,0-8.049,0-12.074c-9.292,0-18.583,0-27.875,0c-0.401-0.132-0.069-0.995-0.176-1.42
		c-0.415,0-0.83,0-1.244,0c0-0.473,0-0.946,0-1.42c0.473,0,0.947,0,1.42,0c0-0.059,0-0.118,0-0.178
		c0.597,0.183,0.277-0.551,0.355-0.887c-0.022-0.318,0.217-0.375,0.178-0.711c2.012,0,4.024,0,6.036,0c0.355,0,0.711,0,1.065,0
		c0.275-1.04,0.05-1.716,0-2.841c0.092-0.618,1.16-0.259,1.775-0.354c1.571-0.194,3.264,0.255,4.971,0
		c0.351-0.053,0.196-0.409,0.533-0.533c2.726-1,6.253,0.671,8.167,0c0.377-0.133,0.409,0.096,0.355-0.711
		c2.723-0.413,6.214-0.058,9.232-0.176c0-0.474,0-0.947,0-1.42c4.735-0.415,10.238-0.06,15.269-0.179
		c0.23-0.308,0.146-0.704,0.533-0.888c1.095-0.52,3.951,0,6.037,0c2.251,0,4.416,0,6.036,0c4.469-1.352,4.534-10.183,0.177-11.718
		c-5.946,0-13.587,0-20.24,0c-3.943,0-7.691,0.776-8.7-1.953c-2.519-1.381-12.646,0.217-15.268-0.887c0-0.178,0-0.355,0-0.533
		c2.604-0.414,5.977-0.059,8.876-0.178c0.501-2.988,0.567-7.195-1.598-8.521c-3.137,0-6.273,0-9.41,0c-4.675,0-9.35,0-14.025,0
		c-0.759-0.071-0.169-1.487-0.355-2.131c0-0.473,0-0.947,0-1.42c3.255-0.118,6.983,0.236,9.942-0.178c0-0.532,0-1.065,0-1.598
		c0-2.663,0-5.326,0-7.989c-7.22,0-8.5,0-15.719,0c0-0.296,0-0.592,0-0.888c4.675-0.414,4.178-0.06,9.15-0.177
		c0-0.296,0-0.592,0-0.888c3.61,0,7.22,0,10.83,0c0.246-0.583,0.418-1.239,0.354-2.129c0.829,0,1.657,0,2.485,0
		c0-0.416,0-0.83,0-1.244c0.855-0.092,1.283-0.612,2.309-0.533c0.149-0.443,0.232-0.951,0.177-1.598
		c-1.5-0.097-2.34-0.855-2.662-2.13c-0.687,0.036-1.309,0.006-1.777-0.177c-0.4-0.132-0.069-0.996-0.177-1.421
		c-2.904-0.113-6.267,0.232-8.876-0.176c0-1.539,0-3.078,0-4.616c0-0.06,0-0.119,0-0.179c-0.232-0.359-0.94-0.244-1.066-0.709
		c-0.15,0.032-0.167-0.069-0.177-0.178c-3.847-0.117-8.167,0.236-11.717-0.177c0-0.887,0-1.776,0-2.664
		c0.362-0.406,1.407-0.131,1.065-1.242c1.765,0.049,2.946-0.487,4.793-0.356c-0.679-0.445-1.747-0.501-2.841-0.533
		c-0.115,0.001-0.228,0.005-0.341,0.009c0.002,0,0.004,0,0.005,0c-1.404-0.084-1.083-1.894-3.037-1.429
		c-0.364-0.939-0.332-2.272-0.533-3.373c1.734-0.548,3.741,0.163,5.682,0c-0.118-2.959,0.236-6.391-0.178-9.055
		c-0.355,0-0.71,0-1.065,0c-1.333-0.146-3.304,0.345-4.083-0.355c-0.115-0.773,0.232-2.007-0.178-2.485
		c-0.124-1.061-0.853-1.515-0.888-2.664c-0.412-1.244-0.06-3.254-0.177-4.794c0-1.065,0-2.13,0-3.195c0-0.473,0-0.947,0-1.42
		c3.671,0.115,7.809-0.234,11.186,0.178c-0.135,0.963,0.218,1.437,0.177,2.308c0,0.059,0,0.117,0,0.177
		c-0.026,0.884-1.468-0.043-1.598,0.355c-0.144-0.033-0.176-0.179-0.355-0.178c-0.334,0.229-0.922,0.08-1.065,0
		c-0.588,0.174,0.198,0.352,0.179,0.533c-0.125,0.369-1.373-0.048-0.533-0.177c-0.309-0.303-0.465,0.028-1.065-0.178
		c0.04,0.256,0.53,0.062,0.533,0.355c-1.194-0.433-5.184-0.458-6.925-0.355c0.333,0.673,0.253,1.761,1.42,1.598
		c-0.039-0.256-0.529-0.062-0.531-0.355c0.335-0.448,0.622,0.164,1.064-0.178c0.065,0.303-0.138,0.335-0.354,0.355
		c1.326,0.359,4.574,0.098,6.746,0.178c-0.093-0.143-0.185-0.288-0.178-0.533c0.372,0.221,0.668,0.517,0.889,0.888
		c0.172-0.005,0.137-0.216,0.177-0.355c-0.029-0.384,0.63-0.08,0.889-0.178c0.294,0,0.591,0,0.887,0
		c0.097,0.259-0.207,0.918,0.178,0.888c0.474,1.902-0.252,4.009,0.709,5.504c-0.888,0.169-0.43,2.352,0.355,2.485
		c0,0.119,0,0.237,0,0.355c-0.245,0.043-0.625,0.163-0.875,0.355c-0.004-0.001-0.008-0.001-0.013-0.001c0,0.003,0,0.007,0,0.01
		c-0.263,0.208-0.372,0.5,0,0.878c0,0.236,0,0.473,0,0.71c0.947,0,1.894,0,2.841,0c-0.776-0.113-0.389-1.386-1.066-1.598
		c0.178-0.296,0.822-0.125,0.888-0.532c-1.462-2.622-2.146-6.021-2.663-9.587c0.237,0,0.474,0,0.71,0
		c-0.005,0.172-0.217,0.137-0.354,0.177c0.053,0.341,1.252-0.034,0.71-0.354c0.593,0.277,1.439,0.117,1.952-0.178
		c0.297,0,0.592,0,0.889,0c0.021,0.319-0.219,0.375-0.178,0.71c0.714-0.222,0.417-1.693,0-2.309
		c-0.361,0.172-0.384,0.683-0.355,1.243c-0.928,0.078-1.556,0.458-2.663,0.355c-0.426-0.129-0.243-1.334-0.887-0.71
		c0-0.059,0-0.118,0-0.177c0.054-0.241,0.443-0.146,0.709-0.177c-0.228-0.46-0.366-0.559-0.888-0.355
		c0.154-0.26,0.266-0.563,0.711-0.532c-0.05-0.412-0.475-0.408-0.711-0.178c0.048-0.737-0.233-0.692,0-1.242
		c0.431-0.651,2.882,0.176,3.196,0.176c0.238,0.001,2.574-0.354,3.905-0.354c1.015,0,2.576,0.45,3.019-0.533
		c-0.005-0.172-0.217-0.138-0.355-0.178c-0.028-0.207,0.039-0.316,0.178-0.355c0.655,0.205,0.303,0.743,0.532,1.066
		c0.784-0.087-0.036-0.675,0.354-1.066c0.158,0.078,0.318,0.155,0.355,0.355c-0.033,0.202-0.178,0.098-0.177,0
		c-0.458,0.042,0.244,0.306,0,0.711c0.65,0,1.302,0,1.953,0c-0.164-0.311-0.556-0.393-1.066-0.355
		c0.159-0.21,0.855-1.326,0.178-1.243c0.099-0.493,0.687-0.497,1.065-0.709c0.389,0.557,0.94,0.953,1.065,1.775
		c-0.026,0.328-0.601,0.109-0.709,0.355c0.306,0.295,1.824,0.295,2.13,0c0.033-0.681-0.146-0.064-0.532-0.177
		c-0.276-0.632,0.603-0.108,0.532-0.533c0-0.059,0-0.119,0-0.178c0.167,0.13,0.27,0.322,0.355,0.533
		c0.287,0.05,0.306-0.168,0.533-0.178c0,0.06,0,0.119,0,0.178c-0.027,0.328-0.601,0.109-0.71,0.355
		c0.494,0.34,2.435,0.162,2.664,0.178c0.352-0.002,0.226-0.485,0.71-0.355c0.521,0.15-0.231,0.446,0,0.887
		c0.842,0.164,1.812,0.2,1.42,1.598c0.166-0.101,0.269-0.494,0.355-0.178c0.057,0.217-0.028,1.097-0.177,0.534
		c-0.565,0.297,0.548,0.378,0.177,1.064c-0.238-0.117-0.331-0.379-0.355-0.71c-0.397,0.077-0.072,0.875-0.178,1.243
		c0.288,0.051,0.306-0.167,0.533-0.177c-0.109,0.158-0.215,0.317,0,0.355c0,0.06,0,0.118,0,0.177
		c-0.218,0.198-0.364,0.155-0.355-0.177c-0.412,1.009-0.06,2.78-0.178,4.084c0.181-0.116,0.184-0.408,0.533-0.355
		c0.156,0.57-0.46,0.368-0.533,0.71c-0.084,0.731,0.478-0.171,0.533,0.532c-0.352,0.226-0.691-0.106-0.533,0.888
		c0.143-0.094,0.289-0.184,0.533-0.176c-0.193,0.965-0.837,0.454,0,1.243c-0.033,0.143-0.177,0.177-0.177,0.354
		c-0.609-0.726-0.297,0.585-0.533,1.066c0.535,0.187,0.804,0.51,0.533,1.065c-0.264-0.151-0.382-0.446-0.355-0.888
		c-0.412,1.008-0.061,2.78-0.177,4.083c0.351-0.366,0.473,0.123,0.533,0.533c-0.062,0.249-0.313,0.016-0.355-0.177
		c-0.385-0.03-0.08,0.629-0.177,0.887c0.193-0.044,0.12-0.352,0.355-0.354c0.083,1.419,0.194,2.416-0.178,4.438
		c-0.303-1.087,0.005-1.709,0-3.019c-0.752,2.198-0.18,5.775-0.533,7.457c0.166-0.13,0.269-0.322,0.355-0.532
		c0.392,0.021,0.076,0.752,0.177,1.064c-0.18-0.115-0.183-0.408-0.533-0.354c0.022,0.512-0.097,1.163,0.178,1.421
		c0.485-0.162-0.315-0.622,0.177-0.888c0.468,0.789,0.01,2.472-0.355,3.018c0.335-0.133,0.124-0.53,0.533-0.177
		c-1.127,0.765,0.067,1.927-0.533,2.84c0.307,0.677-0.013-0.691,0.355-0.533c0.488,0.583-0.262,0.778-0.532,1.421
		c-0.119,0-0.237,0-0.355,0c0.534,0.622-0.246,1.068-0.178,1.776c0.286-0.486,0.596,0.259,0.178,0.354
		c0.043,0.193,0.353,0.121,0.355,0.355c0.179,0.563,0.982-0.038,0.887,1.064c-0.426,0.071,0.098-0.808-0.532-0.532
		c0.149,0.427,0.114,0.47,0.177,1.242c-0.181-0.115-0.183-0.408-0.532-0.354c0,2.249,0,4.499,0,6.747
		c0.233-0.214,0.278-0.069,0.532,0c-0.13,0.166-0.323,0.269-0.532,0.355c0.443,0.148-0.204,1.388,0.532,1.243
		c0.133,0.606-0.721,0.226-0.532,0.887c0.233,0.213,0.278,0.07,0.532,0c0.098,0.395-0.339,0.254-0.355,0.534
		c0.211,0.694-0.357,1.146,0,1.774c0.596-0.055,0.709-0.593,0.888-1.065c-0.209-0.723,0.278-1.582,0-2.13
		c-0.038-0.074-0.503-0.072-0.533-0.177c-0.029-0.104,0.319-0.597,0.355,0c-0.046-0.775,0.279-1.483-0.178-2.13
		c0.675,0.966,0.192-1.056-0.354-0.355c-0.277-0.438,0.603-0.522,0.532-0.178c-0.1-0.444,0.595-2.565-0.178-3.551
		c0.106,0.047,0.791-0.404,0-0.532c0.729-1.466,0.367-3.146,0.71-5.148c-0.362,0.112-0.049,0.896-0.71,0.71
		c0.369-1.757,0.708-3.015,0.178-4.616c0.45-1.192,0.184-1.121,0-2.487c0.378,0.975,0.583-0.777,0-0.177
		c0.61-1.921,0.193-2.556,0.533-4.972c-0.144,0.034-0.177,0.179-0.355,0.178c0.419-1.592,0.521-4.24,0.177-6.037
		c0.684-0.871,0.316-1.778,0.71-3.018c-0.158,0.138-0.401,0.191-0.71,0.176c0.822-1.062-0.047-2.514,0.533-3.55
		c-0.765-0.562,0.474-1.102-0.355-1.598c0.353-0.076,0.562-1.194,0.355-1.242c-0.315-0.703,0.397-1.333-0.355-1.599
		c0.099-0.256,0.276-0.434,0.533-0.533c-0.053-0.361-0.355-0.473-0.533-0.71c0.473-1.117,0.6-2.036,0.178-3.195
		c0.353,0.296,0.225-0.016,0.71,0c-0.044-0.194-0.354-0.121-0.355-0.355c-0.519-0.286,0.283-0.915-0.178-1.064
		c-0.178-0.593,0.246-0.583,0.71-0.533c0.414,0,0.828,0,1.242,0c0.385-0.03,0.082,0.629,0.178,0.887
		c0.429-0.072,0.387,0.325,0.888,0.178c0.054-0.409-0.513-0.198-0.533-0.532c-0.028-0.498,0.502-0.58,0.71-0.355
		c0.34,0.02-0.209,0.595,0,1.065c-0.502-0.029,0.147,1.094-0.355,1.065c0.1,0.166,0.493,0.269,0.177,0.355
		c0.002,0.417,0.484-0.065,0.355-0.355c0.62-0.663-0.233-1.717,0.71-1.953c-0.497-0.687-0.729-1.638-1.065-2.486
		c-0.37-0.805,0.149,1.134,0.178,1.598c-0.123,0.443-0.474-0.33-0.888-0.177c-0.659,0.007-1.03-0.273-1.42-0.534
		c-0.107-0.305-0.842,0.014-0.888-0.354c0.287,0.05,0.306-0.168,0.533-0.177c-0.03-0.209-0.325-0.15-0.533-0.178
		c-0.245-0.562,0.439-1.072,0-1.243c-0.035-0.508-0.022-0.968,0.533-0.888c-0.664-0.76-0.666-1.759,0-2.485
		c-0.81-1.834,0.826-3.266,0.354-5.148c0.021-0.511-0.097-1.163,0.177-1.42c0.118,0,0.237,0,0.355,0
		c-0.111-1.285,0.157-2.413-0.532-2.309c0-0.414,0-0.828,0-1.243c0.077-0.397,0.875-0.071,1.242-0.178
		c-0.733-1.048-2.42-1.061-4.083-0.71c0,0.296,0,0.593,0,0.888c-0.294,0.191-0.294,1.584,0,1.776
		c0.616-0.143,0.682,0.264,1.243,0.177c0,0.533,0,1.064,0,1.598c-0.881,0.875-0.02,2.781-0.178,4.084
		c-0.035,2.72-0.085,5.16,0,7.279c-0.527,0.289-1.784,0.645-1.953-0.178c-0.069-0.012-0.124-0.008-0.174,0
		c0.002,0,0.002-0.001,0.003-0.001c-2.267-0.005-5.892,0.043-8.352,0.001c-0.474,0-0.947,0-1.42,0c-0.828,0-1.657,0-2.485,0
		c-0.474,0-0.947,0-1.42,0c-1.434-0.334-4.159-0.151-5.326-0.178c0.072-0.342,0.688-0.14,0.532-0.71
		c-0.286-0.049-0.306,0.169-0.532,0.178c-0.219-0.574,0.575-0.136,0.355-0.71c-0.233,0.213-0.279,0.069-0.533,0
		c0.073-0.184,0.689-0.622,0.533,0c0.403-0.227-0.109-1.627-0.533-1.064c-0.132-0.547,0.488-0.342,0.356-0.889
		c-0.173,0.005-0.138,0.218-0.178,0.355c-0.353-0.002-0.226-0.484-0.71-0.355c0.381,0.623,0.253,1.886,0.355,3.196
		c-1.303,0-2.604,0-3.907,0c-0.887,0-1.775,0-2.663,0c-1.065,0-2.131,0-3.196,0c-0.584-0.184-0.859-0.68-0.71-1.598
		c0.144-0.033,0.177-0.178,0.355-0.177c-0.13-0.759-1.285-0.49-2.13-0.532c0.624-2.046,2.906-2.897,4.438-4.084
		c1.762-1.364,3.626-2.931,4.971-4.616c0.517-0.667,1.109-1.258,1.776-1.775c1.352-2.086,4.366-5.412,4.616-9.765
		c0-0.83,0-1.658,0-2.486c0.481-0.464,0.242-0.544,0-1.065c0.226-1.063,0.226-2.312,0-3.374
		c-2.388-8.797-9.233-13.137-15.801-17.754c0-0.296,0-0.592,0-0.887c-0.719-0.051-1.234-0.305-1.954-0.355
		c-1.061-0.198-2.718,0.451-4.083,0.532c-0.636,0.015-1.026,0.276-1.598,0.355C5.396,260.522,3.755,260.522,3.333,260.228z
		 M47.186,334.085c-0.26,0.332-0.006,1.177-0.355,1.419C46.76,335.382,46.595,334.09,47.186,334.085z M19.134,314.555
		c0.69,0.24,1.114-0.284,1.242,0.355C19.875,314.881,19.159,315.063,19.134,314.555z M22.685,314.378
		c-0.356,0.446,0.838-0.272,0.889,0.355c-0.717,0.005-1.356,0.353-1.776-0.178C22.211,314.708,22.562,313.936,22.685,314.378z
		 M18.247,314.023c-0.011-0.108-0.027-0.21-0.178-0.178c0,0.119,0,0.237,0,0.356c-0.587-0.521-1.546-0.044-2.13-0.356
		C16.315,313.557,18.697,313.506,18.247,314.023z M15.228,583.711c0.339,0.075,0.764,0.063,0.71,0.532
		C15.607,584.592,15.083,584.346,15.228,583.711z M11.145,598.269c0.01,0.227,0.227,0.246,0.177,0.532
		c-0.529,0.062-1.081,0.104-1.243,0.533c-0.096,0.629,0.628,0.437,0.533,1.065c-0.573,0.256-1.489,0.168-2.308,0.177
		c-0.365-0.465-0.557-1.1-0.533-1.953C8.778,598.388,10.027,598.394,11.145,598.269z M12.387,593.475
		c-0.974,1.202,0.569,2.193,1.244,2.842c-1.285,0.589-3.849,1.661-5.326,0.887c0.401-0.787,0.939,0.014,1.597,0
		c-0.098-1.586,0.292-2.182-0.532-3.373C10.198,593.648,12.015,593.523,12.387,593.475z M9.015,590.103
		c0.627,0.282,0.971-0.182,1.42,0.354c-0.255,0.786-0.1,1.295,0,2.131c-0.229,0.244-0.771,0.176-1.242,0.179
		C8.866,591.835,8.531,591.05,9.015,590.103z M9.192,585.841c0.532,1.243,2.823,0.728,4.438,0.887
		c0.157,0.552,0.593,0.828,0.71,1.421c-1.462,0.476-3.337,1.338-4.972,1.065C9.075,588.321,8.224,586.387,9.192,585.841z
		 M16.116,567.554c0.066,0.761,0.415,1.242,0.533,1.953c-2.542-0.116-4.962,0.835-7.279,0.354c1.052-0.01,1.021-1.136,0.532-1.774
		C12.135,568.072,14.386,568.073,16.116,567.554z M13.809,544.651c0,0.177,0,0.355,0,0.532c-0.441,0.027-0.861,0.035-0.889-0.355
		C13.126,544.68,13.396,544.594,13.809,544.651z M20.376,542.343c0.42,0.151-0.488,0.438-0.177,1.065
		c0.527,0.282,1.034,0.781,1.776,0.354c0,0.177,0,0.355,0,0.533c-2.003,0.317-4.517,1.03-6.747,0.532
		c0.233-1.104-1.352-1.652-2.13-2.309C15.147,542.436,17.745,542.322,20.376,542.343z M8.836,537.371
		c0.732,1.052,0.762,2.525,0,3.552C7.818,540.662,8.022,537.845,8.836,537.371z M18.779,532.222c0.727,0.812,2.38,0.698,2.841,1.776
		c0,0.119,0,0.238,0,0.355c-4.13,0.724-8.687,1.019-13.315,1.243c-0.357-0.531-0.101-1.674-0.178-2.485
		C10.627,531.765,15.269,532.559,18.779,532.222z M23.041,526.542c0.202,1.008,1.022,1.209,2.13,0.887
		c0.489,0.423-0.062,1.228,0.71,1.598c-0.448,0.261-0.793,0.627-1.42,0.71c-0.873-1.294-2.462-1.646-4.616-1.243
		c-0.529,0.36-0.455,1.321-0.71,1.954c-2.705,0.433-5.941,0.317-8.522,0.533c-0.93,0.077-2.113,0.75-2.485-0.356
		c0.694-0.193,1.182-0.592,1.42-1.242c-0.135-0.694-0.649-1.009-0.888-1.599C12.937,526.855,18.765,527.474,23.041,526.542z
		 M23.041,522.28c0.084,0.678-0.823,0.362-0.533,1.244c0.494,0.417,1.331-0.426,1.598,0.354c-0.395,0.137-0.963,0.103-1.065,0.532
		c0.138,0.381,0.431,0.993,0.177,1.244c-3.87,0.201-8.809,1.067-12.427,0.355c0.558,0.085,0.725-0.222,0.888-0.533
		c-1.048-0.964-3.508-0.516-3.729-2.307C12.421,522.516,18.715,521.908,23.041,522.28z M8.482,514.113
		c0.775-0.348,0.667-1.582,1.065-2.308c3.745-0.279,7.509-0.54,11.184-0.888c0.037,1.144-0.516,1.98-0.355,3.374
		c-0.645-0.125-1.645-0.752-2.13,0c-0.212,0.766,0.581,0.995,0.178,1.42c-0.988-0.013-2.147,0.434-3.374,0.532
		c-2.684,0.218-5.827-0.62-7.457,0.712c0.257,1.075,1.273,0.357,1.953,0.354c2.473-0.011,6.007-0.219,8.521-0.354
		c0.206,1.286,1.432,1.415,1.421,2.484c1.104-0.02,1.799-0.448,2.485-0.887c1.292,0.592,0.022,1.559,0.177,2.484
		c-5.222-0.07-10.363,0.879-15.091,0.711c-0.156-0.924,1.401-0.138,1.065-1.243c-0.046-0.37-0.78-0.048-0.888-0.355
		c-0.082-2.044-0.323-4.873,0-7.278C8.595,512.736,7.833,513.705,8.482,514.113z M20.376,506.125c0.473,0.71,1.477,0.89,1.599,1.952
		c-1.596-0.683-2.333,0.693-2.131,1.775c-3.129,0.835-7.43,0.5-10.83,1.065c-0.604-0.15,0.112-0.915-0.71-1.065
		c-0.495,0.406,0.408,1.107-0.533,1.065c-0.237,0-0.474,0-0.71,0c-0.293-1.06,0.11-2.648,0.355-3.728
		C11.498,506.703,16.305,506.03,20.376,506.125z M21.62,503.283c-1.27,0.253-0.32,1.021-0.889,1.599
		c-4.453,0.279-8.634,0.834-13.137,1.065c-0.106-0.935,0.131-1.526,0.177-2.308c1.894,0,3.788,0,5.682,0c0-0.355,0-0.71,0-1.065
		C16.219,502.86,20.429,500.795,21.62,503.283z M23.217,502.218c-0.428-0.072-0.386,0.324-0.887,0.178
		C22.067,501.835,23.349,501.542,23.217,502.218z M20.199,494.761c-0.14-0.683,0.85-0.683,0.711,0
		C20.673,494.761,20.437,494.761,20.199,494.761z M19.134,496.182c0.395,0.5-0.797,1.832,0.356,2.13
		c0.375-0.274,0.79-0.511,1.241-0.71c0.031,0.502-0.152,1.217,0.355,1.242c0.863,0.153,0.912-0.508,1.776-0.354
		c0.237,1.579-1.282,0.363-1.953,0.888c-0.289,0.571-0.085,0.962,0,1.598c-1.282,0.02-2.311,0.293-3.729,0.177
		c0-1.48,0-2.959,0-4.438c-0.415,0-0.829,0-1.243,0C16.916,496.448,18.089,496.378,19.134,496.182z M18.602,494.051
		c-0.538,0.363,0.028,0.725-0.355,1.243c-1.364-0.18-1.916,0.452-3.196,0.354c0-0.532,0-1.065,0-1.598
		C16.235,494.051,17.418,494.051,18.602,494.051z M22.33,310.118c-0.178,0-0.355,0-0.533,0c-0.075-0.371,0.122-0.47,0.178-0.71
		c0.059,0,0.119,0,0.177,0C22.291,309.564,22.343,309.809,22.33,310.118z M34.226,310.118c0.043-0.982,1.208-0.001,1.598-0.178
		c0.059,0,0.118,0,0.177,0C36.1,310.567,34.886,309.869,34.226,310.118z M31.917,310.295c-0.251-0.518-1.763,0.224-1.775-0.533
		C31.054,309.872,32.188,309.593,31.917,310.295z M22.508,310.295c0-0.177,0-0.355,0-0.533c0.521,0.264,0.659-0.201,0.887,0.355
		C22.894,309.971,22.935,310.367,22.508,310.295z M13.809,309.23c0.646,0.199,0.788,1.178,1.597,0.71c0,0.06,0,0.119,0,0.178
		c-0.113,0.171-0.851,0.178-1.597,0.177c-0.178,0-0.355,0-0.533,0C13.082,309.569,13.465,309.419,13.809,309.23z M30.319,308.875
		c-0.335-0.02-0.124-0.586-0.532-0.532c0.452-0.521,1.19,0.169,1.598-0.177c0.276,0.335,0.692-0.255,1.065,0.177
		c0.016,0.251,0.029,0.502-0.177,0.532c-0.108-0.306-0.842,0.014-0.888-0.354c-0.258,0.078,0.018,0.155,0,0.354
		C30.721,308.858,30.878,308.676,30.319,308.875z M35.291,308.165c0.355,0,0.71,0,1.065,0c0,0.236,0,0.473,0,0.709
		c-0.119,0-0.237,0-0.355,0C35.89,308.513,35.104,308.825,35.291,308.165z M27.302,308.875c-0.178,0-0.356,0-0.533,0
		c-0.495-1.003,0.826-0.989,1.064-0.178c-0.404,0.245-0.667-0.457-0.709,0C27.232,308.707,27.334,308.723,27.302,308.875z
		 M43.103,308.875c0.098-0.395-0.339-0.253-0.355-0.532c0.441-0.019,0.549-0.333,0.888,0
		C43.667,308.729,43.49,308.907,43.103,308.875z M41.327,308.165c0.629,0.14,1.282,0.256,1.597,0.709
		c-0.252-0.015-0.502-0.03-0.532,0.178c-0.06,0-0.118,0-0.178,0c0.029-0.207-0.039-0.317-0.177-0.356
		c0.033,0.151-0.069,0.168-0.178,0.178c0.03-0.207-0.039-0.315-0.177-0.354c0.028,0.205-0.04,0.315-0.178,0.354
		C41.367,308.717,41.313,308.473,41.327,308.165z M37.244,308.696c0.458-0.014,0.186-0.76,0.887-0.531
		c0.071,0.305-0.263,0.454,0,0.531c0.073-0.223,0.229-0.362,0.533-0.354C38.667,309.216,37.425,308.783,37.244,308.696z
		 M34.403,308.875c-0.236-0.179-0.66-0.168-0.71-0.532c1.137-0.248,1.235-0.248,1.776,0.532
		C34.369,309.004,35.202,308.227,34.403,308.875z M18.424,308.521c-0.044-0.193-0.354-0.122-0.355-0.355
		c0.126-0.341,1.014,0.033,1.065,0.355c-0.57,0.455-0.679,0.017-1.775,0.354c-0.227-0.04-0.234-0.531,0-0.532
		c-0.24-0.507-0.454,0.473-0.888,0.354c0-0.059,0-0.117,0-0.176C16.722,307.462,17.856,308.35,18.424,308.521z M23.928,307.987
		c0.132,0.546-0.486,0.34-0.354,0.887c-0.734-0.14-0.529-0.499-0.711,0c-0.428-0.354-0.86,0.31-1.243-0.178
		c-0.198-0.686-0.697,0.515-0.355-0.709c0.177,0,0.355,0,0.532,0C22.465,308.434,22.907,308.037,23.928,307.987z M28.721,281
		c-0.009-0.228-0.228-0.247-0.177-0.534c-0.864-4.406-4.875-6.602-6.747-9.41c2.003-1.926,3.493,1.145,4.439,2.486
		c1.184,1.679,2.253,3.85,2.485,5.858C29.015,279.537,29.015,280.865,28.721,281z M21.087,290.587c-0.608,0.582-0.387-1.521,0-1.598
		c1.025-3.135-0.064-5.773,0.533-8.699c-0.118-1.303-0.249-2.593-0.178-4.084c-0.354-1.29,0.133-2.357,0-3.907
		c2.822,2.377,7.286,5.604,7.102,9.943C28.4,285.663,23.495,289.061,21.087,290.587z M21.265,295.204
		c-0.28-0.371-0.124-1.179-0.355-1.598c-0.265-0.392-0.405-2.174,0.177-2.309c2.765-1.496,5.191-3.332,6.747-6.036
		c0.271-0.44,0.365-1.057,0.888-1.243c-0.105,0.368,0.22,1.167-0.177,1.243c-0.777,3.269-2.219,6.746-4.438,7.989
		C24.222,294.291,22.608,296.115,21.265,295.204z M15.051,294.493c1.376-0.517,2.508-1.278,3.906-1.775
		c1.321,4.479-1.11,7.546-4.084,9.232C15.196,299.524,15.344,297.025,15.051,294.493z M15.583,268.395
		c1.317,0.341,2.036,1.279,2.664,2.308c0.128,0.403,0.158,0.907,0.355,1.242c0.736,0.864-0.568,1.201-1.065,1.421
		c-0.825,0.655-0.613,2.347-0.709,3.729c-0.119,2.545,0.235,5.562-0.178,7.812c0,0.118,0,0.236,0,0.355
		c0.294,0.191,0.294,1.584,0,1.775c0,0.296,0,0.592,0,0.888c0.407,0.304,0.065,1.355,0.178,1.954
		c-0.235,1.121,0.856,0.917,1.065,1.598c-0.734,0.922-1.607,1.706-2.841,2.13c-0.482-0.958,0.033-2.291,0-3.375
		c-0.989-0.076-1.3-0.83-2.486-0.709c-0.302-1.013-0.235-1.53-0.178-2.664c0.759-0.247,1.8-0.211,2.486-0.532
		c-0.055-0.241-0.252-0.339-0.177-0.711c-0.405-0.246-0.067-1.235-0.178-1.775c0-0.296,0-0.591,0-0.888
		c-0.81,0.101-1.106-0.313-1.953-0.177c0.04-1.855,0.434-3.354,0.355-5.325c0.621-0.387,2.064,0.051,2.663-0.355
		C15.583,274.194,15.583,271.294,15.583,268.395z M13.809,267.329c0.038,0.139,0.148,0.207,0.354,0.178
		c0.526,0.065,0.876,0.308,1.065,0.71c-0.481-0.109-1.408,0.226-1.597-0.177C13.66,267.774,13.567,267.384,13.809,267.329z
		 M13.453,262.181c1.38,0.455,2.094,1.575,3.374,2.131c1.269,1.157,2.649,2.203,3.195,4.083c-0.027,0.564-0.402,0.781-0.355,1.42
		c-2.047-1.146-4.18-2.21-6.036-3.55c0-0.118,0-0.237,0-0.356c-0.411-0.712-0.062-2.186-0.178-3.195
		C13.453,262.536,13.453,262.358,13.453,262.181z"/>
	<g>
		<path fill-rule="evenodd" fill="#E4BA27" d="M123.023,12.929c-6.266,0-12.275,0.089-18.297-0.864
			c-2.386-0.377-4.063-1.239-5.696-1.899c-1.899-0.114-3.798-0.23-5.697-0.345c-0.288-0.288-0.575-0.575-0.863-0.863h-8.975
			c-2.247-0.9-6.573-0.518-9.668-0.518H51.388V6.023c0.921-0.058,1.841-0.115,2.761-0.173c0.606-0.638,0.408-2.923,0.346-4.143
			c-6.674,0-20.024,0-20.024,0l0.111-4.223C23.084-2.183,11.464-1.557-0.052-1.768v263.171c4.851,0.041,9.286,0.078,13.119-0.863
			c3.504-0.861,6.03-3.233,10.875-3.28c0.289-1.898,0.576-3.798,0.863-5.696c6.334,0.086,23.07,1.212,25.547-2.071
			c0.93-1.507-0.306-5.114-0.345-7.422c-2.877-0.403-5.755-0.806-8.631-1.208c-2.302-0.058-4.604-0.115-6.905-0.172v-2.072
			c0.461-0.058,0.921-0.115,1.381-0.172c0.11-1.931,0.094-3.608-1.036-4.316c-2.104-1.588-7.03-1.571-10.53-1.553v-3.97
			c3.137-0.014,5.199-0.672,7.595-1.381c0.062-1.249,0.277-3.657-0.345-4.316c-2.129-0.345-4.259-0.69-6.388-1.035v-1.036
			c0.893-0.5,0.58-3.302,0.519-4.661c-1.036-0.057-2.072-0.115-3.107-0.172v-1.208c0.173-0.115,0.346-0.23,0.518-0.345
			c0.81,0.023,1.181,0.032,1.554-0.346c0.057-0.69,0.115-1.381,0.172-2.072c0.748-0.056,1.496-0.114,2.244-0.172v-1.208
			c-1.729-0.149-1.207-1.094-2.244-1.553c-0.99-0.439-2.083,0.281-2.762-0.346c-0.871-0.922-0.917-3.023-0.863-4.833
			c7.249-0.172,14.5-0.345,21.75-0.518c1.479-2.645,8.369-0.925,11.393-2.071c-3.51-0.288-7.02-0.575-10.53-0.862
			c-0.115-0.461-0.229-0.921-0.345-1.382c-6.386-0.057-12.774-0.115-19.161-0.172v-1.726h7.595v-3.107
			c-1.126-0.29-2.706-1.392-3.107-2.417c-2.934-0.115-5.869-0.23-8.803-0.345v-1.554c1.974,0.013,2.658-0.526,4.315-1.036
			c-0.038-1.995-0.778-3.144-0.345-4.833c4.518,0.034,8.954-0.815,12.602-1.208c-0.058-0.115-0.115-0.23-0.173-0.345
			c-1.813-0.435-3.73-0.714-5.869-1.036c-2.358-0.057-4.718-0.115-7.077-0.173c-1.121-0.537-1.081-1.41-3.107-1.553v-0.69
			c1.572,0.045,1.84-0.252,1.727-1.899c0.92-0.057,1.841-0.115,2.762-0.172v-1.726c0.748-0.058,1.496-0.116,2.244-0.173v-1.036
			c0.955,0.024,1.533-0.079,2.071-0.345v-1.036c-0.115-0.115-0.23-0.23-0.346-0.346c-2.819-0.058-5.639-0.114-8.458-0.172
			c-0.058-0.978-0.115-1.956-0.173-2.935c-0.805-0.057-1.611-0.115-2.416-0.172c-0.058-0.576-0.115-1.15-0.172-1.726
			c-1.151-0.058-2.302-0.115-3.453-0.172v-0.173c0.173-0.69,0.345-1.381,0.518-2.071c1.496-0.058,2.993-0.116,4.489-0.173
			c0.058-1.551,0.691-4.569,0-5.351c-1.554-0.172-3.108-0.345-4.662-0.518c-0.115-0.863-0.229-1.727-0.345-2.589
			c1.881-0.643,2.578-1.554,5.351-1.727c-0.172-1.438-0.344-2.877-0.518-4.315c-1.438-0.23-2.877-0.46-4.315-0.69
			c-0.173-0.633-0.345-1.266-0.518-1.898h3.107v-0.864c-0.748-0.115-1.496-0.23-2.244-0.345v-1.898
			c2.501,0.041,14.668,0.575,15.708-0.346c0.115-0.69,0.229-1.381,0.345-2.071c1.36,0.065,3.583,0.297,4.143-0.518
			c0.058-0.748,0.115-1.496,0.173-2.244h-1.726v-1.899h-2.59v-0.863h-1.014c0.451-0.622,0.902-1.283,1.435-1.779
			c0.822-1.09,1.82-1.992,2.75-2.964c1.913-1.891,3.866-3.737,5.863-5.538c0.076-0.105,0.34-0.006,0.415-0.112
			c0.111-0.18,0.276-0.299,0.363-0.504c0.437,0.08,0.423-0.327,0.882-0.223c0.146-0.047,0.143-0.256,0.311-0.28
			c0.18,0.112,0.443,0.245,0.623,0.056c0.011-0.043,0.001-0.111,0.051-0.112c0.111-0.583-0.566-0.496-0.778-0.279
			c-0.15-0.278-0.34-0.202-0.623-0.279c-0.331-0.296-0.35-0.929-0.467-1.455c0.084-0.095,0.217-0.139,0.415-0.111
			c0.208,0.039,0.128-0.235,0.312-0.224c0.155-0.062,0.405,0.233,0.623,0c-0.043-0.158,0.073-0.145,0.052-0.28
			c-0.09-0.396-0.537-0.256-0.778-0.112c-0.047-0.21-0.288-0.211-0.519-0.223c-0.124-0.184-0.295-0.317-0.363-0.56
			c-0.096-0.57-0.27-1.344-0.26-1.845c0.231-0.106,0.489-0.182,0.675-0.336c0.182,0.138,0.576,0.177,0.623-0.112
			c0-0.448-0.464-0.327-0.727-0.223c-0.1-0.173-0.277-0.261-0.571-0.225c-0.205-0.365-0.499-0.84-0.363-1.398
			c0.376,0.089,0.46-0.138,0.675-0.224c0.207,0.164,0.61,0.169,0.57-0.224c-0.053-0.269-0.469-0.152-0.674-0.112
			c-0.108-0.144-0.294-0.205-0.57-0.168c0.074-0.286-0.159-0.239-0.208-0.391c-1.288-3.181-2.4-6.549-3.425-10.012
			c-0.506-1.748-1.027-3.479-1.452-5.313c-0.526-1.728-0.832-3.691-1.35-5.427c-0.107-1.122-0.45-1.645-0.519-2.796
			c-0.138-0.42-0.337-0.911-0.259-1.397c-0.137-0.095-0.132-0.343-0.208-0.504v-0.392c-0.229-0.704-0.396-1.474-0.466-2.349
			c-0.274-1.016-0.431-2.09-0.624-3.132c-0.073-0.395-0.166-0.808-0.207-1.175c-0.052-0.448-0.155-1.03-0.236-1.549h17.629v-2.071
			c1.496-0.46,2.992-0.921,4.489-1.381c0.057-0.748,0.114-1.497,0.171-2.244c0.583-0.41,0.559-0.585,1.554-0.69v-2.071h-2.589
			v-2.244h-2.59v-1.898H36.715v-4.143h6.215V61.95h-3.107v-1.552h-3.97v-4.315h-4.488v-2.934h-2.244v-0.519h20.369v-1.381
			c2.777-2.833,7.573-2.72,12.946-2.589v-1.036h-8.458v-0.863c-1.553-0.058-3.107-0.115-4.66-0.172
			c-1.497-0.691-2.993-1.381-4.488-2.071c-2.129-0.058-4.258-0.116-6.387-0.173c-0.115-0.058-0.23-0.115-0.345-0.173v-2.417
			c-1.146-0.302-2.86-0.38-4.487-0.345v-2.761h14.672v-3.28c2.646-0.057,5.294-0.115,7.94-0.172v-9.321H43.448v-1.9h2.589v-6.041
			c8.457-0.058,16.917-0.116,25.374-0.173c3.973,0,9.242,0.544,12.601-0.345c3.222-0.058,6.445-0.115,9.667-0.172
			c2.877-0.082,6.256-1.224,6.256-1.224l4.78-1.605c0,0,22.204-1.368,32.118-1.314C134.014,12.986,125.843,13.043,123.023,12.929z
			 M24.903,98.183h0.104v0.336C24.819,98.571,24.934,98.298,24.903,98.183z M25.266,123.912c-0.174,0.058-0.08-0.174-0.103-0.28
			c-0.202-0.132-0.473-0.236-0.727-0.335c-0.25-0.097-0.59-0.103-0.674-0.391c0.621,0.192,0.94,0.392,1.556,0.615
			C25.287,123.635,25.382,123.888,25.266,123.912z M25.526,131.295c-0.183,0.061-0.139-0.343,0.052-0.224
			C25.573,131.16,25.603,131.285,25.526,131.295z M25.578,132.357v0.224c-0.157,0.057-0.092-0.125-0.104-0.224H25.578z
			 M25.526,129.672v0.224C25.326,129.94,25.326,129.628,25.526,129.672z M24.28,128.834c-0.148-0.03,0.084-0.083,0.104-0.113
			c0.328-0.148,0.726-0.223,0.985-0.447c-0.299-0.237-0.729-0.333-1.141-0.447c-0.004-0.159,0.266-0.104,0.258,0.056
			c0.111-0.103,0.331,0.015,0.416,0.111c0.277,0.057,0.62,0.041,0.623,0.392C25.092,128.516,24.688,128.677,24.28,128.834z
			 M24.487,129.449c-0.037-0.053-0.094-0.085-0.155-0.112c0.268-0.083,0.643,0.201,0.933,0.28c0.1,0.039-0.055,0.087-0.052,0
			C24.902,129.636,24.8,129.43,24.487,129.449z M25.163,129.729c-0.084,0.097-0.234,0.121-0.416,0.112
			C24.866,129.681,24.948,129.807,25.163,129.729z M24.436,129.84c-0.167-0.064,0.14-0.063,0.208-0.056
			C24.812,129.849,24.505,129.848,24.436,129.84z M24.436,129.001c0.08,0.03,0.003,0.059-0.051,0.056
			C24.305,129.028,24.381,128.999,24.436,129.001z M24.696,129.001c0.095,0.044-0.032,0.06-0.104,0.056
			C24.497,129.015,24.622,128.998,24.696,129.001z M25.163,129.057h-0.26c-0.149-0.093,0.266-0.044,0.363-0.056
			C25.361,129.045,25.235,129.062,25.163,129.057z M24.436,128.219C24.641,128.284,24.231,128.284,24.436,128.219L24.436,128.219z
			 M25.007,128.274c0.109,0.138-0.186-0.042-0.311,0C24.562,128.163,24.952,128.239,25.007,128.274z M25.214,128.219
			c0.08,0.029,0.003,0.059-0.051,0.056C25.083,128.245,25.159,128.216,25.214,128.219z M23.554,127.938
			c-0.165-0.046,0.092-0.074,0.155-0.055C23.875,127.93,23.617,127.957,23.554,127.938z M23.606,128.442
			C23.811,128.507,23.4,128.507,23.606,128.442L23.606,128.442z M24.125,118.878c-0.23-0.199-0.67-0.173-0.778-0.504
			c0.313,0.054,0.5,0.245,0.831,0.28c0.115,0.249,0.547,0.156,0.622,0.448c0.109-0.123,0.148,0.027,0.312,0v0.447
			c-0.668,0.062-0.964,0.527-1.608,0.615c0.347-0.391,1.002-0.449,1.4-0.784c-0.005-0.05-0.035-0.075-0.053-0.111
			c-0.188,0.161-1.003,0.149-1.399,0.056c0.363-0.13,0.949-0.021,1.399-0.057C24.723,119.015,24.337,119.04,24.125,118.878z
			 M23.762,126.205c-0.02-0.227,0.323-0.062,0.467-0.112h0.57c0.072,0.034,0.008,0.215,0.104,0.224
			C24.651,126.362,24.027,126.162,23.762,126.205z M23.813,125.925C24.088,126.073,23.616,125.819,23.813,125.925L23.813,125.925z
			 M23.917,124.639c-0.054-0.116,0.525-0.028,0.727-0.056c0.094,0.043-0.031,0.06-0.104,0.056H23.917z M24.021,126.596
			C24.226,126.662,23.816,126.662,24.021,126.596L24.021,126.596z M25.214,126.764c-0.332,0.258-0.783,0.385-1.244,0.503
			C24.333,127.044,24.765,126.895,25.214,126.764z M24.333,127.436h0.933c0.08,0.029,0.004,0.058-0.052,0.056h-1.089
			C23.957,127.427,24.264,127.428,24.333,127.436z M25.422,126.764c-0.163,0.064-0.125-0.088-0.208-0.112h-1.089
			c0.243-0.13,0.709-0.019,1.039-0.056c0.159,0.042,0.062-0.193,0.259-0.112C25.468,126.614,25.468,126.634,25.422,126.764z
			 M25.37,124.527h-1.557c0.125-0.086,0.222-0.117-0.052-0.111c0.522-0.144,0.977-0.023,1.608-0.057V124.527z M23.813,123.688
			c0.329-0.131,0.882-0.02,1.297-0.057v0.28c-0.21,0.035-0.306,0.193-0.571,0.168c0.066-0.228,0.438-0.125,0.519-0.336
			C24.711,123.67,24.116,123.749,23.813,123.688z M24.487,124.08c-0.093,0.142-0.273,0.19-0.467,0.224
			C24.16,124.211,24.295,124.113,24.487,124.08z M24.021,122.625h0.986c0.08,0.03,0.003,0.059-0.052,0.056h-1.141
			C23.646,122.617,23.952,122.618,24.021,122.625z M25.163,122.737c0.009-0.048-0.021-0.053-0.052-0.056
			c0.008-0.065,0.095-0.047,0.155-0.056C25.285,122.72,25.226,122.731,25.163,122.737z M25.214,121.786
			c-0.128,0.007-0.16,0.105-0.259,0c0.033,0.204-0.247,0.07-0.259,0.224c-0.372,0.084-0.621,0.301-0.986,0.392
			c0.075-0.237,0.376-0.229,0.571-0.336c0.169-0.117,0.377-0.191,0.571-0.28h0.104c0.01-0.045,0.052-0.055,0.052-0.111
			c-0.089-0.065-0.33-0.07-0.52,0c-0.162-0.011-0.38,0.038-0.467-0.056c-0.085-0.006-0.47,0.03-0.311-0.056h1.297
			c-0.006-0.199-0.294-0.093-0.363-0.224c-0.138-0.039-0.265-0.088-0.364-0.168c-0.255-0.116-0.604-0.131-0.726-0.391
			c0.635,0.117,1.048,0.473,1.66,0.615V121.786z M24.799,120.5c-0.442,0.021-1.03,0.1-1.245,0c0.433-0.13,1.09-0.018,1.609-0.056
			C25.145,120.65,24.909,120.495,24.799,120.5z M25.111,103.161C25.316,103.226,24.906,103.226,25.111,103.161L25.111,103.161z
			 M25.059,118.039c-0.033,0.198-0.291-0.017-0.519,0.055c-0.458-0.059-0.912,0.102-1.245,0
			C23.779,117.964,24.487,118.076,25.059,118.039z M23.087,123.52h0.259C23.426,123.692,23.008,123.692,23.087,123.52z
			 M23.19,123.744C23.396,123.809,22.985,123.809,23.19,123.744L23.19,123.744z M22.775,119.885c-0.07-0.017-0.043-0.14-0.051-0.224
			c0.06,0.047,0.139,0.074,0.259,0.056C23.006,119.871,22.79,119.769,22.775,119.885z M22.879,120.388v0.111h-0.104v-0.111H22.879z
			 M22.257,115.186c-0.024-0.119,0.074-0.106,0.155-0.111C22.39,115.144,22.346,115.19,22.257,115.186z M22.36,115.914
			c-0.05-0.002-0.04-0.069-0.051-0.113C22.36,115.804,22.349,115.87,22.36,115.914z M22.153,114.403
			c-0.047-0.238,0.125-0.239,0.311-0.223C22.482,114.385,22.275,114.349,22.153,114.403z M21.53,107.58
			c-0.112,0.009-0.023-0.198-0.051-0.279c0.091,0.032,0.305-0.068,0.312,0.056C21.84,107.578,21.5,107.379,21.53,107.58z
			 M21.738,108.419c0.076,0.163-0.231,0.163-0.156,0H21.738z M20.701,123.968v-0.279c0.065-0.137,0.436-0.236,0.363-0.336
			c0.077-0.12,0.126,0.04,0.259-0.056c0.102,0.356,0.018,0.828,0,1.119c-0.269-0.009-0.415-0.149-0.57-0.28
			c0.009-0.064,0.051-0.032,0.051,0C20.964,124.08,20.692,124.043,20.701,123.968z M20.129,121.73
			c-2.051,0.119-4.354,0.036-6.174-0.28c0.078-0.153,0.166-0.296,0.248-0.444c0.14-0.007,0.271-0.019,0.418-0.021v-0.656
			c1.206-0.101,2.412-0.201,3.641-0.276c0.205,0.072,0.105-0.185,0.312-0.112c0.56,0.092,1.023-0.034,1.66,0
			c0.365,0.166,0.676,0.391,0.778,0.839C20.847,121.236,20.479,121.474,20.129,121.73z M20.286,123.744
			c-0.101,0.301-0.264,0.537-0.571,0.615c-0.039-0.414,0.083-0.655,0.052-1.062C20.087,123.286,20.068,123.643,20.286,123.744z
			 M19.455,124.416c-0.315-0.015-0.347-0.334-0.519-0.504c0.139-0.261,0.284-0.515,0.57-0.615
			C19.488,123.68,19.434,123.895,19.455,124.416z M18.365,124.023c0.131,0.023-0.05,0.16-0.155,0.112
			c0.173,0.177-0.2,0.011-0.052,0.167c-0.045,0.083-0.167,0.081-0.259,0.112c-0.189-0.213,0.064-0.435-0.052-0.727
			c0.198,0.124-0.037-0.236,0.155-0.392c0.288,0.006,0.265,0.348,0.519,0.392c-0.007,0.158-0.07,0.253-0.208,0.391
			C18.358,124.09,18.362,124.058,18.365,124.023z M17.847,124.416C17.988,124.585,17.689,124.262,17.847,124.416L17.847,124.416z
			 M18.469,123.408c0.019-0.186,0.299-0.088,0.467-0.112C18.984,123.549,18.562,123.481,18.469,123.408z M18.469,124.247
			c0.01-0.064,0.052-0.03,0.052,0c0.195-0.163,0.405-0.043,0.467,0.224c-0.207-0.041-0.208-0.041-0.415,0
			c-0.023-0.05-0.046-0.1-0.104-0.112c0.01-0.063,0.052-0.031,0.052,0C18.593,124.34,18.525,124.26,18.469,124.247z M17.587,124.416
			c-0.279-0.035-0.299-0.349-0.466-0.504c0.073-0.293,0.349-0.369,0.466-0.615C17.8,123.579,17.623,124.006,17.587,124.416z
			 M16.653,124.136c-0.052,0.075-0.085,0.168-0.156,0.223c-0.213,0.027,0.04-0.14-0.104-0.223c-0.121,0.074-0.123,0.277-0.363,0.223
			c-0.082-0.254,0.099-0.562,0.052-0.951c0.109-0.074,0.153,0.028,0.311-0.056c0.111,0.123,0.162,0.311,0.311,0.391
			c-0.071,0.146-0.164,0.271-0.311,0.336C16.441,124.267,16.491,124.107,16.653,124.136z M17.121,124.303
			c-0.038,0.196-0.259-0.026-0.416,0.112C16.632,124.087,17.05,124.174,17.121,124.303z M16.757,123.353h0.26
			C17.096,123.523,16.678,123.523,16.757,123.353z M15.408,124.247c-0.292,0.086-0.74-0.102-1.297-0.056
			c0.064-0.181-0.168-0.043-0.104-0.224c-0.027-0.176,0.299-0.109,0.051-0.224c0.036-0.053,0.236,0.028,0.259-0.168
			c0.379,0.118,0.771-0.154,1.193-0.167C15.789,123.713,15.328,124.026,15.408,124.247z M16.083,118.207
			c-0.129,0.208-0.518,0.041-0.727,0c-0.174-0.018-0.852-0.013-0.816-0.255c0.39,0.105,1.087-0.142,1.595-0.081
			C16.199,118.042,15.957,118.156,16.083,118.207z M16.653,117.871c0.064-0.08,0.179-0.106,0.312-0.112
			c0.23,0.232,0.03,0.39,0.311,0.448c-0.043,0.065-0.068,0.149-0.052,0.279h-0.259v-0.167c0.083,0.016,0.089-0.053,0.156-0.056
			c-0.129-0.166-0.178,0.157-0.467,0.111C16.58,118.161,16.789,117.967,16.653,117.871z M18.106,118.43
			c-0.255,0.146-0.355-0.163-0.519-0.279c0.159-0.165,0.22-0.434,0.519-0.448C18.181,117.845,18.026,118.271,18.106,118.43z
			 M17.535,117.927c-0.035-0.188,0.088-0.205,0.208-0.224C17.778,117.891,17.656,117.908,17.535,117.927z M18.988,118.151
			c0.013,0.182-0.142,0.245-0.104,0.335c0.009,0.121-0.185,0.025-0.26,0.056c0.016-0.347-0.1,0.045-0.312-0.056
			c0.018-0.376,0.036-0.407,0.052-0.783c0.356-0.046,0.571,0.225,0.467,0.504C18.874,118.177,18.917,118.149,18.988,118.151z
			 M19.195,117.927c-0.037-0.153,0.104-0.113,0.104-0.224c0.281,0.111,0.205,0.042,0.519,0c0.053,0.175-0.032,0.469,0,0.783
			c-0.323,0.049-0.372-0.197-0.519-0.335c-0.013-0.164,0.097-0.193,0.156-0.28C19.391,117.712,19.304,118.114,19.195,117.927z
			 M20.025,117.703c0.343-0.055,0.602,0.225,0.467,0.504h0.156c-0.028,0.192-0.151,0.284-0.26,0.391
			c-0.07-0.017-0.043-0.139-0.052-0.224c-0.062,0.084-0.197,0.087-0.26,0.168C19.879,118.341,20.146,117.989,20.025,117.703z
			 M20.701,123.353c-0.057,0.204-0.43,0.234-0.415-0.056C20.435,123.303,20.625,123.267,20.701,123.353z M20.96,118.151
			c0.173-0.195,0.232-0.453,0.57-0.335c0.003,0.298-0.023,0.479-0.051,0.615C21.233,118.459,21.144,118.311,20.96,118.151z
			 M21.219,104.559c-0.01-0.122,0.042-0.178,0.156-0.168C21.384,104.514,21.333,104.57,21.219,104.559z M21.375,105.622
			c-0.061-0.01-0.043-0.102-0.052-0.168C21.384,105.463,21.367,105.557,21.375,105.622z M21.167,103.497
			c-0.115-0.007-0.022-0.237-0.051-0.336c0.11-0.074,0.153,0.028,0.312-0.056c0.04,0.05,0.055,0.126,0.051,0.223
			C21.321,103.326,21.137,103.296,21.167,103.497z M20.804,100.029v-0.112h0.208v0.112H20.804z M20.96,101.148
			C21.085,101.335,20.786,101.012,20.96,101.148L20.96,101.148z M20.753,98.687v0.167c-0.158-0.084,0.042-0.245,0-0.392h0.311v0.224
			H20.753z M21.219,102.21c0.024,0.174-0.13,0.2-0.208,0.111C21.025,102.224,21.101,102.194,21.219,102.21z M23.554,93.261
			c0.02,0.095-0.041,0.105-0.104,0.112c-0.34-0.288-0.749-0.498-1.09-0.783c-0.255-0.06-0.393-0.247-0.57-0.391
			c-0.209-0.092-0.44-0.161-0.467-0.448c0.525,0.049,0.764,0.408,1.141,0.615c0.369,0.2,0.679,0.463,1.039,0.672
			C23.507,93.126,23.477,93.251,23.554,93.261z M21.53,96.282c0.051,0.001,0.041,0.068,0.052,0.112
			C21.532,96.392,21.542,96.325,21.53,96.282z M21.634,97.176c-0.05-0.001-0.041-0.069-0.052-0.111
			C21.633,97.066,21.623,97.133,21.634,97.176z M21.427,93.597h2.127v0.167c-0.244,0.062-0.738-0.078-1.038,0.056
			C22.281,93.608,21.5,93.984,21.427,93.597z M23.346,90.912c0.004,0.172-0.192,0.074-0.415,0.111
			c-0.536-0.036-1.21,0.074-1.661-0.056c-0.054-0.264,0.25-0.158,0.364-0.167c0.431-0.037,1.088,0.027,1.556,0h0.156V90.912z
			 M23.242,88.675c-0.304,0.287-0.722,0.451-0.985,0.783c-0.388,0.123-0.731,0.591-1.038,0.615
			c-0.154-0.294,0.183-0.349,0.311-0.504c0.16-0.146,0.402-0.2,0.519-0.392c0.361-0.227,0.685-0.492,1.038-0.727
			c0.042-0.03,0.085-0.059,0.155-0.056C23.207,88.568,23.207,88.503,23.242,88.675z M21.582,106.461
			c0.077,0.164-0.232,0.164-0.155,0H21.582z M22.516,96.394c-0.342,0-0.767,0.125-0.882-0.168h1.972v0.168H22.516z M23.451,97.624
			c-0.076-0.024,0.004-0.05,0-0.112C23.516,97.526,23.502,97.623,23.451,97.624z M21.945,110.208
			c-0.022,0.069-0.066,0.116-0.155,0.112C21.766,110.201,21.863,110.214,21.945,110.208z M21.79,98.798
			c0.034-0.209,0.302-0.104,0.415-0.112c0.304-0.02,0.818,0.009,1.349,0h0.155v0.167C23.086,98.817,22.327,98.929,21.79,98.798z
			 M22.153,110.935v0.168c-0.091-0.032-0.305,0.068-0.311-0.055C21.793,110.845,22.046,110.97,22.153,110.935z M22.049,105.287
			C22.254,105.352,21.844,105.352,22.049,105.287L22.049,105.287z M22.101,111.942c-0.022,0.069-0.066,0.115-0.156,0.112
			C21.921,111.935,22.02,111.947,22.101,111.942z M22.049,112.781C22.254,112.846,21.844,112.846,22.049,112.781L22.049,112.781z
			 M22.257,113.564c-0.023,0.068-0.066,0.115-0.156,0.111C22.077,113.557,22.175,113.569,22.257,113.564z M22.464,116.528
			c0.076,0.025-0.005,0.05,0,0.112C22.398,116.626,22.412,116.529,22.464,116.528z M22.62,110.768
			c0.094,0.043-0.031,0.061-0.104,0.056C22.422,110.78,22.547,110.763,22.62,110.768z M22.672,109.481
			C22.877,109.546,22.467,109.546,22.672,109.481L22.672,109.481z M22.724,117.088c0.08,0.236-0.289-0.013-0.208,0.224
			c-0.07-0.017-0.043-0.14-0.052-0.224H22.724z M22.775,113.9C22.98,113.964,22.571,113.964,22.775,113.9L22.775,113.9z
			 M22.672,117.871c0.076,0.163-0.232,0.163-0.156,0H22.672z M22.724,119.213C22.929,119.278,22.519,119.278,22.724,119.213
			L22.724,119.213z M22.983,121.563C23.188,121.627,22.778,121.627,22.983,121.563L22.983,121.563z M23.19,122.01
			c0.008,0.163-0.21,0.169-0.259,0.112C22.939,122,23.062,122.002,23.19,122.01z M23.242,115.801
			c-0.079-0.029-0.002-0.058,0.052-0.056c0.516,0.303,1.082,0.549,1.66,0.783c-0.026,0.256,0.09,0.318,0,0.503
			c-0.626,0.107-1.148,0.627-1.66,0.671c0.141-0.259,0.494-0.288,0.726-0.447c0.229-0.146,0.521-0.221,0.727-0.392
			c-0.364-0.13-0.951-0.019-1.401-0.056c-0.129,0.007-0.087-0.069,0-0.056h0.208c0.287-0.125,0.993-0.014,1.193-0.056
			c-0.038-0.183-0.29-0.135-0.415-0.224c-0.088-0.111-0.298-0.089-0.363-0.224c-0.334-0.051-0.512-0.269-0.831-0.335
			C23.09,115.81,23.436,115.879,23.242,115.801z M23.087,122.681C23.292,122.746,22.882,122.746,23.087,122.681L23.087,122.681z
			 M24.955,98.687C25.16,98.751,24.75,98.751,24.955,98.687L24.955,98.687z M24.903,115.298v0.168c-0.521-0.018-1.275-0.003-1.816,0
			c-0.005-0.195,0.248-0.107,0.364-0.112c0.36-0.016,0.891,0.012,1.297,0C24.756,115.289,24.842,115.307,24.903,115.298z
			 M24.851,114.18c-0.698,0.18-1.086,0.693-1.816,0.839c0.101-0.338,0.515-0.339,0.778-0.503c0.108-0.107,0.248-0.181,0.416-0.225
			c0.053-0.166,0.348-0.071,0.363-0.279c-0.348-0.02-1.093,0.015-1.608,0c0.115-0.28,0.4-0.045,0.726-0.111h0.882
			c-0.167-0.305-0.571-0.355-0.882-0.504c-0.278-0.166-0.567-0.32-0.882-0.448c0.007-0.124,0.22-0.024,0.312-0.056
			c0.452,0.24,1.018,0.357,1.348,0.728c0.121-0.13,0.167,0.103,0.364,0.055V114.18z M23.709,113.732
			C23.915,113.797,23.504,113.797,23.709,113.732L23.709,113.732z M22.983,112.781C23.188,112.846,22.778,112.846,22.983,112.781
			L22.983,112.781z M24.748,112.502c-0.28-0.106-0.602-0.005-0.83-0.057c-0.14-0.039-0.101,0.116-0.156,0.168
			c-0.003-0.188-0.573-0.283-0.623-0.056c-0.128-0.049-0.19-0.168-0.415-0.112c0.486-0.239,1.369-0.052,2.023-0.112V112.502z
			 M23.294,112.222C23.5,112.287,23.089,112.287,23.294,112.222L23.294,112.222z M23.606,112.222
			c0.079,0.03,0.002,0.059-0.052,0.056C23.474,112.248,23.55,112.219,23.606,112.222z M24.696,111.048
			c-0.657,0.262-1.198,0.647-1.817,0.951c-0.105-0.297,0.295-0.381,0.52-0.503c0.234-0.127,0.513-0.251,0.674-0.392
			c0.179-0.049,0.353-0.105,0.415-0.28c-0.072-0.163-0.178,0.1-0.311,0.056c-0.174-0.107-0.479-0.048-0.778-0.056
			c-0.234-0.006-0.597,0.096-0.674-0.111h1.712c-0.07-0.186-0.284-0.215-0.466-0.279c-0.2-0.188-0.471-0.258-0.728-0.392
			c-0.222-0.117-0.497-0.224-0.622-0.448c0.291-0.087,0.493,0.211,0.622,0.112c0.06,0.011,0.03,0.057,0,0.057
			c0.468,0.278,0.955,0.537,1.454,0.783V111.048z M23.451,110.6c0.094,0.044-0.032,0.06-0.104,0.056
			C23.251,110.612,23.377,110.595,23.451,110.6z M23.813,110.6C24.019,110.665,23.608,110.665,23.813,110.6L23.813,110.6z
			 M24.592,109.146c-0.469-0.054-1.121,0.035-1.608,0c-0.133-0.009-0.424,0.085-0.415-0.167h2.023V109.146z M23.035,108.866
			c0.079,0.03,0.004,0.058-0.052,0.056C22.903,108.893,22.98,108.863,23.035,108.866z M23.294,108.866
			c0.095,0.043-0.031,0.06-0.104,0.056C23.097,108.879,23.222,108.862,23.294,108.866z M24.54,107.467
			c-0.665,0.383-1.282,0.819-2.023,1.119c0.071-0.445,0.604-0.393,0.83-0.671c0.333-0.145,0.604-0.354,0.934-0.503
			c0.032-0.221-0.285-0.066-0.415-0.112c-0.35-0.029-0.787,0.037-1.194,0c-0.083-0.008-0.292,0.071-0.26-0.112
			c0.794,0.018,1.19-0.079,1.868,0c-0.199-0.345-0.674-0.392-0.986-0.615c-0.159-0.109-0.306-0.23-0.519-0.279
			c-0.128-0.141-0.426-0.1-0.415-0.392c0.444-0.013,0.62,0.265,0.934,0.392c0.267,0.086,0.605,0.391,0.778,0.391
			c0.077,0.048,0.112,0.141,0.104,0.28c0.061-0.008,0.043-0.102,0.052-0.167C24.487,106.854,24.59,107.078,24.54,107.467z
			 M23.139,107.021c0.079,0.029,0.003,0.058-0.052,0.056C23.007,107.047,23.083,107.018,23.139,107.021z M23.242,107.021
			c0.035-0.167,0.111,0.053,0.208,0C23.442,107.16,23.275,107.037,23.242,107.021z M23.658,107.021
			C23.799,107.19,23.5,106.868,23.658,107.021L23.658,107.021z M24.436,105.342c-0.6,0.057-1.512,0.124-2.179,0
			c0.228-0.195,0.645-0.116,1.038-0.111c0.366,0.004,0.745,0.022,0.986,0h0.156C24.404,105.281,24.374,105.33,24.436,105.342z
			 M24.333,103.608c-0.775,0.302-1.307,0.866-2.076,1.175c-0.073-0.358,0.264-0.275,0.363-0.448
			c0.125-0.144,0.374-0.157,0.467-0.335c0.356-0.175,0.72-0.343,0.986-0.615c-0.554-0.13-1.332-0.019-1.972-0.057
			c0.126-0.293,0.574-0.167,0.934-0.167h1.038c-0.054-0.221-0.327-0.206-0.466-0.335c-0.145-0.125-0.318-0.218-0.52-0.28
			c-0.321-0.212-0.604-0.468-1.038-0.559c0.003-0.095-0.039-0.145-0.104-0.168c-0.008-0.028,0.295-0.059,0.052-0.112
			c0.19-0.127,0.427,0.173,0.623,0.224c0.234,0.064,0.35,0.256,0.57,0.335c0.356,0.27,0.81,0.433,1.142,0.728V103.608z
			 M22.36,102.938c0.076,0.024-0.005,0.049,0,0.111C22.296,103.035,22.309,102.938,22.36,102.938z M22.464,101.763
			C22.59,101.951,22.291,101.627,22.464,101.763L22.464,101.763z M23.866,102.154c-0.084,0.181-0.194-0.197-0.104-0.224
			C23.903,101.89,23.724,102.194,23.866,102.154z M23.762,101.539C23.953,101.709,23.604,101.727,23.762,101.539L23.762,101.539z
			 M23.709,101.483C23.54,101.348,23.854,101.216,23.709,101.483L23.709,101.483z M24.229,101.092
			c-0.022,0.263-0.27-0.041-0.467,0.056c-0.571-0.038-1.28,0.074-1.765-0.056c-0.042-0.213,0.246-0.071,0.363-0.112h1.297
			c0.129-0.008,0.252-0.01,0.26,0.112c0.05-0.096,0.143-0.144,0.312-0.112V101.092z M22.775,100.869
			C22.98,100.933,22.571,100.933,22.775,100.869L22.775,100.869z M23.346,100.869c0.081,0.029,0.004,0.058-0.052,0.055
			C23.215,100.894,23.291,100.865,23.346,100.869z M24.177,99.078c-0.373,0.232-0.735,0.475-1.09,0.728
			c-0.44,0.159-0.67,0.545-1.142,0.671c-0.14-0.279,0.164-0.371,0.364-0.448c0.126-0.163,0.358-0.209,0.466-0.392
			c0.41-0.155,0.663-0.479,1.09-0.614c-0.168-0.3,0.058-0.341-0.104-0.615c-0.346-0.003-0.735-0.385-1.09-0.56
			c-0.162-0.142-0.352-0.254-0.571-0.335c-0.102-0.189-0.413-0.151-0.415-0.447c0.006-0.262,0.076,0.061,0.208,0
			c0.066,0.077,0.253,0.024,0.259,0.167c0.213,0.05,0.361,0.171,0.519,0.28c0.334,0.198,0.673,0.393,0.986,0.615
			c0.032,0.049,0.062,0.1,0,0.112c0.107-0.015,0.31,0.083,0.467,0.168C24.157,98.614,24.058,98.964,24.177,99.078z M24.021,96.449
			c-0.135-0.021-0.285-0.029-0.363-0.112c0.01-0.194,0.286-0.102,0.415-0.168C24.029,96.235,24.004,96.319,24.021,96.449z
			 M23.917,94.1c-0.823,0.455-1.464,1.108-2.335,1.51c0.043-0.569,0.628-0.554,0.882-0.895c0.374-0.194,0.662-0.48,1.039-0.672
			h0.104c0.116-0.36-0.022-0.536,0-0.95C23.939,93.182,23.95,93.617,23.917,94.1z M23.813,91.023
			c-0.247-0.039-0.342,0.047-0.415-0.111c-0.031-0.221,0.285-0.066,0.415-0.112V91.023z M23.709,88.396
			c-0.171,0.02-0.259,0.13-0.363,0.223c-0.217-0.248,0.215-0.508-0.052-0.671c-0.009-0.14,0.116-0.136,0.156-0.224
			c-0.089-0.109-0.213-0.181-0.156-0.448C23.804,87.362,23.63,87.928,23.709,88.396z M23.554,84.592
			c0.052,0.168-0.116,0.099-0.208,0.112c0.009,0.244,0.247-0.066,0.208,0.168h-0.26c0.004-0.08,0.009-0.159-0.052-0.168
			C23.295,84.611,23.463,84.643,23.554,84.592z M23.242,87.948c-0.605,0.093-1.573,0.093-2.179,0
			c0.022-0.156,0.28-0.164,0.415-0.167c0.403-0.013,1.086,0.124,1.608,0.056C23.202,87.804,23.161,87.942,23.242,87.948z
			 M23.19,87.5c-0.148-0.025-0.161-0.197-0.363-0.167c-0.105-0.259-0.358-0.36-0.623-0.448c-0.139-0.261-0.484-0.298-0.623-0.559
			c-0.27-0.12-0.536-0.242-0.674-0.503c0.198,0.011,0.019-0.045,0.052-0.168c0.34,0.06,0.584,0.331,0.83,0.503
			c0.266,0.188,0.517,0.357,0.778,0.56c0.134,0.154,0.391,0.175,0.467,0.392c0.084-0.017,0.089,0.052,0.155,0.056V87.5z
			 M23.139,84.647v0.112c-0.027,0.317-0.438-0.089-0.519,0.112c-0.362-0.123-1.173,0.032-1.764-0.112
			c-0.007-0.232,0.36-0.058,0.519-0.112c0.389-0.023,1.065,0.016,1.608,0H23.139z M21.582,82.858
			c0.306-0.211,0.555-0.483,0.882-0.671c0.014-0.013,0.029-0.025,0.043-0.039h0.455c-0.644,0.561-1.372,1.03-2.002,1.605h-0.156
			c0.071-0.145,0.168-0.176-0.051-0.112C20.912,83.253,21.304,83.117,21.582,82.858z M20.804,97.512
			c-0.016,0.076-0.13,0.046-0.208,0.055V97.4C20.76,97.336,20.722,97.487,20.804,97.512z M20.389,94.939v-0.168h0.208
			C20.552,94.853,20.519,94.948,20.389,94.939z M20.544,96.282c-0.061-0.009-0.043-0.103-0.052-0.168
			C20.554,96.123,20.536,96.215,20.544,96.282z M20.648,93.149v0.168c-0.043,0.048-0.405,0.153-0.363-0.056
			C20.243,93.049,20.53,93.19,20.648,93.149z M20.337,91.975c0.047,0.195-0.168,0.095-0.208,0.056
			C20.175,91.868,20.207,91.967,20.337,91.975z M20.182,87.276c-0.044,0.14-0.405-0.064-0.363,0.168
			c-0.116-0.024-0.021-0.276-0.052-0.392C19.947,86.957,20.222,86.978,20.182,87.276z M20.025,89.123h-0.103
			c0.008-0.065-0.012-0.1-0.052-0.113c0.045-0.162,0.077-0.062,0.207-0.056v0.112C20.033,89.056,20.028,89.087,20.025,89.123z
			 M20.077,90.632c-0.06-0.009-0.043-0.102-0.052-0.168C20.087,90.474,20.069,90.566,20.077,90.632z M19.767,85.654
			c0.07,0.018,0.042,0.141,0.052,0.224c-0.162,0.026-0.232-0.048-0.208-0.224C19.7,85.643,19.745,85.75,19.767,85.654z
			 M19.506,82.187c0.007,0.101-0.063,0.118-0.051,0.224c-0.091-0.013-0.119-0.096-0.104-0.224H19.506z M19.559,84.144
			c-0.061-0.008-0.043-0.102-0.052-0.167C19.568,83.985,19.551,84.078,19.559,84.144z M10.651,90.95
			c0.675-0.866,2.218-1.449,3.452-1.726v-4.834h-3.452v-2.243h7.3c1.156,11.369,2.227,22.832,3.527,34.046
			c-4.89,0.085-8.71-0.258-11.362-0.434c0.457-4.326,5.348-8.36,8.302-9.273C18.92,102.386,6.401,100.461,10.651,90.95z
			 M21.18,136.43v-2.737c-3.77,0.39-7.568,0.505-11.365,0.529c0.83-0.731,1.985-1.155,2.907-1.498
			c0.287-0.345,0.575-0.69,0.863-1.035c-0.92-0.346-1.841-0.691-2.762-1.036c-0.058-0.806-0.115-1.611-0.172-2.417
			c2.07-0.058,4.143-0.115,6.214-0.173v-1.381c-2.089-0.056-4.179-0.112-6.269-0.169c1.139-0.055,1.241-0.088,3.462-0.364
			c2.037-0.284,4.905-0.444,6.85-0.224c0.314,0.036,0.602,0.037,0.882,0.112c0.297,0.258,0.559,0.553,0.622,1.063
			c0.246,0.331,0.447,0.712,0.675,1.062c0.162,2.787,0.382,5.51,0.57,8.267H21.18z M23.658,128.89
			c-0.144-0.024-0.002-0.176,0.104-0.112C23.749,128.839,23.658,128.816,23.658,128.89z M23.709,130.399
			c0.013-0.098,0.089-0.127,0.208-0.111C23.905,130.386,23.828,130.416,23.709,130.399z M23.917,131.743
			C24.075,131.589,23.775,131.913,23.917,131.743L23.917,131.743z M23.97,133.029C24.174,133.093,23.765,133.093,23.97,133.029
			L23.97,133.029z M24.125,134.203C24.33,134.268,23.919,134.268,24.125,134.203L24.125,134.203z M24.177,135.322
			c0.08,0.029,0.003,0.059-0.052,0.057C24.044,135.348,24.121,135.32,24.177,135.322z M24.229,136.328
			C24.434,136.394,24.023,136.394,24.229,136.328L24.229,136.328z M25.266,129.953c0.096-0.153,0.007,0.148-0.155,0.055
			c-0.235,0.12-0.48,0.229-0.778,0.28C24.606,130.136,24.89,129.995,25.266,129.953z M25.214,130.512h-0.57
			c-0.085-0.112,0.453-0.032,0.622-0.056C25.346,130.485,25.27,130.514,25.214,130.512z M25.37,131.015
			c-0.293,0.11-0.646-0.197-0.985-0.224C24.69,130.667,25.022,130.997,25.37,131.015z M25.318,131.351
			c-0.285,0.084-0.532,0.209-0.831,0.279c0.176-0.202,0.555-0.185,0.778-0.335C25.358,131.278,25.373,131.348,25.318,131.351z
			 M25.111,131.854h-0.26c-0.138-0.1,0.304-0.042,0.415-0.057C25.431,131.845,25.174,131.872,25.111,131.854z M24.487,132.022
			c0.284,0.105,0.59,0.185,0.883,0.28c-0.101,0.14-0.316-0.066-0.467-0.056C24.802,132.131,24.493,132.24,24.487,132.022z
			 M24.748,134.259c-0.15-0.093,0.265-0.044,0.363-0.056c0.095,0.044-0.032,0.061-0.104,0.056H24.748z M24.903,134.539
			c-0.081-0.029-0.002-0.059,0.052-0.057C25.035,134.513,24.958,134.542,24.903,134.539z M25.059,134.595
			c0.064-0.17,0.179,0.061,0.312,0C25.484,134.727,25.154,134.585,25.059,134.595z M25.111,134.93
			C25.316,134.995,24.906,134.995,25.111,134.93L25.111,134.93z M25.266,135.266c0.168,0.064-0.139,0.063-0.207,0.056
			C24.891,135.257,25.198,135.259,25.266,135.266z M25.37,134.875C25.096,135.021,25.567,134.769,25.37,134.875L25.37,134.875z
			 M24.903,133.979c-0.093,0.016-0.106-0.053-0.052-0.056c0.06,0.009,0.092-0.012,0.104-0.056c0.061,0.009,0.093-0.012,0.104-0.056
			c0.18,0.045,0.2-0.083,0.363-0.056C25.294,133.879,25.053,133.88,24.903,133.979z M24.748,133.7
			c-0.095-0.043,0.031-0.061,0.104-0.056C24.946,133.688,24.82,133.705,24.748,133.7z M25.059,133.644
			c0.08,0.029,0.003,0.058-0.052,0.056C24.927,133.67,25.003,133.642,25.059,133.644z M25.266,133.7
			c-0.093-0.043,0.032-0.061,0.104-0.056C25.465,133.688,25.339,133.705,25.266,133.7z M25.059,133.084
			c-0.165-0.077,0.184-0.055,0.259-0.056C25.483,133.105,25.134,133.084,25.059,133.084z M25.111,132.693
			c-0.119-0.043,0.162-0.117,0.259-0.112C25.326,132.664,25.203,132.662,25.111,132.693z M24.644,132.805
			c0.125,0.023,0.113-0.102,0.259-0.056c0.23-0.125-0.098,0.103-0.207,0.112C24.573,132.907,24.456,132.782,24.644,132.805z
			 M25.111,133.421c0.093,0.073-0.527,0.03-0.519-0.168C24.784,133.287,24.918,133.385,25.111,133.421z M24.696,133.979
			c0.08,0.029,0.003,0.059-0.052,0.056C24.564,134.005,24.641,133.978,24.696,133.979z M24.748,134.427
			c0.079,0.029,0.003,0.058-0.052,0.055C24.615,134.453,24.692,134.424,24.748,134.427z M25.007,134.986
			c-0.013,0.062-0.103,0.038-0.104,0.113C24.518,135.11,24.861,135.012,25.007,134.986z M24.799,135.322
			c-0.079-0.03-0.003-0.058,0.052-0.056C24.931,135.296,24.854,135.324,24.799,135.322z M24.903,135.545
			c0.213-0.024,0.333,0.052,0.467,0.112c0.099,0.039-0.056,0.087-0.052,0c-0.193,0.003-0.328-0.056-0.467-0.112
			C24.595,135.579,24.905,135.381,24.903,135.545z M24.851,136.272C25.056,136.337,24.647,136.337,24.851,136.272L24.851,136.272z
			 M24.851,136.049C25.056,136.114,24.647,136.114,24.851,136.049L24.851,136.049z M24.903,135.825
			c-0.165-0.047,0.093-0.074,0.156-0.056C25.223,135.816,24.967,135.843,24.903,135.825z M25.059,136.272
			C25.264,136.337,24.854,136.337,25.059,136.272L25.059,136.272z M25.007,136.049c-0.119-0.044,0.162-0.117,0.259-0.112
			C25.222,136.02,25.1,136.018,25.007,136.049z M25.37,135.881C25.575,135.946,25.165,135.946,25.37,135.881L25.37,135.881z
			 M25.37,133.476c0.14,0.023,0.431,0.232,0.104,0.28c-0.008-0.064,0.012-0.099,0.052-0.112
			C25.494,133.55,25.003,133.498,25.37,133.476z M25.629,135.881c-0.11,0.027-0.098-0.08-0.103-0.167
			c0.042,0.01,0.052,0.055,0.103,0.055V135.881z M25.629,134.818c-0.11,0.027-0.098-0.079-0.103-0.167
			c0.042,0.011,0.052,0.056,0.103,0.056V134.818z M26.915,136.43h-0.501c0.495-1.481,1.008-2.822,1.758-4.128
			c-0.156-0.113-0.219,0.26-0.311,0.391c-0.132,0.138-0.164,0.383-0.312,0.503c-0.439,1.054-0.931,2.051-1.251,3.233h-0.155
			c0.013-0.25,0.053-0.531-0.15-0.549c-0.039-0.191,0.211-0.071,0.155-0.279c0.016-0.651-0.007-1.259-0.052-1.846
			c-0.164-0.198,0.072-0.205-0.104-0.391c0.134-0.229-0.025-0.259,0.104-0.56c0.033-2.182-0.06-4.604-0.052-6.936
			c0.537,0.039,0.916-0.094,1.453-0.056c0.116,0.136,0.021,0.5,0.312,0.447c0.227,0.042-0.042-0.111,0.104-0.111
			c0.102,0.088,0.209-0.295,0.311-0.392c1.332-0.075,2.72-0.088,4.099-0.112c-0.686,1.125-1.512,2.1-2.18,3.244
			c-0.713,1.077-1.42,2.16-2.023,3.356c0.109,0.054,0.104-0.112,0.156-0.168c0.25-0.271,0.537-0.739,0.726-1.174
			c0.361-0.357,0.532-0.918,0.882-1.286c0.011-0.096-0.089-0.146,0-0.168c0.128,0.007,0.088-0.069,0-0.056
			c0.273-0.189,0.451-0.457,0.467-0.784c0.069-0.056,0.157-0.092,0.208-0.167c0.052-0.089,0.049-0.225,0.156-0.112
			c-0.018-0.13,0.008-0.215,0.051-0.279c0.676-0.745,1.135-1.722,1.868-2.405c0.56,0.026,0.98-0.099,1.557-0.056
			c-2.255,2.845-4.681,5.505-6.382,8.949c-0.309,0.543-0.545,1.165-0.83,1.734C26.958,136.326,26.935,136.376,26.915,136.43z
			 M26.044,135.545C26.25,135.61,25.84,135.61,26.044,135.545L26.044,135.545z M26.408,117.647c0.079,0.029,0.002,0.058-0.052,0.056
			C26.276,117.674,26.353,117.646,26.408,117.647z M27.03,117.647c0.166,0.047-0.092,0.074-0.156,0.056
			C26.71,117.656,26.967,117.629,27.03,117.647z M28.12,119.772c2.306,0.063,5.178-0.241,7.576-0.056
			c0.401,0.031,0.791,0.143,1.142,0.28c0.042,0.029,0.084,0.059,0.156,0.056c-0.538,0.65-1.068,1.31-1.66,1.901
			c-0.375,0.069-0.758-0.066-1.142-0.056c-0.219,0.006-0.462,0.099-0.675,0.112c-0.676,0.045-1.348,0.003-2.023,0
			c-1.098-0.006-2.215-0.11-3.32-0.112c-0.197-0.511-0.009-1.079,0.104-1.565C28.313,120.084,28.024,119.897,28.12,119.772z
			 M28.12,117.647c0.072-0.127,0.362-0.021,0.519-0.056C28.601,117.795,28.244,117.687,28.12,117.647z M29.262,117.647
			C29.387,117.834,29.088,117.513,29.262,117.647L29.262,117.647z M29.988,117.647C30.129,117.817,29.83,117.495,29.988,117.647
			L29.988,117.647z M31.389,117.592c-0.001,0.337,0.088,0.575,0.052,0.951c-0.247-0.107-0.413-0.301-0.622-0.448
			C30.971,117.887,31.125,117.679,31.389,117.592z M30.973,117.647C31.132,117.495,30.832,117.817,30.973,117.647L30.973,117.647z
			 M31.13,118.598c-0.049-0.06-0.192-0.017-0.157-0.168C31.086,118.419,31.139,118.476,31.13,118.598z M30.455,118.374
			c0.201-0.029,0.214,0.143,0.363,0.168c-0.056,0.127-0.327,0.021-0.467,0.056c-0.095-0.043,0.031-0.061,0.104-0.056
			C30.532,118.518,30.435,118.471,30.455,118.374z M30.715,118.207c0.041,0.029,0.084,0.059,0.155,0.056v0.167
			C30.794,118.382,30.705,118.347,30.715,118.207z M30.61,117.759c-0.215,0.064-0.202-0.117-0.363-0.111
			c0.089-0.128,0.396-0.021,0.571-0.056C30.767,117.667,30.68,117.703,30.61,117.759z M32.946,118.094
			c0.047-0.284,0.322-0.324,0.466-0.502c0.086,0.102,0.116,0.626,0.156,0.951C33.338,118.417,33.167,118.229,32.946,118.094z
			 M33.257,118.486v0.112h-0.104c0.01-0.048-0.021-0.053-0.052-0.056v-0.112h0.104C33.195,118.478,33.225,118.483,33.257,118.486z
			 M32.79,118.263c0.052-0.14,0.229,0.043,0.207,0.167C32.892,118.414,32.895,118.279,32.79,118.263z M32.997,118.598
			c-0.088,0.074-0.437-0.049-0.674,0c0.109-0.068,0.151-0.21,0.311-0.224C32.814,118.386,32.831,118.572,32.997,118.598z
			 M32.323,117.592c0.106-0.129,0.431-0.021,0.623-0.056C32.845,117.774,32.466,117.842,32.323,117.592z M32.427,117.983
			c-0.133-0.156-0.377-0.19-0.415-0.447c0.076,0.048,0.164,0.083,0.155,0.223C32.345,117.736,32.462,117.776,32.427,117.983z
			 M32.323,118.039c-0.098,0.286-0.329,0.429-0.571,0.559c0.037-0.393-0.088-0.614-0.052-1.006
			C31.931,117.716,32.066,117.942,32.323,118.039z M34.45,118.094c-0.177,0.165-0.29,0.397-0.571,0.448
			c0.02-0.318-0.124-0.702-0.052-0.895C34.061,117.769,34.228,117.962,34.45,118.094z M33.983,117.592
			c0.069-0.143,0.34-0.036,0.259,0.167C34.121,117.742,34.146,117.565,33.983,117.592z M34.917,118.207
			c0.202,0.061,0.331,0.202,0.467,0.335c-0.052,0.141-0.229-0.045-0.208-0.168C35.028,118.386,34.894,118.381,34.917,118.207z
			 M35.073,118.542c0.002,0.143-0.039,0.068-0.104,0.056c-0.196,0.038-0.22,0.038-0.415,0c-0.061-0.009-0.092,0.013-0.104,0.056
			c-0.1-0.093,0.145-0.289,0.311-0.28C34.945,118.344,34.889,118.573,35.073,118.542z M35.021,118.094
			c0.111-0.234,0.239-0.451,0.519-0.502c0.028,0.305,0.076,0.589,0.104,0.895C35.391,118.405,35.287,118.163,35.021,118.094z
			 M34.813,117.759c-0.258,0.074-0.221-0.171-0.415-0.167c0.105-0.129,0.43-0.021,0.622-0.056
			C34.985,117.646,34.863,117.664,34.813,117.759z M34.554,117.871c-0.154,0.188-0.263-0.145-0.26-0.168
			C34.359,117.566,34.445,117.871,34.554,117.871z M36.525,118.094c-0.136,0.189-0.303,0.344-0.519,0.448
			c-0.032-0.302-0.107-0.556-0.104-0.895C36.156,117.747,36.308,117.957,36.525,118.094z M36.059,117.536
			C36.2,117.706,35.9,117.383,36.059,117.536L36.059,117.536z M35.695,106.797c0.041-0.53-0.315-0.863-0.208-1.287
			c-0.226-0.222-0.275-0.635-0.312-1.063c-0.166-0.585-0.478-1.312-0.415-1.957c-0.182-0.196-0.21-0.556-0.311-0.84
			c-0.022-0.354-0.218-0.608-0.104-0.95c1.406,5.214,2.743,10.504,4.618,15.214c-0.255-0.052-0.198,0.233-0.415,0.223
			c-0.11-0.274-0.235-0.53-0.26-0.895c-0.502-1.061-0.73-2.419-1.193-3.524c-0.133-0.648-0.351-1.234-0.519-1.846
			c-0.162-0.589-0.387-1.181-0.467-1.846C35.93,107.663,35.874,107.164,35.695,106.797z M36.007,108.698
			C35.87,108.402,36.106,108.911,36.007,108.698L36.007,108.698z M38.809,119.997C39.014,120.062,38.604,120.062,38.809,119.997
			L38.809,119.997z M38.86,123.296c-0.05-0.001-0.04-0.068-0.052-0.112C38.859,123.186,38.849,123.252,38.86,123.296z
			 M38.238,123.912c-0.093,0-0.227-0.172-0.415-0.223c0.176-0.202,0.309-0.451,0.57-0.56c0.059,0.348,0.104,0.709,0.157,1.062
			C38.441,124.136,38.173,123.967,38.238,123.912z M38.498,124.359C38.34,124.565,38.322,124.189,38.498,124.359L38.498,124.359z
			 M38.29,124.247c-0.052,0.141-0.229-0.044-0.207-0.167C38.188,124.097,38.221,124.191,38.29,124.247z M36.578,123.24
			c0.215-0.025,0.468,0.389,0.727,0.503c-0.177,0.202-0.308,0.452-0.571,0.56c0.042-0.257-0.233-0.659,0-0.895
			C36.656,123.378,36.652,123.374,36.578,123.24z M35.955,123.855c0.109-0.068,0.195-0.162,0.26-0.279
			c0.182,0.182,0.023,0.447,0.155,0.728C36.238,124.147,35.993,124.113,35.955,123.855z M36.266,124.416
			c-0.038,0.099-0.094,0.007-0.155,0C36.149,124.315,36.205,124.407,36.266,124.416z M35.073,123.744
			c-0.092,0.293-0.377,0.376-0.519,0.615c-0.141-0.333-0.188-0.736-0.104-1.062C34.719,123.379,34.821,123.643,35.073,123.744z
			 M34.658,123.24c0.017-0.119,0.246-0.012,0.208,0.112C34.724,123.394,34.761,123.242,34.658,123.24z M36.111,123.52
			c-0.183,0.034-0.23,0.425-0.467,0.224c0.146-0.234,0.322-0.436,0.571-0.559v0.168c-0.103,0.093-0.066-0.004-0.208,0
			C36.041,123.41,36.126,123.41,36.111,123.52z M35.384,123.408c-0.269,0.011-0.276-0.261-0.518-0.279
			c0.173-0.166,0.707,0.054,0.882-0.112C35.845,123.162,35.525,123.334,35.384,123.408z M35.125,123.576
			c-0.115,0.031-0.074-0.106-0.155-0.111C34.991,123.325,35.17,123.461,35.125,123.576z M35.488,124.08
			c-0.088,0.24-0.216,0.438-0.571,0.391C35.076,124.307,35.133,124.033,35.488,124.08z M35.903,124.416
			c-0.055,0.126-0.326,0.021-0.467,0.055C35.519,124.21,35.753,124.233,35.903,124.416z M35.851,124.191
			c0.052-0.171,0.138,0.064,0.208,0.056C36.008,124.419,35.92,124.183,35.851,124.191z M35.695,121.954
			c-0.215-0.044,0.181-0.302,0.259-0.391c0.084-0.208,0.254-0.324,0.415-0.447c0.161-0.406,0.557-0.557,0.727-0.951
			c0.307,0.117,0.412,0.452,0.675,0.615C37.533,121.661,36.735,121.937,35.695,121.954z M37.252,118.598
			c-0.174,0.129-0.569,0.02-0.83,0.056c0.061-0.177,0.269-0.195,0.363-0.335C36.97,118.38,37.048,118.556,37.252,118.598z
			 M36.993,118.151c0.113-0.01,0.166,0.045,0.155,0.168c0.044,0.01,0.05-0.022,0.052-0.056
			C37.336,118.411,36.932,118.388,36.993,118.151z M37.252,118.374c0.142-0.041,0.104,0.112,0.207,0.112
			C37.427,118.622,37.198,118.516,37.252,118.374z M37.615,118.598C37.82,118.663,37.41,118.663,37.615,118.598L37.615,118.598z
			 M37.096,123.353c-0.163,0.026-0.137-0.15-0.259-0.168C36.883,123.067,37.126,123.203,37.096,123.353z M36.785,123.129
			c-0.05-0.002-0.04-0.068-0.051-0.112C36.783,123.019,36.774,123.085,36.785,123.129z M37.148,123.353
			c0.142-0.041,0.104,0.111,0.208,0.112C37.323,123.601,37.093,123.494,37.148,123.353z M37.511,124.023
			c0.284,0.011,0.35,0.257,0.571,0.335c0.043,0.229-0.233-0.066-0.312,0.112c-0.281,0.036-0.518-0.062-0.675,0
			C37.203,124.288,37.365,124.164,37.511,124.023z M37.771,123.912c0.014-0.132,0.139,0.064,0.207,0.056
			C37.928,124.14,37.84,123.903,37.771,123.912z M38.186,118.263C38.391,118.327,37.981,118.327,38.186,118.263L38.186,118.263z
			 M38.445,120.78c0.051,0.001,0.041,0.068,0.053,0.112C38.447,120.89,38.458,120.823,38.445,120.78z M36.318,109.705
			c-0.007,0.1,0.064,0.119,0.052,0.224c0.052,0.131,0.092,0.274,0.104,0.448c0.146,0.233,0.174,0.595,0.259,0.895
			c0.25,0.495,0.308,1.197,0.571,1.678c0.231,0.907,0.54,1.729,0.831,2.573c0.041,0.255,0.313,0.555,0.207,0.783
			c-0.183,0.19-0.186-0.128-0.259-0.224c-0.008-0.177-0.118-0.246-0.104-0.447c-0.285-0.83-0.55-1.681-0.778-2.572
			c-0.347-1.137-0.66-2.31-0.986-3.468C36.286,109.385,36.223,109.758,36.318,109.705z M38.03,122.96
			c-0.101,0.19-0.247,0.331-0.415,0.448c-0.248-0.05-0.329-0.278-0.571-0.335C37.326,122.944,37.865,123.066,38.03,122.96z
			 M37.719,119.997c0.019-0.074,0.092-0.088,0.104-0.167c0.069,0.037,0.096,0.119,0.103,0.224
			C37.818,120.076,37.789,120.014,37.719,119.997z M37.096,117.927c0.213-0.05,0.24-0.301,0.467-0.335
			c0.085,0.262,0.12,0.58,0.156,0.895C37.515,118.295,37.208,118.218,37.096,117.927z M36.837,117.759
			c-0.196-0.012-0.252-0.175-0.415-0.223c0.14-0.128,0.5-0.02,0.726-0.057C37.057,117.587,36.959,117.686,36.837,117.759z
			 M36.578,117.927c-0.103-0.001-0.066-0.153-0.208-0.112c0.01-0.045,0.052-0.056,0.052-0.112c-0.15,0.069-0.237,0.029-0.259-0.167
			C36.332,117.633,36.561,117.665,36.578,117.927z M33.827,124.136c-0.009-0.197,0.176-0.184,0.208-0.335
			c0.08,0.137,0.077,0.363,0.104,0.559C33.998,124.325,34.01,124.125,33.827,124.136z M33.931,124.416
			C34.136,124.48,33.726,124.48,33.931,124.416L33.931,124.416z M33.724,123.968c-0.184,0.031-0.127-0.198-0.312-0.167
			c0.128-0.291,0.38-0.45,0.623-0.616C34.102,123.629,33.862,123.744,33.724,123.968z M33.775,124.303
			C33.901,124.491,33.602,124.168,33.775,124.303L33.775,124.303z M32.842,123.8c-0.194,0.22-0.343,0.488-0.623,0.615
			c-0.072-0.351-0.045-0.809-0.104-1.175C32.437,123.341,32.61,123.602,32.842,123.8z M32.427,123.24
			c0.05-0.185,0.103,0.062,0.155,0.056C32.706,123.418,32.457,123.29,32.427,123.24z M32.686,123.185
			c0.197-0.125,0.635-0.157,0.883-0.056c-0.099,0.118-0.202,0.229-0.311,0.335C32.936,123.512,32.868,123.287,32.686,123.185z
			 M32.946,123.576c-0.015,0.133-0.139-0.064-0.208-0.056C32.789,123.349,32.876,123.584,32.946,123.576z M33.412,124.247
			c0.038,0.153-0.103,0.113-0.104,0.224h-0.623C32.822,124.286,33.159,123.961,33.412,124.247z M33.36,124.023
			c0.021-0.139,0.201-0.003,0.155,0.112C33.448,124.116,33.435,124.037,33.36,124.023z M31.182,123.8
			c0.131-0.27,0.387-0.403,0.57-0.616c0.173,0.281,0.117,0.807,0.156,1.231C31.637,124.24,31.414,124.016,31.182,123.8z
			 M31.544,124.416c-0.076-0.049-0.164-0.084-0.156-0.224C31.465,124.24,31.553,124.275,31.544,124.416z M30.61,123.8
			c0.015,0.09-0.049,0.096-0.052,0.167c-0.286,0.065-0.302,0.419-0.623,0.448c-0.009-0.436-0.077-0.624-0.052-1.175
			C30.192,123.356,30.37,123.612,30.61,123.8z M30.299,123.296C30.441,123.467,30.141,123.144,30.299,123.296L30.299,123.296z
			 M30.922,123.52c-0.26,0.02-0.255-0.247-0.467-0.28c0.16-0.245,0.549,0.046,0.83-0.111
			C31.246,123.348,31.08,123.429,30.922,123.52z M31.233,124.023c-0.039,0.1-0.095,0.008-0.156,0
			C31.116,123.923,31.172,124.016,31.233,124.023z M30.559,123.52C30.7,123.69,30.401,123.367,30.559,123.52L30.559,123.52z
			 M30.818,124.08c0.23,0.086,0.478,0.155,0.519,0.447h-0.882C30.495,124.29,30.697,124.229,30.818,124.08z M28.535,123.185h0.467
			c-0.06,0.234-0.202,0.378-0.519,0.335c0.014-0.146,0.017-0.28-0.156-0.224C28.171,123.118,28.644,123.415,28.535,123.185z
			 M28.639,124.136c0.214,0.011,0.238,0.228,0.416,0.28c-0.106,0.128-0.431,0.02-0.623,0.055
			C28.325,124.267,28.495,124.215,28.639,124.136z M28.898,124.08C28.701,123.973,29.173,124.227,28.898,124.08L28.898,124.08z
			 M28.898,123.855c0.2-0.25,0.342-0.563,0.727-0.615c-0.004,0.415-0.012,0.834,0.052,1.175
			C29.318,124.336,29.175,124.023,28.898,123.855z M27.02,136.43h-0.01c0-0.006-0.002-0.01,0.021-0.045
			C27.145,136.295,27.059,136.398,27.02,136.43z M27.123,136.43c0.037-0.07,0.071-0.139,0.115-0.213
			c0.092-0.15-0.229-0.108-0.052-0.167c0.228-0.057,0.015-0.082,0-0.112c0.031-0.153,0.266-0.085,0.259-0.279
			c-0.188,0.022-0.071-0.103,0.051-0.056c-0.096-0.107-0.095-0.045-0.051-0.223c0.016-0.132,0.246-0.035,0.208-0.225
			c0.095-0.066-0.119-0.048,0-0.224c0.245-0.2,0.165-0.278,0.311-0.502c0.137-0.207,0.264-0.424,0.363-0.671
			c0.29-0.396,0.494-0.885,0.83-1.23c0.48-0.899,1.083-1.666,1.661-2.462c0.544-0.829,1.213-1.525,1.763-2.349
			c0.356-0.326,0.626-0.743,0.934-1.119c0.382-0.297,0.543-0.833,1.039-1.006c0.941-0.123,2.056-0.059,3.009-0.168
			c-0.15,0.333-0.435,0.543-0.674,0.783c-1.762,1.769-3.361,3.666-5.033,5.481c-1.276,1.479-2.493,3.023-3.545,4.743H27.123z
			 M40.001,125.869c-0.149,0.361-0.573,0.426-0.726,0.783c-0.866,0.69-1.637,1.48-2.439,2.237c-1.051,1.011-2.103,2.021-3.113,3.077
			c-1.401,1.38-2.68,2.894-3.907,4.463h-1.408c1.428-2.269,3.124-4.248,4.849-6.198c0.269-0.137,0.365-0.463,0.622-0.614
			c0.189-0.226,0.385-0.443,0.571-0.671c0.309-0.096,0.349-0.482,0.623-0.616c0.244-0.164,0.37-0.46,0.571-0.671
			c0.18-0.188,0.389-0.31,0.571-0.502c0.183-0.194,0.321-0.439,0.57-0.56c0.318-0.421,0.748-0.723,1.09-1.118
			C38.652,125.533,39.577,125.433,40.001,125.869z M39.535,124.08C39.74,124.144,39.33,124.144,39.535,124.08L39.535,124.08z
			 M34.658,100.644c0.765,2.615,1.353,5.588,2.283,8.11c0.382,1.341,0.882,2.554,1.297,3.859c0.234,0.625,0.485,1.23,0.675,1.902
			c0.164,0.27,0.242,0.633,0.363,0.951c0.095,0.263,0.344,0.618,0.259,0.895c-0.359-0.209-0.471-0.686-0.623-1.119
			c-0.163-0.33-0.343-0.74-0.363-1.062c-0.168-0.36-0.364-0.69-0.415-1.175c-0.549-1.291-0.922-2.684-1.35-4.083
			c-0.418-1.373-0.843-2.771-1.192-4.196c-0.231-0.908-0.582-1.918-0.675-2.796c-0.056-0.125-0.121-0.243-0.156-0.392
			c0.006-0.101-0.063-0.118-0.052-0.224c0.093-0.031,0.008-0.156,0-0.056c-0.037-0.214-0.06-0.548-0.155-0.839
			C34.625,100.346,34.637,100.574,34.658,100.644z M34.502,100.141c0.061,0.009,0.044,0.102,0.052,0.167
			C34.493,100.299,34.51,100.207,34.502,100.141z M34.502,100.085c-0.061-0.009-0.044-0.103-0.052-0.168
			C34.511,99.926,34.494,100.019,34.502,100.085z M34.242,99.246c-0.015,0.091,0.049,0.097,0.052,0.168
			c-0.004,0.08-0.009,0.159,0.052,0.167c-0.037,0.208,0.089,0.24,0.052,0.448c-0.051-0.001-0.04-0.069-0.052-0.112
			c-0.056-0.201-0.081-0.435-0.156-0.615C34.176,99.201,34.239,99.187,34.242,99.246z M34.346,100.644
			c-0.239-0.376-0.325-0.917-0.415-1.454C34.104,99.638,34.221,100.146,34.346,100.644z M30.544,82.147
			c0.002,0.122,0.001,0.245,0.015,0.375c0.344,1.38,0.459,3.053,0.727,4.362c1.322,7.337,2.667,14.65,4.41,21.535
			c0.564,2.449,1.284,4.731,1.972,7.047c0.092,0.283,0.284,0.722,0.258,0.95c-3.206,0.107-6.586-0.05-9.857-0.056
			c-0.252,0.029,0.016-0.502-0.156-0.56c-0.55-0.238-0.471,0.338-0.726,0.56c-0.538-0.038-0.916,0.095-1.454,0.056
			c-0.155-3.367-0.229-6.994-0.363-10.291c-0.004-0.108-0.03-0.29-0.052-0.448c-0.015-0.117,0.088-0.468-0.155-0.391
			c0.158-0.07,0.125-0.113,0.155-0.281c0.059-0.325-0.043-0.771-0.052-1.174c-0.017-0.813-0.021-1.51-0.052-2.293
			c-0.053-1.355-0.106-2.684-0.155-3.747c-0.065,0.022-0.106,0.072-0.104,0.167c-0.031,0.291-0.074-0.113-0.052-0.224
			c-0.041-0.231,0.023-0.348,0.156-0.392c-0.112-0.048-0.12-0.206-0.104-0.392c0.086,0.001,0.03,0.155,0.104,0.168
			c-0.121-4.793-0.303-9.96-0.403-14.973H30.544z M24.851,119.269H24.85C24.85,119.269,24.85,119.27,24.851,119.269
			C24.85,119.27,24.851,119.27,24.851,119.269z"/>
	</g>
</g>
<g>
	<path fill="#E4BA27" d="M44.528,30.652l66.959,29.235v1.698L44.528,90.727v-2.075l23.955-10.468V43.195L44.528,32.727V30.652z
		 M108.751,60.736L70.369,43.95v33.385L108.751,60.736z"/>
	<path fill="#E4BA27" d="M44.528,102.42h66.864v1.886H44.528V102.42z"/>
	<path fill="#E4BA27" d="M44.528,186.164h62.809l-49.605-29.707v-1.509l49.605-29.707H44.528v-1.886h66.959v1.509l-51.492,30.839
		l51.492,30.838v1.509H44.528V186.164z"/>
	<path fill="#E4BA27" d="M111.487,282.734H44.528v-1.887h33.291v-46.494H44.528v-1.886h66.959v1.886H79.705v46.494h31.782V282.734z"
		/>
	<path fill="#E4BA27" d="M44.528,301.782h66.864v1.886H44.528V301.782z"/>
	<path fill="#E4BA27" d="M55.939,373.926c-7.922-6.979-11.883-15.027-11.883-24.143c0-4.654,0.99-8.912,2.971-12.779
		s4.574-7.2,7.78-9.997c3.207-2.798,6.837-4.967,10.893-6.507c4.056-1.541,8.158-2.311,12.307-2.311
		c4.338,0,8.55,0.755,12.637,2.263c4.086,1.509,7.717,3.599,10.893,6.271c3.174,2.672,5.706,5.878,7.592,9.62
		c1.886,3.739,2.83,7.842,2.83,12.307c0,3.457-0.363,6.538-1.084,9.242c-0.724,2.703-1.73,5.093-3.018,7.168
		c-1.29,2.075-2.83,3.851-4.621,5.328c-1.792,1.477-3.758,2.75-5.895,3.819l-0.566-1.792c4.715-2.579,8.11-5.879,10.186-9.902
		c2.075-4.025,3.112-8.646,3.112-13.864c0-4.402-0.928-8.362-2.783-11.883c-1.855-3.521-4.291-6.523-7.309-9.006
		c-3.018-2.485-6.445-4.386-10.279-5.707c-3.835-1.32-7.733-1.979-11.694-1.979c-4.213,0-8.251,0.769-12.119,2.31
		c-3.866,1.54-7.277,3.662-10.232,6.366c-2.956,2.703-5.313,5.847-7.073,9.431c-1.761,3.583-2.641,7.45-2.641,11.6
		c0,4.4,1.005,8.582,3.019,12.543c2.011,3.961,5.218,7.828,9.619,11.6h15.938v-15.75h1.886v17.635H44.528v-1.886H55.939z"/>
	<path fill="#E4BA27" d="M111.487,441.828H44.528v-1.886h33.291v-46.494H44.528v-1.886h66.959v1.886H79.705v46.494h31.782V441.828z"
		/>
</g>
</svg>
