<?xml version="1.0" encoding="utf-8"?>
<!-- Generator: Adobe Illustrator 18.0.0, SVG Export Plug-In . SVG Version: 6.00 Build 0)  -->
<!DOCTYPE svg PUBLIC "-//W3C//DTD SVG 1.1//EN" "http://www.w3.org/Graphics/SVG/1.1/DTD/svg11.dtd">
<svg version="1.1" id="Layer_1" xmlns="http://www.w3.org/2000/svg" xmlns:xlink="http://www.w3.org/1999/xlink" x="0px" y="0px"
	 viewBox="0 0 140 617.6" enable-background="new 0 0 140 617.6" xml:space="preserve">
<g>
	<path fill="#E4BA27" d="M134.1,260.2c-0.6-0.1-1-0.3-1.6-0.4c-1.4-0.1-3-0.7-4.1-0.5c-0.7,0.1-1.2,0.3-2,0.4c0,0.3,0,0.6,0,0.9
		c-6.6,4.6-13.4,9-15.8,17.8c-0.2,1.1-0.2,2.3,0,3.4c-0.2,0.5-0.5,0.6,0,1.1c0,0.8,0,1.7,0,2.5c0.2,4.4,3.3,7.7,4.6,9.8
		c0.7,0.5,1.3,1.1,1.8,1.8c1.3,1.7,3.2,3.3,5,4.6c1.5,1.2,3.8,2,4.4,4.1c-0.8,0-2-0.2-2.1,0.5c0.2,0,0.2,0.1,0.4,0.2
		c0.1,0.9-0.1,1.4-0.7,1.6c-1.1,0-2.1,0-3.2,0c-0.9,0-1.8,0-2.7,0c-1.3,0-2.6,0-3.9,0c0.1-1.3,0-2.6,0.4-3.2
		c-0.5-0.1-0.4,0.4-0.7,0.4c0-0.1,0-0.4-0.2-0.4c-0.1,0.5,0.5,0.3,0.4,0.9c-0.4-0.6-0.9,0.8-0.5,1.1c-0.2-0.6,0.5-0.2,0.5,0
		c-0.3,0.1-0.3,0.2-0.5,0c-0.2,0.6,0.6,0.1,0.4,0.7c-0.2,0-0.2-0.2-0.5-0.2c-0.2,0.6,0.5,0.4,0.5,0.7c-1.2,0-3.9-0.2-5.3,0.2
		c-0.5,0-0.9,0-1.4,0c-0.8,0-1.7,0-2.5,0c-0.5,0-0.9,0-1.4,0c-2.5,0-6.1,0-8.4,0c0,0,0,0,0,0c0,0-0.1,0-0.2,0
		c-0.2,0.8-1.4,0.5-2,0.2c0.1-2.1,0-4.6,0-7.3c-0.2-1.3,0.7-3.2-0.2-4.1c0-0.5,0-1.1,0-1.6c0.6,0.1,0.6-0.3,1.2-0.2
		c0.3-0.2,0.3-1.6,0-1.8c0-0.3,0-0.6,0-0.9c-1.7-0.4-3.3-0.3-4.1,0.7c0.4,0.1,1.2-0.2,1.2,0.2c0,0.4,0,0.8,0,1.2
		c-0.7-0.1-0.4,1-0.5,2.3c0.1,0,0.2,0,0.4,0c0.3,0.3,0.2,0.9,0.2,1.4c-0.5,1.9,1.2,3.3,0.4,5.1c0.7,0.7,0.7,1.7,0,2.5
		c0.6-0.1,0.6,0.4,0.5,0.9c-0.4,0.2,0.2,0.7,0,1.2c-0.2,0-0.5,0-0.5,0.2c0.2,0,0.2,0.2,0.5,0.2c0,0.4-0.8,0-0.9,0.4
		c-0.4,0.3-0.8,0.5-1.4,0.5c-0.4-0.2-0.8,0.6-0.9,0.2c0-0.5,0.5-2.4,0.2-1.6c-0.3,0.8-0.6,1.8-1.1,2.5c0.9,0.2,0.1,1.3,0.7,2
		c-0.1,0.3,0.4,0.8,0.4,0.4c-0.3-0.1,0.1-0.2,0.2-0.4c-0.5,0,0.1-1.1-0.4-1.1c0.2-0.5-0.3-1,0-1.1c0.2-0.2,0.7-0.1,0.7,0.4
		c0,0.3-0.6,0.1-0.5,0.5c0.5,0.1,0.5-0.2,0.9-0.2c0.1-0.3-0.2-0.9,0.2-0.9c0.4,0,0.8,0,1.2,0c0.5-0.1,0.9-0.1,0.7,0.5
		c-0.5,0.1,0.3,0.8-0.2,1.1c0,0.2-0.3,0.2-0.4,0.4c0.5,0,0.4,0.3,0.7,0c-0.4,1.2-0.3,2.1,0.2,3.2c-0.2,0.2-0.5,0.3-0.5,0.7
		c0.3,0.1,0.4,0.3,0.5,0.5c-0.8,0.3,0,0.9-0.4,1.6c-0.2,0,0,1.2,0.4,1.2c-0.8,0.5,0.4,1-0.4,1.6c0.6,1-0.3,2.5,0.5,3.5
		c-0.3,0-0.6,0-0.7-0.2c0.4,1.2,0,2.1,0.7,3c-0.3,1.8-0.2,4.4,0.2,6c-0.2,0-0.2-0.1-0.4-0.2c0.3,2.4-0.1,3.1,0.5,5
		c-0.6-0.6-0.4,1.2,0,0.2c-0.2,1.4-0.5,1.3,0,2.5c-0.5,1.6-0.2,2.9,0.2,4.6c-0.7,0.2-0.3-0.6-0.7-0.7c0.3,2,0,3.7,0.7,5.1
		c-0.8,0.1-0.1,0.6,0,0.5c-0.8,1-0.1,3.1-0.2,3.6c-0.1-0.3,0.8-0.3,0.5,0.2c-0.5-0.7-1,1.3-0.4,0.4c-0.5,0.6-0.1,1.4-0.2,2.1
		c0-0.6,0.4-0.1,0.4,0c0,0.1-0.5,0.1-0.5,0.2c-0.3,0.5,0.2,1.4,0,2.1c0.2,0.5,0.3,1,0.9,1.1c0.4-0.6-0.2-1.1,0-1.8
		c0-0.3-0.5-0.1-0.4-0.5c0.3,0.1,0.3,0.2,0.5,0c0.2-0.7-0.7-0.3-0.5-0.9c0.7,0.1,0.1-1.1,0.5-1.2c-0.2-0.1-0.4-0.2-0.5-0.4
		c0.3-0.1,0.3-0.2,0.5,0c0-2.2,0-4.5,0-6.7c-0.3-0.1-0.4,0.2-0.5,0.4c0.1-0.8,0-0.8,0.2-1.2c-0.6-0.3-0.1,0.6-0.5,0.5
		c-0.1-1.1,0.7-0.5,0.9-1.1c0-0.2,0.3-0.2,0.4-0.4c-0.4-0.1-0.1-0.8,0.2-0.4c0.1-0.7-0.7-1.2-0.2-1.8c-0.1,0-0.2,0-0.4,0
		c-0.3-0.6-1-0.8-0.5-1.4c0.4-0.2,0,1.2,0.4,0.5c-0.6-0.9,0.6-2.1-0.5-2.8c0.4-0.4,0.2,0,0.5,0.2c-0.4-0.5-0.8-2.2-0.4-3
		c0.5,0.3-0.3,0.7,0.2,0.9c0.3-0.3,0.2-0.9,0.2-1.4c-0.3-0.1-0.4,0.2-0.5,0.4c0.1-0.3-0.2-1,0.2-1.1c0.1,0.2,0.2,0.4,0.4,0.5
		c-0.4-1.7,0.2-5.3-0.5-7.5c0,1.3,0.3,1.9,0,3c-0.4-2-0.3-3-0.2-4.4c0.2,0,0.2,0.3,0.4,0.4c-0.1-0.3,0.2-0.9-0.2-0.9
		c0,0.2-0.3,0.4-0.4,0.2c0.1-0.4,0.2-0.9,0.5-0.5c-0.1-1.3,0.2-3.1-0.2-4.1c0,0.4-0.1,0.7-0.4,0.9c-0.3-0.6,0-0.9,0.5-1.1
		c-0.2-0.5,0.1-1.8-0.5-1.1c0-0.2-0.1-0.2-0.2-0.4c0.8-0.8,0.2-0.3,0-1.2c0.2,0,0.4,0.1,0.5,0.2c0.2-1-0.2-0.7-0.5-0.9
		c0.1-0.7,0.6,0.2,0.5-0.5c-0.1-0.3-0.7-0.1-0.5-0.7c0.3-0.1,0.4,0.2,0.5,0.4c-0.1-1.3,0.2-3.1-0.2-4.1c0,0.3-0.1,0.4-0.4,0.2
		c0-0.1,0-0.1,0-0.2c0.2,0,0.1-0.2,0-0.4c0.2,0,0.2,0.2,0.5,0.2c-0.1-0.4,0.2-1.2-0.2-1.2c0,0.3-0.1,0.6-0.4,0.7
		c-0.4-0.7,0.7-0.8,0.2-1.1c-0.1,0.6-0.2-0.3-0.2-0.5c0.1-0.3,0.2,0.1,0.4,0.2c-0.4-1.4,0.6-1.4,1.4-1.6c0.2-0.4-0.5-0.7,0-0.9
		c0.5-0.1,0.4,0.4,0.7,0.4c0.2,0,2.2,0.2,2.7-0.2c-0.1-0.2-0.7,0-0.7-0.4c0-0.1,0-0.1,0-0.2c0.2,0,0.2,0.2,0.5,0.2
		c0.1-0.2,0.2-0.4,0.4-0.5c0,0.1,0,0.1,0,0.2c-0.1,0.4,0.8-0.1,0.5,0.5c-0.4,0.1-0.6-0.5-0.5,0.2c0.3,0.3,1.8,0.3,2.1,0
		c-0.1-0.2-0.7,0-0.7-0.4c0.1-0.8,0.7-1.2,1.1-1.8c0.4,0.2,1,0.2,1.1,0.7c-0.7-0.1,0,1,0.2,1.2c-0.5,0-0.9,0-1.1,0.4
		c0.7,0,1.3,0,2,0c-0.2-0.4,0.5-0.7,0-0.7c0,0.1-0.1,0.2-0.2,0c0-0.2,0.2-0.3,0.4-0.4c0.4,0.4-0.4,1,0.4,1.1
		c0.2-0.3-0.1-0.9,0.5-1.1c0.1,0,0.2,0.1,0.2,0.4c-0.1,0-0.3,0-0.4,0.2c0.4,1,2,0.5,3,0.5c1.3,0,3.7,0.4,3.9,0.4
		c0.3,0,2.8-0.8,3.2-0.2c0.2,0.6,0,0.5,0,1.2c-0.2-0.2-0.7-0.2-0.7,0.2c0.4,0,0.6,0.3,0.7,0.5c-0.5-0.2-0.7-0.1-0.9,0.4
		c0.3,0,0.7-0.1,0.7,0.2c0,0.1,0,0.1,0,0.2c-0.6-0.6-0.5,0.6-0.9,0.7c-1.1,0.1-1.7-0.3-2.7-0.4c0-0.6,0-1.1-0.4-1.2
		c-0.4,0.6-0.7,2.1,0,2.3c0-0.3-0.2-0.4-0.2-0.7c0.3,0,0.6,0,0.9,0c0.5,0.3,1.4,0.5,2,0.2c-0.5,0.3,0.7,0.7,0.7,0.4
		c-0.1,0-0.3,0-0.4-0.2c0.2,0,0.5,0,0.7,0c-0.5,3.6-1.2,7-2.7,9.6c0.1,0.4,0.7,0.2,0.9,0.5c-0.7,0.2-0.3,1.5-1.1,1.6
		c0.9,0,1.9,0,2.8,0c0-0.2,0-0.5,0-0.7c0.4-0.4,0.3-0.7,0-0.9c0,0,0,0,0,0c0,0,0,0,0,0c-0.2-0.2-0.6-0.3-0.9-0.4c0-0.1,0-0.2,0-0.4
		c0.8-0.1,1.2-2.3,0.4-2.5c1-1.5,0.2-3.6,0.7-5.5c0.4,0,0.1-0.6,0.2-0.9c0.3,0,0.6,0,0.9,0c0.3,0.1,0.9-0.2,0.9,0.2
		c0,0.1,0,0.4,0.2,0.4c0.2-0.4,0.5-0.7,0.9-0.9c0,0.2-0.1,0.4-0.2,0.5c2.2-0.1,5.4,0.2,6.7-0.2c-0.2,0-0.4-0.1-0.4-0.4
		c0.4,0.3,0.7-0.3,1.1,0.2c0,0.3-0.5,0.1-0.5,0.4c1.2,0.2,1.1-0.9,1.4-1.6c-1.7-0.1-5.7-0.1-6.9,0.4c0-0.3,0.5-0.1,0.5-0.4
		c-0.6,0.2-0.8-0.1-1.1,0.2c0.8,0.1-0.4,0.5-0.5,0.2c0-0.2,0.8-0.4,0.2-0.5c-0.1,0.1-0.7,0.2-1.1,0c-0.2,0-0.2,0.1-0.4,0.2
		c-0.1-0.4-1.6,0.5-1.6-0.4c0-0.1,0-0.1,0-0.2c0-0.9,0.3-1.3,0.2-2.3c3.4-0.4,7.5-0.1,11.2-0.2c0,0.5,0,0.9,0,1.4c0,1.1,0,2.1,0,3.2
		c-0.1,1.5,0.2,3.6-0.2,4.8c0,1.1-0.8,1.6-0.9,2.7c-0.4,0.5-0.1,1.7-0.2,2.5c-0.8,0.7-2.8,0.2-4.1,0.4c-0.4,0-0.7,0-1.1,0
		c-0.4,2.7-0.1,6.1-0.2,9.1c1.9,0.2,3.9-0.5,5.7,0c-0.2,1.1-0.2,2.4-0.5,3.4c-2-0.5-1.6,1.3-3,1.4c0,0,0,0,0,0c-0.1,0-0.2,0-0.3,0
		c-1.1,0-2.2,0.1-2.8,0.5c1.8-0.1,3,0.4,4.8,0.4c-0.3,1.1,0.7,0.8,1.1,1.2c0,0.9,0,1.8,0,2.7c-3.5,0.4-7.9,0.1-11.7,0.2
		c0,0.1,0,0.2-0.2,0.2c-0.1,0.5-0.8,0.4-1.1,0.7c0,0.1,0,0.1,0,0.2c0,1.5,0,3.1,0,4.6c-2.6,0.4-6,0.1-8.9,0.2
		c-0.1,0.4,0.2,1.3-0.2,1.4c-0.5,0.2-1.1,0.2-1.8,0.2c-0.3,1.3-1.2,2-2.7,2.1c-0.1,0.6,0,1.2,0.2,1.6c1-0.1,1.5,0.4,2.3,0.5
		c0,0.4,0,0.8,0,1.2c0.8,0,1.7,0,2.5,0c-0.1,0.9,0.1,1.5,0.4,2.1c3.6,0,7.2,0,10.8,0c0,0.3,0,0.6,0,0.9c5,0.1,4.5-0.2,9.1,0.2
		c0,0.3,0,0.6,0,0.9c-7.2,0-8.5,0-15.7,0c0,2.7,0,5.3,0,8c0,0.5,0,1.1,0,1.6c3,0.4,6.7,0.1,9.9,0.2c0,0.5,0,0.9,0,1.4
		c-0.2,0.6,0.4,2.1-0.4,2.1c-4.7,0-9.3,0-14,0c-3.1,0-6.3,0-9.4,0c-2.2,1.3-2.1,5.5-1.6,8.5c2.9,0.1,6.3-0.2,8.9,0.2
		c0,0.2,0,0.4,0,0.5c-2.6,1.1-12.7-0.5-15.3,0.9c-1,2.7-4.8,2-8.7,2c-6.7,0-14.3,0-20.2,0c-4.4,1.5-4.3,10.4,0.2,11.7
		c1.6,0,3.8,0,6,0c2.1,0,4.9-0.5,6,0c0.4,0.2,0.3,0.6,0.5,0.9c5,0.1,10.5-0.2,15.3,0.2c0,0.5,0,0.9,0,1.4c3,0.1,6.5-0.2,9.2,0.2
		c-0.1,0.8,0,0.6,0.4,0.7c1.9,0.7,5.4-1,8.2,0c0.3,0.1,0.2,0.5,0.5,0.5c1.7,0.3,3.4-0.2,5,0c0.6,0.1,1.7-0.3,1.8,0.4
		c-0.1,1.1-0.3,1.8,0,2.8c0.4,0,0.7,0,1.1,0c2,0,4,0,6,0c0,0.3,0.2,0.4,0.2,0.7c0.1,0.3-0.2,1.1,0.4,0.9c0,0.1,0,0.1,0,0.2
		c0.5,0,0.9,0,1.4,0c0,0.5,0,0.9,0,1.4c-0.4,0-0.8,0-1.2,0c-0.1,0.4,0.2,1.3-0.2,1.4c-9.3,0-18.6,0-27.9,0c0,4,0,8,0,12.1
		c5.6,0,11.1,0,16.7,0c0.8,1.3,2.2,1.8,4.3,1.8c0.4,0.2,0.1,1.2,0.2,1.8c0.4,0.8,1.3,1.1,1.8,1.8c-0.2,1.2,0.4,3.1-0.4,3.7
		c-0.6,0-1.2,0-1.8,0c0,1.7-0.1,3.5,0.2,5c0.4,0.1,1.3-0.2,1.4,0.2c0.3,0.6,0.3,2.4,0,3c-4.3,0.4-9.3,0.1-13.8,0.2
		c-0.4,0.5-0.9,0.8-1.4,1.2c0,1.2,0.3,2.6-0.7,2.8c-0.8,1.9-0.2,5.2-0.4,7.6c0.4,0,0.8,0,1.2,0c0,0.2,0,0.4,0,0.5
		c0.4,0.3,0.1,1.4,0.2,2c8,0.1,16.6-0.2,24.3,0.2c2,0.9,0.7,5.1,1.1,7.6c-3,0.4-6.7,0.1-9.9,0.2c0,1.1,0,2.2,0,3.4
		c-0.1,0.4-0.9,0.1-1.2,0.2c0,0.1,0,0.2,0,0.4c-0.1,0-0.1,0-0.2,0c0,0.4,0,0.7,0,1.1c0.7,0.7-0.4,1.1-1.2,0.9c-0.2,0-0.4,0-0.5,0
		c0.1,1.3-0.2,3,0.2,4.1c0.7,0,1.4,0,2.1,0c0,1,0,2,0,3c4.3,0,8.6,0,13,0c0.3,0.5,0.3,2.2,0,2.7c-0.6,0.8-1.6,1.2-2.1,2.1
		c-0.1,1.7,0.2,3.8-0.2,5.1c-1.8,0-3.6,0-5.3,0c-0.1,0.4,0.2,1.3-0.2,1.4c-6,0-12,0-17.9,0c0,0.9,0,1.9,0,2.8
		c0.9,0.1,2.2-0.2,2.8,0.2c0,0.9,0,1.8,0,2.7c3,0,5.9,0,8.9,0c0.4,0,0.7,0,1.1,0c2.3,0.1,5.3,0,8.2,0c0,0.3,0,0.6,0,0.9
		c-0.4-0.1-0.5-0.4-1.1-0.4c-0.6,0.8-1.4,1.5-2.3,2c-0.4,1.5,0.9,2.6,1.2,3.9c-0.7,0.5-0.7-0.3-1.4-0.4c-0.4,0.9-0.6,2-1.8,2.1
		c0.1,0.7-0.3,0.9-0.2,1.6c0.1,0.4,0.5,0.4,0.7,0.7c0.5,1.3-0.6,1.8-0.7,2.7c-0.2,1.6,0.9,2.4,1.8,3.7c-0.2,0.3-0.7,0.4-0.9,0.7
		c0.2,1.7,0.7,2.9,2.3,3.6c0.7-0.7,2.1-0.6,2.7,0.2c-0.4,0.8-0.9,1-1.8,0.5c-0.7,0.5-0.8,1.6-1.8,1.8c-0.4,2.2,1.5,2.1,1.6,3.7
		c-0.4,0.1-0.7,0.3-1.2,0.2c0.1-0.4,0-0.7-0.2-0.9c-1,0.1-1.3,0.8-2.3,0.4c-0.4,0.6-0.8,1.1-1.6,1.2c0.4,0.9-0.2,0.9-0.4,1.6
		c0.1,0.3,0.8,0,0.9,0.4c-0.3,1.2-0.7,2.3-1.8,2.8c0.1,1.4,0.8,1.9,0.5,2.8c1.8,0.6,2.9,0.8,2.8,3.2c-0.6-0.1-1,0.1-1.4,0.2
		c0.3,1,0.6,0.9,0,1.8c0.9,1.2,0.6,2.7,1.4,4.1c0.9,0.1,1.5,0.5,2.1,0.9c0.7-0.5,1.9-0.5,2.8-0.7c0.1-0.7,0.2-1.3,0.7-1.6
		c3.3,0.8,7.4,0.8,11.2,1.2c-0.8,0.4-0.8,1.5-1.1,2.3c0.7,0.5,0.3,1.5,0.5,2.7c-0.5,0.3-0.9-0.2-1.4,0.2c0.4-0.4,0-0.8-0.2-1.1
		c-1.8,1.1-5.9,0.8-8.5,0.5c0.2-1-0.7-0.9-0.5-1.8c-1.1,0.1-1.3-0.7-2.1-0.9c-0.3,0.7-0.8,0.8-1.6,0.5c-0.4,0.6-0.8,1.2-1.6,1.4
		c1,2-2.1,1.8-2.3,3.4c-0.2,1.4,1.9,3.8,3,4.1c0.4,0,0.2-0.7,0.5-0.7c1.7,1.5,1.5-1.4,3-1.8c0.3-0.1,1.7,0.1,2.5,0.2
		c2.5,0.2,4.5,0,5.5,0.9c-0.3,0.9-0.8,0.7-1.6,0.9c0.3,1.2-0.4,1.9-0.4,2.8c-2-0.2-4.6,0.1-4.4-2.3c-2.8,0-4.3,1.2-3.7,3.6
		c0.6,0.7,1.8,0.8,2.7,1.2c0.4-0.3-0.1-1.4,0.5-1.4c1.5-0.2,4.4-0.7,6.2,0.2c-1.1,0.9-1.4,2.5-2.1,3.7c0.5,0.7,0.9,1.5,0.7,2.8
		c0.8,0.3,2.2,0,1.8,1.4c-1.1,0.5-2.3-0.2-3.5,0c-0.3-0.8-1.1-1.2-1.2-2.1c-0.6-0.1-0.4,0.5-1.1,0.4c0.1-0.7-0.1-1-0.7-1.1
		c-1,0.1-0.9,1-2.1,0.5c-0.4,1.2-1.4,1.8-1.6,3.2c1.2,0.6,1.1,2.3,2.5,2.7c0.4-0.1,0-1,0.5-0.9c0.5,1.1,2.4,0.1,2.8-0.5
		c0.4-0.2-0.4-0.8-0.4-1.2c1.6,0.2,3.5,0.1,4.8,0.7c0.1,0.9,0.1,1.5,0.2,2c0.6-0.3,1.8-0.3,2,0.4c-0.5,0.9-1.4,1.5-1.6,2.7
		c0.7,0.5,1.5-0.2,2.1-0.4c0.1,0.4,0.4,0.7,0.4,1.2c-1.5,0.6-3-0.4-4.6-0.4c-0.1-1.5-1.6-1.7-2-3c-0.8,0.1-1.3,0.3-2.1,0
		c-0.8,1.1-2.4,1.5-2.1,3.7c0.7,0.2,0.8,1,0.9,1.8c-2-0.2-4.3-0.3-5.7-0.5c0-0.6,0.5-0.6,0.4-1.2c-1.1-0.1-1.3-0.9-2-1.4
		c-0.2,0-0.4,0-0.5,0c-0.1,0.4-0.2,1-0.2,1.6c-0.7,0.1-1.4,0.1-1.8,0.5c0.3,1.1,0.7,1.3,0,2.1c0.2,0.5,0.9,0.2,1.1,0.4
		c-0.2,0.5-0.2,1.1,0.2,1.4c1.5-0.3,2.7-1,3.6-2c5.6,0.4,11.4,0.5,16.7,1.2c0,1-0.9,1.8,0,2.8c-1,0.3-1.6,2-0.9,3
		c-1.8-0.2-3.8-0.4-3.2-2.5c-1-0.9-2.1,0.5-2.8-0.5c-0.5,0.5-0.6,0.5-1.2,0.2c-2.3,1.8-2.2,4.2,0.2,5.7c0.6,0.1,0.4-0.6,1.1-0.5
		c0.4,0.4,0.5,1,1.4,0.9c0.7-0.9,1.7-1.4,2.1-2.5c0.8,0.1,2-0.2,2.5,0.2c-1.7,1.3-0.6,3.6,1.2,3.9c-0.5,1.1,0.2,1.5,0.4,2.3
		c-1,0.9-3.3,0.4-5.1,0.5c0.1-0.9-0.5-1.5-1.2-1.4c0-0.6,0.6-0.6,0.5-1.2c-2.7-0.5-5.1,0-5.1,3c-3.3,1.6-3.9-2.3-6.7-2.3
		c-0.1,0.4-0.3,0.7-0.2,1.2c-0.4-0.1-0.7-0.3-1.1,0c-0.2,0.9,0.7,0.6,0.7,1.2c-0.4,0.3-1.1,0.3-1.1,1.1c0.6,0.6,1.4,1.3,2.5,0.9
		c-0.3,0.7-0.9,1-0.9,2c0.2,0.2,0.6,0.2,1.1,0.2c0-1.2,1.1-1.3,1.8-1.8c0.2-0.5-0.5-0.8,0-1.1c1.4,0.7,4.2-0.8,5,0.7
		c-1.5,1.4,0.1,2.7,0.2,4.4c0.6,0.4,0.8-0.4,1.2,0c1,2.4-1,3.5-1.8,5.1c0.8,1.1,1.3,2.6,2.7,3.2c0.2,2.3,1.9,3,3.9,3.5
		c0.2-0.9,0.4-1.7,0.9-2.3c1.3,0.3,2.9,0.1,3.9,0.4c0.1,1.1-1.2,0.8-1.4,1.6c0.1,0.7,0.8,0.8,1.6,0.9c1,0,2.1,1.4,0.9,2
		c-2.7,0.1-6.8,0.5-8-1.4c-0.7-0.1-0.7,0.6-1.2,0.7c0-1,1.2-0.9,1.2-2c-0.1,0-0.2-0.1-0.2-0.4c-1.3-0.2-1.7,0.4-2.3,0.9
		c0.1-0.5-0.2-0.5-0.2-0.9c-0.6,0.2-1.1,0.6-1.8,0.7c-0.3,0.7-0.4,1.6-1.1,2c0.7,1.5,1.1,4.1,3.6,3.4c0.6-1-0.1-1.5,0.2-2.3
		c0.6,0.3,0.7,1.1,1.1,1.6c0.3,0,0.6,0,0.9,0c0.5-0.2,0.2-1.3,0.5-1.6c1.1-0.2,1.9,0.8,2.8,0.2c0.1,0,0.1,0,0.2,0
		c1.8-0.5,3.3,0.5,5.3,0c1.5,1.1,2.3,2.9,4.1,3.4c0.3,0.1,0.8,0,1.3,0V258.9c-1,0.6-2.1,1.1-3.4,1.3
		C136.2,260.5,134.5,260.5,134.1,260.2z M93.1,335.5c-0.3-0.2-0.1-1.1-0.4-1.4C93.3,334.1,93.2,335.4,93.1,335.5z M119.6,314.9
		c0.1-0.6,0.6-0.1,1.2-0.4C120.8,315.1,120.1,314.9,119.6,314.9z M118.1,314.6c-0.4,0.5-1.1,0.2-1.8,0.2c0.1-0.6,1.2,0.1,0.9-0.4
		C117.4,313.9,117.7,314.7,118.1,314.6z M124,313.8c-0.6,0.3-1.5-0.2-2.1,0.4c0-0.1,0-0.2,0-0.4c-0.2,0-0.2,0.1-0.2,0.2
		C121.2,313.5,123.6,313.6,124,313.8z M124,584.2c-0.1-0.5,0.4-0.5,0.7-0.5C124.8,584.3,124.3,584.6,124,584.2z M132.2,598.6
		c0,0.9-0.2,1.5-0.5,2c-0.8,0-1.7,0.1-2.3-0.2c-0.1-0.6,0.6-0.4,0.5-1.1c-0.2-0.4-0.7-0.5-1.2-0.5c-0.1-0.3,0.2-0.3,0.2-0.5
		C129.9,598.4,131.1,598.4,132.2,598.6z M130.6,593.8c-0.8,1.2-0.4,1.8-0.5,3.4c0.7,0,1.2-0.8,1.6,0c-1.5,0.8-4-0.3-5.3-0.9
		c0.7-0.6,2.2-1.6,1.2-2.8C127.9,593.5,129.7,593.6,130.6,593.8z M130.7,592.8c-0.5,0-1,0.1-1.2-0.2c0.1-0.8,0.3-1.3,0-2.1
		c0.4-0.5,0.8-0.1,1.4-0.4C131.4,591,131.1,591.8,130.7,592.8z M130.6,589.2c-1.6,0.3-3.5-0.6-5-1.1c0.1-0.6,0.6-0.9,0.7-1.4
		c1.6-0.2,3.9,0.4,4.4-0.9C131.7,586.4,130.9,588.3,130.6,589.2z M130,568.1c-0.5,0.6-0.5,1.8,0.5,1.8c-2.3,0.5-4.7-0.5-7.3-0.4
		c0.1-0.7,0.5-1.2,0.5-2C125.5,568.1,127.8,568.1,130,568.1z M127,544.8c0,0.4-0.4,0.4-0.9,0.4c0-0.2,0-0.4,0-0.5
		C126.5,544.6,126.8,544.7,127,544.8z M126.8,542.5c-0.8,0.7-2.4,1.2-2.1,2.3c-2.2,0.5-4.7-0.2-6.7-0.5c0-0.2,0-0.4,0-0.5
		c0.7,0.4,1.2-0.1,1.8-0.4c0.3-0.6-0.6-0.9-0.2-1.1C122.2,542.3,124.8,542.4,126.8,542.5z M131.1,540.9c-0.8-1-0.7-2.5,0-3.6
		C131.9,537.8,132.1,540.7,131.1,540.9z M131.8,533.1c-0.1,0.8,0.2,2-0.2,2.5c-4.6-0.2-9.2-0.5-13.3-1.2c0-0.1,0-0.2,0-0.4
		c0.5-1.1,2.1-1,2.8-1.8C124.7,532.6,129.3,531.8,131.8,533.1z M131.3,527.8c-0.2,0.6-0.8,0.9-0.9,1.6c0.2,0.7,0.7,1,1.4,1.2
		c-0.4,1.1-1.6,0.4-2.5,0.4c-2.6-0.2-5.8-0.1-8.5-0.5c-0.3-0.6-0.2-1.6-0.7-2c-2.2-0.4-3.7-0.1-4.6,1.2c-0.6-0.1-1-0.4-1.4-0.7
		c0.8-0.4,0.2-1.2,0.7-1.6c1.1,0.3,1.9,0.1,2.1-0.9C121.2,527.5,127,526.9,131.3,527.8z M132,523.2c-0.2,1.8-2.7,1.3-3.7,2.3
		c0.2,0.3,0.3,0.6,0.9,0.5c-3.6,0.7-8.6-0.2-12.4-0.4c-0.3-0.3,0-0.9,0.2-1.2c-0.1-0.4-0.7-0.4-1.1-0.5c0.3-0.8,1.1,0.1,1.6-0.4
		c0.3-0.9-0.6-0.6-0.5-1.2C121.2,521.9,127.5,522.5,132,523.2z M132.7,512.9c0.3,2.4,0.1,5.2,0,7.3c-0.1,0.3-0.8,0-0.9,0.4
		c-0.3,1.1,1.2,0.3,1.1,1.2c-4.7,0.2-9.9-0.8-15.1-0.7c0.2-0.9-1.1-1.9,0.2-2.5c0.7,0.4,1.4,0.9,2.5,0.9c0-1.1,1.2-1.2,1.4-2.5
		c2.5,0.1,6,0.3,8.5,0.4c0.7,0,1.7,0.7,2-0.4c-1.6-1.3-4.8-0.5-7.5-0.7c-1.2-0.1-2.4-0.5-3.4-0.5c-0.4-0.4,0.4-0.7,0.2-1.4
		c-0.5-0.8-1.5-0.1-2.1,0c0.2-1.4-0.4-2.2-0.4-3.4c3.7,0.3,7.4,0.6,11.2,0.9c0.4,0.7,0.3,2,1.1,2.3
		C132.1,513.7,131.3,512.7,132.7,512.9z M132.5,507.2c0.2,1.1,0.6,2.7,0.4,3.7c-0.2,0-0.5,0-0.7,0c-0.9,0,0-0.7-0.5-1.1
		c-0.8,0.1-0.1,0.9-0.7,1.1c-3.4-0.6-7.7-0.2-10.8-1.1c0.2-1.1-0.5-2.5-2.1-1.8c0.1-1.1,1.1-1.2,1.6-2
		C123.6,506,128.4,506.7,132.5,507.2z M126.5,502.6c0,0.4,0,0.7,0,1.1c1.9,0,3.8,0,5.7,0c0,0.8,0.3,1.4,0.2,2.3
		c-4.5-0.2-8.7-0.8-13.1-1.1c-0.6-0.6,0.4-1.3-0.9-1.6C119.5,500.8,123.7,502.9,126.5,502.6z M117.6,502.4c-0.5,0.1-0.5-0.2-0.9-0.2
		C116.6,501.5,117.9,501.8,117.6,502.4z M119,494.8c-0.1-0.7,0.9-0.7,0.7,0C119.5,494.8,119.3,494.8,119,494.8z M124,496.7
		c-0.4,0-0.8,0-1.2,0c0,1.5,0,3,0,4.4c-1.4,0.1-2.4-0.2-3.7-0.2c0.1-0.6,0.3-1,0-1.6c-0.7-0.5-2.2,0.7-2-0.9
		c0.9-0.2,0.9,0.5,1.8,0.4c0.5,0,0.3-0.7,0.4-1.2c0.5,0.2,0.9,0.4,1.2,0.7c1.2-0.3,0-1.6,0.4-2.1C121.8,496.4,123,496.4,124,496.7z
		 M124.9,494.1c0,0.5,0,1.1,0,1.6c-1.3,0.1-1.8-0.5-3.2-0.4c-0.4-0.5,0.2-0.9-0.4-1.2C122.5,494.1,123.7,494.1,124.9,494.1z
		 M117.8,309.4c0.1,0,0.1,0,0.2,0c0.1,0.2,0.3,0.3,0.2,0.7c-0.2,0-0.4,0-0.5,0C117.6,309.8,117.6,309.6,117.8,309.4z M103.9,309.9
		c0.1,0,0.1,0,0.2,0c0.4,0.2,1.6-0.8,1.6,0.2C105,309.9,103.8,310.6,103.9,309.9z M109.8,309.8c0,0.8-1.5,0-1.8,0.5
		C107.7,309.6,108.9,309.9,109.8,309.8z M116.5,310.1c0.2-0.6,0.4-0.1,0.9-0.4c0,0.2,0,0.4,0,0.5C117,310.4,117,310,116.5,310.1z
		 M126.7,310.3c-0.2,0-0.4,0-0.5,0c-0.7,0-1.5,0-1.6-0.2c0-0.1,0-0.1,0-0.2c0.8,0.5,1-0.5,1.6-0.7
		C126.5,309.4,126.8,309.6,126.7,310.3z M108.5,308.9c0-0.2,0.3-0.3,0-0.4c0,0.4-0.8,0-0.9,0.4c-0.2,0-0.2-0.3-0.2-0.5
		c0.4-0.4,0.8,0.2,1.1-0.2c0.4,0.3,1.1-0.3,1.6,0.2c-0.4-0.1-0.2,0.5-0.5,0.5C109,308.7,109.2,308.9,108.5,308.9z M103.9,308.9
		c-0.1,0-0.2,0-0.4,0c0-0.2,0-0.5,0-0.7c0.4,0,0.7,0,1.1,0C104.8,308.8,104,308.5,103.9,308.9z M112.8,308.7c0-0.5-0.3,0.2-0.7,0
		c0.2-0.8,1.6-0.8,1.1,0.2c-0.2,0-0.4,0-0.5,0C112.6,308.7,112.7,308.7,112.8,308.7z M96.3,308.3c0.3-0.3,0.4,0,0.9,0
		c0,0.3-0.5,0.1-0.4,0.5C96.4,308.9,96.3,308.7,96.3,308.3z M98.4,308.9c-0.1,0-0.2-0.1-0.2-0.4c-0.1,0-0.2,0.1-0.2,0.4
		c-0.1,0-0.2,0-0.2-0.2c-0.1,0-0.2,0.1-0.2,0.4c-0.1,0-0.1,0-0.2,0c0-0.2-0.3-0.2-0.5-0.2c0.3-0.5,1-0.6,1.6-0.7
		C98.6,308.5,98.6,308.7,98.4,308.9z M101.3,308.3c0.3,0,0.5,0.1,0.5,0.4c0.3-0.1-0.1-0.2,0-0.5c0.7-0.2,0.4,0.5,0.9,0.5
		C102.5,308.8,101.3,309.2,101.3,308.3z M104.5,308.9c0.5-0.8,0.6-0.8,1.8-0.5c-0.1,0.4-0.5,0.4-0.7,0.5
		C104.7,308.2,105.6,309,104.5,308.9z M123.5,308.5c0,0.1,0,0.1,0,0.2c-0.4,0.1-0.6-0.9-0.9-0.4c0.2,0,0.2,0.5,0,0.5
		c-1.1-0.3-1.2,0.1-1.8-0.4c0.1-0.3,0.9-0.7,1.1-0.4c0,0.2-0.3,0.2-0.4,0.4C122.1,308.4,123.2,307.5,123.5,308.5z M118.1,308
		c0.2,0,0.4,0,0.5,0c0.3,1.2-0.2,0-0.4,0.7c-0.4,0.5-0.8-0.2-1.2,0.2c-0.2-0.5,0-0.1-0.7,0c0.1-0.5-0.5-0.3-0.4-0.9
		C117,308,117.5,308.4,118.1,308z M111.2,279.4c0.2-2,1.3-4.2,2.5-5.9c0.9-1.3,2.4-4.4,4.4-2.5c-1.9,2.8-5.9,5-6.7,9.4
		c0.1,0.3-0.2,0.3-0.2,0.5C110.9,280.9,110.9,279.5,111.2,279.4z M111.4,282.2c-0.2-4.3,4.3-7.6,7.1-9.9c-0.1,1.6,0.4,2.6,0,3.9
		c0.1,1.5-0.1,2.8-0.2,4.1c0.6,2.9-0.5,5.6,0.5,8.7c0.4,0.1,0.6,2.2,0,1.6C116.4,289.1,111.5,285.7,111.4,282.2z M115.8,293.3
		c-2.2-1.2-3.7-4.7-4.4-8c-0.4-0.1-0.1-0.9-0.2-1.2c0.5,0.2,0.6,0.8,0.9,1.2c1.6,2.7,4,4.5,6.7,6c0.6,0.1,0.4,1.9,0.2,2.3
		c-0.2,0.4-0.1,1.2-0.4,1.6C117.3,296.1,115.7,294.3,115.8,293.3z M125.1,302c-3-1.7-5.4-4.8-4.1-9.2c1.4,0.5,2.5,1.3,3.9,1.8
		C124.6,297,124.7,299.5,125.1,302z M124.3,277.1c0.6,0.4,2,0,2.7,0.4c-0.1,2,0.3,3.5,0.4,5.3c-0.8-0.1-1.1,0.3-2,0.2
		c0,0.3,0,0.6,0,0.9c-0.1,0.5,0.2,1.5-0.2,1.8c0.1,0.4-0.1,0.5-0.2,0.7c0.7,0.3,1.7,0.3,2.5,0.5c0.1,1.1,0.1,1.7-0.2,2.7
		c-1.2-0.1-1.5,0.6-2.5,0.7c0,1.1,0.5,2.4,0,3.4c-1.2-0.4-2.1-1.2-2.8-2.1c0.2-0.7,1.3-0.5,1.1-1.6c0.1-0.6-0.2-1.7,0.2-2
		c0-0.3,0-0.6,0-0.9c-0.3-0.2-0.3-1.6,0-1.8c0-0.1,0-0.2,0-0.4c-0.4-2.2-0.1-5.3-0.2-7.8c-0.1-1.4,0.1-3.1-0.7-3.7
		c-0.5-0.2-1.8-0.6-1.1-1.4c0.2-0.3,0.2-0.8,0.4-1.2c0.6-1,1.3-2,2.7-2.3C124.3,271.3,124.3,274.2,124.3,277.1z M126.3,268
		c-0.2,0.4-1.1,0.1-1.6,0.2c0.2-0.4,0.5-0.6,1.1-0.7c0.2,0,0.3,0,0.4-0.2C126.4,267.4,126.3,267.8,126.3,268z M126.5,262.7
		c-0.1,1,0.2,2.5-0.2,3.2c0,0.1,0,0.2,0,0.4c-1.9,1.3-4,2.4-6,3.5c0-0.6-0.3-0.9-0.4-1.4c0.5-1.9,1.9-2.9,3.2-4.1
		c1.3-0.6,2-1.7,3.4-2.1C126.5,262.4,126.5,262.5,126.5,262.7z"/>
	<g>
		<path fill="#E4BA27" d="M3.1,13.1c9.9-0.1,32.1,1.3,32.1,1.3L40,16c0,0,3.4,1.1,6.3,1.2c3.2,0.1,6.4,0.1,9.7,0.2
			c3.4,0.9,8.6,0.3,12.6,0.3c8.5,0.1,16.9,0.1,25.4,0.2v6h2.6v1.9H83.7v9.3c2.6,0.1,5.3,0.1,7.9,0.2v3.3h14.7v2.8
			c-1.6,0-3.3,0-4.5,0.3v2.4c-0.1,0.1-0.2,0.1-0.3,0.2c-2.1,0.1-4.3,0.1-6.4,0.2c-1.5,0.7-3,1.4-4.5,2.1c-1.6,0.1-3.1,0.1-4.7,0.2
			v0.9h-8.5v1c5.4-0.1,10.2-0.2,12.9,2.6v1.4h20.4v0.5h-2.2v2.9h-4.5v4.3h-4V62H97v3.5h6.2v4.1H90.3v1.9h-2.6v2.2h-2.6v2.1
			c1,0.1,1,0.3,1.6,0.7c0.1,0.7,0.1,1.5,0.2,2.2c1.5,0.5,3,0.9,4.5,1.4v2.1h17.6c-0.1,0.5-0.2,1.1-0.2,1.5c0,0.4-0.1,0.8-0.2,1.2
			c-0.2,1-0.3,2.1-0.6,3.1c-0.1,0.9-0.2,1.6-0.5,2.3v0.4c-0.1,0.2-0.1,0.4-0.2,0.5c0.1,0.5-0.1,1-0.3,1.4c-0.1,1.2-0.4,1.7-0.5,2.8
			c-0.5,1.7-0.8,3.7-1.3,5.4c-0.4,1.8-0.9,3.6-1.5,5.3c-1,3.5-2.1,6.8-3.4,10c0,0.2-0.3,0.1-0.2,0.4c-0.3,0-0.5,0-0.6,0.2
			c-0.2,0-0.6-0.2-0.7,0.1c0,0.4,0.4,0.4,0.6,0.2c0.2,0.1,0.3,0.3,0.7,0.2c0.1,0.6-0.2,1-0.4,1.4c-0.3,0-0.5,0.1-0.6,0.2
			c-0.3-0.1-0.7-0.2-0.7,0.2c0,0.3,0.4,0.2,0.6,0.1c0.2,0.2,0.4,0.2,0.7,0.3c0,0.5-0.2,1.3-0.3,1.8c-0.1,0.2-0.2,0.4-0.4,0.6
			c-0.2,0-0.5,0-0.5,0.2c-0.2-0.1-0.7-0.3-0.8,0.1c0,0.1,0.1,0.1,0.1,0.3c0.2,0.2,0.5-0.1,0.6,0c0.2,0,0.1,0.3,0.3,0.2
			c0.2,0,0.3,0,0.4,0.1c-0.1,0.5-0.1,1.2-0.5,1.5c-0.3,0.1-0.5,0-0.6,0.3c-0.2-0.2-0.9-0.3-0.8,0.3c0.1,0,0,0.1,0.1,0.1
			c0.2,0.2,0.4,0.1,0.6-0.1c0.2,0,0.2,0.2,0.3,0.3c0.5-0.1,0.4,0.3,0.9,0.2c0.1,0.2,0.3,0.3,0.4,0.5c0.1,0.1,0.3,0,0.4,0.1
			c2,1.8,3.9,3.6,5.9,5.5c0.9,1,1.9,1.9,2.8,3c0.5,0.5,1,1.2,1.4,1.8h-1v0.9h-2.6v1.9h-1.7c0.1,0.7,0.1,1.5,0.2,2.2
			c0.6,0.8,2.8,0.6,4.1,0.5c0.1,0.7,0.2,1.4,0.3,2.1c1,0.9,13.2,0.4,15.7,0.3v1.9c-0.7,0.1-1.5,0.2-2.2,0.3v0.9h3.1
			c-0.2,0.6-0.3,1.3-0.5,1.9c-1.4,0.2-2.9,0.5-4.3,0.7c-0.2,1.4-0.3,2.9-0.5,4.3c2.8,0.2,3.5,1.1,5.4,1.7c-0.1,0.9-0.2,1.7-0.3,2.6
			c-1.6,0.2-3.1,0.3-4.7,0.5c-0.7,0.8-0.1,3.8,0,5.4c1.5,0.1,3,0.1,4.5,0.2c0.2,0.7,0.3,1.4,0.5,2.1v0.2c-1.2,0.1-2.3,0.1-3.5,0.2
			c-0.1,0.6-0.1,1.1-0.2,1.7c-0.8,0.1-1.6,0.1-2.4,0.2c-0.1,1-0.1,2-0.2,2.9c-2.8,0.1-5.6,0.1-8.5,0.2c-0.1,0.1-0.2,0.2-0.3,0.3v1
			c0.5,0.3,1.1,0.4,2.1,0.3v1c0.7,0.1,1.5,0.1,2.2,0.2v1.7c0.9,0.1,1.8,0.1,2.8,0.2c-0.1,1.6,0.2,1.9,1.7,1.9v0.7
			c-2,0.1-2,1-3.1,1.6c-2.4,0.1-4.7,0.1-7.1,0.2c-2.1,0.3-4.1,0.6-5.9,1c-0.1,0.1-0.1,0.2-0.2,0.3c3.6,0.4,8.1,1.2,12.6,1.2
			c0.4,1.7-0.3,2.8-0.3,4.8c1.7,0.5,2.3,1,4.3,1v1.6c-2.9,0.1-5.9,0.2-8.8,0.3c-0.4,1-2,2.1-3.1,2.4v3.1h7.6v1.7
			c-6.4,0.1-12.8,0.1-19.2,0.2c-0.1,0.5-0.2,0.9-0.3,1.4c-3.5,0.3-7,0.6-10.5,0.9c3,1.1,9.9-0.6,11.4,2.1c7.2,0.2,14.5,0.3,21.8,0.5
			c0.1,1.8,0,3.9-0.9,4.8c-0.7,0.6-1.8-0.1-2.8,0.3c-1,0.5-0.5,1.4-2.2,1.6v1.2c0.7,0.1,1.5,0.1,2.2,0.2c0.1,0.7,0.1,1.4,0.2,2.1
			c0.4,0.4,0.7,0.4,1.6,0.3c0.2,0.1,0.3,0.2,0.5,0.3v1.2c-1,0.1-2.1,0.1-3.1,0.2c-0.1,1.4-0.4,4.2,0.5,4.7v1c-2.1,0.3-4.3,0.7-6.4,1
			c-0.6,0.7-0.4,3.1-0.3,4.3c2.4,0.7,4.5,1.4,7.6,1.4v4c-3.5,0-8.4,0-10.5,1.6c-1.1,0.7-1.1,2.4-1,4.3c0.5,0.1,0.9,0.1,1.4,0.2v2.1
			c-2.3,0.1-4.6,0.1-6.9,0.2c-2.9,0.4-5.8,0.8-8.6,1.2c0,2.3-1.3,5.9-0.3,7.4c2.5,3.3,19.2,2.2,25.5,2.1c0.3,1.9,0.6,3.8,0.9,5.7
			c4.8,0,7.4,2.4,10.9,3.3c3.8,0.9,8.3,0.9,13.1,0.9V-1.8c-11.5,0.2-23.1-0.4-34.6-0.7l0.1,4.2c0,0-13.4,0-20,0
			c-0.1,1.2-0.3,3.5,0.3,4.1C86.7,5.9,87.6,6,88.5,6v2.4H66.1c-3.1,0-7.4-0.4-9.7,0.5h-9c-0.3,0.3-0.6,0.6-0.9,0.9
			c-1.9,0.1-3.8,0.2-5.7,0.3c-1.6,0.7-3.3,1.5-5.7,1.9c-6,1-12,0.9-18.3,0.9C14.1,13,5.9,13,3.1,13.1z M114.9,98.5v-0.3h0.1
			C115,98.3,115.1,98.6,114.9,98.5z M114.6,123.5c0.6-0.2,0.9-0.4,1.6-0.6c-0.1,0.3-0.4,0.3-0.7,0.4c-0.3,0.1-0.5,0.2-0.7,0.3
			c0,0.1,0.1,0.3-0.1,0.3C114.5,123.9,114.6,123.6,114.6,123.5z M114.3,131.1c0.2-0.1,0.2,0.3,0.1,0.2
			C114.3,131.3,114.4,131.2,114.3,131.1z M114.5,132.4c0,0.1,0.1,0.3-0.1,0.2v-0.2H114.5z M114.4,129.9v-0.2
			C114.6,129.6,114.6,129.9,114.4,129.9z M114.4,128.4c0-0.4,0.3-0.3,0.6-0.4c0.1-0.1,0.3-0.2,0.4-0.1c0-0.2,0.3-0.2,0.3-0.1
			c-0.4,0.1-0.8,0.2-1.1,0.4c0.3,0.2,0.7,0.3,1,0.4c0,0,0.3,0.1,0.1,0.1C115.2,128.7,114.8,128.5,114.4,128.4z M114.7,129.6
			C114.7,129.7,114.6,129.7,114.7,129.6c0.2-0.1,0.6-0.4,0.9-0.3c-0.1,0-0.1,0.1-0.2,0.1C115.1,129.4,115,129.6,114.7,129.6z
			 M115.2,129.8c-0.2,0-0.3,0-0.4-0.1C115,129.8,115.1,129.7,115.2,129.8z M115.3,129.8c0.1,0,0.4,0,0.2,0.1
			C115.4,129.8,115.1,129.8,115.3,129.8z M115.5,129.1C115.5,129.1,115.4,129,115.5,129.1C115.5,129,115.6,129,115.5,129.1z
			 M115.3,129.1c-0.1,0-0.2,0-0.1-0.1C115.3,129,115.4,129,115.3,129.1z M114.7,129c0.1,0,0.5,0,0.4,0.1h-0.3
			C114.7,129.1,114.6,129,114.7,129z M115.5,128.2C115.7,128.3,115.3,128.3,115.5,128.2L115.5,128.2z M115.2,128.3
			c-0.1,0-0.4,0.1-0.3,0C115,128.2,115.4,128.2,115.2,128.3z M114.8,128.3C114.7,128.3,114.6,128.2,114.8,128.3
			C114.8,128.2,114.8,128.2,114.8,128.3z M116.2,127.9c0.1,0,0.3,0,0.2,0.1C116.3,128,116.1,127.9,116.2,127.9z M116.3,128.4
			C116.5,128.5,116.1,128.5,116.3,128.4L116.3,128.4z M115.1,119.3c0.4,0,1-0.1,1.4,0.1C116.1,119.4,115.3,119.4,115.1,119.3
			c0,0,0,0.1-0.1,0.1c0.4,0.3,1.1,0.4,1.4,0.8c-0.6-0.1-0.9-0.6-1.6-0.6v-0.4c0.2,0,0.2-0.1,0.3,0c0.1-0.3,0.5-0.2,0.6-0.4
			c0.3,0,0.5-0.2,0.8-0.3c-0.1,0.3-0.5,0.3-0.8,0.5C115.6,119,115.2,119,115.1,119.3z M115,126.3c0.1,0,0-0.2,0.1-0.2h0.6
			c0.1,0.1,0.5-0.1,0.5,0.1C115.9,126.2,115.3,126.4,115,126.3z M116.1,125.9C116.3,125.8,115.8,126.1,116.1,125.9L116.1,125.9z
			 M115.4,124.6c-0.1,0-0.2,0-0.1-0.1c0.2,0,0.8-0.1,0.7,0.1H115.4z M115.9,126.6C116.1,126.7,115.7,126.7,115.9,126.6L115.9,126.6z
			 M116,127.3c-0.5-0.1-0.9-0.2-1.2-0.5C115.2,126.9,115.6,127,116,127.3z M115.8,127.5h-1.1c-0.1,0-0.1,0-0.1-0.1h0.9
			C115.7,127.4,116,127.4,115.8,127.5z M114.5,126.5c0.2-0.1,0.1,0.2,0.3,0.1c0.3,0,0.8-0.1,1,0.1h-1.1c-0.1,0,0,0.2-0.2,0.1
			C114.5,126.6,114.5,126.6,114.5,126.5z M114.6,124.5v-0.2c0.6,0,1.1-0.1,1.6,0.1c-0.3,0-0.2,0-0.1,0.1H114.6L114.6,124.5z
			 M114.9,123.7c0.1,0.2,0.5,0.1,0.5,0.3c-0.3,0-0.4-0.1-0.6-0.2v-0.3c0.4,0,1-0.1,1.3,0.1C115.8,123.7,115.2,123.7,114.9,123.7z
			 M115.9,124.3c-0.2,0-0.4-0.1-0.5-0.2C115.6,124.1,115.8,124.2,115.9,124.3z M116.1,122.7H115c-0.1,0-0.1,0-0.1-0.1h1
			C116,122.6,116.3,122.6,116.1,122.7z M114.7,122.6c0.1,0,0.1,0,0.2,0.1c0,0-0.1,0-0.1,0.1C114.7,122.7,114.6,122.7,114.7,122.6z
			 M114.7,121.4c0.6-0.1,1-0.5,1.7-0.6c-0.1,0.3-0.5,0.3-0.7,0.4c-0.1,0.1-0.2,0.1-0.4,0.2c-0.1,0.1-0.4,0-0.4,0.2h1.3
			c0.2,0.1-0.2,0.1-0.3,0.1c-0.1,0.1-0.3,0-0.5,0.1c-0.2-0.1-0.4-0.1-0.5,0c0,0.1,0,0.1,0.1,0.1h0.1c0.2,0.1,0.4,0.2,0.6,0.3
			c0.2,0.1,0.5,0.1,0.6,0.3c-0.4-0.1-0.6-0.3-1-0.4c0-0.2-0.3,0-0.3-0.2c-0.1,0.1-0.1,0-0.3,0C114.7,121.8,114.7,121.4,114.7,121.4z
			 M114.8,120.4c0.5,0,1.2-0.1,1.6,0.1c-0.2,0.1-0.8,0-1.2,0C115,120.5,114.8,120.7,114.8,120.4z M114.8,103.2
			C115,103.2,114.6,103.2,114.8,103.2L114.8,103.2z M116.6,118.1c-0.3,0.1-0.8-0.1-1.2,0c-0.2-0.1-0.5,0.1-0.5-0.1
			C115.4,118.1,116.1,118,116.6,118.1z M116.6,123.5h0.3C116.9,123.7,116.5,123.7,116.6,123.5z M116.7,123.7
			C116.9,123.8,116.5,123.8,116.7,123.7L116.7,123.7z M116.9,119.7c0.1,0,0.2,0,0.3-0.1c0,0.1,0,0.2-0.1,0.2
			C117.1,119.8,116.9,119.9,116.9,119.7z M117.2,120.4v0.1H117v-0.1H117.2z M117.5,115.1c0.1,0,0.2,0,0.2,0.1
			C117.6,115.2,117.5,115.1,117.5,115.1z M117.6,115.8c0,0,0,0.1-0.1,0.1C117.6,115.9,117.6,115.8,117.6,115.8z M117.5,114.2
			c0.2,0,0.4,0,0.3,0.2C117.7,114.3,117.4,114.4,117.5,114.2z M118.1,107.4c0-0.1,0.2,0,0.3-0.1c0,0.1,0.1,0.3-0.1,0.3
			C118.4,107.4,118.1,107.6,118.1,107.4z M118.3,108.4c0.1,0.2-0.2,0.2-0.2,0H118.3z M119.1,124.1
			C119.1,124.1,119.2,124.1,119.1,124.1c-0.1,0.1-0.2,0.3-0.5,0.3c0-0.3-0.1-0.8,0-1.1c0.1,0.1,0.2-0.1,0.3,0.1
			c-0.1,0.1,0.3,0.2,0.4,0.3v0.3C119.2,124,119,124.1,119.1,124.1z M118.9,120.8c0.1-0.4,0.4-0.7,0.8-0.8c0.6,0,1.1,0.1,1.7,0
			c0.2-0.1,0.1,0.2,0.3,0.1c1.2,0.1,2.4,0.2,3.6,0.3v0.7c0.1,0,0.3,0,0.4,0c0.1,0.1,0.2,0.3,0.2,0.4c-1.8,0.3-4.1,0.4-6.2,0.3
			C119.4,121.5,119.1,121.2,118.9,120.8z M120.2,123.3c0,0.4,0.1,0.6,0.1,1.1c-0.3-0.1-0.5-0.3-0.6-0.6
			C119.9,123.6,119.8,123.3,120.2,123.3z M120.4,123.3c0.3,0.1,0.4,0.4,0.6,0.6c-0.2,0.2-0.2,0.5-0.5,0.5
			C120.5,123.9,120.4,123.7,120.4,123.3z M121.6,124.1c-0.1-0.1-0.2-0.2-0.2-0.4c0.3,0,0.2-0.4,0.5-0.4c0.2,0.2,0,0.5,0.2,0.4
			c-0.1,0.3,0.1,0.5-0.1,0.7c-0.1,0-0.2,0-0.3-0.1c0.1-0.2-0.2,0-0.1-0.2C121.6,124.2,121.4,124,121.6,124.1
			C121.6,124.1,121.6,124.1,121.6,124.1z M122.1,124.4C122.2,124.3,121.9,124.6,122.1,124.4L122.1,124.4z M121,123.3
			c0.2,0,0.4-0.1,0.5,0.1C121.4,123.5,120.9,123.5,121,123.3z M121.4,124.4C121.4,124.3,121.4,124.3,121.4,124.4c0,0,0,0.1-0.1,0.1
			c-0.2,0-0.2,0-0.4,0c0.1-0.3,0.3-0.4,0.5-0.2c0,0,0-0.1,0.1,0C121.4,124.3,121.3,124.3,121.4,124.4z M122.3,123.3
			c0.1,0.2,0.4,0.3,0.5,0.6c-0.2,0.2-0.2,0.5-0.5,0.5C122.3,124,122.1,123.6,122.3,123.3z M123.5,124.1c-0.1-0.1-0.2-0.2-0.3-0.3
			c0.1-0.1,0.2-0.3,0.3-0.4c0.2,0.1,0.2,0,0.3,0.1c0,0.4,0.1,0.7,0.1,1C123.7,124.4,123.7,124.2,123.5,124.1
			c-0.1,0.1,0.1,0.3-0.1,0.3c-0.1-0.1-0.1-0.1-0.2-0.2C123.4,124.1,123.5,124.3,123.5,124.1z M123.2,124.4c-0.2-0.1-0.4,0.1-0.4-0.1
			C122.9,124.2,123.3,124.1,123.2,124.4z M122.9,123.4h0.3C123.2,123.5,122.8,123.5,122.9,123.4z M124.4,123.4
			c0.4,0,0.8,0.3,1.2,0.2c0,0.2,0.2,0.1,0.3,0.2c-0.2,0.1,0.1,0,0.1,0.2c0.1,0.2-0.2,0-0.1,0.2c-0.6,0-1,0.1-1.3,0.1
			C124.6,124,124.1,123.7,124.4,123.4z M123.8,117.9c0.5-0.1,1.2,0.2,1.6,0.1c0,0.2-0.6,0.2-0.8,0.3c-0.2,0-0.6,0.2-0.7,0
			C124,118.2,123.7,118,123.8,117.9z M123.3,118.4c-0.3,0-0.3-0.3-0.5-0.1c0.1,0,0.1,0.1,0.2,0.1v0.2h-0.3c0-0.1,0-0.2-0.1-0.3
			c0.3-0.1,0.1-0.2,0.3-0.4c0.1,0,0.2,0,0.3,0.1C123.1,118,123.3,118.2,123.3,118.4z M121.8,117.7c0.3,0,0.4,0.3,0.5,0.4
			c-0.2,0.1-0.3,0.4-0.5,0.3C121.9,118.3,121.7,117.8,121.8,117.7z M122.2,117.7c0.1,0,0.2,0,0.2,0.2
			C122.3,117.9,122.1,117.9,122.2,117.7z M121.1,118.2c-0.1-0.3,0.1-0.5,0.5-0.5c0,0.4,0,0.4,0.1,0.8c-0.2,0.1-0.3-0.3-0.3,0.1
			c-0.1,0-0.3,0.1-0.3-0.1c0-0.1-0.1-0.2-0.1-0.3C121,118.1,121.1,118.2,121.1,118.2z M120.5,117.9c0.1,0.1,0.2,0.1,0.2,0.3
			c-0.1,0.1-0.2,0.4-0.5,0.3c0-0.3-0.1-0.6,0-0.8c0.3,0,0.2,0.1,0.5,0c0,0.1,0.1,0.1,0.1,0.2C120.6,118.1,120.5,117.7,120.5,117.9z
			 M119.9,118.5c-0.1-0.1-0.2-0.1-0.3-0.2c0,0.1,0,0.2-0.1,0.2c-0.1-0.1-0.2-0.2-0.3-0.4h0.2c-0.1-0.3,0.1-0.6,0.5-0.5
			C119.8,118,120,118.3,119.9,118.5z M119.6,123.3c0,0.3-0.4,0.3-0.4,0.1C119.3,123.3,119.5,123.3,119.6,123.3z M118.4,118.4
			c0-0.1-0.1-0.3-0.1-0.6c0.3-0.1,0.4,0.1,0.6,0.3C118.8,118.3,118.7,118.5,118.4,118.4z M118.6,104.4c0.1,0,0.2,0,0.2,0.2
			C118.6,104.6,118.5,104.5,118.6,104.4z M118.6,105.5c0,0.1,0,0.2-0.1,0.2C118.6,105.6,118.5,105.5,118.6,105.5z M118.4,103.3
			c0-0.1,0-0.2,0.1-0.2c0.2,0.1,0.2,0,0.3,0.1c0,0.1,0.1,0.3-0.1,0.3C118.8,103.3,118.6,103.3,118.4,103.3z M118.9,100v-0.1h0.2v0.1
			H118.9z M119,101.1C119.1,101,118.8,101.3,119,101.1L119,101.1z M119.2,98.7h-0.3v-0.2h0.3c0,0.1,0.2,0.3,0,0.4V98.7L119.2,98.7z
			 M118.9,102.3c-0.1,0.1-0.2,0.1-0.2-0.1C118.8,102.2,118.9,102.2,118.9,102.3z M116.4,93c0.4-0.2,0.7-0.5,1-0.7
			c0.4-0.2,0.6-0.6,1.1-0.6c0,0.3-0.3,0.4-0.5,0.4c-0.2,0.1-0.3,0.3-0.6,0.4c-0.3,0.3-0.8,0.5-1.1,0.8c-0.1,0-0.1,0-0.1-0.1
			C116.5,93.3,116.4,93.1,116.4,93z M118.3,96.4c0,0,0-0.1,0.1-0.1C118.4,96.3,118.4,96.4,118.3,96.4z M118.3,97.1
			c0,0,0,0.1-0.1,0.1C118.3,97.1,118.3,97.1,118.3,97.1z M117.4,93.8c-0.3-0.1-0.8,0-1-0.1v-0.2h2.1C118.4,94,117.6,93.6,117.4,93.8
			z M116.6,90.8h0.2c0.5,0,1.1,0,1.6,0c0.1,0,0.4-0.1,0.4,0.2c-0.5,0.1-1.1,0-1.7,0.1c-0.2,0-0.4,0.1-0.4-0.1V90.8z M116.7,88.4
			c0.1,0,0.1,0,0.2,0.1c0.4,0.2,0.7,0.5,1,0.7c0.1,0.2,0.4,0.2,0.5,0.4c0.1,0.2,0.5,0.2,0.3,0.5c-0.3,0-0.7-0.5-1-0.6
			c-0.3-0.3-0.7-0.5-1-0.8C116.7,88.5,116.7,88.6,116.7,88.4z M118.5,106.5c0.1,0.2-0.2,0.2-0.2,0H118.5z M116.3,96.4v-0.2h2
			c-0.1,0.3-0.5,0.2-0.9,0.2H116.3z M116.5,97.5c0,0.1,0.1,0.1,0,0.1C116.4,97.6,116.4,97.5,116.5,97.5z M118.1,110.3
			c-0.1,0-0.1,0-0.2-0.1C118.1,110.2,118.2,110.2,118.1,110.3z M116.2,98.9v-0.2h0.2c0.5,0,1,0,1.3,0c0.1,0,0.4-0.1,0.4,0.1
			C117.6,98.9,116.8,98.8,116.2,98.9z M118.1,111c0,0.1-0.2,0-0.3,0.1v-0.2C117.9,111,118.1,110.8,118.1,111z M117.9,105.3
			C118.1,105.4,117.7,105.4,117.9,105.3L117.9,105.3z M118,112.1c-0.1,0-0.1,0-0.2-0.1C117.9,111.9,118,111.9,118,112.1z
			 M117.9,112.8C118.1,112.8,117.7,112.8,117.9,112.8L117.9,112.8z M117.8,113.7c-0.1,0-0.1,0-0.2-0.1
			C117.8,113.6,117.8,113.6,117.8,113.7z M117.5,116.6c0-0.1-0.1-0.1,0-0.1C117.5,116.5,117.5,116.6,117.5,116.6z M117.4,110.8
			c-0.1,0-0.2,0-0.1-0.1C117.4,110.8,117.5,110.8,117.4,110.8z M117.3,109.5C117.5,109.5,117.1,109.5,117.3,109.5L117.3,109.5z
			 M117.5,117.1c0,0.1,0,0.2-0.1,0.2c0.1-0.2-0.3,0-0.2-0.2H117.5z M117.2,113.9C117.4,114,116.9,114,117.2,113.9L117.2,113.9z
			 M117.4,117.9c0.1,0.2-0.2,0.2-0.2,0H117.4z M117.2,119.2C117.4,119.3,117,119.3,117.2,119.2L117.2,119.2z M116.9,121.6
			C117.1,121.6,116.7,121.6,116.9,121.6L116.9,121.6z M117,122.1c0,0.1-0.3,0.1-0.3-0.1C116.9,122,117,122,117,122.1z M116.8,115.9
			c-0.3,0.1-0.5,0.3-0.8,0.3c-0.1,0.1-0.3,0.1-0.4,0.2c-0.1,0.1-0.4,0-0.4,0.2c0.2,0,0.9-0.1,1.2,0.1h0.2c0.1,0,0.1,0.1,0,0.1
			c-0.4,0-1-0.1-1.4,0.1c0.2,0.2,0.5,0.2,0.7,0.4c0.2,0.2,0.6,0.2,0.7,0.4c-0.5,0-1-0.6-1.7-0.7c-0.1-0.2,0-0.2,0-0.5
			c0.6-0.2,1.1-0.5,1.7-0.8c0.1,0,0.1,0,0.1,0.1C116.5,115.9,116.8,115.8,116.8,115.9z M116.8,122.7
			C117,122.7,116.6,122.7,116.8,122.7L116.8,122.7z M115,98.7C115.2,98.8,114.8,98.8,115,98.7L115,98.7z M115.2,115.4
			c0.4,0,0.9,0,1.3,0c0.1,0,0.4-0.1,0.4,0.1c-0.5,0-1.3,0-1.8,0v-0.2C115.1,115.3,115.2,115.3,115.2,115.4z M115.1,114.2v-0.5
			c0.2,0,0.2-0.2,0.4-0.1c0.3-0.4,0.9-0.5,1.3-0.7c0.1,0,0.3-0.1,0.3,0.1c-0.3,0.1-0.6,0.3-0.9,0.4c-0.3,0.1-0.7,0.2-0.9,0.5h0.9
			c0.3,0.1,0.6-0.2,0.7,0.1c-0.5,0-1.3,0-1.6,0c0,0.2,0.3,0.1,0.4,0.3c0.2,0,0.3,0.1,0.4,0.2c0.3,0.2,0.7,0.2,0.8,0.5
			C116.2,114.9,115.8,114.4,115.1,114.2L115.1,114.2z M116.2,113.7C116.4,113.8,116,113.8,116.2,113.7L116.2,113.7z M116.9,112.8
			C117.1,112.8,116.7,112.8,116.9,112.8L116.9,112.8z M115.2,112.5v-0.2c0.7,0.1,1.5-0.1,2,0.1c-0.2-0.1-0.3,0.1-0.4,0.1
			c-0.1-0.2-0.6-0.1-0.6,0.1c-0.1-0.1,0-0.2-0.2-0.2C115.8,112.5,115.5,112.4,115.2,112.5L115.2,112.5z M116.6,112.2
			C116.8,112.3,116.4,112.3,116.6,112.2L116.6,112.2z M116.4,112.3C116.3,112.3,116.2,112.3,116.4,112.3
			C116.4,112.2,116.5,112.2,116.4,112.3z M115.2,111v-0.5c0.5-0.2,1-0.5,1.5-0.8c0,0-0.1,0,0-0.1c0.1,0.1,0.3-0.2,0.6-0.1
			c-0.1,0.2-0.4,0.3-0.6,0.4c-0.3,0.1-0.5,0.2-0.7,0.4c-0.2,0.1-0.4,0.1-0.5,0.3h1.7c-0.1,0.2-0.4,0.1-0.7,0.1
			c-0.3,0-0.6-0.1-0.8,0.1c-0.1,0-0.2-0.2-0.3-0.1c0.1,0.2,0.2,0.2,0.4,0.3c0.2,0.1,0.4,0.3,0.7,0.4c0.2,0.1,0.6,0.2,0.5,0.5
			C116.4,111.7,115.9,111.3,115.2,111L115.2,111z M116.6,110.7c-0.1,0-0.2,0-0.1-0.1C116.6,110.6,116.7,110.6,116.6,110.7z
			 M116.1,110.6C116.3,110.7,115.9,110.7,116.1,110.6L116.1,110.6z M115.3,109h2c0,0.3-0.3,0.2-0.4,0.2c-0.5,0-1.1-0.1-1.6,0V109z
			 M116.9,108.9C116.9,108.9,116.8,108.9,116.9,108.9C116.9,108.9,117,108.9,116.9,108.9z M116.7,108.9c-0.1,0-0.2,0-0.1-0.1
			C116.7,108.9,116.8,108.9,116.7,108.9z M115.7,106.8c0,0.1,0,0.2,0.1,0.2c0-0.1,0-0.2,0.1-0.3c0.2,0,0.5-0.3,0.8-0.4
			c0.3-0.1,0.5-0.4,0.9-0.4c0,0.3-0.3,0.3-0.4,0.4c-0.2,0-0.4,0.2-0.5,0.3c-0.3,0.2-0.8,0.3-1,0.6c0.7-0.1,1.1,0,1.9,0
			c0,0.2-0.2,0.1-0.3,0.1c-0.4,0-0.8,0-1.2,0c-0.1,0-0.4-0.1-0.4,0.1c0.3,0.1,0.6,0.4,0.9,0.5c0.2,0.3,0.8,0.2,0.8,0.7
			c-0.7-0.3-1.4-0.7-2-1.1C115.3,107.1,115.4,106.9,115.7,106.8z M116.8,107.1C116.8,107.1,116.7,107.1,116.8,107.1
			C116.8,107,116.9,107,116.8,107.1z M116.5,107c0.1,0.1,0.2-0.2,0.2,0C116.7,107,116.5,107.2,116.5,107z M116.3,107
			C116.4,106.9,116.1,107.2,116.3,107L116.3,107z M115.5,105.2h0.2c0.2,0,0.6,0,1,0c0.4,0,0.8-0.1,1,0.1c-0.7,0.1-1.6,0.1-2.2,0
			C115.6,105.3,115.5,105.3,115.5,105.2z M115.6,103.6V103c0.3-0.3,0.8-0.5,1.1-0.7c0.2-0.1,0.3-0.3,0.6-0.3
			c0.2-0.1,0.4-0.4,0.6-0.2c-0.2,0.1,0.1,0.1,0.1,0.1c-0.1,0-0.1,0.1-0.1,0.2c-0.4,0.1-0.7,0.3-1,0.6c-0.2,0.1-0.4,0.2-0.5,0.3
			c-0.1,0.1-0.4,0.1-0.5,0.3h1c0.4,0,0.8-0.1,0.9,0.2c-0.6,0-1.4-0.1-2,0.1c0.3,0.3,0.6,0.4,1,0.6c0.1,0.2,0.3,0.2,0.5,0.3
			c0.1,0.2,0.4,0.1,0.4,0.4C116.9,104.5,116.4,103.9,115.6,103.6L115.6,103.6z M117.6,103c0-0.1-0.1-0.1,0-0.1
			C117.6,102.9,117.6,103,117.6,103z M117.5,101.8C117.6,101.6,117.3,102,117.5,101.8L117.5,101.8z M116.2,101.9
			c0.1,0,0,0.4-0.1,0.2C116.2,102.2,116,101.9,116.2,101.9z M116.2,101.5C116.3,101.7,116,101.7,116.2,101.5L116.2,101.5z
			 M116.2,101.5C116.1,101.2,116.4,101.3,116.2,101.5L116.2,101.5z M115.7,101c0.2,0,0.3,0,0.3,0.1c0-0.1,0.1-0.1,0.3-0.1h1.3
			c0.1,0,0.4-0.1,0.4,0.1c-0.5,0.1-1.2,0-1.8,0.1c-0.2-0.1-0.4,0.2-0.5-0.1C115.7,101.1,115.7,101,115.7,101z M117.2,100.9
			C117.4,100.9,116.9,100.9,117.2,100.9L117.2,100.9z M116.6,100.9C116.6,100.9,116.5,100.9,116.6,100.9
			C116.6,100.9,116.7,100.9,116.6,100.9z M115.8,98.4c0.2-0.1,0.4-0.2,0.5-0.2c-0.1,0,0-0.1,0-0.1c0.3-0.2,0.7-0.4,1-0.6
			c0.2-0.1,0.3-0.2,0.5-0.3c0-0.1,0.2-0.1,0.3-0.2c0.1,0.1,0.2-0.3,0.2,0c0,0.3-0.3,0.3-0.4,0.4c-0.2,0.1-0.4,0.2-0.6,0.3
			c-0.4,0.2-0.7,0.6-1.1,0.6c-0.2,0.3,0.1,0.3-0.1,0.6c0.4,0.1,0.7,0.5,1.1,0.6c0.1,0.2,0.3,0.2,0.5,0.4c0.2,0.1,0.5,0.2,0.4,0.4
			c-0.5-0.1-0.7-0.5-1.1-0.7c-0.4-0.3-0.7-0.5-1.1-0.7C115.9,99,115.8,98.6,115.8,98.4z M115.9,96.2c0.1,0.1,0.4,0,0.4,0.2
			c-0.1,0.1-0.2,0.1-0.4,0.1C115.9,96.3,115.9,96.2,115.9,96.2z M116.3,93.1c0,0.4-0.1,0.6,0,0.9h0.1c0.4,0.2,0.7,0.5,1,0.7
			c0.3,0.3,0.8,0.3,0.9,0.9c-0.9-0.4-1.5-1.1-2.3-1.5C116,93.6,116,93.2,116.3,93.1z M116.1,90.8c0.1,0,0.4-0.1,0.4,0.1
			c-0.1,0.2-0.2,0.1-0.4,0.1V90.8z M116.6,87.3c0.1,0.3-0.1,0.3-0.2,0.4c0,0.1,0.2,0.1,0.2,0.2c-0.3,0.2,0.2,0.4-0.1,0.7
			c-0.1-0.1-0.2-0.2-0.4-0.2C116.3,87.9,116.1,87.4,116.6,87.3z M116.7,84.7c-0.1,0-0.1,0.1-0.1,0.2h-0.3c0-0.2,0.2,0.1,0.2-0.2
			c-0.1,0-0.3,0.1-0.2-0.1C116.5,84.6,116.6,84.6,116.7,84.7z M116.8,87.8c0.5,0.1,1.2-0.1,1.6-0.1c0.1,0,0.4,0,0.4,0.2
			c-0.6,0.1-1.6,0.1-2.2,0C116.8,87.9,116.7,87.8,116.8,87.8z M116.7,87.5v-0.3c0.1,0,0.1-0.1,0.2-0.1c0.1-0.2,0.3-0.2,0.5-0.4
			c0.3-0.2,0.5-0.4,0.8-0.6c0.2-0.2,0.5-0.4,0.8-0.5c0,0.1-0.1,0.2,0.1,0.2c-0.1,0.3-0.4,0.4-0.7,0.5c-0.1,0.3-0.5,0.3-0.6,0.6
			c-0.3,0.1-0.5,0.2-0.6,0.4C116.9,87.3,116.9,87.5,116.7,87.5L116.7,87.5z M116.9,84.6c0.5,0,1.2,0,1.6,0c0.2,0.1,0.5-0.1,0.5,0.1
			c-0.6,0.1-1.4,0-1.8,0.1c-0.1-0.2-0.5,0.2-0.5-0.1v-0.1H116.9z M119.2,83.6c-0.2-0.1-0.1,0-0.1,0.1H119c-0.6-0.6-1.4-1-2-1.6h0.5
			c0,0,0,0,0,0c0.3,0.2,0.6,0.5,0.9,0.7C118.6,83.1,119,83.3,119.2,83.6z M119.3,97.4v0.2c-0.1,0-0.2,0-0.2-0.1
			C119.2,97.5,119.2,97.3,119.3,97.4z M119.3,94.8h0.2v0.2C119.4,94.9,119.4,94.9,119.3,94.8z M119.4,96.1c0,0.1,0,0.2-0.1,0.2
			C119.4,96.2,119.4,96.1,119.4,96.1z M119.6,93.3c0,0.2-0.3,0.1-0.4,0.1v-0.2C119.4,93.2,119.7,93,119.6,93.3z M119.8,92
			c0,0-0.3,0.1-0.2-0.1C119.7,92,119.8,91.9,119.8,92z M120.2,87.1c0,0.1,0.1,0.4-0.1,0.4c0-0.2-0.3,0-0.4-0.2
			C119.7,87,120,87,120.2,87.1z M119.8,89.1V89c0.1,0,0.2-0.1,0.2,0.1c0,0-0.1,0-0.1,0.1L119.8,89.1
			C119.9,89.1,119.9,89.1,119.8,89.1z M119.9,90.5c0,0.1,0,0.2-0.1,0.2C119.9,90.6,119.8,90.5,119.9,90.5z M120.3,85.7
			c0,0.2,0,0.2-0.2,0.2c0-0.1,0-0.2,0.1-0.2C120.2,85.8,120.2,85.6,120.3,85.7z M120.6,82.2c0,0.1,0,0.2-0.1,0.2
			c0-0.1-0.1-0.1-0.1-0.2H120.6z M120.4,84c0,0.1,0,0.2-0.1,0.2C120.4,84.1,120.4,84,120.4,84z M121.5,106.5c3,0.9,7.8,4.9,8.3,9.3
			c-2.7,0.2-6.5,0.5-11.4,0.4c1.3-11.2,2.4-22.7,3.5-34h7.3v2.2h-3.5v4.8c1.2,0.3,2.8,0.9,3.5,1.7
			C133.5,100.5,121,102.4,121.5,106.5z M118.7,136.4h-2.5c0.2-2.8,0.4-5.5,0.6-8.3c0.2-0.4,0.4-0.7,0.7-1.1c0.1-0.5,0.3-0.8,0.6-1.1
			c0.3-0.1,0.6-0.1,0.9-0.1c1.9-0.2,4.8-0.1,6.8,0.2c2.2,0.3,2.3,0.3,3.5,0.4c-2.1,0.1-4.2,0.1-6.3,0.2v1.4c2.1,0.1,4.1,0.1,6.2,0.2
			c-0.1,0.8-0.1,1.6-0.2,2.4c-0.9,0.3-1.8,0.7-2.8,1c0.3,0.3,0.6,0.7,0.9,1c0.9,0.3,2.1,0.8,2.9,1.5c-3.8,0-7.6-0.1-11.4-0.5V136.4
			L118.7,136.4z M116.2,128.8c0.1-0.1,0.2,0.1,0.1,0.1C116.3,128.8,116.2,128.8,116.2,128.8z M116,130.3c0.1,0,0.2,0,0.2,0.1
			C116.1,130.4,116,130.4,116,130.3z M116,131.7C116.2,131.9,115.9,131.6,116,131.7L116,131.7z M116,133
			C116.2,133.1,115.8,133.1,116,133L116,133z M115.8,134.2C116,134.3,115.6,134.3,115.8,134.2L115.8,134.2z M115.8,135.4
			C115.7,135.4,115.7,135.4,115.8,135.4C115.8,135.3,115.9,135.3,115.8,135.4z M115.7,136.3C115.9,136.4,115.5,136.4,115.7,136.3
			L115.7,136.3z M115.6,130.3c-0.3-0.1-0.5-0.2-0.8-0.3c-0.2,0.1-0.3-0.2-0.2-0.1C115,130,115.3,130.1,115.6,130.3z M114.7,130.5
			c0.2,0,0.7-0.1,0.6,0.1L114.7,130.5C114.7,130.5,114.6,130.5,114.7,130.5z M115.5,130.8c-0.3,0-0.7,0.3-1,0.2
			C114.9,131,115.2,130.7,115.5,130.8z M114.7,131.3c0.2,0.2,0.6,0.1,0.8,0.3C115.1,131.6,114.9,131.4,114.7,131.3
			C114.6,131.3,114.6,131.3,114.7,131.3z M114.7,131.8c0.1,0,0.6,0,0.4,0.1h-0.3C114.8,131.9,114.5,131.8,114.7,131.8z M115,132.2
			c-0.2,0-0.4,0.2-0.5,0.1c0.3-0.1,0.6-0.2,0.9-0.3C115.4,132.2,115.1,132.1,115,132.2z M114.9,134.3c-0.1,0-0.2,0-0.1-0.1
			c0.1,0,0.5,0,0.4,0.1H114.9z M115,134.5C115,134.5,115.1,134.5,115,134.5C115,134.5,114.9,134.5,115,134.5z M114.6,134.6
			c0.1,0.1,0.2-0.2,0.3,0C114.8,134.6,114.4,134.7,114.6,134.6z M114.8,134.9C115,135,114.6,135,114.8,134.9L114.8,134.9z
			 M114.9,135.3c-0.1,0-0.4,0-0.2-0.1C114.7,135.3,115,135.3,114.9,135.3z M114.6,134.9C114.4,134.8,114.8,135,114.6,134.9
			L114.6,134.9z M114.5,133.8c0.2,0,0.2,0.1,0.4,0.1c0,0,0,0.1,0.1,0.1c0,0,0,0.1,0.1,0.1c0.1,0,0,0.1-0.1,0.1
			C114.9,133.9,114.6,133.9,114.5,133.8z M115.1,133.6c0.1,0,0.2,0,0.1,0.1C115.1,133.7,115,133.7,115.1,133.6z M114.9,133.7
			C114.9,133.7,114.8,133.7,114.9,133.7C114.9,133.6,115,133.7,114.9,133.7z M114.6,133.6c0.1,0,0.2,0,0.1,0.1
			C114.6,133.7,114.5,133.7,114.6,133.6z M114.6,133c0.1,0,0.4,0,0.3,0.1C114.8,133.1,114.4,133.1,114.6,133z M114.6,132.6
			c0.1,0,0.4,0.1,0.3,0.1C114.7,132.7,114.6,132.7,114.6,132.6z M115.2,132.9c-0.1,0-0.4-0.2-0.2-0.1
			C115.2,132.7,115.2,132.8,115.2,132.9C115.5,132.8,115.4,132.9,115.2,132.9z M115.3,133.3c0,0.2-0.6,0.2-0.5,0.2
			C115,133.4,115.1,133.3,115.3,133.3z M115.3,134C115.2,134,115.2,134,115.3,134C115.3,134,115.4,134,115.3,134z M115.2,134.5
			C115.2,134.5,115.1,134.5,115.2,134.5C115.2,134.4,115.3,134.5,115.2,134.5z M115,135.1c0-0.1-0.1-0.1-0.1-0.1
			C115.1,135,115.4,135.1,115,135.1z M115.1,135.3C115.1,135.3,115.2,135.3,115.1,135.3C115.1,135.3,115,135.3,115.1,135.3z
			 M115.1,135.5c-0.1,0.1-0.3,0.1-0.5,0.1c0,0.1-0.2,0-0.1,0C114.7,135.6,114.8,135.5,115.1,135.5
			C115,135.4,115.3,135.6,115.1,135.5z M115.1,136.3C115.3,136.3,114.9,136.3,115.1,136.3L115.1,136.3z M115.1,136
			C115.3,136.1,114.9,136.1,115.1,136L115.1,136z M114.9,135.8c0.1,0,0.3,0,0.2,0.1C115,135.8,114.7,135.8,114.9,135.8z
			 M114.9,136.3C115.1,136.3,114.7,136.3,114.9,136.3L114.9,136.3z M114.7,135.9c0.1,0,0.4,0.1,0.3,0.1
			C114.8,136,114.7,136,114.7,135.9z M114.6,135.9C114.8,135.9,114.4,135.9,114.6,135.9L114.6,135.9z M114.4,133.6
			c0,0,0.1,0,0.1,0.1c-0.3,0,0-0.3,0.1-0.3C114.9,133.5,114.4,133.6,114.4,133.6z M114.3,135.8c0.1,0,0.1,0,0.1-0.1
			c0,0.1,0,0.2-0.1,0.2V135.8z M114.3,134.7c0.1,0,0.1,0,0.1-0.1c0,0.1,0,0.2-0.1,0.2V134.7z M112.9,136.3c-0.3-0.6-0.5-1.2-0.8-1.7
			c-1.7-3.4-4.1-6.1-6.4-8.9c0.6,0,1,0.1,1.6,0.1c0.7,0.7,1.2,1.7,1.9,2.4c0,0.1,0.1,0.1,0.1,0.3c0.1-0.1,0.1,0,0.2,0.1
			c0.1,0.1,0.1,0.1,0.2,0.2c0,0.3,0.2,0.6,0.5,0.8c-0.1,0-0.1,0.1,0,0.1c0.1,0,0,0.1,0,0.2c0.3,0.4,0.5,0.9,0.9,1.3
			c0.2,0.4,0.5,0.9,0.7,1.2c0.1,0.1,0,0.2,0.2,0.2c-0.6-1.2-1.3-2.3-2-3.4c-0.7-1.1-1.5-2.1-2.2-3.2c1.4,0,2.8,0,4.1,0.1
			c0.1,0.1,0.2,0.5,0.3,0.4c0.1,0-0.1,0.2,0.1,0.1c0.3,0.1,0.2-0.3,0.3-0.4c0.5,0,0.9,0.1,1.5,0.1c0,2.3-0.1,4.8-0.1,6.9
			c0.1,0.3,0,0.3,0.1,0.6c-0.2,0.2,0.1,0.2-0.1,0.4c0,0.6-0.1,1.2-0.1,1.8c-0.1,0.2,0.2,0.1,0.2,0.3c-0.2,0-0.2,0.3-0.1,0.5h-0.2
			c-0.3-1.2-0.8-2.2-1.3-3.2c-0.1-0.1-0.2-0.4-0.3-0.5c-0.1-0.1-0.2-0.5-0.3-0.4c0.8,1.3,1.3,2.6,1.8,4.1H113
			C113,136.4,113,136.3,112.9,136.3z M113.9,135.5C114.1,135.6,113.7,135.6,113.9,135.5L113.9,135.5z M113.6,117.7
			C113.5,117.7,113.4,117.7,113.6,117.7C113.6,117.6,113.7,117.7,113.6,117.7z M113.1,117.7c-0.1,0-0.3,0-0.2-0.1
			C113,117.6,113.2,117.7,113.1,117.7z M111.6,120.3c0.1,0.5,0.3,1.1,0.1,1.6c-1.1,0-2.2,0.1-3.3,0.1c-0.7,0-1.3,0-2,0
			c-0.2,0-0.5-0.1-0.7-0.1c-0.4,0-0.8,0.1-1.1,0.1c-0.6-0.6-1.1-1.3-1.7-1.9c0.1,0,0.1,0,0.2-0.1c0.4-0.1,0.7-0.2,1.1-0.3
			c2.4-0.2,5.3,0.1,7.6,0.1C111.9,119.9,111.6,120.1,111.6,120.3z M111.3,117.6c0.2,0,0.4-0.1,0.5,0.1
			C111.7,117.7,111.3,117.8,111.3,117.6z M110.7,117.6C110.8,117.5,110.5,117.8,110.7,117.6L110.7,117.6z M109.9,117.6
			C110.1,117.5,109.8,117.8,109.9,117.6L109.9,117.6z M109.1,118.1c-0.2,0.1-0.4,0.3-0.6,0.4c0-0.4,0.1-0.6,0.1-1
			C108.8,117.7,109,117.9,109.1,118.1z M109,117.6C109.1,117.8,108.8,117.5,109,117.6L109,117.6z M109,118.4c0,0.2-0.1,0.1-0.2,0.2
			C108.8,118.5,108.8,118.4,109,118.4z M109.5,118.5c0.1,0,0.2,0,0.1,0.1c-0.1,0-0.4,0.1-0.5-0.1c0.1,0,0.2-0.2,0.4-0.2
			C109.5,118.5,109.4,118.5,109.5,118.5z M109.1,118.4v-0.2c0.1,0,0.1,0,0.2-0.1C109.2,118.3,109.1,118.4,109.1,118.4z M109.1,117.6
			c0.2,0,0.5-0.1,0.6,0.1c-0.2,0-0.1,0.2-0.4,0.1C109.2,117.7,109.2,117.7,109.1,117.6z M106.4,118.5c0-0.3,0.1-0.8,0.2-1
			c0.1,0.2,0.4,0.2,0.5,0.5C106.8,118.2,106.6,118.4,106.4,118.5z M106.7,118.4h0.1v0.1c0,0-0.1,0-0.1,0.1h-0.1L106.7,118.4
			C106.7,118.5,106.7,118.5,106.7,118.4z M106.9,118.4c0-0.1,0.2-0.3,0.2-0.2C107,118.3,107,118.4,106.9,118.4z M107.3,118.4
			c0.2,0,0.2,0.2,0.3,0.2c-0.2,0-0.6,0.1-0.7,0C107.1,118.6,107.1,118.4,107.3,118.4z M107,117.5c0.2,0,0.5-0.1,0.6,0.1
			C107.5,117.8,107.1,117.8,107,117.5z M107.8,117.8c0-0.1,0.1-0.2,0.2-0.2c0,0.3-0.3,0.3-0.4,0.4
			C107.5,117.8,107.6,117.7,107.8,117.8z M108.2,117.6c0,0.4-0.1,0.6-0.1,1c-0.2-0.1-0.5-0.3-0.6-0.6
			C107.9,117.9,108,117.7,108.2,117.6z M106.1,117.6c0.1,0.2-0.1,0.6-0.1,0.9c-0.3-0.1-0.4-0.3-0.6-0.4
			C105.7,118,105.9,117.8,106.1,117.6z M105.7,117.8c-0.1-0.2,0.2-0.3,0.3-0.2C105.8,117.6,105.8,117.7,105.7,117.8z M104.8,118.4
			c0,0.1-0.2,0.3-0.2,0.2c0.1-0.1,0.3-0.3,0.5-0.3C105,118.4,104.9,118.4,104.8,118.4z M105.2,118.4c0.2,0,0.4,0.2,0.3,0.3
			c0,0,0-0.1-0.1-0.1c-0.2,0-0.2,0-0.4,0c-0.1,0-0.1,0.1-0.1-0.1C105,118.6,105,118.3,105.2,118.4z M104.3,118.5
			c0-0.3,0.1-0.6,0.1-0.9c0.3,0.1,0.4,0.3,0.5,0.5C104.6,118.2,104.5,118.4,104.3,118.5z M104.9,117.5c0.2,0,0.5-0.1,0.6,0.1
			c-0.2,0-0.2,0.2-0.4,0.2C105.1,117.7,104.9,117.6,104.9,117.5z M105.6,117.7c0,0-0.1,0.4-0.3,0.2
			C105.5,117.9,105.6,117.6,105.6,117.7z M104,117.6c0,0.3-0.1,0.6-0.1,0.9c-0.2-0.1-0.4-0.3-0.5-0.4
			C103.6,118,103.8,117.7,104,117.6z M103.9,117.5C104,117.4,103.7,117.7,103.9,117.5L103.9,117.5z M103.8,108
			c-0.1,0.7-0.3,1.3-0.5,1.8c-0.2,0.6-0.4,1.2-0.5,1.8c-0.5,1.1-0.7,2.5-1.2,3.5c0,0.4-0.1,0.6-0.3,0.9c-0.2,0-0.2-0.3-0.4-0.2
			c1.9-4.7,3.2-10,4.6-15.2c0.1,0.3-0.1,0.6-0.1,0.9c-0.1,0.3-0.1,0.6-0.3,0.8c0.1,0.6-0.2,1.4-0.4,2c0,0.4-0.1,0.8-0.3,1.1
			c0.1,0.4-0.2,0.8-0.2,1.3C104.1,107.2,104,107.7,103.8,108z M103.9,108.7C103.8,108.9,104.1,108.4,103.9,108.7L103.9,108.7z
			 M101.1,120C101.3,120.1,100.9,120.1,101.1,120L101.1,120z M101.1,123.2c0,0,0,0.1-0.1,0.1C101.1,123.3,101.1,123.2,101.1,123.2z
			 M101.4,124.2c0.1-0.4,0.1-0.7,0.2-1.1c0.3,0.1,0.4,0.4,0.6,0.6c-0.2,0.1-0.3,0.2-0.4,0.2C101.8,124,101.5,124.1,101.4,124.2z
			 M101.4,124.4C101.6,124.2,101.6,124.6,101.4,124.4L101.4,124.4z M101.8,124.1c0,0.1-0.2,0.3-0.2,0.2
			C101.7,124.2,101.7,124.1,101.8,124.1z M103.2,123.4c0.2,0.2,0,0.6,0,0.9c-0.3-0.1-0.4-0.4-0.6-0.6c0.3-0.1,0.5-0.5,0.7-0.5
			C103.3,123.4,103.3,123.4,103.2,123.4z M103.6,124.3c0.1-0.3,0-0.5,0.2-0.7c0.1,0.1,0.2,0.2,0.3,0.3
			C103.9,124.1,103.7,124.1,103.6,124.3z M103.8,124.4c-0.1,0-0.1,0.1-0.2,0C103.7,124.4,103.8,124.3,103.8,124.4z M105.5,123.3
			c0.1,0.3,0,0.7-0.1,1.1c-0.1-0.2-0.4-0.3-0.5-0.6C105.1,123.6,105.2,123.4,105.5,123.3z M105.1,123.4c0-0.1,0.2-0.2,0.2-0.1
			C105.2,123.2,105.2,123.4,105.1,123.4z M103.9,123.4c-0.1,0-0.1,0.1-0.2,0v-0.2c0.2,0.1,0.4,0.3,0.6,0.6c-0.2,0.2-0.3-0.2-0.5-0.2
			C103.8,123.4,103.9,123.4,103.9,123.4z M104.2,123c0.2,0.2,0.7-0.1,0.9,0.1c-0.2,0-0.2,0.3-0.5,0.3
			C104.4,123.3,104.1,123.2,104.2,123z M105,123.5c-0.1,0,0,0.1-0.2,0.1C104.8,123.5,104.9,123.3,105,123.5z M105,124.5
			c-0.4,0-0.5-0.2-0.6-0.4C104.8,124,104.9,124.3,105,124.5z M104.5,124.5c-0.1,0-0.4,0.1-0.5-0.1
			C104.2,124.2,104.4,124.2,104.5,124.5z M103.9,124.2c0.1,0,0.2-0.2,0.2-0.1C104,124.2,103.9,124.4,103.9,124.2z M102.2,120.8
			c0.3-0.2,0.4-0.5,0.7-0.6c0.2,0.4,0.6,0.5,0.7,1c0.2,0.1,0.3,0.2,0.4,0.4c0.1,0.1,0.5,0.3,0.3,0.4
			C103.2,121.9,102.4,121.7,102.2,120.8z M103.1,118.3c0.1,0.1,0.3,0.2,0.4,0.3c-0.3,0-0.7,0.1-0.8-0.1
			C102.9,118.6,103,118.4,103.1,118.3z M102.7,118.3C102.7,118.3,102.7,118.3,102.7,118.3c0-0.1,0.1-0.1,0.2-0.1
			C103,118.4,102.6,118.4,102.7,118.3z M102.5,118.5c0.1,0,0.1-0.2,0.2-0.1C102.7,118.5,102.5,118.6,102.5,118.5z M102.3,118.6
			C102.5,118.7,102.1,118.7,102.3,118.6L102.3,118.6z M103.1,123.2c-0.1,0-0.1,0.2-0.3,0.2C102.8,123.2,103,123.1,103.1,123.2z
			 M103.2,123c0,0,0,0.1-0.1,0.1C103.2,123.1,103.1,123,103.2,123z M102.6,123.5c0.1,0,0.1-0.2,0.2-0.1
			C102.8,123.5,102.6,123.6,102.6,123.5z M102.8,124.5c-0.2-0.1-0.4,0-0.7,0c-0.1-0.2-0.4,0.1-0.3-0.1c0.2-0.1,0.3-0.3,0.6-0.3
			C102.6,124.2,102.7,124.3,102.8,124.5z M101.9,124c0.1,0,0.2-0.2,0.2-0.1C102.1,123.9,102,124.1,101.9,124z M101.7,118.3
			C101.9,118.3,101.5,118.3,101.7,118.3L101.7,118.3z M101.4,120.9c0,0,0-0.1,0.1-0.1C101.5,120.8,101.5,120.9,101.4,120.9z
			 M103.7,109.6c-0.3,1.2-0.6,2.3-1,3.5c-0.2,0.9-0.5,1.7-0.8,2.6c0,0.2-0.1,0.3-0.1,0.4c-0.1,0.1-0.1,0.4-0.3,0.2
			c-0.1-0.2,0.2-0.5,0.2-0.8c0.3-0.8,0.6-1.7,0.8-2.6c0.3-0.5,0.3-1.2,0.6-1.7c0.1-0.3,0.1-0.7,0.3-0.9c0-0.2,0.1-0.3,0.1-0.4
			c0-0.1,0.1-0.1,0.1-0.2C103.7,109.8,103.6,109.4,103.7,109.6z M102.9,123.1c-0.2,0.1-0.3,0.3-0.6,0.3c-0.2-0.1-0.3-0.3-0.4-0.4
			C102.1,123.1,102.6,122.9,102.9,123.1z M102,120.1c0-0.1,0-0.2,0.1-0.2c0,0.1,0.1,0.1,0.1,0.2C102.1,120,102.1,120.1,102,120.1z
			 M102.2,118.5c0-0.3,0.1-0.6,0.2-0.9c0.2,0,0.3,0.3,0.5,0.3C102.7,118.2,102.4,118.3,102.2,118.5z M102.8,117.5
			c0.2,0,0.6-0.1,0.7,0.1c-0.2,0-0.2,0.2-0.4,0.2C103,117.7,102.9,117.6,102.8,117.5z M103.8,117.5c0,0.2-0.1,0.2-0.3,0.2
			c0,0.1,0,0.1,0.1,0.1c-0.1,0-0.1,0.1-0.2,0.1C103.4,117.7,103.6,117.6,103.8,117.5z M105.8,124.4c0-0.2,0-0.4,0.1-0.6
			c0,0.2,0.2,0.1,0.2,0.3C105.9,124.1,105.9,124.3,105.8,124.4z M106,124.4C106.2,124.5,105.8,124.5,106,124.4L106,124.4z
			 M105.9,123.2c0.2,0.2,0.5,0.3,0.6,0.6c-0.2,0-0.1,0.2-0.3,0.2C106.1,123.7,105.8,123.6,105.9,123.2z M106.2,124.3
			C106.3,124.2,106,124.5,106.2,124.3L106.2,124.3z M107.8,123.2c-0.1,0.4,0,0.8-0.1,1.2c-0.3-0.1-0.4-0.4-0.6-0.6
			C107.3,123.6,107.5,123.3,107.8,123.2z M107.3,123.3c0.1,0,0.1-0.2,0.2-0.1C107.5,123.3,107.2,123.4,107.3,123.3z M106.7,123.5
			c-0.1-0.1-0.2-0.2-0.3-0.3c0.2-0.1,0.7-0.1,0.9,0.1C107.1,123.3,107,123.5,106.7,123.5z M107.2,123.5c-0.1,0-0.2,0.2-0.2,0.1
			C107.1,123.6,107.1,123.3,107.2,123.5z M107.2,124.5h-0.6c0-0.1-0.1-0.1-0.1-0.2C106.8,124,107.1,124.3,107.2,124.5z M106.4,124.1
			c0-0.1,0.1-0.3,0.2-0.1C106.5,124,106.5,124.1,106.4,124.1z M108,124.4c0-0.4,0-1,0.2-1.2c0.2,0.2,0.4,0.3,0.6,0.6
			C108.5,124,108.3,124.2,108,124.4z M108.5,124.2c0,0.1-0.1,0.2-0.2,0.2C108.4,124.3,108.5,124.2,108.5,124.2z M110,123.2
			c0,0.6,0,0.7-0.1,1.2c-0.3,0-0.3-0.4-0.6-0.4c0-0.1-0.1-0.1-0.1-0.2C109.6,123.6,109.7,123.4,110,123.2z M109.6,123.3
			C109.8,123.1,109.5,123.5,109.6,123.3L109.6,123.3z M108.6,123.1c0.3,0.2,0.7-0.1,0.8,0.1c-0.2,0-0.2,0.3-0.5,0.3
			C108.8,123.4,108.7,123.3,108.6,123.1z M108.8,124c-0.1,0-0.1,0.1-0.2,0C108.8,124,108.8,123.9,108.8,124z M109.4,123.5
			C109.5,123.4,109.2,123.7,109.4,123.5L109.4,123.5z M109.5,124.5h-0.9c0-0.3,0.3-0.4,0.5-0.4C109.2,124.2,109.4,124.3,109.5,124.5
			z M111.6,123.3c-0.2-0.1-0.2,0.1-0.2,0.2c-0.3,0-0.5-0.1-0.5-0.3h0.5C111.3,123.4,111.8,123.1,111.6,123.3z M111.5,124.5
			c-0.2,0-0.5,0.1-0.6-0.1c0.2-0.1,0.2-0.3,0.4-0.3C111.4,124.2,111.6,124.3,111.5,124.5z M111,124.1
			C110.8,124.2,111.2,124,111,124.1L111,124.1z M110.2,124.4c0.1-0.3,0.1-0.8,0.1-1.2c0.4,0.1,0.5,0.4,0.7,0.6
			C110.8,124,110.6,124.3,110.2,124.4z M112.9,136.4C112.9,136.4,112.9,136.4,112.9,136.4L112.9,136.4
			C112.9,136.4,112.8,136.3,112.9,136.4z M112.8,136.4h-1.2c-1.1-1.7-2.3-3.3-3.5-4.7c-1.7-1.8-3.3-3.7-5-5.5
			c-0.2-0.2-0.5-0.4-0.7-0.8c1,0.1,2.1,0,3,0.2c0.5,0.2,0.7,0.7,1,1c0.3,0.4,0.6,0.8,0.9,1.1c0.5,0.8,1.2,1.5,1.8,2.3
			c0.6,0.8,1.2,1.6,1.7,2.5c0.3,0.3,0.5,0.8,0.8,1.2c0.1,0.2,0.2,0.5,0.4,0.7c0.1,0.2,0.1,0.3,0.3,0.5c0.1,0.2-0.1,0.2,0,0.2
			c0,0.2,0.2,0.1,0.2,0.2c0,0.2,0,0.1-0.1,0.2c0.1,0,0.2,0.1,0.1,0.1c0,0.2,0.2,0.1,0.3,0.3c0,0-0.2,0.1,0,0.1
			c0.2,0.1-0.1,0-0.1,0.2C112.7,136.3,112.8,136.4,112.8,136.4L112.8,136.4z M102.1,125.5c0.3,0.4,0.8,0.7,1.1,1.1
			c0.2,0.1,0.4,0.4,0.6,0.6c0.2,0.2,0.4,0.3,0.6,0.5c0.2,0.2,0.3,0.5,0.6,0.7c0.3,0.1,0.3,0.5,0.6,0.6c0.2,0.2,0.4,0.4,0.6,0.7
			c0.3,0.2,0.4,0.5,0.6,0.6c1.7,1.9,3.4,3.9,4.8,6.2h-1.4c-1.2-1.6-2.5-3.1-3.9-4.5c-1-1.1-2.1-2.1-3.1-3.1
			c-0.8-0.8-1.6-1.5-2.4-2.2c-0.2-0.4-0.6-0.4-0.7-0.8C100.3,125.4,101.3,125.5,102.1,125.5z M100.4,124.1
			C100.6,124.1,100.2,124.1,100.4,124.1L100.4,124.1z M105.4,100.4c-0.1,0.3-0.1,0.6-0.2,0.8c0-0.1-0.1,0,0,0.1
			c0,0.1-0.1,0.1-0.1,0.2c0,0.1-0.1,0.3-0.2,0.4c-0.1,0.9-0.4,1.9-0.7,2.8c-0.3,1.4-0.8,2.8-1.2,4.2c-0.4,1.4-0.8,2.8-1.3,4.1
			c-0.1,0.5-0.2,0.8-0.4,1.2c0,0.3-0.2,0.7-0.4,1.1c-0.2,0.4-0.3,0.9-0.6,1.1c-0.1-0.3,0.2-0.6,0.3-0.9c0.1-0.3,0.2-0.7,0.4-1
			c0.2-0.7,0.4-1.3,0.7-1.9c0.4-1.3,0.9-2.5,1.3-3.9c0.9-2.5,1.5-5.5,2.3-8.1C105.3,100.6,105.3,100.3,105.4,100.4z M105.4,100.3
			c0-0.1,0-0.2,0.1-0.2C105.4,100.2,105.4,100.3,105.4,100.3z M105.5,99.9c0,0.1,0,0.2-0.1,0.2C105.4,100,105.4,99.9,105.5,99.9z
			 M105.7,99.3c-0.1,0.2-0.1,0.4-0.2,0.6c0,0,0,0.1-0.1,0.1c0-0.2,0.1-0.2,0.1-0.4c0.1,0,0.1-0.1,0.1-0.2
			C105.6,99.3,105.7,99.3,105.7,99.3C105.7,99.2,105.8,99.2,105.7,99.3z M106,99.2c-0.1,0.5-0.2,1.1-0.4,1.5
			C105.7,100.1,105.8,99.6,106,99.2z M109.4,82.1h5.9c-0.1,5-0.3,10.2-0.4,15c0.1,0,0-0.2,0.1-0.2c0,0.2,0,0.3-0.1,0.4
			c0.1,0,0.2,0.2,0.2,0.4c0,0.1,0,0.5-0.1,0.2c0-0.1,0-0.1-0.1-0.2c0,1.1-0.1,2.4-0.2,3.7c0,0.8,0,1.5-0.1,2.3
			c0,0.4-0.1,0.8-0.1,1.2c0,0.2,0,0.2,0.2,0.3c-0.2-0.1-0.1,0.3-0.2,0.4c0,0.2,0,0.3-0.1,0.4c-0.1,3.3-0.2,6.9-0.4,10.3
			c-0.5,0-0.9-0.1-1.5-0.1c-0.3-0.2-0.2-0.8-0.7-0.6c-0.2,0.1,0.1,0.6-0.2,0.6c-3.3,0-6.7,0.2-9.9,0.1c0-0.2,0.2-0.7,0.3-0.9
			c0.7-2.3,1.4-4.6,2-7c1.7-6.9,3.1-14.2,4.4-21.5c0.3-1.3,0.4-3,0.7-4.4C109.4,82.4,109.4,82.3,109.4,82.1L109.4,82.1z
			 M115.1,119.3C115.1,119.3,115.1,119.3,115.1,119.3L115.1,119.3C115.1,119.3,115.1,119.3,115.1,119.3z"/>
	</g>
</g>
<g>
	<path fill="#E4BA27" d="M93.7,466.8L25.5,437v-1.7l68.2-29.7v2.1l-24.4,10.7v35.6l24.4,10.7V466.8z M28.3,436.2l39.1,17.1v-34
		L28.3,436.2z"/>
	<path fill="#E4BA27" d="M93.7,393.7H25.6v-1.9h68.1V393.7z"/>
	<path fill="#E4BA27" d="M93.7,308.4h-64l50.5,30.3v1.5l-50.5,30.3h64v1.9H25.5v-1.5L78,339.4L25.5,308v-1.5h68.2V308.4z"/>
	<path fill="#E4BA27" d="M25.5,210.1h68.2v1.9H59.8v47.4h33.9v1.9H25.5v-1.9h32.4V212H25.5V210.1z"/>
	<path fill="#E4BA27" d="M93.7,190.7H25.6v-1.9h68.1V190.7z"/>
	<path fill="#E4BA27" d="M82.1,117.2c8.1,7.1,12.1,15.3,12.1,24.6c0,4.7-1,9.1-3,13s-4.7,7.3-7.9,10.2c-3.3,2.9-7,5.1-11.1,6.6
		c-4.1,1.6-8.3,2.4-12.5,2.4c-4.4,0-8.7-0.8-12.9-2.3c-4.2-1.5-7.9-3.7-11.1-6.4c-3.2-2.7-5.8-6-7.7-9.8c-1.9-3.8-2.9-8-2.9-12.5
		c0-3.5,0.4-6.7,1.1-9.4c0.7-2.8,1.8-5.2,3.1-7.3c1.3-2.1,2.9-3.9,4.7-5.4c1.8-1.5,3.8-2.8,6-3.9l0.6,1.8c-4.8,2.6-8.3,6-10.4,10.1
		c-2.1,4.1-3.2,8.8-3.2,14.1c0,4.5,0.9,8.5,2.8,12.1c1.9,3.6,4.4,6.6,7.4,9.2c3.1,2.5,6.6,4.5,10.5,5.8c3.9,1.3,7.9,2,11.9,2
		c4.3,0,8.4-0.8,12.3-2.4c3.9-1.6,7.4-3.7,10.4-6.5c3-2.8,5.4-6,7.2-9.6c1.8-3.6,2.7-7.6,2.7-11.8c0-4.5-1-8.7-3.1-12.8
		c-2-4-5.3-8-9.8-11.8H63.2v16h-1.9v-18h32.5v1.9L82.1,117.2L82.1,117.2z"/>
	<path fill="#E4BA27" d="M25.5,48h68.2v1.9H59.8v47.4h33.9v1.9H25.5v-1.9h32.4V49.9H25.5V48z"/>
</g>
</svg>
