<?xml version="1.0" encoding="utf-8"?>
<!-- Generator: Adobe Illustrator 18.0.0, SVG Export Plug-In . SVG Version: 6.00 Build 0)  -->
<!DOCTYPE svg PUBLIC "-//W3C//DTD SVG 1.1//EN" "http://www.w3.org/Graphics/SVG/1.1/DTD/svg11.dtd">
<svg version="1.1" id="Layer_1" xmlns="http://www.w3.org/2000/svg" xmlns:xlink="http://www.w3.org/1999/xlink" x="0px" y="0px"
	 viewBox="-478 0 1096 371" enable-background="new -478 0 1096 371" xml:space="preserve">
<g>
	<path fill="#FFFFFF" d="M-13.3,366.3c-0.4,2.4-1.4,4.2-2.4,6.1h624.4c0-0.8,0.2-1.7,0-2.3c-0.9-3.2-4.1-4.6-6-7.3
		c0.9-3.6-0.8-6.3,0-9.5c0-0.1,0-0.2,0-0.3c1.2-1.7-0.6-3.1-0.3-5c0.6-0.7,2.5,0,2.8-0.9c0-0.5,0-1.1,0-1.6c-1-0.6-2.4-0.8-2.8-1.9
		c1.5-0.4,2.4,0.7,4.1-0.3c1.4-4.3-3.3-5.1-6-6.3c-0.7,1.1-2.3,1.3-3.5,1.9c-0.3,1.2-0.8,2.1-1.3,3.2c0.8-0.1,0.7,0.6,1.6,0.3
		c-0.9,1-1.9,1.9-1.6,4.1c0.4-0.1,0.6,0.1,0.6,0.3c1.8-0.1,1.6-2.1,3.5-2.2c-0.2,0.9-1.4,0.9-1.3,2.2c3.4,2.2,2.7,9.3,2.5,14.2
		c-1.1,2.2-3.5,0.2-3.5-1.6c-0.1-1.4-0.3-2.6-1.6-2.8c-1.4,0.4-0.9,2.7-2.8,2.5c-0.4-1.8,0-4.6-0.6-6.9c1.1-0.8,2.6-1.2,4.1-1.6
		c-0.9-3.5-2.3-6.5-6.3-6.9c-1.1-2.4-3.7-3.2-5.7-4.7c-3,1.4-4.8,4.9-9.1,3.2c-0.7-0.8,0.7-1.2,0-2.2c-3.1-0.1-5.5-3-7.9-0.3
		c-2.8-1.4,0-6.3-1.3-8.8c0.4-1,1.1,0.3,1.9,0c0.8-1.3,1-3.2,3.2-3.2c0-0.8,0-1.5-0.3-1.9c-1.7-0.1-2.3,1.1-3.5,1.6
		c0.7-2-0.6-3.3-1.6-4.4c-1.3,0-1.4,1.1-1.9,1.9c-1.1,0-0.7-1.6-2.2-1.3c-0.6,0.6-0.1,1.2,0,1.9c-1-0.2-1.5,0.2-2.2,0.3
		c0,5,7,6.1,4.1,12c-5.3,0-6.2,4.3-5.4,9.1c1.1,0.1,1.2-0.9,2.2-0.9c-0.1,1.4,1,2.3,2.5,2.2c-0.2,3.2,0.6,7.3-0.9,9.1
		c-1.5-0.3-2.2-1.5-4.1-0.6c-0.5-3.2-4.6-5.2-6.9-2.2c-0.7-0.8-0.1-3-0.3-4.4c2-0.8,2.9-2.6,4.4-3.8c0.2-1.6-0.8-1.9-1.6-2.5
		c-0.2-1.1,1.1-0.8,0.9-1.9c-2.6-4.3-6.9-4.4-10.1-0.3c0.6,1.2,0.6,1.4-0.3,2.2c1.8,1.3-0.6,3.3,0.9,5c3.7-1.1,4.1,2.5,4.4,5.7
		c-1.9-1.3-4.8-0.2-5.4,1.6c-1.8-1.6-3.2,0.1-5,0c-1.3-9.3-1.5-19.7-2.2-29.6c1.7-1.6,2.9-3.6,3.5-6.3c-0.6-0.7-1.6-0.7-2.5-0.3
		c-0.3-0.2,0.2-1.5-0.6-1.9c-1.6,1.3-1.9,0.5-3.8,0c-0.7,0.7-0.7,2-0.9,3.2c-1.1-0.1-2.1,0-2.8,0.3c0,0.3,0,0.6,0,0.9
		c0.9,1.1,2.4,1.6,2.5,3.5c1.2,0.2,1.2-0.7,2.2-0.6c0.4,2.5,0.6,6.6,0.9,10.1c-1.3-0.2-2.9-0.3-3.2-1.6c-3.9-0.4-4.6,2.3-6.6,3.8
		c0.5,1.4,0.2,2.3,0,3.8c2.3,0.6,2.6,3.2,5.4,3.5c0,2.8,1.6,5.5,0.6,8.2c-1,0-1.5-0.4-2.2-0.6c0.3-1.1,1.6-2.5,0.6-3.8
		c-2.1,0.4-3.2,1.9-4.7,2.8c-1.2-0.4-1.1-2.4-0.6-3.5c-0.8-0.1-2-0.2-3.5-0.3c-1-2.2-0.8-5.7-1.3-8.5c0.8,0,1.8,1.3,2.2,0.6
		c1.1-0.8,2.9-4.1,0.9-5c-0.2-1,1.4-0.2,1.6-0.9c-0.6-2.4-3.7-2.4-4.7-4.4c-2.5,0.3-3.6,2.1-5.7,2.8c0.8,2.2-0.8,1.9-0.9,3.8
		c0,1,0.7,1.4,1.9,1.3c0.3,1.2-0.8,0.9-0.6,1.9c1.7,0.3,2.3,1.7,3.8,2.2c-0.3,2.3,0.9,4.4,0,6.3c-2.6,0.7-2-1.8-2.5-3.2
		c-2.4,0.3-3.9-0.3-5-1.3c-2.3,1.2-5,1.9-6.6,3.8c-1.5-3.2-0.6-8.3-0.3-11c0-1.1,2.1-0.3,2.5-0.9c-0.7-1.6-1-3.7-2.2-4.7
		c-4.2-1-6.4,1.7-6.3,6.6c4.3-0.3,3.7,4.3,4.1,7.9c-1.7-0.1-2.9,1.2-5,0.6c-0.3,1.3,0,2.4-1.6,2.8c-1.6-1.7-1.3-5.4-1.6-9.8
		c-0.1-1.4-0.5-3.9-0.3-4.4c0.7-2.6,5.8-2.3,3.2-5.4c0.1-0.6,1.2-0.3,1.3-0.9c-0.5-2-4.8-5.7-7.3-5.4c-2.7,0.4-2.4,5.9-6,4.1
		c-0.4,1.4-1.5,2.1-2.5,2.8c0.5,1.5,0.2,2.4-0.9,2.8c0.3,1.5,1.7,1.9,1.6,3.8c1.6-0.2,1.5,1.3,3.2,0.9c0.4,4.6,1,11.9-0.9,15.1
		c0.5,0.4,1.2,1,1.9,0.3c-0.7,0.9,0.2,1.7-0.3,2.5c-2.1-0.4-3.9,0.4-4.7-0.9c-1.5,0.5-3.5,0.5-4.1,1.9c-0.7-6.6-0.8-14-2.2-19.9
		c0.5-0.9,1.6-1.1,2.8-1.3c0.4-1.7,0.4-3.8,1.3-5c-0.6-1.1-1.4-2.1-1.6-3.8c-2.5-1.4-5.2-0.8-7.3-2.5c-1.6,1.1-1.3,0.5-3.2,0
		c-0.2,0.8-0.5,1.4-0.3,2.5c-4.3,0.1-4.6-1.8-5.7-5c-1.7,0.5-2.5-0.7-5-0.9c-0.9,1.8-2.9,2.6-5,3.2c-0.7-0.1-0.1-1.4-0.6-1.6
		c-1.3,0.3-1.2,1.3-2.8,0.6c-0.2,1.5-1.2,2.1-2.2,2.8c0.8,1.8-0.5,2.4-0.6,4.1c0.4,0.3,0.8,0.4,1.6,0.3c0.2,1-0.2,1.5-0.3,2.2
		c-2.9-0.2-2.7-3.6-6.6-2.8c-0.3,1.8-2.3,1.9-3.2,3.2c0.8,1.6,0.5,2.4-0.9,3.2c-1.5-1.1-1.6-3.4-0.3-4.7c-1.2-2.8-3.4-3.8-6.3-4.1
		c-0.6,0.4-0.7,1.2-1.3,1.6c-2.4-1.5-3.9-3.5-6.6-3.2c-1.5,0.2-2.5,2.2-4.7,1.3c-0.6-0.3-0.5-1.2-1.3-1.3c-1.2-0.2-1.5,0.6-2.8,0.3
		c-0.3,2-2.2,2.4-3.8,3.2c0.1,1.2,1.5,1.2,0.6,2.5c-2.3-0.7-4.2-2.9-6.9-2.2c-0.8,1.7-2.1,3-3.5,4.1c-0.2,1,0.4,1.2,0.6,1.9
		c-0.5,0-1.1,0-1.6,0c-0.1-5,0.1-10.4,0-14.5c0-0.6,0-1.3,0-1.9c0-5.3,0-10.5,0-15.8c-1.6,0-3.2,0-4.7,0c-0.7-1.1-0.1-3.5-0.3-5
		c-1.7,0-3.4,0-5,0c0,10.6,0,21.2,0,31.9c-0.2,0.7-1.8,0.1-2.5,0.3c0,3.2,0,6.3,0,9.5c-2.4,0.7-6.2,0.1-9.1,0.3
		c-1.6,0.9-2.3,2.7-3.8,3.8c-0.9,0.5-3.9,0.5-4.7,0c0-7.7,0-15.4,0-23c-1.8,0-3.6,0-5.4,0c0-1.3,0-2.5,0-3.8
		c-1.9-0.6-4.9-0.2-7.3-0.3c0,0.3,0,0.6,0,0.9c0.4,1.4-0.3,3.4-1.6,2.2c-0.6,0-1.3,0-1.9,0c0,0.1,0,0.2,0,0.3c-0.2,0-0.4,0-0.6,0
		c-0.2,0.7,0.4,2.1-0.3,2.2c-2,0-4,0-6,0c-0.2,5.8,0.4,12.4-0.3,17.7c-4.5-0.6-11.9,1.6-13.6-1.9c-0.7-13.8-0.1-28.9-0.3-43.2
		c-1.1-0.2-2.9,0.4-3.5-0.3c-0.3,0-0.6,0-0.9,0c0-0.7,0-1.5,0-2.2c-4.4,0.4-10.2-0.8-13.6,0.6c-0.4,1.7-3,1.2-5,1.3
		c-0.7,0.9-1.3,1.8-2.2,2.5c-0.2,8.1,0.4,17-0.3,24.6c-1.1,0.5-4.3,0.5-5.4,0c-0.7-0.2-0.1-1.8-0.3-2.5c-2.5-0.5-5.8-0.3-8.8-0.3
		c0,1.1,0,2.1,0,3.2c-1.1,1.3-4.5,0.3-6.6,0.6c-1.2-0.9-1.8-2.4-3.2-3.2c-1-0.2-2.7,0.4-3.2-0.3c0-3.6-0.9-6.2-3.2-7.6
		c0-9.9,0-19.8,0-29.6c-7.2,0-14.3,0-21.5,0c0,16.5,0,33,0,49.5c-0.2,0.7-1.8,0.1-2.5,0.3c0,0.7,0,1.5,0,2.2c-0.8,0-1.7,0-2.5,0
		c0-0.8,0-1.7,0-2.5c-0.1,0-0.2,0-0.3,0c0.3-1.1-1-0.5-1.6-0.6c-0.6,0-0.7-0.4-1.3-0.3c0-3.6,0-7.1,0-10.7c0-0.6,0-1.3,0-1.9
		c-1.8-0.5-3-0.1-5,0c-1.1-0.2-0.5-2.1-0.6-3.2c-0.3-2.8,0.5-5.8,0-8.8c-0.1-0.6-0.7-0.3-0.9-0.9c-1.8-4.8,1.2-11.1,0-14.5
		c-0.2-0.7,0.2-0.7-1.3-0.6c-0.7-4.8-0.1-11-0.3-16.4c-0.8,0-1.7,0-2.5,0c-0.7-8.4-0.1-18.2-0.3-27.1c-0.5-0.4-1.3-0.3-1.6-0.9
		c-0.9-1.9,0-7,0-10.7c0-4,0-7.8,0-10.7c-2.4-7.9-18.1-8.1-20.8-0.3c0,10.6,0,24.1,0,36c0,7,1.4,13.7-3.5,15.5
		c-2.5,4.5,0.4,22.5-1.6,27.1c-0.3,0-0.6,0-0.9,0c-0.7-4.6-0.1-10.6-0.3-15.8c-5.3-0.9-12.8-1-15.1,2.8c0,5.6,0,11.1,0,16.7
		c0,8.3,0,16.6,0,24.9c-0.1,1.3-2.6,0.3-3.8,0.6c-0.8,0-1.7,0-2.5,0c-0.2-5.8,0.4-12.4-0.3-17.7c-0.9,0-1.9,0-2.8,0
		c-4.7,0-9.5,0-14.2,0c0,12.8,0,15.1,0,27.9c-0.5,0-1.1,0-1.6,0c-0.7-8.3-0.1-7.4-0.3-16.3c-0.5,0-1.1,0-1.6,0c0-6.4,0-12.8,0-19.2
		c-1-0.4-2.2-0.7-3.8-0.6c0-1.5,0-2.9,0-4.4c-0.7,0-1.5,0-2.2,0c-0.2-1.5-1.1-2.3-0.9-4.1c-0.8-0.3-1.7-0.4-2.8-0.3
		c-0.2,2.7-1.5,4.2-3.8,4.7c0.1,1.2,0,2.3-0.3,3.2c-0.2,0.7-1.8,0.1-2.5,0.3c-0.2,5.2,0.4,11.1-0.3,15.8c-2.7,0-5.5,0-8.2,0
		c-0.1,0-0.2,0-0.3,0c-0.6,0.4-0.4,1.7-1.3,1.9c0.1,0.3-0.1,0.3-0.3,0.3c-0.2,6.8,0.4,14.5-0.3,20.8c-1.6,0-3.2,0-4.7,0
		c-0.7-0.6-0.2-2.5-2.2-1.9c0.1-3.1-0.9-5.2-0.6-8.5c-0.8,1.2-0.9,3.1-0.9,5c0,0.2,0,0.4,0,0.6c0,0,0,0,0,0
		c-0.1,2.5-3.4,1.9-2.5,5.4c-1.7,0.6-4,0.6-6,0.9c-1-3.1,0.3-6.6,0-10.1c-5.3,0.2-11.4-0.4-16.1,0.3c0,0.6,0,1.3,0,1.9
		c-0.3,2.4,0.6,5.9-0.6,7.3c-1.4,0.2-3.6-0.4-4.4,0.3c-1.9,0.2-2.7,1.5-4.7,1.6c-2.2,0.7-5.8,0.1-8.5,0.3c-1.9,0-3.8,0-5.7,0
		c-0.8,0-1.7,0-2.5,0c0.2-6.5-0.4-13.9,0.3-19.9c1.7,0.2,2.6-0.4,4.1-0.3c0.1,0,0.2,0,0.3,0c1.6,0-0.1,2.6,0.6,2.8
		c-0.1,0.3-0.3,0.3-0.3,0.6c0.4,0.6,0.1,1.6,0,1.9c0.3,1,0.6-0.4,0.9-0.3c0.7,0.2-0.1,2.4-0.3,0.9c-0.5,0.5,0,0.8-0.3,1.9
		c0.5-0.1,0.1-0.9,0.6-0.9c-0.8,2.1-0.8,9.2-0.6,12.3c1.2-0.6,3.1-0.4,2.8-2.5c-0.5,0.1-0.1,0.9-0.6,0.9c-0.8-0.6,0.3-1.1-0.3-1.9
		c0.5-0.1,0.6,0.2,0.6,0.6c0.6-2.4,0.2-8.1,0.3-12c-0.3,0.2-0.5,0.3-0.9,0.3c0.4-0.7,0.9-1.2,1.6-1.6c0-0.3-0.4-0.2-0.6-0.3
		c-0.7,0.1-0.1-1.1-0.3-1.6c0-0.5,0-1,0-1.6c0.5-0.2,1.6,0.4,1.6-0.3c3.4-0.8,7.1,0.4,9.8-1.3c0.3,1.6,4.2,0.8,4.4-0.6
		c0.2,0,0.4,0,0.6,0c0.1,0.4,0.3,1.1,0.6,1.6c0,0,0,0,0,0c0,0,0,0,0,0c0.4,0.5,0.9,0.7,1.6,0c0.4,0,0.8,0,1.3,0c0-1.7,0-3.4,0-5
		c-0.2,1.4-2.5,0.7-2.8,1.9c-0.5-0.3-0.2-1.5-0.9-1.6c-4.7,2.6-10.7,3.8-17,4.7c0-0.4,0-0.8,0-1.3c0.3,0,0.2,0.4,0.3,0.6
		c0.6-0.1-0.1-2.2-0.6-1.3c0.5-1.1,0.2-2.6-0.3-3.5c0-0.5,0-1.1,0-1.6c0.6,0,0.7,0.4,1.3,0.3c-0.4-1.3-3-0.7-4.1,0
		c0.3,0.6,1.2,0.7,2.2,0.6c0.1,1.6,0.8,2.8,0.6,4.7c-0.2,0.8-2.4,0.4-1.3,1.6c-0.1,0-0.2,0-0.3,0c-0.4-0.1-0.3-0.8-0.3-1.3
		c-0.8,0.4-1,0.7-0.6,1.6c-0.5-0.3-1-0.5-0.9-1.3c-0.7,0.1-0.7,0.8-0.3,1.3c-1.3-0.1-1.2,0.4-2.2,0c-1.2-0.8,0.3-5.1,0.3-5.7
		c0-0.4-0.6-4.6-0.6-6.9c0-1.8,0.8-4.6-0.9-5.4c-0.3,0-0.2,0.4-0.3,0.6c-0.4,0-0.6-0.1-0.6-0.3c0.4-1.2,1.3-0.5,1.9-0.9
		c-0.2-1.4-1.2,0.1-1.9-0.6c0.1-0.3,0.3-0.6,0.6-0.6c0.4,0.1,0.2,0.3,0,0.3c0.1,0.8,0.5-0.4,1.3,0c0-1.2,0-2.3,0-3.5
		c-0.6,0.3-0.7,1-0.6,1.9c-0.4-0.3-2.4-1.5-2.2-0.3c-0.9-0.2-0.9-1.2-1.3-1.9c1-0.7,1.7-1.7,3.2-1.9c0.6,0,0.2,1.1,0.6,1.3
		c0.5-0.5,0.5-3.2,0-3.8c-1.2-0.1-0.1,0.3-0.3,0.9c-1.1,0.5-0.2-1.1-0.9-0.9c-0.1,0-0.2,0-0.3,0c0.2-0.3,0.6-0.5,0.9-0.6
		c0.1-0.5-0.3-0.5-0.3-0.9c0.1,0,0.2,0,0.3,0c0.6,0,0.2,1.1,0.6,1.3c0.6-0.9,0.3-4.3,0.3-4.7c0-0.6-0.9-0.4-0.6-1.3
		c0.3-0.9,0.8,0.4,1.6,0c0.3-1.5,0.4-3.2,2.8-2.5c-0.2-0.3-0.9-0.5-0.3-0.6c0.4-0.1,1.9,0,0.9,0.3c0.5,1,0.7-1,1.9-0.3
		c-0.2,0.4-0.7,0.6-1.3,0.6c0.1,0.7,1.6,0.1,2.2,0.3c0.1-0.5-0.3-0.5-0.3-0.9c0.3,0.2,0.6,0.4,0.6,0c0.1,0,0.2,0,0.3,0
		c0.4,0.4,0.3,0.6-0.3,0.6c1.8,0.7,4.9,0.1,7.3,0.3c-0.2-0.3-0.7-0.3-0.6-0.9c1-0.3,0.7,0.8,1.3,0.9c1.3,0.1-0.3-0.8,0.9-0.9
		c0.4,0.6-0.2,1.2,1.6,0.9c-0.2-0.3-0.3-0.5-0.3-0.9c1.7,0.3,0.8,1.5,2.2,0c0.3,0.1,0.3,0.3,0.6,0.3c-1.3,1.1,1,0.5,1.9,0.9
		c0.3-1,0.9-1.4,1.9-0.9c-0.3,0.5-0.8,0.7-1.6,0.6c1.8,0.7,4.9,0.1,7.3,0.3c-0.7-0.6,0.2-0.8,0.9-0.9c0.4,0.1,0,0.6-0.3,0.6
		c-0.1,0.7,1.1,0.1,1.6,0.3c-0.1-0.3-0.6-0.2-0.6-0.6c2.5-0.1,4.3-0.3,7.9,0.3c-1.9,0.5-3,0-5.4,0c3.9,1.3,10.3,0.3,13.2,0.9
		c-0.2-0.3-0.6-0.5-0.9-0.6c0-0.7,1.3-0.1,1.9-0.3c-0.2,0.3-0.7,0.3-0.6,0.9c0.9,0,2.1,0.2,2.5-0.3c-0.3-0.9-1.1,0.6-1.6-0.3
		c1.4-0.8,4.4,0,5.4,0.6c-0.2-0.6-0.9-0.2-0.3-0.9c1.4,2,3.4-0.1,5,0.9c1.2-0.5-1.2,0-0.9-0.6c1-0.9,1.4,0.5,2.5,0.9
		c0,0.2,0,0.4,0,0.6c1.1-0.9,1.9,0.4,3.2,0.3c-0.9-0.5,0.5-1.1,0.6-0.3c0.3-0.1,0.2-0.6,0.6-0.6c1-0.3-0.1-1.7,1.9-1.6
		c0.1,0.8-1.4-0.2-0.9,0.9c0.8-0.3,0.8-0.2,2.2-0.3c-0.2,0.3-0.7,0.3-0.6,0.9c4,0,8,0,12,0c-0.4-0.4-0.1-0.5,0-0.9
		c0.3,0.2,0.5,0.6,0.6,0.9c0.3-0.8,2.5,0.4,2.2-0.9c1.1-0.2,0.4,1.3,1.6,0.9c0.4-0.4,0.1-0.5,0-0.9c0.7-0.2,0.5,0.6,0.9,0.6
		c1.2-0.4,2,0.6,3.2,0c-0.1-1.1-1.1-1.3-1.9-1.6c-1.3,0.4-2.8-0.5-3.8,0c-0.1,0.1-0.1,0.9-0.3,0.9c-0.2,0.1-1.1-0.6,0-0.6
		c-1.4,0.1-2.6-0.5-3.8,0.3c1.7-1.2-1.9-0.3-0.6,0.6c-0.8,0.5-0.9-1.1-0.3-0.9c-0.8,0.2-4.6-1.1-6.3,0.3c0.1-0.2-0.7-1.4-0.9,0
		c-2.6-1.3-5.6-0.7-9.1-1.3c0.2,0.6,1.6,0.1,1.3,1.3c-3.1-0.7-5.4-1.3-8.2-0.3c-2.1-0.8-2-0.3-4.4,0c1.7-0.7-1.4-1-0.3,0
		c-3.4-1.1-4.5-0.3-8.8-0.9c0.1,0.3,0.3,0.3,0.3,0.6c-2.8-0.7-7.5-0.9-10.7-0.3c-1.5-1.2-3.2-0.6-5.4-1.3c0.2,0.3,0.3,0.7,0.3,1.3
		c-1.9-1.5-4.5,0.1-6.3-0.9c-1,1.4-2-0.8-2.8,0.6c-0.1-0.6-2.1-1-2.2-0.6c-1.2,0.6-2.4-0.7-2.8,0.6c-0.5-0.2-0.8-0.5-0.9-0.9
		c-0.6,0.1-0.8,0.6-1.3,0.9c-2-0.8-3.6-1.1-5.7-0.3c0.5-0.6,0-0.4,0-1.3c-0.3,0.1-0.2,0.6-0.6,0.6c-0.5,0.9-1.6-0.5-1.9,0.3
		c-1.1,0.3-1-0.4-0.9-1.3c0-0.7,0-1.5,0-2.2c-0.1-0.7,1.1-0.1,1.6-0.3c-0.1-0.8,0.6-0.7,0.3-1.6c-0.7-0.1-0.4,0.9-0.9,0.9
		c-0.9,0-1-0.9-0.6-1.3c0-0.6,1.1,0.4,1.9,0c-0.1,0.9,1.9-0.3,1.9,0.6c0.3-0.2,0.5-0.9,0.6-0.3c0.7,0-0.1-0.9-0.6-0.6
		c-1.2-1.1-3.1,0.4-3.5-1.3c-1.2,0.9-2.9,1.3-4.4,1.9c-1.4,0.7,2-0.3,2.8-0.3c0.8,0.2-0.6,0.8-0.3,1.6c0,1.2-0.5,1.8-0.9,2.5
		c-0.5,0.2,0,1.5-0.6,1.6c0.1-0.5-0.3-0.5-0.3-0.9c-0.4,0.1-0.3,0.6-0.3,0.9c-1,0.4-1.9-0.8-2.2,0c-0.9,0.1-1.7,0-1.6-0.9
		c-1.4,1.2-3.1,1.2-4.4,0c-3.3,1.4-5.8-1.5-9.1-0.6c-0.9,0-2.1,0.2-2.5-0.3c0-0.2,0-0.4,0-0.6c-2.3,0.2-4.3-0.3-4.1,0.9
		c-0.7,0-1.5,0-2.2,0c-0.7-0.1-0.1-1.6-0.3-2.2c-1.9,1.3-1.9,4.3-1.3,7.3c0.5,0,1.1,0,1.6,0c0.3,0.5,2.8,0.5,3.2,0
		c-0.3-1.1,0.5-1.2,0.3-2.2c0.9,0,1.9,0,2.8,0c1.6,1.6,4.9,0,7.3,0.3c4.8,0.1,9.2,0.2,12.9,0c0.5,0.9,1.1,3.2-0.3,3.5
		c0,0.1,0,0.2,0,0.3c0,0,0,0,0,0c0,4,0.1,10.5,0,14.8c0,0.8,0,1.7,0,2.5c0,1.5,0,2.9,0,4.4c0,0.8,0,1.7,0,2.5
		c-0.6,2.5-0.3,7.4-0.3,9.5c-0.6-0.1-0.2-1.2-1.3-0.9c-0.1,0.5,0.3,0.5,0.3,0.9c-1,0.4-0.2-1-1.3-0.6c0.4,0.4,0.1,0.5,0,0.9
		c-0.3-0.1-1.1-1.2,0-0.9c-0.4-0.7-2.9,0.2-1.9,0.9c-1,0.2-0.6-0.9-1.6-0.6c0,0.3,0.4,0.2,0.6,0.3c0,0.6-0.9,0.4-0.6,1.3
		c1.1-0.7,3.4-0.4,5.7-0.6c0,2.3,0,4.6,0,6.9c0,1.6,0,3.2,0,4.7c0,1.9,0,3.8,0,5.7c-0.3,1-1.2,1.5-2.8,1.3c-0.1-0.3-0.3-0.3-0.3-0.6
		c-1.3,0.2-0.9,2.3-0.9,3.8c-3.6-1.1-5.1-5.2-7.3-7.9c-2.4-3.1-5.2-6.4-8.2-8.8c-1.2-0.9-2.2-2-3.2-3.2c-3.7-2.4-9.6-7.8-17.3-8.2
		c-1.5,0-2.9,0-4.4,0c-0.8-0.9-1-0.4-1.9,0c-1.9-0.4-4.1-0.4-6,0c-15.6,4.2-23.3,16.4-31.5,28.1c-0.5,0-1.1,0-1.6,0
		c-0.1,1.3-0.5,2.2-0.6,3.5c-0.4,1.9,0.8,4.8,0.9,7.3c0,1.1,0.5,1.8,0.6,2.8C-12.7,362.7-12.7,365.6-13.3,366.3z M118,288.4
		c0.6,0.5,2.1,0,2.5,0.6C120.3,289.2,118,289.5,118,288.4z M83.3,338.3c0.4-1.2-0.5-2,0.6-2.2C83.8,336.9,84.2,338.2,83.3,338.3z
		 M82.9,332c0.8,0.6-0.5-1.5,0.6-1.6c0,1.3,0.6,2.4-0.3,3.2C83.5,332.8,82.2,332.2,82.9,332z M82.3,339.8c-0.2,0-0.4,0-0.3,0.3
		c0.2,0,0.4,0,0.6,0c-0.9,1-0.1,2.7-0.6,3.8C81.5,343.3,81.4,339,82.3,339.8z M561.4,345.2c0.1-0.6,0.1-1.4,0.9-1.3
		C563,344.5,562.6,345.5,561.4,345.2z M587.3,352.5c0.4,0,0.4-0.4,0.9-0.3c0.1,0.9,0.2,1.9,0.9,2.2c1.1,0.2,0.8-1.1,1.9-0.9
		c0.5,1,0.3,2.6,0.3,4.1c-0.8,0.6-2,1-3.5,0.9C587.5,356.7,587.5,354.4,587.3,352.5z M578.8,350.2c2.1,1.7,3.9-1,5-2.2
		c1,2.3,3,6.8,1.6,9.5c-1.4-0.7,0-1.7,0-2.8c-2.8,0.2-3.9-0.5-6,0.9C579.1,354.1,578.9,350.9,578.8,350.2z M572.8,356.2
		c0.5-1.1-0.3-1.7,0.6-2.5c1.4,0.5,2.3,0.2,3.8,0c0.4,0.4,0.3,1.4,0.3,2.2C575.9,356.5,574.5,357.1,572.8,356.2z M565.2,355.9
		c2.2-0.9,1.3-5,1.6-7.9c1-0.3,1.5-1.1,2.5-1.3c0.8,2.6,2.4,5.9,1.9,8.8C569.6,356.1,566.2,357.6,565.2,355.9z M532.7,343.6
		c1.4-0.1,2.2-0.7,3.5-0.9c-0.2,4.5,1.5,8.8,0.6,12.9c0-1.9-2-1.8-3.2-0.9C533.7,350.7,533.7,346.7,532.7,343.6z M492.1,347.7
		c0.3,0,0.6,0,0.9,0c0,0.8,0.1,1.5-0.6,1.6C492.1,348.9,491.9,348.5,492.1,347.7z M488,336.1c0.3-0.7,0.8,0.9,1.9,0.3
		c0.5-0.9,1.4-1.8,0.6-3.2c0.3,0,0.6,0,0.9,0c0.6,3.6,1.8,8,0.9,12c-2-0.4-2.9,2.4-4.1,3.8C488.1,345.3,487.9,340.7,488,336.1z
		 M479.1,356.6c1.9-1.3,4.5-1.4,6.3,0C485,358.4,480,358,479.1,356.6z M470,338.9c1.4-1.3,1.2-4.2,3.2-5c0.2,0,0.4,0,0.6,0
		c1.3,7.3,1.8,15.4,2.2,23.7c-0.9,0.6-3,0.2-4.4,0.3C469.2,353.4,470.6,345.1,470,338.9z M459.9,331.3c1.8-0.4,2.1-1.8,1.6-3.8
		c0.8-0.9,2.2,0.1,2.8-1.3c0.5,0.8,1.1,1.4,1.3,2.5c-2.3,1.6-2.9,4.4-2.2,8.2c0.6,0.9,2.3,0.8,3.5,1.3c0.8,4.8,0.6,10.6,0.9,15.1
		c0.1,1.7,1.3,3.8-0.6,4.4c-0.3-1.2-1.1-2.1-2.2-2.5c-1.2,0.2-1.8,1.2-2.8,1.6C460.4,349.3,461.5,338.9,459.9,331.3z M452.3,331.3
		c1.2-0.1,0.6,1.5,2.2,0.9c0.7-0.9-0.8-2.4,0.6-2.8c0.2,0.7,0.2,1.7,0.9,1.9c0.7-0.2,1.8-0.8,2.2-0.3c0.4,6.9,1.9,15.7,0.6,22.1
		c0.2-1-0.4-1.3-0.9-1.6c-1.7,1.9-0.9,6.2-4.1,6.6C452.7,350.2,451.6,339,452.3,331.3z M437.8,357.2c-0.6-1.4-2.8-1.2-4.1-1.9
		c-0.5-6.7-1-13.3-1.6-19.9c2-0.1,3.5,0.9,6,0.6c-0.2,1.1-1.3,2.9,0,3.8c1.4,0.4,1.8-1,2.5-0.3c0,1.8,0.8,3.8,0.9,6
		c0.4,4.8-1.1,10.4,1.3,13.2c1.9-0.5,0.6-2.3,0.6-3.5c0-4.4-0.4-10.7-0.6-15.1c2.3-0.4,2.5-2.5,4.4-2.5c0-2-0.8-3.2-1.6-4.4
		c1.1-2.3,2.8,0,4.4-0.3c-0.1,9.3,1.6,18.4,1.3,26.8c-1.6,0.3-0.2-2.5-2.2-1.9c-0.7,0.1-0.1,1.4-0.6,1.6c-3.6,0.1-8.7,0.6-12.9,0
		C435.3,357,437.1,358.3,437.8,357.2z M423.6,336.1c1.3-0.8,1.6-2.6,3.5-2.8c-1.2,2.8,1.2,4.1,3.2,3.8c1.5,5.6,0.9,13.2,1.9,19.2
		c-0.3,1.1-1.6-0.2-1.9,1.3c0.7,0.9,2-0.7,1.9,0.9c0,0.4,0,0.8,0,1.3c-1.9,0.5-4.7-0.2-6.6-0.6C424.6,351.8,423.4,343.3,423.6,336.1
		z M418.6,333.8c0.4,2.3,1.8,0.6,2.8,1.6c0.5,7.9,1.5,15.3,1.9,23.3c-1.7,0.2-2.7-0.2-4.1-0.3c0-3.4,0-6.7,0-10.1
		c-0.6,0-1.3,0-1.9,0C417.8,343.4,414.1,336,418.6,333.8z M416.7,331c-0.1,0.8,0.6,0.7,0.3,1.6C416,333.1,415.5,330.8,416.7,331z
		 M403.4,336.4c-1.2,0.2-1.2-1.5,0-1.3C403.4,335.5,403.4,335.9,403.4,336.4z M405.9,338.3c0.9-0.7,3.3,1.4,3.8-0.6
		c-0.5-0.7-0.9-1.4-1.3-2.2c0.9-0.1,2.2,0.3,2.2-0.6c0.3-1.5-0.9-1.6-0.6-3.2c2.8-0.4,0.6,2.3,1.6,3.5c1,0.5,1.7,0.2,2.8,0
		c0,2.3,0.5,4.1,0.3,6.6c-2.6,0-5.3,0-7.9,0c0,0.7,0,1.5,0,2.2C406.4,342.2,406.3,340.1,405.9,338.3z M402.2,339.2
		c0.6,1,1.3,0,2.2,0.6c-0.3,2.4,0.8,3.4,0.6,5.7c-0.9,0-1.9,0-2.8,0C402.2,343.4,402.2,341.3,402.2,339.2z M75.4,332.6
		c0,0.3,0,0.6,0,0.9c-0.7,0.1-0.8-0.2-1.3-0.3c0-0.1,0-0.2,0-0.3C74.4,332.7,74.8,332.6,75.4,332.6z M75.4,311.4
		c-1.7-0.1,0-2.1-0.3-2.8c0-0.1,0-0.2,0-0.3C76.2,308.1,74.9,310.3,75.4,311.4z M75.7,315.6c-0.9,0.4,0.4,3.1-0.9,3.2
		C74.9,317.1,74.4,315.1,75.7,315.6z M75.7,332.3c-0.3,0-0.6,0-0.9,0c0.5-0.9-0.4-1.2,0.6-1.6C75.1,331.6,75.8,331.5,75.7,332.3z
		 M73.8,347.7c0.4-1.1,2.1-1.4,1.3-2.8c0.1,0,0.2,0,0.3,0c0.3,0.2,0.3,1.5,0.3,2.8c0,0.3,0,0.6,0,0.9
		C74.4,349,74.1,348.3,73.8,347.7z M73.2,318.4c0,0.6-1,0.2-0.9,0.9c-0.9-0.8,0.3-2.1-0.3-2.8c0.6-0.5-0.5-1.2,0.3-1.9
		c0.4,0,0.9-0.1,0.9,0.3c-0.5,0.2,0,1.5-0.6,1.6c0.1,0.5,0.3,0,0.6,0C73.1,317.7,72.8,317.4,73.2,318.4z M71.9,309.6
		c0-0.6,0-1.3,0-1.9c0.4,0,0.8,0,1.3,0c0,0.2,0,0.4,0,0.6C72.5,308.5,73.1,309.9,71.9,309.6z M73.2,323.7c0,0.3,0,0.6,0,0.9
		c-1.8,0.9-1.8-1.5-0.3-1.9c0.4,0.7-0.8,1.2,0,1.3C72.9,323.9,72.9,323.7,73.2,323.7z M73.2,295.7c-0.7-0.2-0.4,0.6-0.9,0.6
		c0-0.8-0.6-1,0-1.6C72.9,294.7,73.2,295,73.2,295.7z M71.9,298.8c0.2-1.1,0.5-2.3,1.3-2.8c0,0.4-0.1,0.9,0.3,0.9c0,0.1,0,0.2,0,0.3
		c-0.4-0.1-0.6,0.1-0.6,0.3c0.3-0.1,0.3,0.1,0.3,0.3c-0.4-0.1-0.6,0.1-0.6,0.3c0.4,0,0.6,0.1,0.6,0.3
		C72.9,298.8,72.4,298.9,71.9,298.8z M72.8,306.1c0-0.8-1.4-0.3-0.9-1.6c0.5-0.1,0.8,0.5,0.9,0c-0.4-0.1-0.6-0.4-0.6-0.9
		C73.8,303.6,73,305.8,72.8,306.1z M73.2,311.1c-0.3,0.4-0.3,1.2-0.9,1.3c-0.4-2-0.4-2.2,0.9-3.2C73.4,311.2,72,309.7,73.2,311.1z
		 M72.5,339.5c-0.3,0.1-0.2,0.6-0.6,0.6c-0.6-0.2,0.1-1.8,0.6-1.9c0.8,1,0,1.2,0.6,3.2c-0.1,0.4-0.9,0.4-0.9,0
		c-0.9,0.4,0.8,0.8,0.6,1.6c-0.1,0-0.2,0-0.3,0C70.7,342.5,72.2,340.5,72.5,339.5z M71.6,329.7c1-0.2,0.6,0.9,1.6,0.6
		c-0.2,1.3-0.9,0.9,0,1.3c-0.6,0.8,0.6,1.5-0.3,2.2c-1.2,0.4,0.9,1.2-1.3,0.6c0-0.3,0-0.6,0-0.9C72.4,332.3,71.7,331.6,71.6,329.7z
		 M23.6,321.2c-0.4,0-0.4,0.4-0.9,0.3c-7.8,1.5-11.7,8.7-16.7,12c-3.4-3.6,2-6.2,4.4-7.9c3-2.1,6.8-4,10.4-4.4
		C21,320.7,23.4,320.7,23.6,321.2z M40.7,334.8c1,1.1-2.7,0.7-2.8,0c-5.6-1.8-10.3,0.1-15.5-0.9c-2.3,0.2-4.6,0.4-7.3,0.3
		c-2.3,0.6-4.2-0.2-6.9,0c4.2-5,10-12.9,17.7-12.6C31.9,321.8,38,330.5,40.7,334.8z M48.9,334.5c-0.7,0.5-2.1,0.2-2.8,0.6
		c-0.7,0.5-3.9,0.7-4.1-0.3c-2.7-4.9-5.9-9.2-10.7-12c-0.8-0.5-1.9-0.6-2.2-1.6c0.7,0.2,2.1-0.4,2.2,0.3c5.8,1.4,12,3.9,14.2,7.9
		C47.3,329.2,50.5,332.1,48.9,334.5z M47.6,345.5c-0.9-2.4-2.3-4.5-3.2-6.9c8-2.3,13.4,2,16.4,7.3C56.5,345.3,52.1,345,47.6,345.5z
		 M1.2,344.6c0.6-2.3,2.3-3.6,4.1-4.7c0.7-0.2,1.6-0.3,2.2-0.6c1.5-1.3,2.1,1,2.5,1.9c1.2,1.5,4.2,1.1,6.6,1.3
		c4.5,0.2,9.9-0.4,13.9,0.3c0.2,0,0.4,0,0.6,0c0.3-0.5,2.8-0.5,3.2,0c0.5,0,1.1,0,1.6,0c0.5-0.7,2.4-0.1,3.5-0.3
		c2,0.4,1.6-1.5,2.8-1.9c1.6,1.3,3,2.9,3.8,5c-1.7,0.9-4.1-0.1-6,0c-0.1,1.8-1.5,2.3-1.3,4.4c-1.8,0.5-2.7,0.4-4.7,0.3
		c-0.4-1.3-0.4-3.2-0.9-4.4c-0.4,0.1-0.6,0.4-1.3,0.3c-0.4,0.7-2.2,0.1-3.2,0.3c-0.5,0-1,0-1.6,0c0.2,1.4-0.6,2-0.3,3.5
		c-3.3-0.1-6-0.8-9.5-0.6c-0.7-1.1,0.1-3.7-0.6-4.7C11.5,344.6,6.4,344.6,1.2,344.6z M-0.7,347.7c0.2-0.1,0.4-0.3,0.3-0.6
		c0.1-0.9,0.5-1.6,1.3-1.9c-0.2,0.9,0.4,2.5-0.3,2.8C0.1,348-0.6,348.2-0.7,347.7z M-9.8,348.4c0.8-2.5,2.8-3.7,3.8-6
		c2.1-2.3,3.9-4.7,7.3-5.7c1,0,1.4,0.7,2.5,0.6c-2,3.6-3.9,7.4-6.3,10.7c-0.2,0-0.4,0-0.6,0c-1.3,0.7-3.9,0.1-5.7,0.3
		C-9.2,348.4-9.5,348.4-9.8,348.4z"/>
	<g>
		<path fill="#FFFFFF" d="M-452.6,153.7c0,11.1,0.2,21.8-1.5,32.5c-0.7,4.2-2.2,7.2-3.4,10.1c-0.2,3.4-0.4,6.7-0.6,10.1
			c-0.5,0.5-1,1-1.5,1.5v15.9c-1.6,4-0.9,11.7-0.9,17.2V281h-4.3c-0.1-1.6-0.2-3.3-0.3-4.9c-1.1-1.1-5.2-0.7-7.4-0.6
			c0,11.9,0,35.6,0,35.6l-7.5-0.2c0.6,20.4,1.7,41.1,1.3,61.5h467.6c0.1-8.6,0.1-16.5-1.5-23.3c-1.5-6.2-5.7-10.7-5.8-19.3
			c-3.4-0.5-6.7-1-10.1-1.5c0.2-11.3,2.2-41-3.7-45.4c-2.7-1.7-9.1,0.5-13.2,0.6c-0.7,5.1-1.4,10.2-2.1,15.3
			c-0.1,4.1-0.2,8.2-0.3,12.3h-3.7c-0.1-0.8-0.2-1.6-0.3-2.5c-3.4-0.2-6.4-0.2-7.7,1.8c-2.8,3.7-2.8,12.5-2.8,18.7h-7.1
			c0-5.6-1.2-9.2-2.5-13.5c-2.2-0.1-6.5-0.5-7.7,0.6c-0.6,3.8-1.2,7.6-1.8,11.3h-1.8c-0.9-1.6-5.9-1-8.3-0.9
			c-0.1,1.8-0.2,3.7-0.3,5.5H-94c-0.2-0.3-0.4-0.6-0.6-0.9c0-1.4,0.1-2.1-0.6-2.8c-1.2-0.1-2.5-0.2-3.7-0.3c-0.1-1.3-0.2-2.7-0.3-4
			h-2.1c-0.3,3.1-1.9,2.1-2.8,4c-0.8,1.8,0.5,3.7-0.6,4.9c-1.6,1.5-5.4,1.6-8.6,1.5c-0.3-12.9-0.6-25.8-0.9-38.6
			c-4.7-2.6-1.6-14.9-3.7-20.2c-0.5,6.2-1,12.5-1.5,18.7c-0.8,0.2-1.6,0.4-2.5,0.6c-0.1,11.3-0.2,22.7-0.3,34h-3.1v-13.5h-5.5
			c-0.5,2-2.5,4.8-4.3,5.5c-0.2,5.2-0.4,10.4-0.6,15.6h-2.8c0-3.5-0.9-4.7-1.8-7.7c-3.5,0.1-5.6,1.4-8.6,0.6
			c0.1-8-1.4-15.9-2.1-22.4c-0.2,0.1-0.4,0.2-0.6,0.3c-0.8,3.2-1.3,6.6-1.8,10.4c-0.1,4.2-0.2,8.4-0.3,12.6c-1,2-2.5,1.9-2.8,5.5
			h-1.2c0.1-2.8-0.4-3.3-3.4-3.1c-0.1-1.6-0.2-3.3-0.3-4.9h-3.1c-0.1-1.3-0.2-2.7-0.3-4h-1.8c0-1.7-0.1-2.7-0.6-3.7h-1.8
			c-0.2,0.2-0.4,0.4-0.6,0.6c-0.1,5-0.2,10-0.3,15c-1.7,0.1-3.5,0.2-5.2,0.3c-0.1,1.4-0.2,2.9-0.3,4.3c-1,0.1-2,0.2-3.1,0.3
			c-0.1,2-0.2,4.1-0.3,6.1h-0.3c-1.2-0.3-2.5-0.6-3.7-0.9c-0.1-2.7-0.2-5.3-0.3-8c-2.8-0.1-8.1-1.2-9.5,0c-0.3,2.8-0.6,5.5-0.9,8.3
			c-1.5,0.2-3.1,0.4-4.6,0.6c-1.1-3.3-2.8-4.6-3.1-9.5c-2.6,0.3-5.1,0.6-7.7,0.9c-0.4,2.6-0.8,5.1-1.2,7.7c-1.1,0.3-2.2,0.6-3.4,0.9
			v-5.5h-1.5c-0.2,1.3-0.4,2.7-0.6,4h-3.4c0.1-4.4,1-26.1-0.6-27.9c-1.2-0.2-2.5-0.4-3.7-0.6c0.1-2.4,0.5-6.4-0.9-7.4
			c-1.3-0.1-2.7-0.2-4-0.3v3.1h-3.4v4.6h-1.5v1.8c-1.1-0.8-2.3-1.6-3.2-2.5c-1.9-1.5-3.5-3.2-5.3-4.9c-3.4-3.4-6.6-6.9-9.8-10.4
			c-0.2-0.1,0-0.6-0.2-0.7c-0.3-0.2-0.5-0.5-0.9-0.6c0.1-0.8-0.6-0.8-0.4-1.6c-0.1-0.3-0.5-0.3-0.5-0.6c0.2-0.3,0.4-0.8,0.1-1.1
			c-0.1,0-0.2,0-0.2-0.1c-1-0.2-0.9,1-0.5,1.4c-0.5,0.3-0.4,0.6-0.5,1.1c-0.5,0.6-1.7,0.6-2.6,0.8c-0.2-0.1-0.2-0.4-0.2-0.7
			c0.1-0.4-0.4-0.2-0.4-0.6c-0.1-0.3,0.4-0.7,0-1.1c-0.3,0.1-0.3-0.1-0.5-0.1c-0.7,0.2-0.5,1-0.2,1.4c-0.4,0.1-0.4,0.5-0.4,0.9
			c-0.3,0.2-0.6,0.5-1,0.6c-1,0.2-2.4,0.5-3.3,0.5c-0.2-0.4-0.3-0.9-0.6-1.2c0.2-0.3,0.3-1-0.2-1.1c-0.8,0-0.6,0.8-0.4,1.3
			c-0.3,0.2-0.5,0.5-0.4,1c-0.6,0.4-1.5,0.9-2.5,0.6c0.2-0.7-0.2-0.8-0.4-1.2c0.3-0.4,0.3-1.1-0.4-1c-0.5,0.1-0.3,0.8-0.2,1.2
			c-0.3,0.2-0.4,0.5-0.3,1c-0.5-0.1-0.4,0.3-0.7,0.4c-5.7,2.3-11.6,4.3-17.8,6.1c-3.1,0.9-6.2,1.8-9.4,2.6c-3.1,0.9-6.6,1.5-9.6,2.4
			c-2,0.2-2.9,0.8-5,0.9c-0.7,0.2-1.6,0.6-2.5,0.5c-0.2,0.2-0.6,0.2-0.9,0.4h-0.7c-1.3,0.4-2.6,0.7-4.2,0.8
			c-1.8,0.5-3.7,0.8-5.6,1.1c-0.7,0.1-1.4,0.3-2.1,0.4c-0.8,0.1-1.8,0.3-2.8,0.4v-31.3h-3.7c-0.8-2.7-1.6-5.3-2.5-8
			c-1.3-0.1-2.7-0.2-4-0.3c-0.7-1-1-1-1.2-2.8h-3.7v4.6h-4v4.6h-3.4v23h-7.4v-11h-6.1v5.5h-2.8v7.1h-7.7v8h-5.2v4h-0.9v-36.2h-2.5
			c-5-4.9-4.8-13.5-4.6-23h-1.8v15h-1.5c-0.1,2.8-0.2,5.5-0.3,8.3c-1.2,2.7-2.5,5.3-3.7,8c-0.1,3.8-0.2,7.6-0.3,11.3
			c-0.1,0.2-0.2,0.4-0.3,0.6h-4.3c-0.5,2-0.7,5.1-0.6,8h-4.9v-26.1h-5.8c-0.1-4.7-0.2-9.4-0.3-14.1h-16.6v22.7h-3.4v-4.6h-10.7
			c-0.1-15-0.2-30.1-0.3-45.1c0-7.1,1-16.4-0.6-22.4c-0.1-5.7-0.2-11.5-0.3-17.2c-0.1-5.1-2.2-11.1-2.2-11.1l-2.9-8.5
			c0,0-2.4-39.4-2.3-57.1C-452.5,134.2-452.4,148.7-452.6,153.7z M-301.2,328v-0.2h0.6C-300.5,328.2-301,328-301.2,328z
			 M-255.5,327.4c0.1,0.3-0.3,0.1-0.5,0.2c-0.2,0.4-0.4,0.8-0.6,1.3c-0.2,0.4-0.2,1-0.7,1.2c0.3-1.1,0.7-1.7,1.1-2.8
			C-255.9,327.3-255.5,327.2-255.5,327.4z M-242.3,326.9c0.1,0.3-0.6,0.2-0.4-0.1C-242.6,326.8-242.4,326.8-242.3,326.9z
			 M-240.4,326.8h0.4c0.1,0.3-0.2,0.2-0.4,0.2V326.8z M-245.2,326.9h0.4C-244.7,327.3-245.3,327.3-245.2,326.9z M-246.7,329.1
			c-0.1,0.3-0.1-0.1-0.2-0.2c-0.3-0.6-0.4-1.3-0.8-1.7c-0.4,0.5-0.6,1.3-0.8,2c-0.3,0-0.2-0.5,0.1-0.5c-0.2-0.2,0-0.6,0.2-0.7
			c0.1-0.5,0.1-1.1,0.7-1.1C-247.3,327.7-247,328.4-246.7,329.1z M-245.6,328.8c-0.1,0.1-0.2,0.2-0.2,0.3c-0.1-0.5,0.4-1.1,0.5-1.7
			c0.1-0.2,0.2,0.1,0,0.1C-245.3,328-245.6,328.2-245.6,328.8z M-245.1,327.5c0.2,0.1,0.2,0.4,0.2,0.7
			C-245.2,328.1-245,327.9-245.1,327.5z M-244.9,328.8c-0.1,0.3-0.1-0.2-0.1-0.4C-244.9,328.2-244.9,328.7-244.9,328.8z
			 M-246.4,328.8C-246.4,328.7-246.3,328.8-246.4,328.8C-246.4,329.1-246.4,328.9-246.4,328.8z M-246.4,328.4
			c0.1-0.2,0.1,0.1,0.1,0.2C-246.4,328.7-246.4,328.5-246.4,328.4z M-246.3,327.5v0.5c-0.2,0.3-0.1-0.5-0.1-0.6
			C-246.3,327.2-246.3,327.4-246.3,327.5z M-247.8,328.8C-247.7,328.5-247.7,329.2-247.8,328.8L-247.8,328.8z M-247.7,327.8
			c0.2-0.2-0.1,0.3,0,0.6C-247.9,328.6-247.8,327.9-247.7,327.8z M-247.8,327.5C-247.7,327.3-247.7,327.5-247.8,327.5
			C-247.8,327.7-247.8,327.6-247.8,327.5z M-248.3,330.4c-0.1,0.3-0.1-0.2-0.1-0.3C-248.3,329.8-248.3,330.3-248.3,330.4z
			 M-247.4,330.3C-247.3,330-247.3,330.7-247.4,330.3L-247.4,330.3z M-264.4,329.4c-0.4,0.4-0.3,1.2-0.9,1.4
			c0.1-0.6,0.4-0.9,0.5-1.5c0.4-0.2,0.3-1,0.8-1.1c-0.2-0.2,0-0.3,0-0.6h0.8c0.1,1.2,0.9,1.7,1.1,2.9c-0.7-0.6-0.8-1.8-1.4-2.5
			c-0.1,0-0.1,0.1-0.2,0.1c0.3,0.3,0.3,1.8,0.1,2.5c-0.2-0.6,0-1.7-0.1-2.5C-264.2,328.3-264.1,329-264.4,329.4z M-251.4,330
			c-0.4,0-0.1-0.6-0.2-0.8v-1c0.1-0.1,0.4,0,0.4-0.2C-251.1,328.5-251.5,329.6-251.4,330z M-251.9,329.9
			C-251.6,329.5-252.1,330.3-251.9,329.9L-251.9,329.9z M-254.2,329.8c-0.2,0.1,0-0.9-0.1-1.3c0.1-0.2,0.1,0.1,0.1,0.2V329.8z
			 M-250.7,329.6C-250.6,329.2-250.6,329.9-250.7,329.6L-250.7,329.6z M-250.4,327.5c0.5,0.6,0.7,1.4,0.9,2.2
			C-249.9,329-250.2,328.3-250.4,327.5z M-249.2,329v-1.7c0.1-0.1,0.1,0,0.1,0.1v1.9C-249.2,329.7-249.2,329.1-249.2,329z
			 M-250.4,327.1c0.1,0.3-0.2,0.2-0.2,0.4v1.9c-0.2-0.4,0-1.3-0.1-1.8c0.1-0.3-0.3-0.1-0.2-0.5C-250.7,327-250.6,327-250.4,327.1z
			 M-254.4,327.2v2.8c-0.2-0.2-0.2-0.4-0.2,0.1c-0.3-0.9,0-1.7-0.1-2.9L-254.4,327.2L-254.4,327.2z M-255.8,329.9
			c-0.2-0.6,0-1.6-0.1-2.3h0.5c0.1,0.4,0.3,0.5,0.3,1c-0.4-0.1-0.2-0.8-0.6-0.9C-255.9,328.4-255.7,329.4-255.8,329.9z
			 M-255.2,328.8c0.3,0.2,0.3,0.5,0.4,0.8C-254.9,329.3-255.1,329.1-255.2,328.8z M-257.7,329.6v-1.8c0.1-0.1,0.1,0,0.1,0.1v2
			C-257.8,330.2-257.7,329.7-257.7,329.6z M-257.5,327.5C-257.6,327.5-257.6,327.6-257.5,327.5c-0.2,0.1-0.2-0.1-0.2-0.2
			C-257.6,327.3-257.5,327.4-257.5,327.5z M-259.2,327.5c0,0.2,0.2,0.3,0,0.5c0.4-0.1,0.1,0.4,0.4,0.5c0.1,0.7,0.5,1.1,0.7,1.8
			c-0.4-0.1-0.4-0.7-0.6-1c-0.2-0.3-0.3-0.7-0.5-1v-0.2c-0.1,0-0.1-0.1-0.2-0.1c-0.1,0.2-0.1,0.6,0,0.9c0,0.3,0.1,0.7-0.1,0.8
			c0,0.2,0.1,0.8-0.1,0.6v-2.3c-0.4,0-0.2,0.5-0.4,0.6c-0.1,0.2-0.2,0.5-0.3,0.6c-0.2,0.5-0.2,1.1-0.7,1.3c0.2-1.1,0.8-1.9,1.1-2.9
			C-259.9,327.5-259.2,327.5-259.2,327.5z M-261.5,328.2c0,0.8,0.2,1.8,0,2.2c-0.2-0.8,0-1.9-0.1-2.9
			C-261.2,327.6-261.5,328-261.5,328.2z M-292.3,327.6C-292.2,327.3-292.2,328-292.3,327.6L-292.3,327.6z M-265.9,327.7
			c0.4,0.1,0,0.5,0.1,0.9c-0.1,0.8,0.2,1.6,0,2.2C-266,330-265.8,328.8-265.9,327.7z M-256.1,331.2v-0.5
			C-255.8,330.6-255.8,331.4-256.1,331.2z M-255.7,331.1C-255.6,330.7-255.6,331.4-255.7,331.1L-255.7,331.1z M-262.6,331.8
			c0,0.1-0.2,0.1-0.4,0.1c0.1-0.1,0.1-0.2,0.1-0.5C-262.6,331.4-262.8,331.8-262.6,331.8z M-261.7,331.6h0.2v0.2h-0.2V331.6z
			 M-271,332.7c-0.2,0-0.2-0.1-0.2-0.3C-271,332.5-270.9,332.6-271,332.7z M-269.7,332.5c0,0.1-0.1,0.1-0.2,0.1
			C-269.9,332.5-269.7,332.5-269.7,332.5z M-272.3,332.9c-0.4,0.1-0.4-0.2-0.4-0.6C-272.4,332.3-272.4,332.7-272.3,332.9z
			 M-284.5,334c0,0.2-0.4,0-0.5,0.1c0.1-0.2-0.1-0.5,0.1-0.6C-284.5,333.5-284.8,334.1-284.5,334z M-283,333.6
			c0.3-0.1,0.3,0.4,0,0.3V333.6z M-255.4,335.5h-0.5c-0.2-0.1-0.4-0.8-0.6-0.6c-0.2-0.1,0.1-0.2-0.1-0.5c0.6-0.2,1.5,0,2,0
			c0,0.5-0.3,0.7-0.5,1c-0.1,0-0.1-0.1,0-0.1C-255.2,335-255.2,335.5-255.4,335.5z M-259.3,336.5c0.2,3.6,0.1,7.7-0.5,11
			c-0.3-0.1-0.5-0.3-0.8-0.4c0-0.2,0-0.5,0-0.7h-1.2c-0.2-2.1-0.4-4.3-0.5-6.5c0.1-0.4-0.3-0.2-0.2-0.6c0.2-1-0.1-1.8,0-2.9
			c0.3-0.6,0.7-1.2,1.5-1.4C-260.2,335.2-259.8,335.9-259.3,336.5z M-255.7,336.2c0.5,0.2,1,0.5,1.1,1c-0.7,0.1-1.2-0.1-1.9-0.1
			C-256.6,336.6-255.9,336.6-255.7,336.2z M-254.6,337.7c0,0.6-0.6,0.6-0.9,0.9c-0.5-0.2-0.9-0.5-1.1-1
			C-255.9,337.6-255.5,337.7-254.6,337.7z M-255.3,339.6c0-0.2,0.3,0.1,0.2,0.3c0.3-0.3,0,0.4,0.3,0.1c0.1,0.1,0.1,0.3,0.2,0.5
			c-0.4,0.3-0.8-0.1-1.3,0.1c0.2-0.4-0.4,0.1-0.7-0.3c0-0.5,0.6-0.5,0.7-0.9C-255.6,339.4-255.4,339.5-255.3,339.6
			C-255.1,339.6-255.2,339.6-255.3,339.6z M-254.6,340.5C-254.3,340.3-254.8,340.8-254.6,340.5L-254.6,340.5z M-256.3,339.4
			c-0.3,0-0.2-0.5-0.2-0.8C-256.1,338.5-256.2,339.3-256.3,339.4z M-254.9,339.4C-255,339.4-254.9,339.4-254.9,339.4
			c-0.3-0.4-0.1-0.8,0.4-0.9c-0.1,0.4-0.1,0.4,0,0.7c-0.1,0-0.2,0.1-0.2,0.2c-0.1,0-0.1-0.1,0-0.1
			C-254.7,339.2-254.8,339.3-254.9,339.4z M-254.6,341c-0.1,0.5-0.6,0.5-0.9,0.8c-0.5-0.1-0.7-0.6-1.1-0.8
			C-256,340.6-255.3,340.9-254.6,341z M-255.1,342.7c0.1,0.1,0.3,0.2,0.4,0.3c0,0.4-0.2-0.1-0.4,0.2c0.1,0.2,0.5,0.2,0.4,0.6
			c-0.5,0.1-1-0.2-1.7-0.1c-0.1-0.2,0-0.3-0.1-0.6c0.2-0.2,0.6-0.3,0.7-0.6c0.3,0.1,0.5,0.3,0.6,0.6
			C-254.8,343-255.1,343-255.1,342.7z M-254.8,341.8c0.3,0.1,0,0.5,0.2,0.7C-255.1,342.7-255,342-254.8,341.8z M-256.4,342.5V342
			C-256.1,341.9-256.1,342.6-256.4,342.5z M-254.9,344.9c0.2,0.5-0.2,1.3-0.1,2.3c-0.3-0.1-0.1,0.3-0.4,0.2c-0.3,0-0.2-0.5-0.4-0.1
			c-0.1-0.1,0-0.4-0.3-0.5c0.2-0.7-0.3-1.4-0.3-2.1C-255.8,344.2-255.2,345-254.9,344.9z M-265.6,343.7c0.4,0.2,0.1,0.9,0,1.3
			c0,0.3,0,1.5-0.5,1.4c0.2-0.7-0.3-1.9-0.1-2.8C-265.9,343.5-265.7,343.9-265.6,343.7z M-266.2,342.7c-0.1-0.1-0.2-0.3-0.2-0.6
			c0.4-0.4,0.7-0.1,0.8-0.6c0.1,0.1,0.3,0.1,0.5,0.1v0.5h-0.3c0-0.1-0.1-0.2-0.1-0.3c-0.3,0.2,0.3,0.3,0.2,0.8
			C-265.7,342.8-266,342.4-266.2,342.7z M-265.2,340.1c0.3,0.5-0.3,0.6-0.5,0.9c-0.3-0.3-0.8-0.4-0.8-0.9
			C-266.2,340-265.5,340.2-265.2,340.1z M-266.1,341.1c-0.3,0.1-0.4-0.2-0.4-0.4C-266.1,340.7-266.1,340.9-266.1,341.1z
			 M-265.7,338.5c0.3,0,0.4,0.3,0.6,0.2c0.2,0,0,0.3,0.1,0.5c-0.6,0,0.1,0.2-0.1,0.6c-0.7,0-0.7-0.1-1.4-0.1c-0.1-0.6,0.4-1,0.9-0.8
			C-265.6,338.7-265.7,338.6-265.7,338.5z M-266.1,338.2c-0.3,0.1-0.2-0.2-0.4-0.2c0.2-0.5,0.1-0.4,0-0.9c0.3-0.1,0.8,0.1,1.4,0
			c0.1,0.6-0.3,0.7-0.6,0.9c-0.3,0-0.3-0.2-0.5-0.3C-266.5,337.8-265.8,338-266.1,338.2z M-266.5,336.7c-0.1-0.6,0.4-1.1,0.9-0.8
			v-0.3c0.3,0,0.5,0.3,0.7,0.5c0,0.1-0.2,0.1-0.4,0.1c0.1,0.1,0.2,0.3,0.3,0.5C-265.3,336.9-266,336.5-266.5,336.7z M-256.4,335.5
			c0.4,0.1,0.4,0.8-0.1,0.7C-256.5,335.9-256.6,335.6-256.4,335.5z M-265.7,335c-0.3-0.3-0.8-0.4-0.6-1c0.5,0,0.9,0,1.1,0.1
			C-265.1,334.5-265.4,334.7-265.7,335z M-289.8,334.6c-0.2,0-0.3-0.1-0.3-0.3C-289.9,334.3-289.8,334.4-289.8,334.6z M-287.9,334.3
			c0,0.1-0.2,0.1-0.3,0.1C-288.2,334.3-288.1,334.3-287.9,334.3z M-291.7,334.6c0,0.2-0.4,0-0.6,0.1c-0.1-0.2,0-0.3-0.1-0.6
			c0.1-0.1,0.2-0.1,0.4-0.1C-292,334.4-292.1,334.7-291.7,334.6z M-297.9,335.3h-0.2v-0.4h0.2V335.3z M-295.9,335
			C-295.6,334.8-296.1,335.3-295.9,335L-295.9,335z M-300.3,335.4h0.3c-0.1,0.3-0.4-0.1-0.7,0v-0.6h0.4L-300.3,335.4L-300.3,335.4z
			 M-294,334.6c0.3,0,0.4,0.2,0.2,0.4C-294,334.9-294,334.8-294,334.6z M-309.9,330.4c0.2,0,0.2,0.1,0.2,0.2
			c-0.5,0.6-0.9,1.3-1.4,1.9c-0.1,0.5-0.4,0.7-0.7,1c-0.2,0.4-0.3,0.8-0.8,0.8c0.1-0.9,0.7-1.4,1.1-2c0.4-0.7,0.8-1.2,1.2-1.8
			C-310.1,330.5-309.9,330.5-309.9,330.4z M-304.5,334c0-0.1,0.1-0.1,0.2-0.1C-304.3,334-304.5,334-304.5,334z M-303,333.8
			c0,0.1-0.1,0.1-0.2,0.1C-303.1,333.8-303,333.8-303,333.8z M-309.3,334.2v-3.8h0.3c0.1,0.4-0.1,1.3,0.1,1.8
			C-309.3,332.7-308.6,334.1-309.3,334.2z M-314.1,330.8c0.3,0,0.1,0.3,0.2,0.7c-0.1,1,0.1,2.1-0.1,3c-0.5,0.1-0.3-0.4-0.3-0.6
			c-0.1-0.8,0-1.9,0-2.8v-0.3H-314.1z M-318.1,331c0.5,0.5,0.8,1.3,1.4,1.8c0.2,0.7,1.1,1.3,1.1,1.8c-0.5,0.3-0.6-0.3-0.9-0.6
			c-0.3-0.3-0.4-0.7-0.7-0.9c-0.4-0.6-0.9-1.2-1.3-1.8c-0.1-0.1-0.1-0.2-0.1-0.3C-318.2,331-318.4,331-318.1,331z M-286.5,333.9
			c0.3-0.1,0.3,0.4,0,0.3V333.9z M-304.3,332.3c0,0.6,0.2,1.4-0.3,1.6v-3.5h0.3V332.3z M-302.2,330.6c0,0.1-0.1,0-0.2,0
			C-302.3,330.5-302.2,330.5-302.2,330.6z M-279.8,333.3c0.1,0,0.2,0.1,0.2,0.3C-279.8,333.6-279.8,333.4-279.8,333.3z
			 M-300.1,333.5c-0.4-0.1-0.2-0.5-0.2-0.7c0-0.5,0-1.5,0-2.4v-0.3h0.3C-300,331.2-299.8,332.6-300.1,333.5z M-278.5,332.9h0.3
			c-0.1,0.2,0.1,0.5-0.1,0.6C-278.7,333.5-278.4,333.1-278.5,332.9z M-288.5,333.1C-288.4,332.7-288.4,333.4-288.5,333.1
			L-288.5,333.1z M-276.7,333c0.1,0,0.2,0.1,0.2,0.3C-276.7,333.3-276.7,333.1-276.7,333z M-275.2,333.1
			C-275.1,332.7-275.1,333.4-275.2,333.1L-275.2,333.1z M-273.8,332.7c0.1,0,0.2,0.1,0.2,0.3C-273.8,333-273.8,332.9-273.8,332.7z
			 M-268.6,332.3c0-0.1,0.1,0,0.2,0C-268.4,332.5-268.6,332.4-268.6,332.3z M-278.8,332.1c0.1-0.2,0.1,0.1,0.1,0.2
			C-278.8,332.4-278.8,332.2-278.8,332.1z M-281.1,332C-281,331.6-281,332.3-281.1,332L-281.1,332z M-267.6,331.9
			c0.4-0.1,0,0.5,0.4,0.4c0,0.1-0.2,0.1-0.4,0.1V331.9z M-273.2,331.8C-273.1,331.4-273.1,332.2-273.2,331.8L-273.2,331.8z
			 M-266.2,332c0.3-0.1,0.3,0.4,0,0.3V332z M-263.8,331.9C-263.7,331.5-263.7,332.2-263.8,331.9L-263.8,331.9z M-259.6,331.4
			C-259.5,331.1-259.5,331.8-259.6,331.4L-259.6,331.4z M-258.8,331.1c0.3,0,0.3,0.4,0.2,0.5C-258.8,331.5-258.8,331.3-258.8,331.1z
			 M-269.9,331C-269.9,331.1-270,331-269.9,331c0.4-1,0.9-2,1.3-3c0.5,0,0.6-0.2,0.9,0c0.2,1.1,1.1,2,1.2,2.9
			c-0.5-0.3-0.5-0.9-0.8-1.3c-0.3-0.4-0.4-0.9-0.7-1.3c-0.2,0.6,0,1.7-0.1,2.5c0,0.2-0.1,0.2-0.1,0v-0.4c-0.2-0.5,0-1.8-0.1-2.1
			c-0.3,0.1-0.2,0.5-0.4,0.7c-0.2,0.2-0.2,0.5-0.4,0.6c-0.1,0.6-0.5,0.9-0.6,1.5C-269.8,331.2-269.7,330.6-269.9,331z M-257.6,331.2
			C-257.5,330.9-257.5,331.6-257.6,331.2L-257.6,331.2z M-300.3,327.9C-300.2,327.6-300.2,328.3-300.3,327.9L-300.3,327.9z
			 M-270.8,328h0.3c0,0.9,0,2.3,0,3.2c-0.3,0-0.2-0.4-0.2-0.6c0-0.6,0-1.6,0-2.3C-270.8,328.3-270.7,328.1-270.8,328z M-272.7,328.1
			c0.3,1.2,1.2,1.9,1.5,3.2c-0.6-0.2-0.6-0.9-0.9-1.4c-0.2-0.2-0.3-0.4-0.4-0.7c-0.3-0.1-0.1-0.6-0.5-0.6c0,0.6,0,1.9,0,2.9
			c-0.5-0.2-0.1-0.7-0.2-1.3v-1.6c-0.5,0.3-0.6,1-0.9,1.6c-0.3,0.5-0.6,1-0.8,1.6c-0.2,0,0-0.4-0.1-0.6c0.4-0.8,0.6-1.8,1.3-2.4
			c-0.2-0.2,0.2-0.3,0.1-0.6L-272.7,328.1L-272.7,328.1z M-273.5,330.1C-273.4,329.8-273.4,330.5-273.5,330.1L-273.5,330.1z
			 M-275.2,331.4C-275.1,331.1-275.1,331.8-275.2,331.4L-275.2,331.4z M-275.7,328.3c-0.2,0.5,0,1.1-0.1,1.5
			c-0.1,0.2,0.2,0.2,0.3,0.3c-0.3,0-0.5,1-0.1,1.1c-0.1,0.2-0.3,0.3-0.2,0.7c-0.4-0.9-0.1-2.4-0.2-3.6L-275.7,328.3L-275.7,328.3z
			 M-276.2,330.9C-276.1,330.5-276.1,331.2-276.2,330.9L-276.2,330.9z M-276.2,330.3C-276.2,330.2-276.1,330.3-276.2,330.3
			C-276.2,330.6-276.2,330.4-276.2,330.3z M-278.3,328.4c0.5,1.2,1.1,2.1,1.7,3.2c-0.5,0.2-0.7-0.5-0.9-0.9
			c-0.2-0.4-0.4-0.9-0.7-1.2c-0.1-0.3-0.2-0.6-0.5-0.7c-0.3,0.1,0.2,0.3,0.1,0.6c-0.2,0.3-0.1,0.9-0.1,1.4c0,0.4,0.2,1.1-0.2,1.2v-3
			c-0.3,0.1-0.4,0.5-0.5,0.8c-0.3,0.4-0.5,0.8-0.7,1.3c-0.2,0.4-0.4,0.9-0.8,1.1c-0.2-0.5,0.4-0.9,0.2-1.1c0-0.1,0.1-0.1,0.1,0
			c0.5-0.8,1-1.7,1.4-2.6L-278.3,328.4L-278.3,328.4z M-279.1,330.6c0.1-0.2,0.1,0.1,0.1,0.2C-279.1,330.9-279.1,330.7-279.1,330.6z
			 M-279.1,329.9C-279,329.6-279,330.3-279.1,329.9L-279.1,329.9z M-281.7,328.6c-0.1,0.8,0.1,2,0,2.9c0,0.2,0.2,0.8-0.3,0.7v-3.6
			H-281.7z M-282.2,331.3C-282.1,331.2-282.1,331.3-282.2,331.3C-282.1,331.6-282.2,331.4-282.2,331.3z M-282.2,330.9
			c0.1-0.2,0.1,0.1,0.1,0.2C-282.2,331.2-282.2,331-282.2,330.9z M-284.7,328.7c0.7,1.2,1.5,2.3,2,3.6c-0.8-0.1-0.7-1.1-1.2-1.5
			c-0.3-0.6-0.6-1.1-0.9-1.7c-0.4-0.1-0.1,0.5-0.2,0.7c-0.1,0.6,0.1,1.4,0,2.1c0,0.1,0.1,0.5-0.2,0.5c0-1.4-0.1-2.1,0-3.3
			c-0.6,0.4-0.7,1.2-1.1,1.8c-0.2,0.3-0.4,0.5-0.5,0.9c-0.3,0.2-0.2,0.8-0.7,0.7c0-0.8,0.5-1.1,0.7-1.7c0.2-0.5,0.7-1.1,0.7-1.4
			c0.1-0.1,0.3-0.2,0.5-0.2c0-0.1-0.2-0.1-0.3-0.1C-285.8,328.8-285.4,328.6-284.7,328.7z M-285.5,331.1
			C-285.4,331-285.4,331.1-285.5,331.1C-285.4,331.4-285.5,331.2-285.5,331.1z M-285.5,331c-0.3-0.1,0.1-0.2,0-0.4
			C-285.2,330.6-285.4,330.9-285.5,331z M-285.5,330.2C-285.2,330-285.7,330.5-285.5,330.2L-285.5,330.2z M-288.4,328.8
			c0.1,1.1,0.2,2.7,0,3.9c-0.3-0.4-0.2-1.1-0.2-1.8c0-0.7,0-1.3,0-1.8v-0.3C-288.6,328.9-288.5,329-288.4,328.8z M-291.5,329
			c0.5,1.4,1.5,2.3,2.1,3.7c-0.6,0.1-0.5-0.5-0.8-0.6c-0.3-0.2-0.3-0.7-0.6-0.8c-0.3-0.6-0.6-1.3-1.1-1.8c-0.2,1,0,2.4-0.1,3.5
			c-0.5-0.2-0.3-1-0.3-1.7v-1.8c-0.4,0.1-0.4,0.6-0.6,0.8c-0.2,0.3-0.4,0.6-0.5,0.9c-0.4,0.6-0.8,1.1-1,1.8c-0.2,0-0.3,0.1-0.3,0.2
			c0,0-0.1-0.5-0.2-0.1c-0.2-0.3,0.3-0.8,0.4-1.1c0.1-0.4,0.5-0.6,0.6-1c0.5-0.6,0.8-1.4,1.3-2L-291.5,329L-291.5,329z
			 M-292.7,332.5c0-0.1,0.1,0,0.2,0C-292.5,332.6-292.7,332.6-292.7,332.5z M-294.8,332.3C-294.5,332.1-295,332.7-294.8,332.3
			L-294.8,332.3z M-294.1,329.9c0.3,0.1-0.4,0.3-0.4,0.2C-294.6,329.8-294,330.1-294.1,329.9z M-295.2,330
			C-294.9,329.7-294.9,330.3-295.2,330L-295.2,330z M-295.3,330.1C-295.5,330.4-295.8,329.9-295.3,330.1L-295.3,330.1z M-296,329.2
			c0.5,0-0.1,0.5,0.1,0.8c-0.1,1,0.1,2.3-0.1,3.1c-0.4,0.1-0.1-0.4-0.2-0.6v-2.3c0-0.2,0-0.4,0.2-0.5c-0.2-0.1-0.3-0.3-0.2-0.6
			C-296.2,329.2-296,329.2-296,329.2z M-296.4,331.8C-296.3,331.4-296.3,332.2-296.4,331.8L-296.4,331.8z M-296.4,330.8
			C-296.3,330.6-296.3,330.8-296.4,330.8C-296.3,331-296.4,330.9-296.4,330.8z M-299.6,329.3c0.4,0.7,0.8,1.3,1.3,1.9
			c0.3,0.8,1,1.2,1.2,2c-0.5,0.2-0.7-0.3-0.8-0.6c-0.3-0.2-0.4-0.6-0.7-0.8c-0.3-0.7-0.9-1.2-1.1-1.9c-0.5,0.3-0.6-0.1-1.1,0.2
			c0,0.6-0.7,1.3-1,1.9c-0.3,0.3-0.5,0.6-0.6,1c-0.3,0.2-0.3,0.7-0.8,0.7c-0.5,0,0.1-0.1,0-0.4c0.1-0.1,0-0.4,0.3-0.5
			c0.1-0.4,0.3-0.6,0.5-0.9c0.4-0.6,0.7-1.2,1.1-1.8c0.1-0.1,0.2-0.1,0.2,0c0-0.2,0.1-0.6,0.3-0.8
			C-300.4,329.3-299.8,329.5-299.6,329.3z M-304.2,329.6c0,0.2-0.1,0.5-0.2,0.6c-0.3,0-0.2-0.5-0.3-0.7
			C-304.6,329.6-304.5,329.6-304.2,329.6z M-308.4,329.8c0.8,1.5,2,2.6,2.7,4.1c-1-0.1-1-1.1-1.6-1.6c-0.3-0.7-0.9-1.2-1.2-1.8v-0.2
			c-0.6-0.2-1,0-1.7,0C-310,329.7-309.3,329.7-308.4,329.8z M-313.9,329.9c-0.1,0.4,0.1,0.6-0.2,0.7c-0.4,0.1-0.1-0.5-0.2-0.7
			H-313.9z M-318.6,330.1c0,0.3,0.2,0.5,0.4,0.6c-0.4,0.4-0.9-0.4-1.2,0.1c-0.2,0-0.2-0.2-0.4-0.3c-0.2,0.2-0.3,0.4-0.8,0.3
			C-320.4,330-319.4,330.3-318.6,330.1z M-325.3,330.4c0.3-0.1,0.2,0.2,0.2,0.4c0.4,0-0.1-0.4,0.3-0.4v0.5c-0.1,0-0.3,0-0.3,0.1
			C-325.3,330.9-325.2,330.6-325.3,330.4z M-319.3,331c0.2,1.1,0.2,2.8,0,3.9c-0.3,0-0.3-0.5-0.3-0.7c0-0.7,0.2-1.9,0.1-2.9
			C-319.6,331-319.4,331.1-319.3,331z M-320.1,331.1c0,0.3-0.4,0.3-0.3,0.6c-0.5,0.2-0.6,0.6-0.8,1.1c-0.5,0.2-0.5,0.9-1,1.1
			c-0.2,0.5-0.4,1-0.9,1.2c0-0.4-0.1,0-0.3-0.1c0.1-0.6,0.6-1,0.9-1.5c0.3-0.5,0.6-0.9,1-1.4c0.3-0.2,0.3-0.7,0.7-0.8
			c0-0.1,0.1-0.2,0.1-0.3L-320.1,331.1L-320.1,331.1z M-325.2,331.1h0.2c0.6,0-0.2,0.8,0.2,0.9c-0.2,0.6,0.1,2.1-0.2,3.1
			c-0.4,0-0.1-0.6-0.2-0.9c0-0.7,0-1.9,0-2.9V331.1z M-328.4,333.9c-0.4-0.5-0.9-1-1.2-1.6c0,0,0-0.1-0.1-0.1v-0.8
			c1,1.1,1.8,2.4,2.9,3.6v0.3c-0.3-0.1-0.3-0.3-0.2,0.1C-327.7,335.1-327.9,334.4-328.4,333.9z M-302.4,335.3c0.1,0,0.1,0.2,0.1,0.4
			h-0.3C-302.7,335.4-302.4,335.4-302.4,335.3z M-306.9,336h-0.3v-0.4C-307.1,335.7-306.9,335.8-306.9,336z M-304.5,335.8
			c0,0.1-0.2,0.1-0.3,0.1C-304.8,335.7-304.7,335.8-304.5,335.8z M-310.1,335.6h0.3c0.1,0.1,0.3,0.7-0.1,0.6
			C-310.3,336.3-310,335.8-310.1,335.6z M-312.2,336.1c0.3-0.1,0.2,0.3,0.1,0.4C-312.4,336.4-312.2,336.4-312.2,336.1z
			 M-320.5,336.4c0.2,0.1-0.1,0.7,0.3,0.6c0,0.2-0.5,0-0.7,0.1C-321.1,336.8-321.1,336.3-320.5,336.4z M-317.3,336.7v0.2
			c-0.1,0-0.2,0-0.2,0.1c-0.3-0.1-0.1-0.1-0.1-0.4h0.2C-317.4,336.7-317.3,336.7-317.3,336.7z M-314.6,336.6c0,0.1-0.2,0.1-0.3,0.1
			C-314.9,336.6-314.7,336.6-314.6,336.6z M-323.4,337.1c0-0.1,0.3-0.1,0.4-0.1c0,0.3-0.1,0.4-0.4,0.4
			C-323.4,337.3-323.3,337.2-323.4,337.1z M-329.6,337.6c0.2,0,0.2,0.1,0.4,0.1c0,0.2-0.2,0.2-0.4,0.2V337.6z M-326.1,337.5
			c0,0.1-0.2,0.1-0.3,0.1C-326.4,337.5-326.2,337.5-326.1,337.5z M-314,353.3c-1.5-1.2-2.6-3.9-3.1-6.1h-8.6v6.1h-4v-13
			c20.2-2.1,40.6-4,60.5-6.3c0.2,8.7-0.5,15.5-0.8,20.2c-7.7-0.8-14.9-9.5-16.5-14.7C-293.7,338.6-297.1,360.9-314,353.3z
			 M-233.2,334.6h-4.9c0.7,6.7,0.9,13.4,0.9,20.2c-1.3-1.5-2.1-3.5-2.7-5.2c-0.6-0.5-1.2-1-1.8-1.5c-0.6,1.6-1.2,3.3-1.8,4.9
			c-1.4,0.1-2.9,0.2-4.3,0.3c-0.1-3.7-0.2-7.4-0.3-11h-2.5c-0.1,3.7-0.2,7.4-0.3,11.1c-0.1-2-0.2-2.2-0.6-6.2
			c-0.5-3.6-0.8-8.7-0.4-12.2c0.1-0.6,0.1-1.1,0.2-1.6c0.5-0.5,1-1,1.9-1.1c0.6-0.4,1.3-0.8,1.9-1.2c5-0.3,9.8-0.7,14.7-1
			L-233.2,334.6L-233.2,334.6z M-246.6,330.2c0,0.3-0.3,0-0.2-0.2C-246.7,330.1-246.7,330.2-246.6,330.2z M-243.9,330.1
			c-0.2,0-0.2-0.2-0.2-0.4C-243.9,329.8-243.9,329.9-243.9,330.1z M-241.5,329.8C-241.8,329.5-241.2,330-241.5,329.8L-241.5,329.8z
			 M-239.3,329.7C-239.1,329.3-239.1,330-239.3,329.7L-239.3,329.7z M-237.2,329.4C-237.1,329-237.1,329.8-237.2,329.4L-237.2,329.4
			z M-235.2,329.3c0.1-0.1,0.1,0,0.1,0.1C-235.1,329.5-235.2,329.4-235.2,329.3z M-233.4,329.2
			C-233.3,328.8-233.3,329.6-233.4,329.2L-233.4,329.2z M-244.7,327.4c-0.3-0.2,0.3,0,0.1,0.3c0.2,0.4,0.4,0.9,0.5,1.4
			C-244.4,328.5-244.6,328-244.7,327.4z M-243.7,327.5v1C-243.9,328.6-243.8,327.7-243.7,327.5
			C-243.8,327.2-243.7,327.4-243.7,327.5z M-242.8,327.2c0.2,0.5-0.4,1.1-0.4,1.8C-243.4,328.4-242.9,327.8-242.8,327.2z
			 M-242.2,327.3c0.1,0.5,0.4,0.9,0.5,1.5C-242.1,328.4-242.1,327.8-242.2,327.3C-242.4,327.2-242.2,327.2-242.2,327.3z
			 M-241.3,327.6v0.5c-0.2,0.2-0.1-0.5-0.1-0.7C-241.4,327.1-241.3,327.5-241.3,327.6z M-241,328.8c0.2-0.5,0.3-1,0.5-1.6
			c0.2,0.2-0.1,0.6-0.1,0.8C-240.8,328.2-240.7,328.7-241,328.8z M-237.1,328.3c-0.2,0.3-0.1-0.5-0.1-0.6c0.1-0.2,0.1,0.1,0.1,0.2
			V328.3z M-236.6,328c-0.1,0.1-0.1,0-0.1-0.1C-236.6,327.8-236.6,327.9-236.6,328z M-236.5,327.7c-0.3-0.1,0.1-0.3,0-0.6
			C-236.2,327-236.5,327.6-236.5,327.7z M-235.9,327.6C-235.8,327.3-235.8,328-235.9,327.6L-235.9,327.6z M-235.3,327.4
			c0.1-0.3,0.1,0.2,0.1,0.4C-235.3,328-235.3,327.5-235.3,327.4z M-236,327.2C-235.7,327.7-236.2,326.8-236,327.2L-236,327.2z
			 M-237.6,328C-237.5,328.2-237.7,328.2-237.6,328c-0.1,0-0.1-0.1-0.2-0.1c0-0.1,0-0.2-0.1-0.2c0.1-0.3-0.1-0.4-0.1-0.6
			C-237.7,327.3-237.7,327.7-237.6,328z M-238.1,328.3c-0.1,0.2-0.1-0.1-0.1-0.2C-238.1,327.9-238.1,328.2-238.1,328.3z
			 M-238.2,327.7C-238.1,327.6-238.1,327.7-238.2,327.7C-238.1,328-238.2,327.8-238.2,327.7z M-238.1,327.4
			c-0.1,0.2-0.1-0.1-0.1-0.2C-238.1,327-238.1,327.2-238.1,327.4z M-239.2,327.7c-0.1,0.3-0.1-0.3-0.1-0.5
			C-239.1,327-239.2,327.6-239.2,327.7z M-239.9,327.6c-0.1,0.2-0.2-0.3-0.2-0.5C-239.9,327.3-239.9,327.5-239.9,327.6z
			 M-239.7,328.5c0-0.2-0.2-0.2-0.1-0.5C-240,327.6-239.6,328.2-239.7,328.5C-239.5,328.6-239.7,328.8-239.7,328.5z M-238.6,327.6
			c0.1-0.2,0.1,0.9-0.3,0.9C-238.8,328.2-238.6,328-238.6,327.6z M-237.6,328.4C-237.5,328.2-237.5,328.4-237.6,328.4
			C-237.5,328.6-237.6,328.5-237.6,328.4z M-236.8,328.3C-236.7,328.1-236.7,328.3-236.8,328.3
			C-236.7,328.5-236.8,328.4-236.8,328.3z M-235.8,327.8c0.1,0,0.1,0.2,0.2,0.2C-235.6,328.7-235.7,328.1-235.8,327.8z
			 M-235.2,328.2C-235.2,328.3-235.3,328.2-235.2,328.2C-235.2,328-235.2,328.1-235.2,328.2z M-234.8,328c0-0.4,0.1-0.6,0.2-0.8
			c0.1-0.2,0.2,0.1,0,0.1C-234.6,327.6-234.7,327.9-234.8,328C-234.7,328.6-235.1,328-234.8,328z M-233.5,328.1
			C-233.4,327.7-233.4,328.5-233.5,328.1L-233.5,328.1z M-233.9,328.1C-233.8,327.7-233.8,328.5-233.9,328.1L-233.9,328.1z
			 M-234.3,328c-0.1,0.3-0.1-0.2-0.1-0.3C-234.3,327.4-234.3,327.9-234.3,328z M-233.5,327.7C-233.4,327.4-233.4,328.1-233.5,327.7
			L-233.5,327.7z M-233.9,327.8c-0.1,0.2-0.2-0.3-0.2-0.5C-233.9,327.4-233.9,327.7-233.9,327.8z M-234.2,327.2
			C-234.1,326.8-234.1,327.5-234.2,327.2L-234.2,327.2z M-238.5,327.2c0-0.2,0.4-0.8,0.5-0.2c-0.1,0-0.2,0-0.2-0.1
			C-238.3,327-238.4,327.8-238.5,327.2z M-234.2,326.7c0,0.2-0.1,0.2-0.3,0.2c0-0.1,0.1-0.1,0.1-0.2H-234.2z M-236.1,326.7
			c0,0.2-0.1,0.2-0.3,0.2c0-0.1,0.1-0.1,0.1-0.2H-236.1z M-233.2,324.4v0.9c-2.6-0.9-5-1.8-7.3-3.1c-0.2,0.3,0.5,0.4,0.7,0.6
			c0.2,0.2,0.7,0.3,0.9,0.6c1.9,0.8,3.6,1.7,5.7,2.2v0.3c-0.4,0-0.9-0.1-1,0.3c-0.3,0.1-0.1-0.4-0.5-0.3c-1.2,0-2.2,0-3.3,0.1
			c-0.4,0.3-0.4-0.1-0.7,0.2c-0.4-0.2-0.5,0-1-0.2c-3.9-0.1-8.2,0.1-12.3,0.1c0.1-1-0.2-1.6-0.1-2.6c0.2-0.2,0.9,0,0.8-0.6
			c0.1-0.4-0.2,0.1-0.2-0.2c0.2-0.2-0.5-0.4-0.7-0.6c-0.1-2.4-0.2-4.8-0.2-7.3c2,1.2,3.7,2.7,5.8,3.9c1.9,1.3,3.8,2.5,6,3.6
			c0.1-0.2-0.2-0.2-0.3-0.3c-0.5-0.4-1.3-1-2.1-1.3c-0.6-0.6-1.6-0.9-2.3-1.6c-0.2,0-0.3,0.2-0.3,0c0-0.2-0.1-0.2-0.1,0
			c-0.3-0.5-0.8-0.8-1.4-0.8c-0.1-0.1-0.2-0.3-0.3-0.4c-0.2-0.1-0.4-0.1-0.2-0.3c-0.2,0-0.4,0-0.5-0.1c-1.3-1.2-3.1-2-4.3-3.3
			c0-1-0.2-1.7-0.1-2.8c5.1,4,9.8,8.3,15.9,11.3c1,0.5,2.1,1,3.1,1.5C-233.4,324.4-233.3,324.4-233.2,324.4z M-234.8,326
			C-234.7,325.6-234.7,326.3-234.8,326L-234.8,326z M-266.6,325.3C-266.5,325.2-266.5,325.3-266.6,325.3
			C-266.5,325.6-266.6,325.4-266.6,325.3z M-266.6,324.2c0.1-0.3,0.1,0.2,0.1,0.3C-266.6,324.8-266.6,324.3-266.6,324.2z
			 M-262.8,322.3c0.1-4.1-0.4-9.2-0.1-13.5c0.1-0.7,0.3-1.4,0.5-2c0.1-0.1,0.1-0.1,0.1-0.3c1.2,1,2.3,1.9,3.4,2.9
			c0.1,0.7-0.1,1.3-0.1,2c0,0.4,0.2,0.8,0.2,1.2c0.1,1.2,0,2.4,0,3.6c0,2-0.2,3.9-0.2,5.9c-0.9,0.4-1.9,0-2.8-0.2
			C-262.3,322-262.6,322.5-262.8,322.3z M-266.6,322.3c-0.2-0.1,0-0.6-0.1-0.9C-266.3,321.4-266.5,322.1-266.6,322.3z M-266.6,320.3
			C-266.2,320-266.8,320.6-266.6,320.3L-266.6,320.3z M-266.6,319C-266.3,318.7-266.9,319.3-266.6,319L-266.6,319z M-266.7,316.5
			c0.6,0,1-0.2,1.7-0.1c-0.2,0.4-0.5,0.7-0.8,1.1C-266.2,317.2-266.5,317-266.7,316.5z M-266.6,317.2
			C-266.9,316.9-266.3,317.5-266.6,317.2L-266.6,317.2z M-264.9,316.9c-0.1,0.1,0,0.3-0.3,0.3C-265.2,317-265.1,316.9-264.9,316.9z
			 M-265.3,318.1c-0.1-0.4,0.3-0.4,0.3-0.6c0.2,0.1,0,0.6,0.1,0.8c-0.1,0.2-0.1-0.1-0.1-0.2C-265,318-265.1,318.2-265.3,318.1z
			 M-265.6,317.7c0.1-0.1,0.1-0.1,0.1-0.3h0.3C-265.3,317.5-265.3,317.7-265.6,317.7z M-266.4,317.9c0.1,0.4-0.2,0.4-0.2,0.6
			c-0.2-0.2,0-0.7-0.1-1C-266.5,317.6-266.5,317.7-266.4,317.9z M-265.8,313.7c-0.5-0.1-0.6-0.6-0.9-0.8c0.2-0.2,1.1-0.2,1.7-0.3
			C-265.2,313-265.5,313.3-265.8,313.7z M-265.1,313.2h0.2v0.2c-0.1,0-0.1,0-0.1,0.1h-0.2L-265.1,313.2
			C-265.1,313.3-265.1,313.2-265.1,313.2z M-265.5,314c-0.2-0.1,0.1-0.4,0.3-0.4C-265.2,313.8-265.5,313.8-265.5,314z M-264.9,313.6
			c0.1,0.2-0.1,0.8,0,1.2c-0.1-0.2-0.4-0.3-0.4-0.6C-265.3,314-264.9,313.9-264.9,313.6z M-266.7,314.8c-0.2-0.2,0-0.8-0.1-1.1
			C-266.4,313.9-266.2,314.6-266.7,314.8z M-266,314.6c-0.3,0.2-0.3,0.7-0.8,0.7c0.1-0.1,0.1-0.3,0.4-0.3
			C-266.4,314.8-266.4,314.6-266,314.6z M-265.9,314.8c0.5,0.2,0.8,0.6,1,1c-0.7-0.1-1.1,0.2-1.8,0.1
			C-266.5,315.5-266.1,315.3-265.9,314.8z M-265.8,311.1c0.3,0.3,0.7,0.5,0.8,1c-0.6,0-1.2,0.2-1.6,0.1
			C-266.4,311.7-266,311.4-265.8,311.1z M-266.7,311.9c-0.3-0.1-0.1-0.6,0.3-0.5C-266.4,311.6-266.7,311.6-266.7,311.9z
			 M-265.6,310.2c0.1-0.4,0.4-0.6,0.6-0.8c0.3,0.1-0.1,0.4-0.3,0.4C-265.3,310-265.3,310.3-265.6,310.2z M-265,309.9
			c0.3,0,0.1,0.1,0.1,0.2c0.1,0.3,0.1,0.4,0,0.7c0,0.1,0,0.2,0.1,0.2c-0.2,0.2-0.5-0.3-0.5-0.6C-265.3,310.2-264.9,310.3-265,309.9z
			 M-265.8,310c-0.4-0.2-0.8-0.4-0.9-0.9c0.5,0,1-0.1,1.6-0.2C-265.2,309.4-265.7,309.6-265.8,310z M-266.4,310.4
			c0.1,0.5-0.3,0.4-0.3,0.7c-0.2-0.2,0-0.8-0.1-1.1C-266.6,310.1-266.6,310.3-266.4,310.4z M-266.2,310.9c0.3,0.3-0.3,0.5-0.3,0.5
			C-266.7,311.2-266.2,311.1-266.2,310.9z M-265.8,307.4c0.3,0.2,0.6,0.5,0.8,0.9c-0.5,0.1-1,0.2-1.6,0.2
			C-266.4,308-266,307.7-265.8,307.4z M-266.8,308.2C-266.5,307.9-267.1,308.5-266.8,308.2L-266.8,308.2z M-285.9,308.8
			c-0.9-0.1-1.5,0.6-2.3,0.4c-0.4,0.4-1.1,0.5-1.9,0.6c-1,0.3-2.3,0.8-3.5,0.7c-0.3,0.3-1,0.4-1.5,0.6c-0.6,0-1.1,0.4-1.7,0.2
			c9.3-2.5,18.7-4.9,27-8.2c-0.1,0.5,0.4,0.4,0.4,0.7c-0.5,0.2-0.9,0.4-1.6,0.5c-1.9,0.9-4.3,1.3-6.3,2.1c-1.2,0.2-2.2,0.6-3.3,0.9
			c-1,0.3-2.1,0.7-3.3,0.8C-284.3,308.4-285.2,308.5-285.9,308.8z M-282.5,308.3C-283,308.5-282.1,308.1-282.5,308.3L-282.5,308.3z
			 M-262.4,303.3C-262.3,302.9-262.3,303.7-262.4,303.3L-262.4,303.3z M-256.5,303.2c0,0.1-0.1,0.1-0.2,0.1
			C-256.7,303.2-256.6,303.2-256.5,303.2z M-255.5,304.3c0,0.2-0.3,0.4-0.4,0.7c-0.4-0.3-0.8-0.5-1-1c0.6-0.1,1.3-0.2,1.9-0.3
			C-255.1,304-255.4,304.4-255.5,304.3z M-254.7,303.9C-254.3,304.1-255,304.2-254.7,303.9L-254.7,303.9z M-254.9,304.2
			c0.3,0.1-0.1,0.4-0.3,0.4C-255.1,304.4-255,304.4-254.9,304.2z M-256.6,307.3c0-0.4,0.7-0.8,0.9-1.3c0.4,0.3,0.8,0.5,1,1
			c-0.5-0.1-1.2,0.4-1.6,0C-256.4,307.1-256.4,307.1-256.6,307.3z M-255.6,308.4c-0.1-0.2-0.3-0.3-0.5-0.5c0.3-0.3,0.8,0,1.3-0.3
			C-255,307.9-255.1,308.3-255.6,308.4z M-254.6,307.8c0.2,0.1,0,0.2,0,0.3C-254.7,308-254.6,307.9-254.6,307.8z M-255.7,309.9
			c0.5,0.2,0.7,0.7,1.1,0.9c-0.6,0.3-1.3,0.3-1.9,0.2C-256.4,310.6-255.9,310.4-255.7,309.9z M-256.6,310.7c-0.2,0,0-0.4,0.2-0.4
			C-256.4,310.6-256.6,310.5-256.6,310.7z M-256.1,308.1c0.1,0.3,0.8,0.4,0.4,0.8c-0.4-0.3-0.8-0.6-1-1h0.3c0.2,0.2,0,0.1,0,0.4
			C-256.3,308.2-256.3,308.1-256.1,308.1z M-256.3,309.4c0,0.5-0.5,0.5-0.5,0.9c-0.3-0.3,0.1-1.3-0.2-1.6
			C-256.8,308.6-256.5,309.1-256.3,309.4z M-256,309.9c0.1,0.2-0.2,0.1-0.2,0.3C-256.5,310.1-256.3,309.8-256,309.9z M-255.2,309.2
			c0.4,0.2,0.8,0.4,0.7,1C-254.7,309.9-255.2,309.8-255.2,309.2z M-254.6,308.5c0.2,0.1,0,0.6,0.1,0.8
			C-254.9,309.2-254.9,308.7-254.6,308.5z M-255,308.6c-0.3-0.1,0.1-0.2,0.1-0.4C-254.6,308.3-255,308.4-255,308.6z M-258.9,308.8
			c-0.1,0.4-0.5-0.3-0.7-0.5c-0.4-0.1-0.6-0.5-0.8-0.7c-0.7-0.3-1-1-1.7-1.3c0.2-0.5,0.8-0.7,1.1-1.2
			C-259.5,305.6-259,307-258.9,308.8z M-264.9,306.1c0.2,0.3,0,1,0.1,1.5c-0.3-0.1-0.3-0.5-0.6-0.6
			C-265.3,306.6-265,306.4-264.9,306.1z M-265.7,306.5c0-0.2,0.1-0.3,0.3-0.3c0-0.1,0-0.1-0.1-0.1
			C-265.2,305.9-265.3,306.6-265.7,306.5z M-265.3,306.1c-0.1-0.3,0.2-0.2,0.2-0.4C-264.8,305.8-265,306.2-265.3,306.1z
			 M-264.9,305.4C-264.8,305.1-264.8,305.8-264.9,305.4L-264.9,305.4z M-256.4,306.3c0,0.3-0.3,0.2-0.3,0.5
			C-257,306.7-256.7,306.3-256.4,306.3z M-256.8,306.9c0,0.1-0.1,0.1-0.2,0.1C-257,306.9-256.9,306.9-256.8,306.9z M-256.4,306.3
			c-0.1-0.3,0.2-0.2,0.2-0.4C-256,305.9-256.2,306.4-256.4,306.3z M-255.3,305.6c0-0.5,0.5-0.6,0.6-1c0.4-0.1-0.1,0.4,0.2,0.6
			c0.1,0.5-0.1,0.9,0,1.2C-254.8,306.2-255,305.9-255.3,305.6z M-255.5,305.1c-0.2,0,0.1-0.2,0.1-0.4
			C-255,304.9-255.5,305-255.5,305.1z M-265.5,304.4C-265.4,304-265.4,304.8-265.5,304.4L-265.5,304.4z M-261,304
			c0-0.1,0.1-0.1,0.2-0.1C-260.8,303.9-260.9,303.9-261,304z M-280.7,307.7c0.2,0,0.2-0.1,0.4-0.1c0.2-0.1,0.5-0.2,0.8-0.2
			c0.4-0.3,1.1-0.3,1.6-0.5c0.9-0.4,2.1-0.5,3-1c1.6-0.4,3.1-1,4.6-1.5c0.5-0.1,1-0.6,1.4-0.4c0.3,0.3-0.2,0.3-0.4,0.5
			c-0.3,0-0.4,0.2-0.8,0.2c-1.5,0.5-3,1-4.6,1.4c-2,0.6-4.1,1.2-6.2,1.8C-281.3,307.8-280.6,307.9-280.7,307.7z M-257.1,304.7
			c0.3,0.2,0.6,0.4,0.8,0.7c-0.1,0.4-0.5,0.6-0.6,1C-257.2,305.9-257,305-257.1,304.7z M-262.4,305.2c-0.1,0-0.2-0.2-0.3-0.2
			c0.1-0.1,0.2-0.2,0.4-0.2C-262.3,305.1-262.4,305.1-262.4,305.2z M-266.1,306.3c-0.1-0.4-0.5-0.4-0.6-0.8c0.5-0.2,1-0.2,1.6-0.3
			C-265.4,305.6-265.6,306.2-266.1,306.3z M-266.4,306.8c0,0.3-0.3,0.4-0.4,0.7c-0.2-0.2,0-0.9-0.1-1.3
			C-266.7,306.4-266.5,306.6-266.4,306.8z M-266.1,307.3c0,0.2-0.3,0.1-0.2,0.4c-0.1,0-0.1-0.1-0.2-0.1c0.1,0.3,0.1,0.4-0.3,0.5
			C-266.6,307.7-266.5,307.3-266.1,307.3z M-255.1,312.2c-0.3,0-0.3-0.3-0.6-0.4c0.2-0.1,0.6-0.1,1-0.2
			C-254.7,311.9-255.1,311.8-255.1,312.2z M-254.6,312C-254.4,311.6-254.4,312.3-254.6,312L-254.6,312z M-255.4,312.3
			c0.1,0.3-0.4,0.2-0.3,0.6c-0.5-0.2-0.8-0.7-1.1-1.1C-256,311.7-255.7,312.1-255.4,312.3z M-254.8,312.2
			C-254.4,312-255,312.6-254.8,312.2L-254.8,312.2z M-255.6,313.9c0.4,0.3,0.9,0.6,1.1,1.1c-0.6,0.1-1.4,0.1-2.1,0.2
			C-256.5,314.6-256,314.3-255.6,313.9z M-256.6,314.6c-0.3-0.1,0.1-0.2,0.1-0.3C-256.3,314.1-256.6,314.6-256.6,314.6z
			 M-256.7,314.2c-0.2-0.4-0.3-1.1-0.1-1.6c0.2,0.2,0.4,0.4,0.6,0.6C-256.2,313.7-256.6,313.9-256.7,314.2z M-256,313.7
			c0.2,0-0.1,0.2-0.1,0.4C-256.5,314-256,313.8-256,313.7z M-254.9,312.9c0.3-0.1,0.2,0.2,0.4,0.2v1.1
			C-254.8,313.9-255.4,313.3-254.9,312.9z M-255.3,313c-0.2,0,0-0.4,0.2-0.3C-255.1,312.8-255.2,312.9-255.3,313z M-255.6,316.9
			c-0.5-0.2-0.7-0.7-1.1-1c0.5-0.3,1.4-0.2,2.2-0.3C-254.9,316-255.3,316.4-255.6,316.9z M-254.6,316.2c-0.1,0.1-0.1,0.3-0.4,0.3
			C-254.9,316.4-254.8,316.2-254.6,316.2z M-255.6,317.9c0.2,0,0.2,0.1,0.3,0.1c0.1,0.5,0.7,0.5,0.8,1.1c-0.8,0-1.1,0.1-2.1,0.1
			C-256.4,318.6-256,318.3-255.6,317.9z M-256.5,318.4C-256.2,318.2-256.8,318.7-256.5,318.4L-256.5,318.4z M-256.1,317.3
			c0,0.5-0.4,0.5-0.5,0.8c-0.4-0.3,0.1-1-0.2-1.5C-256.5,316.7-256.3,317-256.1,317.3z M-255.3,316.8c0.2,0.1,0,0.2,0,0.3
			C-255.4,317-255.3,316.9-255.3,316.8z M-256.1,318C-255.8,317.7-256.4,318.2-256.1,318L-256.1,318z M-255.2,317.5
			c0.2-0.4,0.3-0.8,0.8-0.9v1.6C-254.8,318.1-254.9,317.7-255.2,317.5z M-256.7,321.6v-0.8c0.4,0.1,0.7,0.4,0.6,0.9
			c-0.3,0-0.5,0-0.4,0.3C-256.9,322.2-256.3,321.4-256.7,321.6z M-255.1,321.4c0-0.4,0.4-0.4,0.5-0.7c0.2,0.2,0,0.8,0.1,1.1
			C-254.8,321.9-254.9,321.6-255.1,321.4z M-255.2,320.9C-255.3,321.3-254.9,320.4-255.2,320.9L-255.2,320.9z M-255.6,320.9
			c-0.4-0.4-1-0.6-1.1-1.3c0.7,0,1.5,0,2.1-0.1C-254.7,320.2-255.3,320.4-255.6,320.9z M-233.2,324.3L-233.2,324.3
			C-233.2,324.3-233.2,324.3-233.2,324.3C-233.5,324-233.3,324.2-233.2,324.3z M-233.2,324.1c-0.1-0.1-0.2-0.1-0.4-0.2
			c-0.3-0.2-0.2,0.4-0.3,0.1c-0.1-0.4-0.1,0-0.2,0c-0.3-0.1-0.2-0.5-0.5-0.5c0,0.3-0.2,0.1-0.1-0.1c-0.2,0.2-0.1,0.2-0.4,0.1
			c-0.2,0-0.1-0.4-0.4-0.4c-0.1-0.2-0.1,0.2-0.4,0c-0.4-0.4-0.5-0.3-0.9-0.6c-0.4-0.2-0.8-0.5-1.2-0.6c-0.7-0.5-1.6-0.9-2.2-1.5
			c-1.6-0.9-3-1.9-4.4-3c-1.5-1-2.7-2.2-4.2-3.1c-0.6-0.6-1.3-1.1-2-1.7c-0.5-0.7-1.5-1-1.8-1.8c-0.2-1.7-0.1-3.7-0.3-5.3
			c0.6,0.3,1,0.8,1.4,1.2c3.1,3.1,6.5,6,9.7,8.9c2.6,2.3,5.4,4.4,8.4,6.3L-233.2,324.1L-233.2,324.1z M-252,301.2
			c0.6,0.3,0.8,1,1.4,1.3c1.2,1.5,2.6,2.9,4,4.3c1.8,1.9,3.6,3.7,5.5,5.5c2.5,2.5,5.1,4.8,7.9,6.9v2.5c-4-2.5-7.5-5.6-11-8.6
			c-0.2-0.5-0.8-0.6-1.1-1.1c-0.4-0.3-0.8-0.7-1.2-1c-0.2-0.5-0.9-0.6-1.1-1.1c-0.3-0.4-0.8-0.7-1.2-1c-0.3-0.3-0.6-0.7-0.9-1
			c-0.3-0.3-0.8-0.6-1-1c-0.7-0.6-1.3-1.3-2-1.9C-252.6,303.6-252.7,301.9-252,301.2z M-255.2,302C-255,301.7-255,302.4-255.2,302
			L-255.2,302z M-296.8,310.7c4.6-1.4,9.9-2.4,14.4-4.1c2.4-0.7,4.5-1.6,6.9-2.3c1.1-0.4,2.2-0.9,3.4-1.2c0.5-0.3,1.1-0.4,1.7-0.6
			c0.5-0.2,1.1-0.6,1.6-0.5c-0.4,0.6-1.2,0.8-2,1.1c-0.6,0.3-1.3,0.6-1.9,0.6c-0.6,0.3-1.2,0.6-2.1,0.7c-2.3,1-4.8,1.6-7.3,2.4
			c-2.4,0.7-4.9,1.5-7.5,2.1c-1.6,0.4-3.4,1-5,1.2c-0.2,0.1-0.4,0.2-0.7,0.3c-0.2,0-0.2,0.1-0.4,0.1c-0.1-0.2-0.3,0-0.1,0
			c-0.4,0.1-1,0.1-1.5,0.3C-297.3,310.7-296.9,310.7-296.8,310.7z M-297.7,311c0-0.1,0.2-0.1,0.3-0.1
			C-297.4,311-297.6,310.9-297.7,311z M-297.8,311c0,0.1-0.2,0.1-0.3,0.1C-298.1,310.9-297.9,311-297.8,311z M-299.3,311.4
			c0.2,0,0.2-0.1,0.3-0.1c0.1,0,0.3,0,0.3-0.1c0.4,0.1,0.4-0.2,0.8-0.1c0,0.1-0.1,0.1-0.2,0.1C-298.4,311.3-298.9,311.4-299.3,311.4
			C-299.4,311.5-299.4,311.4-299.3,311.4z M-296.8,311.2c-0.7,0.4-1.6,0.6-2.6,0.7C-298.6,311.7-297.7,311.5-296.8,311.2z
			 M-329.7,318c0.2,0,0.4,0,0.7,0c2.5-0.6,5.4-0.8,7.7-1.3c13-2.3,26-4.7,38.3-7.8c4.4-1,8.4-2.3,12.5-3.5c0.5-0.2,1.3-0.5,1.7-0.5
			c0.2,5.7-0.1,11.7-0.1,17.5c0.1,0.4-0.9,0-1,0.3c-0.4,1,0.6,0.8,1,1.3c-0.1,1,0.2,1.6,0.1,2.6c-6,0.3-12.4,0.4-18.3,0.6
			c-0.2,0-0.5,0.1-0.8,0.1c-0.2,0-0.8-0.2-0.7,0.3c-0.1-0.3-0.2-0.2-0.5-0.3c-0.6-0.1-1.4,0.1-2.1,0.1c-1.4,0-2.7,0-4.1,0.1
			c-2.4,0.1-4.8,0.2-6.7,0.3c0,0.1,0.1,0.2,0.3,0.2c0.5,0.1-0.2,0.1-0.4,0.1c-0.4,0.1-0.6,0-0.7-0.3c-0.1,0.2-0.4,0.2-0.7,0.2
			c0-0.2,0.3-0.1,0.3-0.2c-8.5,0.2-17.7,0.5-26.6,0.7L-329.7,318L-329.7,318z M-263.7,328.1L-263.7,328.1
			C-263.7,328.1-263.7,328.1-263.7,328.1C-263.7,328.1-263.7,328.1-263.7,328.1z"/>
	</g>
</g>
<g>
	<g>
		<path fill-rule="evenodd" clip-rule="evenodd" fill="#FFFFFF" d="M576.3,139.1c0-1.8-1.5-3.3-3.3-3.3c-0.6,0-1.1,0.1-1.5,0.4
			l-3.3-5c7.3-6,13.3-12.3,13.3-12.3s3-4.1,1.6-5.9c-1.1-1.4-4.9-0.3-8.6-0.1c-4.1,0.2-18.2,12.3-18.2,12.3
			c-0.3-2.3-2.3-3.6-4.3-3.6c-2,0-2.7,3.6-2.7,3.6l-34.2-7l-1,1.7l11,4.7c0,0.6,0.5,1.2,1.2,1.2c0.3,0,0.6-0.1,0.8-0.3l2,0.9
			c0,0,0,0.1,0,0.1c0,0.7,0.5,1.2,1.2,1.2c0.4,0,0.7-0.2,0.9-0.4l2.6,1.1c0,0.6,0.5,1.2,1.2,1.2c0.3,0,0.6-0.1,0.8-0.3l2.7,1.1
			c0,0,0,0.1,0,0.1c0,0.7,0.5,1.2,1.2,1.2c0.4,0,0.7-0.2,0.9-0.4l5.5,2.3l-15.3,12.6l-7.3-7.3l-2.3,3l2.3,6l-11.9-1.7l-1,1.7l11.9,5
			c0,0-1.7,3.3-0.3,4.3c1.3,1,5.3-1.7,5.3-1.7l8.6,6l1.3-2.3l-2.7-6.6l24.2-12.3l2.2,1.6c-0.1,0.2-0.2,0.4-0.2,0.6
			c0,0.7,0.5,1.2,1.2,1.2c0.3,0,0.6-0.2,0.9-0.4l2,1.4c0,0.1,0,0.1,0,0.2c0,0.7,0.5,1.2,1.2,1.2c0.2,0,0.4-0.1,0.6-0.2l2.1,1.5
			c0,0,0,0.1,0,0.1c0,0.7,0.5,1.2,1.2,1.2c0.2,0,0.3,0,0.5-0.1l2.5,1.8c0,0,0,0,0,0c0,0.7,0.5,1.2,1.2,1.2c0.1,0,0.3,0,0.4-0.1
			l7,5.1l1-4l-7.4-11.1C575.9,141.1,576.3,140.1,576.3,139.1z"/>
	</g>
</g>
</svg>
