<?xml version="1.0" encoding="utf-8"?>
<!-- Generator: Adobe Illustrator 18.0.0, SVG Export Plug-In . SVG Version: 6.00 Build 0)  -->
<!DOCTYPE svg PUBLIC "-//W3C//DTD SVG 1.1//EN" "http://www.w3.org/Graphics/SVG/1.1/DTD/svg11.dtd">
<svg version="1.1" id="Layer_1" xmlns="http://www.w3.org/2000/svg" xmlns:xlink="http://www.w3.org/1999/xlink" x="0px" y="0px"
	 viewBox="0 0 100 68" enable-background="new 0 0 100 68" xml:space="preserve">
<g>
	<g>
		<path fill-rule="evenodd" clip-rule="evenodd" fill="#E3BA26" d="M89.5,38.3c0-2.4-2-4.4-4.4-4.4c-0.7,0-1.4,0.2-2,0.5l-4.4-6.6
			c9.7-8,17.7-16.4,17.7-16.4s4-5.5,2.1-7.9C97,1.7,92,3.1,87.1,3.4c-5.5,0.3-24.3,16.4-24.3,16.4c-0.4-3.1-3.1-4.9-5.8-4.9
			s-3.5,4.9-3.5,4.9L7.8,10.5l-1.3,2.2L21.2,19c0,0.9,0.7,1.5,1.6,1.5c0.4,0,0.8-0.2,1.1-0.4l2.7,1.1c0,0.1,0,0.1,0,0.2
			c0,0.9,0.7,1.6,1.6,1.6c0.5,0,0.9-0.2,1.2-0.6l3.4,1.5c0,0.9,0.7,1.5,1.6,1.5c0.4,0,0.8-0.2,1.1-0.4l3.6,1.5c0,0.1,0,0.1,0,0.2
			c0,0.9,0.7,1.6,1.6,1.6c0.5,0,0.9-0.2,1.2-0.6l7.3,3.1L28.6,47.7L18.9,38l-3.1,4l3.1,8L3,47.7l-1.3,2.2l15.9,6.6
			c0,0-2.2,4.4-0.4,5.8c1.8,1.3,7.1-2.2,7.1-2.2l11.5,8l1.8-3.1L34,56.1l32.3-16.4l2.9,2.2c-0.1,0.2-0.2,0.5-0.2,0.8
			c0,0.9,0.7,1.6,1.6,1.6c0.5,0,0.9-0.2,1.2-0.5l2.6,1.9c0,0.1,0,0.2,0,0.3c0,0.9,0.7,1.6,1.6,1.6c0.3,0,0.5-0.1,0.8-0.2l2.7,2
			c0,0,0,0.1,0,0.1c0,0.9,0.7,1.6,1.6,1.6c0.2,0,0.4,0,0.6-0.1l3.3,2.4c0,0,0,0,0,0.1c0,0.9,0.7,1.6,1.6,1.6c0.2,0,0.4,0,0.5-0.1
			l9.3,6.9l1.3-5.3l-9.8-14.8C88.9,40.9,89.5,39.7,89.5,38.3z"/>
	</g>
</g>
</svg>
