<?xml version="1.0" encoding="utf-8"?>
<!-- Generator: Adobe Illustrator 18.0.0, SVG Export Plug-In . SVG Version: 6.00 Build 0)  -->
<!DOCTYPE svg PUBLIC "-//W3C//DTD SVG 1.1//EN" "http://www.w3.org/Graphics/SVG/1.1/DTD/svg11.dtd">
<svg version="1.1" id="Layer_1" xmlns="http://www.w3.org/2000/svg" xmlns:xlink="http://www.w3.org/1999/xlink" x="0px" y="0px"
	 viewBox="0 0 200 13.5" enable-background="new 0 0 200 13.5" xml:space="preserve">
<g>
	<g>
		<path fill="#E2B926" d="M5.6,0.1L0,13.2h1l1.8-4.3h6.2l1.8,4.3h1L6.3,0.1H5.6z M3,8.1L6,1.2l2.9,6.9H3z M14,13.2h0.9V0.1H14V13.2z
			 M24.8,9.5l-5.5-9.4h-0.9v13.1h0.9V1.9l5.2,8.8h0.6l5.2-8.8v11.3h0.9V0.1h-0.9L24.8,9.5z M48.6,6.1h-8.3v-6h-0.9v13.1h0.9V6.9h8.3
			v6.3h0.9V0.1h-0.9V6.1z M53,13.2H54V0.1H53V13.2z M64.2,7.6h3v2.5c-0.7,0.8-1.4,1.4-2.1,1.7c-0.7,0.4-1.5,0.6-2.3,0.6
			c-0.7,0-1.4-0.2-2.1-0.5c-0.6-0.3-1.2-0.7-1.7-1.3c-0.5-0.5-0.8-1.1-1.1-1.8c-0.3-0.7-0.4-1.4-0.4-2.2c0-0.7,0.1-1.4,0.4-2.1
			c0.2-0.7,0.6-1.3,1-1.8c0.4-0.5,1-1,1.6-1.3c0.6-0.3,1.3-0.5,2.1-0.5c0.9,0,1.7,0.2,2.5,0.6c0.7,0.4,1.3,1,1.8,1.9l0.8-0.5
			c-0.2-0.4-0.5-0.8-0.8-1.2c-0.3-0.4-0.7-0.7-1.1-0.9c-0.4-0.3-0.9-0.4-1.4-0.6C63.9,0.1,63.3,0,62.6,0c-0.9,0-1.7,0.2-2.4,0.5
			c-0.7,0.4-1.4,0.9-1.9,1.5c-0.5,0.6-1,1.3-1.3,2.1c-0.3,0.8-0.5,1.6-0.5,2.5c0,0.8,0.2,1.6,0.5,2.4c0.3,0.8,0.7,1.5,1.3,2.1
			c0.5,0.6,1.2,1.1,1.9,1.5c0.8,0.4,1.6,0.6,2.5,0.6c1.7,0,3.1-0.7,4.4-2.1v2H68V6.8h-3.8V7.6z M80,6.1h-8.3v-6h-0.9v13.1h0.9V6.9
			H80v6.3h0.9V0.1H80V6.1z M96.8,10c-0.2,0.3-0.5,0.5-0.8,0.6c-0.3,0.2-0.6,0.3-0.9,0.4S94.6,11,94.3,11c-0.5,0-1-0.1-1.5-0.4
			c-0.5-0.2-0.8-0.6-1.2-1c-0.3-0.4-0.6-0.9-0.8-1.4c-0.2-0.5-0.3-1.1-0.3-1.7c0-0.5,0.1-1,0.2-1.6c0.2-0.5,0.4-1,0.7-1.4
			c0.3-0.4,0.7-0.7,1.1-1c0.5-0.3,1-0.4,1.6-0.4c0.3,0,0.6,0,0.8,0.1c0.3,0.1,0.6,0.2,0.9,0.3c0.3,0.1,0.5,0.3,0.8,0.6
			c0.2,0.3,0.4,0.6,0.6,0.9l2-1.3c-0.4-0.8-1-1.5-1.9-2.1c-0.9-0.5-1.9-0.8-3-0.8c-1,0-1.9,0.2-2.7,0.6c-0.8,0.4-1.4,0.9-2,1.5
			c-0.5,0.6-0.9,1.3-1.2,2.1c-0.3,0.8-0.4,1.6-0.4,2.4c0,0.8,0.2,1.7,0.5,2.5c0.3,0.8,0.7,1.5,1.3,2.2c0.5,0.6,1.2,1.1,2,1.5
			c0.8,0.4,1.6,0.6,2.5,0.6c0.5,0,1-0.1,1.6-0.2c0.5-0.1,1-0.3,1.5-0.6c0.5-0.3,0.9-0.6,1.3-0.9c0.4-0.4,0.7-0.8,0.9-1.3l-2.1-1.2
			C97.2,9.4,97.1,9.7,96.8,10z M114.2,6.8c0.4-0.7,0.6-1.5,0.6-2.3c0-0.5-0.1-1.1-0.3-1.6c-0.2-0.5-0.5-1-0.9-1.4
			c-0.4-0.4-0.8-0.7-1.3-1c-0.5-0.3-1.1-0.4-1.7-0.4h-5.8v13.1h2.5V8.8h2.5l2.7,4.4h2.9l-3.1-4.9C113.2,8,113.8,7.5,114.2,6.8z
			 M112.2,5.3c-0.1,0.3-0.2,0.5-0.4,0.7c-0.1,0.2-0.3,0.3-0.5,0.5c-0.2,0.1-0.4,0.2-0.7,0.2h-3.2V2.3h3.1c0.2,0,0.4,0.1,0.7,0.2
			c0.2,0.1,0.4,0.3,0.6,0.4c0.2,0.2,0.3,0.4,0.4,0.7c0.1,0.3,0.1,0.5,0.1,0.8C112.3,4.7,112.2,5,112.2,5.3z M123.6,7.5h5.5V5.5h-5.5
			V2.3h6.4V0.1H121v13.1h9.1V11h-6.5V7.5z M139.7,0.1l-5.2,13.1h2.7l1.2-3.3h4.6l1.2,3.3h2.7l-5.1-13.1H139.7z M138.8,8.1l1.9-5.3
			l1.8,5.3H138.8z M149.6,2.3h4.2v10.9h2.5V2.3h4.2V0.1h-10.9V2.3z M165.9,13.2h2.5V0.1h-2.5V13.2z M179.7,10l-3.5-9.9h-2.7
			l5.1,13.1h2.1l5.1-13.1h-2.7L179.7,10z M193.5,11V7.5h5.5V5.5h-5.5V2.3h6.4V0.1h-8.9v13.1h9.1V11H193.5z"/>
	</g>
</g>
</svg>
