<?xml version="1.0" encoding="utf-8"?>
<!-- Generator: Adobe Illustrator 19.1.0, SVG Export Plug-In . SVG Version: 6.00 Build 0)  -->
<!DOCTYPE svg PUBLIC "-//W3C//DTD SVG 1.1//EN" "http://www.w3.org/Graphics/SVG/1.1/DTD/svg11.dtd">
<svg version="1.1" id="Layer_1" xmlns="http://www.w3.org/2000/svg" xmlns:xlink="http://www.w3.org/1999/xlink" x="0px" y="0px"
	 viewBox="-530 257 218 288" style="enable-background:new -530 257 218 288;" xml:space="preserve">
<style type="text/css">
	.st0{display:none;}
	.st1{fill:#445056;}
</style>
<g id="LAYER_1" class="st0">
</g>
<g id="Layer_4" class="st0">
</g>
<g id="Your_Design_copy" class="st0">
</g>
<g id="Layer_5">
	<g>
		<path class="st1" d="M-422,356l-108-99v90v108v90l108-99l-49.1-45L-422,356z M-515,291.1l70.8,64.9l-38,34.8l-32.8-30V291.1z
			 M-493.3,401l-21.7,19.9v-39.8L-493.3,401z M-444.2,446l-70.8,64.9v-69.7l32.8-30.1L-444.2,446z"/>
		<path class="st1" d="M-420,356l49.1,45l-49.1,45l108,99v-90V347v-90L-420,356z M-327,510.9l-70.8-64.9l38-34.8l32.8,30.1V510.9z
			 M-348.7,401l21.7-19.9v39.8L-348.7,401z M-359.8,390.8l-38-34.8l70.8-64.9v69.7L-359.8,390.8z"/>
	</g>
</g>
</svg>
